<svg width="180" height="43" viewBox="0 0 180 43" fill="none" xmlns="http://www.w3.org/2000/svg">
<g clip-path="url(#clip0_252_1135)">
<path d="M14.4704 36.9794C15.4784 37.1288 16.4677 37.3528 17.4384 37.6514C18.4464 37.9128 19.3424 38.2301 20.1264 38.6034V40.7314H1.47841V38.6034C2.18774 38.1928 2.93441 37.8568 3.71841 37.5954C4.53974 37.3341 5.32374 37.1288 6.07041 36.9794V5.28344C5.21174 5.13411 4.39041 4.92878 3.60641 4.66744C2.82241 4.36878 2.11307 4.03278 1.47841 3.65944V1.53144H8.53441C10.0277 1.53144 11.7264 1.45678 13.6304 1.30744C15.5717 1.15811 17.3451 1.08345 18.9504 1.08345C20.9291 1.08345 22.8517 1.28878 24.7184 1.69944C26.6224 2.07278 28.3024 2.72611 29.7584 3.65944C31.2517 4.59278 32.4464 5.84344 33.3424 7.41144C34.2384 8.94211 34.6864 10.8648 34.6864 13.1794C34.6864 15.3821 34.2384 17.2861 33.3424 18.8914C32.4837 20.4968 31.3264 21.8221 29.8704 22.8674C28.4144 23.9128 26.7344 24.6968 24.8304 25.2194C22.9264 25.7048 20.9664 25.9474 18.9504 25.9474C18.7637 25.9474 18.4651 25.9474 18.0544 25.9474C17.6437 25.9474 17.1957 25.9474 16.7104 25.9474C16.2624 25.9101 15.8144 25.8914 15.3664 25.8914C14.9557 25.8541 14.6571 25.8168 14.4704 25.7794V36.9794ZM17.4944 4.72344C16.7477 4.72344 16.1504 4.76078 15.7024 4.83544C15.2917 4.87278 14.8811 4.94744 14.4704 5.05944V22.0834C14.8064 22.1954 15.3104 22.2701 15.9824 22.3074C16.6544 22.3074 17.1957 22.3074 17.6064 22.3074C18.6144 22.3074 19.5851 22.1394 20.5184 21.8034C21.4517 21.4674 22.2731 20.9448 22.9824 20.2354C23.7291 19.5261 24.3264 18.6114 24.7744 17.4914C25.2224 16.3714 25.4464 15.0274 25.4464 13.4594C25.4464 10.4728 24.7184 8.27011 23.2624 6.85144C21.8064 5.43278 19.8837 4.72344 17.4944 4.72344ZM66.1947 1.53144C66.1201 3.21144 65.9894 4.94744 65.8027 6.73944C65.6161 8.53144 65.3734 10.2114 65.0747 11.7794H62.7787L60.2027 5.17144H49.7307V18.8914H56.5627L59.0267 14.5794H60.8187C61.0054 16.4088 61.0987 18.4434 61.0987 20.6834C61.0987 22.9234 61.0054 25.0141 60.8187 26.9554H59.0267L56.5627 22.5314H49.7307V37.0914H60.6507L63.6187 29.9794H65.9147C66.0641 30.6888 66.2134 31.4914 66.3627 32.3874C66.5121 33.2834 66.6241 34.2168 66.6987 35.1874C66.8107 36.1208 66.8854 37.0728 66.9227 38.0434C66.9974 39.0141 67.0347 39.9101 67.0347 40.7314H36.7387V38.6034C37.3734 38.2674 38.0827 37.9501 38.8667 37.6514C39.6507 37.3528 40.4721 37.1288 41.3307 36.9794V5.28344C40.5841 5.13411 39.7814 4.92878 38.9227 4.66744C38.1014 4.36878 37.3734 4.03278 36.7387 3.65944V1.53144H66.1947ZM91.1996 1.53144H106.208V3.65944C105.573 4.07011 104.845 4.42478 104.024 4.72344C103.202 4.98478 102.456 5.17144 101.784 5.28344L91.1436 18.7794C92.0023 19.9741 93.0103 21.3368 94.1676 22.8674C95.3249 24.3608 96.5569 25.9288 97.8636 27.5714C99.1703 29.1768 100.514 30.8194 101.896 32.4994C103.277 34.1421 104.621 35.7101 105.928 37.2034L108.616 38.8274V40.7314H98.8716L96.6316 39.1634C95.7356 38.0434 94.7836 36.8114 93.7756 35.4674C92.8049 34.0861 91.8343 32.6674 90.8636 31.2114C89.8929 29.7181 88.9409 28.2248 88.0076 26.7314C87.0743 25.2381 86.1969 23.7821 85.3756 22.3634H82.9676V36.9794C83.7889 37.1288 84.5356 37.3528 85.2076 37.6514C85.8796 37.9501 86.4583 38.2674 86.9436 38.6034V40.7314H69.9756V38.6034C70.7223 38.2301 71.4876 37.9128 72.2716 37.6514C73.0556 37.3528 73.8209 37.1288 74.5676 36.9794V5.28344C73.7089 5.17144 72.8689 4.96611 72.0476 4.66744C71.2636 4.36878 70.5729 4.03278 69.9756 3.65944V1.53144H86.9436V3.65944C86.4583 3.95811 85.8609 4.25678 85.1516 4.55544C84.4796 4.85411 83.7516 5.09678 82.9676 5.28344V19.5074L86.2716 18.7234L95.2876 5.28344C94.5409 5.13411 93.7943 4.91011 93.0476 4.61144C92.3383 4.27544 91.7223 3.95811 91.1996 3.65944V1.53144ZM138.629 1.53144C138.555 3.21144 138.424 4.94744 138.237 6.73944C138.051 8.53144 137.808 10.2114 137.509 11.7794H135.213L132.637 5.17144H122.165V18.8914H128.997L131.461 14.5794H133.253C133.44 16.4088 133.533 18.4434 133.533 20.6834C133.533 22.9234 133.44 25.0141 133.253 26.9554H131.461L128.997 22.5314H122.165V37.0914H133.085L136.053 29.9794H138.349C138.499 30.6888 138.648 31.4914 138.797 32.3874C138.947 33.2834 139.059 34.2168 139.133 35.1874C139.245 36.1208 139.32 37.0728 139.357 38.0434C139.432 39.0141 139.469 39.9101 139.469 40.7314H109.173V38.6034C109.808 38.2674 110.517 37.9501 111.301 37.6514C112.085 37.3528 112.907 37.1288 113.765 36.9794V5.28344C113.019 5.13411 112.216 4.92878 111.357 4.66744C110.536 4.36878 109.808 4.03278 109.173 3.65944V1.53144H138.629ZM169.57 40.7314H150.306V38.6034C151.053 38.3048 151.893 38.0061 152.826 37.7074C153.797 37.3714 154.768 37.1288 155.738 36.9794V5.17144H149.242L145.658 14.7474H143.362C143.213 14.0008 143.064 13.0488 142.914 11.8914C142.765 10.7341 142.634 9.53944 142.522 8.30744C142.41 7.07544 142.317 5.86211 142.242 4.66744C142.168 3.43544 142.13 2.39011 142.13 1.53144H177.802C177.802 2.42744 177.765 3.47278 177.69 4.66744C177.616 5.86211 177.522 7.07544 177.41 8.30744C177.298 9.53944 177.168 10.7341 177.018 11.8914C176.869 13.0114 176.72 13.9634 176.57 14.7474H174.218L170.634 5.17144H164.138V36.9794C165.109 37.1661 166.061 37.3901 166.994 37.6514C167.965 37.9128 168.824 38.2301 169.57 38.6034V40.7314Z" fill="#F8E92E"/>
</g>
<defs>
<clipPath id="clip0_252_1135">
<rect width="180" height="43" fill="white"/>
</clipPath>
</defs>
</svg>
