<svg width="43" height="43" viewBox="0 0 43 43" fill="none" xmlns="http://www.w3.org/2000/svg">
<g clip-path="url(#clip0_252_1145)">
<circle cx="21.5" cy="21.5" r="21.5" fill="#C40C0C"/>
<g filter="url(#filter0_d_252_1145)">
<path fill-rule="evenodd" clip-rule="evenodd" d="M27.5514 5.14404L25.3392 11.8517C26.4397 12.2704 27.447 12.8712 28.3242 13.6165L33.8866 9.1921C33.9756 9.11668 34.0791 9.05949 34.1912 9.02393C34.3032 8.98837 34.4214 8.97516 34.5388 8.98509C34.6562 8.99501 34.7703 9.02787 34.8744 9.08171C34.9786 9.13555 35.0706 9.20928 35.145 9.29852C35.2194 9.38776 35.2747 9.4907 35.3077 9.60123C35.3406 9.71176 35.3505 9.82763 35.3368 9.94198C35.3231 10.0563 35.286 10.1668 35.2277 10.2669C35.1695 10.3669 35.0913 10.4546 34.9977 10.5245L29.5526 14.8583C30.2075 15.644 30.7356 16.5229 31.1185 17.4646L38.2515 16.3169C38.3656 16.2983 38.4822 16.3018 38.5948 16.3274C38.7074 16.3529 38.8138 16.3999 38.9078 16.4657C39.0018 16.5315 39.0815 16.6147 39.1425 16.7107C39.2035 16.8067 39.2445 16.9135 39.2631 17.025C39.282 17.1364 39.2783 17.2503 39.2522 17.3603C39.226 17.4702 39.178 17.5741 39.1107 17.6659C39.0435 17.7577 38.9584 17.8357 38.8603 17.8953C38.7622 17.955 38.6531 17.9952 38.5391 18.0136L31.6235 19.1278C31.7586 19.778 31.8266 20.4399 31.8264 21.1034C31.8264 21.6828 31.7718 22.2527 31.6738 22.8053L38.4995 25.2964C38.7178 25.3767 38.8947 25.5383 38.9913 25.7457C39.088 25.9532 39.0966 26.1897 39.0152 26.4033C38.9748 26.5091 38.9135 26.606 38.8347 26.6886C38.756 26.7711 38.6614 26.8377 38.5563 26.8845C38.4512 26.9313 38.3377 26.9574 38.2223 26.9613C38.1069 26.9652 37.9918 26.9469 37.8836 26.9073L31.2159 24.4737C30.702 25.8551 29.882 27.1084 28.8147 28.144L33.463 33.6176C33.6086 33.7933 33.6775 34.0181 33.6547 34.2431C33.6319 34.4682 33.5193 34.6754 33.3412 34.8198C33.1631 34.9642 32.934 35.0342 32.7034 35.0146C32.4729 34.995 32.2596 34.8874 32.1097 34.7151L27.4679 29.2425C26.62 29.8228 25.6858 30.2723 24.6982 30.5754L25.9336 37.5484C25.9535 37.6596 25.9506 37.7735 25.9253 37.8836C25.9 37.9937 25.8527 38.0978 25.7862 38.19C25.7196 38.2821 25.6351 38.3606 25.5374 38.4208C25.4398 38.481 25.3309 38.5217 25.2171 38.5407C25.1033 38.5605 24.9867 38.558 24.8739 38.5335C24.7611 38.509 24.6544 38.4629 24.5599 38.3979C24.4654 38.333 24.3851 38.2503 24.3234 38.1548C24.2617 38.0593 24.22 37.9528 24.2007 37.8415L22.9749 30.9412C22.5438 30.9968 22.1095 31.0251 21.6747 31.026C20.7954 31.026 19.9412 30.9161 19.1262 30.7089L16.5953 37.4883C16.5156 37.7025 16.352 37.877 16.1406 37.9734C15.9292 38.0698 15.6873 38.0801 15.4681 38.0022C15.2488 37.9243 15.0703 37.7644 14.9717 37.5578C14.873 37.3512 14.8624 37.1148 14.9422 36.9005L17.4666 30.13C16.3924 29.6488 15.4119 28.9888 14.5689 28.1795L8.92246 32.8321C8.74328 32.973 8.51476 33.0398 8.28581 33.0182C8.05686 32.9966 7.84565 32.8883 7.69737 32.7165C7.54909 32.5446 7.47552 32.3229 7.4924 32.0987C7.50929 31.8745 7.61528 31.6657 7.7877 31.5169L13.4192 26.8728C12.8591 26.1109 12.4129 25.2749 12.0943 24.39L4.8097 25.6827C4.58007 25.7233 4.34334 25.6732 4.15148 25.5433C3.95961 25.4135 3.82829 25.2146 3.78634 24.9903C3.76554 24.8792 3.76734 24.7652 3.79164 24.6548C3.81595 24.5445 3.86227 24.4398 3.92797 24.347C3.99367 24.2541 4.07745 24.1748 4.17453 24.1135C4.27161 24.0523 4.38008 24.0104 4.49375 23.9902L11.6552 22.7127C11.5664 22.1807 11.522 21.6425 11.5224 21.1034C11.5224 20.4498 11.5872 19.8102 11.7109 19.1916L4.67422 16.7518C4.45429 16.6755 4.27437 16.517 4.17404 16.3111C4.07371 16.1052 4.0612 15.8688 4.13924 15.6538C4.21728 15.4389 4.3795 15.2631 4.5902 15.165C4.8009 15.067 5.04282 15.0547 5.26275 15.131L12.1998 17.5363C12.6544 16.3894 13.323 15.3349 14.1716 14.4266C14.1258 14.3915 14.0836 14.352 14.0457 14.3088L9.18593 8.77866C9.04452 8.60441 8.97764 8.38341 8.99934 8.16202C9.02103 7.94063 9.1296 7.73605 9.30228 7.59119C9.47496 7.44633 9.69833 7.37244 9.92554 7.38503C10.1528 7.39762 10.3661 7.4957 10.521 7.6587L15.3792 13.1894C15.4043 13.2177 15.4215 13.2459 15.4424 13.2763C16.2126 12.6896 17.0651 12.2141 17.9737 11.8643L16.8261 4.67878C16.8083 4.56721 16.8131 4.45329 16.8404 4.34354C16.8676 4.23379 16.9166 4.13035 16.9848 4.03913C17.0529 3.94792 17.1387 3.87071 17.2374 3.81191C17.3361 3.75312 17.4456 3.71389 17.5598 3.69647C17.6739 3.67905 17.7905 3.68377 17.9028 3.71037C18.0151 3.73698 18.121 3.78494 18.2143 3.85151C18.3076 3.91809 18.3866 4.00198 18.4468 4.0984C18.507 4.19482 18.5471 4.30187 18.5649 4.41345L19.6751 11.3739C20.9849 11.1173 22.3337 11.1153 23.6443 11.3682L25.8774 4.61546C25.9108 4.50562 25.9664 4.40343 26.0409 4.31489C26.1153 4.22634 26.2071 4.15324 26.3109 4.09986C26.4146 4.04648 26.5283 4.01392 26.6451 4.00408C26.7619 3.99423 26.8796 4.00731 26.9912 4.04255C27.1028 4.07778 27.206 4.13445 27.2949 4.20924C27.3837 4.28403 27.4564 4.37542 27.5086 4.47804C27.5608 4.58066 27.5914 4.69244 27.5988 4.80681C27.6062 4.92118 27.59 5.03584 27.5514 5.14404Z" fill="#F8E92E"/>
</g>
<path fill-rule="evenodd" clip-rule="evenodd" d="M17.5071 18.1011C18.0453 18.1011 18.4844 18.5303 18.4844 19.0567C18.4844 19.5827 18.0453 20.0113 17.5071 20.0113C17.2481 20.011 16.9997 19.9104 16.8165 19.7315C16.6333 19.5525 16.5302 19.3099 16.5298 19.0567C16.5304 18.8036 16.6335 18.5609 16.8166 18.3818C16.9998 18.2027 17.248 18.1018 17.5071 18.1011ZM25.4418 18.0797C25.701 18.0802 25.9494 18.1811 26.1326 18.3602C26.3159 18.5393 26.4191 18.782 26.4197 19.0353C26.4197 19.5613 25.9805 19.9904 25.4418 19.9904C25.1829 19.9897 24.9348 19.8888 24.7517 19.7099C24.5687 19.5309 24.4656 19.2883 24.465 19.0353C24.465 18.5088 24.9042 18.0797 25.4418 18.0797Z" fill="#C40C0C"/>
<path d="M17.177 24.8502C17.177 24.8502 17.7102 27.9941 21.3508 27.9941C24.9914 27.9941 25.8227 24.8502 25.8227 24.8502" stroke="#C40C0C"/>
<rect x="18.9707" y="7.58824" width="5.05882" height="4.42647" fill="#FFC100"/>
<path d="M20.22 6.34247C19.3205 6.65692 18.6663 7.04998 17.0207 8.22917C14.8538 9.77195 14.2916 10.1355 13.0958 10.7153C11.7261 11.3835 11.7159 11.4228 12.738 13.0442C13.1366 13.6829 13.4944 14.2136 13.5148 14.2136C13.5353 14.2136 14.0668 14.0662 14.7005 13.8795C16.9696 13.2211 19.0241 12.9263 21.4567 12.9263C24.1858 12.9263 26.2914 13.2604 29.2964 14.1743C29.4293 14.2037 29.644 13.9384 30.1959 13.0933C30.5945 12.4743 30.9421 11.8552 30.9727 11.7373C31.0545 11.413 30.7274 11.0297 30.2266 10.8922C29.6746 10.735 28.3663 9.91934 26.6798 8.70085C23.8383 6.63727 23.0513 6.23438 21.6203 6.18524C20.9559 6.16559 20.6288 6.19507 20.22 6.34247ZM21.8247 8.04247C22.0189 8.17021 22.3255 8.26848 22.6935 8.29796C23.317 8.34709 23.3579 8.41588 23.0819 8.88755C22.9184 9.17252 22.9184 9.22166 23.0921 9.87021C23.2557 10.4991 23.2659 10.5777 23.1126 10.8529C23.0002 11.0691 22.8162 11.1968 22.4482 11.3147C22.1722 11.4032 21.886 11.5407 21.8247 11.6193C21.7532 11.6881 21.6203 11.7569 21.5181 11.7569C21.4159 11.7569 21.283 11.6881 21.2114 11.6193C21.1501 11.5407 20.8639 11.4032 20.5879 11.3147C20.22 11.1968 20.036 11.0691 19.9236 10.8529C19.7702 10.5777 19.7805 10.4991 19.944 9.87021C20.1178 9.22166 20.1178 9.17252 19.9542 8.88755C19.6782 8.41588 19.7191 8.34709 20.3426 8.29796C20.7106 8.26848 21.0172 8.18004 21.191 8.04247C21.5385 7.78698 21.4772 7.78698 21.8247 8.04247Z" fill="#9B0909"/>
<path d="M17.4949 12.5185C15.5411 12.7016 13.3051 13.0575 13.0114 13.2303C12.1983 13.6981 12.7969 14.5624 14.2989 15.0911C17.7546 16.3012 24.0224 16.4028 28.0089 15.3047C29.7481 14.8268 30.5161 14.237 30.3241 13.5455C30.2224 13.1795 30.0643 13.1185 28.4494 12.8744C25.0162 12.3559 20.657 12.2135 17.4949 12.5185Z" fill="#4D0404"/>
<path d="M27.1415 17.677C25.589 18.1379 24.3411 18.2723 21.4424 18.2723C18.5732 18.2723 17.797 18.1955 16.0381 17.7346C15.6647 17.6386 15.311 17.5521 15.2619 17.5521C15.1243 17.5521 15.2717 18.7909 15.4879 19.4823C15.8514 20.625 16.5491 21.326 17.4825 21.4892C18.0426 21.5949 18.7304 21.5084 19.1628 21.2876C19.487 21.1147 20.224 20.4137 20.3714 20.1257C20.45 19.9816 20.6465 19.7031 20.8136 19.5207C21.0592 19.2518 21.1869 19.1846 21.4915 19.1846C21.7962 19.1846 21.9239 19.2518 22.1695 19.5207C22.3366 19.7031 22.5331 19.9816 22.6117 20.1257C22.7689 20.4137 23.496 21.1147 23.8301 21.2876C23.9382 21.3452 24.2527 21.4412 24.5278 21.4988C25.5693 21.7101 26.5618 21.2588 27.1415 20.2985C27.4559 19.7704 27.7998 18.4548 27.7605 17.917L27.7311 17.4945L27.1415 17.677Z" fill="#420707"/>
</g>
<defs>
<filter id="filter0_d_252_1145" x="-0.228027" y="-0.313828" width="43.5029" height="42.8677" filterUnits="userSpaceOnUse" color-interpolation-filters="sRGB">
<feFlood flood-opacity="0" result="BackgroundImageFix"/>
<feColorMatrix in="SourceAlpha" type="matrix" values="0 0 0 0 0 0 0 0 0 0 0 0 0 0 0 0 0 0 127 0" result="hardAlpha"/>
<feOffset/>
<feGaussianBlur stdDeviation="2"/>
<feComposite in2="hardAlpha" operator="out"/>
<feColorMatrix type="matrix" values="0 0 0 0 0.972549 0 0 0 0 0.913725 0 0 0 0 0.180392 0 0 0 0.5 0"/>
<feBlend mode="normal" in2="BackgroundImageFix" result="effect1_dropShadow_252_1145"/>
<feBlend mode="normal" in="SourceGraphic" in2="effect1_dropShadow_252_1145" result="shape"/>
</filter>
<clipPath id="clip0_252_1145">
<rect width="43" height="43" fill="white"/>
</clipPath>
</defs>
</svg>
