<svg width="162" height="247" viewBox="0 0 162 247" fill="none" xmlns="http://www.w3.org/2000/svg">
<rect width="161" height="247" fill="#1B75BC"/>
<rect x="10" y="10" width="141" height="227" rx="10" fill="#76D1F3"/>
<path d="M80.3 176.6C109.737 176.6 133.6 152.737 133.6 123.3C133.6 93.8633 109.737 70 80.3 70C50.8632 70 27 93.8633 27 123.3C27 152.737 50.8632 176.6 80.3 176.6Z" fill="white"/>
<path d="M45.8195 111.228H79.8065V121.1H45.8195V111.228ZM45.9069 125.032H79.8065V134.905H45.9069V125.032ZM103.921 149.67C103.222 150.253 101.911 151.039 99.9889 152.029C98.125 153.02 95.8243 153.893 93.0867 154.651C90.3491 155.408 87.3203 155.757 84.0002 155.699C78.9328 155.582 74.3895 154.68 70.3705 152.99C66.4097 151.243 63.0314 148.884 60.2356 145.914C57.498 142.943 55.4011 139.536 53.9449 135.691C52.4888 131.847 51.7607 127.741 51.7607 123.372C51.7607 118.479 52.4888 113.994 53.9449 109.917C55.4594 105.84 57.5854 102.316 60.323 99.3453C63.1188 96.3747 66.4389 94.074 70.2831 92.4431C74.1274 90.8122 78.3794 89.9967 83.0392 89.9967C87.3494 89.9967 91.1646 90.5792 94.4846 91.7441C97.8047 92.909 100.513 94.1613 102.61 95.501L97.63 107.471C96.1738 106.364 94.2225 105.228 91.7762 104.063C89.388 102.84 86.6213 102.229 83.476 102.229C80.2142 102.229 77.1562 103.131 74.3022 104.937C71.5063 106.743 69.2347 109.189 67.4873 112.276C65.7981 115.305 64.9536 118.771 64.9536 122.673C64.9536 126.809 65.7399 130.449 67.3126 133.594C68.8852 136.681 71.1277 139.099 74.0401 140.846C76.9524 142.593 80.3598 143.467 84.2623 143.467C87.6989 143.467 90.6404 142.914 93.0867 141.807C95.5331 140.7 97.397 139.536 98.6784 138.312L103.921 149.67Z" fill="#1B75BC"/>
<path d="M66.9676 52.2257C66.7543 52.2257 66.5836 52.151 66.4556 52.0017C66.3276 51.8524 66.285 51.6604 66.3276 51.4257L69.4956 36.5777L64.5996 39.7777C64.365 39.927 64.1516 39.9804 63.9596 39.9377C63.7676 39.895 63.6183 39.7777 63.5116 39.5857L62.0076 36.8977C61.9436 36.7057 61.9436 36.503 62.0076 36.2897C62.093 36.055 62.253 35.8737 62.4876 35.7457L71.0636 30.0497C71.213 29.9644 71.3303 29.911 71.4156 29.8897C71.5223 29.847 71.661 29.8257 71.8316 29.8257H75.8636C76.0983 29.8257 76.2796 29.9004 76.4076 30.0497C76.5356 30.199 76.5783 30.391 76.5356 30.6257L72.0876 51.4257C72.045 51.6604 71.9276 51.8524 71.7356 52.0017C71.565 52.151 71.3623 52.2257 71.1276 52.2257H66.9676ZM78.3961 52.2257C78.2255 52.2257 78.0868 52.1617 77.9801 52.0337C77.8948 51.9057 77.8628 51.7457 77.8841 51.5537L81.1481 36.2257C81.1908 36.055 81.2868 35.9057 81.4361 35.7777C81.5855 35.6497 81.7455 35.5857 81.9161 35.5857H85.4041C85.7881 35.5857 86.0548 35.7777 86.2041 36.1617L89.9801 46.4337L87.6761 46.0177L95.0041 36.1617C95.3028 35.7777 95.6548 35.5857 96.0601 35.5857H99.8681C100.06 35.5857 100.209 35.6497 100.316 35.7777C100.423 35.9057 100.455 36.055 100.412 36.2257L97.1481 51.5537C97.1268 51.7457 97.0308 51.9057 96.8601 52.0337C96.7108 52.1617 96.5401 52.2257 96.3481 52.2257H92.3801C92.1881 52.2257 92.0388 52.1617 91.9321 52.0337C91.8468 51.9057 91.8148 51.7457 91.8361 51.5537L94.0761 41.1217L95.5481 41.0577L89.6281 49.0257C89.4788 49.2177 89.3188 49.3884 89.1481 49.5377C88.9775 49.6657 88.7748 49.7297 88.5401 49.7297H87.5481C87.3135 49.7297 87.1321 49.6657 87.0041 49.5377C86.8975 49.4097 86.8015 49.239 86.7161 49.0257L84.0921 41.2817L85.3401 41.3457L83.1641 51.5537C83.1428 51.7457 83.0468 51.9057 82.8761 52.0337C82.7268 52.1617 82.5561 52.2257 82.3641 52.2257H78.3961Z" fill="black"/>
<path d="M44.25 215.449C43.6633 215.449 43.1533 215.342 42.72 215.129C42.2933 214.916 41.96 214.622 41.72 214.249C41.4867 213.869 41.37 213.442 41.37 212.969C41.37 212.769 41.4 212.569 41.46 212.369C41.52 212.169 41.5933 211.982 41.68 211.809C41.7667 211.629 41.8533 211.469 41.94 211.329C42.0333 211.189 42.11 211.076 42.17 210.989L43.97 208.549C44.0033 208.516 44.0467 208.476 44.1 208.429C44.1533 208.376 44.2267 208.349 44.32 208.349H45.44C45.5 208.349 45.55 208.372 45.59 208.419C45.63 208.459 45.65 208.509 45.65 208.569C45.65 208.596 45.6467 208.622 45.64 208.649C45.6333 208.669 45.6233 208.686 45.61 208.699L44.23 210.589C44.2833 210.576 44.3433 210.566 44.41 210.559C44.4833 210.552 44.5467 210.549 44.6 210.549C44.92 210.562 45.2267 210.629 45.52 210.749C45.82 210.869 46.0867 211.036 46.32 211.249C46.5533 211.456 46.7367 211.702 46.87 211.989C47.01 212.276 47.08 212.596 47.08 212.949C47.08 213.396 46.9633 213.809 46.73 214.189C46.5033 214.569 46.1767 214.876 45.75 215.109C45.33 215.336 44.83 215.449 44.25 215.449ZM44.23 214.159C44.45 214.159 44.6533 214.116 44.84 214.029C45.0267 213.936 45.1767 213.799 45.29 213.619C45.4033 213.439 45.46 213.222 45.46 212.969C45.46 212.709 45.4033 212.492 45.29 212.319C45.1767 212.139 45.0267 212.006 44.84 211.919C44.6533 211.826 44.45 211.779 44.23 211.779C44.01 211.779 43.8067 211.826 43.62 211.919C43.4333 212.006 43.2833 212.139 43.17 212.319C43.0567 212.492 43 212.709 43 212.969C43 213.222 43.0567 213.439 43.17 213.619C43.29 213.799 43.44 213.936 43.62 214.029C43.8067 214.116 44.01 214.159 44.23 214.159ZM49.9223 215.349C49.8557 215.349 49.7957 215.326 49.7423 215.279C49.6957 215.232 49.6723 215.172 49.6723 215.099V210.129L48.2323 211.239C48.1723 211.286 48.109 211.302 48.0423 211.289C47.9823 211.276 47.929 211.239 47.8823 211.179L47.3823 210.529C47.3423 210.469 47.3257 210.406 47.3323 210.339C47.3457 210.272 47.3823 210.219 47.4423 210.179L49.7223 208.419C49.7623 208.392 49.799 208.376 49.8323 208.369C49.8723 208.356 49.9157 208.349 49.9623 208.349H51.0223C51.089 208.349 51.1457 208.372 51.1923 208.419C51.239 208.466 51.2623 208.526 51.2623 208.599V215.099C51.2623 215.172 51.239 215.232 51.1923 215.279C51.1457 215.326 51.089 215.349 51.0223 215.349H49.9223ZM52.4975 216.099C52.4442 216.099 52.3975 216.076 52.3575 216.029C52.3242 215.989 52.3108 215.939 52.3175 215.879L52.5975 214.059C52.6108 213.972 52.6442 213.896 52.6975 213.829C52.7508 213.762 52.8308 213.729 52.9375 213.729H53.9775C54.0308 213.729 54.0742 213.749 54.1075 213.789C54.1475 213.822 54.1675 213.866 54.1675 213.919C54.1675 213.959 54.1608 213.999 54.1475 214.039L53.4475 215.829C53.4208 215.896 53.3808 215.956 53.3275 216.009C53.2808 216.069 53.2042 216.099 53.0975 216.099H52.4975ZM57.7823 215.459C57.1823 215.459 56.679 215.362 56.2723 215.169C55.8657 214.976 55.5557 214.722 55.3423 214.409C55.1357 214.096 55.0257 213.762 55.0123 213.409C55.0123 213.349 55.0323 213.299 55.0723 213.259C55.1123 213.219 55.1623 213.199 55.2223 213.199H56.3523C56.4323 213.199 56.4957 213.219 56.5423 213.259C56.5957 213.292 56.6357 213.339 56.6623 213.399C56.729 213.579 56.8157 213.726 56.9223 213.839C57.0357 213.952 57.1657 214.036 57.3123 214.089C57.459 214.142 57.6157 214.169 57.7823 214.169C57.9957 214.169 58.1923 214.126 58.3723 214.039C58.5523 213.946 58.6957 213.812 58.8023 213.639C58.909 213.466 58.9623 213.252 58.9623 212.999C58.9623 212.779 58.9123 212.586 58.8123 212.419C58.7123 212.252 58.5723 212.122 58.3923 212.029C58.2123 211.936 58.009 211.889 57.7823 211.889C57.609 211.889 57.4657 211.909 57.3523 211.949C57.2457 211.989 57.1557 212.039 57.0823 212.099C57.009 212.152 56.9423 212.202 56.8823 212.249C56.8223 212.289 56.7557 212.309 56.6823 212.309H55.5723C55.5123 212.309 55.459 212.289 55.4123 212.249C55.3723 212.202 55.3523 212.149 55.3523 212.089L55.7023 208.639C55.7157 208.546 55.749 208.476 55.8023 208.429C55.8623 208.376 55.9323 208.349 56.0123 208.349H59.8923C59.9657 208.349 60.0257 208.372 60.0723 208.419C60.119 208.466 60.1423 208.526 60.1423 208.599V209.399C60.1423 209.466 60.119 209.522 60.0723 209.569C60.0257 209.616 59.9657 209.639 59.8923 209.639H57.0023L56.8523 211.109C56.9857 211.022 57.149 210.946 57.3423 210.879C57.5423 210.806 57.819 210.769 58.1723 210.769C58.4923 210.769 58.7957 210.822 59.0823 210.929C59.3757 211.029 59.6357 211.179 59.8623 211.379C60.089 211.579 60.2657 211.819 60.3923 212.099C60.5257 212.372 60.5923 212.686 60.5923 213.039C60.5923 213.519 60.479 213.942 60.2523 214.309C60.0257 214.669 59.7023 214.952 59.2823 215.159C58.8623 215.359 58.3623 215.459 57.7823 215.459ZM64.3107 215.449C63.8307 215.449 63.4174 215.382 63.0707 215.249C62.7307 215.109 62.4474 214.919 62.2207 214.679C62.0007 214.432 61.834 214.149 61.7207 213.829C61.614 213.502 61.5507 213.156 61.5307 212.789C61.524 212.609 61.5174 212.409 61.5107 212.189C61.5107 211.962 61.5107 211.736 61.5107 211.509C61.5174 211.282 61.524 211.076 61.5307 210.889C61.544 210.522 61.6074 210.179 61.7207 209.859C61.8407 209.539 62.014 209.259 62.2407 209.019C62.4674 208.779 62.7507 208.592 63.0907 208.459C63.4374 208.319 63.844 208.249 64.3107 208.249C64.7774 208.249 65.1807 208.319 65.5207 208.459C65.8607 208.592 66.144 208.779 66.3707 209.019C66.5974 209.259 66.7674 209.539 66.8807 209.859C67.0007 210.179 67.0707 210.522 67.0907 210.889C67.0974 211.076 67.1007 211.282 67.1007 211.509C67.1074 211.736 67.1074 211.962 67.1007 212.189C67.1007 212.409 67.0974 212.609 67.0907 212.789C67.0707 213.156 67.004 213.502 66.8907 213.829C66.7774 214.149 66.6074 214.432 66.3807 214.679C66.1607 214.919 65.8774 215.109 65.5307 215.249C65.1907 215.382 64.784 215.449 64.3107 215.449ZM64.3107 214.149C64.6974 214.149 64.9807 214.022 65.1607 213.769C65.3407 213.516 65.4374 213.172 65.4507 212.739C65.4574 212.546 65.4607 212.346 65.4607 212.139C65.4674 211.932 65.4674 211.726 65.4607 211.519C65.4607 211.312 65.4574 211.119 65.4507 210.939C65.4374 210.526 65.3407 210.189 65.1607 209.929C64.9807 209.669 64.6974 209.536 64.3107 209.529C63.9174 209.536 63.6307 209.669 63.4507 209.929C63.2774 210.189 63.184 210.526 63.1707 210.939C63.164 211.119 63.1574 211.312 63.1507 211.519C63.1507 211.726 63.1507 211.932 63.1507 212.139C63.1574 212.346 63.164 212.546 63.1707 212.739C63.184 213.172 63.2807 213.516 63.4607 213.769C63.6407 214.022 63.924 214.149 64.3107 214.149ZM70.9904 215.449C70.5104 215.449 70.0971 215.382 69.7504 215.249C69.4104 215.109 69.1271 214.919 68.9004 214.679C68.6804 214.432 68.5137 214.149 68.4004 213.829C68.2937 213.502 68.2304 213.156 68.2104 212.789C68.2037 212.609 68.1971 212.409 68.1904 212.189C68.1904 211.962 68.1904 211.736 68.1904 211.509C68.1971 211.282 68.2037 211.076 68.2104 210.889C68.2237 210.522 68.2871 210.179 68.4004 209.859C68.5204 209.539 68.6937 209.259 68.9204 209.019C69.1471 208.779 69.4304 208.592 69.7704 208.459C70.1171 208.319 70.5237 208.249 70.9904 208.249C71.4571 208.249 71.8604 208.319 72.2004 208.459C72.5404 208.592 72.8237 208.779 73.0504 209.019C73.2771 209.259 73.4471 209.539 73.5604 209.859C73.6804 210.179 73.7504 210.522 73.7704 210.889C73.7771 211.076 73.7804 211.282 73.7804 211.509C73.7871 211.736 73.7871 211.962 73.7804 212.189C73.7804 212.409 73.7771 212.609 73.7704 212.789C73.7504 213.156 73.6837 213.502 73.5704 213.829C73.4571 214.149 73.2871 214.432 73.0604 214.679C72.8404 214.919 72.5571 215.109 72.2104 215.249C71.8704 215.382 71.4637 215.449 70.9904 215.449ZM70.9904 214.149C71.3771 214.149 71.6604 214.022 71.8404 213.769C72.0204 213.516 72.1171 213.172 72.1304 212.739C72.1371 212.546 72.1404 212.346 72.1404 212.139C72.1471 211.932 72.1471 211.726 72.1404 211.519C72.1404 211.312 72.1371 211.119 72.1304 210.939C72.1171 210.526 72.0204 210.189 71.8404 209.929C71.6604 209.669 71.3771 209.536 70.9904 209.529C70.5971 209.536 70.3104 209.669 70.1304 209.929C69.9571 210.189 69.8637 210.526 69.8504 210.939C69.8437 211.119 69.8371 211.312 69.8304 211.519C69.8304 211.726 69.8304 211.932 69.8304 212.139C69.8371 212.346 69.8437 212.546 69.8504 212.739C69.8637 213.172 69.9604 213.516 70.1404 213.769C70.3204 214.022 70.6037 214.149 70.9904 214.149ZM74.8022 216.099C74.7489 216.099 74.7022 216.076 74.6622 216.029C74.6289 215.989 74.6155 215.939 74.6222 215.879L74.9022 214.059C74.9155 213.972 74.9489 213.896 75.0022 213.829C75.0555 213.762 75.1355 213.729 75.2422 213.729H76.2822C76.3355 213.729 76.3789 213.749 76.4122 213.789C76.4522 213.822 76.4722 213.866 76.4722 213.919C76.4722 213.959 76.4655 213.999 76.4522 214.039L75.7522 215.829C75.7255 215.896 75.6855 215.956 75.6322 216.009C75.5855 216.069 75.5089 216.099 75.4022 216.099H74.8022ZM80.2091 215.449C79.7291 215.449 79.3158 215.382 78.9691 215.249C78.6291 215.109 78.3458 214.919 78.1191 214.679C77.8991 214.432 77.7325 214.149 77.6191 213.829C77.5125 213.502 77.4491 213.156 77.4291 212.789C77.4225 212.609 77.4158 212.409 77.4091 212.189C77.4091 211.962 77.4091 211.736 77.4091 211.509C77.4158 211.282 77.4225 211.076 77.4291 210.889C77.4425 210.522 77.5058 210.179 77.6191 209.859C77.7391 209.539 77.9125 209.259 78.1391 209.019C78.3658 208.779 78.6491 208.592 78.9891 208.459C79.3358 208.319 79.7425 208.249 80.2091 208.249C80.6758 208.249 81.0791 208.319 81.4191 208.459C81.7591 208.592 82.0425 208.779 82.2691 209.019C82.4958 209.259 82.6658 209.539 82.7791 209.859C82.8991 210.179 82.9691 210.522 82.9891 210.889C82.9958 211.076 82.9991 211.282 82.9991 211.509C83.0058 211.736 83.0058 211.962 82.9991 212.189C82.9991 212.409 82.9958 212.609 82.9891 212.789C82.9691 213.156 82.9025 213.502 82.7891 213.829C82.6758 214.149 82.5058 214.432 82.2791 214.679C82.0591 214.919 81.7758 215.109 81.4291 215.249C81.0891 215.382 80.6825 215.449 80.2091 215.449ZM80.2091 214.149C80.5958 214.149 80.8791 214.022 81.0591 213.769C81.2391 213.516 81.3358 213.172 81.3491 212.739C81.3558 212.546 81.3591 212.346 81.3591 212.139C81.3658 211.932 81.3658 211.726 81.3591 211.519C81.3591 211.312 81.3558 211.119 81.3491 210.939C81.3358 210.526 81.2391 210.189 81.0591 209.929C80.8791 209.669 80.5958 209.536 80.2091 209.529C79.8158 209.536 79.5291 209.669 79.3491 209.929C79.1758 210.189 79.0825 210.526 79.0691 210.939C79.0625 211.119 79.0558 211.312 79.0491 211.519C79.0491 211.726 79.0491 211.932 79.0491 212.139C79.0558 212.346 79.0625 212.546 79.0691 212.739C79.0825 213.172 79.1791 213.516 79.3591 213.769C79.5391 214.022 79.8225 214.149 80.2091 214.149ZM87.4688 215.349C87.4022 215.349 87.3455 215.326 87.2988 215.279C87.2522 215.232 87.2288 215.172 87.2288 215.099V213.899H84.0788C84.0122 213.899 83.9555 213.876 83.9088 213.829C83.8622 213.782 83.8388 213.722 83.8388 213.649V212.839C83.8388 212.792 83.8488 212.742 83.8688 212.689C83.8888 212.636 83.9155 212.586 83.9488 212.539L86.8788 208.519C86.9655 208.406 87.0888 208.349 87.2488 208.349H88.5188C88.5855 208.349 88.6422 208.372 88.6888 208.419C88.7355 208.466 88.7588 208.526 88.7588 208.599V212.569H89.6488C89.7288 212.569 89.7888 212.592 89.8288 212.639C89.8755 212.686 89.8988 212.742 89.8988 212.809V213.649C89.8988 213.722 89.8755 213.782 89.8288 213.829C89.7822 213.876 89.7255 213.899 89.6588 213.899H88.7588V215.099C88.7588 215.172 88.7355 215.232 88.6888 215.279C88.6422 215.326 88.5855 215.349 88.5188 215.349H87.4688ZM85.3888 212.619H87.2588V209.989L85.3888 212.619ZM91.4241 215.349C91.3641 215.349 91.3141 215.329 91.2741 215.289C91.2341 215.242 91.2141 215.189 91.2141 215.129C91.2141 215.102 91.2208 215.072 91.2341 215.039L93.5941 209.689H90.5241C90.4575 209.689 90.3975 209.666 90.3441 209.619C90.2975 209.572 90.2741 209.516 90.2741 209.449V208.599C90.2741 208.526 90.2975 208.466 90.3441 208.419C90.3975 208.372 90.4575 208.349 90.5241 208.349H95.0541C95.1341 208.349 95.1941 208.372 95.2341 208.419C95.2808 208.466 95.3041 208.526 95.3041 208.599V209.349C95.3041 209.449 95.2941 209.532 95.2741 209.599C95.2608 209.659 95.2375 209.722 95.2041 209.789L92.8541 215.109C92.8341 215.149 92.7975 215.199 92.7441 215.259C92.6975 215.319 92.6208 215.349 92.5141 215.349H91.4241ZM98.7673 215.349C98.7007 215.349 98.6407 215.326 98.5873 215.279C98.5407 215.232 98.5173 215.172 98.5173 215.099V208.599C98.5173 208.526 98.5407 208.466 98.5873 208.419C98.6407 208.372 98.7007 208.349 98.7673 208.349H99.6973C99.7973 208.349 99.8707 208.376 99.9173 208.429C99.9707 208.482 100.007 208.522 100.027 208.549L101.867 211.939L103.727 208.549C103.741 208.522 103.771 208.482 103.817 208.429C103.871 208.376 103.947 208.349 104.047 208.349H104.977C105.051 208.349 105.111 208.372 105.157 208.419C105.204 208.466 105.227 208.526 105.227 208.599V215.099C105.227 215.172 105.204 215.232 105.157 215.279C105.111 215.326 105.051 215.349 104.977 215.349H103.957C103.891 215.349 103.834 215.326 103.787 215.279C103.741 215.232 103.717 215.172 103.717 215.099V211.059L102.447 213.439C102.414 213.499 102.371 213.552 102.317 213.599C102.264 213.646 102.194 213.669 102.107 213.669H101.637C101.551 213.669 101.481 213.646 101.427 213.599C101.374 213.552 101.331 213.499 101.297 213.439L100.027 211.059V215.099C100.027 215.172 100.004 215.232 99.9573 215.279C99.9107 215.326 99.854 215.349 99.7873 215.349H98.7673ZM106.961 215.349C106.887 215.349 106.827 215.326 106.781 215.279C106.734 215.232 106.711 215.172 106.711 215.099V208.599C106.711 208.526 106.734 208.466 106.781 208.419C106.827 208.372 106.887 208.349 106.961 208.349H108.051C108.124 208.349 108.184 208.372 108.231 208.419C108.277 208.466 108.301 208.526 108.301 208.599V211.099H109.041L110.591 208.539C110.624 208.486 110.671 208.442 110.731 208.409C110.791 208.369 110.867 208.349 110.961 208.349H112.171C112.237 208.349 112.287 208.372 112.321 208.419C112.361 208.459 112.381 208.506 112.381 208.559C112.381 208.599 112.367 208.639 112.341 208.679L110.471 211.719L112.531 215.009C112.544 215.036 112.551 215.072 112.551 215.119C112.551 215.186 112.527 215.242 112.481 215.289C112.441 215.329 112.391 215.349 112.331 215.349H111.081C110.981 215.349 110.907 215.329 110.861 215.289C110.814 215.242 110.777 215.202 110.751 215.169L109.101 212.519H108.301V215.099C108.301 215.172 108.277 215.232 108.231 215.279C108.184 215.326 108.124 215.349 108.051 215.349H106.961ZM113.336 216.749C113.27 216.749 113.213 216.726 113.166 216.679C113.12 216.632 113.096 216.572 113.096 216.499V214.179C113.096 214.106 113.12 214.046 113.166 213.999C113.213 213.952 113.27 213.929 113.336 213.929H113.526C113.686 213.929 113.823 213.852 113.936 213.699C114.05 213.546 114.14 213.329 114.206 213.049C114.273 212.762 114.323 212.419 114.356 212.019C114.39 211.612 114.406 211.159 114.406 210.659V208.599C114.406 208.526 114.43 208.466 114.476 208.419C114.523 208.372 114.58 208.349 114.646 208.349H119.146C119.22 208.349 119.28 208.372 119.326 208.419C119.373 208.466 119.396 208.526 119.396 208.599V213.929H119.866C119.94 213.929 120 213.952 120.046 213.999C120.093 214.046 120.116 214.106 120.116 214.179V216.499C120.116 216.566 120.093 216.622 120.046 216.669C120 216.722 119.94 216.749 119.866 216.749H118.776C118.703 216.749 118.643 216.722 118.596 216.669C118.55 216.622 118.526 216.566 118.526 216.499V215.349H114.686V216.499C114.686 216.566 114.66 216.622 114.606 216.669C114.56 216.722 114.5 216.749 114.426 216.749H113.336ZM115.436 213.929H117.806V209.769H115.946V210.859C115.946 211.626 115.903 212.259 115.816 212.759C115.73 213.259 115.603 213.649 115.436 213.929Z" fill="black"/>
</svg>
