<svg width="162" height="247" viewBox="0 0 162 247" fill="none" xmlns="http://www.w3.org/2000/svg">
<rect width="161" height="247" fill="#BC162D"/>
<rect x="10" y="10" width="141" height="227" rx="10" fill="#F75353"/>
<path d="M80.3 176.6C109.737 176.6 133.6 152.737 133.6 123.3C133.6 93.8633 109.737 70 80.3 70C50.8632 70 27 93.8633 27 123.3C27 152.737 50.8632 176.6 80.3 176.6Z" fill="white"/>
<path d="M45.8196 111.228H79.8065V121.1H45.8196V111.228ZM45.9069 125.032H79.8065V134.905H45.9069V125.032ZM103.921 149.67C103.222 150.253 101.911 151.039 99.989 152.029C98.1251 153.02 95.8243 153.893 93.0867 154.651C90.3491 155.408 87.3203 155.757 84.0003 155.699C78.9328 155.582 74.3896 154.68 70.3705 152.99C66.4098 151.243 63.0315 148.884 60.2356 145.914C57.498 142.943 55.4011 139.536 53.945 135.691C52.4888 131.847 51.7607 127.741 51.7607 123.372C51.7607 118.479 52.4888 113.994 53.945 109.917C55.4594 105.84 57.5854 102.316 60.323 99.3453C63.1188 96.3747 66.4389 94.074 70.2832 92.4431C74.1275 90.8122 78.3795 89.9967 83.0392 89.9967C87.3494 89.9967 91.1646 90.5792 94.4847 91.7441C97.8047 92.909 100.513 94.1613 102.61 95.501L97.63 107.471C96.1738 106.364 94.2226 105.228 91.7762 104.063C89.3881 102.84 86.6214 102.229 83.476 102.229C80.2142 102.229 77.1563 103.131 74.3022 104.937C71.5064 106.743 69.2347 109.189 67.4873 112.276C65.7982 115.305 64.9536 118.771 64.9536 122.673C64.9536 126.809 65.7399 130.449 67.3126 133.594C68.8853 136.681 71.1277 139.099 74.0401 140.846C76.9524 142.593 80.3598 143.467 84.2624 143.467C87.6989 143.467 90.6404 142.914 93.0867 141.807C95.5331 140.7 97.397 139.536 98.6784 138.312L103.921 149.67Z" fill="#BC162D"/>
<path d="M55.8239 52.2257C55.6105 52.2257 55.4399 52.151 55.3119 52.0017C55.1839 51.8524 55.1412 51.6604 55.1839 51.4257L58.3519 36.5777L53.4559 39.7777C53.2212 39.927 53.0079 39.9804 52.8159 39.9377C52.6239 39.895 52.4745 39.7777 52.3679 39.5857L50.8639 36.8977C50.7999 36.7057 50.7999 36.503 50.8639 36.2897C50.9492 36.055 51.1092 35.8737 51.3439 35.7457L59.9199 30.0497C60.0692 29.9644 60.1865 29.911 60.2719 29.8897C60.3785 29.847 60.5172 29.8257 60.6879 29.8257H64.7199C64.9545 29.8257 65.1359 29.9004 65.2639 30.0497C65.3919 30.199 65.4345 30.391 65.3919 30.6257L60.9439 51.4257C60.9012 51.6604 60.7839 51.8524 60.5919 52.0017C60.4212 52.151 60.2185 52.2257 59.9839 52.2257H55.8239ZM75.7324 52.5457C73.855 52.5244 72.287 52.183 71.0284 51.5217C69.7697 50.839 68.863 49.8684 68.3084 48.6097C67.775 47.3297 67.6364 45.8257 67.8924 44.0977C67.999 43.5004 68.1164 42.839 68.2444 42.1137C68.3937 41.367 68.5537 40.631 68.7244 39.9057C68.895 39.159 69.0657 38.4764 69.2364 37.8577C69.6844 36.151 70.3457 34.679 71.2204 33.4417C72.1164 32.183 73.2577 31.2124 74.6444 30.5297C76.0524 29.847 77.727 29.5057 79.6684 29.5057C81.4817 29.5057 83.0177 29.847 84.2764 30.5297C85.5564 31.2124 86.4844 32.183 87.0604 33.4417C87.6577 34.679 87.807 36.151 87.5084 37.8577C87.423 38.4764 87.3057 39.159 87.1564 39.9057C87.007 40.631 86.847 41.367 86.6764 42.1137C86.527 42.839 86.367 43.5004 86.1964 44.0977C85.727 45.8257 85.055 47.3297 84.1804 48.6097C83.327 49.8684 82.207 50.839 80.8204 51.5217C79.4337 52.183 77.7377 52.5244 75.7324 52.5457ZM76.1484 47.9057C77.2364 47.9057 78.111 47.575 78.7724 46.9137C79.455 46.2524 79.9564 45.2604 80.2764 43.9377C80.447 43.319 80.607 42.679 80.7564 42.0177C80.9057 41.335 81.0444 40.6524 81.1724 39.9697C81.3217 39.287 81.439 38.647 81.5244 38.0497C81.759 36.7484 81.7164 35.767 81.3964 35.1057C81.0764 34.4444 80.3617 34.103 79.2524 34.0817C78.143 34.103 77.2577 34.4444 76.5964 35.1057C75.9564 35.767 75.4764 36.7484 75.1564 38.0497C75.007 38.647 74.847 39.287 74.6764 39.9697C74.527 40.6524 74.3884 41.335 74.2604 42.0177C74.1324 42.679 74.0044 43.319 73.8764 43.9377C73.663 45.2604 73.7164 46.2524 74.0364 46.9137C74.3564 47.575 75.0604 47.9057 76.1484 47.9057ZM90.5399 52.2257C90.3692 52.2257 90.2305 52.1617 90.1239 52.0337C90.0385 51.9057 90.0065 51.7457 90.0279 51.5537L93.2919 36.2257C93.3345 36.055 93.4305 35.9057 93.5799 35.7777C93.7292 35.6497 93.8892 35.5857 94.0599 35.5857H97.5479C97.9319 35.5857 98.1985 35.7777 98.3479 36.1617L102.124 46.4337L99.8199 46.0177L107.148 36.1617C107.447 35.7777 107.799 35.5857 108.204 35.5857H112.012C112.204 35.5857 112.353 35.6497 112.46 35.7777C112.567 35.9057 112.599 36.055 112.556 36.2257L109.292 51.5537C109.271 51.7457 109.175 51.9057 109.004 52.0337C108.855 52.1617 108.684 52.2257 108.492 52.2257H104.524C104.332 52.2257 104.183 52.1617 104.076 52.0337C103.991 51.9057 103.959 51.7457 103.98 51.5537L106.22 41.1217L107.692 41.0577L101.772 49.0257C101.623 49.2177 101.463 49.3884 101.292 49.5377C101.121 49.6657 100.919 49.7297 100.684 49.7297H99.6919C99.4572 49.7297 99.2759 49.6657 99.1479 49.5377C99.0412 49.4097 98.9452 49.239 98.8599 49.0257L96.2359 41.2817L97.4839 41.3457L95.3079 51.5537C95.2865 51.7457 95.1905 51.9057 95.0199 52.0337C94.8705 52.1617 94.6999 52.2257 94.5079 52.2257H90.5399Z" fill="black"/>
<path d="M41.2568 215.449C40.6702 215.449 40.1602 215.342 39.7268 215.129C39.3002 214.916 38.9668 214.622 38.7268 214.249C38.4935 213.869 38.3768 213.442 38.3768 212.969C38.3768 212.769 38.4068 212.569 38.4668 212.369C38.5268 212.169 38.6002 211.982 38.6868 211.809C38.7735 211.629 38.8602 211.469 38.9468 211.329C39.0402 211.189 39.1168 211.076 39.1768 210.989L40.9768 208.549C41.0102 208.516 41.0535 208.476 41.1068 208.429C41.1602 208.376 41.2335 208.349 41.3268 208.349H42.4468C42.5068 208.349 42.5568 208.372 42.5968 208.419C42.6368 208.459 42.6568 208.509 42.6568 208.569C42.6568 208.596 42.6535 208.622 42.6468 208.649C42.6402 208.669 42.6302 208.686 42.6168 208.699L41.2368 210.589C41.2902 210.576 41.3502 210.566 41.4168 210.559C41.4902 210.552 41.5535 210.549 41.6068 210.549C41.9268 210.562 42.2335 210.629 42.5268 210.749C42.8268 210.869 43.0935 211.036 43.3268 211.249C43.5602 211.456 43.7435 211.702 43.8768 211.989C44.0168 212.276 44.0868 212.596 44.0868 212.949C44.0868 213.396 43.9702 213.809 43.7368 214.189C43.5102 214.569 43.1835 214.876 42.7568 215.109C42.3368 215.336 41.8368 215.449 41.2568 215.449ZM41.2368 214.159C41.4568 214.159 41.6602 214.116 41.8468 214.029C42.0335 213.936 42.1835 213.799 42.2968 213.619C42.4102 213.439 42.4668 213.222 42.4668 212.969C42.4668 212.709 42.4102 212.492 42.2968 212.319C42.1835 212.139 42.0335 212.006 41.8468 211.919C41.6602 211.826 41.4568 211.779 41.2368 211.779C41.0168 211.779 40.8135 211.826 40.6268 211.919C40.4402 212.006 40.2902 212.139 40.1768 212.319C40.0635 212.492 40.0068 212.709 40.0068 212.969C40.0068 213.222 40.0635 213.439 40.1768 213.619C40.2968 213.799 40.4468 213.936 40.6268 214.029C40.8135 214.116 41.0168 214.159 41.2368 214.159ZM46.9292 215.349C46.8625 215.349 46.8025 215.326 46.7492 215.279C46.7025 215.232 46.6792 215.172 46.6792 215.099V210.129L45.2392 211.239C45.1792 211.286 45.1158 211.302 45.0492 211.289C44.9892 211.276 44.9358 211.239 44.8892 211.179L44.3892 210.529C44.3492 210.469 44.3325 210.406 44.3392 210.339C44.3525 210.272 44.3892 210.219 44.4492 210.179L46.7292 208.419C46.7692 208.392 46.8058 208.376 46.8392 208.369C46.8792 208.356 46.9225 208.349 46.9692 208.349H48.0292C48.0958 208.349 48.1525 208.372 48.1992 208.419C48.2458 208.466 48.2692 208.526 48.2692 208.599V215.099C48.2692 215.172 48.2458 215.232 48.1992 215.279C48.1525 215.326 48.0958 215.349 48.0292 215.349H46.9292ZM52.0743 215.459C51.4743 215.459 50.971 215.362 50.5643 215.169C50.1577 214.976 49.8477 214.722 49.6343 214.409C49.4277 214.096 49.3177 213.762 49.3043 213.409C49.3043 213.349 49.3243 213.299 49.3643 213.259C49.4043 213.219 49.4543 213.199 49.5143 213.199H50.6443C50.7243 213.199 50.7877 213.219 50.8343 213.259C50.8877 213.292 50.9277 213.339 50.9543 213.399C51.021 213.579 51.1077 213.726 51.2143 213.839C51.3277 213.952 51.4577 214.036 51.6043 214.089C51.751 214.142 51.9077 214.169 52.0743 214.169C52.2877 214.169 52.4843 214.126 52.6643 214.039C52.8443 213.946 52.9877 213.812 53.0943 213.639C53.201 213.466 53.2543 213.252 53.2543 212.999C53.2543 212.779 53.2043 212.586 53.1043 212.419C53.0043 212.252 52.8643 212.122 52.6843 212.029C52.5043 211.936 52.301 211.889 52.0743 211.889C51.901 211.889 51.7577 211.909 51.6443 211.949C51.5377 211.989 51.4477 212.039 51.3743 212.099C51.301 212.152 51.2343 212.202 51.1743 212.249C51.1143 212.289 51.0477 212.309 50.9743 212.309H49.8643C49.8043 212.309 49.751 212.289 49.7043 212.249C49.6643 212.202 49.6443 212.149 49.6443 212.089L49.9943 208.639C50.0077 208.546 50.041 208.476 50.0943 208.429C50.1543 208.376 50.2243 208.349 50.3043 208.349H54.1843C54.2577 208.349 54.3177 208.372 54.3643 208.419C54.411 208.466 54.4343 208.526 54.4343 208.599V209.399C54.4343 209.466 54.411 209.522 54.3643 209.569C54.3177 209.616 54.2577 209.639 54.1843 209.639H51.2943L51.1443 211.109C51.2777 211.022 51.441 210.946 51.6343 210.879C51.8343 210.806 52.111 210.769 52.4643 210.769C52.7843 210.769 53.0877 210.822 53.3743 210.929C53.6677 211.029 53.9277 211.179 54.1543 211.379C54.381 211.579 54.5577 211.819 54.6843 212.099C54.8177 212.372 54.8843 212.686 54.8843 213.039C54.8843 213.519 54.771 213.942 54.5443 214.309C54.3177 214.669 53.9943 214.952 53.5743 215.159C53.1543 215.359 52.6543 215.459 52.0743 215.459ZM55.7739 216.099C55.7205 216.099 55.6739 216.076 55.6339 216.029C55.6005 215.989 55.5872 215.939 55.5939 215.879L55.8739 214.059C55.8872 213.972 55.9205 213.896 55.9739 213.829C56.0272 213.762 56.1072 213.729 56.2139 213.729H57.2539C57.3072 213.729 57.3505 213.749 57.3839 213.789C57.4239 213.822 57.4439 213.866 57.4439 213.919C57.4439 213.959 57.4372 213.999 57.4239 214.039L56.7239 215.829C56.6972 215.896 56.6572 215.956 56.6039 216.009C56.5572 216.069 56.4805 216.099 56.3739 216.099H55.7739ZM61.1808 215.449C60.7008 215.449 60.2875 215.382 59.9408 215.249C59.6008 215.109 59.3175 214.919 59.0908 214.679C58.8708 214.432 58.7042 214.149 58.5908 213.829C58.4842 213.502 58.4208 213.156 58.4008 212.789C58.3942 212.609 58.3875 212.409 58.3808 212.189C58.3808 211.962 58.3808 211.736 58.3808 211.509C58.3875 211.282 58.3942 211.076 58.4008 210.889C58.4142 210.522 58.4775 210.179 58.5908 209.859C58.7108 209.539 58.8842 209.259 59.1108 209.019C59.3375 208.779 59.6208 208.592 59.9608 208.459C60.3075 208.319 60.7142 208.249 61.1808 208.249C61.6475 208.249 62.0508 208.319 62.3908 208.459C62.7308 208.592 63.0142 208.779 63.2408 209.019C63.4675 209.259 63.6375 209.539 63.7508 209.859C63.8708 210.179 63.9408 210.522 63.9608 210.889C63.9675 211.076 63.9708 211.282 63.9708 211.509C63.9775 211.736 63.9775 211.962 63.9708 212.189C63.9708 212.409 63.9675 212.609 63.9608 212.789C63.9408 213.156 63.8742 213.502 63.7608 213.829C63.6475 214.149 63.4775 214.432 63.2508 214.679C63.0308 214.919 62.7475 215.109 62.4008 215.249C62.0608 215.382 61.6542 215.449 61.1808 215.449ZM61.1808 214.149C61.5675 214.149 61.8508 214.022 62.0308 213.769C62.2108 213.516 62.3075 213.172 62.3208 212.739C62.3275 212.546 62.3308 212.346 62.3308 212.139C62.3375 211.932 62.3375 211.726 62.3308 211.519C62.3308 211.312 62.3275 211.119 62.3208 210.939C62.3075 210.526 62.2108 210.189 62.0308 209.929C61.8508 209.669 61.5675 209.536 61.1808 209.529C60.7875 209.536 60.5008 209.669 60.3208 209.929C60.1475 210.189 60.0542 210.526 60.0408 210.939C60.0342 211.119 60.0275 211.312 60.0208 211.519C60.0208 211.726 60.0208 211.932 60.0208 212.139C60.0275 212.346 60.0342 212.546 60.0408 212.739C60.0542 213.172 60.1508 213.516 60.3308 213.769C60.5108 214.022 60.7942 214.149 61.1808 214.149ZM67.8605 215.449C67.3805 215.449 66.9672 215.382 66.6205 215.249C66.2805 215.109 65.9972 214.919 65.7705 214.679C65.5505 214.432 65.3838 214.149 65.2705 213.829C65.1638 213.502 65.1005 213.156 65.0805 212.789C65.0738 212.609 65.0672 212.409 65.0605 212.189C65.0605 211.962 65.0605 211.736 65.0605 211.509C65.0672 211.282 65.0738 211.076 65.0805 210.889C65.0938 210.522 65.1572 210.179 65.2705 209.859C65.3905 209.539 65.5638 209.259 65.7905 209.019C66.0172 208.779 66.3005 208.592 66.6405 208.459C66.9872 208.319 67.3938 208.249 67.8605 208.249C68.3272 208.249 68.7305 208.319 69.0705 208.459C69.4105 208.592 69.6938 208.779 69.9205 209.019C70.1472 209.259 70.3172 209.539 70.4305 209.859C70.5505 210.179 70.6205 210.522 70.6405 210.889C70.6472 211.076 70.6505 211.282 70.6505 211.509C70.6572 211.736 70.6572 211.962 70.6505 212.189C70.6505 212.409 70.6472 212.609 70.6405 212.789C70.6205 213.156 70.5538 213.502 70.4405 213.829C70.3272 214.149 70.1572 214.432 69.9305 214.679C69.7105 214.919 69.4272 215.109 69.0805 215.249C68.7405 215.382 68.3338 215.449 67.8605 215.449ZM67.8605 214.149C68.2472 214.149 68.5305 214.022 68.7105 213.769C68.8905 213.516 68.9872 213.172 69.0005 212.739C69.0072 212.546 69.0105 212.346 69.0105 212.139C69.0172 211.932 69.0172 211.726 69.0105 211.519C69.0105 211.312 69.0072 211.119 69.0005 210.939C68.9872 210.526 68.8905 210.189 68.7105 209.929C68.5305 209.669 68.2472 209.536 67.8605 209.529C67.4672 209.536 67.1805 209.669 67.0005 209.929C66.8272 210.189 66.7338 210.526 66.7205 210.939C66.7138 211.119 66.7072 211.312 66.7005 211.519C66.7005 211.726 66.7005 211.932 66.7005 212.139C66.7072 212.346 66.7138 212.546 66.7205 212.739C66.7338 213.172 66.8305 213.516 67.0105 213.769C67.1905 214.022 67.4738 214.149 67.8605 214.149ZM74.5402 215.449C74.0602 215.449 73.6469 215.382 73.3002 215.249C72.9602 215.109 72.6769 214.919 72.4502 214.679C72.2302 214.432 72.0635 214.149 71.9502 213.829C71.8435 213.502 71.7802 213.156 71.7602 212.789C71.7535 212.609 71.7469 212.409 71.7402 212.189C71.7402 211.962 71.7402 211.736 71.7402 211.509C71.7469 211.282 71.7535 211.076 71.7602 210.889C71.7735 210.522 71.8369 210.179 71.9502 209.859C72.0702 209.539 72.2435 209.259 72.4702 209.019C72.6969 208.779 72.9802 208.592 73.3202 208.459C73.6669 208.319 74.0735 208.249 74.5402 208.249C75.0069 208.249 75.4102 208.319 75.7502 208.459C76.0902 208.592 76.3735 208.779 76.6002 209.019C76.8269 209.259 76.9969 209.539 77.1102 209.859C77.2302 210.179 77.3002 210.522 77.3202 210.889C77.3269 211.076 77.3302 211.282 77.3302 211.509C77.3369 211.736 77.3369 211.962 77.3302 212.189C77.3302 212.409 77.3269 212.609 77.3202 212.789C77.3002 213.156 77.2335 213.502 77.1202 213.829C77.0069 214.149 76.8369 214.432 76.6102 214.679C76.3902 214.919 76.1069 215.109 75.7602 215.249C75.4202 215.382 75.0135 215.449 74.5402 215.449ZM74.5402 214.149C74.9269 214.149 75.2102 214.022 75.3902 213.769C75.5702 213.516 75.6669 213.172 75.6802 212.739C75.6869 212.546 75.6902 212.346 75.6902 212.139C75.6969 211.932 75.6969 211.726 75.6902 211.519C75.6902 211.312 75.6869 211.119 75.6802 210.939C75.6669 210.526 75.5702 210.189 75.3902 209.929C75.2102 209.669 74.9269 209.536 74.5402 209.529C74.1469 209.536 73.8602 209.669 73.6802 209.929C73.5069 210.189 73.4135 210.526 73.4002 210.939C73.3935 211.119 73.3869 211.312 73.3802 211.519C73.3802 211.726 73.3802 211.932 73.3802 212.139C73.3869 212.346 73.3935 212.546 73.4002 212.739C73.4135 213.172 73.5102 213.516 73.6902 213.769C73.8702 214.022 74.1535 214.149 74.5402 214.149ZM78.352 216.099C78.2987 216.099 78.252 216.076 78.212 216.029C78.1787 215.989 78.1653 215.939 78.172 215.879L78.452 214.059C78.4653 213.972 78.4987 213.896 78.552 213.829C78.6053 213.762 78.6853 213.729 78.792 213.729H79.832C79.8853 213.729 79.9287 213.749 79.962 213.789C80.002 213.822 80.022 213.866 80.022 213.919C80.022 213.959 80.0153 213.999 80.002 214.039L79.302 215.829C79.2753 215.896 79.2353 215.956 79.182 216.009C79.1353 216.069 79.0587 216.099 78.952 216.099H78.352ZM84.3389 215.349C84.2723 215.349 84.2156 215.326 84.1689 215.279C84.1223 215.232 84.0989 215.172 84.0989 215.099V213.899H80.9489C80.8823 213.899 80.8256 213.876 80.7789 213.829C80.7323 213.782 80.7089 213.722 80.7089 213.649V212.839C80.7089 212.792 80.7189 212.742 80.7389 212.689C80.7589 212.636 80.7856 212.586 80.8189 212.539L83.7489 208.519C83.8356 208.406 83.9589 208.349 84.1189 208.349H85.3889C85.4556 208.349 85.5123 208.372 85.5589 208.419C85.6056 208.466 85.6289 208.526 85.6289 208.599V212.569H86.5189C86.5989 212.569 86.6589 212.592 86.6989 212.639C86.7456 212.686 86.7689 212.742 86.7689 212.809V213.649C86.7689 213.722 86.7456 213.782 86.6989 213.829C86.6523 213.876 86.5956 213.899 86.5289 213.899H85.6289V215.099C85.6289 215.172 85.6056 215.232 85.5589 215.279C85.5123 215.326 85.4556 215.349 85.3889 215.349H84.3389ZM82.2589 212.619H84.1289V209.989L82.2589 212.619ZM88.2943 215.349C88.2343 215.349 88.1843 215.329 88.1443 215.289C88.1043 215.242 88.0843 215.189 88.0843 215.129C88.0843 215.102 88.0909 215.072 88.1043 215.039L90.4643 209.689H87.3943C87.3276 209.689 87.2676 209.666 87.2143 209.619C87.1676 209.572 87.1443 209.516 87.1443 209.449V208.599C87.1443 208.526 87.1676 208.466 87.2143 208.419C87.2676 208.372 87.3276 208.349 87.3943 208.349H91.9243C92.0043 208.349 92.0643 208.372 92.1043 208.419C92.1509 208.466 92.1743 208.526 92.1743 208.599V209.349C92.1743 209.449 92.1643 209.532 92.1443 209.599C92.1309 209.659 92.1076 209.722 92.0743 209.789L89.7243 215.109C89.7043 215.149 89.6676 215.199 89.6143 215.259C89.5676 215.319 89.4909 215.349 89.3843 215.349H88.2943ZM95.7804 215.449C95.3004 215.449 94.8871 215.382 94.5404 215.249C94.2004 215.109 93.9171 214.919 93.6904 214.679C93.4704 214.432 93.3038 214.149 93.1904 213.829C93.0838 213.502 93.0204 213.156 93.0004 212.789C92.9938 212.609 92.9871 212.409 92.9804 212.189C92.9804 211.962 92.9804 211.736 92.9804 211.509C92.9871 211.282 92.9938 211.076 93.0004 210.889C93.0138 210.522 93.0771 210.179 93.1904 209.859C93.3104 209.539 93.4838 209.259 93.7104 209.019C93.9371 208.779 94.2204 208.592 94.5604 208.459C94.9071 208.319 95.3138 208.249 95.7804 208.249C96.2471 208.249 96.6504 208.319 96.9904 208.459C97.3304 208.592 97.6138 208.779 97.8404 209.019C98.0671 209.259 98.2371 209.539 98.3504 209.859C98.4704 210.179 98.5404 210.522 98.5604 210.889C98.5671 211.076 98.5704 211.282 98.5704 211.509C98.5771 211.736 98.5771 211.962 98.5704 212.189C98.5704 212.409 98.5671 212.609 98.5604 212.789C98.5404 213.156 98.4738 213.502 98.3604 213.829C98.2471 214.149 98.0771 214.432 97.8504 214.679C97.6304 214.919 97.3471 215.109 97.0004 215.249C96.6604 215.382 96.2538 215.449 95.7804 215.449ZM95.7804 214.149C96.1671 214.149 96.4504 214.022 96.6304 213.769C96.8104 213.516 96.9071 213.172 96.9204 212.739C96.9271 212.546 96.9304 212.346 96.9304 212.139C96.9371 211.932 96.9371 211.726 96.9304 211.519C96.9304 211.312 96.9271 211.119 96.9204 210.939C96.9071 210.526 96.8104 210.189 96.6304 209.929C96.4504 209.669 96.1671 209.536 95.7804 209.529C95.3871 209.536 95.1004 209.669 94.9204 209.929C94.7471 210.189 94.6538 210.526 94.6404 210.939C94.6338 211.119 94.6271 211.312 94.6204 211.519C94.6204 211.726 94.6204 211.932 94.6204 212.139C94.6271 212.346 94.6338 212.546 94.6404 212.739C94.6538 213.172 94.7504 213.516 94.9304 213.769C95.1104 214.022 95.3938 214.149 95.7804 214.149ZM102.317 215.349C102.25 215.349 102.19 215.326 102.137 215.279C102.09 215.232 102.067 215.172 102.067 215.099V208.599C102.067 208.526 102.09 208.466 102.137 208.419C102.19 208.372 102.25 208.349 102.317 208.349H103.247C103.347 208.349 103.42 208.376 103.467 208.429C103.52 208.482 103.557 208.522 103.577 208.549L105.417 211.939L107.277 208.549C107.29 208.522 107.32 208.482 107.367 208.429C107.42 208.376 107.497 208.349 107.597 208.349H108.527C108.6 208.349 108.66 208.372 108.707 208.419C108.754 208.466 108.777 208.526 108.777 208.599V215.099C108.777 215.172 108.754 215.232 108.707 215.279C108.66 215.326 108.6 215.349 108.527 215.349H107.507C107.44 215.349 107.384 215.326 107.337 215.279C107.29 215.232 107.267 215.172 107.267 215.099V211.059L105.997 213.439C105.964 213.499 105.92 213.552 105.867 213.599C105.814 213.646 105.744 213.669 105.657 213.669H105.187C105.1 213.669 105.03 213.646 104.977 213.599C104.924 213.552 104.88 213.499 104.847 213.439L103.577 211.059V215.099C103.577 215.172 103.554 215.232 103.507 215.279C103.46 215.326 103.404 215.349 103.337 215.349H102.317ZM110.511 215.349C110.437 215.349 110.377 215.326 110.331 215.279C110.284 215.232 110.261 215.172 110.261 215.099V208.599C110.261 208.526 110.284 208.466 110.331 208.419C110.377 208.372 110.437 208.349 110.511 208.349H111.601C111.674 208.349 111.734 208.372 111.781 208.419C111.827 208.466 111.851 208.526 111.851 208.599V211.099H112.591L114.141 208.539C114.174 208.486 114.221 208.442 114.281 208.409C114.341 208.369 114.417 208.349 114.511 208.349H115.721C115.787 208.349 115.837 208.372 115.871 208.419C115.911 208.459 115.931 208.506 115.931 208.559C115.931 208.599 115.917 208.639 115.891 208.679L114.021 211.719L116.081 215.009C116.094 215.036 116.101 215.072 116.101 215.119C116.101 215.186 116.077 215.242 116.031 215.289C115.991 215.329 115.941 215.349 115.881 215.349H114.631C114.531 215.349 114.457 215.329 114.411 215.289C114.364 215.242 114.327 215.202 114.301 215.169L112.651 212.519H111.851V215.099C111.851 215.172 111.827 215.232 111.781 215.279C111.734 215.326 111.674 215.349 111.601 215.349H110.511ZM116.886 216.749C116.82 216.749 116.763 216.726 116.716 216.679C116.67 216.632 116.646 216.572 116.646 216.499V214.179C116.646 214.106 116.67 214.046 116.716 213.999C116.763 213.952 116.82 213.929 116.886 213.929H117.076C117.236 213.929 117.373 213.852 117.486 213.699C117.6 213.546 117.69 213.329 117.756 213.049C117.823 212.762 117.873 212.419 117.906 212.019C117.94 211.612 117.956 211.159 117.956 210.659V208.599C117.956 208.526 117.98 208.466 118.026 208.419C118.073 208.372 118.13 208.349 118.196 208.349H122.696C122.77 208.349 122.83 208.372 122.876 208.419C122.923 208.466 122.946 208.526 122.946 208.599V213.929H123.416C123.49 213.929 123.55 213.952 123.596 213.999C123.643 214.046 123.666 214.106 123.666 214.179V216.499C123.666 216.566 123.643 216.622 123.596 216.669C123.55 216.722 123.49 216.749 123.416 216.749H122.326C122.253 216.749 122.193 216.722 122.146 216.669C122.1 216.622 122.076 216.566 122.076 216.499V215.349H118.236V216.499C118.236 216.566 118.21 216.622 118.156 216.669C118.11 216.722 118.05 216.749 117.976 216.749H116.886ZM118.986 213.929H121.356V209.769H119.496V210.859C119.496 211.626 119.453 212.259 119.366 212.759C119.28 213.259 119.153 213.649 118.986 213.929Z" fill="black"/>
</svg>
