<svg width="162" height="247" viewBox="0 0 162 247" fill="none" xmlns="http://www.w3.org/2000/svg">
<rect width="161" height="247" fill="#009787"/>
<rect x="10" y="10" width="141" height="227" rx="10" fill="#51C1B0"/>
<path d="M40.1763 215.349C40.1096 215.349 40.0496 215.326 39.9963 215.279C39.9496 215.232 39.9263 215.172 39.9263 215.099V210.129L38.4863 211.239C38.4263 211.286 38.3629 211.302 38.2963 211.289C38.2363 211.276 38.1829 211.239 38.1363 211.179L37.6363 210.529C37.5963 210.469 37.5796 210.406 37.5863 210.339C37.5996 210.272 37.6363 210.219 37.6963 210.179L39.9762 208.419C40.0163 208.392 40.0529 208.376 40.0863 208.369C40.1263 208.356 40.1696 208.349 40.2163 208.349H41.2763C41.3429 208.349 41.3996 208.372 41.4463 208.419C41.4929 208.466 41.5163 208.526 41.5163 208.599V215.099C41.5163 215.172 41.4929 215.232 41.4463 215.279C41.3996 215.326 41.3429 215.349 41.2763 215.349H40.1763ZM42.8714 215.349C42.7981 215.349 42.7381 215.326 42.6914 215.279C42.6447 215.232 42.6214 215.172 42.6214 215.099V214.499C42.6214 214.446 42.6347 214.376 42.6614 214.289C42.6947 214.196 42.7647 214.106 42.8714 214.019L44.1914 212.709C44.6781 212.336 45.0714 212.019 45.3714 211.759C45.6781 211.499 45.9047 211.262 46.0514 211.049C46.1981 210.836 46.2714 210.629 46.2714 210.429C46.2714 210.169 46.1981 209.956 46.0514 209.789C45.9114 209.616 45.6814 209.529 45.3614 209.529C45.1481 209.529 44.9681 209.576 44.8214 209.669C44.6814 209.756 44.5714 209.872 44.4914 210.019C44.4114 210.166 44.3581 210.326 44.3314 210.499C44.3114 210.586 44.2681 210.646 44.2014 210.679C44.1414 210.712 44.0781 210.729 44.0114 210.729H42.9514C42.8847 210.729 42.8314 210.709 42.7914 210.669C42.7514 210.622 42.7314 210.572 42.7314 210.519C42.7381 210.212 42.8014 209.922 42.9214 209.649C43.0481 209.376 43.2247 209.132 43.4514 208.919C43.6781 208.706 43.9514 208.539 44.2714 208.419C44.5914 208.292 44.9547 208.229 45.3614 208.229C45.9214 208.229 46.3914 208.322 46.7714 208.509C47.1514 208.689 47.4381 208.939 47.6314 209.259C47.8247 209.579 47.9214 209.949 47.9214 210.369C47.9214 210.689 47.8547 210.986 47.7214 211.259C47.5947 211.532 47.4081 211.796 47.1614 212.049C46.9147 212.296 46.6214 212.552 46.2814 212.819L45.1014 213.999H47.8214C47.8947 213.999 47.9547 214.022 48.0014 214.069C48.0481 214.116 48.0714 214.176 48.0714 214.249V215.099C48.0714 215.172 48.0481 215.232 48.0014 215.279C47.9547 215.326 47.8947 215.349 47.8214 215.349H42.8714ZM51.7093 215.449C51.216 215.449 50.7926 215.389 50.4393 215.269C50.086 215.149 49.796 214.996 49.5693 214.809C49.3426 214.622 49.1726 214.419 49.0593 214.199C48.946 213.972 48.886 213.756 48.8793 213.549C48.8793 213.489 48.8993 213.439 48.9393 213.399C48.9793 213.359 49.0293 213.339 49.0893 213.339H50.1893C50.2626 213.339 50.3226 213.356 50.3693 213.389C50.416 213.416 50.4593 213.466 50.4993 213.539C50.5526 213.692 50.6393 213.816 50.7593 213.909C50.8793 214.002 51.0193 214.069 51.1793 214.109C51.346 214.142 51.5226 214.159 51.7093 214.159C52.0826 214.159 52.376 214.072 52.5893 213.899C52.8026 213.726 52.9093 213.482 52.9093 213.169C52.9093 212.849 52.8093 212.619 52.6093 212.479C52.4093 212.339 52.126 212.269 51.7593 212.269H50.6893C50.6226 212.269 50.566 212.246 50.5193 212.199C50.4726 212.152 50.4493 212.096 50.4493 212.029V211.539C50.4493 211.459 50.4626 211.392 50.4893 211.339C50.5226 211.286 50.556 211.246 50.5893 211.219L52.3093 209.639H49.4893C49.416 209.639 49.356 209.616 49.3093 209.569C49.2626 209.522 49.2393 209.466 49.2393 209.399V208.599C49.2393 208.526 49.2626 208.466 49.3093 208.419C49.356 208.372 49.416 208.349 49.4893 208.349H53.9293C54.0026 208.349 54.0626 208.372 54.1093 208.419C54.156 208.466 54.1793 208.526 54.1793 208.599V209.319C54.1793 209.392 54.166 209.456 54.1393 209.509C54.1126 209.556 54.0793 209.592 54.0393 209.619L52.4093 211.229L52.5093 211.239C52.9026 211.279 53.2526 211.376 53.5593 211.529C53.866 211.682 54.106 211.902 54.2793 212.189C54.4593 212.469 54.5493 212.826 54.5493 213.259C54.5493 213.712 54.426 214.102 54.1793 214.429C53.9326 214.756 53.596 215.009 53.1693 215.189C52.7426 215.362 52.256 215.449 51.7093 215.449ZM55.5248 216.099C55.4715 216.099 55.4248 216.076 55.3848 216.029C55.3515 215.989 55.3382 215.939 55.3448 215.879L55.6248 214.059C55.6382 213.972 55.6715 213.896 55.7248 213.829C55.7782 213.762 55.8582 213.729 55.9648 213.729H57.0048C57.0582 213.729 57.1015 213.749 57.1348 213.789C57.1748 213.822 57.1948 213.866 57.1948 213.919C57.1948 213.959 57.1882 213.999 57.1748 214.039L56.4748 215.829C56.4482 215.896 56.4082 215.956 56.3548 216.009C56.3082 216.069 56.2315 216.099 56.1248 216.099H55.5248ZM60.9318 215.449C60.4518 215.449 60.0385 215.382 59.6918 215.249C59.3518 215.109 59.0685 214.919 58.8418 214.679C58.6218 214.432 58.4551 214.149 58.3418 213.829C58.2351 213.502 58.1718 213.156 58.1518 212.789C58.1451 212.609 58.1385 212.409 58.1318 212.189C58.1318 211.962 58.1318 211.736 58.1318 211.509C58.1385 211.282 58.1451 211.076 58.1518 210.889C58.1651 210.522 58.2285 210.179 58.3418 209.859C58.4618 209.539 58.6351 209.259 58.8618 209.019C59.0885 208.779 59.3718 208.592 59.7118 208.459C60.0585 208.319 60.4651 208.249 60.9318 208.249C61.3985 208.249 61.8018 208.319 62.1418 208.459C62.4818 208.592 62.7651 208.779 62.9918 209.019C63.2185 209.259 63.3885 209.539 63.5018 209.859C63.6218 210.179 63.6918 210.522 63.7118 210.889C63.7185 211.076 63.7218 211.282 63.7218 211.509C63.7285 211.736 63.7285 211.962 63.7218 212.189C63.7218 212.409 63.7185 212.609 63.7118 212.789C63.6918 213.156 63.6251 213.502 63.5118 213.829C63.3985 214.149 63.2285 214.432 63.0018 214.679C62.7818 214.919 62.4985 215.109 62.1518 215.249C61.8118 215.382 61.4051 215.449 60.9318 215.449ZM60.9318 214.149C61.3185 214.149 61.6018 214.022 61.7818 213.769C61.9618 213.516 62.0585 213.172 62.0718 212.739C62.0785 212.546 62.0818 212.346 62.0818 212.139C62.0885 211.932 62.0885 211.726 62.0818 211.519C62.0818 211.312 62.0785 211.119 62.0718 210.939C62.0585 210.526 61.9618 210.189 61.7818 209.929C61.6018 209.669 61.3185 209.536 60.9318 209.529C60.5385 209.536 60.2518 209.669 60.0718 209.929C59.8985 210.189 59.8051 210.526 59.7918 210.939C59.7851 211.119 59.7785 211.312 59.7718 211.519C59.7718 211.726 59.7718 211.932 59.7718 212.139C59.7785 212.346 59.7851 212.546 59.7918 212.739C59.8051 213.172 59.9018 213.516 60.0818 213.769C60.2618 214.022 60.5451 214.149 60.9318 214.149ZM67.6115 215.449C67.1315 215.449 66.7182 215.382 66.3715 215.249C66.0315 215.109 65.7482 214.919 65.5215 214.679C65.3015 214.432 65.1348 214.149 65.0215 213.829C64.9148 213.502 64.8515 213.156 64.8315 212.789C64.8248 212.609 64.8182 212.409 64.8115 212.189C64.8115 211.962 64.8115 211.736 64.8115 211.509C64.8182 211.282 64.8248 211.076 64.8315 210.889C64.8448 210.522 64.9082 210.179 65.0215 209.859C65.1415 209.539 65.3148 209.259 65.5415 209.019C65.7682 208.779 66.0515 208.592 66.3915 208.459C66.7382 208.319 67.1448 208.249 67.6115 208.249C68.0782 208.249 68.4815 208.319 68.8215 208.459C69.1615 208.592 69.4448 208.779 69.6715 209.019C69.8982 209.259 70.0682 209.539 70.1815 209.859C70.3015 210.179 70.3715 210.522 70.3915 210.889C70.3982 211.076 70.4015 211.282 70.4015 211.509C70.4082 211.736 70.4082 211.962 70.4015 212.189C70.4015 212.409 70.3982 212.609 70.3915 212.789C70.3715 213.156 70.3048 213.502 70.1915 213.829C70.0782 214.149 69.9082 214.432 69.6815 214.679C69.4615 214.919 69.1782 215.109 68.8315 215.249C68.4915 215.382 68.0848 215.449 67.6115 215.449ZM67.6115 214.149C67.9982 214.149 68.2815 214.022 68.4615 213.769C68.6415 213.516 68.7382 213.172 68.7515 212.739C68.7582 212.546 68.7615 212.346 68.7615 212.139C68.7682 211.932 68.7682 211.726 68.7615 211.519C68.7615 211.312 68.7582 211.119 68.7515 210.939C68.7382 210.526 68.6415 210.189 68.4615 209.929C68.2815 209.669 67.9982 209.536 67.6115 209.529C67.2182 209.536 66.9315 209.669 66.7515 209.929C66.5782 210.189 66.4848 210.526 66.4715 210.939C66.4648 211.119 66.4582 211.312 66.4515 211.519C66.4515 211.726 66.4515 211.932 66.4515 212.139C66.4582 212.346 66.4648 212.546 66.4715 212.739C66.4848 213.172 66.5815 213.516 66.7615 213.769C66.9415 214.022 67.2248 214.149 67.6115 214.149ZM74.2912 215.449C73.8112 215.449 73.3978 215.382 73.0512 215.249C72.7112 215.109 72.4278 214.919 72.2012 214.679C71.9812 214.432 71.8145 214.149 71.7012 213.829C71.5945 213.502 71.5312 213.156 71.5112 212.789C71.5045 212.609 71.4978 212.409 71.4912 212.189C71.4912 211.962 71.4912 211.736 71.4912 211.509C71.4978 211.282 71.5045 211.076 71.5112 210.889C71.5245 210.522 71.5878 210.179 71.7012 209.859C71.8212 209.539 71.9945 209.259 72.2212 209.019C72.4478 208.779 72.7312 208.592 73.0712 208.459C73.4178 208.319 73.8245 208.249 74.2912 208.249C74.7578 208.249 75.1612 208.319 75.5012 208.459C75.8412 208.592 76.1245 208.779 76.3512 209.019C76.5778 209.259 76.7478 209.539 76.8612 209.859C76.9812 210.179 77.0512 210.522 77.0712 210.889C77.0778 211.076 77.0812 211.282 77.0812 211.509C77.0878 211.736 77.0878 211.962 77.0812 212.189C77.0812 212.409 77.0778 212.609 77.0712 212.789C77.0512 213.156 76.9845 213.502 76.8712 213.829C76.7578 214.149 76.5878 214.432 76.3612 214.679C76.1412 214.919 75.8578 215.109 75.5112 215.249C75.1712 215.382 74.7645 215.449 74.2912 215.449ZM74.2912 214.149C74.6778 214.149 74.9612 214.022 75.1412 213.769C75.3212 213.516 75.4178 213.172 75.4312 212.739C75.4378 212.546 75.4412 212.346 75.4412 212.139C75.4478 211.932 75.4478 211.726 75.4412 211.519C75.4412 211.312 75.4378 211.119 75.4312 210.939C75.4178 210.526 75.3212 210.189 75.1412 209.929C74.9612 209.669 74.6778 209.536 74.2912 209.529C73.8978 209.536 73.6112 209.669 73.4312 209.929C73.2578 210.189 73.1645 210.526 73.1512 210.939C73.1445 211.119 73.1378 211.312 73.1312 211.519C73.1312 211.726 73.1312 211.932 73.1312 212.139C73.1378 212.346 73.1445 212.546 73.1512 212.739C73.1645 213.172 73.2612 213.516 73.4412 213.769C73.6212 214.022 73.9045 214.149 74.2912 214.149ZM78.103 216.099C78.0496 216.099 78.003 216.076 77.963 216.029C77.9296 215.989 77.9163 215.939 77.923 215.879L78.203 214.059C78.2163 213.972 78.2496 213.896 78.303 213.829C78.3563 213.762 78.4363 213.729 78.543 213.729H79.583C79.6363 213.729 79.6796 213.749 79.713 213.789C79.753 213.822 79.773 213.866 79.773 213.919C79.773 213.959 79.7663 213.999 79.753 214.039L79.053 215.829C79.0263 215.896 78.9863 215.956 78.933 216.009C78.8863 216.069 78.8096 216.099 78.703 216.099H78.103ZM83.5099 215.449C83.0299 215.449 82.6166 215.382 82.2699 215.249C81.9299 215.109 81.6466 214.919 81.4199 214.679C81.1999 214.432 81.0333 214.149 80.9199 213.829C80.8133 213.502 80.7499 213.156 80.7299 212.789C80.7233 212.609 80.7166 212.409 80.7099 212.189C80.7099 211.962 80.7099 211.736 80.7099 211.509C80.7166 211.282 80.7233 211.076 80.7299 210.889C80.7433 210.522 80.8066 210.179 80.9199 209.859C81.0399 209.539 81.2133 209.259 81.4399 209.019C81.6666 208.779 81.9499 208.592 82.2899 208.459C82.6366 208.319 83.0433 208.249 83.5099 208.249C83.9766 208.249 84.3799 208.319 84.7199 208.459C85.0599 208.592 85.3433 208.779 85.5699 209.019C85.7966 209.259 85.9666 209.539 86.0799 209.859C86.1999 210.179 86.2699 210.522 86.2899 210.889C86.2966 211.076 86.2999 211.282 86.2999 211.509C86.3066 211.736 86.3066 211.962 86.2999 212.189C86.2999 212.409 86.2966 212.609 86.2899 212.789C86.2699 213.156 86.2033 213.502 86.0899 213.829C85.9766 214.149 85.8066 214.432 85.5799 214.679C85.3599 214.919 85.0766 215.109 84.7299 215.249C84.3899 215.382 83.9833 215.449 83.5099 215.449ZM83.5099 214.149C83.8966 214.149 84.1799 214.022 84.3599 213.769C84.5399 213.516 84.6366 213.172 84.6499 212.739C84.6566 212.546 84.6599 212.346 84.6599 212.139C84.6666 211.932 84.6666 211.726 84.6599 211.519C84.6599 211.312 84.6566 211.119 84.6499 210.939C84.6366 210.526 84.5399 210.189 84.3599 209.929C84.1799 209.669 83.8966 209.536 83.5099 209.529C83.1166 209.536 82.8299 209.669 82.6499 209.929C82.4766 210.189 82.3833 210.526 82.3699 210.939C82.3633 211.119 82.3566 211.312 82.3499 211.519C82.3499 211.726 82.3499 211.932 82.3499 212.139C82.3566 212.346 82.3633 212.546 82.3699 212.739C82.3833 213.172 82.4799 213.516 82.6599 213.769C82.8399 214.022 83.1233 214.149 83.5099 214.149ZM88.6396 215.349C88.5796 215.349 88.5296 215.329 88.4896 215.289C88.4496 215.242 88.4296 215.189 88.4296 215.129C88.4296 215.096 88.4329 215.069 88.4396 215.049C88.4529 215.029 88.4629 215.012 88.4696 214.999L89.9196 213.019C89.7996 213.046 89.6796 213.056 89.5596 213.049C89.2396 213.036 88.9363 212.972 88.6496 212.859C88.3629 212.739 88.1063 212.576 87.8796 212.369C87.6529 212.162 87.4763 211.919 87.3496 211.639C87.2229 211.359 87.1596 211.049 87.1596 210.709C87.1596 210.402 87.2163 210.102 87.3296 209.809C87.4496 209.516 87.6263 209.252 87.8596 209.019C88.0929 208.786 88.3829 208.599 88.7296 208.459C89.0763 208.319 89.4796 208.249 89.9396 208.249C90.3996 208.249 90.8029 208.312 91.1496 208.439C91.5029 208.566 91.7996 208.742 92.0396 208.969C92.2796 209.189 92.4596 209.446 92.5796 209.739C92.6996 210.026 92.7596 210.332 92.7596 210.659C92.7596 210.952 92.7096 211.226 92.6096 211.479C92.5096 211.732 92.3863 211.969 92.2396 212.189C92.0929 212.409 91.9463 212.622 91.7996 212.829L90.1196 215.149C90.0929 215.182 90.0529 215.226 89.9996 215.279C89.9463 215.326 89.8696 215.349 89.7696 215.349H88.6396ZM89.9496 211.869C90.1696 211.869 90.3696 211.822 90.5496 211.729C90.7296 211.636 90.8696 211.502 90.9696 211.329C91.0763 211.156 91.1296 210.949 91.1296 210.709C91.1296 210.462 91.0763 210.252 90.9696 210.079C90.8696 209.906 90.7296 209.772 90.5496 209.679C90.3696 209.586 90.1696 209.539 89.9496 209.539C89.7363 209.539 89.5396 209.586 89.3596 209.679C89.1796 209.772 89.0363 209.906 88.9296 210.079C88.8296 210.252 88.7796 210.462 88.7796 210.709C88.7796 210.949 88.8296 211.156 88.9296 211.329C89.0363 211.502 89.1796 211.636 89.3596 211.729C89.5396 211.822 89.7363 211.869 89.9496 211.869ZM96.9708 215.349C96.9041 215.349 96.8474 215.326 96.8008 215.279C96.7541 215.232 96.7308 215.172 96.7308 215.099V213.899H93.5808C93.5141 213.899 93.4574 213.876 93.4108 213.829C93.3641 213.782 93.3408 213.722 93.3408 213.649V212.839C93.3408 212.792 93.3508 212.742 93.3708 212.689C93.3908 212.636 93.4174 212.586 93.4508 212.539L96.3808 208.519C96.4674 208.406 96.5908 208.349 96.7508 208.349H98.0208C98.0874 208.349 98.1441 208.372 98.1908 208.419C98.2374 208.466 98.2608 208.526 98.2608 208.599V212.569H99.1508C99.2308 212.569 99.2908 212.592 99.3308 212.639C99.3774 212.686 99.4008 212.742 99.4008 212.809V213.649C99.4008 213.722 99.3774 213.782 99.3308 213.829C99.2841 213.876 99.2274 213.899 99.1608 213.899H98.2608V215.099C98.2608 215.172 98.2374 215.232 98.1908 215.279C98.1441 215.326 98.0874 215.349 98.0208 215.349H96.9708ZM94.8908 212.619H96.7608V209.989L94.8908 212.619ZM102.918 215.349C102.851 215.349 102.791 215.326 102.738 215.279C102.691 215.232 102.668 215.172 102.668 215.099V208.599C102.668 208.526 102.691 208.466 102.738 208.419C102.791 208.372 102.851 208.349 102.918 208.349H103.848C103.948 208.349 104.021 208.376 104.068 208.429C104.121 208.482 104.158 208.522 104.178 208.549L106.018 211.939L107.878 208.549C107.891 208.522 107.921 208.482 107.968 208.429C108.021 208.376 108.098 208.349 108.198 208.349H109.128C109.201 208.349 109.261 208.372 109.308 208.419C109.354 208.466 109.378 208.526 109.378 208.599V215.099C109.378 215.172 109.354 215.232 109.308 215.279C109.261 215.326 109.201 215.349 109.128 215.349H108.108C108.041 215.349 107.984 215.326 107.938 215.279C107.891 215.232 107.868 215.172 107.868 215.099V211.059L106.598 213.439C106.564 213.499 106.521 213.552 106.468 213.599C106.414 213.646 106.344 213.669 106.258 213.669H105.788C105.701 213.669 105.631 213.646 105.578 213.599C105.524 213.552 105.481 213.499 105.448 213.439L104.178 211.059V215.099C104.178 215.172 104.154 215.232 104.108 215.279C104.061 215.326 104.004 215.349 103.938 215.349H102.918ZM111.111 215.349C111.038 215.349 110.978 215.326 110.931 215.279C110.884 215.232 110.861 215.172 110.861 215.099V208.599C110.861 208.526 110.884 208.466 110.931 208.419C110.978 208.372 111.038 208.349 111.111 208.349H112.201C112.274 208.349 112.334 208.372 112.381 208.419C112.428 208.466 112.451 208.526 112.451 208.599V211.099H113.191L114.741 208.539C114.774 208.486 114.821 208.442 114.881 208.409C114.941 208.369 115.018 208.349 115.111 208.349H116.321C116.388 208.349 116.438 208.372 116.471 208.419C116.511 208.459 116.531 208.506 116.531 208.559C116.531 208.599 116.518 208.639 116.491 208.679L114.621 211.719L116.681 215.009C116.694 215.036 116.701 215.072 116.701 215.119C116.701 215.186 116.678 215.242 116.631 215.289C116.591 215.329 116.541 215.349 116.481 215.349H115.231C115.131 215.349 115.058 215.329 115.011 215.289C114.964 215.242 114.928 215.202 114.901 215.169L113.251 212.519H112.451V215.099C112.451 215.172 112.428 215.232 112.381 215.279C112.334 215.326 112.274 215.349 112.201 215.349H111.111ZM117.487 216.749C117.42 216.749 117.363 216.726 117.317 216.679C117.27 216.632 117.247 216.572 117.247 216.499V214.179C117.247 214.106 117.27 214.046 117.317 213.999C117.363 213.952 117.42 213.929 117.487 213.929H117.677C117.837 213.929 117.973 213.852 118.087 213.699C118.2 213.546 118.29 213.329 118.357 213.049C118.423 212.762 118.473 212.419 118.507 212.019C118.54 211.612 118.557 211.159 118.557 210.659V208.599C118.557 208.526 118.58 208.466 118.627 208.419C118.673 208.372 118.73 208.349 118.797 208.349H123.297C123.37 208.349 123.43 208.372 123.477 208.419C123.523 208.466 123.547 208.526 123.547 208.599V213.929H124.017C124.09 213.929 124.15 213.952 124.197 213.999C124.243 214.046 124.267 214.106 124.267 214.179V216.499C124.267 216.566 124.243 216.622 124.197 216.669C124.15 216.722 124.09 216.749 124.017 216.749H122.927C122.853 216.749 122.793 216.722 122.747 216.669C122.7 216.622 122.677 216.566 122.677 216.499V215.349H118.837V216.499C118.837 216.566 118.81 216.622 118.757 216.669C118.71 216.722 118.65 216.749 118.577 216.749H117.487ZM119.587 213.929H121.957V209.769H120.097V210.859C120.097 211.626 120.053 212.259 119.967 212.759C119.88 213.259 119.753 213.649 119.587 213.929Z" fill="black"/>
<path d="M80.3 176.6C109.737 176.6 133.6 152.737 133.6 123.3C133.6 93.8633 109.737 70 80.3 70C50.8632 70 27 93.8633 27 123.3C27 152.737 50.8632 176.6 80.3 176.6Z" fill="white"/>
<path d="M45.7232 111.228H79.7102V121.1H45.7232V111.228ZM45.8106 125.032H79.7102V134.905H45.8106V125.032ZM103.824 149.67C103.125 150.253 101.815 151.039 99.8926 152.029C98.0287 153.02 95.728 153.893 92.9904 154.651C90.2528 155.408 87.224 155.757 83.9039 155.699C78.8365 155.582 74.2932 154.68 70.2742 152.99C66.3134 151.243 62.9351 148.884 60.1393 145.914C57.4017 142.943 55.3048 139.536 53.8486 135.691C52.3925 131.847 51.6644 127.741 51.6644 123.372C51.6644 118.479 52.3925 113.994 53.8486 109.917C55.3631 105.84 57.4891 102.316 60.2267 99.3453C63.0225 96.3747 66.3426 94.074 70.1868 92.4431C74.0311 90.8122 78.2831 89.9967 82.9429 89.9967C87.2531 89.9967 91.0683 90.5792 94.3883 91.7441C97.7084 92.909 100.417 94.1613 102.514 95.501L97.5336 107.471C96.0775 106.364 94.1262 105.228 91.6799 104.063C89.2917 102.84 86.525 102.229 83.3797 102.229C80.1179 102.229 77.0599 103.131 74.2059 104.937C71.41 106.743 69.1384 109.189 67.391 112.276C65.7018 115.305 64.8573 118.771 64.8573 122.673C64.8573 126.809 65.6436 130.449 67.2163 133.594C68.7889 136.681 71.0314 139.099 73.9437 140.846C76.8561 142.593 80.2635 143.467 84.166 143.467C87.6026 143.467 90.544 142.914 92.9904 141.807C95.4368 140.7 97.3007 139.536 98.5821 138.312L103.824 149.67Z" fill="#009787"/>
<path d="M57.7916 52.2257C57.557 52.2257 57.3756 52.151 57.2476 52.0017C57.141 51.8524 57.109 51.6604 57.1516 51.4257L57.6316 49.1537C57.6743 49.0044 57.7703 48.7804 57.9196 48.4817C58.069 48.1617 58.357 47.863 58.7836 47.5857L62.7836 44.3217C64.7676 43.0204 66.3996 41.9217 67.6796 41.0257C68.981 40.1084 69.973 39.2977 70.6556 38.5937C71.3596 37.8897 71.7756 37.2284 71.9036 36.6097C72.053 35.8844 71.989 35.287 71.7116 34.8177C71.4343 34.327 70.837 34.0817 69.9196 34.0817C69.2796 34.0817 68.725 34.2204 68.2556 34.4977C67.8076 34.7537 67.4236 35.095 67.1036 35.5217C66.805 35.9484 66.5596 36.3857 66.3676 36.8337C66.2396 37.111 66.0583 37.303 65.8236 37.4097C65.6103 37.5164 65.3863 37.5697 65.1516 37.5697H61.1516C60.9383 37.5697 60.7783 37.5057 60.6716 37.3777C60.5863 37.2497 60.565 37.0897 60.6076 36.8977C60.8423 35.8737 61.2583 34.9137 61.8556 34.0177C62.4743 33.1217 63.2316 32.3324 64.1276 31.6497C65.0236 30.9457 66.0476 30.4017 67.1996 30.0177C68.3516 29.6337 69.5783 29.4417 70.8796 29.4417C72.7143 29.4417 74.197 29.7297 75.3276 30.3057C76.4796 30.8817 77.269 31.6924 77.6956 32.7377C78.1436 33.7617 78.2183 34.967 77.9196 36.3537C77.7063 37.399 77.269 38.3804 76.6076 39.2977C75.9676 40.1937 75.1356 41.0577 74.1116 41.8897C73.109 42.7004 71.9356 43.543 70.5916 44.4177L67.0076 47.3937H75.2636C75.4983 47.3937 75.669 47.4684 75.7756 47.6177C75.8823 47.767 75.9143 47.959 75.8716 48.1937L75.1996 51.4257C75.157 51.6604 75.0396 51.8524 74.8476 52.0017C74.6556 52.151 74.4423 52.2257 74.2076 52.2257H57.7916ZM80.3961 52.2257C80.2255 52.2257 80.0868 52.1617 79.9801 52.0337C79.8948 51.9057 79.8628 51.7457 79.8841 51.5537L83.1481 36.2257C83.1908 36.055 83.2868 35.9057 83.4361 35.7777C83.5855 35.6497 83.7455 35.5857 83.9161 35.5857H87.4041C87.7881 35.5857 88.0548 35.7777 88.2041 36.1617L91.9801 46.4337L89.6761 46.0177L97.0041 36.1617C97.3028 35.7777 97.6548 35.5857 98.0601 35.5857H101.868C102.06 35.5857 102.209 35.6497 102.316 35.7777C102.423 35.9057 102.455 36.055 102.412 36.2257L99.1481 51.5537C99.1268 51.7457 99.0308 51.9057 98.8601 52.0337C98.7108 52.1617 98.5401 52.2257 98.3481 52.2257H94.3801C94.1881 52.2257 94.0388 52.1617 93.9321 52.0337C93.8468 51.9057 93.8148 51.7457 93.8361 51.5537L96.0761 41.1217L97.5481 41.0577L91.6281 49.0257C91.4788 49.2177 91.3188 49.3884 91.1481 49.5377C90.9775 49.6657 90.7748 49.7297 90.5401 49.7297H89.5481C89.3135 49.7297 89.1321 49.6657 89.0041 49.5377C88.8975 49.4097 88.8015 49.239 88.7161 49.0257L86.0921 41.2817L87.3401 41.3457L85.1641 51.5537C85.1428 51.7457 85.0468 51.9057 84.8761 52.0337C84.7268 52.1617 84.5561 52.2257 84.3641 52.2257H80.3961Z" fill="black"/>
</svg>
