<svg width="162" height="247" viewBox="0 0 162 247" fill="none" xmlns="http://www.w3.org/2000/svg">
<rect width="161" height="247" fill="#009444"/>
<rect x="10" y="10" width="141" height="227" rx="10" fill="#8DC63F"/>
<path d="M42.1343 215.349C42.0676 215.349 42.0076 215.326 41.9543 215.279C41.9076 215.232 41.8843 215.172 41.8843 215.099V210.129L40.4443 211.239C40.3843 211.286 40.3209 211.302 40.2543 211.289C40.1943 211.276 40.1409 211.239 40.0943 211.179L39.5943 210.529C39.5543 210.469 39.5376 210.406 39.5443 210.339C39.5576 210.272 39.5943 210.219 39.6543 210.179L41.9343 208.419C41.9743 208.392 42.0109 208.376 42.0443 208.369C42.0843 208.356 42.1276 208.349 42.1743 208.349H43.2343C43.3009 208.349 43.3576 208.372 43.4043 208.419C43.4509 208.466 43.4743 208.526 43.4743 208.599V215.099C43.4743 215.172 43.4509 215.232 43.4043 215.279C43.3576 215.326 43.3009 215.349 43.2343 215.349H42.1343ZM47.4794 215.449C47.0127 215.449 46.5994 215.396 46.2394 215.289C45.8861 215.176 45.5894 215.022 45.3494 214.829C45.1094 214.629 44.9294 214.399 44.8094 214.139C44.6894 213.872 44.6294 213.582 44.6294 213.269C44.6294 212.889 44.7227 212.559 44.9094 212.279C45.0961 211.999 45.3327 211.782 45.6194 211.629C45.3861 211.476 45.2027 211.282 45.0694 211.049C44.9427 210.809 44.8794 210.532 44.8794 210.219C44.8794 209.839 44.9761 209.502 45.1694 209.209C45.3627 208.916 45.6494 208.682 46.0294 208.509C46.4161 208.336 46.8994 208.249 47.4794 208.249C48.0527 208.249 48.5294 208.336 48.9094 208.509C49.2894 208.676 49.5761 208.906 49.7694 209.199C49.9627 209.492 50.0594 209.829 50.0594 210.209C50.0594 210.522 49.9961 210.799 49.8694 211.039C49.7427 211.279 49.5627 211.476 49.3294 211.629C49.6361 211.776 49.8794 211.992 50.0594 212.279C50.2394 212.566 50.3294 212.899 50.3294 213.279C50.3294 213.692 50.2227 214.062 50.0094 214.389C49.7961 214.716 49.4761 214.976 49.0494 215.169C48.6227 215.356 48.0994 215.449 47.4794 215.449ZM47.4794 214.299C47.7127 214.299 47.9261 214.259 48.1194 214.179C48.3127 214.092 48.4627 213.972 48.5694 213.819C48.6827 213.666 48.7394 213.486 48.7394 213.279C48.7394 213.066 48.6827 212.886 48.5694 212.739C48.4627 212.586 48.3127 212.469 48.1194 212.389C47.9261 212.302 47.7127 212.259 47.4794 212.259C47.2394 212.259 47.0227 212.302 46.8294 212.389C46.6427 212.469 46.4927 212.586 46.3794 212.739C46.2661 212.886 46.2094 213.066 46.2094 213.279C46.2094 213.486 46.2661 213.666 46.3794 213.819C46.4927 213.972 46.6427 214.092 46.8294 214.179C47.0227 214.259 47.2394 214.299 47.4794 214.299ZM47.4794 211.169C47.6861 211.162 47.8727 211.122 48.0394 211.049C48.2061 210.976 48.3394 210.876 48.4394 210.749C48.5394 210.616 48.5894 210.462 48.5894 210.289C48.5894 210.109 48.5394 209.956 48.4394 209.829C48.3461 209.696 48.2161 209.592 48.0494 209.519C47.8827 209.446 47.6927 209.409 47.4794 209.409C47.2661 209.409 47.0727 209.446 46.8994 209.519C46.7327 209.592 46.6027 209.696 46.5094 209.829C46.4161 209.956 46.3694 210.109 46.3694 210.289C46.3694 210.469 46.4161 210.626 46.5094 210.759C46.6027 210.886 46.7327 210.986 46.8994 211.059C47.0727 211.132 47.2661 211.169 47.4794 211.169ZM54.7296 215.349C54.6629 215.349 54.6062 215.326 54.5596 215.279C54.5129 215.232 54.4896 215.172 54.4896 215.099V213.899H51.3396C51.2729 213.899 51.2162 213.876 51.1696 213.829C51.1229 213.782 51.0996 213.722 51.0996 213.649V212.839C51.0996 212.792 51.1096 212.742 51.1296 212.689C51.1496 212.636 51.1762 212.586 51.2096 212.539L54.1396 208.519C54.2262 208.406 54.3496 208.349 54.5096 208.349H55.7796C55.8462 208.349 55.9029 208.372 55.9496 208.419C55.9962 208.466 56.0196 208.526 56.0196 208.599V212.569H56.9096C56.9896 212.569 57.0496 212.592 57.0896 212.639C57.1362 212.686 57.1596 212.742 57.1596 212.809V213.649C57.1596 213.722 57.1362 213.782 57.0896 213.829C57.0429 213.876 56.9862 213.899 56.9196 213.899H56.0196V215.099C56.0196 215.172 55.9962 215.232 55.9496 215.279C55.9029 215.326 55.8462 215.349 55.7796 215.349H54.7296ZM52.6496 212.619H54.5196V209.989L52.6496 212.619ZM57.9516 216.099C57.8983 216.099 57.8516 216.076 57.8116 216.029C57.7783 215.989 57.7649 215.939 57.7716 215.879L58.0516 214.059C58.0649 213.972 58.0983 213.896 58.1516 213.829C58.2049 213.762 58.2849 213.729 58.3916 213.729H59.4316C59.4849 213.729 59.5283 213.749 59.5616 213.789C59.6016 213.822 59.6216 213.866 59.6216 213.919C59.6216 213.959 59.6149 213.999 59.6016 214.039L58.9016 215.829C58.8749 215.896 58.8349 215.956 58.7816 216.009C58.7349 216.069 58.6583 216.099 58.5516 216.099H57.9516ZM63.2364 215.459C62.6364 215.459 62.1331 215.362 61.7264 215.169C61.3198 214.976 61.0098 214.722 60.7964 214.409C60.5898 214.096 60.4798 213.762 60.4664 213.409C60.4664 213.349 60.4864 213.299 60.5264 213.259C60.5664 213.219 60.6164 213.199 60.6764 213.199H61.8064C61.8864 213.199 61.9498 213.219 61.9964 213.259C62.0498 213.292 62.0898 213.339 62.1164 213.399C62.1831 213.579 62.2698 213.726 62.3764 213.839C62.4898 213.952 62.6198 214.036 62.7664 214.089C62.9131 214.142 63.0698 214.169 63.2364 214.169C63.4498 214.169 63.6464 214.126 63.8264 214.039C64.0064 213.946 64.1498 213.812 64.2564 213.639C64.3631 213.466 64.4164 213.252 64.4164 212.999C64.4164 212.779 64.3664 212.586 64.2664 212.419C64.1664 212.252 64.0264 212.122 63.8464 212.029C63.6664 211.936 63.4631 211.889 63.2364 211.889C63.0631 211.889 62.9198 211.909 62.8064 211.949C62.6998 211.989 62.6098 212.039 62.5364 212.099C62.4631 212.152 62.3964 212.202 62.3364 212.249C62.2764 212.289 62.2098 212.309 62.1364 212.309H61.0264C60.9664 212.309 60.9131 212.289 60.8664 212.249C60.8264 212.202 60.8064 212.149 60.8064 212.089L61.1564 208.639C61.1698 208.546 61.2031 208.476 61.2564 208.429C61.3164 208.376 61.3864 208.349 61.4664 208.349H65.3464C65.4198 208.349 65.4798 208.372 65.5264 208.419C65.5731 208.466 65.5964 208.526 65.5964 208.599V209.399C65.5964 209.466 65.5731 209.522 65.5264 209.569C65.4798 209.616 65.4198 209.639 65.3464 209.639H62.4564L62.3064 211.109C62.4398 211.022 62.6031 210.946 62.7964 210.879C62.9964 210.806 63.2731 210.769 63.6264 210.769C63.9464 210.769 64.2498 210.822 64.5364 210.929C64.8298 211.029 65.0898 211.179 65.3164 211.379C65.5431 211.579 65.7198 211.819 65.8464 212.099C65.9798 212.372 66.0464 212.686 66.0464 213.039C66.0464 213.519 65.9331 213.942 65.7064 214.309C65.4798 214.669 65.1564 214.952 64.7364 215.159C64.3164 215.359 63.8164 215.459 63.2364 215.459ZM69.7648 215.449C69.2848 215.449 68.8715 215.382 68.5248 215.249C68.1848 215.109 67.9015 214.919 67.6748 214.679C67.4548 214.432 67.2881 214.149 67.1748 213.829C67.0681 213.502 67.0048 213.156 66.9848 212.789C66.9781 212.609 66.9715 212.409 66.9648 212.189C66.9648 211.962 66.9648 211.736 66.9648 211.509C66.9715 211.282 66.9781 211.076 66.9848 210.889C66.9981 210.522 67.0615 210.179 67.1748 209.859C67.2948 209.539 67.4681 209.259 67.6948 209.019C67.9215 208.779 68.2048 208.592 68.5448 208.459C68.8915 208.319 69.2981 208.249 69.7648 208.249C70.2315 208.249 70.6348 208.319 70.9748 208.459C71.3148 208.592 71.5981 208.779 71.8248 209.019C72.0515 209.259 72.2215 209.539 72.3348 209.859C72.4548 210.179 72.5248 210.522 72.5448 210.889C72.5515 211.076 72.5548 211.282 72.5548 211.509C72.5615 211.736 72.5615 211.962 72.5548 212.189C72.5548 212.409 72.5515 212.609 72.5448 212.789C72.5248 213.156 72.4581 213.502 72.3448 213.829C72.2315 214.149 72.0615 214.432 71.8348 214.679C71.6148 214.919 71.3315 215.109 70.9848 215.249C70.6448 215.382 70.2381 215.449 69.7648 215.449ZM69.7648 214.149C70.1515 214.149 70.4348 214.022 70.6148 213.769C70.7948 213.516 70.8915 213.172 70.9048 212.739C70.9115 212.546 70.9148 212.346 70.9148 212.139C70.9215 211.932 70.9215 211.726 70.9148 211.519C70.9148 211.312 70.9115 211.119 70.9048 210.939C70.8915 210.526 70.7948 210.189 70.6148 209.929C70.4348 209.669 70.1515 209.536 69.7648 209.529C69.3715 209.536 69.0848 209.669 68.9048 209.929C68.7315 210.189 68.6381 210.526 68.6248 210.939C68.6181 211.119 68.6115 211.312 68.6048 211.519C68.6048 211.726 68.6048 211.932 68.6048 212.139C68.6115 212.346 68.6181 212.546 68.6248 212.739C68.6381 213.172 68.7348 213.516 68.9148 213.769C69.0948 214.022 69.3781 214.149 69.7648 214.149ZM76.4445 215.449C75.9645 215.449 75.5512 215.382 75.2045 215.249C74.8645 215.109 74.5812 214.919 74.3545 214.679C74.1345 214.432 73.9678 214.149 73.8545 213.829C73.7478 213.502 73.6845 213.156 73.6645 212.789C73.6578 212.609 73.6512 212.409 73.6445 212.189C73.6445 211.962 73.6445 211.736 73.6445 211.509C73.6512 211.282 73.6578 211.076 73.6645 210.889C73.6778 210.522 73.7412 210.179 73.8545 209.859C73.9745 209.539 74.1478 209.259 74.3745 209.019C74.6012 208.779 74.8845 208.592 75.2245 208.459C75.5712 208.319 75.9778 208.249 76.4445 208.249C76.9112 208.249 77.3145 208.319 77.6545 208.459C77.9945 208.592 78.2778 208.779 78.5045 209.019C78.7312 209.259 78.9012 209.539 79.0145 209.859C79.1345 210.179 79.2045 210.522 79.2245 210.889C79.2312 211.076 79.2345 211.282 79.2345 211.509C79.2412 211.736 79.2412 211.962 79.2345 212.189C79.2345 212.409 79.2312 212.609 79.2245 212.789C79.2045 213.156 79.1378 213.502 79.0245 213.829C78.9112 214.149 78.7412 214.432 78.5145 214.679C78.2945 214.919 78.0112 215.109 77.6645 215.249C77.3245 215.382 76.9178 215.449 76.4445 215.449ZM76.4445 214.149C76.8312 214.149 77.1145 214.022 77.2945 213.769C77.4745 213.516 77.5712 213.172 77.5845 212.739C77.5912 212.546 77.5945 212.346 77.5945 212.139C77.6012 211.932 77.6012 211.726 77.5945 211.519C77.5945 211.312 77.5912 211.119 77.5845 210.939C77.5712 210.526 77.4745 210.189 77.2945 209.929C77.1145 209.669 76.8312 209.536 76.4445 209.529C76.0512 209.536 75.7645 209.669 75.5845 209.929C75.4112 210.189 75.3178 210.526 75.3045 210.939C75.2978 211.119 75.2912 211.312 75.2845 211.519C75.2845 211.726 75.2845 211.932 75.2845 212.139C75.2912 212.346 75.2978 212.546 75.3045 212.739C75.3178 213.172 75.4145 213.516 75.5945 213.769C75.7745 214.022 76.0578 214.149 76.4445 214.149ZM80.2563 216.099C80.203 216.099 80.1563 216.076 80.1163 216.029C80.083 215.989 80.0696 215.939 80.0763 215.879L80.3563 214.059C80.3696 213.972 80.403 213.896 80.4563 213.829C80.5096 213.762 80.5896 213.729 80.6963 213.729H81.7363C81.7896 213.729 81.833 213.749 81.8663 213.789C81.9063 213.822 81.9263 213.866 81.9263 213.919C81.9263 213.959 81.9196 213.999 81.9063 214.039L81.2063 215.829C81.1796 215.896 81.1396 215.956 81.0863 216.009C81.0396 216.069 80.963 216.099 80.8563 216.099H80.2563ZM84.5268 215.349C84.4602 215.349 84.4002 215.326 84.3468 215.279C84.3002 215.232 84.2768 215.172 84.2768 215.099V210.129L82.8368 211.239C82.7768 211.286 82.7135 211.302 82.6468 211.289C82.5868 211.276 82.5335 211.239 82.4868 211.179L81.9868 210.529C81.9468 210.469 81.9302 210.406 81.9368 210.339C81.9502 210.272 81.9868 210.219 82.0468 210.179L84.3268 208.419C84.3668 208.392 84.4035 208.376 84.4368 208.369C84.4768 208.356 84.5202 208.349 84.5668 208.349H85.6268C85.6935 208.349 85.7502 208.372 85.7968 208.419C85.8435 208.466 85.8668 208.526 85.8668 208.599V215.099C85.8668 215.172 85.8435 215.232 85.7968 215.279C85.7502 215.326 85.6935 215.349 85.6268 215.349H84.5268ZM90.462 215.349C90.3953 215.349 90.3387 215.326 90.292 215.279C90.2453 215.232 90.222 215.172 90.222 215.099V213.899H87.072C87.0053 213.899 86.9487 213.876 86.902 213.829C86.8553 213.782 86.832 213.722 86.832 213.649V212.839C86.832 212.792 86.842 212.742 86.862 212.689C86.882 212.636 86.9087 212.586 86.942 212.539L89.872 208.519C89.9587 208.406 90.082 208.349 90.242 208.349H91.512C91.5787 208.349 91.6353 208.372 91.682 208.419C91.7287 208.466 91.752 208.526 91.752 208.599V212.569H92.642C92.722 212.569 92.782 212.592 92.822 212.639C92.8687 212.686 92.892 212.742 92.892 212.809V213.649C92.892 213.722 92.8687 213.782 92.822 213.829C92.7753 213.876 92.7187 213.899 92.652 213.899H91.752V215.099C91.752 215.172 91.7287 215.232 91.682 215.279C91.6353 215.326 91.5787 215.349 91.512 215.349H90.462ZM88.382 212.619H90.252V209.989L88.382 212.619ZM95.7475 215.349C95.6809 215.349 95.6209 215.326 95.5675 215.279C95.5209 215.232 95.4975 215.172 95.4975 215.099V210.129L94.0575 211.239C93.9975 211.286 93.9342 211.302 93.8675 211.289C93.8075 211.276 93.7542 211.239 93.7075 211.179L93.2075 210.529C93.1675 210.469 93.1509 210.406 93.1575 210.339C93.1709 210.272 93.2075 210.219 93.2675 210.179L95.5475 208.419C95.5875 208.392 95.6242 208.376 95.6575 208.369C95.6975 208.356 95.7409 208.349 95.7875 208.349H96.8475C96.9142 208.349 96.9709 208.372 97.0175 208.419C97.0642 208.466 97.0875 208.526 97.0875 208.599V215.099C97.0875 215.172 97.0642 215.232 97.0175 215.279C96.9709 215.326 96.9142 215.349 96.8475 215.349H95.7475ZM100.96 215.349C100.893 215.349 100.833 215.326 100.78 215.279C100.733 215.232 100.71 215.172 100.71 215.099V208.599C100.71 208.526 100.733 208.466 100.78 208.419C100.833 208.372 100.893 208.349 100.96 208.349H101.89C101.99 208.349 102.063 208.376 102.11 208.429C102.163 208.482 102.2 208.522 102.22 208.549L104.06 211.939L105.92 208.549C105.933 208.522 105.963 208.482 106.01 208.429C106.063 208.376 106.14 208.349 106.24 208.349H107.17C107.243 208.349 107.303 208.372 107.35 208.419C107.396 208.466 107.42 208.526 107.42 208.599V215.099C107.42 215.172 107.396 215.232 107.35 215.279C107.303 215.326 107.243 215.349 107.17 215.349H106.15C106.083 215.349 106.026 215.326 105.98 215.279C105.933 215.232 105.91 215.172 105.91 215.099V211.059L104.64 213.439C104.606 213.499 104.563 213.552 104.51 213.599C104.456 213.646 104.386 213.669 104.3 213.669H103.83C103.743 213.669 103.673 213.646 103.62 213.599C103.566 213.552 103.523 213.499 103.49 213.439L102.22 211.059V215.099C102.22 215.172 102.196 215.232 102.15 215.279C102.103 215.326 102.046 215.349 101.98 215.349H100.96ZM109.153 215.349C109.08 215.349 109.02 215.326 108.973 215.279C108.926 215.232 108.903 215.172 108.903 215.099V208.599C108.903 208.526 108.926 208.466 108.973 208.419C109.02 208.372 109.08 208.349 109.153 208.349H110.243C110.316 208.349 110.376 208.372 110.423 208.419C110.47 208.466 110.493 208.526 110.493 208.599V211.099H111.233L112.783 208.539C112.816 208.486 112.863 208.442 112.923 208.409C112.983 208.369 113.06 208.349 113.153 208.349H114.363C114.43 208.349 114.48 208.372 114.513 208.419C114.553 208.459 114.573 208.506 114.573 208.559C114.573 208.599 114.56 208.639 114.533 208.679L112.663 211.719L114.723 215.009C114.736 215.036 114.743 215.072 114.743 215.119C114.743 215.186 114.72 215.242 114.673 215.289C114.633 215.329 114.583 215.349 114.523 215.349H113.273C113.173 215.349 113.1 215.329 113.053 215.289C113.006 215.242 112.97 215.202 112.943 215.169L111.293 212.519H110.493V215.099C110.493 215.172 110.47 215.232 110.423 215.279C110.376 215.326 110.316 215.349 110.243 215.349H109.153ZM115.529 216.749C115.462 216.749 115.405 216.726 115.359 216.679C115.312 216.632 115.289 216.572 115.289 216.499V214.179C115.289 214.106 115.312 214.046 115.359 213.999C115.405 213.952 115.462 213.929 115.529 213.929H115.719C115.879 213.929 116.015 213.852 116.129 213.699C116.242 213.546 116.332 213.329 116.399 213.049C116.465 212.762 116.515 212.419 116.549 212.019C116.582 211.612 116.599 211.159 116.599 210.659V208.599C116.599 208.526 116.622 208.466 116.669 208.419C116.715 208.372 116.772 208.349 116.839 208.349H121.339C121.412 208.349 121.472 208.372 121.519 208.419C121.565 208.466 121.589 208.526 121.589 208.599V213.929H122.059C122.132 213.929 122.192 213.952 122.239 213.999C122.285 214.046 122.309 214.106 122.309 214.179V216.499C122.309 216.566 122.285 216.622 122.239 216.669C122.192 216.722 122.132 216.749 122.059 216.749H120.969C120.895 216.749 120.835 216.722 120.789 216.669C120.742 216.622 120.719 216.566 120.719 216.499V215.349H116.879V216.499C116.879 216.566 116.852 216.622 116.799 216.669C116.752 216.722 116.692 216.749 116.619 216.749H115.529ZM117.629 213.929H119.999V209.769H118.139V210.859C118.139 211.626 118.095 212.259 118.009 212.759C117.922 213.259 117.795 213.649 117.629 213.929Z" fill="black"/>
<path d="M80.3 176.6C109.737 176.6 133.6 152.737 133.6 123.3C133.6 93.8633 109.737 70 80.3 70C50.8632 70 27 93.8633 27 123.3C27 152.737 50.8632 176.6 80.3 176.6Z" fill="white"/>
<path d="M45.8195 111.228H79.8065V121.1H45.8195V111.228ZM45.9069 125.032H79.8065V134.905H45.9069V125.032ZM103.921 149.67C103.222 150.253 101.911 151.039 99.9889 152.029C98.125 153.02 95.8243 153.893 93.0867 154.651C90.3491 155.408 87.3203 155.757 84.0002 155.699C78.9328 155.582 74.3895 154.68 70.3705 152.99C66.4097 151.243 63.0314 148.884 60.2356 145.914C57.498 142.943 55.4011 139.536 53.9449 135.691C52.4888 131.847 51.7607 127.741 51.7607 123.372C51.7607 118.479 52.4888 113.994 53.9449 109.917C55.4594 105.84 57.5854 102.316 60.323 99.3453C63.1188 96.3747 66.4389 94.074 70.2831 92.4431C74.1274 90.8122 78.3794 89.9967 83.0392 89.9967C87.3494 89.9967 91.1646 90.5792 94.4846 91.7441C97.8047 92.909 100.513 94.1613 102.61 95.501L97.63 107.471C96.1738 106.364 94.2225 105.228 91.7762 104.063C89.388 102.84 86.6213 102.229 83.476 102.229C80.2142 102.229 77.1562 103.131 74.3022 104.937C71.5063 106.743 69.2347 109.189 67.4873 112.276C65.7981 115.305 64.9536 118.771 64.9536 122.673C64.9536 126.809 65.7399 130.449 67.3126 133.594C68.8852 136.681 71.1277 139.099 74.0401 140.846C76.9524 142.593 80.3598 143.467 84.2623 143.467C87.6989 143.467 90.6404 142.914 93.0867 141.807C95.5331 140.7 97.397 139.536 98.6784 138.312L103.921 149.67Z" fill="#009444"/>
<path d="M66.843 52.5457C65.179 52.5457 63.803 52.3537 62.715 51.9697C61.627 51.5644 60.7737 51.0524 60.155 50.4337C59.5577 49.7937 59.1523 49.1217 58.939 48.4177C58.7257 47.6924 58.6723 46.999 58.779 46.3377C58.8217 46.1457 58.9177 45.9857 59.067 45.8577C59.2377 45.7297 59.419 45.6657 59.611 45.6657H63.803C64.059 45.6657 64.251 45.719 64.379 45.8257C64.507 45.911 64.6137 46.0604 64.699 46.2737C64.763 46.679 64.9337 47.0097 65.211 47.2657C65.4883 47.5217 65.851 47.703 66.299 47.8097C66.7683 47.895 67.2803 47.9377 67.835 47.9377C68.923 47.9377 69.819 47.6924 70.523 47.2017C71.227 46.6897 71.675 45.9964 71.867 45.1217C72.059 44.2044 71.9097 43.5537 71.419 43.1697C70.9283 42.7644 70.1603 42.5617 69.115 42.5617H65.531C65.3177 42.5617 65.147 42.487 65.019 42.3377C64.891 42.1884 64.859 41.9964 64.923 41.7617L65.275 39.9697C65.339 39.7137 65.4457 39.4897 65.595 39.2977C65.7443 39.1057 65.883 38.967 66.011 38.8817L72.219 34.4337H63.355C63.1203 34.4337 62.939 34.359 62.811 34.2097C62.7043 34.0604 62.6723 33.8684 62.715 33.6337L63.355 30.6257C63.3977 30.391 63.515 30.199 63.707 30.0497C63.899 29.9004 64.1017 29.8257 64.315 29.8257H79.035C79.2697 29.8257 79.4403 29.9004 79.547 30.0497C79.675 30.199 79.7177 30.391 79.675 30.6257L79.099 33.3457C79.0563 33.5804 78.9603 33.7937 78.811 33.9857C78.6617 34.1564 78.523 34.295 78.395 34.4017L72.539 38.9137L72.795 38.9777C73.9683 39.127 74.9817 39.4577 75.835 39.9697C76.6883 40.4604 77.2963 41.1537 77.659 42.0497C78.0217 42.9457 78.0537 44.087 77.755 45.4737C77.435 46.9244 76.7523 48.183 75.707 49.2497C74.683 50.295 73.403 51.1057 71.867 51.6817C70.331 52.2577 68.6563 52.5457 66.843 52.5457ZM81.5368 52.2257C81.3661 52.2257 81.2274 52.1617 81.1208 52.0337C81.0354 51.9057 81.0034 51.7457 81.0248 51.5537L84.2888 36.2257C84.3314 36.055 84.4274 35.9057 84.5768 35.7777C84.7261 35.6497 84.8861 35.5857 85.0568 35.5857H88.5448C88.9288 35.5857 89.1954 35.7777 89.3448 36.1617L93.1208 46.4337L90.8168 46.0177L98.1448 36.1617C98.4434 35.7777 98.7954 35.5857 99.2008 35.5857H103.009C103.201 35.5857 103.35 35.6497 103.457 35.7777C103.563 35.9057 103.595 36.055 103.553 36.2257L100.289 51.5537C100.267 51.7457 100.171 51.9057 100.001 52.0337C99.8514 52.1617 99.6808 52.2257 99.4888 52.2257H95.5208C95.3288 52.2257 95.1794 52.1617 95.0728 52.0337C94.9874 51.9057 94.9554 51.7457 94.9768 51.5537L97.2168 41.1217L98.6888 41.0577L92.7688 49.0257C92.6194 49.2177 92.4594 49.3884 92.2888 49.5377C92.1181 49.6657 91.9154 49.7297 91.6808 49.7297H90.6888C90.4541 49.7297 90.2728 49.6657 90.1448 49.5377C90.0381 49.4097 89.9421 49.239 89.8568 49.0257L87.2328 41.2817L88.4808 41.3457L86.3048 51.5537C86.2834 51.7457 86.1874 51.9057 86.0168 52.0337C85.8674 52.1617 85.6968 52.2257 85.5048 52.2257H81.5368Z" fill="black"/>
</svg>
