<svg width="162" height="247" viewBox="0 0 162 247" fill="none" xmlns="http://www.w3.org/2000/svg">
<rect width="161" height="247" fill="#E8B912"/>
<rect x="10" y="10" width="141" height="227" rx="10" fill="#FFF200"/>
<path d="M80.3 176.6C109.737 176.6 133.6 152.737 133.6 123.3C133.6 93.8633 109.737 70 80.3 70C50.8632 70 27 93.8633 27 123.3C27 152.737 50.8632 176.6 80.3 176.6Z" fill="white"/>
<path d="M45.8195 111.228H79.8065V121.1H45.8195V111.228ZM45.9069 125.032H79.8065V134.905H45.9069V125.032ZM103.921 149.67C103.222 150.253 101.911 151.039 99.9889 152.029C98.125 153.02 95.8243 153.893 93.0867 154.651C90.3491 155.408 87.3203 155.757 84.0002 155.699C78.9328 155.582 74.3895 154.68 70.3705 152.99C66.4097 151.243 63.0314 148.884 60.2356 145.914C57.498 142.943 55.4011 139.536 53.9449 135.691C52.4888 131.847 51.7607 127.741 51.7607 123.372C51.7607 118.479 52.4888 113.994 53.9449 109.917C55.4594 105.84 57.5854 102.316 60.323 99.3453C63.1188 96.3747 66.4389 94.074 70.2831 92.4431C74.1274 90.8122 78.3794 89.9967 83.0392 89.9967C87.3494 89.9967 91.1646 90.5792 94.4846 91.7441C97.8047 92.909 100.513 94.1613 102.61 95.501L97.63 107.471C96.1738 106.364 94.2225 105.228 91.7762 104.063C89.388 102.84 86.6213 102.229 83.476 102.229C80.2142 102.229 77.1562 103.131 74.3022 104.937C71.5063 106.743 69.2347 109.189 67.4873 112.276C65.7981 115.305 64.9536 118.771 64.9536 122.673C64.9536 126.809 65.7399 130.449 67.3126 133.594C68.8852 136.681 71.1277 139.099 74.0401 140.846C76.9524 142.593 80.3598 143.467 84.2623 143.467C87.6989 143.467 90.6404 142.914 93.0867 141.807C95.5331 140.7 97.397 139.536 98.6784 138.312L103.921 149.67Z" fill="#E8B912"/>
<path d="M67.8925 52.2257C67.6578 52.2257 67.4765 52.151 67.3485 52.0017C67.2205 51.8524 67.1778 51.6604 67.2205 51.4257L67.9885 47.8097H57.6525C57.4178 47.8097 57.2472 47.735 57.1405 47.5857C57.0338 47.4364 56.9912 47.2444 57.0125 47.0097L57.6525 43.9697C57.7165 43.735 57.7912 43.5537 57.8765 43.4257C57.9618 43.2764 58.0578 43.1484 58.1645 43.0417L70.2285 30.3697C70.5698 30.007 70.9965 29.8257 71.5085 29.8257H76.5645C76.7992 29.8257 76.9698 29.9004 77.0765 30.0497C77.2045 30.199 77.2472 30.391 77.2045 30.6257L74.5485 43.0417H77.3965C77.6525 43.0417 77.8338 43.127 77.9405 43.2977C78.0685 43.447 78.1112 43.6284 78.0685 43.8417L77.3645 47.0097C77.3432 47.2444 77.2258 47.4364 77.0125 47.5857C76.8205 47.735 76.6178 47.8097 76.4045 47.8097H73.5565L72.7885 51.4257C72.7458 51.6604 72.6285 51.8524 72.4365 52.0017C72.2658 52.151 72.0632 52.2257 71.8285 52.2257H67.8925ZM63.8285 43.2657H69.1085L70.6765 35.8737L63.8285 43.2657ZM81.5993 52.2257C81.4286 52.2257 81.2899 52.1617 81.1833 52.0337C81.0979 51.9057 81.0659 51.7457 81.0873 51.5537L84.3513 36.2257C84.3939 36.055 84.4899 35.9057 84.6393 35.7777C84.7886 35.6497 84.9486 35.5857 85.1193 35.5857H88.6073C88.9913 35.5857 89.2579 35.7777 89.4073 36.1617L93.1833 46.4337L90.8793 46.0177L98.2073 36.1617C98.5059 35.7777 98.8579 35.5857 99.2633 35.5857H103.071C103.263 35.5857 103.413 35.6497 103.519 35.7777C103.626 35.9057 103.658 36.055 103.615 36.2257L100.351 51.5537C100.33 51.7457 100.234 51.9057 100.063 52.0337C99.9139 52.1617 99.7433 52.2257 99.5513 52.2257H95.5833C95.3913 52.2257 95.2419 52.1617 95.1353 52.0337C95.0499 51.9057 95.0179 51.7457 95.0393 51.5537L97.2793 41.1217L98.7513 41.0577L92.8313 49.0257C92.6819 49.2177 92.5219 49.3884 92.3513 49.5377C92.1806 49.6657 91.9779 49.7297 91.7433 49.7297H90.7513C90.5166 49.7297 90.3353 49.6657 90.2073 49.5377C90.1006 49.4097 90.0046 49.239 89.9193 49.0257L87.2953 41.2817L88.5433 41.3457L86.3673 51.5537C86.3459 51.7457 86.2499 51.9057 86.0793 52.0337C85.9299 52.1617 85.7593 52.2257 85.5673 52.2257H81.5993Z" fill="black"/>
<path d="M37.7083 215.349C37.635 215.349 37.575 215.326 37.5283 215.279C37.4817 215.232 37.4583 215.172 37.4583 215.099V214.499C37.4583 214.446 37.4717 214.376 37.4983 214.289C37.5317 214.196 37.6017 214.106 37.7083 214.019L39.0283 212.709C39.515 212.336 39.9083 212.019 40.2083 211.759C40.515 211.499 40.7417 211.262 40.8883 211.049C41.035 210.836 41.1083 210.629 41.1083 210.429C41.1083 210.169 41.035 209.956 40.8883 209.789C40.7483 209.616 40.5183 209.529 40.1983 209.529C39.985 209.529 39.805 209.576 39.6583 209.669C39.5183 209.756 39.4083 209.872 39.3283 210.019C39.2483 210.166 39.195 210.326 39.1683 210.499C39.1483 210.586 39.105 210.646 39.0383 210.679C38.9783 210.712 38.915 210.729 38.8483 210.729H37.7883C37.7217 210.729 37.6683 210.709 37.6283 210.669C37.5883 210.622 37.5683 210.572 37.5683 210.519C37.575 210.212 37.6383 209.922 37.7583 209.649C37.885 209.376 38.0617 209.132 38.2883 208.919C38.515 208.706 38.7883 208.539 39.1083 208.419C39.4283 208.292 39.7917 208.229 40.1983 208.229C40.7583 208.229 41.2283 208.322 41.6083 208.509C41.9883 208.689 42.275 208.939 42.4683 209.259C42.6617 209.579 42.7583 209.949 42.7583 210.369C42.7583 210.689 42.6917 210.986 42.5583 211.259C42.4317 211.532 42.245 211.796 41.9983 212.049C41.7517 212.296 41.4583 212.552 41.1183 212.819L39.9383 213.999H42.6583C42.7317 213.999 42.7917 214.022 42.8383 214.069C42.885 214.116 42.9083 214.176 42.9083 214.249V215.099C42.9083 215.172 42.885 215.232 42.8383 215.279C42.7917 215.326 42.7317 215.349 42.6583 215.349H37.7083ZM47.2276 215.349C47.161 215.349 47.1043 215.326 47.0576 215.279C47.011 215.232 46.9876 215.172 46.9876 215.099V213.899H43.8376C43.771 213.899 43.7143 213.876 43.6676 213.829C43.621 213.782 43.5976 213.722 43.5976 213.649V212.839C43.5976 212.792 43.6076 212.742 43.6276 212.689C43.6476 212.636 43.6743 212.586 43.7076 212.539L46.6376 208.519C46.7243 208.406 46.8476 208.349 47.0076 208.349H48.2776C48.3443 208.349 48.401 208.372 48.4476 208.419C48.4943 208.466 48.5176 208.526 48.5176 208.599V212.569H49.4076C49.4876 212.569 49.5476 212.592 49.5876 212.639C49.6343 212.686 49.6576 212.742 49.6576 212.809V213.649C49.6576 213.722 49.6343 213.782 49.5876 213.829C49.541 213.876 49.4843 213.899 49.4176 213.899H48.5176V215.099C48.5176 215.172 48.4943 215.232 48.4476 215.279C48.401 215.326 48.3443 215.349 48.2776 215.349H47.2276ZM45.1476 212.619H47.0176V209.989L45.1476 212.619ZM53.2275 215.449C52.6409 215.449 52.1309 215.342 51.6975 215.129C51.2709 214.916 50.9375 214.622 50.6975 214.249C50.4642 213.869 50.3475 213.442 50.3475 212.969C50.3475 212.769 50.3775 212.569 50.4375 212.369C50.4975 212.169 50.5709 211.982 50.6575 211.809C50.7442 211.629 50.8309 211.469 50.9175 211.329C51.0109 211.189 51.0875 211.076 51.1475 210.989L52.9475 208.549C52.9809 208.516 53.0242 208.476 53.0775 208.429C53.1309 208.376 53.2042 208.349 53.2975 208.349H54.4175C54.4775 208.349 54.5275 208.372 54.5675 208.419C54.6075 208.459 54.6275 208.509 54.6275 208.569C54.6275 208.596 54.6242 208.622 54.6175 208.649C54.6109 208.669 54.6009 208.686 54.5875 208.699L53.2075 210.589C53.2609 210.576 53.3209 210.566 53.3875 210.559C53.4609 210.552 53.5242 210.549 53.5775 210.549C53.8975 210.562 54.2042 210.629 54.4975 210.749C54.7975 210.869 55.0642 211.036 55.2975 211.249C55.5309 211.456 55.7142 211.702 55.8475 211.989C55.9875 212.276 56.0575 212.596 56.0575 212.949C56.0575 213.396 55.9409 213.809 55.7075 214.189C55.4809 214.569 55.1542 214.876 54.7275 215.109C54.3075 215.336 53.8075 215.449 53.2275 215.449ZM53.2075 214.159C53.4275 214.159 53.6309 214.116 53.8175 214.029C54.0042 213.936 54.1542 213.799 54.2675 213.619C54.3809 213.439 54.4375 213.222 54.4375 212.969C54.4375 212.709 54.3809 212.492 54.2675 212.319C54.1542 212.139 54.0042 212.006 53.8175 211.919C53.6309 211.826 53.4275 211.779 53.2075 211.779C52.9875 211.779 52.7842 211.826 52.5975 211.919C52.4109 212.006 52.2609 212.139 52.1475 212.319C52.0342 212.492 51.9775 212.709 51.9775 212.969C51.9775 213.222 52.0342 213.439 52.1475 213.619C52.2675 213.799 52.4175 213.936 52.5975 214.029C52.7842 214.116 52.9875 214.159 53.2075 214.159ZM56.9145 216.099C56.8612 216.099 56.8145 216.076 56.7745 216.029C56.7412 215.989 56.7278 215.939 56.7345 215.879L57.0145 214.059C57.0278 213.972 57.0612 213.896 57.1145 213.829C57.1678 213.762 57.2478 213.729 57.3545 213.729H58.3945C58.4478 213.729 58.4912 213.749 58.5245 213.789C58.5645 213.822 58.5845 213.866 58.5845 213.919C58.5845 213.959 58.5778 213.999 58.5645 214.039L57.8645 215.829C57.8378 215.896 57.7978 215.956 57.7445 216.009C57.6978 216.069 57.6212 216.099 57.5145 216.099H56.9145ZM62.3214 215.449C61.8414 215.449 61.4281 215.382 61.0814 215.249C60.7414 215.109 60.4581 214.919 60.2314 214.679C60.0114 214.432 59.8448 214.149 59.7314 213.829C59.6248 213.502 59.5614 213.156 59.5414 212.789C59.5348 212.609 59.5281 212.409 59.5214 212.189C59.5214 211.962 59.5214 211.736 59.5214 211.509C59.5281 211.282 59.5348 211.076 59.5414 210.889C59.5548 210.522 59.6181 210.179 59.7314 209.859C59.8514 209.539 60.0248 209.259 60.2514 209.019C60.4781 208.779 60.7614 208.592 61.1014 208.459C61.4481 208.319 61.8548 208.249 62.3214 208.249C62.7881 208.249 63.1914 208.319 63.5314 208.459C63.8714 208.592 64.1548 208.779 64.3814 209.019C64.6081 209.259 64.7781 209.539 64.8914 209.859C65.0114 210.179 65.0814 210.522 65.1014 210.889C65.1081 211.076 65.1114 211.282 65.1114 211.509C65.1181 211.736 65.1181 211.962 65.1114 212.189C65.1114 212.409 65.1081 212.609 65.1014 212.789C65.0814 213.156 65.0148 213.502 64.9014 213.829C64.7881 214.149 64.6181 214.432 64.3914 214.679C64.1714 214.919 63.8881 215.109 63.5414 215.249C63.2014 215.382 62.7948 215.449 62.3214 215.449ZM62.3214 214.149C62.7081 214.149 62.9914 214.022 63.1714 213.769C63.3514 213.516 63.4481 213.172 63.4614 212.739C63.4681 212.546 63.4714 212.346 63.4714 212.139C63.4781 211.932 63.4781 211.726 63.4714 211.519C63.4714 211.312 63.4681 211.119 63.4614 210.939C63.4481 210.526 63.3514 210.189 63.1714 209.929C62.9914 209.669 62.7081 209.536 62.3214 209.529C61.9281 209.536 61.6414 209.669 61.4614 209.929C61.2881 210.189 61.1948 210.526 61.1814 210.939C61.1748 211.119 61.1681 211.312 61.1614 211.519C61.1614 211.726 61.1614 211.932 61.1614 212.139C61.1681 212.346 61.1748 212.546 61.1814 212.739C61.1948 213.172 61.2914 213.516 61.4714 213.769C61.6514 214.022 61.9348 214.149 62.3214 214.149ZM69.0011 215.449C68.5211 215.449 68.1078 215.382 67.7611 215.249C67.4211 215.109 67.1378 214.919 66.9111 214.679C66.6911 214.432 66.5245 214.149 66.4111 213.829C66.3045 213.502 66.2411 213.156 66.2211 212.789C66.2145 212.609 66.2078 212.409 66.2011 212.189C66.2011 211.962 66.2011 211.736 66.2011 211.509C66.2078 211.282 66.2145 211.076 66.2211 210.889C66.2345 210.522 66.2978 210.179 66.4111 209.859C66.5311 209.539 66.7045 209.259 66.9311 209.019C67.1578 208.779 67.4411 208.592 67.7811 208.459C68.1278 208.319 68.5345 208.249 69.0011 208.249C69.4678 208.249 69.8711 208.319 70.2111 208.459C70.5511 208.592 70.8345 208.779 71.0611 209.019C71.2878 209.259 71.4578 209.539 71.5711 209.859C71.6911 210.179 71.7611 210.522 71.7811 210.889C71.7878 211.076 71.7911 211.282 71.7911 211.509C71.7978 211.736 71.7978 211.962 71.7911 212.189C71.7911 212.409 71.7878 212.609 71.7811 212.789C71.7611 213.156 71.6945 213.502 71.5811 213.829C71.4678 214.149 71.2978 214.432 71.0711 214.679C70.8511 214.919 70.5678 215.109 70.2211 215.249C69.8811 215.382 69.4745 215.449 69.0011 215.449ZM69.0011 214.149C69.3878 214.149 69.6711 214.022 69.8511 213.769C70.0311 213.516 70.1278 213.172 70.1411 212.739C70.1478 212.546 70.1511 212.346 70.1511 212.139C70.1578 211.932 70.1578 211.726 70.1511 211.519C70.1511 211.312 70.1478 211.119 70.1411 210.939C70.1278 210.526 70.0311 210.189 69.8511 209.929C69.6711 209.669 69.3878 209.536 69.0011 209.529C68.6078 209.536 68.3211 209.669 68.1411 209.929C67.9678 210.189 67.8745 210.526 67.8611 210.939C67.8545 211.119 67.8478 211.312 67.8411 211.519C67.8411 211.726 67.8411 211.932 67.8411 212.139C67.8478 212.346 67.8545 212.546 67.8611 212.739C67.8745 213.172 67.9711 213.516 68.1511 213.769C68.3311 214.022 68.6145 214.149 69.0011 214.149ZM75.6808 215.449C75.2008 215.449 74.7875 215.382 74.4408 215.249C74.1008 215.109 73.8175 214.919 73.5908 214.679C73.3708 214.432 73.2042 214.149 73.0908 213.829C72.9842 213.502 72.9208 213.156 72.9008 212.789C72.8942 212.609 72.8875 212.409 72.8808 212.189C72.8808 211.962 72.8808 211.736 72.8808 211.509C72.8875 211.282 72.8942 211.076 72.9008 210.889C72.9142 210.522 72.9775 210.179 73.0908 209.859C73.2108 209.539 73.3842 209.259 73.6108 209.019C73.8375 208.779 74.1208 208.592 74.4608 208.459C74.8075 208.319 75.2142 208.249 75.6808 208.249C76.1475 208.249 76.5508 208.319 76.8908 208.459C77.2308 208.592 77.5142 208.779 77.7408 209.019C77.9675 209.259 78.1375 209.539 78.2508 209.859C78.3708 210.179 78.4408 210.522 78.4608 210.889C78.4675 211.076 78.4708 211.282 78.4708 211.509C78.4775 211.736 78.4775 211.962 78.4708 212.189C78.4708 212.409 78.4675 212.609 78.4608 212.789C78.4408 213.156 78.3742 213.502 78.2608 213.829C78.1475 214.149 77.9775 214.432 77.7508 214.679C77.5308 214.919 77.2475 215.109 76.9008 215.249C76.5608 215.382 76.1542 215.449 75.6808 215.449ZM75.6808 214.149C76.0675 214.149 76.3508 214.022 76.5308 213.769C76.7108 213.516 76.8075 213.172 76.8208 212.739C76.8275 212.546 76.8308 212.346 76.8308 212.139C76.8375 211.932 76.8375 211.726 76.8308 211.519C76.8308 211.312 76.8275 211.119 76.8208 210.939C76.8075 210.526 76.7108 210.189 76.5308 209.929C76.3508 209.669 76.0675 209.536 75.6808 209.529C75.2875 209.536 75.0008 209.669 74.8208 209.929C74.6475 210.189 74.5542 210.526 74.5408 210.939C74.5342 211.119 74.5275 211.312 74.5208 211.519C74.5208 211.726 74.5208 211.932 74.5208 212.139C74.5275 212.346 74.5342 212.546 74.5408 212.739C74.5542 213.172 74.6508 213.516 74.8308 213.769C75.0108 214.022 75.2942 214.149 75.6808 214.149ZM79.4926 216.099C79.4393 216.099 79.3926 216.076 79.3526 216.029C79.3193 215.989 79.306 215.939 79.3126 215.879L79.5926 214.059C79.606 213.972 79.6393 213.896 79.6926 213.829C79.746 213.762 79.826 213.729 79.9326 213.729H80.9726C81.026 213.729 81.0693 213.749 81.1026 213.789C81.1426 213.822 81.1626 213.866 81.1626 213.919C81.1626 213.959 81.156 213.999 81.1426 214.039L80.4426 215.829C80.416 215.896 80.376 215.956 80.3226 216.009C80.276 216.069 80.1993 216.099 80.0926 216.099H79.4926ZM83.7632 215.349C83.6965 215.349 83.6365 215.326 83.5832 215.279C83.5365 215.232 83.5132 215.172 83.5132 215.099V210.129L82.0732 211.239C82.0132 211.286 81.9498 211.302 81.8832 211.289C81.8232 211.276 81.7698 211.239 81.7232 211.179L81.2232 210.529C81.1832 210.469 81.1665 210.406 81.1732 210.339C81.1865 210.272 81.2232 210.219 81.2832 210.179L83.5632 208.419C83.6032 208.392 83.6398 208.376 83.6732 208.369C83.7132 208.356 83.7565 208.349 83.8032 208.349H84.8632C84.9298 208.349 84.9865 208.372 85.0332 208.419C85.0798 208.466 85.1032 208.526 85.1032 208.599V215.099C85.1032 215.172 85.0798 215.232 85.0332 215.279C84.9865 215.326 84.9298 215.349 84.8632 215.349H83.7632ZM89.1083 215.449C88.6417 215.449 88.2283 215.396 87.8683 215.289C87.515 215.176 87.2183 215.022 86.9783 214.829C86.7383 214.629 86.5583 214.399 86.4383 214.139C86.3183 213.872 86.2583 213.582 86.2583 213.269C86.2583 212.889 86.3517 212.559 86.5383 212.279C86.725 211.999 86.9617 211.782 87.2483 211.629C87.015 211.476 86.8317 211.282 86.6983 211.049C86.5717 210.809 86.5083 210.532 86.5083 210.219C86.5083 209.839 86.605 209.502 86.7983 209.209C86.9917 208.916 87.2783 208.682 87.6583 208.509C88.045 208.336 88.5283 208.249 89.1083 208.249C89.6817 208.249 90.1583 208.336 90.5383 208.509C90.9183 208.676 91.205 208.906 91.3983 209.199C91.5917 209.492 91.6883 209.829 91.6883 210.209C91.6883 210.522 91.625 210.799 91.4983 211.039C91.3717 211.279 91.1917 211.476 90.9583 211.629C91.265 211.776 91.5083 211.992 91.6883 212.279C91.8683 212.566 91.9583 212.899 91.9583 213.279C91.9583 213.692 91.8517 214.062 91.6383 214.389C91.425 214.716 91.105 214.976 90.6783 215.169C90.2517 215.356 89.7283 215.449 89.1083 215.449ZM89.1083 214.299C89.3417 214.299 89.555 214.259 89.7483 214.179C89.9417 214.092 90.0917 213.972 90.1983 213.819C90.3117 213.666 90.3683 213.486 90.3683 213.279C90.3683 213.066 90.3117 212.886 90.1983 212.739C90.0917 212.586 89.9417 212.469 89.7483 212.389C89.555 212.302 89.3417 212.259 89.1083 212.259C88.8683 212.259 88.6517 212.302 88.4583 212.389C88.2717 212.469 88.1217 212.586 88.0083 212.739C87.895 212.886 87.8383 213.066 87.8383 213.279C87.8383 213.486 87.895 213.666 88.0083 213.819C88.1217 213.972 88.2717 214.092 88.4583 214.179C88.6517 214.259 88.8683 214.299 89.1083 214.299ZM89.1083 211.169C89.315 211.162 89.5017 211.122 89.6683 211.049C89.835 210.976 89.9683 210.876 90.0683 210.749C90.1683 210.616 90.2183 210.462 90.2183 210.289C90.2183 210.109 90.1683 209.956 90.0683 209.829C89.975 209.696 89.845 209.592 89.6783 209.519C89.5117 209.446 89.3217 209.409 89.1083 209.409C88.895 209.409 88.7017 209.446 88.5283 209.519C88.3617 209.592 88.2317 209.696 88.1383 209.829C88.045 209.956 87.9983 210.109 87.9983 210.289C87.9983 210.469 88.045 210.626 88.1383 210.759C88.2317 210.886 88.3617 210.986 88.5283 211.059C88.7017 211.132 88.895 211.169 89.1083 211.169ZM95.7685 215.449C95.3018 215.449 94.8885 215.396 94.5285 215.289C94.1751 215.176 93.8785 215.022 93.6385 214.829C93.3985 214.629 93.2185 214.399 93.0985 214.139C92.9785 213.872 92.9185 213.582 92.9185 213.269C92.9185 212.889 93.0118 212.559 93.1985 212.279C93.3851 211.999 93.6218 211.782 93.9085 211.629C93.6751 211.476 93.4918 211.282 93.3585 211.049C93.2318 210.809 93.1685 210.532 93.1685 210.219C93.1685 209.839 93.2651 209.502 93.4585 209.209C93.6518 208.916 93.9385 208.682 94.3185 208.509C94.7051 208.336 95.1885 208.249 95.7685 208.249C96.3418 208.249 96.8185 208.336 97.1985 208.509C97.5785 208.676 97.8651 208.906 98.0585 209.199C98.2518 209.492 98.3485 209.829 98.3485 210.209C98.3485 210.522 98.2851 210.799 98.1585 211.039C98.0318 211.279 97.8518 211.476 97.6185 211.629C97.9251 211.776 98.1685 211.992 98.3485 212.279C98.5285 212.566 98.6185 212.899 98.6185 213.279C98.6185 213.692 98.5118 214.062 98.2985 214.389C98.0851 214.716 97.7651 214.976 97.3385 215.169C96.9118 215.356 96.3885 215.449 95.7685 215.449ZM95.7685 214.299C96.0018 214.299 96.2151 214.259 96.4085 214.179C96.6018 214.092 96.7518 213.972 96.8585 213.819C96.9718 213.666 97.0285 213.486 97.0285 213.279C97.0285 213.066 96.9718 212.886 96.8585 212.739C96.7518 212.586 96.6018 212.469 96.4085 212.389C96.2151 212.302 96.0018 212.259 95.7685 212.259C95.5285 212.259 95.3118 212.302 95.1185 212.389C94.9318 212.469 94.7818 212.586 94.6685 212.739C94.5551 212.886 94.4985 213.066 94.4985 213.279C94.4985 213.486 94.5551 213.666 94.6685 213.819C94.7818 213.972 94.9318 214.092 95.1185 214.179C95.3118 214.259 95.5285 214.299 95.7685 214.299ZM95.7685 211.169C95.9751 211.162 96.1618 211.122 96.3285 211.049C96.4951 210.976 96.6285 210.876 96.7285 210.749C96.8285 210.616 96.8785 210.462 96.8785 210.289C96.8785 210.109 96.8285 209.956 96.7285 209.829C96.6351 209.696 96.5051 209.592 96.3385 209.519C96.1718 209.446 95.9818 209.409 95.7685 209.409C95.5551 209.409 95.3618 209.446 95.1885 209.519C95.0218 209.592 94.8918 209.696 94.7985 209.829C94.7051 209.956 94.6585 210.109 94.6585 210.289C94.6585 210.469 94.7051 210.626 94.7985 210.759C94.8918 210.886 95.0218 210.986 95.1885 211.059C95.3618 211.132 95.5551 211.169 95.7685 211.169ZM102.296 215.349C102.229 215.349 102.169 215.326 102.116 215.279C102.069 215.232 102.046 215.172 102.046 215.099V208.599C102.046 208.526 102.069 208.466 102.116 208.419C102.169 208.372 102.229 208.349 102.296 208.349H103.226C103.326 208.349 103.399 208.376 103.446 208.429C103.499 208.482 103.536 208.522 103.556 208.549L105.396 211.939L107.256 208.549C107.269 208.522 107.299 208.482 107.346 208.429C107.399 208.376 107.476 208.349 107.576 208.349H108.506C108.579 208.349 108.639 208.372 108.686 208.419C108.732 208.466 108.756 208.526 108.756 208.599V215.099C108.756 215.172 108.732 215.232 108.686 215.279C108.639 215.326 108.579 215.349 108.506 215.349H107.486C107.419 215.349 107.362 215.326 107.316 215.279C107.269 215.232 107.246 215.172 107.246 215.099V211.059L105.976 213.439C105.942 213.499 105.899 213.552 105.846 213.599C105.792 213.646 105.722 213.669 105.636 213.669H105.166C105.079 213.669 105.009 213.646 104.956 213.599C104.902 213.552 104.859 213.499 104.826 213.439L103.556 211.059V215.099C103.556 215.172 103.532 215.232 103.486 215.279C103.439 215.326 103.382 215.349 103.316 215.349H102.296ZM110.489 215.349C110.416 215.349 110.356 215.326 110.309 215.279C110.262 215.232 110.239 215.172 110.239 215.099V208.599C110.239 208.526 110.262 208.466 110.309 208.419C110.356 208.372 110.416 208.349 110.489 208.349H111.579C111.652 208.349 111.712 208.372 111.759 208.419C111.806 208.466 111.829 208.526 111.829 208.599V211.099H112.569L114.119 208.539C114.152 208.486 114.199 208.442 114.259 208.409C114.319 208.369 114.396 208.349 114.489 208.349H115.699C115.766 208.349 115.816 208.372 115.849 208.419C115.889 208.459 115.909 208.506 115.909 208.559C115.909 208.599 115.896 208.639 115.869 208.679L113.999 211.719L116.059 215.009C116.072 215.036 116.079 215.072 116.079 215.119C116.079 215.186 116.056 215.242 116.009 215.289C115.969 215.329 115.919 215.349 115.859 215.349H114.609C114.509 215.349 114.436 215.329 114.389 215.289C114.342 215.242 114.306 215.202 114.279 215.169L112.629 212.519H111.829V215.099C111.829 215.172 111.806 215.232 111.759 215.279C111.712 215.326 111.652 215.349 111.579 215.349H110.489ZM116.865 216.749C116.798 216.749 116.741 216.726 116.695 216.679C116.648 216.632 116.625 216.572 116.625 216.499V214.179C116.625 214.106 116.648 214.046 116.695 213.999C116.741 213.952 116.798 213.929 116.865 213.929H117.055C117.215 213.929 117.351 213.852 117.465 213.699C117.578 213.546 117.668 213.329 117.735 213.049C117.801 212.762 117.851 212.419 117.885 212.019C117.918 211.612 117.935 211.159 117.935 210.659V208.599C117.935 208.526 117.958 208.466 118.005 208.419C118.051 208.372 118.108 208.349 118.175 208.349H122.675C122.748 208.349 122.808 208.372 122.855 208.419C122.901 208.466 122.925 208.526 122.925 208.599V213.929H123.395C123.468 213.929 123.528 213.952 123.575 213.999C123.621 214.046 123.645 214.106 123.645 214.179V216.499C123.645 216.566 123.621 216.622 123.575 216.669C123.528 216.722 123.468 216.749 123.395 216.749H122.305C122.231 216.749 122.171 216.722 122.125 216.669C122.078 216.622 122.055 216.566 122.055 216.499V215.349H118.215V216.499C118.215 216.566 118.188 216.622 118.135 216.669C118.088 216.722 118.028 216.749 117.955 216.749H116.865ZM118.965 213.929H121.335V209.769H119.475V210.859C119.475 211.626 119.431 212.259 119.345 212.759C119.258 213.259 119.131 213.649 118.965 213.929Z" fill="black"/>
</svg>
