<svg width="162" height="247" viewBox="0 0 162 247" fill="none" xmlns="http://www.w3.org/2000/svg">
<rect width="161" height="247" fill="#F15A29"/>
<rect x="10" y="10" width="141" height="227" rx="10" fill="#F7941D"/>
<path d="M80.3 176.6C109.737 176.6 133.6 152.737 133.6 123.3C133.6 93.8633 109.737 70 80.3 70C50.8632 70 27 93.8633 27 123.3C27 152.737 50.8632 176.6 80.3 176.6Z" fill="white"/>
<path d="M45.8196 111.228H79.8065V121.1H45.8196V111.228ZM45.9069 125.032H79.8065V134.905H45.9069V125.032ZM103.921 149.67C103.222 150.253 101.911 151.039 99.989 152.029C98.1251 153.02 95.8243 153.893 93.0867 154.651C90.3491 155.408 87.3203 155.757 84.0003 155.699C78.9328 155.582 74.3896 154.68 70.3705 152.99C66.4098 151.243 63.0315 148.884 60.2356 145.914C57.498 142.943 55.4011 139.536 53.945 135.691C52.4888 131.847 51.7607 127.741 51.7607 123.372C51.7607 118.479 52.4888 113.994 53.945 109.917C55.4594 105.84 57.5854 102.316 60.323 99.3453C63.1188 96.3747 66.4389 94.074 70.2832 92.4431C74.1275 90.8122 78.3795 89.9967 83.0392 89.9967C87.3494 89.9967 91.1646 90.5792 94.4847 91.7441C97.8047 92.909 100.513 94.1613 102.61 95.501L97.63 107.471C96.1738 106.364 94.2226 105.228 91.7762 104.063C89.3881 102.84 86.6214 102.229 83.476 102.229C80.2142 102.229 77.1563 103.131 74.3022 104.937C71.5064 106.743 69.2347 109.189 67.4873 112.276C65.7982 115.305 64.9536 118.771 64.9536 122.673C64.9536 126.809 65.7399 130.449 67.3126 133.594C68.8853 136.681 71.1277 139.099 74.0401 140.846C76.9524 142.593 80.3598 143.467 84.2624 143.467C87.6989 143.467 90.6404 142.914 93.0867 141.807C95.5331 140.7 97.397 139.536 98.6784 138.312L103.921 149.67Z" fill="#F15A29"/>
<path d="M66.8534 52.5777C64.912 52.5777 63.2907 52.2684 61.9894 51.6497C60.7094 51.031 59.7814 50.2204 59.2054 49.2177C58.6294 48.1937 58.4374 47.0844 58.6294 45.8897C58.672 45.6977 58.768 45.5377 58.9174 45.4097C59.0667 45.2817 59.2374 45.2177 59.4294 45.2177H63.6854C63.9627 45.2177 64.176 45.2817 64.3254 45.4097C64.496 45.5164 64.592 45.655 64.6134 45.8257C64.656 46.3164 64.7947 46.7217 65.0294 47.0417C65.264 47.3617 65.5734 47.5964 65.9574 47.7457C66.3414 47.895 66.7894 47.9697 67.3014 47.9697C67.92 47.9697 68.5067 47.8417 69.0614 47.5857C69.6374 47.3297 70.1387 46.9564 70.5654 46.4657C70.992 45.9537 71.28 45.3457 71.4294 44.6417C71.6214 43.6817 71.4934 42.9137 71.0454 42.3377C70.6187 41.7404 69.8827 41.4417 68.8374 41.4417C68.3254 41.4417 67.888 41.5057 67.5254 41.6337C67.184 41.7404 66.8854 41.879 66.6294 42.0497C66.3734 42.2204 66.1387 42.3697 65.9254 42.4977C65.712 42.6044 65.4987 42.6577 65.2854 42.6577H61.0934C60.88 42.6577 60.72 42.5724 60.6134 42.4017C60.528 42.231 60.5174 42.0497 60.5814 41.8577L64.1014 30.7857C64.208 30.4657 64.368 30.231 64.5814 30.0817C64.816 29.911 65.0614 29.8257 65.3174 29.8257H78.1814C78.416 29.8257 78.5974 29.9004 78.7254 30.0497C78.8534 30.199 78.896 30.391 78.8534 30.6257L78.1814 33.6337C78.1387 33.8684 78.0214 34.0604 77.8294 34.2097C77.6587 34.359 77.456 34.4337 77.2214 34.4337H67.9414L66.6294 38.5937C67.1627 38.2737 67.7494 38.0177 68.3894 37.8257C69.0507 37.6124 69.9254 37.5057 71.0134 37.5057C72.0374 37.5057 72.976 37.687 73.8294 38.0497C74.704 38.4124 75.44 38.935 76.0374 39.6177C76.6347 40.279 77.0507 41.0684 77.2854 41.9857C77.52 42.903 77.52 43.9164 77.2854 45.0257C76.9867 46.519 76.4 47.8417 75.5254 48.9937C74.672 50.1244 73.52 51.0097 72.0694 51.6497C70.64 52.2684 68.9014 52.5777 66.8534 52.5777ZM81.3024 52.2257C81.1317 52.2257 80.993 52.1617 80.8864 52.0337C80.801 51.9057 80.769 51.7457 80.7904 51.5537L84.0544 36.2257C84.097 36.055 84.193 35.9057 84.3424 35.7777C84.4917 35.6497 84.6517 35.5857 84.8224 35.5857H88.3104C88.6944 35.5857 88.961 35.7777 89.1104 36.1617L92.8864 46.4337L90.5824 46.0177L97.9104 36.1617C98.209 35.7777 98.561 35.5857 98.9664 35.5857H102.774C102.966 35.5857 103.116 35.6497 103.222 35.7777C103.329 35.9057 103.361 36.055 103.318 36.2257L100.054 51.5537C100.033 51.7457 99.937 51.9057 99.7664 52.0337C99.617 52.1617 99.4464 52.2257 99.2544 52.2257H95.2864C95.0944 52.2257 94.945 52.1617 94.8384 52.0337C94.753 51.9057 94.721 51.7457 94.7424 51.5537L96.9824 41.1217L98.4544 41.0577L92.5344 49.0257C92.385 49.2177 92.225 49.3884 92.0544 49.5377C91.8837 49.6657 91.681 49.7297 91.4464 49.7297H90.4544C90.2197 49.7297 90.0384 49.6657 89.9104 49.5377C89.8037 49.4097 89.7077 49.239 89.6224 49.0257L86.9984 41.2817L88.2464 41.3457L86.0704 51.5537C86.049 51.7457 85.953 51.9057 85.7824 52.0337C85.633 52.1617 85.4624 52.2257 85.2704 52.2257H81.3024Z" fill="black"/>
<path d="M40.64 215.449C40.1466 215.449 39.7233 215.389 39.37 215.269C39.0166 215.149 38.7266 214.996 38.5 214.809C38.2733 214.622 38.1033 214.419 37.99 214.199C37.8766 213.972 37.8166 213.756 37.81 213.549C37.81 213.489 37.83 213.439 37.87 213.399C37.91 213.359 37.96 213.339 38.02 213.339H39.12C39.1933 213.339 39.2533 213.356 39.3 213.389C39.3466 213.416 39.39 213.466 39.43 213.539C39.4833 213.692 39.57 213.816 39.69 213.909C39.81 214.002 39.95 214.069 40.11 214.109C40.2766 214.142 40.4533 214.159 40.64 214.159C41.0133 214.159 41.3066 214.072 41.52 213.899C41.7333 213.726 41.84 213.482 41.84 213.169C41.84 212.849 41.74 212.619 41.54 212.479C41.34 212.339 41.0566 212.269 40.69 212.269H39.62C39.5533 212.269 39.4966 212.246 39.45 212.199C39.4033 212.152 39.38 212.096 39.38 212.029V211.539C39.38 211.459 39.3933 211.392 39.42 211.339C39.4533 211.286 39.4866 211.246 39.52 211.219L41.24 209.639H38.42C38.3466 209.639 38.2866 209.616 38.24 209.569C38.1933 209.522 38.17 209.466 38.17 209.399V208.599C38.17 208.526 38.1933 208.466 38.24 208.419C38.2866 208.372 38.3466 208.349 38.42 208.349H42.86C42.9333 208.349 42.9933 208.372 43.04 208.419C43.0866 208.466 43.11 208.526 43.11 208.599V209.319C43.11 209.392 43.0966 209.456 43.07 209.509C43.0433 209.556 43.01 209.592 42.97 209.619L41.34 211.229L41.44 211.239C41.8333 211.279 42.1833 211.376 42.49 211.529C42.7966 211.682 43.0366 211.902 43.21 212.189C43.39 212.469 43.48 212.826 43.48 213.259C43.48 213.712 43.3566 214.102 43.11 214.429C42.8633 214.756 42.5266 215.009 42.1 215.189C41.6733 215.362 41.1866 215.449 40.64 215.449ZM47.2355 215.449C46.7555 215.449 46.3422 215.382 45.9955 215.249C45.6555 215.109 45.3722 214.919 45.1455 214.679C44.9255 214.432 44.7588 214.149 44.6455 213.829C44.5388 213.502 44.4755 213.156 44.4555 212.789C44.4488 212.609 44.4422 212.409 44.4355 212.189C44.4355 211.962 44.4355 211.736 44.4355 211.509C44.4422 211.282 44.4488 211.076 44.4555 210.889C44.4688 210.522 44.5322 210.179 44.6455 209.859C44.7655 209.539 44.9388 209.259 45.1655 209.019C45.3922 208.779 45.6755 208.592 46.0155 208.459C46.3622 208.319 46.7688 208.249 47.2355 208.249C47.7022 208.249 48.1055 208.319 48.4455 208.459C48.7855 208.592 49.0688 208.779 49.2955 209.019C49.5222 209.259 49.6922 209.539 49.8055 209.859C49.9255 210.179 49.9955 210.522 50.0155 210.889C50.0222 211.076 50.0255 211.282 50.0255 211.509C50.0322 211.736 50.0322 211.962 50.0255 212.189C50.0255 212.409 50.0222 212.609 50.0155 212.789C49.9955 213.156 49.9288 213.502 49.8155 213.829C49.7022 214.149 49.5322 214.432 49.3055 214.679C49.0855 214.919 48.8022 215.109 48.4555 215.249C48.1155 215.382 47.7088 215.449 47.2355 215.449ZM47.2355 214.149C47.6222 214.149 47.9055 214.022 48.0855 213.769C48.2655 213.516 48.3622 213.172 48.3755 212.739C48.3822 212.546 48.3855 212.346 48.3855 212.139C48.3922 211.932 48.3922 211.726 48.3855 211.519C48.3855 211.312 48.3822 211.119 48.3755 210.939C48.3622 210.526 48.2655 210.189 48.0855 209.929C47.9055 209.669 47.6222 209.536 47.2355 209.529C46.8422 209.536 46.5555 209.669 46.3755 209.929C46.2022 210.189 46.1088 210.526 46.0955 210.939C46.0888 211.119 46.0822 211.312 46.0755 211.519C46.0755 211.726 46.0755 211.932 46.0755 212.139C46.0822 212.346 46.0888 212.546 46.0955 212.739C46.1088 213.172 46.2055 213.516 46.3855 213.769C46.5655 214.022 46.8488 214.149 47.2355 214.149ZM52.0052 215.349C51.9452 215.349 51.8952 215.329 51.8552 215.289C51.8152 215.242 51.7952 215.189 51.7952 215.129C51.7952 215.102 51.8019 215.072 51.8152 215.039L54.1752 209.689H51.1052C51.0385 209.689 50.9785 209.666 50.9252 209.619C50.8785 209.572 50.8552 209.516 50.8552 209.449V208.599C50.8552 208.526 50.8785 208.466 50.9252 208.419C50.9785 208.372 51.0385 208.349 51.1052 208.349H55.6352C55.7152 208.349 55.7752 208.372 55.8152 208.419C55.8619 208.466 55.8852 208.526 55.8852 208.599V209.349C55.8852 209.449 55.8752 209.532 55.8552 209.599C55.8419 209.659 55.8185 209.722 55.7852 209.789L53.4352 215.109C53.4152 215.149 53.3785 215.199 53.3252 215.259C53.2785 215.319 53.2019 215.349 53.0952 215.349H52.0052ZM56.1157 216.099C56.0623 216.099 56.0157 216.076 55.9757 216.029C55.9423 215.989 55.929 215.939 55.9357 215.879L56.2157 214.059C56.229 213.972 56.2623 213.896 56.3157 213.829C56.369 213.762 56.449 213.729 56.5557 213.729H57.5957C57.649 213.729 57.6923 213.749 57.7257 213.789C57.7657 213.822 57.7857 213.866 57.7857 213.919C57.7857 213.959 57.779 213.999 57.7657 214.039L57.0657 215.829C57.039 215.896 56.999 215.956 56.9457 216.009C56.899 216.069 56.8223 216.099 56.7157 216.099H56.1157ZM61.4005 215.459C60.8005 215.459 60.2972 215.362 59.8905 215.169C59.4838 214.976 59.1738 214.722 58.9605 214.409C58.7538 214.096 58.6438 213.762 58.6305 213.409C58.6305 213.349 58.6505 213.299 58.6905 213.259C58.7305 213.219 58.7805 213.199 58.8405 213.199H59.9705C60.0505 213.199 60.1138 213.219 60.1605 213.259C60.2138 213.292 60.2538 213.339 60.2805 213.399C60.3472 213.579 60.4338 213.726 60.5405 213.839C60.6538 213.952 60.7838 214.036 60.9305 214.089C61.0772 214.142 61.2338 214.169 61.4005 214.169C61.6138 214.169 61.8105 214.126 61.9905 214.039C62.1705 213.946 62.3138 213.812 62.4205 213.639C62.5272 213.466 62.5805 213.252 62.5805 212.999C62.5805 212.779 62.5305 212.586 62.4305 212.419C62.3305 212.252 62.1905 212.122 62.0105 212.029C61.8305 211.936 61.6272 211.889 61.4005 211.889C61.2272 211.889 61.0838 211.909 60.9705 211.949C60.8638 211.989 60.7738 212.039 60.7005 212.099C60.6272 212.152 60.5605 212.202 60.5005 212.249C60.4405 212.289 60.3738 212.309 60.3005 212.309H59.1905C59.1305 212.309 59.0772 212.289 59.0305 212.249C58.9905 212.202 58.9705 212.149 58.9705 212.089L59.3205 208.639C59.3338 208.546 59.3672 208.476 59.4205 208.429C59.4805 208.376 59.5505 208.349 59.6305 208.349H63.5105C63.5838 208.349 63.6438 208.372 63.6905 208.419C63.7372 208.466 63.7605 208.526 63.7605 208.599V209.399C63.7605 209.466 63.7372 209.522 63.6905 209.569C63.6438 209.616 63.5838 209.639 63.5105 209.639H60.6205L60.4705 211.109C60.6038 211.022 60.7672 210.946 60.9605 210.879C61.1605 210.806 61.4372 210.769 61.7905 210.769C62.1105 210.769 62.4138 210.822 62.7005 210.929C62.9938 211.029 63.2538 211.179 63.4805 211.379C63.7072 211.579 63.8838 211.819 64.0105 212.099C64.1438 212.372 64.2105 212.686 64.2105 213.039C64.2105 213.519 64.0972 213.942 63.8705 214.309C63.6438 214.669 63.3205 214.952 62.9005 215.159C62.4805 215.359 61.9805 215.459 61.4005 215.459ZM67.9289 215.449C67.4489 215.449 67.0355 215.382 66.6889 215.249C66.3489 215.109 66.0655 214.919 65.8389 214.679C65.6189 214.432 65.4522 214.149 65.3389 213.829C65.2322 213.502 65.1689 213.156 65.1489 212.789C65.1422 212.609 65.1355 212.409 65.1289 212.189C65.1289 211.962 65.1289 211.736 65.1289 211.509C65.1355 211.282 65.1422 211.076 65.1489 210.889C65.1622 210.522 65.2255 210.179 65.3389 209.859C65.4589 209.539 65.6322 209.259 65.8589 209.019C66.0855 208.779 66.3689 208.592 66.7089 208.459C67.0555 208.319 67.4622 208.249 67.9289 208.249C68.3955 208.249 68.7989 208.319 69.1389 208.459C69.4789 208.592 69.7622 208.779 69.9889 209.019C70.2155 209.259 70.3855 209.539 70.4989 209.859C70.6189 210.179 70.6889 210.522 70.7089 210.889C70.7155 211.076 70.7189 211.282 70.7189 211.509C70.7255 211.736 70.7255 211.962 70.7189 212.189C70.7189 212.409 70.7155 212.609 70.7089 212.789C70.6889 213.156 70.6222 213.502 70.5089 213.829C70.3955 214.149 70.2255 214.432 69.9989 214.679C69.7789 214.919 69.4955 215.109 69.1489 215.249C68.8089 215.382 68.4022 215.449 67.9289 215.449ZM67.9289 214.149C68.3155 214.149 68.5989 214.022 68.7789 213.769C68.9589 213.516 69.0555 213.172 69.0689 212.739C69.0755 212.546 69.0789 212.346 69.0789 212.139C69.0855 211.932 69.0855 211.726 69.0789 211.519C69.0789 211.312 69.0755 211.119 69.0689 210.939C69.0555 210.526 68.9589 210.189 68.7789 209.929C68.5989 209.669 68.3155 209.536 67.9289 209.529C67.5355 209.536 67.2489 209.669 67.0689 209.929C66.8955 210.189 66.8022 210.526 66.7889 210.939C66.7822 211.119 66.7755 211.312 66.7689 211.519C66.7689 211.726 66.7689 211.932 66.7689 212.139C66.7755 212.346 66.7822 212.546 66.7889 212.739C66.8022 213.172 66.8989 213.516 67.0789 213.769C67.2589 214.022 67.5422 214.149 67.9289 214.149ZM74.6086 215.449C74.1286 215.449 73.7152 215.382 73.3686 215.249C73.0286 215.109 72.7452 214.919 72.5186 214.679C72.2986 214.432 72.1319 214.149 72.0186 213.829C71.9119 213.502 71.8486 213.156 71.8286 212.789C71.8219 212.609 71.8152 212.409 71.8086 212.189C71.8086 211.962 71.8086 211.736 71.8086 211.509C71.8152 211.282 71.8219 211.076 71.8286 210.889C71.8419 210.522 71.9052 210.179 72.0186 209.859C72.1386 209.539 72.3119 209.259 72.5386 209.019C72.7652 208.779 73.0486 208.592 73.3886 208.459C73.7352 208.319 74.1419 208.249 74.6086 208.249C75.0752 208.249 75.4786 208.319 75.8186 208.459C76.1586 208.592 76.4419 208.779 76.6686 209.019C76.8952 209.259 77.0652 209.539 77.1786 209.859C77.2986 210.179 77.3686 210.522 77.3886 210.889C77.3952 211.076 77.3986 211.282 77.3986 211.509C77.4052 211.736 77.4052 211.962 77.3986 212.189C77.3986 212.409 77.3952 212.609 77.3886 212.789C77.3686 213.156 77.3019 213.502 77.1886 213.829C77.0752 214.149 76.9052 214.432 76.6786 214.679C76.4586 214.919 76.1752 215.109 75.8286 215.249C75.4886 215.382 75.0819 215.449 74.6086 215.449ZM74.6086 214.149C74.9952 214.149 75.2786 214.022 75.4586 213.769C75.6386 213.516 75.7352 213.172 75.7486 212.739C75.7552 212.546 75.7586 212.346 75.7586 212.139C75.7652 211.932 75.7652 211.726 75.7586 211.519C75.7586 211.312 75.7552 211.119 75.7486 210.939C75.7352 210.526 75.6386 210.189 75.4586 209.929C75.2786 209.669 74.9952 209.536 74.6086 209.529C74.2152 209.536 73.9286 209.669 73.7486 209.929C73.5752 210.189 73.4819 210.526 73.4686 210.939C73.4619 211.119 73.4552 211.312 73.4486 211.519C73.4486 211.726 73.4486 211.932 73.4486 212.139C73.4552 212.346 73.4619 212.546 73.4686 212.739C73.4819 213.172 73.5786 213.516 73.7586 213.769C73.9386 214.022 74.2219 214.149 74.6086 214.149ZM78.4204 216.099C78.367 216.099 78.3204 216.076 78.2804 216.029C78.247 215.989 78.2337 215.939 78.2404 215.879L78.5204 214.059C78.5337 213.972 78.567 213.896 78.6204 213.829C78.6737 213.762 78.7537 213.729 78.8604 213.729H79.9004C79.9537 213.729 79.997 213.749 80.0304 213.789C80.0704 213.822 80.0904 213.866 80.0904 213.919C80.0904 213.959 80.0837 213.999 80.0704 214.039L79.3704 215.829C79.3437 215.896 79.3037 215.956 79.2504 216.009C79.2037 216.069 79.127 216.099 79.0204 216.099H78.4204ZM81.2552 215.349C81.1819 215.349 81.1219 215.326 81.0752 215.279C81.0285 215.232 81.0052 215.172 81.0052 215.099V214.499C81.0052 214.446 81.0185 214.376 81.0452 214.289C81.0785 214.196 81.1485 214.106 81.2552 214.019L82.5752 212.709C83.0619 212.336 83.4552 212.019 83.7552 211.759C84.0619 211.499 84.2885 211.262 84.4352 211.049C84.5819 210.836 84.6552 210.629 84.6552 210.429C84.6552 210.169 84.5819 209.956 84.4352 209.789C84.2952 209.616 84.0652 209.529 83.7452 209.529C83.5319 209.529 83.3519 209.576 83.2052 209.669C83.0652 209.756 82.9552 209.872 82.8752 210.019C82.7952 210.166 82.7419 210.326 82.7152 210.499C82.6952 210.586 82.6519 210.646 82.5852 210.679C82.5252 210.712 82.4619 210.729 82.3952 210.729H81.3352C81.2685 210.729 81.2152 210.709 81.1752 210.669C81.1352 210.622 81.1152 210.572 81.1152 210.519C81.1219 210.212 81.1852 209.922 81.3052 209.649C81.4319 209.376 81.6085 209.132 81.8352 208.919C82.0619 208.706 82.3352 208.539 82.6552 208.419C82.9752 208.292 83.3385 208.229 83.7452 208.229C84.3052 208.229 84.7752 208.322 85.1552 208.509C85.5352 208.689 85.8219 208.939 86.0152 209.259C86.2085 209.579 86.3052 209.949 86.3052 210.369C86.3052 210.689 86.2385 210.986 86.1052 211.259C85.9785 211.532 85.7919 211.796 85.5452 212.049C85.2985 212.296 85.0052 212.552 84.6652 212.819L83.4852 213.999H86.2052C86.2785 213.999 86.3385 214.022 86.3852 214.069C86.4319 214.116 86.4552 214.176 86.4552 214.249V215.099C86.4552 215.172 86.4319 215.232 86.3852 215.279C86.3385 215.326 86.2785 215.349 86.2052 215.349H81.2552ZM90.0931 215.449C89.5998 215.449 89.1764 215.389 88.8231 215.269C88.4698 215.149 88.1798 214.996 87.9531 214.809C87.7264 214.622 87.5564 214.419 87.4431 214.199C87.3298 213.972 87.2698 213.756 87.2631 213.549C87.2631 213.489 87.2831 213.439 87.3231 213.399C87.3631 213.359 87.4131 213.339 87.4731 213.339H88.5731C88.6464 213.339 88.7064 213.356 88.7531 213.389C88.7998 213.416 88.8431 213.466 88.8831 213.539C88.9364 213.692 89.0231 213.816 89.1431 213.909C89.2631 214.002 89.4031 214.069 89.5631 214.109C89.7298 214.142 89.9064 214.159 90.0931 214.159C90.4664 214.159 90.7598 214.072 90.9731 213.899C91.1864 213.726 91.2931 213.482 91.2931 213.169C91.2931 212.849 91.1931 212.619 90.9931 212.479C90.7931 212.339 90.5098 212.269 90.1431 212.269H89.0731C89.0064 212.269 88.9498 212.246 88.9031 212.199C88.8564 212.152 88.8331 212.096 88.8331 212.029V211.539C88.8331 211.459 88.8464 211.392 88.8731 211.339C88.9064 211.286 88.9398 211.246 88.9731 211.219L90.6931 209.639H87.8731C87.7998 209.639 87.7398 209.616 87.6931 209.569C87.6464 209.522 87.6231 209.466 87.6231 209.399V208.599C87.6231 208.526 87.6464 208.466 87.6931 208.419C87.7398 208.372 87.7998 208.349 87.8731 208.349H92.3131C92.3864 208.349 92.4464 208.372 92.4931 208.419C92.5398 208.466 92.5631 208.526 92.5631 208.599V209.319C92.5631 209.392 92.5498 209.456 92.5231 209.509C92.4964 209.556 92.4631 209.592 92.4231 209.619L90.7931 211.229L90.8931 211.239C91.2864 211.279 91.6364 211.376 91.9431 211.529C92.2498 211.682 92.4898 211.902 92.6631 212.189C92.8431 212.469 92.9331 212.826 92.9331 213.259C92.9331 213.712 92.8098 214.102 92.5631 214.429C92.3164 214.756 91.9798 215.009 91.5531 215.189C91.1264 215.362 90.6398 215.449 90.0931 215.449ZM96.4786 215.459C95.8786 215.459 95.3753 215.362 94.9686 215.169C94.562 214.976 94.252 214.722 94.0386 214.409C93.832 214.096 93.722 213.762 93.7086 213.409C93.7086 213.349 93.7286 213.299 93.7686 213.259C93.8086 213.219 93.8586 213.199 93.9186 213.199H95.0486C95.1286 213.199 95.192 213.219 95.2386 213.259C95.292 213.292 95.332 213.339 95.3586 213.399C95.4253 213.579 95.512 213.726 95.6186 213.839C95.732 213.952 95.862 214.036 96.0086 214.089C96.1553 214.142 96.312 214.169 96.4786 214.169C96.692 214.169 96.8886 214.126 97.0686 214.039C97.2486 213.946 97.392 213.812 97.4986 213.639C97.6053 213.466 97.6586 213.252 97.6586 212.999C97.6586 212.779 97.6086 212.586 97.5086 212.419C97.4086 212.252 97.2686 212.122 97.0886 212.029C96.9086 211.936 96.7053 211.889 96.4786 211.889C96.3053 211.889 96.162 211.909 96.0486 211.949C95.942 211.989 95.852 212.039 95.7786 212.099C95.7053 212.152 95.6386 212.202 95.5786 212.249C95.5186 212.289 95.452 212.309 95.3786 212.309H94.2686C94.2086 212.309 94.1553 212.289 94.1086 212.249C94.0686 212.202 94.0486 212.149 94.0486 212.089L94.3986 208.639C94.412 208.546 94.4453 208.476 94.4986 208.429C94.5586 208.376 94.6286 208.349 94.7086 208.349H98.5886C98.662 208.349 98.722 208.372 98.7686 208.419C98.8153 208.466 98.8386 208.526 98.8386 208.599V209.399C98.8386 209.466 98.8153 209.522 98.7686 209.569C98.722 209.616 98.662 209.639 98.5886 209.639H95.6986L95.5486 211.109C95.682 211.022 95.8453 210.946 96.0386 210.879C96.2386 210.806 96.5153 210.769 96.8686 210.769C97.1886 210.769 97.492 210.822 97.7786 210.929C98.072 211.029 98.332 211.179 98.5586 211.379C98.7853 211.579 98.962 211.819 99.0886 212.099C99.222 212.372 99.2886 212.686 99.2886 213.039C99.2886 213.519 99.1753 213.942 98.9486 214.309C98.722 214.669 98.3986 214.952 97.9786 215.159C97.5586 215.359 97.0586 215.459 96.4786 215.459ZM102.864 215.349C102.797 215.349 102.737 215.326 102.684 215.279C102.637 215.232 102.614 215.172 102.614 215.099V208.599C102.614 208.526 102.637 208.466 102.684 208.419C102.737 208.372 102.797 208.349 102.864 208.349H103.794C103.894 208.349 103.967 208.376 104.014 208.429C104.067 208.482 104.104 208.522 104.124 208.549L105.964 211.939L107.824 208.549C107.837 208.522 107.867 208.482 107.914 208.429C107.967 208.376 108.044 208.349 108.144 208.349H109.074C109.147 208.349 109.207 208.372 109.254 208.419C109.301 208.466 109.324 208.526 109.324 208.599V215.099C109.324 215.172 109.301 215.232 109.254 215.279C109.207 215.326 109.147 215.349 109.074 215.349H108.054C107.987 215.349 107.931 215.326 107.884 215.279C107.837 215.232 107.814 215.172 107.814 215.099V211.059L106.544 213.439C106.511 213.499 106.467 213.552 106.414 213.599C106.361 213.646 106.291 213.669 106.204 213.669H105.734C105.647 213.669 105.577 213.646 105.524 213.599C105.471 213.552 105.427 213.499 105.394 213.439L104.124 211.059V215.099C104.124 215.172 104.101 215.232 104.054 215.279C104.007 215.326 103.951 215.349 103.884 215.349H102.864ZM111.057 215.349C110.984 215.349 110.924 215.326 110.877 215.279C110.831 215.232 110.807 215.172 110.807 215.099V208.599C110.807 208.526 110.831 208.466 110.877 208.419C110.924 208.372 110.984 208.349 111.057 208.349H112.147C112.221 208.349 112.281 208.372 112.327 208.419C112.374 208.466 112.397 208.526 112.397 208.599V211.099H113.137L114.687 208.539C114.721 208.486 114.767 208.442 114.827 208.409C114.887 208.369 114.964 208.349 115.057 208.349H116.267C116.334 208.349 116.384 208.372 116.417 208.419C116.457 208.459 116.477 208.506 116.477 208.559C116.477 208.599 116.464 208.639 116.437 208.679L114.567 211.719L116.627 215.009C116.641 215.036 116.647 215.072 116.647 215.119C116.647 215.186 116.624 215.242 116.577 215.289C116.537 215.329 116.487 215.349 116.427 215.349H115.177C115.077 215.349 115.004 215.329 114.957 215.289C114.911 215.242 114.874 215.202 114.847 215.169L113.197 212.519H112.397V215.099C112.397 215.172 112.374 215.232 112.327 215.279C112.281 215.326 112.221 215.349 112.147 215.349H111.057ZM117.433 216.749C117.366 216.749 117.31 216.726 117.263 216.679C117.216 216.632 117.193 216.572 117.193 216.499V214.179C117.193 214.106 117.216 214.046 117.263 213.999C117.31 213.952 117.366 213.929 117.433 213.929H117.623C117.783 213.929 117.92 213.852 118.033 213.699C118.146 213.546 118.236 213.329 118.303 213.049C118.37 212.762 118.42 212.419 118.453 212.019C118.486 211.612 118.503 211.159 118.503 210.659V208.599C118.503 208.526 118.526 208.466 118.573 208.419C118.62 208.372 118.676 208.349 118.743 208.349H123.243C123.316 208.349 123.376 208.372 123.423 208.419C123.47 208.466 123.493 208.526 123.493 208.599V213.929H123.963C124.036 213.929 124.096 213.952 124.143 213.999C124.19 214.046 124.213 214.106 124.213 214.179V216.499C124.213 216.566 124.19 216.622 124.143 216.669C124.096 216.722 124.036 216.749 123.963 216.749H122.873C122.8 216.749 122.74 216.722 122.693 216.669C122.646 216.622 122.623 216.566 122.623 216.499V215.349H118.783V216.499C118.783 216.566 118.756 216.622 118.703 216.669C118.656 216.722 118.596 216.749 118.523 216.749H117.433ZM119.533 213.929H121.903V209.769H120.043V210.859C120.043 211.626 120 212.259 119.913 212.759C119.826 213.259 119.7 213.649 119.533 213.929Z" fill="black"/>
</svg>
