<svg width="161" height="247" viewBox="0 0 161 247" fill="none" xmlns="http://www.w3.org/2000/svg">
<rect width="161" height="247" fill="#3F3F7E"/>
<rect x="10" y="10" width="141" height="227" rx="10" fill="#6D6DC0"/>
<path d="M145.2 237H16.5C12.9 237 10 234.1 10 230.5V167.9C10 164.3 12.9 161.4 16.5 161.4H145.2C148.8 161.4 151.7 164.3 151.7 167.9V230.5C151.7 234.1 148.8 237 145.2 237Z" fill="white"/>
<path d="M40.4726 31.373C40.3966 31.373 40.3333 31.3477 40.2826 31.297C40.2319 31.2463 40.2066 31.183 40.2066 31.107V25.0378C40.2066 24.9702 40.2319 24.9111 40.2826 24.8604C40.3333 24.8097 40.3924 24.7843 40.46 24.7843H41.7017C41.8537 24.7843 41.972 24.8604 42.0565 25.0124L43.9064 28.3194L45.7436 25.0124C45.8281 24.8604 45.9463 24.7843 46.0984 24.7843H47.3528C47.4203 24.7843 47.4795 24.8097 47.5302 24.8604C47.5808 24.9111 47.6062 24.9702 47.6062 25.0378V31.107C47.6062 31.183 47.5808 31.2463 47.5302 31.297C47.4795 31.3477 47.4161 31.373 47.3401 31.373H46.0097C45.9252 31.373 45.8576 31.3477 45.807 31.297C45.7647 31.2463 45.7436 31.183 45.7436 31.107V26.7356L46.3138 26.8497L44.5146 30.0806C44.4723 30.1567 44.4216 30.2242 44.3625 30.2834C44.3118 30.3425 44.2358 30.3721 44.1344 30.3721H43.6656C43.5727 30.3721 43.4967 30.3467 43.4376 30.296C43.3784 30.2369 43.3235 30.1651 43.2728 30.0806L41.5243 26.9637L42.0565 26.8497V31.107C42.0565 31.183 42.0311 31.2463 41.9804 31.297C41.9298 31.3477 41.8664 31.373 41.7904 31.373H40.4726Z" fill="white"/>
<path d="M32.5048 39C32.3599 39 32.2367 38.9493 32.1353 38.8479C32.0339 38.7464 31.9832 38.616 31.9832 38.4567V35.8487H25.1371C24.9923 35.8487 24.8691 35.7979 24.7677 35.6965C24.6663 35.5951 24.6155 35.4647 24.6155 35.3053V33.5449C24.6155 33.4435 24.6373 33.3348 24.6807 33.2189C24.7242 33.103 24.7822 32.9943 24.8546 32.8929L31.2225 24.1561C31.4109 23.9098 31.6789 23.7866 32.0266 23.7866H34.7868C34.9317 23.7866 35.0548 23.8373 35.1562 23.9388C35.2577 24.0402 35.3084 24.1706 35.3084 24.33V32.9581H37.2426C37.4165 32.9581 37.5469 33.0088 37.6338 33.1102C37.7353 33.2117 37.786 33.3348 37.786 33.4797V35.3053C37.786 35.4647 37.7353 35.5951 37.6338 35.6965C37.5324 35.7979 37.4093 35.8487 37.2644 35.8487H35.3084V38.4567C35.3084 38.616 35.2577 38.7464 35.1562 38.8479C35.0548 38.9493 34.9317 39 34.7868 39H32.5048ZM27.9842 33.0668H32.0484V27.3509L27.9842 33.0668Z" fill="white"/>
<path d="M65.1888 35.08C64.9008 35.08 64.6421 35.0267 64.4128 34.92C64.1888 34.808 64.0101 34.6587 63.8768 34.472C63.7434 34.2853 63.6768 34.0747 63.6768 33.84C63.6768 33.4613 63.8314 33.1627 64.1408 32.944C64.4501 32.72 64.8608 32.568 65.3728 32.488L66.3728 32.336V32.224C66.3728 32.032 66.3328 31.8853 66.2528 31.784C66.1728 31.6827 66.0261 31.632 65.8128 31.632C65.6634 31.632 65.5408 31.6613 65.4448 31.72C65.3541 31.7787 65.2821 31.8587 65.2288 31.96C65.1808 32.0293 65.1141 32.064 65.0288 32.064H64.1328C64.0741 32.064 64.0288 32.048 63.9967 32.016C63.9648 31.9787 63.9514 31.936 63.9568 31.888C63.9568 31.792 63.9914 31.6827 64.0608 31.56C64.1354 31.432 64.2474 31.3067 64.3968 31.184C64.5461 31.0613 64.7381 30.96 64.9728 30.88C65.2074 30.8 65.4901 30.76 65.8207 30.76C66.1674 30.76 66.4634 30.8 66.7088 30.88C66.9541 30.96 67.1514 31.072 67.3008 31.216C67.4554 31.36 67.5701 31.5307 67.6448 31.728C67.7194 31.92 67.7568 32.1333 67.7568 32.368V34.8C67.7568 34.8587 67.7354 34.9067 67.6927 34.944C67.6554 34.9813 67.6101 35 67.5568 35H66.6288C66.5701 35 66.5221 34.9813 66.4848 34.944C66.4474 34.9067 66.4288 34.8587 66.4288 34.8V34.52C66.3594 34.6213 66.2661 34.7147 66.1488 34.8C66.0314 34.8853 65.8928 34.952 65.7328 35C65.5781 35.0533 65.3968 35.08 65.1888 35.08ZM65.5648 34.168C65.7194 34.168 65.8581 34.136 65.9808 34.072C66.1088 34.0027 66.2074 33.8987 66.2768 33.76C66.3514 33.616 66.3888 33.4373 66.3888 33.224V33.112L65.7088 33.232C65.4581 33.2747 65.2741 33.3413 65.1568 33.432C65.0448 33.5173 64.9888 33.6187 64.9888 33.736C64.9888 33.8267 65.0154 33.904 65.0688 33.968C65.1221 34.032 65.1914 34.0827 65.2768 34.12C65.3621 34.152 65.4581 34.168 65.5648 34.168ZM70.4595 35C70.4008 35 70.3528 34.9813 70.3155 34.944C70.2782 34.9067 70.2595 34.8587 70.2595 34.8V31.04C70.2595 30.9813 70.2782 30.9333 70.3155 30.896C70.3528 30.8587 70.4008 30.84 70.4595 30.84H71.3795C71.4382 30.84 71.4862 30.8587 71.5235 30.896C71.5608 30.9333 71.5795 30.9813 71.5795 31.04V32.368H72.0115L72.8835 30.968C72.8995 30.9413 72.9262 30.9147 72.9635 30.888C73.0008 30.856 73.0488 30.84 73.1075 30.84H74.1315C74.1795 30.84 74.2195 30.856 74.2515 30.888C74.2888 30.9147 74.3075 30.952 74.3075 31C74.3075 31.016 74.3022 31.0347 74.2915 31.056C74.2862 31.0773 74.2782 31.096 74.2675 31.112L73.1715 32.856L74.4515 34.736C74.4728 34.768 74.4835 34.8027 74.4835 34.84C74.4835 34.888 74.4675 34.928 74.4355 34.96C74.4035 34.9867 74.3608 35 74.3075 35H73.1795C73.1208 35 73.0728 34.9893 73.0355 34.968C73.0035 34.9413 72.9742 34.9093 72.9475 34.872L71.9955 33.416H71.5795V34.8C71.5795 34.8587 71.5608 34.9067 71.5235 34.944C71.4862 34.9813 71.4382 35 71.3795 35H70.4595ZM80.1751 35.944C80.1164 35.944 80.0684 35.9227 80.0311 35.88C79.9937 35.8427 79.9751 35.7947 79.9751 35.736V35H76.9111C76.8524 35 76.8044 34.9813 76.7671 34.944C76.7297 34.9067 76.7111 34.8587 76.7111 34.8V31.04C76.7111 30.9813 76.7297 30.9333 76.7671 30.896C76.8044 30.8587 76.8524 30.84 76.9111 30.84H77.8551C77.9084 30.84 77.9537 30.8587 77.9911 30.896C78.0337 30.9333 78.0551 30.9813 78.0551 31.04V33.952H79.4311V31.04C79.4311 30.9813 79.4497 30.9333 79.4871 30.896C79.5297 30.8587 79.5777 30.84 79.6311 30.84H80.5751C80.6337 30.84 80.6817 30.8587 80.7191 30.896C80.7564 30.9333 80.7751 30.9813 80.7751 31.04V33.952H81.1191C81.1777 33.952 81.2257 33.9707 81.2631 34.008C81.3004 34.0453 81.3191 34.0933 81.3191 34.152V35.736C81.3191 35.7947 81.3004 35.8427 81.2631 35.88C81.2257 35.9227 81.1777 35.944 81.1191 35.944H80.1751ZM83.7531 35C83.6997 35 83.6544 34.9813 83.6171 34.944C83.5797 34.9067 83.5611 34.8613 83.5611 34.808V31.04C83.5611 30.9813 83.5797 30.9333 83.6171 30.896C83.6544 30.8587 83.7024 30.84 83.7611 30.84H84.7051C84.7584 30.84 84.8037 30.8587 84.8411 30.896C84.8837 30.9333 84.9051 30.9813 84.9051 31.04V33.96L84.5451 33.784L86.5211 30.968C86.5477 30.9307 86.5797 30.9013 86.6171 30.88C86.6544 30.8533 86.6971 30.84 86.7451 30.84H87.6011C87.6544 30.84 87.6997 30.8587 87.7371 30.896C87.7744 30.9333 87.7931 30.9787 87.7931 31.032V34.8C87.7931 34.8587 87.7744 34.9067 87.7371 34.944C87.6997 34.9813 87.6517 35 87.5931 35H86.6491C86.5904 35 86.5424 34.9813 86.5051 34.944C86.4677 34.9067 86.4491 34.8587 86.4491 34.8V31.968L86.8171 32.04L84.8251 34.872C84.8037 34.9093 84.7744 34.9413 84.7371 34.968C84.6997 34.9893 84.6544 35 84.6011 35H83.7531ZM89.5666 36.52C89.508 36.52 89.46 36.5013 89.4226 36.464C89.3853 36.4267 89.3666 36.3787 89.3666 36.32V35.672C89.3666 35.6133 89.3853 35.5653 89.4226 35.528C89.46 35.4907 89.508 35.472 89.5666 35.472H89.8626C89.996 35.472 90.0973 35.4453 90.1666 35.392C90.236 35.344 90.284 35.2747 90.3106 35.184C90.3373 35.0987 90.3506 35 90.3506 34.888V31.04C90.3506 30.9813 90.3693 30.9333 90.4066 30.896C90.4493 30.8587 90.4973 30.84 90.5506 30.84H91.5426C91.6013 30.84 91.6493 30.8587 91.6866 30.896C91.724 30.9333 91.7426 30.9813 91.7426 31.04V34.92C91.7426 35.2667 91.6733 35.5573 91.5346 35.792C91.4013 36.032 91.2066 36.2133 90.9506 36.336C90.6946 36.4587 90.3826 36.52 90.0146 36.52H89.5666ZM90.5426 30.24C90.4893 30.24 90.4413 30.2213 90.3986 30.184C90.3613 30.1467 90.3426 30.0987 90.3426 30.04V29.328C90.3426 29.2693 90.3613 29.2213 90.3986 29.184C90.4413 29.1413 90.4893 29.12 90.5426 29.12H91.5506C91.604 29.12 91.6493 29.1413 91.6866 29.184C91.7293 29.2213 91.7506 29.2693 91.7506 29.328V30.04C91.7506 30.0987 91.7293 30.1467 91.6866 30.184C91.6493 30.2213 91.604 30.24 91.5506 30.24H90.5426ZM95.5325 35.08C95.2445 35.08 94.9858 35.0267 94.7565 34.92C94.5325 34.808 94.3538 34.6587 94.2205 34.472C94.0872 34.2853 94.0205 34.0747 94.0205 33.84C94.0205 33.4613 94.1752 33.1627 94.4845 32.944C94.7938 32.72 95.2045 32.568 95.7165 32.488L96.7165 32.336V32.224C96.7165 32.032 96.6765 31.8853 96.5965 31.784C96.5165 31.6827 96.3698 31.632 96.1565 31.632C96.0072 31.632 95.8845 31.6613 95.7885 31.72C95.6978 31.7787 95.6258 31.8587 95.5725 31.96C95.5245 32.0293 95.4578 32.064 95.3725 32.064H94.4765C94.4178 32.064 94.3725 32.048 94.3405 32.016C94.3085 31.9787 94.2952 31.936 94.3005 31.888C94.3005 31.792 94.3352 31.6827 94.4045 31.56C94.4792 31.432 94.5912 31.3067 94.7405 31.184C94.8898 31.0613 95.0818 30.96 95.3165 30.88C95.5512 30.8 95.8338 30.76 96.1645 30.76C96.5112 30.76 96.8072 30.8 97.0525 30.88C97.2978 30.96 97.4952 31.072 97.6445 31.216C97.7992 31.36 97.9138 31.5307 97.9885 31.728C98.0632 31.92 98.1005 32.1333 98.1005 32.368V34.8C98.1005 34.8587 98.0792 34.9067 98.0365 34.944C97.9992 34.9813 97.9538 35 97.9005 35H96.9725C96.9138 35 96.8658 34.9813 96.8285 34.944C96.7912 34.9067 96.7725 34.8587 96.7725 34.8V34.52C96.7032 34.6213 96.6098 34.7147 96.4925 34.8C96.3752 34.8853 96.2365 34.952 96.0765 35C95.9218 35.0533 95.7405 35.08 95.5325 35.08ZM95.9085 34.168C96.0632 34.168 96.2018 34.136 96.3245 34.072C96.4525 34.0027 96.5512 33.8987 96.6205 33.76C96.6952 33.616 96.7325 33.4373 96.7325 33.224V33.112L96.0525 33.232C95.8018 33.2747 95.6178 33.3413 95.5005 33.432C95.3885 33.5173 95.3325 33.6187 95.3325 33.736C95.3325 33.8267 95.3592 33.904 95.4125 33.968C95.4658 34.032 95.5352 34.0827 95.6205 34.12C95.7058 34.152 95.8018 34.168 95.9085 34.168Z" fill="white"/>
<path d="M25.1353 180C25.0473 180 24.9753 179.972 24.9193 179.916C24.8633 179.852 24.8353 179.78 24.8353 179.7V171.9C24.8353 171.812 24.8633 171.74 24.9193 171.684C24.9833 171.628 25.0553 171.6 25.1353 171.6H26.4433C26.5313 171.6 26.6033 171.628 26.6593 171.684C26.7153 171.74 26.7433 171.812 26.7433 171.9V177.084L30.4273 171.816C30.4673 171.76 30.5153 171.712 30.5713 171.672C30.6353 171.624 30.7153 171.6 30.8113 171.6H31.9873C32.0753 171.6 32.1473 171.628 32.2033 171.684C32.2593 171.74 32.2873 171.812 32.2873 171.9V179.7C32.2873 179.788 32.2593 179.86 32.2033 179.916C32.1473 179.972 32.0753 180 31.9873 180H30.6793C30.5993 180 30.5273 179.972 30.4633 179.916C30.4073 179.86 30.3793 179.788 30.3793 179.7V174.672L26.6953 179.784C26.6713 179.832 26.6313 179.88 26.5753 179.928C26.5193 179.976 26.4353 180 26.3233 180H25.1353ZM34.2139 180C34.1339 180 34.0659 179.972 34.0099 179.916C33.9539 179.86 33.9259 179.788 33.9259 179.7V174.06C33.9259 173.972 33.9539 173.9 34.0099 173.844C34.0659 173.788 34.1339 173.76 34.2139 173.76H38.1139C38.2019 173.76 38.2739 173.788 38.3299 173.844C38.3859 173.9 38.4139 173.972 38.4139 174.06V174.876C38.4139 174.964 38.3859 175.036 38.3299 175.092C38.2739 175.148 38.2019 175.176 38.1139 175.176H35.7139V179.7C35.7139 179.788 35.6859 179.86 35.6299 179.916C35.5739 179.972 35.5019 180 35.4139 180H34.2139ZM39.6517 182.28C39.5637 182.28 39.4917 182.252 39.4357 182.196C39.3797 182.14 39.3517 182.068 39.3517 181.98V174.06C39.3517 173.972 39.3797 173.9 39.4357 173.844C39.4917 173.788 39.5637 173.76 39.6517 173.76H40.7917C40.8797 173.76 40.9517 173.788 41.0077 173.844C41.0637 173.9 41.0917 173.972 41.0917 174.06V174.516C41.2837 174.26 41.5317 174.052 41.8357 173.892C42.1397 173.724 42.5197 173.64 42.9757 173.64C43.3917 173.64 43.7517 173.708 44.0557 173.844C44.3677 173.972 44.6277 174.16 44.8357 174.408C45.0517 174.648 45.2157 174.94 45.3277 175.284C45.4477 175.628 45.5157 176.016 45.5317 176.448C45.5397 176.6 45.5437 176.744 45.5437 176.88C45.5437 177.016 45.5397 177.164 45.5317 177.324C45.5237 177.732 45.4597 178.108 45.3397 178.452C45.2277 178.796 45.0637 179.092 44.8477 179.34C44.6317 179.588 44.3677 179.78 44.0557 179.916C43.7517 180.052 43.3917 180.12 42.9757 180.12C42.5677 180.12 42.2117 180.048 41.9077 179.904C41.6117 179.752 41.3677 179.548 41.1757 179.292V181.98C41.1757 182.068 41.1477 182.14 41.0917 182.196C41.0357 182.252 40.9677 182.28 40.8877 182.28H39.6517ZM42.4357 178.68C42.7397 178.68 42.9797 178.616 43.1557 178.488C43.3317 178.352 43.4557 178.176 43.5277 177.96C43.6077 177.744 43.6557 177.508 43.6717 177.252C43.6877 177.004 43.6877 176.756 43.6717 176.508C43.6557 176.252 43.6077 176.016 43.5277 175.8C43.4557 175.584 43.3317 175.412 43.1557 175.284C42.9797 175.148 42.7397 175.08 42.4357 175.08C42.1397 175.08 41.8997 175.148 41.7157 175.284C41.5317 175.42 41.3997 175.592 41.3197 175.8C41.2397 176.008 41.1917 176.232 41.1757 176.472C41.1677 176.616 41.1637 176.764 41.1637 176.916C41.1637 177.068 41.1677 177.22 41.1757 177.372C41.1837 177.596 41.2317 177.808 41.3197 178.008C41.4157 178.2 41.5517 178.36 41.7277 178.488C41.9117 178.616 42.1477 178.68 42.4357 178.68ZM48.6525 180.12C48.2285 180.12 47.8485 180.04 47.5125 179.88C47.1765 179.712 46.9085 179.488 46.7085 179.208C46.5085 178.928 46.4085 178.616 46.4085 178.272C46.4085 177.704 46.6365 177.256 47.0925 176.928C47.5565 176.6 48.1645 176.376 48.9165 176.256L50.4885 176.028V175.812C50.4885 175.5 50.4165 175.26 50.2725 175.092C50.1285 174.924 49.8765 174.84 49.5165 174.84C49.2525 174.84 49.0405 174.892 48.8805 174.996C48.7205 175.1 48.5965 175.236 48.5085 175.404C48.4445 175.508 48.3525 175.56 48.2325 175.56H47.0925C47.0045 175.56 46.9365 175.536 46.8885 175.488C46.8405 175.432 46.8205 175.368 46.8285 175.296C46.8285 175.16 46.8805 175 46.9845 174.816C47.0885 174.632 47.2485 174.452 47.4645 174.276C47.6805 174.092 47.9565 173.94 48.2925 173.82C48.6285 173.7 49.0405 173.64 49.5285 173.64C50.0325 173.64 50.4645 173.7 50.8245 173.82C51.1845 173.94 51.4725 174.108 51.6885 174.324C51.9045 174.54 52.0645 174.792 52.1685 175.08C52.2725 175.36 52.3245 175.664 52.3245 175.992V179.7C52.3245 179.788 52.2965 179.86 52.2405 179.916C52.1845 179.972 52.1125 180 52.0245 180H50.8485C50.7685 180 50.7005 179.972 50.6445 179.916C50.5885 179.86 50.5605 179.788 50.5605 179.7V179.256C50.4565 179.408 50.3165 179.552 50.1405 179.688C49.9645 179.816 49.7525 179.92 49.5045 180C49.2645 180.08 48.9805 180.12 48.6525 180.12ZM49.1325 178.872C49.3965 178.872 49.6325 178.816 49.8405 178.704C50.0485 178.592 50.2125 178.42 50.3325 178.188C50.4525 177.956 50.5125 177.664 50.5125 177.312V177.108L49.3965 177.288C48.9645 177.36 48.6485 177.468 48.4485 177.612C48.2485 177.756 48.1485 177.932 48.1485 178.14C48.1485 178.292 48.1925 178.424 48.2805 178.536C48.3765 178.648 48.5005 178.732 48.6525 178.788C48.8045 178.844 48.9645 178.872 49.1325 178.872ZM52.7335 182.28C52.6455 182.28 52.5735 182.252 52.5175 182.196C52.4615 182.14 52.4335 182.068 52.4335 181.98V181.164C52.4335 181.076 52.4615 181.004 52.5175 180.948C52.5735 180.892 52.6455 180.864 52.7335 180.864H53.1175C53.3335 180.864 53.4975 180.82 53.6095 180.732C53.7295 180.652 53.8095 180.54 53.8495 180.396C53.8895 180.252 53.9095 180.092 53.9095 179.916V174.06C53.9095 173.972 53.9375 173.9 53.9935 173.844C54.0495 173.788 54.1175 173.76 54.1975 173.76H55.4575C55.5375 173.76 55.6055 173.788 55.6615 173.844C55.7175 173.9 55.7455 173.972 55.7455 174.06V179.952C55.7455 180.44 55.6535 180.856 55.4695 181.2C55.2855 181.552 55.0095 181.82 54.6415 182.004C54.2815 182.188 53.8335 182.28 53.2975 182.28H52.7335ZM54.1615 172.8C54.0815 172.8 54.0135 172.772 53.9575 172.716C53.9015 172.66 53.8735 172.588 53.8735 172.5V171.54C53.8735 171.452 53.9015 171.38 53.9575 171.324C54.0135 171.26 54.0815 171.228 54.1615 171.228H55.4815C55.5695 171.228 55.6415 171.26 55.6975 171.324C55.7535 171.38 55.7815 171.452 55.7815 171.54V172.5C55.7815 172.588 55.7535 172.66 55.6975 172.716C55.6415 172.772 55.5695 172.8 55.4815 172.8H54.1615ZM58.8624 182.28C58.7744 182.28 58.7024 182.252 58.6464 182.196C58.5904 182.14 58.5624 182.068 58.5624 181.98V181.164C58.5624 181.076 58.5904 181.004 58.6464 180.948C58.7024 180.892 58.7744 180.864 58.8624 180.864H59.2464C59.4624 180.864 59.6264 180.82 59.7384 180.732C59.8584 180.652 59.9384 180.54 59.9784 180.396C60.0184 180.252 60.0384 180.092 60.0384 179.916V174.06C60.0384 173.972 60.0664 173.9 60.1224 173.844C60.1784 173.788 60.2464 173.76 60.3264 173.76H61.5864C61.6664 173.76 61.7344 173.788 61.7904 173.844C61.8464 173.9 61.8744 173.972 61.8744 174.06V179.952C61.8744 180.44 61.7824 180.856 61.5984 181.2C61.4144 181.552 61.1384 181.82 60.7704 182.004C60.4104 182.188 59.9624 182.28 59.4264 182.28H58.8624ZM60.2904 172.8C60.2104 172.8 60.1424 172.772 60.0864 172.716C60.0304 172.66 60.0024 172.588 60.0024 172.5V171.54C60.0024 171.452 60.0304 171.38 60.0864 171.324C60.1424 171.26 60.2104 171.228 60.2904 171.228H61.6104C61.6984 171.228 61.7704 171.26 61.8264 171.324C61.8824 171.38 61.9104 171.452 61.9104 171.54V172.5C61.9104 172.588 61.8824 172.66 61.8264 172.716C61.7704 172.772 61.6984 172.8 61.6104 172.8H60.2904ZM65.2229 180.12C64.7989 180.12 64.4189 180.04 64.0829 179.88C63.7469 179.712 63.4789 179.488 63.2789 179.208C63.0789 178.928 62.9789 178.616 62.9789 178.272C62.9789 177.704 63.2069 177.256 63.6629 176.928C64.1269 176.6 64.7349 176.376 65.4869 176.256L67.0589 176.028V175.812C67.0589 175.5 66.9869 175.26 66.8429 175.092C66.6989 174.924 66.4469 174.84 66.0869 174.84C65.8229 174.84 65.6109 174.892 65.4509 174.996C65.2909 175.1 65.1669 175.236 65.0789 175.404C65.0149 175.508 64.9229 175.56 64.8029 175.56H63.6629C63.5749 175.56 63.5069 175.536 63.4589 175.488C63.4109 175.432 63.3909 175.368 63.3989 175.296C63.3989 175.16 63.4509 175 63.5549 174.816C63.6589 174.632 63.8189 174.452 64.0349 174.276C64.2509 174.092 64.5269 173.94 64.8629 173.82C65.1989 173.7 65.6109 173.64 66.0989 173.64C66.6029 173.64 67.0349 173.7 67.3949 173.82C67.7549 173.94 68.0429 174.108 68.2589 174.324C68.4749 174.54 68.6349 174.792 68.7389 175.08C68.8429 175.36 68.8949 175.664 68.8949 175.992V179.7C68.8949 179.788 68.8669 179.86 68.8109 179.916C68.7549 179.972 68.6829 180 68.5949 180H67.4189C67.3389 180 67.2709 179.972 67.2149 179.916C67.1589 179.86 67.1309 179.788 67.1309 179.7V179.256C67.0269 179.408 66.8869 179.552 66.7109 179.688C66.5349 179.816 66.3229 179.92 66.0749 180C65.8349 180.08 65.5509 180.12 65.2229 180.12ZM65.7029 178.872C65.9669 178.872 66.2029 178.816 66.4109 178.704C66.6189 178.592 66.7829 178.42 66.9029 178.188C67.0229 177.956 67.0829 177.664 67.0829 177.312V177.108L65.9669 177.288C65.5349 177.36 65.2189 177.468 65.0189 177.612C64.8189 177.756 64.7189 177.932 64.7189 178.14C64.7189 178.292 64.7629 178.424 64.8509 178.536C64.9469 178.648 65.0709 178.732 65.2229 178.788C65.3749 178.844 65.5349 178.872 65.7029 178.872ZM75.8522 180.12C75.1882 180.12 74.6322 180.012 74.1842 179.796C73.7362 179.572 73.3922 179.256 73.1522 178.848C72.9202 178.44 72.7922 177.964 72.7682 177.42C72.7602 177.26 72.7562 177.08 72.7562 176.88C72.7562 176.672 72.7602 176.492 72.7682 176.34C72.7922 175.788 72.9282 175.312 73.1762 174.912C73.4242 174.504 73.7722 174.192 74.2202 173.976C74.6682 173.752 75.2122 173.64 75.8522 173.64C76.4842 173.64 77.0242 173.752 77.4722 173.976C77.9202 174.192 78.2682 174.504 78.5162 174.912C78.7642 175.312 78.9002 175.788 78.9242 176.34C78.9402 176.492 78.9482 176.672 78.9482 176.88C78.9482 177.08 78.9402 177.26 78.9242 177.42C78.9002 177.964 78.7682 178.44 78.5282 178.848C78.2962 179.256 77.9562 179.572 77.5082 179.796C77.0602 180.012 76.5082 180.12 75.8522 180.12ZM75.8522 178.8C76.2442 178.8 76.5402 178.68 76.7402 178.44C76.9402 178.192 77.0482 177.832 77.0642 177.36C77.0722 177.24 77.0762 177.08 77.0762 176.88C77.0762 176.68 77.0722 176.52 77.0642 176.4C77.0482 175.936 76.9402 175.58 76.7402 175.332C76.5402 175.084 76.2442 174.96 75.8522 174.96C75.4602 174.96 75.1602 175.084 74.9522 175.332C74.7522 175.58 74.6442 175.936 74.6282 176.4C74.6202 176.52 74.6162 176.68 74.6162 176.88C74.6162 177.08 74.6202 177.24 74.6282 177.36C74.6442 177.832 74.7522 178.192 74.9522 178.44C75.1602 178.68 75.4602 178.8 75.8522 178.8ZM80.4913 180C80.4113 180 80.3433 179.972 80.2873 179.916C80.2313 179.86 80.2033 179.788 80.2033 179.7V174.06C80.2033 173.972 80.2313 173.9 80.2873 173.844C80.3433 173.788 80.4113 173.76 80.4913 173.76H83.2273C84.1233 173.76 84.7793 173.92 85.1953 174.24C85.6193 174.552 85.8313 174.976 85.8313 175.512C85.8313 175.832 85.7713 176.088 85.6513 176.28C85.5313 176.464 85.3633 176.624 85.1473 176.76C85.4193 176.888 85.6313 177.08 85.7833 177.336C85.9433 177.584 86.0233 177.864 86.0233 178.176C86.0233 178.744 85.8033 179.192 85.3633 179.52C84.9233 179.84 84.2633 180 83.3833 180H80.4913ZM81.9313 178.824H83.2753C83.5553 178.824 83.7793 178.772 83.9473 178.668C84.1233 178.556 84.2113 178.384 84.2113 178.152C84.2113 177.912 84.1313 177.74 83.9713 177.636C83.8113 177.532 83.5793 177.48 83.2753 177.48H81.9313V178.824ZM81.9313 176.256H83.2273C83.5153 176.256 83.7433 176.196 83.9113 176.076C84.0793 175.956 84.1633 175.784 84.1633 175.56C84.1633 175.328 84.0793 175.168 83.9113 175.08C83.7433 174.984 83.5153 174.936 83.2273 174.936H81.9313V176.256ZM89.1643 180.12C88.7403 180.12 88.3603 180.04 88.0243 179.88C87.6883 179.712 87.4203 179.488 87.2203 179.208C87.0203 178.928 86.9203 178.616 86.9203 178.272C86.9203 177.704 87.1483 177.256 87.6043 176.928C88.0683 176.6 88.6763 176.376 89.4283 176.256L91.0003 176.028V175.812C91.0003 175.5 90.9283 175.26 90.7843 175.092C90.6403 174.924 90.3883 174.84 90.0283 174.84C89.7643 174.84 89.5523 174.892 89.3923 174.996C89.2323 175.1 89.1083 175.236 89.0203 175.404C88.9563 175.508 88.8643 175.56 88.7443 175.56H87.6043C87.5163 175.56 87.4483 175.536 87.4003 175.488C87.3523 175.432 87.3323 175.368 87.3403 175.296C87.3403 175.16 87.3923 175 87.4963 174.816C87.6003 174.632 87.7603 174.452 87.9763 174.276C88.1923 174.092 88.4683 173.94 88.8043 173.82C89.1403 173.7 89.5523 173.64 90.0403 173.64C90.5443 173.64 90.9763 173.7 91.3363 173.82C91.6963 173.94 91.9843 174.108 92.2003 174.324C92.4163 174.54 92.5763 174.792 92.6803 175.08C92.7843 175.36 92.8363 175.664 92.8363 175.992V179.7C92.8363 179.788 92.8083 179.86 92.7523 179.916C92.6963 179.972 92.6243 180 92.5363 180H91.3603C91.2803 180 91.2123 179.972 91.1563 179.916C91.1003 179.86 91.0723 179.788 91.0723 179.7V179.256C90.9683 179.408 90.8283 179.552 90.6523 179.688C90.4763 179.816 90.2643 179.92 90.0163 180C89.7763 180.08 89.4923 180.12 89.1643 180.12ZM89.6443 178.872C89.9083 178.872 90.1443 178.816 90.3523 178.704C90.5603 178.592 90.7243 178.42 90.8443 178.188C90.9643 177.956 91.0243 177.664 91.0243 177.312V177.108L89.9083 177.288C89.4763 177.36 89.1603 177.468 88.9603 177.612C88.7603 177.756 88.6603 177.932 88.6603 178.14C88.6603 178.292 88.7043 178.424 88.7923 178.536C88.8883 178.648 89.0123 178.732 89.1643 178.788C89.3163 178.844 89.4763 178.872 89.6443 178.872ZM96.1252 180.12C95.7012 180.12 95.3212 180.04 94.9852 179.88C94.6492 179.712 94.3812 179.488 94.1812 179.208C93.9812 178.928 93.8812 178.616 93.8812 178.272C93.8812 177.704 94.1092 177.256 94.5652 176.928C95.0292 176.6 95.6372 176.376 96.3892 176.256L97.9612 176.028V175.812C97.9612 175.5 97.8892 175.26 97.7452 175.092C97.6012 174.924 97.3492 174.84 96.9892 174.84C96.7252 174.84 96.5132 174.892 96.3532 174.996C96.1932 175.1 96.0692 175.236 95.9812 175.404C95.9172 175.508 95.8252 175.56 95.7052 175.56H94.5652C94.4772 175.56 94.4092 175.536 94.3612 175.488C94.3132 175.432 94.2932 175.368 94.3012 175.296C94.3012 175.16 94.3532 175 94.4572 174.816C94.5612 174.632 94.7212 174.452 94.9372 174.276C95.1532 174.092 95.4292 173.94 95.7652 173.82C96.1012 173.7 96.5132 173.64 97.0012 173.64C97.5052 173.64 97.9372 173.7 98.2972 173.82C98.6572 173.94 98.9452 174.108 99.1612 174.324C99.3772 174.54 99.5372 174.792 99.6412 175.08C99.7452 175.36 99.7972 175.664 99.7972 175.992V179.7C99.7972 179.788 99.7692 179.86 99.7132 179.916C99.6572 179.972 99.5852 180 99.4972 180H98.3212C98.2412 180 98.1732 179.972 98.1172 179.916C98.0612 179.86 98.0332 179.788 98.0332 179.7V179.256C97.9292 179.408 97.7892 179.552 97.6132 179.688C97.4372 179.816 97.2252 179.92 96.9772 180C96.7372 180.08 96.4532 180.12 96.1252 180.12ZM96.6052 178.872C96.8692 178.872 97.1052 178.816 97.3132 178.704C97.5212 178.592 97.6852 178.42 97.8052 178.188C97.9252 177.956 97.9852 177.664 97.9852 177.312V177.108L96.8692 177.288C96.4372 177.36 96.1212 177.468 95.9212 177.612C95.7212 177.756 95.6212 177.932 95.6212 178.14C95.6212 178.292 95.6652 178.424 95.7532 178.536C95.8492 178.648 95.9732 178.732 96.1252 178.788C96.2772 178.844 96.4372 178.872 96.6052 178.872ZM104.187 180C104.107 180 104.039 179.972 103.983 179.916C103.927 179.86 103.899 179.788 103.899 179.7V174.06C103.899 173.972 103.927 173.9 103.983 173.844C104.039 173.788 104.107 173.76 104.187 173.76H105.363C105.451 173.76 105.523 173.788 105.579 173.844C105.635 173.9 105.663 173.972 105.663 174.06V176.124H106.419L107.811 173.952C107.835 173.904 107.871 173.86 107.919 173.82C107.975 173.78 108.047 173.76 108.135 173.76H109.443C109.515 173.76 109.575 173.784 109.623 173.832C109.679 173.872 109.707 173.924 109.707 173.988C109.707 174.012 109.699 174.04 109.683 174.072C109.675 174.104 109.663 174.132 109.647 174.156L107.955 176.772L109.911 179.616C109.943 179.664 109.959 179.716 109.959 179.772C109.959 179.836 109.935 179.892 109.887 179.94C109.839 179.98 109.779 180 109.707 180H108.255C108.175 180 108.107 179.984 108.051 179.952C108.003 179.912 107.959 179.864 107.919 179.808L106.407 177.552H105.663V179.7C105.663 179.788 105.635 179.86 105.579 179.916C105.523 179.972 105.451 180 105.363 180H104.187ZM112.789 180.12C112.365 180.12 111.985 180.04 111.649 179.88C111.313 179.712 111.045 179.488 110.845 179.208C110.645 178.928 110.545 178.616 110.545 178.272C110.545 177.704 110.773 177.256 111.229 176.928C111.693 176.6 112.301 176.376 113.053 176.256L114.625 176.028V175.812C114.625 175.5 114.553 175.26 114.409 175.092C114.265 174.924 114.013 174.84 113.653 174.84C113.389 174.84 113.177 174.892 113.017 174.996C112.857 175.1 112.733 175.236 112.645 175.404C112.581 175.508 112.489 175.56 112.369 175.56H111.229C111.141 175.56 111.073 175.536 111.025 175.488C110.977 175.432 110.957 175.368 110.965 175.296C110.965 175.16 111.017 175 111.121 174.816C111.225 174.632 111.385 174.452 111.601 174.276C111.817 174.092 112.093 173.94 112.429 173.82C112.765 173.7 113.177 173.64 113.665 173.64C114.169 173.64 114.601 173.7 114.961 173.82C115.321 173.94 115.609 174.108 115.825 174.324C116.041 174.54 116.201 174.792 116.305 175.08C116.409 175.36 116.461 175.664 116.461 175.992V179.7C116.461 179.788 116.433 179.86 116.377 179.916C116.321 179.972 116.249 180 116.161 180H114.985C114.905 180 114.837 179.972 114.781 179.916C114.725 179.86 114.697 179.788 114.697 179.7V179.256C114.593 179.408 114.453 179.552 114.277 179.688C114.101 179.816 113.889 179.92 113.641 180C113.401 180.08 113.117 180.12 112.789 180.12ZM113.269 178.872C113.533 178.872 113.769 178.816 113.977 178.704C114.185 178.592 114.349 178.42 114.469 178.188C114.589 177.956 114.649 177.664 114.649 177.312V177.108L113.533 177.288C113.101 177.36 112.785 177.468 112.585 177.612C112.385 177.756 112.285 177.932 112.285 178.14C112.285 178.292 112.329 178.424 112.417 178.536C112.513 178.648 112.637 178.732 112.789 178.788C112.941 178.844 113.101 178.872 113.269 178.872ZM118.214 182.28C118.126 182.28 118.054 182.252 117.998 182.196C117.942 182.14 117.914 182.068 117.914 181.98V174.06C117.914 173.972 117.942 173.9 117.998 173.844C118.054 173.788 118.126 173.76 118.214 173.76H119.354C119.442 173.76 119.514 173.788 119.57 173.844C119.626 173.9 119.654 173.972 119.654 174.06V174.516C119.846 174.26 120.094 174.052 120.398 173.892C120.702 173.724 121.082 173.64 121.538 173.64C121.954 173.64 122.314 173.708 122.618 173.844C122.93 173.972 123.19 174.16 123.398 174.408C123.614 174.648 123.778 174.94 123.89 175.284C124.01 175.628 124.078 176.016 124.094 176.448C124.102 176.6 124.106 176.744 124.106 176.88C124.106 177.016 124.102 177.164 124.094 177.324C124.086 177.732 124.022 178.108 123.902 178.452C123.79 178.796 123.626 179.092 123.41 179.34C123.194 179.588 122.93 179.78 122.618 179.916C122.314 180.052 121.954 180.12 121.538 180.12C121.13 180.12 120.774 180.048 120.47 179.904C120.174 179.752 119.93 179.548 119.738 179.292V181.98C119.738 182.068 119.71 182.14 119.654 182.196C119.598 182.252 119.53 182.28 119.45 182.28H118.214ZM120.998 178.68C121.302 178.68 121.542 178.616 121.718 178.488C121.894 178.352 122.018 178.176 122.09 177.96C122.17 177.744 122.218 177.508 122.234 177.252C122.25 177.004 122.25 176.756 122.234 176.508C122.218 176.252 122.17 176.016 122.09 175.8C122.018 175.584 121.894 175.412 121.718 175.284C121.542 175.148 121.302 175.08 120.998 175.08C120.702 175.08 120.462 175.148 120.278 175.284C120.094 175.42 119.962 175.592 119.882 175.8C119.802 176.008 119.754 176.232 119.738 176.472C119.73 176.616 119.726 176.764 119.726 176.916C119.726 177.068 119.73 177.22 119.738 177.372C119.746 177.596 119.794 177.808 119.882 178.008C119.978 178.2 120.114 178.36 120.29 178.488C120.474 178.616 120.71 178.68 120.998 178.68ZM127.275 180C127.187 180 127.115 179.972 127.059 179.916C127.003 179.86 126.975 179.788 126.975 179.7V175.176H125.091C125.003 175.176 124.931 175.148 124.875 175.092C124.819 175.036 124.791 174.964 124.791 174.876V174.06C124.791 173.972 124.819 173.9 124.875 173.844C124.931 173.788 125.003 173.76 125.091 173.76H130.623C130.711 173.76 130.783 173.788 130.839 173.844C130.895 173.9 130.923 173.972 130.923 174.06V174.876C130.923 174.964 130.895 175.036 130.839 175.092C130.783 175.148 130.711 175.176 130.623 175.176H128.739V179.7C128.739 179.788 128.711 179.86 128.655 179.916C128.599 179.972 128.531 180 128.451 180H127.275ZM133.684 180.12C133.26 180.12 132.88 180.04 132.544 179.88C132.208 179.712 131.94 179.488 131.74 179.208C131.54 178.928 131.44 178.616 131.44 178.272C131.44 177.704 131.668 177.256 132.124 176.928C132.588 176.6 133.196 176.376 133.948 176.256L135.52 176.028V175.812C135.52 175.5 135.448 175.26 135.304 175.092C135.16 174.924 134.908 174.84 134.548 174.84C134.284 174.84 134.072 174.892 133.912 174.996C133.752 175.1 133.628 175.236 133.54 175.404C133.476 175.508 133.384 175.56 133.264 175.56H132.124C132.036 175.56 131.968 175.536 131.92 175.488C131.872 175.432 131.852 175.368 131.86 175.296C131.86 175.16 131.912 175 132.016 174.816C132.12 174.632 132.28 174.452 132.496 174.276C132.712 174.092 132.988 173.94 133.324 173.82C133.66 173.7 134.072 173.64 134.56 173.64C135.064 173.64 135.496 173.7 135.856 173.82C136.216 173.94 136.504 174.108 136.72 174.324C136.936 174.54 137.096 174.792 137.2 175.08C137.304 175.36 137.356 175.664 137.356 175.992V179.7C137.356 179.788 137.328 179.86 137.272 179.916C137.216 179.972 137.144 180 137.056 180H135.88C135.8 180 135.732 179.972 135.676 179.916C135.62 179.86 135.592 179.788 135.592 179.7V179.256C135.488 179.408 135.348 179.552 135.172 179.688C134.996 179.816 134.784 179.92 134.536 180C134.296 180.08 134.012 180.12 133.684 180.12ZM134.164 178.872C134.428 178.872 134.664 178.816 134.872 178.704C135.08 178.592 135.244 178.42 135.364 178.188C135.484 177.956 135.544 177.664 135.544 177.312V177.108L134.428 177.288C133.996 177.36 133.68 177.468 133.48 177.612C133.28 177.756 133.18 177.932 133.18 178.14C133.18 178.292 133.224 178.424 133.312 178.536C133.408 178.648 133.532 178.732 133.684 178.788C133.836 178.844 133.996 178.872 134.164 178.872ZM24.6514 195C24.5714 195 24.5034 194.972 24.4474 194.916C24.3914 194.86 24.3634 194.788 24.3634 194.7V189.06C24.3634 188.972 24.3914 188.9 24.4474 188.844C24.5034 188.788 24.5714 188.76 24.6514 188.76H27.3874C28.2834 188.76 28.9394 188.92 29.3554 189.24C29.7794 189.552 29.9914 189.976 29.9914 190.512C29.9914 190.832 29.9314 191.088 29.8114 191.28C29.6914 191.464 29.5234 191.624 29.3074 191.76C29.5794 191.888 29.7914 192.08 29.9434 192.336C30.1034 192.584 30.1834 192.864 30.1834 193.176C30.1834 193.744 29.9634 194.192 29.5234 194.52C29.0834 194.84 28.4234 195 27.5434 195H24.6514ZM26.0914 193.824H27.4354C27.7154 193.824 27.9394 193.772 28.1074 193.668C28.2834 193.556 28.3714 193.384 28.3714 193.152C28.3714 192.912 28.2914 192.74 28.1314 192.636C27.9714 192.532 27.7394 192.48 27.4354 192.48H26.0914V193.824ZM26.0914 191.256H27.3874C27.6754 191.256 27.9034 191.196 28.0714 191.076C28.2394 190.956 28.3234 190.784 28.3234 190.56C28.3234 190.328 28.2394 190.168 28.0714 190.08C27.9034 189.984 27.6754 189.936 27.3874 189.936H26.0914V191.256ZM34.3444 195.12C33.6804 195.12 33.1244 195.012 32.6764 194.796C32.2284 194.572 31.8844 194.256 31.6444 193.848C31.4124 193.44 31.2844 192.964 31.2604 192.42C31.2524 192.26 31.2484 192.08 31.2484 191.88C31.2484 191.672 31.2524 191.492 31.2604 191.34C31.2844 190.788 31.4204 190.312 31.6684 189.912C31.9164 189.504 32.2644 189.192 32.7124 188.976C33.1604 188.752 33.7044 188.64 34.3444 188.64C34.9764 188.64 35.5164 188.752 35.9644 188.976C36.4124 189.192 36.7604 189.504 37.0084 189.912C37.2564 190.312 37.3924 190.788 37.4164 191.34C37.4324 191.492 37.4404 191.672 37.4404 191.88C37.4404 192.08 37.4324 192.26 37.4164 192.42C37.3924 192.964 37.2604 193.44 37.0204 193.848C36.7884 194.256 36.4484 194.572 36.0004 194.796C35.5524 195.012 35.0004 195.12 34.3444 195.12ZM34.3444 193.8C34.7364 193.8 35.0324 193.68 35.2324 193.44C35.4324 193.192 35.5404 192.832 35.5564 192.36C35.5644 192.24 35.5684 192.08 35.5684 191.88C35.5684 191.68 35.5644 191.52 35.5564 191.4C35.5404 190.936 35.4324 190.58 35.2324 190.332C35.0324 190.084 34.7364 189.96 34.3444 189.96C33.9524 189.96 33.6524 190.084 33.4444 190.332C33.2444 190.58 33.1364 190.936 33.1204 191.4C33.1124 191.52 33.1084 191.68 33.1084 191.88C33.1084 192.08 33.1124 192.24 33.1204 192.36C33.1364 192.832 33.2444 193.192 33.4444 193.44C33.6524 193.68 33.9524 193.8 34.3444 193.8ZM44.2479 195.12C43.5519 195.12 42.9799 195.004 42.5319 194.772C42.0919 194.54 41.7599 194.192 41.5359 193.728C41.3199 193.256 41.1959 192.672 41.1639 191.976C41.1559 191.744 41.1519 191.504 41.1519 191.256C41.1519 191.008 41.1559 190.768 41.1639 190.536C41.1799 189.848 41.2479 189.272 41.3679 188.808C41.4959 188.336 41.6839 187.948 41.9319 187.644C42.1879 187.332 42.5119 187.076 42.9039 186.876C43.3039 186.668 43.7799 186.488 44.3319 186.336C44.8839 186.184 45.5239 186.024 46.2519 185.856C46.3319 185.84 46.4079 185.852 46.4799 185.892C46.5519 185.932 46.5919 185.996 46.5999 186.084L46.7799 187.02C46.7959 187.108 46.7799 187.184 46.7319 187.248C46.6919 187.312 46.6359 187.352 46.5639 187.368C45.9479 187.496 45.4239 187.612 44.9919 187.716C44.5599 187.82 44.1999 187.94 43.9119 188.076C43.6319 188.204 43.4159 188.376 43.2639 188.592C43.1119 188.8 43.0039 189.076 42.9399 189.42C42.8839 189.756 42.8639 190.184 42.8799 190.704L42.6039 190.428C42.6599 190.196 42.7839 189.988 42.9759 189.804C43.1679 189.62 43.4039 189.472 43.6839 189.36C43.9639 189.24 44.2599 189.18 44.5719 189.18C45.1559 189.18 45.6479 189.284 46.0479 189.492C46.4479 189.7 46.7519 189.996 46.9599 190.38C47.1759 190.756 47.2999 191.208 47.3319 191.736C47.3479 192.032 47.3479 192.308 47.3319 192.564C47.2999 193.076 47.1639 193.528 46.9239 193.92C46.6919 194.304 46.3519 194.6 45.9039 194.808C45.4559 195.016 44.9039 195.12 44.2479 195.12ZM44.2479 193.908C44.6399 193.908 44.9359 193.792 45.1359 193.56C45.3359 193.32 45.4439 192.968 45.4599 192.504C45.4679 192.416 45.4719 192.304 45.4719 192.168C45.4719 192.024 45.4679 191.896 45.4599 191.784C45.4439 191.336 45.3359 190.992 45.1359 190.752C44.9439 190.512 44.6759 190.392 44.3319 190.392C43.9319 190.392 43.6199 190.512 43.3959 190.752C43.1719 190.992 43.0479 191.336 43.0239 191.784C43.0159 191.896 43.0119 192.024 43.0119 192.168C43.0119 192.304 43.0159 192.416 43.0239 192.504C43.0479 192.968 43.1599 193.32 43.3599 193.56C43.5599 193.792 43.8559 193.908 44.2479 193.908ZM48.8855 195C48.8135 195 48.7495 194.972 48.6935 194.916C48.6375 194.86 48.6095 194.792 48.6095 194.712V189.06C48.6095 188.972 48.6375 188.9 48.6935 188.844C48.7495 188.788 48.8175 188.76 48.8975 188.76H50.0975C50.1855 188.76 50.2575 188.788 50.3135 188.844C50.3695 188.9 50.3975 188.972 50.3975 189.06V193.62L49.9175 193.344L53.0495 188.952C53.0895 188.896 53.1335 188.852 53.1815 188.82C53.2375 188.78 53.3055 188.76 53.3855 188.76H54.4655C54.5455 188.76 54.6135 188.788 54.6695 188.844C54.7255 188.9 54.7535 188.964 54.7535 189.036V194.7C54.7535 194.788 54.7255 194.86 54.6695 194.916C54.6135 194.972 54.5415 195 54.4535 195H53.2535C53.1735 195 53.1055 194.972 53.0495 194.916C52.9935 194.86 52.9655 194.788 52.9655 194.7V190.32L53.4575 190.404L50.3015 194.808C50.2695 194.864 50.2255 194.912 50.1695 194.952C50.1135 194.984 50.0495 195 49.9775 195H48.8855ZM56.0121 195C55.9321 195 55.8601 194.972 55.7961 194.916C55.7401 194.852 55.7121 194.78 55.7121 194.7V193.8C55.7121 193.624 55.8081 193.528 56.0001 193.512C56.2321 193.488 56.4121 193.38 56.5401 193.188C56.6761 192.988 56.7721 192.684 56.8281 192.276C56.8841 191.868 56.9121 191.344 56.9121 190.704V189.06C56.9121 188.972 56.9401 188.9 56.9961 188.844C57.0521 188.788 57.1241 188.76 57.2121 188.76H61.6881C61.7761 188.76 61.8481 188.788 61.9041 188.844C61.9601 188.9 61.9881 188.972 61.9881 189.06V194.7C61.9881 194.788 61.9601 194.86 61.9041 194.916C61.8481 194.972 61.7761 195 61.6881 195H60.4881C60.4081 195 60.3361 194.972 60.2721 194.916C60.2161 194.86 60.1881 194.788 60.1881 194.7V190.176H58.6281V190.908C58.6281 191.668 58.5841 192.312 58.4961 192.84C58.4161 193.368 58.2761 193.792 58.0761 194.112C57.8761 194.424 57.6081 194.652 57.2721 194.796C56.9361 194.932 56.5161 195 56.0121 195ZM66.3952 195.12C65.7312 195.12 65.1752 195.012 64.7272 194.796C64.2792 194.572 63.9352 194.256 63.6952 193.848C63.4632 193.44 63.3352 192.964 63.3112 192.42C63.3032 192.26 63.2992 192.08 63.2992 191.88C63.2992 191.672 63.3032 191.492 63.3112 191.34C63.3352 190.788 63.4712 190.312 63.7192 189.912C63.9672 189.504 64.3152 189.192 64.7632 188.976C65.2112 188.752 65.7552 188.64 66.3952 188.64C67.0272 188.64 67.5672 188.752 68.0152 188.976C68.4632 189.192 68.8112 189.504 69.0592 189.912C69.3072 190.312 69.4432 190.788 69.4672 191.34C69.4832 191.492 69.4912 191.672 69.4912 191.88C69.4912 192.08 69.4832 192.26 69.4672 192.42C69.4432 192.964 69.3112 193.44 69.0712 193.848C68.8392 194.256 68.4992 194.572 68.0512 194.796C67.6032 195.012 67.0512 195.12 66.3952 195.12ZM66.3952 193.8C66.7872 193.8 67.0832 193.68 67.2832 193.44C67.4832 193.192 67.5912 192.832 67.6072 192.36C67.6152 192.24 67.6192 192.08 67.6192 191.88C67.6192 191.68 67.6152 191.52 67.6072 191.4C67.5912 190.936 67.4832 190.58 67.2832 190.332C67.0832 190.084 66.7872 189.96 66.3952 189.96C66.0032 189.96 65.7032 190.084 65.4952 190.332C65.2952 190.58 65.1872 190.936 65.1712 191.4C65.1632 191.52 65.1592 191.68 65.1592 191.88C65.1592 192.08 65.1632 192.24 65.1712 192.36C65.1872 192.832 65.2952 193.192 65.4952 193.44C65.7032 193.68 66.0032 193.8 66.3952 193.8ZM73.6827 195C73.6027 195 73.5347 194.972 73.4787 194.916C73.4227 194.86 73.3947 194.788 73.3947 194.7V189.06C73.3947 188.972 73.4227 188.9 73.4787 188.844C73.5347 188.788 73.6027 188.76 73.6827 188.76H74.8587C74.9467 188.76 75.0187 188.788 75.0747 188.844C75.1307 188.9 75.1587 188.972 75.1587 189.06V191.124H75.9147L77.3067 188.952C77.3307 188.904 77.3667 188.86 77.4147 188.82C77.4707 188.78 77.5427 188.76 77.6307 188.76H78.9387C79.0107 188.76 79.0707 188.784 79.1187 188.832C79.1747 188.872 79.2027 188.924 79.2027 188.988C79.2027 189.012 79.1947 189.04 79.1787 189.072C79.1707 189.104 79.1587 189.132 79.1427 189.156L77.4507 191.772L79.4067 194.616C79.4387 194.664 79.4547 194.716 79.4547 194.772C79.4547 194.836 79.4307 194.892 79.3827 194.94C79.3347 194.98 79.2747 195 79.2027 195H77.7507C77.6707 195 77.6027 194.984 77.5467 194.952C77.4987 194.912 77.4547 194.864 77.4147 194.808L75.9027 192.552H75.1587V194.7C75.1587 194.788 75.1307 194.86 75.0747 194.916C75.0187 194.972 74.9467 195 74.8587 195H73.6827ZM83.3054 195.12C82.6414 195.12 82.0854 195.012 81.6374 194.796C81.1894 194.572 80.8454 194.256 80.6054 193.848C80.3734 193.44 80.2454 192.964 80.2214 192.42C80.2134 192.26 80.2094 192.08 80.2094 191.88C80.2094 191.672 80.2134 191.492 80.2214 191.34C80.2454 190.788 80.3814 190.312 80.6294 189.912C80.8774 189.504 81.2254 189.192 81.6734 188.976C82.1214 188.752 82.6654 188.64 83.3054 188.64C83.9374 188.64 84.4774 188.752 84.9254 188.976C85.3734 189.192 85.7214 189.504 85.9694 189.912C86.2174 190.312 86.3534 190.788 86.3774 191.34C86.3934 191.492 86.4014 191.672 86.4014 191.88C86.4014 192.08 86.3934 192.26 86.3774 192.42C86.3534 192.964 86.2214 193.44 85.9814 193.848C85.7494 194.256 85.4094 194.572 84.9614 194.796C84.5134 195.012 83.9614 195.12 83.3054 195.12ZM83.3054 193.8C83.6974 193.8 83.9934 193.68 84.1934 193.44C84.3934 193.192 84.5014 192.832 84.5174 192.36C84.5254 192.24 84.5294 192.08 84.5294 191.88C84.5294 191.68 84.5254 191.52 84.5174 191.4C84.5014 190.936 84.3934 190.58 84.1934 190.332C83.9934 190.084 83.6974 189.96 83.3054 189.96C82.9134 189.96 82.6134 190.084 82.4054 190.332C82.2054 190.58 82.0974 190.936 82.0814 191.4C82.0734 191.52 82.0694 191.68 82.0694 191.88C82.0694 192.08 82.0734 192.24 82.0814 192.36C82.0974 192.832 82.2054 193.192 82.4054 193.44C82.6134 193.68 82.9134 193.8 83.3054 193.8ZM86.6124 197.28C86.5244 197.28 86.4524 197.252 86.3964 197.196C86.3404 197.14 86.3124 197.068 86.3124 196.98V196.164C86.3124 196.076 86.3404 196.004 86.3964 195.948C86.4524 195.892 86.5244 195.864 86.6124 195.864H86.9964C87.2124 195.864 87.3764 195.82 87.4884 195.732C87.6084 195.652 87.6884 195.54 87.7284 195.396C87.7684 195.252 87.7884 195.092 87.7884 194.916V189.06C87.7884 188.972 87.8164 188.9 87.8724 188.844C87.9284 188.788 87.9964 188.76 88.0764 188.76H89.3364C89.4164 188.76 89.4844 188.788 89.5404 188.844C89.5964 188.9 89.6244 188.972 89.6244 189.06V194.952C89.6244 195.44 89.5324 195.856 89.3484 196.2C89.1644 196.552 88.8884 196.82 88.5204 197.004C88.1604 197.188 87.7124 197.28 87.1764 197.28H86.6124ZM88.0404 187.8C87.9604 187.8 87.8924 187.772 87.8364 187.716C87.7804 187.66 87.7524 187.588 87.7524 187.5V186.54C87.7524 186.452 87.7804 186.38 87.8364 186.324C87.8924 186.26 87.9604 186.228 88.0404 186.228H89.3604C89.4484 186.228 89.5204 186.26 89.5764 186.324C89.6324 186.38 89.6604 186.452 89.6604 186.54V187.5C89.6604 187.588 89.6324 187.66 89.5764 187.716C89.5204 187.772 89.4484 187.8 89.3604 187.8H88.0404ZM94.0373 195C93.9653 195 93.9053 194.976 93.8573 194.928C93.8093 194.88 93.7853 194.82 93.7853 194.748V189C93.7853 188.936 93.8093 188.88 93.8573 188.832C93.9053 188.784 93.9613 188.76 94.0253 188.76H95.2013C95.3453 188.76 95.4573 188.832 95.5373 188.976L97.2893 192.108L99.0293 188.976C99.1093 188.832 99.2213 188.76 99.3653 188.76H100.553C100.617 188.76 100.673 188.784 100.721 188.832C100.769 188.88 100.793 188.936 100.793 189V194.748C100.793 194.82 100.769 194.88 100.721 194.928C100.673 194.976 100.613 195 100.541 195H99.2813C99.2013 195 99.1373 194.976 99.0893 194.928C99.0493 194.88 99.0293 194.82 99.0293 194.748V190.608L99.5693 190.716L97.8653 193.776C97.8253 193.848 97.7773 193.912 97.7213 193.968C97.6733 194.024 97.6013 194.052 97.5053 194.052H97.0613C96.9733 194.052 96.9013 194.028 96.8453 193.98C96.7893 193.924 96.7373 193.856 96.6893 193.776L95.0333 190.824L95.5373 190.716V194.748C95.5373 194.82 95.5133 194.88 95.4653 194.928C95.4173 194.976 95.3573 195 95.2853 195H94.0373ZM105.196 195.12C104.532 195.12 103.976 195.012 103.528 194.796C103.08 194.572 102.736 194.256 102.496 193.848C102.264 193.44 102.136 192.964 102.112 192.42C102.104 192.26 102.1 192.08 102.1 191.88C102.1 191.672 102.104 191.492 102.112 191.34C102.136 190.788 102.272 190.312 102.52 189.912C102.768 189.504 103.116 189.192 103.564 188.976C104.012 188.752 104.556 188.64 105.196 188.64C105.828 188.64 106.368 188.752 106.816 188.976C107.264 189.192 107.612 189.504 107.86 189.912C108.108 190.312 108.244 190.788 108.268 191.34C108.284 191.492 108.292 191.672 108.292 191.88C108.292 192.08 108.284 192.26 108.268 192.42C108.244 192.964 108.112 193.44 107.872 193.848C107.64 194.256 107.3 194.572 106.852 194.796C106.404 195.012 105.852 195.12 105.196 195.12ZM105.196 193.8C105.588 193.8 105.884 193.68 106.084 193.44C106.284 193.192 106.392 192.832 106.408 192.36C106.416 192.24 106.42 192.08 106.42 191.88C106.42 191.68 106.416 191.52 106.408 191.4C106.392 190.936 106.284 190.58 106.084 190.332C105.884 190.084 105.588 189.96 105.196 189.96C104.804 189.96 104.504 190.084 104.296 190.332C104.096 190.58 103.988 190.936 103.972 191.4C103.964 191.52 103.96 191.68 103.96 191.88C103.96 192.08 103.964 192.24 103.972 192.36C103.988 192.832 104.096 193.192 104.296 193.44C104.504 193.68 104.804 193.8 105.196 193.8ZM109.799 195C109.727 195 109.667 194.976 109.619 194.928C109.571 194.88 109.547 194.82 109.547 194.748V189C109.547 188.936 109.571 188.88 109.619 188.832C109.667 188.784 109.723 188.76 109.787 188.76H110.963C111.107 188.76 111.219 188.832 111.299 188.976L113.051 192.108L114.791 188.976C114.871 188.832 114.983 188.76 115.127 188.76H116.315C116.379 188.76 116.435 188.784 116.483 188.832C116.531 188.88 116.555 188.936 116.555 189V194.748C116.555 194.82 116.531 194.88 116.483 194.928C116.435 194.976 116.375 195 116.303 195H115.043C114.963 195 114.899 194.976 114.851 194.928C114.811 194.88 114.791 194.82 114.791 194.748V190.608L115.331 190.716L113.627 193.776C113.587 193.848 113.539 193.912 113.483 193.968C113.435 194.024 113.363 194.052 113.267 194.052H112.823C112.735 194.052 112.663 194.028 112.607 193.98C112.551 193.924 112.499 193.856 112.451 193.776L110.795 190.824L111.299 190.716V194.748C111.299 194.82 111.275 194.88 111.227 194.928C111.179 194.976 111.119 195 111.047 195H109.799ZM120.886 195.12C119.966 195.12 119.234 194.864 118.69 194.352C118.154 193.84 117.87 193.096 117.838 192.12C117.838 192.056 117.838 191.972 117.838 191.868C117.838 191.756 117.838 191.668 117.838 191.604C117.87 190.988 118.01 190.46 118.258 190.02C118.506 189.572 118.854 189.232 119.302 189C119.75 188.76 120.274 188.64 120.874 188.64C121.546 188.64 122.106 188.78 122.554 189.06C123.01 189.332 123.35 189.708 123.574 190.188C123.806 190.66 123.922 191.204 123.922 191.82V192.096C123.922 192.176 123.89 192.244 123.826 192.3C123.77 192.356 123.702 192.384 123.622 192.384H119.698C119.698 192.392 119.698 192.408 119.698 192.432C119.698 192.448 119.698 192.464 119.698 192.48C119.706 192.736 119.754 192.972 119.842 193.188C119.938 193.396 120.07 193.564 120.238 193.692C120.414 193.82 120.622 193.884 120.862 193.884C121.062 193.884 121.226 193.856 121.354 193.8C121.482 193.744 121.586 193.676 121.666 193.596C121.754 193.516 121.818 193.448 121.858 193.392C121.93 193.312 121.986 193.264 122.026 193.248C122.074 193.224 122.146 193.212 122.242 193.212H123.49C123.57 193.212 123.634 193.236 123.682 193.284C123.738 193.324 123.762 193.384 123.754 193.464C123.746 193.592 123.678 193.752 123.55 193.944C123.43 194.128 123.25 194.312 123.01 194.496C122.77 194.672 122.47 194.82 122.11 194.94C121.758 195.06 121.35 195.12 120.886 195.12ZM119.698 191.292H122.05V191.268C122.05 190.98 122.002 190.732 121.906 190.524C121.818 190.308 121.686 190.14 121.51 190.02C121.334 189.9 121.122 189.84 120.874 189.84C120.626 189.84 120.414 189.9 120.238 190.02C120.062 190.14 119.926 190.308 119.83 190.524C119.742 190.732 119.698 190.98 119.698 191.268V191.292ZM125.409 195C125.329 195 125.261 194.972 125.205 194.916C125.149 194.86 125.121 194.788 125.121 194.7V189.06C125.121 188.972 125.149 188.9 125.205 188.844C125.261 188.788 125.329 188.76 125.409 188.76H126.609C126.697 188.76 126.769 188.788 126.825 188.844C126.881 188.9 126.909 188.972 126.909 189.06V191.124H129.345V189.06C129.345 188.972 129.373 188.9 129.429 188.844C129.485 188.788 129.557 188.76 129.645 188.76H130.845C130.925 188.76 130.993 188.788 131.049 188.844C131.105 188.9 131.133 188.972 131.133 189.06V194.7C131.133 194.788 131.105 194.86 131.049 194.916C130.993 194.972 130.925 195 130.845 195H129.645C129.557 195 129.485 194.972 129.429 194.916C129.373 194.86 129.345 194.788 129.345 194.7V192.54H126.909V194.7C126.909 194.788 126.881 194.86 126.825 194.916C126.769 194.972 126.697 195 126.609 195H125.409ZM134.576 195C134.488 195 134.416 194.972 134.36 194.916C134.304 194.86 134.276 194.788 134.276 194.7V190.176H132.392C132.304 190.176 132.232 190.148 132.176 190.092C132.12 190.036 132.092 189.964 132.092 189.876V189.06C132.092 188.972 132.12 188.9 132.176 188.844C132.232 188.788 132.304 188.76 132.392 188.76H137.924C138.012 188.76 138.084 188.788 138.14 188.844C138.196 188.9 138.224 188.972 138.224 189.06V189.876C138.224 189.964 138.196 190.036 138.14 190.092C138.084 190.148 138.012 190.176 137.924 190.176H136.04V194.7C136.04 194.788 136.012 194.86 135.956 194.916C135.9 194.972 135.832 195 135.752 195H134.576ZM23.3328 210C23.2608 210 23.1968 209.972 23.1408 209.916C23.0848 209.86 23.0568 209.792 23.0568 209.712V204.06C23.0568 203.972 23.0848 203.9 23.1408 203.844C23.1968 203.788 23.2648 203.76 23.3448 203.76H24.5448C24.6328 203.76 24.7048 203.788 24.7608 203.844C24.8168 203.9 24.8448 203.972 24.8448 204.06V208.62L24.3648 208.344L27.4968 203.952C27.5368 203.896 27.5808 203.852 27.6288 203.82C27.6848 203.78 27.7528 203.76 27.8328 203.76H28.9128C28.9928 203.76 29.0608 203.788 29.1168 203.844C29.1728 203.9 29.2008 203.964 29.2008 204.036V209.7C29.2008 209.788 29.1728 209.86 29.1168 209.916C29.0608 209.972 28.9888 210 28.9008 210H27.7008C27.6208 210 27.5528 209.972 27.4968 209.916C27.4408 209.86 27.4128 209.788 27.4128 209.7V205.32L27.9048 205.404L24.7488 209.808C24.7168 209.864 24.6728 209.912 24.6168 209.952C24.5608 209.984 24.4968 210 24.4248 210H23.3328ZM33.5398 210C33.4678 210 33.4038 209.972 33.3478 209.916C33.2918 209.86 33.2638 209.792 33.2638 209.712V204.06C33.2638 203.972 33.2918 203.9 33.3478 203.844C33.4038 203.788 33.4718 203.76 33.5518 203.76H34.7518C34.8398 203.76 34.9118 203.788 34.9678 203.844C35.0238 203.9 35.0518 203.972 35.0518 204.06V208.62L34.5718 208.344L37.7038 203.952C37.7438 203.896 37.7878 203.852 37.8358 203.82C37.8918 203.78 37.9598 203.76 38.0398 203.76H39.1198C39.1998 203.76 39.2678 203.788 39.3238 203.844C39.3798 203.9 39.4078 203.964 39.4078 204.036V209.7C39.4078 209.788 39.3798 209.86 39.3238 209.916C39.2678 209.972 39.1958 210 39.1078 210H37.9078C37.8278 210 37.7598 209.972 37.7038 209.916C37.6478 209.86 37.6198 209.788 37.6198 209.7V205.32L38.1118 205.404L34.9558 209.808C34.9238 209.864 34.8798 209.912 34.8238 209.952C34.7678 209.984 34.7038 210 34.6318 210H33.5398ZM43.3184 210.12C42.7824 210.12 42.3384 210.06 41.9864 209.94C41.6344 209.82 41.3504 209.668 41.1344 209.484C40.9264 209.292 40.7744 209.092 40.6784 208.884C40.5904 208.676 40.5384 208.488 40.5224 208.32C40.5144 208.256 40.5344 208.204 40.5824 208.164C40.6304 208.116 40.6824 208.092 40.7384 208.092H41.9144C42.0024 208.092 42.0664 208.112 42.1064 208.152C42.1544 208.184 42.1944 208.232 42.2264 208.296C42.3064 208.496 42.4384 208.64 42.6224 208.728C42.8144 208.808 43.0624 208.848 43.3664 208.848C43.5664 208.848 43.7464 208.82 43.9064 208.764C44.0664 208.708 44.1864 208.628 44.2664 208.524C44.3544 208.412 44.3984 208.272 44.3984 208.104C44.3984 207.872 44.3304 207.696 44.1944 207.576C44.0584 207.448 43.8304 207.384 43.5104 207.384H42.8504C42.7704 207.384 42.7064 207.36 42.6584 207.312C42.6104 207.256 42.5864 207.192 42.5864 207.12V206.532C42.5864 206.46 42.6104 206.4 42.6584 206.352C42.7064 206.296 42.7704 206.268 42.8504 206.268H43.4744C43.7384 206.268 43.9344 206.22 44.0624 206.124C44.1904 206.02 44.2544 205.864 44.2544 205.656C44.2544 205.528 44.2224 205.408 44.1584 205.296C44.1024 205.184 44.0064 205.096 43.8704 205.032C43.7344 204.96 43.5464 204.924 43.3064 204.924C42.9704 204.924 42.7304 204.976 42.5864 205.08C42.4424 205.184 42.3344 205.34 42.2624 205.548C42.2304 205.612 42.1904 205.66 42.1424 205.692C42.1024 205.724 42.0384 205.74 41.9504 205.74H40.8104C40.7464 205.74 40.6904 205.72 40.6424 205.68C40.6024 205.64 40.5824 205.588 40.5824 205.524C40.5984 205.308 40.6584 205.092 40.7624 204.876C40.8664 204.652 41.0224 204.448 41.2304 204.264C41.4464 204.072 41.7224 203.92 42.0584 203.808C42.4024 203.696 42.8224 203.64 43.3184 203.64C43.9744 203.64 44.4984 203.724 44.8904 203.892C45.2824 204.06 45.5624 204.28 45.7304 204.552C45.9064 204.816 45.9944 205.104 45.9944 205.416C45.9944 205.696 45.9384 205.948 45.8264 206.172C45.7144 206.388 45.5144 206.568 45.2264 206.712C45.5864 206.848 45.8344 207.056 45.9704 207.336C46.1064 207.616 46.1744 207.916 46.1744 208.236C46.1824 208.628 46.0664 208.964 45.8264 209.244C45.5944 209.524 45.2624 209.74 44.8304 209.892C44.4064 210.044 43.9024 210.12 43.3184 210.12ZM47.6612 210C47.5812 210 47.5132 209.972 47.4572 209.916C47.4012 209.86 47.3732 209.788 47.3732 209.7V204.06C47.3732 203.972 47.4012 203.9 47.4572 203.844C47.5132 203.788 47.5812 203.76 47.6612 203.76H50.3972C51.2932 203.76 51.9492 203.92 52.3652 204.24C52.7892 204.552 53.0012 204.976 53.0012 205.512C53.0012 205.832 52.9412 206.088 52.8212 206.28C52.7012 206.464 52.5332 206.624 52.3172 206.76C52.5892 206.888 52.8012 207.08 52.9532 207.336C53.1132 207.584 53.1932 207.864 53.1932 208.176C53.1932 208.744 52.9732 209.192 52.5332 209.52C52.0932 209.84 51.4332 210 50.5532 210H47.6612ZM49.1012 208.824H50.4452C50.7252 208.824 50.9492 208.772 51.1172 208.668C51.2932 208.556 51.3812 208.384 51.3812 208.152C51.3812 207.912 51.3012 207.74 51.1412 207.636C50.9812 207.532 50.7492 207.48 50.4452 207.48H49.1012V208.824ZM49.1012 206.256H50.3972C50.6852 206.256 50.9132 206.196 51.0812 206.076C51.2492 205.956 51.3332 205.784 51.3332 205.56C51.3332 205.328 51.2492 205.168 51.0812 205.08C50.9132 204.984 50.6852 204.936 50.3972 204.936H49.1012V206.256ZM56.3342 210.12C55.9102 210.12 55.5302 210.04 55.1942 209.88C54.8582 209.712 54.5902 209.488 54.3902 209.208C54.1902 208.928 54.0902 208.616 54.0902 208.272C54.0902 207.704 54.3182 207.256 54.7742 206.928C55.2382 206.6 55.8462 206.376 56.5982 206.256L58.1702 206.028V205.812C58.1702 205.5 58.0982 205.26 57.9542 205.092C57.8102 204.924 57.5582 204.84 57.1982 204.84C56.9342 204.84 56.7222 204.892 56.5622 204.996C56.4022 205.1 56.2782 205.236 56.1902 205.404C56.1262 205.508 56.0342 205.56 55.9142 205.56H54.7742C54.6862 205.56 54.6182 205.536 54.5702 205.488C54.5222 205.432 54.5022 205.368 54.5102 205.296C54.5102 205.16 54.5622 205 54.6662 204.816C54.7702 204.632 54.9302 204.452 55.1462 204.276C55.3622 204.092 55.6382 203.94 55.9742 203.82C56.3102 203.7 56.7222 203.64 57.2102 203.64C57.7142 203.64 58.1462 203.7 58.5062 203.82C58.8662 203.94 59.1542 204.108 59.3702 204.324C59.5862 204.54 59.7462 204.792 59.8502 205.08C59.9542 205.36 60.0062 205.664 60.0062 205.992V209.7C60.0062 209.788 59.9782 209.86 59.9222 209.916C59.8662 209.972 59.7942 210 59.7062 210H58.5302C58.4502 210 58.3822 209.972 58.3262 209.916C58.2702 209.86 58.2422 209.788 58.2422 209.7V209.256C58.1382 209.408 57.9982 209.552 57.8222 209.688C57.6462 209.816 57.4342 209.92 57.1862 210C56.9462 210.08 56.6622 210.12 56.3342 210.12ZM56.8142 208.872C57.0782 208.872 57.3142 208.816 57.5222 208.704C57.7302 208.592 57.8942 208.42 58.0142 208.188C58.1342 207.956 58.1942 207.664 58.1942 207.312V207.108L57.0782 207.288C56.6462 207.36 56.3302 207.468 56.1302 207.612C55.9302 207.756 55.8302 207.932 55.8302 208.14C55.8302 208.292 55.8742 208.424 55.9622 208.536C56.0582 208.648 56.1822 208.732 56.3342 208.788C56.4862 208.844 56.6462 208.872 56.8142 208.872ZM60.4151 212.28C60.3271 212.28 60.2551 212.252 60.1991 212.196C60.1431 212.14 60.1151 212.068 60.1151 211.98V211.164C60.1151 211.076 60.1431 211.004 60.1991 210.948C60.2551 210.892 60.3271 210.864 60.4151 210.864H60.7991C61.0151 210.864 61.1791 210.82 61.2911 210.732C61.4111 210.652 61.4911 210.54 61.5311 210.396C61.5711 210.252 61.5911 210.092 61.5911 209.916V204.06C61.5911 203.972 61.6191 203.9 61.6751 203.844C61.7311 203.788 61.7991 203.76 61.8791 203.76H63.1391C63.2191 203.76 63.2871 203.788 63.3431 203.844C63.3991 203.9 63.4271 203.972 63.4271 204.06V209.952C63.4271 210.44 63.3351 210.856 63.1511 211.2C62.9671 211.552 62.6911 211.82 62.3231 212.004C61.9631 212.188 61.5151 212.28 60.9791 212.28H60.4151ZM61.8431 202.8C61.7631 202.8 61.6951 202.772 61.6391 202.716C61.5831 202.66 61.5551 202.588 61.5551 202.5V201.54C61.5551 201.452 61.5831 201.38 61.6391 201.324C61.6951 201.26 61.7631 201.228 61.8431 201.228H63.1631C63.2511 201.228 63.3231 201.26 63.3791 201.324C63.4351 201.38 63.4631 201.452 63.4631 201.54V202.5C63.4631 202.588 63.4351 202.66 63.3791 202.716C63.3231 202.772 63.2511 202.8 63.1631 202.8H61.8431ZM70.36 210.12C69.776 210.12 69.26 210.012 68.812 209.796C68.372 209.58 68.024 209.268 67.768 208.86C67.512 208.444 67.372 207.948 67.348 207.372C67.34 207.244 67.336 207.084 67.336 206.892C67.336 206.692 67.34 206.528 67.348 206.4C67.372 205.816 67.508 205.32 67.756 204.912C68.012 204.496 68.364 204.18 68.812 203.964C69.26 203.748 69.776 203.64 70.36 203.64C70.896 203.64 71.352 203.716 71.728 203.868C72.104 204.012 72.412 204.196 72.652 204.42C72.892 204.644 73.068 204.88 73.18 205.128C73.3 205.368 73.364 205.58 73.372 205.764C73.38 205.844 73.352 205.916 73.288 205.98C73.232 206.036 73.164 206.064 73.084 206.064H71.8C71.72 206.064 71.656 206.044 71.608 206.004C71.568 205.956 71.528 205.892 71.488 205.812C71.376 205.532 71.232 205.332 71.056 205.212C70.88 205.092 70.66 205.032 70.396 205.032C70.036 205.032 69.752 205.148 69.544 205.38C69.336 205.612 69.224 205.972 69.208 206.46C69.2 206.772 69.2 207.056 69.208 207.312C69.232 207.808 69.344 208.168 69.544 208.392C69.752 208.616 70.036 208.728 70.396 208.728C70.676 208.728 70.9 208.668 71.068 208.548C71.236 208.428 71.376 208.228 71.488 207.948C71.52 207.868 71.56 207.808 71.608 207.768C71.656 207.72 71.72 207.696 71.8 207.696H73.084C73.164 207.696 73.232 207.728 73.288 207.792C73.352 207.848 73.38 207.916 73.372 207.996C73.364 208.132 73.324 208.292 73.252 208.476C73.188 208.66 73.08 208.848 72.928 209.04C72.784 209.232 72.596 209.412 72.364 209.58C72.132 209.74 71.848 209.872 71.512 209.976C71.184 210.072 70.8 210.12 70.36 210.12ZM77.333 210.12C76.413 210.12 75.681 209.864 75.137 209.352C74.601 208.84 74.317 208.096 74.285 207.12C74.285 207.056 74.285 206.972 74.285 206.868C74.285 206.756 74.285 206.668 74.285 206.604C74.317 205.988 74.457 205.46 74.705 205.02C74.953 204.572 75.301 204.232 75.749 204C76.197 203.76 76.721 203.64 77.321 203.64C77.993 203.64 78.553 203.78 79.001 204.06C79.457 204.332 79.797 204.708 80.021 205.188C80.253 205.66 80.369 206.204 80.369 206.82V207.096C80.369 207.176 80.337 207.244 80.273 207.3C80.217 207.356 80.149 207.384 80.069 207.384H76.145C76.145 207.392 76.145 207.408 76.145 207.432C76.145 207.448 76.145 207.464 76.145 207.48C76.153 207.736 76.201 207.972 76.289 208.188C76.385 208.396 76.517 208.564 76.685 208.692C76.861 208.82 77.069 208.884 77.309 208.884C77.509 208.884 77.673 208.856 77.801 208.8C77.929 208.744 78.033 208.676 78.113 208.596C78.201 208.516 78.265 208.448 78.305 208.392C78.377 208.312 78.433 208.264 78.473 208.248C78.521 208.224 78.593 208.212 78.689 208.212H79.937C80.017 208.212 80.081 208.236 80.129 208.284C80.185 208.324 80.209 208.384 80.201 208.464C80.193 208.592 80.125 208.752 79.997 208.944C79.877 209.128 79.697 209.312 79.457 209.496C79.217 209.672 78.917 209.82 78.557 209.94C78.205 210.06 77.797 210.12 77.333 210.12ZM76.145 206.292H78.497V206.268C78.497 205.98 78.449 205.732 78.353 205.524C78.265 205.308 78.133 205.14 77.957 205.02C77.781 204.9 77.569 204.84 77.321 204.84C77.073 204.84 76.861 204.9 76.685 205.02C76.509 205.14 76.373 205.308 76.277 205.524C76.189 205.732 76.145 205.98 76.145 206.268V206.292ZM87.0729 210.12C86.4089 210.12 85.8529 210.012 85.4049 209.796C84.9569 209.572 84.6129 209.256 84.3729 208.848C84.1409 208.44 84.0129 207.964 83.9889 207.42C83.9809 207.26 83.9769 207.08 83.9769 206.88C83.9769 206.672 83.9809 206.492 83.9889 206.34C84.0129 205.788 84.1489 205.312 84.3969 204.912C84.6449 204.504 84.9929 204.192 85.4409 203.976C85.8889 203.752 86.4329 203.64 87.0729 203.64C87.7049 203.64 88.2449 203.752 88.6929 203.976C89.1409 204.192 89.4889 204.504 89.7369 204.912C89.9849 205.312 90.1209 205.788 90.1449 206.34C90.1609 206.492 90.1689 206.672 90.1689 206.88C90.1689 207.08 90.1609 207.26 90.1449 207.42C90.1209 207.964 89.9889 208.44 89.7489 208.848C89.5169 209.256 89.1769 209.572 88.7289 209.796C88.2809 210.012 87.7289 210.12 87.0729 210.12ZM87.0729 208.8C87.4649 208.8 87.7609 208.68 87.9609 208.44C88.1609 208.192 88.2689 207.832 88.2849 207.36C88.2929 207.24 88.2969 207.08 88.2969 206.88C88.2969 206.68 88.2929 206.52 88.2849 206.4C88.2689 205.936 88.1609 205.58 87.9609 205.332C87.7609 205.084 87.4649 204.96 87.0729 204.96C86.6809 204.96 86.3809 205.084 86.1729 205.332C85.9729 205.58 85.8649 205.936 85.8489 206.4C85.8409 206.52 85.8369 206.68 85.8369 206.88C85.8369 207.08 85.8409 207.24 85.8489 207.36C85.8649 207.832 85.9729 208.192 86.1729 208.44C86.3809 208.68 86.6809 208.8 87.0729 208.8ZM91.232 211.32C91.152 211.32 91.084 211.292 91.028 211.236C90.972 211.18 90.944 211.108 90.944 211.02V208.884C90.944 208.796 90.972 208.724 91.028 208.668C91.084 208.612 91.152 208.584 91.232 208.584H91.34C91.548 208.584 91.712 208.476 91.832 208.26C91.96 208.044 92.052 207.724 92.108 207.3C92.164 206.876 92.192 206.344 92.192 205.704V204.06C92.192 203.972 92.22 203.9 92.276 203.844C92.332 203.788 92.4 203.76 92.48 203.76H96.968C97.056 203.76 97.128 203.788 97.184 203.844C97.24 203.9 97.268 203.972 97.268 204.06V208.572H97.796C97.876 208.572 97.944 208.6 98 208.656C98.056 208.712 98.084 208.784 98.084 208.872V211.02C98.084 211.108 98.056 211.18 98 211.236C97.944 211.292 97.876 211.32 97.796 211.32H96.596C96.508 211.32 96.436 211.292 96.38 211.236C96.324 211.18 96.296 211.108 96.296 211.02V210H92.732V211.02C92.732 211.108 92.704 211.18 92.648 211.236C92.592 211.292 92.52 211.32 92.432 211.32H91.232ZM93.404 208.584L95.48 208.572V205.176H93.896V205.908C93.896 206.564 93.852 207.112 93.764 207.552C93.684 207.992 93.564 208.336 93.404 208.584ZM104.544 210.12C103.96 210.12 103.444 210.012 102.996 209.796C102.556 209.58 102.208 209.268 101.952 208.86C101.696 208.444 101.556 207.948 101.532 207.372C101.524 207.244 101.52 207.084 101.52 206.892C101.52 206.692 101.524 206.528 101.532 206.4C101.556 205.816 101.692 205.32 101.94 204.912C102.196 204.496 102.548 204.18 102.996 203.964C103.444 203.748 103.96 203.64 104.544 203.64C105.08 203.64 105.536 203.716 105.912 203.868C106.288 204.012 106.596 204.196 106.836 204.42C107.076 204.644 107.252 204.88 107.364 205.128C107.484 205.368 107.548 205.58 107.556 205.764C107.564 205.844 107.536 205.916 107.472 205.98C107.416 206.036 107.348 206.064 107.268 206.064H105.984C105.904 206.064 105.84 206.044 105.792 206.004C105.752 205.956 105.712 205.892 105.672 205.812C105.56 205.532 105.416 205.332 105.24 205.212C105.064 205.092 104.844 205.032 104.58 205.032C104.22 205.032 103.936 205.148 103.728 205.38C103.52 205.612 103.408 205.972 103.392 206.46C103.384 206.772 103.384 207.056 103.392 207.312C103.416 207.808 103.528 208.168 103.728 208.392C103.936 208.616 104.22 208.728 104.58 208.728C104.86 208.728 105.084 208.668 105.252 208.548C105.42 208.428 105.56 208.228 105.672 207.948C105.704 207.868 105.744 207.808 105.792 207.768C105.84 207.72 105.904 207.696 105.984 207.696H107.268C107.348 207.696 107.416 207.728 107.472 207.792C107.536 207.848 107.564 207.916 107.556 207.996C107.548 208.132 107.508 208.292 107.436 208.476C107.372 208.66 107.264 208.848 107.112 209.04C106.968 209.232 106.78 209.412 106.548 209.58C106.316 209.74 106.032 209.872 105.696 209.976C105.368 210.072 104.984 210.12 104.544 210.12ZM111.517 210.12C110.597 210.12 109.865 209.864 109.321 209.352C108.785 208.84 108.501 208.096 108.469 207.12C108.469 207.056 108.469 206.972 108.469 206.868C108.469 206.756 108.469 206.668 108.469 206.604C108.501 205.988 108.641 205.46 108.889 205.02C109.137 204.572 109.485 204.232 109.933 204C110.381 203.76 110.905 203.64 111.505 203.64C112.177 203.64 112.737 203.78 113.185 204.06C113.641 204.332 113.981 204.708 114.205 205.188C114.437 205.66 114.553 206.204 114.553 206.82V207.096C114.553 207.176 114.521 207.244 114.457 207.3C114.401 207.356 114.333 207.384 114.253 207.384H110.329C110.329 207.392 110.329 207.408 110.329 207.432C110.329 207.448 110.329 207.464 110.329 207.48C110.337 207.736 110.385 207.972 110.473 208.188C110.569 208.396 110.701 208.564 110.869 208.692C111.045 208.82 111.253 208.884 111.493 208.884C111.693 208.884 111.857 208.856 111.985 208.8C112.113 208.744 112.217 208.676 112.297 208.596C112.385 208.516 112.449 208.448 112.489 208.392C112.561 208.312 112.617 208.264 112.657 208.248C112.705 208.224 112.777 208.212 112.873 208.212H114.121C114.201 208.212 114.265 208.236 114.313 208.284C114.369 208.324 114.393 208.384 114.385 208.464C114.377 208.592 114.309 208.752 114.181 208.944C114.061 209.128 113.881 209.312 113.641 209.496C113.401 209.672 113.101 209.82 112.741 209.94C112.389 210.06 111.981 210.12 111.517 210.12ZM110.329 206.292H112.681V206.268C112.681 205.98 112.633 205.732 112.537 205.524C112.449 205.308 112.317 205.14 112.141 205.02C111.965 204.9 111.753 204.84 111.505 204.84C111.257 204.84 111.045 204.9 110.869 205.02C110.693 205.14 110.557 205.308 110.461 205.524C110.373 205.732 110.329 205.98 110.329 206.268V206.292ZM116.04 210C115.96 210 115.892 209.972 115.836 209.916C115.78 209.86 115.752 209.788 115.752 209.7V204.06C115.752 203.972 115.78 203.9 115.836 203.844C115.892 203.788 115.96 203.76 116.04 203.76H117.216C117.304 203.76 117.376 203.788 117.432 203.844C117.488 203.9 117.516 203.972 117.516 204.06V206.124H118.272L119.664 203.952C119.688 203.904 119.724 203.86 119.772 203.82C119.828 203.78 119.9 203.76 119.988 203.76H121.296C121.368 203.76 121.428 203.784 121.476 203.832C121.532 203.872 121.56 203.924 121.56 203.988C121.56 204.012 121.552 204.04 121.536 204.072C121.528 204.104 121.516 204.132 121.5 204.156L119.808 206.772L121.764 209.616C121.796 209.664 121.812 209.716 121.812 209.772C121.812 209.836 121.788 209.892 121.74 209.94C121.692 209.98 121.632 210 121.56 210H120.108C120.028 210 119.96 209.984 119.904 209.952C119.856 209.912 119.812 209.864 119.772 209.808L118.26 207.552H117.516V209.7C117.516 209.788 117.488 209.86 117.432 209.916C117.376 209.972 117.304 210 117.216 210H116.04ZM125.663 210.12C124.999 210.12 124.443 210.012 123.995 209.796C123.547 209.572 123.203 209.256 122.963 208.848C122.731 208.44 122.603 207.964 122.579 207.42C122.571 207.26 122.567 207.08 122.567 206.88C122.567 206.672 122.571 206.492 122.579 206.34C122.603 205.788 122.739 205.312 122.987 204.912C123.235 204.504 123.583 204.192 124.031 203.976C124.479 203.752 125.023 203.64 125.663 203.64C126.295 203.64 126.835 203.752 127.283 203.976C127.731 204.192 128.079 204.504 128.327 204.912C128.575 205.312 128.711 205.788 128.735 206.34C128.751 206.492 128.759 206.672 128.759 206.88C128.759 207.08 128.751 207.26 128.735 207.42C128.711 207.964 128.579 208.44 128.339 208.848C128.107 209.256 127.767 209.572 127.319 209.796C126.871 210.012 126.319 210.12 125.663 210.12ZM125.663 208.8C126.055 208.8 126.351 208.68 126.551 208.44C126.751 208.192 126.859 207.832 126.875 207.36C126.883 207.24 126.887 207.08 126.887 206.88C126.887 206.68 126.883 206.52 126.875 206.4C126.859 205.936 126.751 205.58 126.551 205.332C126.351 205.084 126.055 204.96 125.663 204.96C125.271 204.96 124.971 205.084 124.763 205.332C124.563 205.58 124.455 205.936 124.439 206.4C124.431 206.52 124.427 206.68 124.427 206.88C124.427 207.08 124.431 207.24 124.439 207.36C124.455 207.832 124.563 208.192 124.763 208.44C124.971 208.68 125.271 208.8 125.663 208.8ZM128.97 212.28C128.882 212.28 128.81 212.252 128.754 212.196C128.698 212.14 128.67 212.068 128.67 211.98V211.164C128.67 211.076 128.698 211.004 128.754 210.948C128.81 210.892 128.882 210.864 128.97 210.864H129.354C129.57 210.864 129.734 210.82 129.846 210.732C129.966 210.652 130.046 210.54 130.086 210.396C130.126 210.252 130.146 210.092 130.146 209.916V204.06C130.146 203.972 130.174 203.9 130.23 203.844C130.286 203.788 130.354 203.76 130.434 203.76H131.694C131.774 203.76 131.842 203.788 131.898 203.844C131.954 203.9 131.982 203.972 131.982 204.06V209.952C131.982 210.44 131.89 210.856 131.706 211.2C131.522 211.552 131.246 211.82 130.878 212.004C130.518 212.188 130.07 212.28 129.534 212.28H128.97ZM130.398 202.8C130.318 202.8 130.25 202.772 130.194 202.716C130.138 202.66 130.11 202.588 130.11 202.5V201.54C130.11 201.452 130.138 201.38 130.194 201.324C130.25 201.26 130.318 201.228 130.398 201.228H131.718C131.806 201.228 131.878 201.26 131.934 201.324C131.99 201.38 132.018 201.452 132.018 201.54V202.5C132.018 202.588 131.99 202.66 131.934 202.716C131.878 202.772 131.806 202.8 131.718 202.8H130.398ZM135.33 210.12C134.906 210.12 134.526 210.04 134.19 209.88C133.854 209.712 133.586 209.488 133.386 209.208C133.186 208.928 133.086 208.616 133.086 208.272C133.086 207.704 133.314 207.256 133.77 206.928C134.234 206.6 134.842 206.376 135.594 206.256L137.166 206.028V205.812C137.166 205.5 137.094 205.26 136.95 205.092C136.806 204.924 136.554 204.84 136.194 204.84C135.93 204.84 135.718 204.892 135.558 204.996C135.398 205.1 135.274 205.236 135.186 205.404C135.122 205.508 135.03 205.56 134.91 205.56H133.77C133.682 205.56 133.614 205.536 133.566 205.488C133.518 205.432 133.498 205.368 133.506 205.296C133.506 205.16 133.558 205 133.662 204.816C133.766 204.632 133.926 204.452 134.142 204.276C134.358 204.092 134.634 203.94 134.97 203.82C135.306 203.7 135.718 203.64 136.206 203.64C136.71 203.64 137.142 203.7 137.502 203.82C137.862 203.94 138.15 204.108 138.366 204.324C138.582 204.54 138.742 204.792 138.846 205.08C138.95 205.36 139.002 205.664 139.002 205.992V209.7C139.002 209.788 138.974 209.86 138.918 209.916C138.862 209.972 138.79 210 138.702 210H137.526C137.446 210 137.378 209.972 137.322 209.916C137.266 209.86 137.238 209.788 137.238 209.7V209.256C137.134 209.408 136.994 209.552 136.818 209.688C136.642 209.816 136.43 209.92 136.182 210C135.942 210.08 135.658 210.12 135.33 210.12ZM135.81 208.872C136.074 208.872 136.31 208.816 136.518 208.704C136.726 208.592 136.89 208.42 137.01 208.188C137.13 207.956 137.19 207.664 137.19 207.312V207.108L136.074 207.288C135.642 207.36 135.326 207.468 135.126 207.612C134.926 207.756 134.826 207.932 134.826 208.14C134.826 208.292 134.87 208.424 134.958 208.536C135.054 208.648 135.178 208.732 135.33 208.788C135.482 208.844 135.642 208.872 135.81 208.872ZM54.1882 225.12C53.6042 225.12 53.0882 225.012 52.6402 224.796C52.2002 224.58 51.8522 224.268 51.5962 223.86C51.3402 223.444 51.2002 222.948 51.1762 222.372C51.1682 222.244 51.1642 222.084 51.1642 221.892C51.1642 221.692 51.1682 221.528 51.1762 221.4C51.2002 220.816 51.3362 220.32 51.5842 219.912C51.8402 219.496 52.1922 219.18 52.6402 218.964C53.0882 218.748 53.6042 218.64 54.1882 218.64C54.7242 218.64 55.1802 218.716 55.5562 218.868C55.9322 219.012 56.2402 219.196 56.4802 219.42C56.7202 219.644 56.8962 219.88 57.0082 220.128C57.1282 220.368 57.1922 220.58 57.2002 220.764C57.2082 220.844 57.1802 220.916 57.1162 220.98C57.0602 221.036 56.9922 221.064 56.9122 221.064H55.6282C55.5482 221.064 55.4842 221.044 55.4362 221.004C55.3962 220.956 55.3562 220.892 55.3162 220.812C55.2042 220.532 55.0602 220.332 54.8842 220.212C54.7082 220.092 54.4882 220.032 54.2242 220.032C53.8642 220.032 53.5802 220.148 53.3722 220.38C53.1642 220.612 53.0522 220.972 53.0362 221.46C53.0282 221.772 53.0282 222.056 53.0362 222.312C53.0602 222.808 53.1722 223.168 53.3722 223.392C53.5802 223.616 53.8642 223.728 54.2242 223.728C54.5042 223.728 54.7282 223.668 54.8962 223.548C55.0642 223.428 55.2042 223.228 55.3162 222.948C55.3482 222.868 55.3882 222.808 55.4362 222.768C55.4842 222.72 55.5482 222.696 55.6282 222.696H56.9122C56.9922 222.696 57.0602 222.728 57.1162 222.792C57.1802 222.848 57.2082 222.916 57.2002 222.996C57.1922 223.132 57.1522 223.292 57.0802 223.476C57.0162 223.66 56.9082 223.848 56.7562 224.04C56.6122 224.232 56.4242 224.412 56.1922 224.58C55.9602 224.74 55.6762 224.872 55.3402 224.976C55.0122 225.072 54.6282 225.12 54.1882 225.12ZM58.6531 225C58.5811 225 58.5171 224.972 58.4611 224.916C58.4051 224.86 58.3771 224.792 58.3771 224.712V219.06C58.3771 218.972 58.4051 218.9 58.4611 218.844C58.5171 218.788 58.5851 218.76 58.6651 218.76H59.8651C59.9531 218.76 60.0251 218.788 60.0811 218.844C60.1371 218.9 60.1651 218.972 60.1651 219.06V223.62L59.6851 223.344L62.8171 218.952C62.8571 218.896 62.9011 218.852 62.9491 218.82C63.0051 218.78 63.0731 218.76 63.1531 218.76H64.2331C64.3131 218.76 64.3811 218.788 64.4371 218.844C64.4931 218.9 64.5211 218.964 64.5211 219.036V224.7C64.5211 224.788 64.4931 224.86 64.4371 224.916C64.3811 224.972 64.3091 225 64.2211 225H63.0211C62.9411 225 62.8731 224.972 62.8171 224.916C62.7611 224.86 62.7331 224.788 62.7331 224.7V220.32L63.2251 220.404L60.0691 224.808C60.0371 224.864 59.9931 224.912 59.9371 224.952C59.8811 224.984 59.8171 225 59.7451 225H58.6531ZM67.8317 225C67.7437 225 67.6717 224.972 67.6157 224.916C67.5597 224.86 67.5317 224.788 67.5317 224.7V220.176H65.6477C65.5597 220.176 65.4877 220.148 65.4317 220.092C65.3757 220.036 65.3477 219.964 65.3477 219.876V219.06C65.3477 218.972 65.3757 218.9 65.4317 218.844C65.4877 218.788 65.5597 218.76 65.6477 218.76H71.1797C71.2677 218.76 71.3397 218.788 71.3957 218.844C71.4517 218.9 71.4797 218.972 71.4797 219.06V219.876C71.4797 219.964 71.4517 220.036 71.3957 220.092C71.3397 220.148 71.2677 220.176 71.1797 220.176H69.2957V224.7C69.2957 224.788 69.2677 224.86 69.2117 224.916C69.1557 224.972 69.0877 225 69.0077 225H67.8317ZM72.9204 227.292C72.8324 227.292 72.7604 227.26 72.7044 227.196C72.6484 227.14 72.6204 227.072 72.6204 226.992V226.164C72.6204 226.084 72.6484 226.016 72.7044 225.96C72.7604 225.904 72.8324 225.876 72.9204 225.876H73.3164C73.4684 225.876 73.5924 225.844 73.6884 225.78C73.7924 225.724 73.8844 225.628 73.9644 225.492C74.0444 225.356 74.1364 225.168 74.2404 224.928L76.6884 219C76.7124 218.936 76.7484 218.88 76.7964 218.832C76.8524 218.784 76.9284 218.76 77.0244 218.76H78.1284C78.1924 218.76 78.2484 218.788 78.2964 218.844C78.3524 218.892 78.3804 218.948 78.3804 219.012C78.3804 219.028 78.3764 219.052 78.3684 219.084C78.3684 219.108 78.3604 219.14 78.3444 219.18L76.0644 224.652C75.9124 225.02 75.7524 225.364 75.5844 225.684C75.4244 226.004 75.2484 226.284 75.0564 226.524C74.8644 226.764 74.6364 226.952 74.3724 227.088C74.1164 227.224 73.8204 227.292 73.4844 227.292H72.9204ZM74.3964 224.856L71.9604 219.18C71.9284 219.116 71.9124 219.064 71.9124 219.024C71.9204 218.952 71.9484 218.892 71.9964 218.844C72.0524 218.788 72.1164 218.76 72.1884 218.76H73.3404C73.4364 218.76 73.5084 218.788 73.5564 218.844C73.6044 218.892 73.6404 218.944 73.6644 219L75.4644 223.488L74.3964 224.856ZM81.2131 225.12C80.7891 225.12 80.4091 225.04 80.0731 224.88C79.7371 224.712 79.4691 224.488 79.2691 224.208C79.0691 223.928 78.9691 223.616 78.9691 223.272C78.9691 222.704 79.1971 222.256 79.6531 221.928C80.1171 221.6 80.7251 221.376 81.4771 221.256L83.0491 221.028V220.812C83.0491 220.5 82.9771 220.26 82.8331 220.092C82.6891 219.924 82.4371 219.84 82.0771 219.84C81.8131 219.84 81.6011 219.892 81.4411 219.996C81.2811 220.1 81.1571 220.236 81.0691 220.404C81.0051 220.508 80.9131 220.56 80.7931 220.56H79.6531C79.5651 220.56 79.4971 220.536 79.4491 220.488C79.4011 220.432 79.3811 220.368 79.3891 220.296C79.3891 220.16 79.4411 220 79.5451 219.816C79.6491 219.632 79.8091 219.452 80.0251 219.276C80.2411 219.092 80.5171 218.94 80.8531 218.82C81.1891 218.7 81.6011 218.64 82.0891 218.64C82.5931 218.64 83.0251 218.7 83.3851 218.82C83.7451 218.94 84.0331 219.108 84.2491 219.324C84.4651 219.54 84.6251 219.792 84.7291 220.08C84.8331 220.36 84.8851 220.664 84.8851 220.992V224.7C84.8851 224.788 84.8571 224.86 84.8011 224.916C84.7451 224.972 84.6731 225 84.5851 225H83.4091C83.3291 225 83.2611 224.972 83.2051 224.916C83.1491 224.86 83.1211 224.788 83.1211 224.7V224.256C83.0171 224.408 82.8771 224.552 82.7011 224.688C82.5251 224.816 82.3131 224.92 82.0651 225C81.8251 225.08 81.5411 225.12 81.2131 225.12ZM81.6931 223.872C81.9571 223.872 82.1931 223.816 82.4011 223.704C82.6091 223.592 82.7731 223.42 82.8931 223.188C83.0131 222.956 83.0731 222.664 83.0731 222.312V222.108L81.9571 222.288C81.5251 222.36 81.2091 222.468 81.0091 222.612C80.8091 222.756 80.7091 222.932 80.7091 223.14C80.7091 223.292 80.7531 223.424 80.8411 223.536C80.9371 223.648 81.0611 223.732 81.2131 223.788C81.3651 223.844 81.5251 223.872 81.6931 223.872ZM91.558 226.44C91.478 226.44 91.41 226.412 91.354 226.356C91.298 226.3 91.27 226.228 91.27 226.14V225H86.626C86.546 225 86.478 224.972 86.422 224.916C86.366 224.86 86.338 224.788 86.338 224.7V219.06C86.338 218.972 86.366 218.9 86.422 218.844C86.478 218.788 86.546 218.76 86.626 218.76H87.826C87.914 218.76 87.986 218.788 88.042 218.844C88.098 218.9 88.126 218.972 88.126 219.06V223.584H90.442V219.06C90.442 218.972 90.47 218.9 90.526 218.844C90.582 218.788 90.654 218.76 90.742 218.76H91.942C92.022 218.76 92.09 218.788 92.146 218.844C92.202 218.9 92.23 218.972 92.23 219.06V223.584H92.758C92.846 223.584 92.918 223.612 92.974 223.668C93.03 223.724 93.058 223.796 93.058 223.884V226.14C93.058 226.228 93.03 226.3 92.974 226.356C92.918 226.412 92.846 226.44 92.758 226.44H91.558ZM94.3718 225C94.2998 225 94.2358 224.972 94.1798 224.916C94.1238 224.86 94.0958 224.792 94.0958 224.712V219.06C94.0958 218.972 94.1238 218.9 94.1798 218.844C94.2358 218.788 94.3038 218.76 94.3838 218.76H95.5838C95.6718 218.76 95.7438 218.788 95.7998 218.844C95.8558 218.9 95.8838 218.972 95.8838 219.06V223.62L95.4038 223.344L98.5358 218.952C98.5758 218.896 98.6198 218.852 98.6678 218.82C98.7238 218.78 98.7918 218.76 98.8718 218.76H99.9518C100.032 218.76 100.1 218.788 100.156 218.844C100.212 218.9 100.24 218.964 100.24 219.036V224.7C100.24 224.788 100.212 224.86 100.156 224.916C100.1 224.972 100.028 225 99.9398 225H98.7398C98.6598 225 98.5918 224.972 98.5358 224.916C98.4798 224.86 98.4518 224.788 98.4518 224.7V220.32L98.9438 220.404L95.7878 224.808C95.7558 224.864 95.7118 224.912 95.6558 224.952C95.5998 224.984 95.5358 225 95.4638 225H94.3718ZM100.61 227.28C100.522 227.28 100.45 227.252 100.394 227.196C100.338 227.14 100.31 227.068 100.31 226.98V226.164C100.31 226.076 100.338 226.004 100.394 225.948C100.45 225.892 100.522 225.864 100.61 225.864H100.994C101.21 225.864 101.374 225.82 101.486 225.732C101.606 225.652 101.686 225.54 101.726 225.396C101.766 225.252 101.786 225.092 101.786 224.916V219.06C101.786 218.972 101.814 218.9 101.87 218.844C101.926 218.788 101.994 218.76 102.074 218.76H103.334C103.414 218.76 103.482 218.788 103.538 218.844C103.594 218.9 103.622 218.972 103.622 219.06V224.952C103.622 225.44 103.53 225.856 103.346 226.2C103.162 226.552 102.886 226.82 102.518 227.004C102.158 227.188 101.71 227.28 101.174 227.28H100.61ZM102.038 217.8C101.958 217.8 101.89 217.772 101.834 217.716C101.778 217.66 101.75 217.588 101.75 217.5V216.54C101.75 216.452 101.778 216.38 101.834 216.324C101.89 216.26 101.958 216.228 102.038 216.228H103.358C103.446 216.228 103.518 216.26 103.574 216.324C103.63 216.38 103.658 216.452 103.658 216.54V217.5C103.658 217.588 103.63 217.66 103.574 217.716C103.518 217.772 103.446 217.8 103.358 217.8H102.038ZM106.971 225.12C106.547 225.12 106.167 225.04 105.831 224.88C105.495 224.712 105.227 224.488 105.027 224.208C104.827 223.928 104.727 223.616 104.727 223.272C104.727 222.704 104.955 222.256 105.411 221.928C105.875 221.6 106.483 221.376 107.235 221.256L108.807 221.028V220.812C108.807 220.5 108.735 220.26 108.591 220.092C108.447 219.924 108.195 219.84 107.835 219.84C107.571 219.84 107.359 219.892 107.199 219.996C107.039 220.1 106.915 220.236 106.827 220.404C106.763 220.508 106.671 220.56 106.551 220.56H105.411C105.323 220.56 105.255 220.536 105.207 220.488C105.159 220.432 105.139 220.368 105.147 220.296C105.147 220.16 105.199 220 105.303 219.816C105.407 219.632 105.567 219.452 105.783 219.276C105.999 219.092 106.275 218.94 106.611 218.82C106.947 218.7 107.359 218.64 107.847 218.64C108.351 218.64 108.783 218.7 109.143 218.82C109.503 218.94 109.791 219.108 110.007 219.324C110.223 219.54 110.383 219.792 110.487 220.08C110.591 220.36 110.643 220.664 110.643 220.992V224.7C110.643 224.788 110.615 224.86 110.559 224.916C110.503 224.972 110.431 225 110.343 225H109.167C109.087 225 109.019 224.972 108.963 224.916C108.907 224.86 108.879 224.788 108.879 224.7V224.256C108.775 224.408 108.635 224.552 108.459 224.688C108.283 224.816 108.071 224.92 107.823 225C107.583 225.08 107.299 225.12 106.971 225.12ZM107.451 223.872C107.715 223.872 107.951 223.816 108.159 223.704C108.367 223.592 108.531 223.42 108.651 223.188C108.771 222.956 108.831 222.664 108.831 222.312V222.108L107.715 222.288C107.283 222.36 106.967 222.468 106.767 222.612C106.567 222.756 106.467 222.932 106.467 223.14C106.467 223.292 106.511 223.424 106.599 223.536C106.695 223.648 106.819 223.732 106.971 223.788C107.123 223.844 107.283 223.872 107.451 223.872Z" fill="black"/>
<path d="M125.832 40.3199H120V35.9165H125.479V32.1746H120V23.4403L122.767 25.9356L125.534 23.4403L125.479 30.0146M131.786 29.8414V27.9905M131.786 27.9905V23H137.32V27.9905H131.786ZM131.786 27.9905L137.32 31.9535L131.786 35.7697M131.786 35.7697H137.32V40.3199H131.786V35.7697ZM131.786 35.7697V33.775V32.2133" stroke="white" stroke-miterlimit="16" stroke-linecap="square"/>
<path d="M126.66 33.4858L130.659 29.4868" stroke="white" stroke-miterlimit="16"/>
<path d="M126.7 29.5269L130.619 33.4459" stroke="white" stroke-miterlimit="16"/>
<path d="M57.9296 82.704C57.7829 82.704 57.6656 82.6527 57.5776 82.55C57.5042 82.4473 57.4822 82.3153 57.5116 82.154L57.8416 80.592C56.4482 80.592 55.2822 80.3647 54.3436 79.91C53.4196 79.4407 52.7522 78.7733 52.3416 77.908C51.9309 77.0427 51.8062 76.0087 51.9676 74.806C51.9822 74.674 52.0042 74.5053 52.0336 74.3C52.0776 74.0947 52.1216 73.8893 52.1656 73.684C52.2242 73.464 52.2682 73.2953 52.2976 73.178C52.6349 71.902 53.1922 70.8387 53.9696 69.988C54.7469 69.1227 55.7002 68.47 56.8296 68.03C57.9736 67.5753 59.2496 67.348 60.6576 67.348L60.9216 66.028C60.9656 65.8813 61.0462 65.7567 61.1636 65.654C61.2956 65.5367 61.4349 65.478 61.5816 65.478H64.0016C64.1629 65.478 64.2802 65.5367 64.3536 65.654C64.4416 65.7567 64.4636 65.8813 64.4196 66.028L64.1556 67.348C65.4902 67.348 66.6269 67.59 67.5656 68.074C68.5189 68.5433 69.2156 69.2253 69.6556 70.12C70.0956 71 70.2129 72.056 70.0076 73.288C69.9636 73.552 69.9196 73.7867 69.8756 73.992C69.8462 74.1973 69.7876 74.4687 69.6996 74.806C69.1276 76.7273 68.1376 78.172 66.7296 79.14C65.3216 80.108 63.5249 80.592 61.3396 80.592L61.0096 82.154C60.9802 82.3153 60.8996 82.4473 60.7676 82.55C60.6502 82.6527 60.5109 82.704 60.3496 82.704H57.9296ZM58.4796 77.754L60.0856 70.186C59.0002 70.186 58.1056 70.4353 57.4016 70.934C56.6976 71.418 56.1916 72.1953 55.8836 73.266C55.8249 73.5007 55.7736 73.7353 55.7296 73.97C55.6856 74.19 55.6342 74.4247 55.5756 74.674C55.4142 75.7447 55.5829 76.5293 56.0816 77.028C56.5802 77.512 57.3796 77.754 58.4796 77.754ZM61.9336 77.754C63.0189 77.754 63.9136 77.512 64.6176 77.028C65.3362 76.5293 65.8349 75.7447 66.1136 74.674C66.1576 74.5567 66.1942 74.41 66.2236 74.234C66.2676 74.058 66.3116 73.882 66.3556 73.706C66.3996 73.5153 66.4216 73.3687 66.4216 73.266C66.5389 72.1953 66.3556 71.418 65.8716 70.934C65.3876 70.4353 64.6029 70.186 63.5176 70.186L61.9336 77.754ZM75.4675 82.22C74.7342 82.22 74.0962 82.1027 73.5535 81.868C73.0255 81.6187 72.6075 81.2667 72.2995 80.812C71.9915 80.3427 71.7862 79.7927 71.6835 79.162C71.5955 78.5167 71.6175 77.8053 71.7495 77.028C71.7935 76.7493 71.8375 76.5 71.8815 76.28C71.9402 76.0453 71.9988 75.796 72.0575 75.532C72.2482 74.7693 72.5048 74.0727 72.8275 73.442C73.1502 72.8113 73.5462 72.2687 74.0155 71.814C74.4848 71.3447 75.0275 70.9853 75.6435 70.736C76.2742 70.472 76.9782 70.34 77.7555 70.34C78.6648 70.34 79.3542 70.4793 79.8235 70.758C80.2928 71.022 80.6595 71.352 80.9235 71.748L81.0555 71.11C81.0849 70.9487 81.1582 70.8167 81.2755 70.714C81.4075 70.6113 81.5469 70.56 81.6935 70.56H83.7835C83.9449 70.56 84.0622 70.6113 84.1355 70.714C84.2235 70.8167 84.2528 70.9487 84.2235 71.11L82.0235 81.45C81.9942 81.6113 81.9209 81.7433 81.8035 81.846C81.6862 81.9487 81.5469 82 81.3855 82H79.2955C79.1342 82 79.0095 81.9487 78.9215 81.846C78.8482 81.7433 78.8262 81.6113 78.8555 81.45L79.0095 80.702C78.5695 81.142 78.0855 81.5087 77.5575 81.802C77.0295 82.0807 76.3328 82.22 75.4675 82.22ZM76.7215 79.58C77.2789 79.58 77.7482 79.4553 78.1295 79.206C78.5255 78.9567 78.8409 78.6413 79.0755 78.26C79.3249 77.8787 79.5082 77.468 79.6255 77.028C79.6989 76.7493 79.7649 76.4707 79.8235 76.192C79.8822 75.9133 79.9335 75.642 79.9775 75.378C80.0508 74.9673 80.0508 74.586 79.9775 74.234C79.9042 73.8673 79.7282 73.5667 79.4495 73.332C79.1855 73.0973 78.7895 72.98 78.2615 72.98C77.7482 72.98 77.3082 73.1047 76.9415 73.354C76.5748 73.5887 76.2742 73.904 76.0395 74.3C75.8048 74.696 75.6215 75.1287 75.4895 75.598C75.4308 75.818 75.3722 76.0453 75.3135 76.28C75.2548 76.5147 75.2108 76.742 75.1815 76.962C75.1228 77.4313 75.1082 77.864 75.1375 78.26C75.1815 78.656 75.3282 78.9787 75.5775 79.228C75.8268 79.4627 76.2082 79.58 76.7215 79.58ZM88.7822 82C88.6208 82 88.4962 81.9487 88.4082 81.846C88.3348 81.7433 88.3055 81.6113 88.3202 81.45L90.1022 73.156H86.6482C86.4868 73.156 86.3695 73.1047 86.2962 73.002C86.2228 72.8993 86.2008 72.7673 86.2302 72.606L86.5602 71.11C86.5895 70.9487 86.6628 70.8167 86.7802 70.714C86.8975 70.6113 87.0368 70.56 87.1982 70.56H97.3402C97.5015 70.56 97.6188 70.6113 97.6922 70.714C97.7802 70.8167 97.8095 70.9487 97.7802 71.11L97.4722 72.606C97.4428 72.7673 97.3622 72.8993 97.2302 73.002C97.0982 73.1047 96.9588 73.156 96.8122 73.156H93.3362L91.5762 81.45C91.5468 81.6113 91.4662 81.7433 91.3342 81.846C91.2168 81.9487 91.0848 82 90.9382 82H88.7822ZM101.808 82.22C100.898 82.22 100.143 82.0293 99.5415 81.648C98.9402 81.252 98.5295 80.6873 98.3095 79.954C98.0895 79.206 98.0969 78.304 98.3315 77.248L99.6295 71.11C99.6589 70.9487 99.7322 70.8167 99.8495 70.714C99.9815 70.6113 100.128 70.56 100.29 70.56H102.622C102.768 70.56 102.878 70.6113 102.952 70.714C103.04 70.8167 103.069 70.9487 103.04 71.11L101.764 77.116C101.646 77.6587 101.61 78.1133 101.654 78.48C101.698 78.8467 101.852 79.1253 102.116 79.316C102.38 79.492 102.768 79.58 103.282 79.58C103.986 79.58 104.602 79.3673 105.13 78.942C105.658 78.502 106.002 77.8933 106.164 77.116L107.44 71.11C107.469 70.9487 107.55 70.8167 107.682 70.714C107.814 70.6113 107.953 70.56 108.1 70.56H110.432C110.593 70.56 110.71 70.6113 110.784 70.714C110.857 70.8167 110.879 70.9487 110.85 71.11L108.65 81.45C108.62 81.6113 108.547 81.7433 108.43 81.846C108.312 81.9487 108.173 82 108.012 82H105.856C105.694 82 105.57 81.9487 105.482 81.846C105.408 81.7433 105.386 81.6113 105.416 81.45L105.592 80.592C105.269 80.9293 104.932 81.2227 104.58 81.472C104.242 81.7213 103.854 81.9047 103.414 82.022C102.988 82.154 102.453 82.22 101.808 82.22ZM46.6874 102C46.5407 102 46.4234 101.949 46.3354 101.846C46.2474 101.743 46.2181 101.611 46.2474 101.45L49.2834 87.15C49.3127 86.9887 49.3934 86.8567 49.5254 86.754C49.6574 86.6513 49.7967 86.6 49.9434 86.6H56.2574C57.4014 86.6 58.3401 86.776 59.0734 87.128C59.8214 87.48 60.3494 87.9787 60.6574 88.624C60.9801 89.2693 61.0461 90.0247 60.8554 90.89C60.7381 91.462 60.5327 91.9533 60.2394 92.364C59.9607 92.7747 59.6527 93.112 59.3154 93.376C58.9781 93.6253 58.6627 93.8087 58.3694 93.926C58.8827 94.2193 59.2934 94.6667 59.6014 95.268C59.9094 95.8547 59.9754 96.566 59.7994 97.402C59.5941 98.326 59.2421 99.1327 58.7434 99.822C58.2594 100.511 57.5994 101.047 56.7634 101.428C55.9274 101.809 54.8934 102 53.6614 102H46.6874ZM50.1854 99.426H53.5514C54.2407 99.426 54.8201 99.228 55.2894 98.832C55.7587 98.4213 56.0521 97.9373 56.1694 97.38C56.3014 96.808 56.2354 96.3313 55.9714 95.95C55.7221 95.554 55.2087 95.356 54.4314 95.356H51.0434L50.1854 99.426ZM51.5714 92.826H54.6954C55.3701 92.826 55.9274 92.6573 56.3674 92.32C56.8074 91.968 57.0934 91.5207 57.2254 90.978C57.3427 90.4353 57.2767 90.0027 57.0274 89.68C56.7781 89.3427 56.3161 89.174 55.6414 89.174H52.3634L51.5714 92.826ZM61.8957 106.18C61.7344 106.18 61.6171 106.129 61.5437 106.026C61.4704 105.923 61.4484 105.791 61.4777 105.63L64.5797 91.11C64.6091 90.9487 64.6824 90.8167 64.7997 90.714C64.9171 90.6113 65.0564 90.56 65.2177 90.56H67.3077C67.4691 90.56 67.5864 90.6113 67.6597 90.714C67.7477 90.8167 67.7771 90.9487 67.7477 91.11L67.5717 91.946C68.0117 91.4767 68.5471 91.0953 69.1777 90.802C69.8084 90.494 70.5417 90.34 71.3777 90.34C72.1404 90.34 72.7784 90.4647 73.2917 90.714C73.8051 90.9487 74.2084 91.2933 74.5017 91.748C74.7951 92.188 74.9784 92.7233 75.0517 93.354C75.1251 93.9847 75.0957 94.696 74.9637 95.488C74.9197 95.7667 74.8684 96.0307 74.8097 96.28C74.7511 96.5293 74.6924 96.8007 74.6337 97.094C74.3844 98.0913 73.9957 98.9787 73.4677 99.756C72.9397 100.519 72.2871 101.12 71.5097 101.56C70.7324 102 69.8451 102.22 68.8477 102.22C68.0997 102.22 67.4764 102.088 66.9777 101.824C66.4791 101.545 66.1124 101.171 65.8777 100.702L64.8217 105.63C64.7924 105.791 64.7117 105.923 64.5797 106.026C64.4477 106.129 64.3084 106.18 64.1617 106.18H61.8957ZM68.4077 99.58C68.9797 99.58 69.4417 99.4627 69.7937 99.228C70.1604 98.9787 70.4611 98.656 70.6957 98.26C70.9304 97.864 71.1064 97.4313 71.2237 96.962C71.2971 96.742 71.3557 96.5147 71.3997 96.28C71.4584 96.0453 71.5024 95.818 71.5317 95.598C71.5904 95.1287 71.5904 94.696 71.5317 94.3C71.4731 93.904 71.3117 93.5887 71.0477 93.354C70.7837 93.1047 70.3731 92.98 69.8157 92.98C69.2731 92.98 68.8037 93.1047 68.4077 93.354C68.0264 93.6033 67.7184 93.9187 67.4837 94.3C67.2491 94.6813 67.0804 95.092 66.9777 95.532C66.9044 95.796 66.8311 96.0673 66.7577 96.346C66.6991 96.6247 66.6477 96.9033 66.6037 97.182C66.5451 97.5927 66.5524 97.9813 66.6257 98.348C66.7137 98.7 66.9044 98.9933 67.1977 99.228C67.4911 99.4627 67.8944 99.58 68.4077 99.58ZM80.9713 102.22C79.974 102.22 79.0866 102.022 78.3093 101.626C77.5466 101.23 76.982 100.658 76.6153 99.91C76.2633 99.1473 76.1753 98.238 76.3513 97.182C76.3953 96.9473 76.454 96.654 76.5273 96.302C76.6006 95.9353 76.6666 95.6347 76.7253 95.4C77.1213 93.8013 77.8693 92.562 78.9693 91.682C80.084 90.7873 81.4773 90.34 83.1493 90.34C84.1026 90.34 84.902 90.4793 85.5473 90.758C86.1926 91.0367 86.706 91.3887 87.0873 91.814C87.4686 92.2247 87.7253 92.6573 87.8573 93.112C88.004 93.552 88.0553 93.9407 88.0113 94.278C87.9966 94.4393 87.9306 94.5713 87.8133 94.674C87.696 94.7767 87.564 94.828 87.4173 94.828H85.0193C84.8726 94.828 84.7553 94.7913 84.6673 94.718C84.594 94.6447 84.5426 94.5273 84.5133 94.366C84.4986 93.8527 84.352 93.4787 84.0733 93.244C83.8093 93.0093 83.4206 92.892 82.9073 92.892C82.2473 92.892 81.668 93.1047 81.1693 93.53C80.6853 93.9553 80.3333 94.6153 80.1133 95.51C80.04 95.7887 79.974 96.0673 79.9153 96.346C79.8566 96.61 79.8126 96.852 79.7833 97.072C79.6366 97.9813 79.688 98.6413 79.9373 99.052C80.2013 99.4627 80.6633 99.668 81.3233 99.668C81.8366 99.668 82.2913 99.558 82.6873 99.338C83.0833 99.118 83.4206 98.7513 83.6993 98.238C83.7873 98.0767 83.8753 97.9593 83.9633 97.886C84.066 97.8127 84.198 97.776 84.3593 97.776H86.7353C86.8966 97.776 87.014 97.8347 87.0873 97.952C87.1753 98.0547 87.1973 98.1793 87.1533 98.326C87.0653 98.634 86.882 99.008 86.6033 99.448C86.3393 99.888 85.958 100.321 85.4593 100.746C84.9753 101.171 84.3593 101.523 83.6113 101.802C82.878 102.081 81.998 102.22 80.9713 102.22ZM89.6635 102C89.5169 102 89.3995 101.949 89.3115 101.846C89.2235 101.743 89.1942 101.611 89.2235 101.45L91.4455 91.11C91.4749 90.9487 91.5482 90.8167 91.6655 90.714C91.7975 90.6113 91.9369 90.56 92.0835 90.56H94.2395C94.4009 90.56 94.5182 90.6113 94.5915 90.714C94.6795 90.8167 94.7089 90.9487 94.6795 91.11L93.8655 94.894H95.0975L98.4635 90.912C98.5369 90.824 98.6249 90.7433 98.7275 90.67C98.8302 90.5967 98.9622 90.56 99.1235 90.56H101.61C101.742 90.56 101.844 90.604 101.918 90.692C101.991 90.7653 102.02 90.8607 102.006 90.978C101.991 91.066 101.932 91.1687 101.83 91.286L97.5615 96.258L99.9595 101.296C99.9889 101.34 100.004 101.384 100.004 101.428C100.018 101.472 100.018 101.523 100.004 101.582C99.9889 101.699 99.9229 101.802 99.8055 101.89C99.7029 101.963 99.5782 102 99.4315 102H97.0995C96.9529 102 96.8355 101.971 96.7475 101.912C96.6595 101.839 96.5935 101.751 96.5495 101.648L94.6795 97.512H93.3155L92.4575 101.45C92.4282 101.611 92.3549 101.743 92.2375 101.846C92.1202 101.949 91.9809 102 91.8195 102H89.6635ZM106.604 102.22C105.694 102.22 104.939 102.029 104.338 101.648C103.736 101.252 103.326 100.687 103.106 99.954C102.886 99.206 102.893 98.304 103.128 97.248L104.426 91.11C104.455 90.9487 104.528 90.8167 104.646 90.714C104.778 90.6113 104.924 90.56 105.086 90.56H107.418C107.564 90.56 107.674 90.6113 107.748 90.714C107.836 90.8167 107.865 90.9487 107.836 91.11L106.56 97.116C106.442 97.6587 106.406 98.1133 106.45 98.48C106.494 98.8467 106.648 99.1253 106.912 99.316C107.176 99.492 107.564 99.58 108.078 99.58C108.782 99.58 109.398 99.3673 109.926 98.942C110.454 98.502 110.798 97.8933 110.96 97.116L112.236 91.11C112.265 90.9487 112.346 90.8167 112.478 90.714C112.61 90.6113 112.749 90.56 112.896 90.56H115.228C115.389 90.56 115.506 90.6113 115.58 90.714C115.653 90.8167 115.675 90.9487 115.646 91.11L113.446 101.45C113.416 101.611 113.343 101.743 113.226 101.846C113.108 101.949 112.969 102 112.808 102H110.652C110.49 102 110.366 101.949 110.278 101.846C110.204 101.743 110.182 101.611 110.212 101.45L110.388 100.592C110.065 100.929 109.728 101.223 109.376 101.472C109.038 101.721 108.65 101.905 108.21 102.022C107.784 102.154 107.249 102.22 106.604 102.22Z" fill="white"/>
<path d="M67.7085 116.757C67.2957 116.984 66.9256 117.625 64.6194 122.066C62.9253 125.355 62.0142 127.277 62 127.561C62 128.259 62.4128 128.615 64.4485 129.668C66.3134 130.622 66.3704 130.636 66.8971 130.466C67.1818 130.38 67.4665 130.209 67.5092 130.095C67.5662 129.939 67.6516 129.939 67.9932 130.124C68.221 130.238 68.4061 130.409 68.4061 130.508C68.4061 130.622 68.6338 130.964 68.9186 131.291C69.3314 131.775 69.3883 131.932 69.2745 132.16C68.7904 133.042 69.7442 134.452 70.8119 134.452C71.0112 134.452 71.0682 134.523 71.0112 134.708C70.8261 135.462 71.8369 136.587 72.7195 136.587C72.9757 136.587 73.1039 136.658 73.1039 136.8C73.1039 137.541 73.958 138.295 74.7979 138.295C75.1253 138.295 75.2392 138.381 75.3531 138.722C75.709 139.705 76.8194 140.231 77.6735 139.804C78.1291 139.576 78.1433 139.576 78.5704 139.975C79.4672 140.801 79.8231 141 80.421 141C81.1898 141 81.8873 140.559 82.2005 139.875C82.4283 139.349 82.4567 139.334 82.7842 139.519C83.5102 139.918 84.464 139.662 85.0476 138.922C85.2185 138.708 85.3466 138.395 85.3466 138.224C85.3466 137.939 85.4035 137.911 86.0299 137.982C86.5139 138.025 86.8698 137.968 87.183 137.811C87.6812 137.541 88.1937 136.815 88.1937 136.359C88.1937 136.089 88.2507 136.06 88.8059 136.117C89.8308 136.231 90.5853 135.69 90.8985 134.608C91.0551 134.067 90.8416 133.256 90.4572 132.871C90.2864 132.701 90.1867 132.558 90.2152 132.544C90.2294 132.516 90.5426 132.316 90.8985 132.074C91.2544 131.832 91.8381 131.305 92.2082 130.907C92.92 130.138 93.0908 130.053 93.2332 130.394C93.2759 130.523 93.5321 130.708 93.7884 130.821C94.2297 131.007 94.3863 130.978 95.8241 130.537C98.2584 129.768 98.5716 129.626 98.7993 129.184C98.9132 128.957 99.0129 128.586 98.9986 128.373C98.9844 128.159 98.173 125.568 97.1765 122.636L95.3828 117.298L94.856 117.013L94.3293 116.728L92.2794 117.411C89.9874 118.166 89.5888 118.451 89.5604 119.305C89.5319 119.803 89.4892 119.846 88.9055 120.017C88.0229 120.287 87.5246 120.259 85.4889 119.874C84.5067 119.689 83.0546 119.447 82.2717 119.362C80.4353 119.148 79.9085 119.276 78.5704 120.301L77.5596 121.07H76.1645C74.8976 121.07 74.6698 121.027 73.7872 120.629C72.8476 120.187 72.8191 120.159 72.8191 119.661C72.8191 119.376 72.7195 119.006 72.6056 118.835C72.3778 118.522 69.1748 116.742 68.5484 116.6C68.3349 116.543 68.0075 116.6 67.7085 116.757ZM85.1046 120.643C87.7382 121.127 88.208 121.155 89.0479 120.856C89.3753 120.743 89.7027 120.643 89.7597 120.643C89.8308 120.643 90.5284 122.607 91.3398 125.013C92.4502 128.373 92.7492 129.398 92.5926 129.455C92.4929 129.483 92.0374 129.882 91.6103 130.323C91.1832 130.765 90.5284 131.334 90.1725 131.576L89.5177 132.017L84.9907 128.102C82.4852 125.953 80.2929 124.159 80.0936 124.102C79.6808 124.003 78.9832 124.358 78.6131 124.857C78.4707 125.042 78.2999 125.583 78.2145 126.052C77.944 127.789 76.976 129.113 76.0649 129.014L75.6378 128.971V126.508C75.6378 124.116 75.6521 124.031 75.9652 123.675C76.6913 122.892 79.4672 120.586 80.0082 120.33C80.7342 119.988 81.8873 120.059 85.1046 120.643ZM75.4955 121.853C76.1361 121.853 76.6628 121.881 76.6628 121.924C76.6486 121.967 76.3638 122.223 76.008 122.494C74.8406 123.405 74.8122 123.504 74.8122 126.579C74.8122 129.142 74.8264 129.298 75.1111 129.554C75.3246 129.74 75.6236 129.825 76.0934 129.825C77.4885 129.825 78.5561 128.558 79.0117 126.423C79.211 125.412 79.6096 124.814 79.9655 124.942C80.421 125.127 89.9305 133.512 90.0586 133.854C90.2294 134.295 90.0017 134.964 89.6031 135.163C88.9055 135.548 88.6066 135.377 86.0441 133.156C84.6775 131.989 83.4532 130.964 83.3251 130.878C83.0831 130.75 82.6418 131.035 82.6418 131.32C82.6418 131.391 83.5814 132.274 84.7344 133.27C87.4392 135.619 87.3396 135.519 87.3396 136.046C87.3396 136.658 86.8556 137.156 86.2577 137.156C85.8591 137.156 85.432 136.857 83.4959 135.163C82.229 134.067 81.1043 133.17 81.0047 133.17C80.8908 133.17 80.7342 133.298 80.6488 133.455C80.4637 133.797 80.5064 133.854 82.8269 135.847C83.681 136.587 84.4355 137.327 84.5067 137.498C84.8199 138.181 84.0796 139.007 83.3251 138.822C83.14 138.765 82.1863 138.025 81.1755 137.156C79.3533 135.562 78.912 135.348 78.8266 135.961C78.7982 136.188 79.0686 136.516 79.8801 137.242C81.5029 138.68 81.5029 138.68 81.5029 139.149C81.5029 139.705 81.0616 140.146 80.4922 140.146C80.1933 140.146 79.8516 139.975 79.3676 139.562C78.6843 138.979 78.67 138.964 78.8693 138.566C79.211 137.925 79.1398 137.37 78.6416 136.8C78.3996 136.53 78.0437 136.26 77.8586 136.217C77.5312 136.131 77.5169 136.103 77.7305 135.79C78.001 135.363 78.001 134.551 77.7305 134.024C77.5169 133.597 76.8621 133.17 76.4493 133.17C76.2927 133.17 76.2357 133.014 76.2357 132.601C76.2357 131.362 74.5701 130.423 73.6733 131.149L73.3316 131.434L72.8049 130.836C72.3209 130.295 72.2355 130.252 71.5379 130.252C70.8831 130.252 70.755 130.309 70.3848 130.708C70.1571 130.964 69.9435 131.177 69.9008 131.177C69.8581 131.177 69.6019 130.821 69.3172 130.38C69.0467 129.953 68.6623 129.526 68.463 129.441C68.278 129.355 68.1214 129.227 68.1214 129.156C68.1214 129.085 68.9755 127.391 70.0289 125.369C71.0682 123.362 72.0362 121.511 72.1501 121.269L72.3778 120.814L73.3459 121.34C74.2427 121.81 74.4135 121.853 75.4955 121.853ZM72.2355 131.405C72.4063 131.619 72.5344 131.861 72.5344 131.96C72.5344 132.06 72.2782 132.459 71.9508 132.871C71.2959 133.683 70.7692 133.825 70.2567 133.313C69.8296 132.886 69.9008 132.516 70.5699 131.733C71.2675 130.907 71.7657 130.807 72.2355 131.405ZM75.1253 131.989C75.6236 132.444 75.4528 132.957 74.2997 134.38C73.3743 135.533 73.1466 135.733 72.8049 135.733C72.5771 135.733 72.264 135.605 72.1074 135.448C71.5664 134.907 71.6661 134.679 73.5025 132.487C74.1715 131.69 74.6271 131.547 75.1253 131.989ZM76.8763 134.309C77.3176 134.793 77.1753 135.22 76.25 136.345C75.2677 137.526 74.926 137.712 74.3851 137.313C73.7302 136.843 73.8441 136.359 74.8833 135.121C75.9083 133.925 76.3638 133.74 76.8763 134.309ZM77.8586 137.171C78.3568 137.555 78.3284 138.025 77.7874 138.651C77.2749 139.221 76.9902 139.263 76.4635 138.85C75.9795 138.466 75.9937 138.053 76.5347 137.398C77.0329 136.8 77.3176 136.744 77.8586 137.171Z" fill="white" stroke="white" stroke-width="0.5"/>
</svg>
