<svg width="161" height="247" viewBox="0 0 161 247" fill="none" xmlns="http://www.w3.org/2000/svg">
<rect width="161" height="247" fill="white"/>
<rect x="0.5" y="0.5" width="160" height="246" stroke="black" stroke-opacity="0.1"/>
<rect x="3" y="3" width="155" height="241" rx="13" fill="white"/>
<path d="M8 18C8 12.4772 12.4772 8 18 8H143C148.523 8 153 12.4772 153 18V45C153 46.1046 152.105 47 151 47H10C8.89543 47 8 46.1046 8 45V18Z" fill="#61C5CC"/>
<path d="M8.5 18C8.5 12.7533 12.7533 8.5 18 8.5H143C148.247 8.5 152.5 12.7533 152.5 18V45C152.5 45.8284 151.828 46.5 151 46.5H10C9.17157 46.5 8.5 45.8284 8.5 45V18Z" stroke="black" stroke-opacity="0.3"/>
<path d="M59.154 26C59.0807 26 59.022 25.9743 58.978 25.923C58.9267 25.8643 58.9083 25.7947 58.923 25.714L60.441 18.586C60.4557 18.5053 60.496 18.4393 60.562 18.388C60.6353 18.3293 60.7087 18.3 60.782 18.3H65.743C65.8237 18.3 65.886 18.3293 65.93 18.388C65.9813 18.4393 65.996 18.5053 65.974 18.586L65.688 19.972C65.6733 20.0527 65.6293 20.1223 65.556 20.181C65.49 20.2323 65.4167 20.258 65.336 20.258H62.454L61.288 25.714C61.2733 25.7947 61.233 25.8643 61.167 25.923C61.101 25.9743 61.0277 26 60.947 26H59.154ZM67.5036 26.11C67.1663 26.11 66.8619 26.0587 66.5906 25.956C66.3266 25.8533 66.1066 25.6957 65.9306 25.483C65.7619 25.2703 65.6483 25.0027 65.5896 24.68C65.5309 24.3573 65.5383 23.9797 65.6116 23.547C65.6409 23.3857 65.6666 23.2463 65.6886 23.129C65.7179 23.0117 65.7509 22.876 65.7876 22.722C65.8903 22.3113 66.0296 21.9483 66.2056 21.633C66.3816 21.3103 66.5906 21.0427 66.8326 20.83C67.0746 20.6173 67.3459 20.456 67.6466 20.346C67.9546 20.2287 68.2883 20.17 68.6476 20.17C69.0803 20.17 69.4103 20.2287 69.6376 20.346C69.8723 20.456 70.0556 20.599 70.1876 20.775L70.2426 20.566C70.2573 20.4853 70.2976 20.4193 70.3636 20.368C70.4296 20.3093 70.4993 20.28 70.5726 20.28H72.1236C72.2043 20.28 72.2666 20.3093 72.3106 20.368C72.3546 20.4193 72.3693 20.4853 72.3546 20.566L71.2656 25.714C71.2509 25.7947 71.2106 25.8643 71.1446 25.923C71.0786 25.9743 71.0053 26 70.9246 26H69.3736C69.2929 26 69.2269 25.9743 69.1756 25.923C69.1316 25.8643 69.1169 25.7947 69.1316 25.714L69.1976 25.406C68.9776 25.6187 68.7393 25.791 68.4826 25.923C68.2259 26.0477 67.8996 26.11 67.5036 26.11ZM68.4936 24.394C68.6843 24.394 68.8419 24.3537 68.9666 24.273C69.0986 24.1923 69.2049 24.086 69.2856 23.954C69.3663 23.822 69.4286 23.6753 69.4726 23.514C69.5166 23.3527 69.5496 23.2133 69.5716 23.096C69.6009 22.9787 69.6266 22.843 69.6486 22.689C69.6706 22.535 69.6669 22.3993 69.6376 22.282C69.6156 22.1647 69.5569 22.0693 69.4616 21.996C69.3663 21.9227 69.2306 21.886 69.0546 21.886C68.8713 21.886 68.7173 21.9263 68.5926 22.007C68.4679 22.0803 68.3653 22.1867 68.2846 22.326C68.2113 22.458 68.1489 22.612 68.0976 22.788C68.0683 22.898 68.0389 23.0153 68.0096 23.14C67.9803 23.2647 67.9583 23.382 67.9436 23.492C67.9216 23.668 67.9179 23.8257 67.9326 23.965C67.9473 24.097 67.9986 24.2033 68.0866 24.284C68.1746 24.3573 68.3103 24.394 68.4936 24.394ZM72.46 26C72.3866 26 72.328 25.9743 72.284 25.923C72.2326 25.8643 72.2143 25.7947 72.229 25.714L72.482 24.504C72.526 24.3427 72.6433 24.2473 72.834 24.218C73.0393 24.1887 73.2043 24.097 73.329 23.943C73.461 23.7817 73.571 23.5543 73.659 23.261C73.7543 22.9603 73.8423 22.601 73.923 22.183L74.275 20.566C74.2896 20.4853 74.33 20.4193 74.396 20.368C74.462 20.3093 74.5353 20.28 74.616 20.28H79.28C79.3606 20.28 79.423 20.3093 79.467 20.368C79.5183 20.4193 79.5366 20.4853 79.522 20.566L78.411 25.714C78.3963 25.7947 78.356 25.8643 78.29 25.923C78.224 25.9743 78.1506 26 78.07 26H76.442C76.3613 26 76.299 25.9743 76.255 25.923C76.211 25.8643 76.1926 25.7947 76.2 25.714L77.003 21.963H76.068L75.969 22.414C75.8223 23.1107 75.661 23.6937 75.485 24.163C75.309 24.625 75.0926 24.9917 74.836 25.263C74.5866 25.527 74.2676 25.7177 73.879 25.835C73.4976 25.945 73.0246 26 72.46 26ZM82.4195 26.11C81.8108 26.11 81.3012 26.0073 80.8905 25.802C80.4872 25.5893 80.2085 25.2703 80.0545 24.845C79.9005 24.4197 79.8895 23.8807 80.0215 23.228C80.0288 23.1987 80.0362 23.162 80.0435 23.118C80.0508 23.0667 80.0582 23.03 80.0655 23.008C80.2122 22.3993 80.4542 21.886 80.7915 21.468C81.1288 21.0427 81.5432 20.72 82.0345 20.5C82.5258 20.28 83.0722 20.17 83.6735 20.17C84.3482 20.17 84.8762 20.3057 85.2575 20.577C85.6462 20.841 85.8992 21.1967 86.0165 21.644C86.1412 22.084 86.1485 22.579 86.0385 23.129L85.9835 23.437C85.9688 23.5103 85.9248 23.5763 85.8515 23.635C85.7855 23.6937 85.7122 23.723 85.6315 23.723H82.2325C82.2325 23.723 82.2288 23.7303 82.2215 23.745C82.2215 23.7597 82.2215 23.7743 82.2215 23.789C82.1848 23.965 82.1738 24.1227 82.1885 24.262C82.2105 24.394 82.2618 24.5003 82.3425 24.581C82.4305 24.6543 82.5478 24.691 82.6945 24.691C82.7898 24.691 82.8742 24.6763 82.9475 24.647C83.0208 24.6177 83.0868 24.581 83.1455 24.537C83.2042 24.4857 83.2592 24.438 83.3105 24.394C83.3912 24.328 83.4535 24.2877 83.4975 24.273C83.5488 24.251 83.6148 24.24 83.6955 24.24H85.4225C85.4958 24.24 85.5508 24.262 85.5875 24.306C85.6242 24.35 85.6315 24.405 85.6095 24.471C85.5728 24.603 85.4775 24.7643 85.3235 24.955C85.1695 25.1383 84.9532 25.318 84.6745 25.494C84.4032 25.67 84.0768 25.8167 83.6955 25.934C83.3142 26.0513 82.8888 26.11 82.4195 26.11ZM82.4965 22.491H83.8715V22.469C83.9155 22.271 83.9228 22.1023 83.8935 21.963C83.8715 21.8237 83.8165 21.721 83.7285 21.655C83.6405 21.5817 83.5232 21.545 83.3765 21.545C83.2298 21.545 83.0978 21.5817 82.9805 21.655C82.8632 21.721 82.7642 21.8237 82.6835 21.963C82.6102 22.1023 82.5478 22.271 82.4965 22.469V22.491ZM89.1342 26.11C88.4375 26.11 87.8912 26.0037 87.4952 25.791C87.1065 25.5783 86.8535 25.2447 86.7362 24.79C86.6262 24.3353 86.6298 23.7413 86.7472 23.008C86.7838 22.7953 86.8278 22.5717 86.8792 22.337C86.9305 22.1023 86.9818 21.8823 87.0332 21.677C87.1798 21.0903 87.3558 20.5917 87.5612 20.181C87.7738 19.763 88.0305 19.411 88.3312 19.125C88.6392 18.839 89.0022 18.597 89.4202 18.399C89.8455 18.201 90.3442 18.0287 90.9162 17.882C91.4882 17.7353 92.1482 17.5923 92.8962 17.453C92.9695 17.4383 93.0355 17.453 93.0942 17.497C93.1602 17.5337 93.1895 17.596 93.1822 17.684L93.1492 18.927C93.1418 19.0223 93.1088 19.103 93.0502 19.169C92.9988 19.2277 92.9328 19.2643 92.8522 19.279C92.2728 19.367 91.7815 19.455 91.3782 19.543C90.9748 19.631 90.6412 19.7337 90.3772 19.851C90.1205 19.9683 89.9078 20.1187 89.7392 20.302C89.5778 20.478 89.4458 20.7017 89.3432 20.973C89.2478 21.2443 89.1562 21.5817 89.0682 21.985L88.8702 21.589C88.9802 21.435 89.1268 21.2957 89.3102 21.171C89.4935 21.0463 89.7025 20.9473 89.9372 20.874C90.1792 20.8007 90.4285 20.764 90.6852 20.764C91.2352 20.764 91.6788 20.852 92.0162 21.028C92.3608 21.1967 92.6028 21.446 92.7422 21.776C92.8815 22.106 92.9145 22.5167 92.8412 23.008C92.8265 23.14 92.8008 23.283 92.7642 23.437C92.7348 23.5837 92.7018 23.7267 92.6652 23.866C92.5332 24.3353 92.3132 24.7387 92.0052 25.076C91.6972 25.4133 91.3012 25.67 90.8172 25.846C90.3405 26.022 89.7795 26.11 89.1342 26.11ZM89.4312 24.724C89.6952 24.724 89.8932 24.647 90.0252 24.493C90.1645 24.339 90.2745 24.1117 90.3552 23.811C90.3845 23.7157 90.4138 23.591 90.4432 23.437C90.4798 23.283 90.5055 23.1547 90.5202 23.052C90.5715 22.766 90.5642 22.546 90.4982 22.392C90.4395 22.238 90.2928 22.161 90.0582 22.161C89.7648 22.161 89.5412 22.238 89.3872 22.392C89.2405 22.546 89.1268 22.766 89.0462 23.052C89.0242 23.1547 88.9948 23.283 88.9582 23.437C88.9215 23.591 88.8958 23.7157 88.8812 23.811C88.8372 24.1117 88.8518 24.339 88.9252 24.493C88.9985 24.647 89.1672 24.724 89.4312 24.724ZM95.1167 26C95.036 26 94.9774 25.967 94.9407 25.901C94.904 25.8277 94.9077 25.7543 94.9517 25.681L98.9557 18.641C98.9997 18.5603 99.0657 18.4833 99.1537 18.41C99.2417 18.3367 99.3554 18.3 99.4947 18.3H101.563C101.702 18.3 101.801 18.3367 101.86 18.41C101.918 18.4833 101.951 18.5603 101.959 18.641L102.982 25.681C102.996 25.7763 102.971 25.8533 102.905 25.912C102.846 25.9707 102.776 26 102.696 26H101.046C100.921 26 100.833 25.9707 100.782 25.912C100.738 25.8533 100.708 25.7947 100.694 25.736L100.54 24.823H97.8997L97.3497 25.747C97.3204 25.8057 97.269 25.8643 97.1957 25.923C97.1297 25.9743 97.0344 26 96.9097 26H95.1167ZM98.7907 22.964H100.43L100.144 20.489L98.7907 22.964ZM103.325 27.54C103.244 27.54 103.182 27.5107 103.138 27.452C103.094 27.4007 103.079 27.3347 103.094 27.254L103.754 24.196C103.769 24.1153 103.809 24.0493 103.875 23.998C103.941 23.9393 104.014 23.91 104.095 23.91H104.271C104.454 23.91 104.619 23.8257 104.766 23.657C104.92 23.481 105.059 23.2463 105.184 22.953C105.309 22.6597 105.422 22.3223 105.525 21.941C105.635 21.5597 105.734 21.1637 105.822 20.753L106.284 18.586C106.299 18.5053 106.339 18.4393 106.405 18.388C106.471 18.3293 106.544 18.3 106.625 18.3H112.169C112.25 18.3 112.312 18.3293 112.356 18.388C112.4 18.4393 112.415 18.5053 112.4 18.586L111.267 23.91H111.773C111.854 23.91 111.916 23.9393 111.96 23.998C112.004 24.0493 112.019 24.1153 112.004 24.196L111.344 27.254C111.329 27.3347 111.289 27.4007 111.223 27.452C111.157 27.5107 111.084 27.54 111.003 27.54H109.21C109.137 27.54 109.074 27.5107 109.023 27.452C108.979 27.4007 108.964 27.3347 108.979 27.254L109.243 26H105.723L105.459 27.254C105.444 27.3347 105.404 27.4007 105.338 27.452C105.272 27.5107 105.199 27.54 105.118 27.54H103.325ZM107.01 23.91H108.902L109.65 20.39H108.176L108.033 21.061C107.886 21.721 107.729 22.2857 107.56 22.755C107.399 23.217 107.215 23.602 107.01 23.91ZM62.476 39.11C61.9993 39.11 61.5557 39.0477 61.145 38.923C60.7343 38.7983 60.3823 38.6113 60.089 38.362C59.7957 38.1127 59.583 37.8047 59.451 37.438C59.3263 37.064 59.308 36.6277 59.396 36.129C59.4473 35.821 59.506 35.5057 59.572 35.183C59.6453 34.853 59.7187 34.5267 59.792 34.204C60.034 33.236 60.474 32.4917 61.112 31.971C61.7573 31.4503 62.6447 31.19 63.774 31.19C64.2507 31.19 64.6943 31.256 65.105 31.388C65.5157 31.52 65.864 31.7143 66.15 31.971C66.4433 32.2203 66.656 32.5357 66.788 32.917C66.92 33.291 66.942 33.72 66.854 34.204C66.8027 34.5267 66.7403 34.853 66.667 35.183C66.601 35.5057 66.5277 35.821 66.447 36.129C66.1977 37.119 65.754 37.8633 65.116 38.362C64.478 38.8607 63.598 39.11 62.476 39.11ZM62.674 37.24C62.9893 37.24 63.2643 37.1483 63.499 36.965C63.741 36.7743 63.9097 36.4737 64.005 36.063C64.0857 35.7477 64.159 35.4433 64.225 35.15C64.291 34.8493 64.3497 34.545 64.401 34.237C64.4743 33.8263 64.434 33.5293 64.28 33.346C64.1333 33.1553 63.9023 33.06 63.587 33.06C63.2717 33.06 62.9967 33.1553 62.762 33.346C62.5273 33.5293 62.355 33.8263 62.245 34.237C62.1717 34.545 62.102 34.8493 62.036 35.15C61.9773 35.4433 61.9187 35.7477 61.86 36.063C61.7867 36.4737 61.8233 36.7743 61.97 36.965C62.1167 37.1483 62.3513 37.24 62.674 37.24ZM66.6512 39C66.5412 39 66.4752 38.9523 66.4532 38.857C66.4312 38.7617 66.4495 38.6773 66.5082 38.604L68.9062 35.997L67.7842 33.676C67.7549 33.588 67.7695 33.5 67.8282 33.412C67.8942 33.324 67.9749 33.28 68.0702 33.28H69.6982C69.8009 33.28 69.8705 33.3057 69.9072 33.357C69.9512 33.401 69.9805 33.4413 69.9952 33.478L70.5672 34.622L71.6342 33.478C71.6635 33.4413 71.7075 33.401 71.7662 33.357C71.8249 33.3057 71.9092 33.28 72.0192 33.28H73.7682C73.8855 33.28 73.9552 33.3313 73.9772 33.434C73.9992 33.5293 73.9772 33.6137 73.9112 33.687L71.6782 36.14L72.8442 38.604C72.8882 38.6993 72.8845 38.791 72.8332 38.879C72.7892 38.9597 72.7049 39 72.5802 39H70.9082C70.8202 39 70.7542 38.978 70.7102 38.934C70.6735 38.89 70.6442 38.8497 70.6222 38.813L69.9952 37.548L68.8182 38.813C68.7889 38.8423 68.7449 38.8827 68.6862 38.934C68.6349 38.978 68.5579 39 68.4552 39H66.6512ZM73.7171 41.09C73.6364 41.09 73.5777 41.0607 73.5411 41.002C73.4971 40.9507 73.4824 40.8847 73.4971 40.804L75.0371 33.566C75.0517 33.4853 75.0921 33.4193 75.1581 33.368C75.2241 33.3093 75.2974 33.28 75.3781 33.28H76.9291C77.0097 33.28 77.0721 33.3093 77.1161 33.368C77.1674 33.4193 77.1857 33.4853 77.1711 33.566L77.0831 33.929C77.3031 33.709 77.5634 33.5293 77.8641 33.39C78.1721 33.2433 78.5241 33.17 78.9201 33.17C79.2647 33.17 79.5617 33.2213 79.8111 33.324C80.0677 33.4267 80.2731 33.5843 80.4271 33.797C80.5884 34.0023 80.6947 34.2663 80.7461 34.589C80.7974 34.9117 80.7827 35.2893 80.7021 35.722C80.6801 35.876 80.6544 36.0153 80.6251 36.14C80.6031 36.2647 80.5737 36.4077 80.5371 36.569C80.3977 37.1117 80.1851 37.5737 79.8991 37.955C79.6204 38.329 79.2904 38.615 78.9091 38.813C78.5277 39.011 78.1097 39.11 77.6551 39.11C77.3177 39.11 77.0317 39.055 76.7971 38.945C76.5624 38.8277 76.3864 38.648 76.2691 38.406L75.7521 40.804C75.7374 40.8847 75.6934 40.9507 75.6201 41.002C75.5541 41.0607 75.4844 41.09 75.4111 41.09H73.7171ZM77.2701 37.394C77.4607 37.394 77.6147 37.3573 77.7321 37.284C77.8567 37.2033 77.9557 37.097 78.0291 36.965C78.1097 36.8257 78.1757 36.668 78.2271 36.492C78.2637 36.382 78.2967 36.2647 78.3261 36.14C78.3554 36.0153 78.3737 35.898 78.3811 35.788C78.4031 35.612 78.4031 35.458 78.3811 35.326C78.3591 35.1867 78.3041 35.0803 78.2161 35.007C78.1281 34.9263 77.9851 34.886 77.7871 34.886C77.6037 34.886 77.4461 34.9263 77.3141 35.007C77.1894 35.0877 77.0867 35.194 77.0061 35.326C76.9327 35.458 76.8741 35.6047 76.8301 35.766C76.7861 35.92 76.7494 36.0593 76.7201 36.184C76.6981 36.3013 76.6761 36.437 76.6541 36.591C76.6321 36.745 76.6357 36.8807 76.6651 36.998C76.6944 37.1153 76.7567 37.2107 76.8521 37.284C76.9547 37.3573 77.0941 37.394 77.2701 37.394ZM82.8634 39.11C82.46 39.11 82.1044 39.0183 81.7964 38.835C81.4957 38.6517 81.2794 38.3767 81.1474 38.01C81.0227 37.6433 81.0227 37.1813 81.1474 36.624L81.7854 33.566C81.8 33.4853 81.8404 33.4193 81.9064 33.368C81.9797 33.3093 82.0567 33.28 82.1374 33.28H83.8754C83.956 33.28 84.0184 33.3093 84.0624 33.368C84.1064 33.4193 84.121 33.4853 84.1064 33.566L83.4684 36.547C83.4317 36.7303 83.4244 36.8843 83.4464 37.009C83.4684 37.1337 83.527 37.229 83.6224 37.295C83.7177 37.361 83.8497 37.394 84.0184 37.394C84.2677 37.394 84.4767 37.3207 84.6454 37.174C84.8214 37.0273 84.9387 36.8183 84.9974 36.547L85.6244 33.566C85.639 33.4853 85.6794 33.4193 85.7454 33.368C85.8187 33.3093 85.8957 33.28 85.9764 33.28H87.7144C87.795 33.28 87.8537 33.3093 87.8904 33.368C87.9344 33.4193 87.949 33.4853 87.9344 33.566L86.8454 38.714C86.8307 38.7947 86.7904 38.8643 86.7244 38.923C86.6584 38.9743 86.585 39 86.5044 39H84.8984C84.8177 39 84.7554 38.9743 84.7114 38.923C84.6674 38.8643 84.6527 38.7947 84.6674 38.714L84.7554 38.318C84.594 38.494 84.4254 38.6407 84.2494 38.758C84.0734 38.8753 83.8754 38.9633 83.6554 39.022C83.4354 39.0807 83.1714 39.11 82.8634 39.11ZM90.8629 39.11C90.2469 39.11 89.7299 39.0147 89.3119 38.824C88.8939 38.6333 88.5895 38.3547 88.3989 37.988C88.2155 37.614 88.1642 37.1667 88.2449 36.646C88.2595 36.5433 88.2705 36.4663 88.2779 36.415C88.2852 36.3637 88.2962 36.3123 88.3109 36.261C88.3255 36.2023 88.3439 36.1217 88.3659 36.019C88.5052 35.491 88.7105 35.0473 88.9819 34.688C89.2605 34.3213 89.6125 34.0463 90.0379 33.863C90.4705 33.6723 90.9839 33.577 91.5779 33.577C91.8565 33.577 92.1169 33.6137 92.3589 33.687C92.6082 33.753 92.8355 33.8593 93.0409 34.006C93.0849 33.632 93.0409 33.324 92.9089 33.082C92.7769 32.8327 92.5495 32.6457 92.2269 32.521C91.9115 32.389 91.4862 32.3157 90.9509 32.301C90.8629 32.301 90.7932 32.2717 90.7419 32.213C90.6905 32.1543 90.6649 32.0883 90.6649 32.015V31.036C90.6649 30.9553 90.6905 30.8893 90.7419 30.838C90.8005 30.7793 90.8739 30.7463 90.9619 30.739C91.9225 30.739 92.6962 30.8967 93.2829 31.212C93.8695 31.52 94.2802 31.9783 94.5149 32.587C94.7569 33.1957 94.8229 33.951 94.7129 34.853C94.6909 35.139 94.6469 35.4213 94.5809 35.7C94.5222 35.9787 94.4415 36.294 94.3389 36.646C94.1995 37.1667 93.9869 37.614 93.7009 37.988C93.4149 38.3547 93.0409 38.6333 92.5789 38.824C92.1169 39.0147 91.5449 39.11 90.8629 39.11ZM91.0829 37.559C91.3469 37.559 91.5485 37.4783 91.6879 37.317C91.8345 37.1557 91.9519 36.9137 92.0399 36.591C92.0692 36.4883 92.0912 36.404 92.1059 36.338C92.1205 36.2647 92.1352 36.1767 92.1499 36.074C92.1865 35.876 92.1939 35.7073 92.1719 35.568C92.1572 35.4213 92.1059 35.3113 92.0179 35.238C91.9299 35.1573 91.8015 35.117 91.6329 35.117C91.3542 35.117 91.1452 35.2013 91.0059 35.37C90.8739 35.5313 90.7639 35.766 90.6759 36.074C90.6465 36.1767 90.6245 36.2647 90.6099 36.338C90.5952 36.404 90.5805 36.4883 90.5659 36.591C90.5145 36.9137 90.5182 37.1557 90.5769 37.317C90.6429 37.4783 90.8115 37.559 91.0829 37.559Z" fill="#FBFBFB"/>
<path d="M50 107.4H35.4C34.8 107.4 34.2 106.9 34.2 106.2V84.1C34.2 83.5 34.7 82.9 35.4 82.9H50C50.6 82.9 51.2 83.4 51.2 84.1V106.2C51.2 106.8 50.6 107.4 50 107.4Z" fill="white" stroke="url(#paint0_linear_12_2880)" stroke-width="1.4173" stroke-miterlimit="10"/>
<path d="M48.5 143.2L34.2 146.4C33.6 146.5 33 146.2 32.8 145.5L27.9 124C27.8 123.4 28.1 122.8 28.8 122.6L43.1 119.4C43.7 119.3 44.3 119.6 44.5 120.3L49.4 141.8C49.5 142.4 49.1 143 48.5 143.2Z" fill="white" stroke="url(#paint1_linear_12_2880)" stroke-width="1.4173" stroke-miterlimit="10"/>
<path d="M49.6 145.3L35 144.1C34.4 144 33.9 143.5 33.9 142.9L35.7 120.9C35.8 120.3 36.3 119.8 36.9 119.8L51.5 121C52.1 121.1 52.6 121.6 52.6 122.2L50.8 144.2C50.8 144.9 50.2 145.4 49.6 145.3Z" fill="white" stroke="url(#paint2_linear_12_2880)" stroke-width="1.4173" stroke-miterlimit="10"/>
<path d="M48.9 176.4L36.6 184.3C36.1 184.6 35.3 184.5 35 183.9L23.1 165.3C22.8 164.8 22.9 164 23.5 163.7L35.8 155.8C36.3 155.5 37.1 155.6 37.4 156.2L49.3 174.8C49.6 175.3 49.4 176.1 48.9 176.4Z" fill="white" stroke="url(#paint3_linear_12_2880)" stroke-width="1.4173" stroke-miterlimit="10"/>
<path d="M49.3 179.1L35.1 182.5C34.5 182.6 33.9 182.3 33.7 181.6L28.5 160.2C28.4 159.6 28.7 159 29.4 158.8L43.6 155.4C44.2 155.3 44.8 155.6 45 156.3L50.2 177.7C50.3 178.4 49.9 179 49.3 179.1Z" fill="white" stroke="url(#paint4_linear_12_2880)" stroke-width="1.4173" stroke-miterlimit="10"/>
<path d="M50.4 181.3L35.8 180.3C35.2 180.3 34.7 179.7 34.7 179.1L36.1 157.1C36.1 156.5 36.7 156 37.3 156L51.9 157C52.5 157 53 157.6 53 158.2L51.6 180.2C51.6 180.8 51 181.3 50.4 181.3Z" fill="white" stroke="url(#paint5_linear_12_2880)" stroke-width="1.4173" stroke-miterlimit="10"/>
<path d="M42.1627 99.641C42.0798 99.6433 42.0126 99.6161 41.9612 99.5595C41.9098 99.5028 41.8911 99.4286 41.9052 99.3369L42.9755 93.529L41.1066 94.8265C41.017 94.8871 40.9346 94.9102 40.8595 94.8957C40.7843 94.8812 40.725 94.8372 40.6814 94.7637L40.0674 93.7348C40.0404 93.6609 40.0382 93.5821 40.0608 93.4984C40.0914 93.4062 40.1516 93.334 40.2415 93.2817L43.5142 90.9736C43.5714 90.9388 43.6164 90.9168 43.6494 90.9075C43.6904 90.8898 43.7441 90.88 43.8104 90.8781L45.3782 90.8343C45.4695 90.8317 45.5408 90.8588 45.5922 90.9155C45.6436 90.9721 45.6623 91.0463 45.6482 91.138L44.1449 99.2742C44.1308 99.366 44.0873 99.4419 44.0143 99.502C43.9495 99.562 43.8716 99.5932 43.7803 99.5958L42.1627 99.641Z" fill="black"/>
<path d="M39.793 136.593C39.7017 136.596 39.6304 136.569 39.579 136.512C39.5359 136.455 39.5214 136.381 39.5354 136.289L39.6974 135.401C39.7123 135.342 39.7472 135.254 39.802 135.136C39.8566 135.01 39.9654 134.891 40.1282 134.778L41.6481 133.466C42.4054 132.938 43.028 132.493 43.516 132.131C44.012 131.76 44.3889 131.434 44.6467 131.153C44.9128 130.871 45.0674 130.61 45.1104 130.368C45.1606 130.084 45.1292 129.853 45.0163 129.673C44.9031 129.485 44.6682 129.396 44.3115 129.406C44.0626 129.413 43.8484 129.473 43.669 129.586C43.4976 129.691 43.352 129.828 43.2322 129.997C43.1207 130.166 43.03 130.339 42.9602 130.515C42.9135 130.624 42.8451 130.701 42.755 130.745C42.6732 130.789 42.5867 130.812 42.4954 130.815L40.9401 130.858C40.8571 130.86 40.7942 130.837 40.7513 130.789C40.7168 130.74 40.7067 130.678 40.7212 130.603C40.8013 130.202 40.9527 129.824 41.1752 129.469C41.406 129.114 41.6919 128.799 42.0329 128.524C42.3736 128.24 42.7659 128.018 43.2096 127.856C43.6534 127.694 44.1283 127.606 44.6343 127.592C45.3477 127.572 45.9273 127.668 46.3732 127.879C46.8274 128.091 47.1432 128.397 47.3205 128.799C47.5058 129.193 47.5479 129.66 47.4469 130.203C47.3753 130.612 47.2159 130.998 46.9688 131.362C46.7296 131.717 46.4155 132.062 46.0264 132.397C45.6453 132.723 45.1983 133.063 44.6852 133.418L43.324 134.614L46.5342 134.525C46.6255 134.522 46.6926 134.549 46.7357 134.606C46.7788 134.663 46.7934 134.737 46.7793 134.829L46.5532 136.093C46.5391 136.185 46.4956 136.261 46.4226 136.321C46.3495 136.381 46.2674 136.412 46.1761 136.415L39.793 136.593Z" fill="black"/>
<path d="M43.0108 173.414C42.3637 173.432 41.8266 173.372 41.3994 173.235C40.9719 173.089 40.6345 172.899 40.3872 172.666C40.148 172.423 39.9831 172.166 39.8925 171.895C39.8016 171.615 39.7734 171.346 39.8076 171.088C39.8221 171.013 39.8577 170.949 39.9144 170.898C39.9794 170.846 40.0492 170.82 40.1238 170.817L41.7539 170.772C41.8534 170.769 41.9286 170.788 41.9796 170.828C42.0303 170.86 42.0734 170.917 42.1089 170.999C42.1382 171.155 42.2081 171.282 42.3187 171.379C42.4294 171.475 42.5724 171.542 42.7477 171.578C42.9311 171.606 43.1307 171.618 43.3464 171.611C43.7694 171.6 44.1152 171.495 44.3836 171.296C44.6517 171.089 44.8184 170.815 44.8835 170.473C44.9482 170.114 44.8831 169.862 44.6881 169.719C44.4929 169.566 44.1921 169.496 43.7856 169.507L42.392 169.546C42.3091 169.548 42.2419 169.521 42.1905 169.465C42.1391 169.408 42.1246 169.334 42.1469 169.242L42.2643 168.541C42.2864 168.441 42.3254 168.353 42.3814 168.276C42.4374 168.2 42.4898 168.145 42.5386 168.11L44.9042 166.313L41.4575 166.409C41.3662 166.412 41.2949 166.385 41.2435 166.328C41.2004 166.271 41.1859 166.197 41.1999 166.105L41.4161 164.929C41.4301 164.837 41.4737 164.761 41.5467 164.701C41.6197 164.641 41.6977 164.609 41.7807 164.607L47.5044 164.447C47.5956 164.444 47.6628 164.472 47.7059 164.529C47.7573 164.585 47.776 164.659 47.7619 164.751L47.5675 165.815C47.5535 165.907 47.5185 165.991 47.4625 166.067C47.4063 166.135 47.3539 166.19 47.3053 166.233L45.0773 168.051L45.1775 168.074C45.6354 168.119 46.033 168.236 46.3704 168.426C46.7076 168.608 46.9515 168.871 47.1023 169.215C47.253 169.56 47.2779 170.003 47.1768 170.545C47.0682 171.113 46.8164 171.61 46.4216 172.036C46.0348 172.454 45.5459 172.783 44.9549 173.023C44.3639 173.264 43.7158 173.394 43.0108 173.414Z" fill="black"/>
<path d="M70.0112 171.579C69.9599 171.579 69.9202 171.563 69.8922 171.53C69.8642 171.497 69.8549 171.455 69.8642 171.404L70.5712 168.114C70.5805 168.063 70.6039 168.021 70.6412 167.988C70.6832 167.955 70.7299 167.939 70.7812 167.939H71.5862C71.6375 167.939 71.6772 167.955 71.7052 167.988C71.7332 168.021 71.7425 168.063 71.7332 168.114L71.4812 169.276H71.8242L72.8322 168.051C72.8555 168.028 72.8835 168.004 72.9162 167.981C72.9489 167.953 72.9932 167.939 73.0492 167.939H73.9662C74.0082 167.939 74.0409 167.953 74.0642 167.981C74.0875 168.004 74.0969 168.037 74.0922 168.079C74.0875 168.107 74.0689 168.14 74.0362 168.177L72.6922 169.773L73.4342 171.348C73.4435 171.362 73.4482 171.376 73.4482 171.39C73.4529 171.404 73.4529 171.42 73.4482 171.439C73.4435 171.481 73.4225 171.516 73.3852 171.544C73.3479 171.567 73.3082 171.579 73.2662 171.579H72.3842C72.3375 171.579 72.3002 171.57 72.2722 171.551C72.2442 171.528 72.2209 171.5 72.2022 171.467L71.6492 170.193H71.2852L71.0262 171.404C71.0169 171.455 70.9912 171.497 70.9492 171.53C70.9119 171.563 70.8675 171.579 70.8162 171.579H70.0112ZM76.4481 171.649C76.0748 171.649 75.7621 171.586 75.5101 171.46C75.2581 171.334 75.0761 171.154 74.9641 170.921C74.8568 170.683 74.8288 170.401 74.8801 170.074C74.8895 169.981 74.9058 169.876 74.9291 169.759C74.9571 169.638 74.9851 169.533 75.0131 169.444C75.1018 169.113 75.2371 168.83 75.4191 168.597C75.6011 168.364 75.8345 168.184 76.1191 168.058C76.4038 167.932 76.7421 167.869 77.1341 167.869C77.5028 167.869 77.8131 167.932 78.0651 168.058C78.3171 168.184 78.5015 168.364 78.6181 168.597C78.7348 168.83 78.7675 169.113 78.7161 169.444C78.6975 169.533 78.6765 169.638 78.6531 169.759C78.6298 169.876 78.6065 169.981 78.5831 170.074C78.4945 170.401 78.3615 170.683 78.1841 170.921C78.0068 171.154 77.7758 171.334 77.4911 171.46C77.2065 171.586 76.8588 171.649 76.4481 171.649ZM76.5531 170.795C76.7631 170.795 76.9335 170.732 77.0641 170.606C77.1948 170.48 77.2928 170.291 77.3581 170.039C77.3768 169.969 77.3978 169.876 77.4211 169.759C77.4491 169.642 77.4678 169.549 77.4771 169.479C77.5191 169.232 77.5075 169.045 77.4421 168.919C77.3768 168.788 77.2391 168.723 77.0291 168.723C76.8285 168.723 76.6605 168.788 76.5251 168.919C76.3945 169.045 76.2988 169.232 76.2381 169.479C76.2195 169.549 76.1961 169.642 76.1681 169.759C76.1448 169.876 76.1285 169.969 76.1191 170.039C76.0771 170.291 76.0865 170.48 76.1471 170.606C76.2125 170.732 76.3478 170.795 76.5531 170.795ZM79.8528 171.579C79.8154 171.579 79.7851 171.565 79.7618 171.537C79.7431 171.509 79.7361 171.474 79.7408 171.432L80.4548 168.079C80.4641 168.042 80.4851 168.009 80.5178 167.981C80.5504 167.953 80.5854 167.939 80.6228 167.939H81.3858C81.4698 167.939 81.5281 167.981 81.5608 168.065L82.3868 170.312L81.8828 170.221L83.4858 168.065C83.5511 167.981 83.6281 167.939 83.7168 167.939H84.5498C84.5918 167.939 84.6244 167.953 84.6478 167.981C84.6711 168.009 84.6781 168.042 84.6688 168.079L83.9548 171.432C83.9501 171.474 83.9291 171.509 83.8918 171.537C83.8591 171.565 83.8218 171.579 83.7798 171.579H82.9118C82.8698 171.579 82.8371 171.565 82.8138 171.537C82.7951 171.509 82.7881 171.474 82.7928 171.432L83.2828 169.15L83.6048 169.136L82.3098 170.879C82.2771 170.921 82.2421 170.958 82.2048 170.991C82.1674 171.019 82.1231 171.033 82.0718 171.033H81.8548C81.8034 171.033 81.7638 171.019 81.7358 170.991C81.7124 170.963 81.6914 170.926 81.6728 170.879L81.0988 169.185L81.3718 169.199L80.8958 171.432C80.8911 171.474 80.8701 171.509 80.8328 171.537C80.8001 171.565 80.7628 171.579 80.7208 171.579H79.8528ZM85.6532 171.579C85.6019 171.579 85.5622 171.563 85.5342 171.53C85.5109 171.497 85.5015 171.455 85.5062 171.404L86.2132 168.114C86.2225 168.063 86.2459 168.021 86.2832 167.988C86.3252 167.955 86.3719 167.939 86.4232 167.939H89.6292C89.6805 167.939 89.7202 167.955 89.7482 167.988C89.7762 168.021 89.7855 168.063 89.7762 168.114L89.0692 171.404C89.0599 171.455 89.0342 171.497 88.9922 171.53C88.9549 171.563 88.9105 171.579 88.8592 171.579H88.0332C87.9865 171.579 87.9492 171.563 87.9212 171.53C87.8932 171.497 87.8839 171.455 87.8932 171.404L88.4322 168.856H87.2282L86.6892 171.404C86.6799 171.455 86.6542 171.497 86.6122 171.53C86.5702 171.563 86.5259 171.579 86.4792 171.579H85.6532ZM90.5524 171.579C90.501 171.579 90.4614 171.563 90.4334 171.53C90.4054 171.493 90.396 171.451 90.4054 171.404L90.5384 170.788C90.5617 170.685 90.6294 170.627 90.7414 170.613C90.8814 170.599 90.998 170.536 91.0914 170.424C91.1847 170.312 91.2687 170.146 91.3434 169.927C91.418 169.708 91.4904 169.432 91.5604 169.101L91.7774 168.114C91.7867 168.063 91.81 168.021 91.8474 167.988C91.8894 167.955 91.9337 167.939 91.9804 167.939H94.7244C94.7757 167.939 94.8154 167.955 94.8434 167.988C94.8714 168.021 94.8807 168.063 94.8714 168.114L94.1644 171.404C94.1597 171.455 94.1364 171.497 94.0944 171.53C94.0524 171.563 94.0057 171.579 93.9544 171.579H93.1284C93.0817 171.579 93.0444 171.563 93.0164 171.53C92.9884 171.497 92.979 171.455 92.9884 171.404L93.5344 168.856H92.7364L92.6594 169.227C92.5614 169.675 92.454 170.051 92.3374 170.354C92.2254 170.657 92.09 170.898 91.9314 171.075C91.7774 171.252 91.5884 171.381 91.3644 171.46C91.1404 171.539 90.8697 171.579 90.5524 171.579ZM97.3909 171.649C97.0269 171.649 96.7212 171.584 96.4739 171.453C96.2312 171.318 96.0632 171.117 95.9699 170.851C95.8812 170.585 95.8719 170.258 95.9419 169.871C95.9512 169.838 95.9605 169.796 95.9699 169.745C95.9792 169.694 95.9885 169.654 95.9979 169.626C96.0912 169.257 96.2405 168.942 96.4459 168.681C96.6512 168.415 96.9032 168.214 97.2019 168.079C97.5005 167.939 97.8295 167.869 98.1889 167.869C98.5995 167.869 98.9192 167.951 99.1479 168.114C99.3812 168.277 99.5352 168.499 99.6099 168.779C99.6892 169.059 99.6915 169.379 99.6169 169.738L99.5889 169.906C99.5795 169.957 99.5515 169.999 99.5049 170.032C99.4629 170.065 99.4162 170.081 99.3649 170.081H97.1319C97.1319 170.086 97.1295 170.093 97.1249 170.102C97.1249 170.111 97.1225 170.121 97.1179 170.13C97.0945 170.265 97.0922 170.389 97.1109 170.501C97.1295 170.613 97.1762 170.702 97.2509 170.767C97.3255 170.832 97.4259 170.865 97.5519 170.865C97.6405 170.865 97.7199 170.851 97.7899 170.823C97.8599 170.79 97.9205 170.755 97.9719 170.718C98.0232 170.676 98.0652 170.641 98.0979 170.613C98.1492 170.566 98.1889 170.538 98.2169 170.529C98.2449 170.515 98.2869 170.508 98.3429 170.508H99.2109C99.2575 170.508 99.2925 170.522 99.3159 170.55C99.3392 170.573 99.3439 170.608 99.3299 170.655C99.3065 170.734 99.2459 170.83 99.1479 170.942C99.0545 171.054 98.9239 171.166 98.7559 171.278C98.5879 171.385 98.3895 171.474 98.1609 171.544C97.9322 171.614 97.6755 171.649 97.3909 171.649ZM97.2789 169.388H98.4619L98.4689 169.374C98.5062 169.225 98.5109 169.094 98.4829 168.982C98.4595 168.87 98.4082 168.784 98.3289 168.723C98.2542 168.662 98.1539 168.632 98.0279 168.632C97.9019 168.632 97.7875 168.662 97.6849 168.723C97.5869 168.784 97.5029 168.87 97.4329 168.982C97.3675 169.094 97.3162 169.225 97.2789 169.374V169.388ZM101.624 171.579C101.578 171.579 101.54 171.563 101.512 171.53C101.484 171.497 101.475 171.455 101.484 171.404L102.03 168.856H100.966C100.915 168.856 100.875 168.84 100.847 168.807C100.824 168.774 100.817 168.732 100.826 168.681L100.952 168.114C100.962 168.063 100.985 168.021 101.022 167.988C101.064 167.955 101.109 167.939 101.155 167.939H104.445C104.492 167.939 104.529 167.955 104.557 167.988C104.585 168.021 104.595 168.063 104.585 168.114L104.466 168.681C104.457 168.732 104.431 168.774 104.389 168.807C104.347 168.84 104.301 168.856 104.249 168.856H103.185L102.646 171.404C102.637 171.455 102.611 171.497 102.569 171.53C102.532 171.563 102.488 171.579 102.436 171.579H101.624Z" fill="black"/>
<path d="M23.127 67C23.0803 67 23.043 66.9837 23.015 66.951C22.987 66.9183 22.9777 66.8763 22.987 66.825L23.533 64.277H22.469C22.4177 64.277 22.378 64.2607 22.35 64.228C22.3267 64.1953 22.3197 64.1533 22.329 64.102L22.455 63.535C22.4643 63.4837 22.4877 63.4417 22.525 63.409C22.567 63.3763 22.6113 63.36 22.658 63.36H25.948C25.9947 63.36 26.032 63.3763 26.06 63.409C26.088 63.4417 26.0973 63.4837 26.088 63.535L25.969 64.102C25.9597 64.1533 25.934 64.1953 25.892 64.228C25.85 64.2607 25.8033 64.277 25.752 64.277H24.688L24.149 66.825C24.1397 66.8763 24.114 66.9183 24.072 66.951C24.0347 66.9837 23.9903 67 23.939 67H23.127ZM26.584 68.33C26.5326 68.33 26.4953 68.3137 26.472 68.281C26.4486 68.2483 26.4416 68.2063 26.451 68.155L27.431 63.535C27.4403 63.4837 27.4636 63.4417 27.501 63.409C27.543 63.3763 27.5896 63.36 27.641 63.36H28.432C28.4786 63.36 28.516 63.3763 28.544 63.409C28.572 63.4417 28.5813 63.4837 28.572 63.535L28.516 63.794C28.656 63.6493 28.824 63.5303 29.02 63.437C29.2206 63.339 29.4516 63.29 29.713 63.29C29.9463 63.29 30.1446 63.3273 30.308 63.402C30.4713 63.472 30.5996 63.577 30.693 63.717C30.791 63.857 30.8516 64.0273 30.875 64.228C30.903 64.4287 30.896 64.6597 30.854 64.921C30.8353 65.0143 30.8166 65.1007 30.798 65.18C30.784 65.2593 30.7653 65.3457 30.742 65.439C30.6626 65.7703 30.5366 66.0573 30.364 66.3C30.1913 66.5427 29.9813 66.7317 29.734 66.867C29.4913 67.0023 29.216 67.07 28.908 67.07C28.6793 67.07 28.4856 67.0303 28.327 66.951C28.173 66.867 28.0586 66.7503 27.984 66.601L27.655 68.155C27.6456 68.2063 27.62 68.2483 27.578 68.281C27.536 68.3137 27.4893 68.33 27.438 68.33H26.584ZM28.726 66.132C28.8846 66.132 29.0153 66.0993 29.118 66.034C29.2206 65.9687 29.3023 65.88 29.363 65.768C29.4283 65.656 29.4796 65.5323 29.517 65.397C29.5403 65.327 29.559 65.2547 29.573 65.18C29.5916 65.1053 29.6056 65.033 29.615 64.963C29.6336 64.8277 29.6336 64.704 29.615 64.592C29.601 64.48 29.5566 64.3913 29.482 64.326C29.4073 64.2607 29.2906 64.228 29.132 64.228C28.978 64.228 28.8473 64.263 28.74 64.333C28.6326 64.3983 28.5463 64.4847 28.481 64.592C28.4156 64.6993 28.3666 64.816 28.334 64.942C28.3106 65.0307 28.2896 65.117 28.271 65.201C28.2523 65.285 28.236 65.3737 28.222 65.467C28.2033 65.5837 28.2056 65.6933 28.229 65.796C28.2523 65.894 28.3036 65.9757 28.383 66.041C28.467 66.1017 28.5813 66.132 28.726 66.132ZM33.016 67.07C32.792 67.07 32.5936 67.035 32.421 66.965C32.253 66.8903 32.1176 66.783 32.015 66.643C31.9123 66.4983 31.8446 66.3257 31.812 66.125C31.7793 65.9197 31.784 65.6863 31.826 65.425C31.8446 65.3317 31.861 65.25 31.875 65.18C31.889 65.1053 31.9076 65.0237 31.931 64.935C31.9916 64.683 32.0756 64.4567 32.183 64.256C32.2903 64.0553 32.4186 63.8827 32.568 63.738C32.7173 63.5933 32.89 63.4837 33.086 63.409C33.2866 63.3297 33.506 63.29 33.744 63.29C34.0286 63.29 34.2433 63.332 34.388 63.416C34.5373 63.4953 34.6563 63.5957 34.745 63.717L34.78 63.535C34.7893 63.4837 34.8126 63.4417 34.85 63.409C34.892 63.3763 34.9386 63.36 34.99 63.36H35.774C35.8206 63.36 35.858 63.3763 35.886 63.409C35.914 63.4417 35.9233 63.4837 35.914 63.535L35.221 66.825C35.2116 66.8763 35.186 66.9183 35.144 66.951C35.102 66.9837 35.0576 67 35.011 67H34.22C34.1733 67 34.136 66.9837 34.108 66.951C34.08 66.9183 34.0706 66.8763 34.08 66.825L34.129 66.601C33.9843 66.7363 33.828 66.8483 33.66 66.937C33.4966 67.0257 33.282 67.07 33.016 67.07ZM33.499 66.132C33.6576 66.132 33.7906 66.0993 33.898 66.034C34.0053 65.964 34.094 65.8753 34.164 65.768C34.234 65.6607 34.283 65.544 34.311 65.418C34.339 65.3247 34.36 65.236 34.374 65.152C34.3926 65.068 34.409 64.9817 34.423 64.893C34.4463 64.7763 34.4463 64.669 34.423 64.571C34.4043 64.4683 34.3553 64.3867 34.276 64.326C34.2013 64.2607 34.0893 64.228 33.94 64.228C33.7953 64.228 33.6716 64.2607 33.569 64.326C33.4663 64.3913 33.3823 64.48 33.317 64.592C33.2563 64.704 33.205 64.8277 33.163 64.963C33.1443 65.033 33.1256 65.1053 33.107 65.18C33.0883 65.2547 33.0743 65.327 33.065 65.397C33.0463 65.5323 33.0416 65.656 33.051 65.768C33.065 65.88 33.107 65.9687 33.177 66.034C33.247 66.0993 33.3543 66.132 33.499 66.132ZM36.9358 67C36.8845 67 36.8448 66.9837 36.8168 66.951C36.7888 66.9183 36.7795 66.8763 36.7888 66.825L37.4958 63.535C37.5051 63.4837 37.5285 63.4417 37.5658 63.409C37.6078 63.3763 37.6545 63.36 37.7058 63.36H38.5318C38.5785 63.36 38.6158 63.3763 38.6438 63.409C38.6718 63.4417 38.6811 63.4837 38.6718 63.535L38.4198 64.697H39.6798L39.9318 63.535C39.9411 63.4837 39.9645 63.4417 40.0018 63.409C40.0438 63.3763 40.0905 63.36 40.1418 63.36H40.9678C41.0145 63.36 41.0518 63.3763 41.0798 63.409C41.1078 63.4417 41.1171 63.4837 41.1078 63.535L40.4078 66.825C40.3985 66.8763 40.3728 66.9183 40.3308 66.951C40.2888 66.9837 40.2445 67 40.1978 67H39.3718C39.3205 67 39.2808 66.9837 39.2528 66.951C39.2248 66.9183 39.2155 66.8763 39.2248 66.825L39.4838 65.614H38.2308L37.9718 66.825C37.9625 66.8763 37.9368 66.9183 37.8948 66.951C37.8528 66.9837 37.8085 67 37.7618 67H36.9358ZM43.5767 67.07C43.2547 67.07 42.9677 67.007 42.7157 66.881C42.4637 66.755 42.277 66.573 42.1557 66.335C42.0343 66.0923 42.0017 65.803 42.0577 65.467C42.0717 65.3923 42.0903 65.299 42.1137 65.187C42.137 65.0703 42.158 64.9747 42.1767 64.9C42.3027 64.3913 42.5453 63.997 42.9047 63.717C43.2687 63.4323 43.7213 63.29 44.2627 63.29C44.5753 63.29 44.839 63.3367 45.0537 63.43C45.2683 63.5187 45.4387 63.633 45.5647 63.773C45.6907 63.913 45.777 64.0553 45.8237 64.2C45.875 64.34 45.8937 64.4637 45.8797 64.571C45.875 64.6177 45.8517 64.6597 45.8097 64.697C45.7677 64.7297 45.7233 64.746 45.6767 64.746H44.7737C44.727 64.746 44.6897 64.7343 44.6617 64.711C44.6383 64.6877 44.622 64.6503 44.6127 64.599C44.6033 64.459 44.5613 64.3563 44.4867 64.291C44.4167 64.2257 44.3117 64.193 44.1717 64.193C43.985 64.193 43.824 64.2537 43.6887 64.375C43.558 64.4963 43.46 64.683 43.3947 64.935C43.376 65.0237 43.3573 65.1123 43.3387 65.201C43.32 65.285 43.3037 65.362 43.2897 65.432C43.2477 65.6887 43.2617 65.8753 43.3317 65.992C43.4017 66.1087 43.53 66.167 43.7167 66.167C43.8613 66.167 43.985 66.1367 44.0877 66.076C44.195 66.0153 44.286 65.9127 44.3607 65.768C44.3933 65.7213 44.426 65.6863 44.4587 65.663C44.4913 65.6397 44.531 65.628 44.5777 65.628H45.4807C45.5273 65.628 45.5647 65.6467 45.5927 65.684C45.6207 65.7167 45.6277 65.7563 45.6137 65.803C45.5857 65.8963 45.5273 66.0153 45.4387 66.16C45.3547 66.3 45.231 66.44 45.0677 66.58C44.909 66.72 44.706 66.8367 44.4587 66.93C44.216 67.0233 43.922 67.07 43.5767 67.07ZM46.9218 67C46.8704 67 46.8308 66.9837 46.8028 66.951C46.7794 66.9183 46.7701 66.8763 46.7748 66.825L47.4818 63.535C47.4911 63.4837 47.5144 63.4417 47.5518 63.409C47.5938 63.3763 47.6404 63.36 47.6918 63.36H50.8978C50.9491 63.36 50.9888 63.3763 51.0168 63.409C51.0448 63.4417 51.0541 63.4837 51.0448 63.535L50.3378 66.825C50.3284 66.8763 50.3028 66.9183 50.2608 66.951C50.2234 66.9837 50.1791 67 50.1278 67H49.3018C49.2551 67 49.2178 66.9837 49.1898 66.951C49.1618 66.9183 49.1524 66.8763 49.1618 66.825L49.7008 64.277H48.4968L47.9578 66.825C47.9484 66.8763 47.9228 66.9183 47.8808 66.951C47.8388 66.9837 47.7944 67 47.7477 67H46.9218ZM53.5569 67.07C53.1836 67.07 52.8709 67.007 52.6189 66.881C52.3669 66.755 52.1849 66.5753 52.0729 66.342C51.9656 66.104 51.9376 65.8217 51.9889 65.495C51.9983 65.4017 52.0146 65.2967 52.0379 65.18C52.0659 65.0587 52.0939 64.9537 52.1219 64.865C52.2106 64.5337 52.3459 64.2513 52.5279 64.018C52.7099 63.7847 52.9433 63.605 53.2279 63.479C53.5126 63.353 53.8509 63.29 54.2429 63.29C54.6116 63.29 54.9219 63.353 55.1739 63.479C55.4259 63.605 55.6103 63.7847 55.7269 64.018C55.8436 64.2513 55.8763 64.5337 55.8249 64.865C55.8063 64.9537 55.7853 65.0587 55.7619 65.18C55.7386 65.2967 55.7153 65.4017 55.6919 65.495C55.6033 65.8217 55.4703 66.104 55.2929 66.342C55.1156 66.5753 54.8846 66.755 54.5999 66.881C54.3153 67.007 53.9676 67.07 53.5569 67.07ZM53.6619 66.216C53.8719 66.216 54.0423 66.153 54.1729 66.027C54.3036 65.901 54.4016 65.712 54.4669 65.46C54.4856 65.39 54.5066 65.2967 54.5299 65.18C54.5579 65.0633 54.5766 64.97 54.5859 64.9C54.6279 64.6527 54.6163 64.466 54.5509 64.34C54.4856 64.2093 54.3479 64.144 54.1379 64.144C53.9373 64.144 53.7693 64.2093 53.6339 64.34C53.5033 64.466 53.4076 64.6527 53.3469 64.9C53.3283 64.97 53.3049 65.0633 53.2769 65.18C53.2536 65.2967 53.2373 65.39 53.2279 65.46C53.1859 65.712 53.1953 65.901 53.2559 66.027C53.3213 66.153 53.4566 66.216 53.6619 66.216ZM56.8426 68.33C56.7912 68.33 56.7539 68.3137 56.7306 68.281C56.7072 68.2483 56.7002 68.2063 56.7096 68.155L57.6896 63.535C57.6989 63.4837 57.7222 63.4417 57.7596 63.409C57.8016 63.3763 57.8482 63.36 57.8996 63.36H58.6906C58.7372 63.36 58.7746 63.3763 58.8026 63.409C58.8306 63.4417 58.8399 63.4837 58.8306 63.535L58.7746 63.794C58.9146 63.6493 59.0826 63.5303 59.2786 63.437C59.4792 63.339 59.7102 63.29 59.9716 63.29C60.2049 63.29 60.4032 63.3273 60.5666 63.402C60.7299 63.472 60.8582 63.577 60.9516 63.717C61.0496 63.857 61.1102 64.0273 61.1336 64.228C61.1616 64.4287 61.1546 64.6597 61.1126 64.921C61.0939 65.0143 61.0752 65.1007 61.0566 65.18C61.0426 65.2593 61.0239 65.3457 61.0006 65.439C60.9212 65.7703 60.7952 66.0573 60.6226 66.3C60.4499 66.5427 60.2399 66.7317 59.9926 66.867C59.7499 67.0023 59.4746 67.07 59.1666 67.07C58.9379 67.07 58.7442 67.0303 58.5856 66.951C58.4316 66.867 58.3172 66.7503 58.2426 66.601L57.9136 68.155C57.9042 68.2063 57.8786 68.2483 57.8366 68.281C57.7946 68.3137 57.7479 68.33 57.6966 68.33H56.8426ZM58.9846 66.132C59.1432 66.132 59.2739 66.0993 59.3766 66.034C59.4792 65.9687 59.5609 65.88 59.6216 65.768C59.6869 65.656 59.7382 65.5323 59.7756 65.397C59.7989 65.327 59.8176 65.2547 59.8316 65.18C59.8502 65.1053 59.8642 65.033 59.8736 64.963C59.8922 64.8277 59.8922 64.704 59.8736 64.592C59.8596 64.48 59.8152 64.3913 59.7406 64.326C59.6659 64.2607 59.5492 64.228 59.3906 64.228C59.2366 64.228 59.1059 64.263 58.9986 64.333C58.8912 64.3983 58.8049 64.4847 58.7396 64.592C58.6742 64.6993 58.6252 64.816 58.5926 64.942C58.5692 65.0307 58.5482 65.117 58.5296 65.201C58.5109 65.285 58.4946 65.3737 58.4806 65.467C58.4619 65.5837 58.4642 65.6933 58.4876 65.796C58.5109 65.894 58.5622 65.9757 58.6416 66.041C58.7256 66.1017 58.8399 66.132 58.9846 66.132ZM63.0366 67C62.9899 67 62.9526 66.9837 62.9246 66.951C62.8966 66.9183 62.8872 66.8763 62.8966 66.825L63.4426 64.277H62.3786C62.3272 64.277 62.2876 64.2607 62.2596 64.228C62.2362 64.1953 62.2292 64.1533 62.2386 64.102L62.3646 63.535C62.3739 63.4837 62.3972 63.4417 62.4346 63.409C62.4766 63.3763 62.5209 63.36 62.5676 63.36H65.8576C65.9042 63.36 65.9416 63.3763 65.9696 63.409C65.9976 63.4417 66.0069 63.4837 65.9976 63.535L65.8786 64.102C65.8692 64.1533 65.8436 64.1953 65.8016 64.228C65.7596 64.2607 65.7129 64.277 65.6616 64.277H64.5976L64.0586 66.825C64.0492 66.8763 64.0236 66.9183 63.9816 66.951C63.9442 66.9837 63.8999 67 63.8486 67H63.0366Z" fill="black"/>
<path d="M123.973 99C123.907 99 123.853 98.9751 123.811 98.9253C123.778 98.8755 123.766 98.8174 123.774 98.751L125.044 92.7761C125.06 92.7097 125.097 92.6516 125.156 92.6018C125.214 92.552 125.276 92.5271 125.342 92.5271H127.023C127.18 92.5271 127.288 92.606 127.346 92.7637L128.815 96.5229L127.757 96.3362L130.458 92.7637C130.574 92.606 130.716 92.5271 130.882 92.5271H132.711C132.786 92.5271 132.844 92.552 132.886 92.6018C132.927 92.6516 132.94 92.7097 132.923 92.7761L131.653 98.751C131.645 98.8174 131.608 98.8755 131.541 98.9253C131.483 98.9751 131.413 99 131.33 99H129.388C129.313 99 129.259 98.9751 129.226 98.9253C129.193 98.8755 129.18 98.8174 129.189 98.751L129.973 95.0789L130.608 95.0416L128.541 97.805C128.483 97.8797 128.421 97.9419 128.355 97.9917C128.297 98.0415 128.222 98.0664 128.131 98.0664H127.682C127.608 98.0664 127.546 98.0457 127.496 98.0042C127.446 97.9544 127.404 97.888 127.371 97.805L126.425 95.0789L126.985 95.1163L126.214 98.751C126.205 98.8174 126.168 98.8755 126.102 98.9253C126.043 98.9751 125.981 99 125.915 99H123.973Z" fill="black"/>
<path d="M119.111 99C119.02 99 118.949 98.971 118.9 98.9129C118.85 98.8465 118.833 98.7676 118.85 98.6764L119.995 93.3611L118.277 94.4939C118.186 94.552 118.099 94.5727 118.016 94.5561C117.933 94.5312 117.871 94.4814 117.829 94.4068L117.107 93.1122C117.082 93.0375 117.086 92.9545 117.119 92.8632C117.161 92.772 117.223 92.7014 117.306 92.6516L120.729 90.3737C120.787 90.3405 120.833 90.3197 120.866 90.3114C120.908 90.2948 120.962 90.2865 121.028 90.2865H122.982C123.074 90.2865 123.144 90.3197 123.194 90.3861C123.244 90.4442 123.26 90.5189 123.244 90.6102L121.526 98.6764C121.509 98.7676 121.464 98.8465 121.389 98.9129C121.314 98.971 121.231 99 121.14 99H119.111Z" fill="black"/>
<path d="M75.3816 98C75.2987 98 75.2323 97.9751 75.1825 97.9253C75.141 97.8672 75.1285 97.7967 75.1451 97.7137L75.3319 96.8175C75.3484 96.7345 75.3899 96.6681 75.4563 96.6183C75.5227 96.5602 75.5974 96.5312 75.6804 96.5312H76.5766C76.6596 96.5312 76.7219 96.5602 76.7633 96.6183C76.8048 96.6681 76.8173 96.7345 76.8007 96.8175L76.614 97.7137C76.5974 97.7967 76.5559 97.8672 76.4895 97.9253C76.4314 97.9751 76.3567 98 76.2654 98H75.3816ZM79.7141 98C79.6311 98 79.5647 97.9751 79.5149 97.9253C79.4734 97.8672 79.461 97.7967 79.4776 97.7137L79.6643 96.8175C79.6809 96.7345 79.7224 96.6681 79.7887 96.6183C79.8551 96.5602 79.9298 96.5312 80.0128 96.5312H80.909C80.992 96.5312 81.0543 96.5602 81.0958 96.6183C81.1373 96.6681 81.1497 96.7345 81.1331 96.8175L80.9464 97.7137C80.9298 97.7967 80.8883 97.8672 80.8219 97.9253C80.7638 97.9751 80.6891 98 80.5979 98H79.7141ZM84.0465 98C83.9635 98 83.8971 97.9751 83.8473 97.9253C83.8058 97.8672 83.7934 97.7967 83.81 97.7137L83.9967 96.8175C84.0133 96.7345 84.0548 96.6681 84.1212 96.6183C84.1876 96.5602 84.2622 96.5312 84.3452 96.5312H85.2415C85.3245 96.5312 85.3867 96.5602 85.4282 96.6183C85.4697 96.6681 85.4821 96.7345 85.4655 96.8175L85.2788 97.7137C85.2622 97.7967 85.2207 97.8672 85.1543 97.9253C85.0962 97.9751 85.0216 98 84.9303 98H84.0465ZM88.3789 98C88.2959 98 88.2295 97.9751 88.1797 97.9253C88.1382 97.8672 88.1258 97.7967 88.1424 97.7137L88.3291 96.8175C88.3457 96.7345 88.3872 96.6681 88.4536 96.6183C88.52 96.5602 88.5947 96.5312 88.6776 96.5312H89.5739C89.6569 96.5312 89.7191 96.5602 89.7606 96.6183C89.8021 96.6681 89.8145 96.7345 89.7979 96.8175L89.6112 97.7137C89.5946 97.7967 89.5531 97.8672 89.4868 97.9253C89.4287 97.9751 89.354 98 89.2627 98H88.3789ZM92.7113 98C92.6283 98 92.5619 97.9751 92.5122 97.9253C92.4707 97.8672 92.4582 97.7967 92.4748 97.7137L92.6615 96.8175C92.6781 96.7345 92.7196 96.6681 92.786 96.6183C92.8524 96.5602 92.9271 96.5312 93.0101 96.5312H93.9063C93.9893 96.5312 94.0515 96.5602 94.093 96.6183C94.1345 96.6681 94.147 96.7345 94.1304 96.8175L93.9436 97.7137C93.9271 97.7967 93.8856 97.8672 93.8192 97.9253C93.7611 97.9751 93.6864 98 93.5951 98H92.7113ZM97.0437 98C96.9607 98 96.8944 97.9751 96.8446 97.9253C96.8031 97.8672 96.7906 97.7967 96.8072 97.7137L96.9939 96.8175C97.0105 96.7345 97.052 96.6681 97.1184 96.6183C97.1848 96.5602 97.2595 96.5312 97.3425 96.5312H98.2387C98.3217 96.5312 98.3839 96.5602 98.4254 96.6183C98.4669 96.6681 98.4794 96.7345 98.4628 96.8175L98.2761 97.7137C98.2595 97.7967 98.218 97.8672 98.1516 97.9253C98.0935 97.9751 98.0188 98 97.9275 98H97.0437ZM101.376 98C101.293 98 101.227 97.9751 101.177 97.9253C101.135 97.8672 101.123 97.7967 101.14 97.7137L101.326 96.8175C101.343 96.7345 101.384 96.6681 101.451 96.6183C101.517 96.5602 101.592 96.5312 101.675 96.5312H102.571C102.654 96.5312 102.716 96.5602 102.758 96.6183C102.799 96.6681 102.812 96.7345 102.795 96.8175L102.608 97.7137C102.592 97.7967 102.55 97.8672 102.484 97.9253C102.426 97.9751 102.351 98 102.26 98H101.376Z" fill="#262626"/>
<path d="M123.973 136C123.907 136 123.853 135.975 123.811 135.925C123.778 135.876 123.766 135.817 123.774 135.751L125.044 129.776C125.06 129.71 125.097 129.652 125.156 129.602C125.214 129.552 125.276 129.527 125.342 129.527H127.023C127.18 129.527 127.288 129.606 127.346 129.764L128.815 133.523L127.757 133.336L130.458 129.764C130.574 129.606 130.716 129.527 130.882 129.527H132.711C132.786 129.527 132.844 129.552 132.886 129.602C132.927 129.652 132.94 129.71 132.923 129.776L131.653 135.751C131.645 135.817 131.608 135.876 131.541 135.925C131.483 135.975 131.413 136 131.33 136H129.388C129.313 136 129.259 135.975 129.226 135.925C129.193 135.876 129.18 135.817 129.189 135.751L129.973 132.079L130.608 132.042L128.541 134.805C128.483 134.88 128.421 134.942 128.355 134.992C128.297 135.042 128.222 135.066 128.131 135.066H127.682C127.608 135.066 127.546 135.046 127.496 135.004C127.446 134.954 127.404 134.888 127.371 134.805L126.425 132.079L126.985 132.116L126.214 135.751C126.205 135.817 126.168 135.876 126.102 135.925C126.043 135.975 125.981 136 125.915 136H123.973Z" fill="black"/>
<path d="M114.763 136C114.671 136 114.605 135.971 114.563 135.913C114.514 135.846 114.497 135.768 114.514 135.676L114.738 134.593C114.754 134.535 114.792 134.44 114.85 134.307C114.908 134.174 115.024 134.054 115.198 133.946L116.045 133.261C116.933 132.697 117.671 132.22 118.26 131.83C118.85 131.432 119.302 131.087 119.617 130.797C119.941 130.506 120.128 130.237 120.177 129.988C120.219 129.789 120.206 129.618 120.14 129.477C120.074 129.328 119.899 129.253 119.617 129.253C119.41 129.253 119.231 129.299 119.082 129.39C118.941 129.482 118.825 129.594 118.733 129.726C118.65 129.859 118.58 129.988 118.522 130.112C118.455 130.22 118.377 130.295 118.285 130.336C118.194 130.378 118.099 130.398 117.999 130.398H116.045C115.97 130.398 115.912 130.374 115.87 130.324C115.829 130.266 115.816 130.199 115.833 130.125C115.933 129.685 116.111 129.286 116.368 128.93C116.626 128.565 116.941 128.245 117.314 127.971C117.688 127.697 118.107 127.49 118.572 127.349C119.045 127.199 119.543 127.125 120.065 127.125C120.796 127.125 121.397 127.237 121.87 127.461C122.352 127.685 122.688 128 122.879 128.407C123.078 128.813 123.115 129.299 122.991 129.863C122.908 130.295 122.725 130.697 122.443 131.071C122.161 131.444 121.8 131.801 121.36 132.141C120.92 132.473 120.418 132.818 119.854 133.174L119.107 133.772H122.02C122.111 133.772 122.181 133.805 122.231 133.871C122.281 133.938 122.298 134.017 122.281 134.108L121.945 135.676C121.928 135.768 121.879 135.846 121.796 135.913C121.721 135.971 121.638 136 121.547 136H114.763Z" fill="black"/>
<path d="M75.3816 135C75.2987 135 75.2323 134.975 75.1825 134.925C75.141 134.867 75.1285 134.797 75.1451 134.714L75.3319 133.817C75.3484 133.734 75.3899 133.668 75.4563 133.618C75.5227 133.56 75.5974 133.531 75.6804 133.531H76.5766C76.6596 133.531 76.7219 133.56 76.7633 133.618C76.8048 133.668 76.8173 133.734 76.8007 133.817L76.614 134.714C76.5974 134.797 76.5559 134.867 76.4895 134.925C76.4314 134.975 76.3567 135 76.2654 135H75.3816ZM79.7141 135C79.6311 135 79.5647 134.975 79.5149 134.925C79.4734 134.867 79.461 134.797 79.4776 134.714L79.6643 133.817C79.6809 133.734 79.7224 133.668 79.7887 133.618C79.8551 133.56 79.9298 133.531 80.0128 133.531H80.909C80.992 133.531 81.0543 133.56 81.0958 133.618C81.1373 133.668 81.1497 133.734 81.1331 133.817L80.9464 134.714C80.9298 134.797 80.8883 134.867 80.8219 134.925C80.7638 134.975 80.6891 135 80.5979 135H79.7141ZM84.0465 135C83.9635 135 83.8971 134.975 83.8473 134.925C83.8058 134.867 83.7934 134.797 83.81 134.714L83.9967 133.817C84.0133 133.734 84.0548 133.668 84.1212 133.618C84.1876 133.56 84.2622 133.531 84.3452 133.531H85.2415C85.3245 133.531 85.3867 133.56 85.4282 133.618C85.4697 133.668 85.4821 133.734 85.4655 133.817L85.2788 134.714C85.2622 134.797 85.2207 134.867 85.1543 134.925C85.0962 134.975 85.0216 135 84.9303 135H84.0465ZM88.3789 135C88.2959 135 88.2295 134.975 88.1797 134.925C88.1382 134.867 88.1258 134.797 88.1424 134.714L88.3291 133.817C88.3457 133.734 88.3872 133.668 88.4536 133.618C88.52 133.56 88.5947 133.531 88.6776 133.531H89.5739C89.6569 133.531 89.7191 133.56 89.7606 133.618C89.8021 133.668 89.8145 133.734 89.7979 133.817L89.6112 134.714C89.5946 134.797 89.5531 134.867 89.4868 134.925C89.4287 134.975 89.354 135 89.2627 135H88.3789ZM92.7113 135C92.6283 135 92.5619 134.975 92.5122 134.925C92.4707 134.867 92.4582 134.797 92.4748 134.714L92.6615 133.817C92.6781 133.734 92.7196 133.668 92.786 133.618C92.8524 133.56 92.9271 133.531 93.0101 133.531H93.9063C93.9893 133.531 94.0515 133.56 94.093 133.618C94.1345 133.668 94.147 133.734 94.1304 133.817L93.9436 134.714C93.9271 134.797 93.8856 134.867 93.8192 134.925C93.7611 134.975 93.6864 135 93.5951 135H92.7113ZM97.0437 135C96.9607 135 96.8944 134.975 96.8446 134.925C96.8031 134.867 96.7906 134.797 96.8072 134.714L96.9939 133.817C97.0105 133.734 97.052 133.668 97.1184 133.618C97.1848 133.56 97.2595 133.531 97.3425 133.531H98.2387C98.3217 133.531 98.3839 133.56 98.4254 133.618C98.4669 133.668 98.4794 133.734 98.4628 133.817L98.2761 134.714C98.2595 134.797 98.218 134.867 98.1516 134.925C98.0935 134.975 98.0188 135 97.9275 135H97.0437ZM101.376 135C101.293 135 101.227 134.975 101.177 134.925C101.135 134.867 101.123 134.797 101.14 134.714L101.326 133.817C101.343 133.734 101.384 133.668 101.451 133.618C101.517 133.56 101.592 133.531 101.675 133.531H102.571C102.654 133.531 102.716 133.56 102.758 133.618C102.799 133.668 102.812 133.734 102.795 133.817L102.608 134.714C102.592 134.797 102.55 134.867 102.484 134.925C102.426 134.975 102.351 135 102.26 135H101.376Z" fill="#262626"/>
<path d="M123.973 173C123.907 173 123.853 172.975 123.811 172.925C123.778 172.876 123.766 172.817 123.774 172.751L125.044 166.776C125.06 166.71 125.097 166.652 125.156 166.602C125.214 166.552 125.276 166.527 125.342 166.527H127.023C127.18 166.527 127.288 166.606 127.346 166.764L128.815 170.523L127.757 170.336L130.458 166.764C130.574 166.606 130.716 166.527 130.882 166.527H132.711C132.786 166.527 132.844 166.552 132.886 166.602C132.927 166.652 132.94 166.71 132.923 166.776L131.653 172.751C131.645 172.817 131.608 172.876 131.541 172.925C131.483 172.975 131.413 173 131.33 173H129.388C129.313 173 129.259 172.975 129.226 172.925C129.193 172.876 129.18 172.817 129.189 172.751L129.973 169.079L130.608 169.042L128.541 171.805C128.483 171.88 128.421 171.942 128.355 171.992C128.297 172.042 128.222 172.066 128.131 172.066H127.682C127.608 172.066 127.546 172.046 127.496 172.004C127.446 171.954 127.404 171.888 127.371 171.805L126.425 169.079L126.985 169.116L126.214 172.751C126.205 172.817 126.168 172.876 126.102 172.925C126.043 172.975 125.981 173 125.915 173H123.973Z" fill="black"/>
<path d="M118.038 173.124C117.35 173.124 116.777 173.041 116.321 172.876C115.872 172.71 115.524 172.502 115.275 172.253C115.034 171.996 114.872 171.722 114.79 171.432C114.707 171.141 114.686 170.871 114.727 170.622C114.744 170.548 114.785 170.486 114.852 170.436C114.918 170.378 114.989 170.349 115.063 170.349H117.13C117.229 170.349 117.304 170.369 117.354 170.411C117.404 170.444 117.449 170.498 117.491 170.573C117.524 170.672 117.582 170.759 117.665 170.834C117.748 170.9 117.856 170.95 117.989 170.983C118.13 171.008 118.3 171.021 118.499 171.021C118.856 171.021 119.142 170.942 119.358 170.784C119.574 170.618 119.711 170.403 119.769 170.137C119.827 169.871 119.777 169.681 119.619 169.564C119.47 169.44 119.221 169.378 118.872 169.378H117.404C117.312 169.378 117.242 169.344 117.192 169.278C117.142 169.212 117.13 169.137 117.155 169.054L117.329 168.195C117.354 168.079 117.395 167.984 117.453 167.909C117.52 167.826 117.586 167.768 117.653 167.735L119.831 166.403H116.458C116.375 166.403 116.304 166.369 116.246 166.303C116.196 166.237 116.18 166.162 116.196 166.079L116.507 164.61C116.524 164.519 116.57 164.444 116.644 164.386C116.727 164.32 116.814 164.287 116.906 164.287H122.955C123.047 164.287 123.117 164.32 123.167 164.386C123.217 164.444 123.233 164.519 123.217 164.61L122.93 165.93C122.905 166.038 122.86 166.133 122.793 166.216C122.735 166.291 122.677 166.345 122.619 166.378L120.652 167.747L120.69 167.772C121.121 167.855 121.491 167.996 121.798 168.195C122.113 168.386 122.337 168.656 122.47 169.004C122.611 169.353 122.623 169.793 122.507 170.324C122.383 170.888 122.109 171.382 121.686 171.805C121.262 172.22 120.735 172.544 120.105 172.776C119.482 173.008 118.794 173.124 118.038 173.124Z" fill="black"/>
<path d="M25.4368 35.1744C25.2774 35.1744 25.147 35.1237 25.0456 35.0223C24.9442 34.9209 24.8935 34.7905 24.8935 34.6311V33.3271C24.8935 33.2112 24.9224 33.0591 24.9804 32.8707C25.0528 32.6679 25.205 32.4723 25.4368 32.2839L28.3056 29.4368C29.3633 28.6254 30.2181 27.9372 30.8701 27.3721C31.5366 26.8071 32.0293 26.2927 32.348 25.8291C32.6668 25.3654 32.8261 24.9163 32.8261 24.4816C32.8261 23.9165 32.6668 23.4529 32.348 23.0907C32.0437 22.714 31.5439 22.5256 30.8484 22.5256C30.3848 22.5256 29.9936 22.627 29.6748 22.8299C29.3705 23.0182 29.1315 23.2718 28.9576 23.5905C28.7837 23.9093 28.6678 24.257 28.6099 24.6337C28.5664 24.8221 28.4722 24.9525 28.3273 25.0249C28.1969 25.0974 28.0593 25.1336 27.9144 25.1336H25.6107C25.4658 25.1336 25.3499 25.0901 25.2629 25.0032C25.176 24.9018 25.1325 24.7931 25.1325 24.6772C25.147 24.0107 25.2847 23.3804 25.5455 22.7864C25.8207 22.1924 26.2047 21.6635 26.6973 21.1999C27.1899 20.7362 27.784 20.374 28.4795 20.1132C29.1749 19.8379 29.9646 19.7003 30.8484 19.7003C32.0655 19.7003 33.0869 19.9031 33.9128 20.3088C34.7387 20.7 35.3617 21.2433 35.7819 21.9388C36.2021 22.6343 36.4122 23.4384 36.4122 24.3512C36.4122 25.0467 36.2673 25.6914 35.9775 26.2855C35.7022 26.8795 35.2965 27.4518 34.7604 28.0024C34.2243 28.5385 33.5868 29.0963 32.8479 29.6759L30.2833 32.2404H36.1948C36.3542 32.2404 36.4846 32.2911 36.586 32.3926C36.6874 32.494 36.7382 32.6244 36.7382 32.7838V34.6311C36.7382 34.7905 36.6874 34.9209 36.586 35.0223C36.4846 35.1237 36.3542 35.1744 36.1948 35.1744H25.4368Z" fill="#FBFBFB"/>
<path d="M39.989 27C39.913 27 39.8497 26.9747 39.799 26.924C39.7483 26.8733 39.723 26.8099 39.723 26.7339V20.6647C39.723 20.5971 39.7483 20.538 39.799 20.4873C39.8497 20.4366 39.9088 20.4113 39.9764 20.4113H41.2181C41.3701 20.4113 41.4884 20.4873 41.5729 20.6394L43.4228 23.9464L45.26 20.6394C45.3445 20.4873 45.4627 20.4113 45.6148 20.4113H46.8692C46.9367 20.4113 46.9959 20.4366 47.0466 20.4873C47.0972 20.538 47.1226 20.5971 47.1226 20.6647V26.7339C47.1226 26.8099 47.0972 26.8733 47.0466 26.924C46.9959 26.9747 46.9325 27 46.8565 27H45.5261C45.4416 27 45.374 26.9747 45.3234 26.924C45.2811 26.8733 45.26 26.8099 45.26 26.7339V22.3626L45.8302 22.4766L44.031 25.7076C43.9887 25.7836 43.938 25.8512 43.8789 25.9103C43.8282 25.9695 43.7522 25.999 43.6508 25.999H43.182C43.0891 25.999 43.0131 25.9737 42.954 25.923C42.8948 25.8639 42.8399 25.7921 42.7892 25.7076L41.0407 22.5906L41.5729 22.4766V26.7339C41.5729 26.8099 41.5475 26.8733 41.4968 26.924C41.4462 26.9747 41.3828 27 41.3068 27H39.989Z" fill="#FBFBFB"/>
<defs>
<linearGradient id="paint0_linear_12_2880" x1="42.7" y1="82.9" x2="42.7" y2="107.4" gradientUnits="userSpaceOnUse">
<stop stop-color="#10B9D0"/>
<stop offset="1" stop-color="#10B9D0" stop-opacity="0.8"/>
</linearGradient>
<linearGradient id="paint1_linear_12_2880" x1="38.6483" y1="119.381" x2="38.6483" y2="146.419" gradientUnits="userSpaceOnUse">
<stop stop-color="#10B9D0"/>
<stop offset="1" stop-color="#10B9D0" stop-opacity="0.8"/>
</linearGradient>
<linearGradient id="paint2_linear_12_2880" x1="43.25" y1="119.8" x2="43.25" y2="145.313" gradientUnits="userSpaceOnUse">
<stop stop-color="#10B9D0"/>
<stop offset="1" stop-color="#10B9D0" stop-opacity="0.8"/>
</linearGradient>
<linearGradient id="paint3_linear_12_2880" x1="36.1886" y1="155.636" x2="36.1886" y2="184.464" gradientUnits="userSpaceOnUse">
<stop stop-color="#10B9D0"/>
<stop offset="1" stop-color="#10B9D0" stop-opacity="0.8"/>
</linearGradient>
<linearGradient id="paint4_linear_12_2880" x1="39.3483" y1="155.381" x2="39.3483" y2="182.519" gradientUnits="userSpaceOnUse">
<stop stop-color="#10B9D0"/>
<stop offset="1" stop-color="#10B9D0" stop-opacity="0.8"/>
</linearGradient>
<linearGradient id="paint5_linear_12_2880" x1="43.85" y1="156" x2="43.85" y2="181.3" gradientUnits="userSpaceOnUse">
<stop stop-color="#10B9D0"/>
<stop offset="1" stop-color="#10B9D0" stop-opacity="0.8"/>
</linearGradient>
</defs>
</svg>
