<svg width="162" height="248" viewBox="0 0 162 248" fill="none" xmlns="http://www.w3.org/2000/svg">
<rect y="0.399902" width="161" height="247" fill="#BE4E4E"/>
<rect x="10" y="10.3999" width="141" height="227" rx="10" fill="#F06161"/>
<path d="M40.4726 31.373C40.3966 31.373 40.3333 31.3477 40.2826 31.297C40.2319 31.2463 40.2066 31.183 40.2066 31.107V25.0378C40.2066 24.9702 40.2319 24.9111 40.2826 24.8604C40.3333 24.8097 40.3924 24.7843 40.46 24.7843H41.7017C41.8537 24.7843 41.972 24.8604 42.0565 25.0124L43.9064 28.3194L45.7436 25.0124C45.8281 24.8604 45.9463 24.7843 46.0984 24.7843H47.3528C47.4203 24.7843 47.4795 24.8097 47.5302 24.8604C47.5808 24.9111 47.6062 24.9702 47.6062 25.0378V31.107C47.6062 31.183 47.5808 31.2463 47.5302 31.297C47.4795 31.3477 47.4161 31.373 47.3401 31.373H46.0097C45.9252 31.373 45.8576 31.3477 45.807 31.297C45.7647 31.2463 45.7436 31.183 45.7436 31.107V26.7356L46.3138 26.8497L44.5146 30.0806C44.4723 30.1567 44.4216 30.2242 44.3625 30.2834C44.3118 30.3425 44.2358 30.3721 44.1344 30.3721H43.6656C43.5727 30.3721 43.4967 30.3467 43.4376 30.296C43.3784 30.2369 43.3235 30.1651 43.2728 30.0806L41.5243 26.9637L42.0565 26.8497V31.107C42.0565 31.183 42.0311 31.2463 41.9804 31.297C41.9298 31.3477 41.8664 31.373 41.7904 31.373H40.4726Z" fill="white"/>
<path d="M25.324 39C25.1646 39 25.0342 38.9493 24.9328 38.8479C24.8313 38.7464 24.7806 38.616 24.7806 38.4567V37.1527C24.7806 37.0367 24.8096 36.8846 24.8676 36.6963C24.94 36.4934 25.0921 36.2978 25.324 36.1095L28.1928 33.2624C29.2505 32.451 30.1053 31.7628 30.7573 31.1977C31.4238 30.6326 31.9164 30.1183 32.2352 29.6546C32.5539 29.191 32.7133 28.7418 32.7133 28.3072C32.7133 27.7421 32.5539 27.2785 32.2352 26.9162C31.9309 26.5395 31.431 26.3512 30.7356 26.3512C30.2719 26.3512 29.8807 26.4526 29.562 26.6554C29.2577 26.8438 29.0186 27.0973 28.8448 27.4161C28.6709 27.7349 28.555 28.0826 28.497 28.4593C28.4536 28.6477 28.3594 28.7781 28.2145 28.8505C28.0841 28.9229 27.9464 28.9592 27.8016 28.9592H25.4978C25.3529 28.9592 25.237 28.9157 25.1501 28.8288C25.0632 28.7273 25.0197 28.6187 25.0197 28.5028C25.0342 27.8363 25.1718 27.206 25.4326 26.612C25.7079 26.0179 26.0919 25.4891 26.5845 25.0254C27.0771 24.5618 27.6712 24.1996 28.3666 23.9388C29.0621 23.6635 29.8517 23.5258 30.7356 23.5258C31.9526 23.5258 32.9741 23.7287 33.8 24.1344C34.6258 24.5256 35.2489 25.0689 35.6691 25.7644C36.0892 26.4598 36.2993 27.264 36.2993 28.1768C36.2993 28.8722 36.1544 29.517 35.8647 30.111C35.5894 30.7051 35.1837 31.2774 34.6476 31.828C34.1115 32.3641 33.474 32.9219 32.735 33.5014L30.1705 36.066H36.082C36.2414 36.066 36.3718 36.1167 36.4732 36.2181C36.5746 36.3195 36.6253 36.4499 36.6253 36.6093V38.4567C36.6253 38.616 36.5746 38.7464 36.4732 38.8479C36.3718 38.9493 36.2414 39 36.082 39H25.324Z" fill="white"/>
<path d="M65.1887 35.08C64.9007 35.08 64.6421 35.0267 64.4127 34.92C64.1887 34.808 64.0101 34.6587 63.8767 34.472C63.7434 34.2853 63.6767 34.0747 63.6767 33.84C63.6767 33.4613 63.8314 33.1627 64.1407 32.944C64.4501 32.72 64.8607 32.568 65.3727 32.488L66.3727 32.336V32.224C66.3727 32.032 66.3327 31.8853 66.2527 31.784C66.1727 31.6827 66.0261 31.632 65.8127 31.632C65.6634 31.632 65.5407 31.6613 65.4447 31.72C65.3541 31.7787 65.2821 31.8587 65.2287 31.96C65.1807 32.0293 65.1141 32.064 65.0287 32.064H64.1327C64.0741 32.064 64.0287 32.048 63.9967 32.016C63.9647 31.9787 63.9514 31.936 63.9567 31.888C63.9567 31.792 63.9914 31.6827 64.0607 31.56C64.1354 31.432 64.2474 31.3067 64.3967 31.184C64.5461 31.0613 64.7381 30.96 64.9727 30.88C65.2074 30.8 65.4901 30.76 65.8207 30.76C66.1674 30.76 66.4634 30.8 66.7087 30.88C66.9541 30.96 67.1514 31.072 67.3007 31.216C67.4554 31.36 67.5701 31.5307 67.6447 31.728C67.7194 31.92 67.7567 32.1333 67.7567 32.368V34.8C67.7567 34.8587 67.7354 34.9067 67.6927 34.944C67.6554 34.9813 67.6101 35 67.5567 35H66.6287C66.5701 35 66.5221 34.9813 66.4847 34.944C66.4474 34.9067 66.4287 34.8587 66.4287 34.8V34.52C66.3594 34.6213 66.2661 34.7147 66.1487 34.8C66.0314 34.8853 65.8927 34.952 65.7327 35C65.5781 35.0533 65.3967 35.08 65.1887 35.08ZM65.5647 34.168C65.7194 34.168 65.8581 34.136 65.9807 34.072C66.1087 34.0027 66.2074 33.8987 66.2767 33.76C66.3514 33.616 66.3887 33.4373 66.3887 33.224V33.112L65.7087 33.232C65.4581 33.2747 65.2741 33.3413 65.1567 33.432C65.0447 33.5173 64.9887 33.6187 64.9887 33.736C64.9887 33.8267 65.0154 33.904 65.0687 33.968C65.1221 34.032 65.1914 34.0827 65.2767 34.12C65.3621 34.152 65.4581 34.168 65.5647 34.168ZM70.4595 35C70.4008 35 70.3528 34.9813 70.3155 34.944C70.2781 34.9067 70.2595 34.8587 70.2595 34.8V31.04C70.2595 30.9813 70.2781 30.9333 70.3155 30.896C70.3528 30.8587 70.4008 30.84 70.4595 30.84H71.3795C71.4381 30.84 71.4861 30.8587 71.5235 30.896C71.5608 30.9333 71.5795 30.9813 71.5795 31.04V32.368H72.0115L72.8835 30.968C72.8995 30.9413 72.9261 30.9147 72.9635 30.888C73.0008 30.856 73.0488 30.84 73.1075 30.84H74.1315C74.1795 30.84 74.2195 30.856 74.2515 30.888C74.2888 30.9147 74.3075 30.952 74.3075 31C74.3075 31.016 74.3021 31.0347 74.2915 31.056C74.2861 31.0773 74.2781 31.096 74.2675 31.112L73.1715 32.856L74.4515 34.736C74.4728 34.768 74.4835 34.8027 74.4835 34.84C74.4835 34.888 74.4675 34.928 74.4355 34.96C74.4035 34.9867 74.3608 35 74.3075 35H73.1795C73.1208 35 73.0728 34.9893 73.0355 34.968C73.0035 34.9413 72.9741 34.9093 72.9475 34.872L71.9955 33.416H71.5795V34.8C71.5795 34.8587 71.5608 34.9067 71.5235 34.944C71.4861 34.9813 71.4381 35 71.3795 35H70.4595ZM80.175 35.944C80.1164 35.944 80.0684 35.9227 80.031 35.88C79.9937 35.8427 79.975 35.7947 79.975 35.736V35H76.911C76.8524 35 76.8044 34.9813 76.767 34.944C76.7297 34.9067 76.711 34.8587 76.711 34.8V31.04C76.711 30.9813 76.7297 30.9333 76.767 30.896C76.8044 30.8587 76.8524 30.84 76.911 30.84H77.855C77.9084 30.84 77.9537 30.8587 77.991 30.896C78.0337 30.9333 78.055 30.9813 78.055 31.04V33.952H79.431V31.04C79.431 30.9813 79.4497 30.9333 79.487 30.896C79.5297 30.8587 79.5777 30.84 79.631 30.84H80.575C80.6337 30.84 80.6817 30.8587 80.719 30.896C80.7564 30.9333 80.775 30.9813 80.775 31.04V33.952H81.119C81.1777 33.952 81.2257 33.9707 81.263 34.008C81.3004 34.0453 81.319 34.0933 81.319 34.152V35.736C81.319 35.7947 81.3004 35.8427 81.263 35.88C81.2257 35.9227 81.1777 35.944 81.119 35.944H80.175ZM83.753 35C83.6997 35 83.6544 34.9813 83.617 34.944C83.5797 34.9067 83.561 34.8613 83.561 34.808V31.04C83.561 30.9813 83.5797 30.9333 83.617 30.896C83.6544 30.8587 83.7024 30.84 83.761 30.84H84.705C84.7584 30.84 84.8037 30.8587 84.841 30.896C84.8837 30.9333 84.905 30.9813 84.905 31.04V33.96L84.545 33.784L86.521 30.968C86.5477 30.9307 86.5797 30.9013 86.617 30.88C86.6544 30.8533 86.697 30.84 86.745 30.84H87.601C87.6544 30.84 87.6997 30.8587 87.737 30.896C87.7744 30.9333 87.793 30.9787 87.793 31.032V34.8C87.793 34.8587 87.7744 34.9067 87.737 34.944C87.6997 34.9813 87.6517 35 87.593 35H86.649C86.5904 35 86.5424 34.9813 86.505 34.944C86.4677 34.9067 86.449 34.8587 86.449 34.8V31.968L86.817 32.04L84.825 34.872C84.8037 34.9093 84.7744 34.9413 84.737 34.968C84.6997 34.9893 84.6544 35 84.601 35H83.753ZM89.5666 36.52C89.5079 36.52 89.4599 36.5013 89.4226 36.464C89.3853 36.4267 89.3666 36.3787 89.3666 36.32V35.672C89.3666 35.6133 89.3853 35.5653 89.4226 35.528C89.4599 35.4907 89.5079 35.472 89.5666 35.472H89.8626C89.9959 35.472 90.0973 35.4453 90.1666 35.392C90.2359 35.344 90.2839 35.2747 90.3106 35.184C90.3373 35.0987 90.3506 35 90.3506 34.888V31.04C90.3506 30.9813 90.3693 30.9333 90.4066 30.896C90.4493 30.8587 90.4973 30.84 90.5506 30.84H91.5426C91.6013 30.84 91.6493 30.8587 91.6866 30.896C91.7239 30.9333 91.7426 30.9813 91.7426 31.04V34.92C91.7426 35.2667 91.6733 35.5573 91.5346 35.792C91.4013 36.032 91.2066 36.2133 90.9506 36.336C90.6946 36.4587 90.3826 36.52 90.0146 36.52H89.5666ZM90.5426 30.24C90.4893 30.24 90.4413 30.2213 90.3986 30.184C90.3613 30.1467 90.3426 30.0987 90.3426 30.04V29.328C90.3426 29.2693 90.3613 29.2213 90.3986 29.184C90.4413 29.1413 90.4893 29.12 90.5426 29.12H91.5506C91.6039 29.12 91.6493 29.1413 91.6866 29.184C91.7293 29.2213 91.7506 29.2693 91.7506 29.328V30.04C91.7506 30.0987 91.7293 30.1467 91.6866 30.184C91.6493 30.2213 91.6039 30.24 91.5506 30.24H90.5426ZM95.5325 35.08C95.2445 35.08 94.9858 35.0267 94.7565 34.92C94.5325 34.808 94.3538 34.6587 94.2205 34.472C94.0871 34.2853 94.0205 34.0747 94.0205 33.84C94.0205 33.4613 94.1751 33.1627 94.4845 32.944C94.7938 32.72 95.2045 32.568 95.7165 32.488L96.7165 32.336V32.224C96.7165 32.032 96.6765 31.8853 96.5965 31.784C96.5165 31.6827 96.3698 31.632 96.1565 31.632C96.0071 31.632 95.8845 31.6613 95.7885 31.72C95.6978 31.7787 95.6258 31.8587 95.5725 31.96C95.5245 32.0293 95.4578 32.064 95.3725 32.064H94.4765C94.4178 32.064 94.3725 32.048 94.3405 32.016C94.3085 31.9787 94.2951 31.936 94.3005 31.888C94.3005 31.792 94.3351 31.6827 94.4045 31.56C94.4791 31.432 94.5911 31.3067 94.7405 31.184C94.8898 31.0613 95.0818 30.96 95.3165 30.88C95.5511 30.8 95.8338 30.76 96.1645 30.76C96.5111 30.76 96.8071 30.8 97.0525 30.88C97.2978 30.96 97.4951 31.072 97.6445 31.216C97.7991 31.36 97.9138 31.5307 97.9885 31.728C98.0631 31.92 98.1005 32.1333 98.1005 32.368V34.8C98.1005 34.8587 98.0791 34.9067 98.0365 34.944C97.9991 34.9813 97.9538 35 97.9005 35H96.9725C96.9138 35 96.8658 34.9813 96.8285 34.944C96.7911 34.9067 96.7725 34.8587 96.7725 34.8V34.52C96.7031 34.6213 96.6098 34.7147 96.4925 34.8C96.3751 34.8853 96.2365 34.952 96.0765 35C95.9218 35.0533 95.7405 35.08 95.5325 35.08ZM95.9085 34.168C96.0631 34.168 96.2018 34.136 96.3245 34.072C96.4525 34.0027 96.5511 33.8987 96.6205 33.76C96.6951 33.616 96.7325 33.4373 96.7325 33.224V33.112L96.0525 33.232C95.8018 33.2747 95.6178 33.3413 95.5005 33.432C95.3885 33.5173 95.3325 33.6187 95.3325 33.736C95.3325 33.8267 95.3591 33.904 95.4125 33.968C95.4658 34.032 95.5351 34.0827 95.6205 34.12C95.7058 34.152 95.8018 34.168 95.9085 34.168Z" fill="white"/>
<path d="M50.8084 72.6C50.9551 72.6 51.0578 72.6513 51.1164 72.754C51.1898 72.842 51.2118 72.9447 51.1824 73.062C51.1678 73.15 51.1164 73.238 51.0284 73.326L45.4844 80.014L48.4984 87.252C48.5278 87.3253 48.5278 87.406 48.4984 87.494C48.4691 87.6407 48.3958 87.7653 48.2784 87.868C48.1611 87.956 48.0364 88 47.9044 88H45.3084C45.0884 88 44.9344 87.956 44.8464 87.868C44.7584 87.7653 44.6998 87.6773 44.6704 87.604L42.2724 81.774H40.3584L39.1264 87.45C39.1118 87.6113 39.0384 87.7433 38.9064 87.846C38.7891 87.9487 38.6498 88 38.4884 88H36.0904C35.9291 88 35.8044 87.9487 35.7164 87.846C35.6431 87.7433 35.6211 87.6113 35.6504 87.45L38.6864 73.15C38.7158 72.9887 38.7891 72.8567 38.9064 72.754C39.0384 72.6513 39.1851 72.6 39.3464 72.6H41.7444C41.9058 72.6 42.0231 72.6513 42.0964 72.754C42.1844 72.8567 42.2138 72.9887 42.1844 73.15L41.0184 78.65H42.6244L47.2004 73.018C47.3031 72.9007 47.4204 72.8053 47.5524 72.732C47.6991 72.644 47.8751 72.6 48.0804 72.6H50.8084ZM51.2988 92.18C51.1375 92.18 51.0201 92.1287 50.9468 92.026C50.8735 91.9233 50.8515 91.7913 50.8808 91.63L53.9828 77.11C54.0121 76.9487 54.0855 76.8167 54.2028 76.714C54.3201 76.6113 54.4595 76.56 54.6208 76.56H56.7108C56.8721 76.56 56.9895 76.6113 57.0628 76.714C57.1508 76.8167 57.1801 76.9487 57.1508 77.11L56.9748 77.946C57.4148 77.4767 57.9501 77.0953 58.5808 76.802C59.2115 76.494 59.9448 76.34 60.7808 76.34C61.5435 76.34 62.1815 76.4647 62.6948 76.714C63.2081 76.9487 63.6115 77.2933 63.9048 77.748C64.1981 78.188 64.3815 78.7233 64.4548 79.354C64.5281 79.9847 64.4988 80.696 64.3668 81.488C64.3228 81.7667 64.2715 82.0307 64.2128 82.28C64.1541 82.5293 64.0955 82.8007 64.0368 83.094C63.7875 84.0913 63.3988 84.9787 62.8708 85.756C62.3428 86.5187 61.6901 87.12 60.9128 87.56C60.1355 88 59.2481 88.22 58.2508 88.22C57.5028 88.22 56.8795 88.088 56.3808 87.824C55.8821 87.5453 55.5155 87.1713 55.2808 86.702L54.2248 91.63C54.1955 91.7913 54.1148 91.9233 53.9828 92.026C53.8508 92.1287 53.7115 92.18 53.5648 92.18H51.2988ZM57.8108 85.58C58.3828 85.58 58.8448 85.4627 59.1968 85.228C59.5635 84.9787 59.8641 84.656 60.0988 84.26C60.3335 83.864 60.5095 83.4313 60.6268 82.962C60.7001 82.742 60.7588 82.5147 60.8028 82.28C60.8615 82.0453 60.9055 81.818 60.9348 81.598C60.9935 81.1287 60.9935 80.696 60.9348 80.3C60.8761 79.904 60.7148 79.5887 60.4508 79.354C60.1868 79.1047 59.7761 78.98 59.2188 78.98C58.6761 78.98 58.2068 79.1047 57.8108 79.354C57.4295 79.6033 57.1215 79.9187 56.8868 80.3C56.6521 80.6813 56.4835 81.092 56.3808 81.532C56.3075 81.796 56.2341 82.0673 56.1608 82.346C56.1021 82.6247 56.0508 82.9033 56.0068 83.182C55.9481 83.5927 55.9555 83.9813 56.0288 84.348C56.1168 84.7 56.3075 84.9933 56.6008 85.228C56.8941 85.4627 57.2975 85.58 57.8108 85.58ZM69.5163 88.22C68.783 88.22 68.145 88.1027 67.6023 87.868C67.0743 87.6187 66.6563 87.2667 66.3483 86.812C66.0403 86.3427 65.835 85.7927 65.7323 85.162C65.6443 84.5167 65.6663 83.8053 65.7983 83.028C65.8423 82.7493 65.8863 82.5 65.9303 82.28C65.989 82.0453 66.0477 81.796 66.1063 81.532C66.297 80.7693 66.5537 80.0727 66.8763 79.442C67.199 78.8113 67.595 78.2687 68.0643 77.814C68.5337 77.3447 69.0763 76.9853 69.6923 76.736C70.323 76.472 71.027 76.34 71.8043 76.34C72.7137 76.34 73.403 76.4793 73.8723 76.758C74.3417 77.022 74.7083 77.352 74.9723 77.748L75.1043 77.11C75.1337 76.9487 75.207 76.8167 75.3243 76.714C75.4563 76.6113 75.5957 76.56 75.7423 76.56H77.8323C77.9937 76.56 78.111 76.6113 78.1843 76.714C78.2723 76.8167 78.3017 76.9487 78.2723 77.11L76.0723 87.45C76.043 87.6113 75.9697 87.7433 75.8523 87.846C75.735 87.9487 75.5957 88 75.4343 88H73.3443C73.183 88 73.0583 87.9487 72.9703 87.846C72.897 87.7433 72.875 87.6113 72.9043 87.45L73.0583 86.702C72.6183 87.142 72.1343 87.5087 71.6063 87.802C71.0783 88.0807 70.3817 88.22 69.5163 88.22ZM70.7703 85.58C71.3277 85.58 71.797 85.4553 72.1783 85.206C72.5743 84.9567 72.8897 84.6413 73.1243 84.26C73.3737 83.8787 73.557 83.468 73.6743 83.028C73.7477 82.7493 73.8137 82.4707 73.8723 82.192C73.931 81.9133 73.9823 81.642 74.0263 81.378C74.0997 80.9673 74.0997 80.586 74.0263 80.234C73.953 79.8673 73.777 79.5667 73.4983 79.332C73.2343 79.0973 72.8383 78.98 72.3103 78.98C71.797 78.98 71.357 79.1047 70.9903 79.354C70.6237 79.5887 70.323 79.904 70.0883 80.3C69.8537 80.696 69.6703 81.1287 69.5383 81.598C69.4797 81.818 69.421 82.0453 69.3623 82.28C69.3037 82.5147 69.2597 82.742 69.2303 82.962C69.1717 83.4313 69.157 83.864 69.1863 84.26C69.2303 84.656 69.377 84.9787 69.6263 85.228C69.8757 85.4627 70.257 85.58 70.7703 85.58ZM79.113 88C78.9663 88 78.8637 87.9633 78.805 87.89C78.7317 87.802 78.7023 87.6993 78.717 87.582C78.7317 87.5233 78.7537 87.472 78.783 87.428C78.7977 87.384 78.827 87.34 78.871 87.296L83.711 81.906L81.709 77.286C81.6797 77.242 81.6577 77.1907 81.643 77.132C81.643 77.0733 81.6503 77.022 81.665 76.978C81.6943 76.8607 81.7603 76.7653 81.863 76.692C81.9657 76.604 82.083 76.56 82.215 76.56H84.371C84.547 76.56 84.6717 76.5967 84.745 76.67C84.8183 76.7433 84.877 76.824 84.921 76.912L86.615 80.894H87.803L88.639 77.11C88.6683 76.9487 88.7417 76.8167 88.859 76.714C88.9763 76.6113 89.1157 76.56 89.277 76.56H91.433C91.5797 76.56 91.697 76.6113 91.785 76.714C91.873 76.8167 91.9023 76.9487 91.873 77.11L91.059 80.894H92.181L95.525 76.912C95.5983 76.824 95.6863 76.7433 95.789 76.67C95.8917 76.5967 96.031 76.56 96.207 76.56H98.671C98.8177 76.56 98.9277 76.604 99.001 76.692C99.0743 76.7653 99.0963 76.8607 99.067 76.978C99.067 77.0807 99.0157 77.1833 98.913 77.286L94.623 82.258L97.021 87.296C97.0503 87.34 97.065 87.384 97.065 87.428C97.0797 87.472 97.0797 87.5233 97.065 87.582C97.0503 87.6993 96.9843 87.802 96.867 87.89C96.7643 87.9633 96.647 88 96.515 88H94.183C94.007 88 93.875 87.9633 93.787 87.89C93.7137 87.802 93.655 87.7213 93.611 87.648L91.741 83.49H90.509L89.651 87.45C89.6217 87.6113 89.541 87.7433 89.409 87.846C89.2917 87.9487 89.1597 88 89.013 88H86.857C86.6957 88 86.571 87.9487 86.483 87.846C86.4097 87.7433 86.3877 87.6113 86.417 87.45L87.275 83.49H86.153L82.501 87.648C82.457 87.7213 82.3763 87.802 82.259 87.89C82.1417 87.9633 81.9877 88 81.797 88H79.113ZM104.645 88.22C103.369 88.22 102.364 88.0073 101.631 87.582C100.912 87.1567 100.443 86.5187 100.223 85.668C100.003 84.8027 100.003 83.732 100.223 82.456C100.296 82.0307 100.384 81.5907 100.487 81.136C100.589 80.6813 100.685 80.2413 100.773 79.816C101.066 78.584 101.418 77.5427 101.829 76.692C102.254 75.8413 102.767 75.1227 103.369 74.536C103.97 73.9493 104.674 73.458 105.481 73.062C106.302 72.666 107.241 72.3287 108.297 72.05C109.367 71.7713 110.585 71.5 111.949 71.236C112.095 71.2067 112.22 71.2287 112.323 71.302C112.44 71.3753 112.491 71.4927 112.477 71.654L112.433 73.37C112.433 73.5313 112.381 73.6707 112.279 73.788C112.191 73.9053 112.066 73.9787 111.905 74.008C110.805 74.2133 109.844 74.4187 109.023 74.624C108.201 74.8147 107.497 75.0493 106.911 75.328C106.339 75.592 105.855 75.9293 105.459 76.34C105.077 76.736 104.755 77.242 104.491 77.858C104.241 78.474 104.029 79.2293 103.853 80.124L103.435 79.618C103.64 79.178 103.948 78.7893 104.359 78.452C104.784 78.1 105.268 77.8287 105.811 77.638C106.368 77.4327 106.955 77.33 107.571 77.33C108.597 77.33 109.433 77.5133 110.079 77.88C110.739 78.2467 111.201 78.782 111.465 79.486C111.729 80.19 111.78 81.0333 111.619 82.016C111.589 82.2653 111.538 82.5293 111.465 82.808C111.406 83.072 111.347 83.314 111.289 83.534C111.039 84.4727 110.621 85.3013 110.035 86.02C109.448 86.724 108.7 87.2667 107.791 87.648C106.896 88.0293 105.847 88.22 104.645 88.22ZM105.107 85.998C105.825 85.998 106.412 85.7853 106.867 85.36C107.336 84.92 107.681 84.2747 107.901 83.424C107.945 83.2627 107.996 83.0573 108.055 82.808C108.113 82.544 108.157 82.3093 108.187 82.104C108.333 81.2827 108.289 80.652 108.055 80.212C107.82 79.772 107.387 79.552 106.757 79.552C105.965 79.552 105.312 79.772 104.799 80.212C104.285 80.652 103.926 81.2827 103.721 82.104C103.662 82.3093 103.603 82.544 103.545 82.808C103.501 83.0573 103.464 83.2627 103.435 83.424C103.288 84.2747 103.354 84.92 103.633 85.36C103.911 85.7853 104.403 85.998 105.107 85.998ZM117.479 88.22C116.746 88.22 116.108 88.1027 115.565 87.868C115.037 87.6187 114.619 87.2667 114.311 86.812C114.003 86.3427 113.798 85.7927 113.695 85.162C113.607 84.5167 113.629 83.8053 113.761 83.028C113.805 82.7493 113.849 82.5 113.893 82.28C113.952 82.0453 114.01 81.796 114.069 81.532C114.26 80.7693 114.516 80.0727 114.839 79.442C115.162 78.8113 115.558 78.2687 116.027 77.814C116.496 77.3447 117.039 76.9853 117.655 76.736C118.286 76.472 118.99 76.34 119.767 76.34C120.676 76.34 121.366 76.4793 121.835 76.758C122.304 77.022 122.671 77.352 122.935 77.748L123.067 77.11C123.096 76.9487 123.17 76.8167 123.287 76.714C123.419 76.6113 123.558 76.56 123.705 76.56H125.795C125.956 76.56 126.074 76.6113 126.147 76.714C126.235 76.8167 126.264 76.9487 126.235 77.11L124.035 87.45C124.006 87.6113 123.932 87.7433 123.815 87.846C123.698 87.9487 123.558 88 123.397 88H121.307C121.146 88 121.021 87.9487 120.933 87.846C120.86 87.7433 120.838 87.6113 120.867 87.45L121.021 86.702C120.581 87.142 120.097 87.5087 119.569 87.802C119.041 88.0807 118.344 88.22 117.479 88.22ZM118.733 85.58C119.29 85.58 119.76 85.4553 120.141 85.206C120.537 84.9567 120.852 84.6413 121.087 84.26C121.336 83.8787 121.52 83.468 121.637 83.028C121.71 82.7493 121.776 82.4707 121.835 82.192C121.894 81.9133 121.945 81.642 121.989 81.378C122.062 80.9673 122.062 80.586 121.989 80.234C121.916 79.8673 121.74 79.5667 121.461 79.332C121.197 79.0973 120.801 78.98 120.273 78.98C119.76 78.98 119.32 79.1047 118.953 79.354C118.586 79.5887 118.286 79.904 118.051 80.3C117.816 80.696 117.633 81.1287 117.501 81.598C117.442 81.818 117.384 82.0453 117.325 82.28C117.266 82.5147 117.222 82.742 117.193 82.962C117.134 83.4313 117.12 83.864 117.149 84.26C117.193 84.656 117.34 84.9787 117.589 85.228C117.838 85.4627 118.22 85.58 118.733 85.58Z" fill="white"/>
<path d="M145.2 237.1H16.5C12.9 237.1 10 234.2 10 230.6V168C10 164.4 12.9 161.5 16.5 161.5H145.2C148.8 161.5 151.7 164.4 151.7 168V230.6C151.7 234.1 148.8 237.1 145.2 237.1Z" fill="white"/>
<path d="M35.0694 180.52C34.4934 180.52 33.9934 180.456 33.5694 180.328C33.1454 180.2 32.7974 180.028 32.5254 179.812C32.2534 179.596 32.0454 179.352 31.9014 179.08C31.7574 178.8 31.6694 178.524 31.6374 178.252C31.6294 178.18 31.6534 178.12 31.7094 178.072C31.7654 178.024 31.8294 178 31.9014 178H33.1974C33.2854 178 33.3574 178.02 33.4134 178.06C33.4694 178.092 33.5214 178.148 33.5694 178.228C33.6574 178.452 33.8214 178.636 34.0614 178.78C34.3014 178.916 34.6254 178.984 35.0334 178.984C35.3454 178.984 35.6174 178.944 35.8494 178.864C36.0814 178.776 36.2614 178.652 36.3894 178.492C36.5254 178.332 36.5934 178.14 36.5934 177.916C36.5934 177.564 36.4614 177.296 36.1974 177.112C35.9414 176.928 35.5854 176.836 35.1294 176.836H34.2534C34.1654 176.836 34.0934 176.808 34.0374 176.752C33.9814 176.688 33.9534 176.612 33.9534 176.524V175.708C33.9534 175.62 33.9814 175.544 34.0374 175.48C34.0934 175.416 34.1654 175.384 34.2534 175.384H35.0934C35.4694 175.384 35.7734 175.308 36.0054 175.156C36.2454 174.996 36.3654 174.744 36.3654 174.4C36.3654 174.208 36.3094 174.04 36.1974 173.896C36.0854 173.744 35.9334 173.628 35.7414 173.548C35.5494 173.468 35.3214 173.428 35.0574 173.428C34.6654 173.428 34.3494 173.492 34.1094 173.62C33.8694 173.748 33.7174 173.94 33.6534 174.196C33.6214 174.276 33.5814 174.332 33.5334 174.364C33.4854 174.396 33.4174 174.412 33.3294 174.412H31.9854C31.9134 174.412 31.8494 174.388 31.7934 174.34C31.7454 174.292 31.7254 174.232 31.7334 174.16C31.7574 173.872 31.8374 173.592 31.9734 173.32C32.1174 173.04 32.3214 172.796 32.5854 172.588C32.8494 172.372 33.1894 172.2 33.6054 172.072C34.0214 171.944 34.5174 171.88 35.0934 171.88C35.7734 171.88 36.3494 171.992 36.8214 172.216C37.3014 172.432 37.6654 172.72 37.9134 173.08C38.1694 173.432 38.2974 173.816 38.2974 174.232C38.2974 174.44 38.2694 174.656 38.2134 174.88C38.1574 175.096 38.0614 175.3 37.9254 175.492C37.7974 175.676 37.6054 175.84 37.3494 175.984C37.6534 176.128 37.8894 176.308 38.0574 176.524C38.2334 176.74 38.3614 176.972 38.4414 177.22C38.5214 177.468 38.5614 177.724 38.5614 177.988C38.5614 178.492 38.4214 178.932 38.1414 179.308C37.8614 179.684 37.4574 179.98 36.9294 180.196C36.4094 180.412 35.7894 180.52 35.0694 180.52ZM41.6838 180.52C41.2598 180.52 40.8798 180.44 40.5438 180.28C40.2078 180.112 39.9398 179.888 39.7398 179.608C39.5398 179.328 39.4398 179.016 39.4398 178.672C39.4398 178.104 39.6678 177.656 40.1238 177.328C40.5878 177 41.1958 176.776 41.9478 176.656L43.5198 176.428V176.212C43.5198 175.9 43.4478 175.66 43.3038 175.492C43.1598 175.324 42.9078 175.24 42.5478 175.24C42.2838 175.24 42.0718 175.292 41.9118 175.396C41.7518 175.5 41.6278 175.636 41.5398 175.804C41.4758 175.908 41.3838 175.96 41.2638 175.96H40.1238C40.0358 175.96 39.9678 175.936 39.9198 175.888C39.8718 175.832 39.8518 175.768 39.8598 175.696C39.8598 175.56 39.9118 175.4 40.0158 175.216C40.1198 175.032 40.2798 174.852 40.4958 174.676C40.7118 174.492 40.9878 174.34 41.3238 174.22C41.6598 174.1 42.0718 174.04 42.5598 174.04C43.0638 174.04 43.4958 174.1 43.8558 174.22C44.2158 174.34 44.5038 174.508 44.7198 174.724C44.9358 174.94 45.0958 175.192 45.1998 175.48C45.3038 175.76 45.3558 176.064 45.3558 176.392V180.1C45.3558 180.188 45.3278 180.26 45.2718 180.316C45.2158 180.372 45.1438 180.4 45.0558 180.4H43.8798C43.7998 180.4 43.7318 180.372 43.6758 180.316C43.6198 180.26 43.5918 180.188 43.5918 180.1V179.656C43.4878 179.808 43.3478 179.952 43.1718 180.088C42.9958 180.216 42.7838 180.32 42.5358 180.4C42.2958 180.48 42.0118 180.52 41.6838 180.52ZM42.1638 179.272C42.4278 179.272 42.6638 179.216 42.8718 179.104C43.0798 178.992 43.2438 178.82 43.3638 178.588C43.4838 178.356 43.5438 178.064 43.5438 177.712V177.508L42.4278 177.688C41.9958 177.76 41.6798 177.868 41.4798 178.012C41.2798 178.156 41.1798 178.332 41.1798 178.54C41.1798 178.692 41.2238 178.824 41.3118 178.936C41.4078 179.048 41.5318 179.132 41.6838 179.188C41.8358 179.244 41.9958 179.272 42.1638 179.272ZM47.0967 180.4C47.0167 180.4 46.9487 180.372 46.8927 180.316C46.8367 180.26 46.8087 180.188 46.8087 180.1V174.46C46.8087 174.372 46.8367 174.3 46.8927 174.244C46.9487 174.188 47.0167 174.16 47.0967 174.16H48.2727C48.3607 174.16 48.4327 174.188 48.4887 174.244C48.5447 174.3 48.5727 174.372 48.5727 174.46V176.524H49.3287L50.7207 174.352C50.7447 174.304 50.7807 174.26 50.8287 174.22C50.8847 174.18 50.9567 174.16 51.0447 174.16H52.3527C52.4247 174.16 52.4847 174.184 52.5327 174.232C52.5887 174.272 52.6167 174.324 52.6167 174.388C52.6167 174.412 52.6087 174.44 52.5927 174.472C52.5847 174.504 52.5727 174.532 52.5567 174.556L50.8647 177.172L52.8207 180.016C52.8527 180.064 52.8687 180.116 52.8687 180.172C52.8687 180.236 52.8447 180.292 52.7967 180.34C52.7487 180.38 52.6887 180.4 52.6167 180.4H51.1647C51.0847 180.4 51.0167 180.384 50.9607 180.352C50.9127 180.312 50.8687 180.264 50.8287 180.208L49.3167 177.952H48.5727V180.1C48.5727 180.188 48.5447 180.26 48.4887 180.316C48.4327 180.372 48.3607 180.4 48.2727 180.4H47.0967ZM55.6994 180.52C55.2754 180.52 54.8954 180.44 54.5594 180.28C54.2234 180.112 53.9554 179.888 53.7554 179.608C53.5554 179.328 53.4554 179.016 53.4554 178.672C53.4554 178.104 53.6834 177.656 54.1394 177.328C54.6034 177 55.2114 176.776 55.9634 176.656L57.5354 176.428V176.212C57.5354 175.9 57.4634 175.66 57.3194 175.492C57.1754 175.324 56.9234 175.24 56.5634 175.24C56.2994 175.24 56.0874 175.292 55.9274 175.396C55.7674 175.5 55.6434 175.636 55.5554 175.804C55.4914 175.908 55.3994 175.96 55.2794 175.96H54.1394C54.0514 175.96 53.9834 175.936 53.9354 175.888C53.8874 175.832 53.8674 175.768 53.8754 175.696C53.8754 175.56 53.9274 175.4 54.0314 175.216C54.1354 175.032 54.2954 174.852 54.5114 174.676C54.7274 174.492 55.0034 174.34 55.3394 174.22C55.6754 174.1 56.0874 174.04 56.5754 174.04C57.0794 174.04 57.5114 174.1 57.8714 174.22C58.2314 174.34 58.5194 174.508 58.7354 174.724C58.9514 174.94 59.1114 175.192 59.2154 175.48C59.3194 175.76 59.3714 176.064 59.3714 176.392V180.1C59.3714 180.188 59.3434 180.26 59.2874 180.316C59.2314 180.372 59.1594 180.4 59.0714 180.4H57.8954C57.8154 180.4 57.7474 180.372 57.6914 180.316C57.6354 180.26 57.6074 180.188 57.6074 180.1V179.656C57.5034 179.808 57.3634 179.952 57.1874 180.088C57.0114 180.216 56.7994 180.32 56.5514 180.4C56.3114 180.48 56.0274 180.52 55.6994 180.52ZM56.1794 179.272C56.4434 179.272 56.6794 179.216 56.8874 179.104C57.0954 178.992 57.2594 178.82 57.3794 178.588C57.4994 178.356 57.5594 178.064 57.5594 177.712V177.508L56.4434 177.688C56.0114 177.76 55.6954 177.868 55.4954 178.012C55.2954 178.156 55.1954 178.332 55.1954 178.54C55.1954 178.692 55.2394 178.824 55.3274 178.936C55.4234 179.048 55.5474 179.132 55.6994 179.188C55.8514 179.244 56.0114 179.272 56.1794 179.272ZM61.1124 180.4C61.0324 180.4 60.9644 180.372 60.9084 180.316C60.8524 180.26 60.8244 180.188 60.8244 180.1V174.46C60.8244 174.372 60.8524 174.3 60.9084 174.244C60.9644 174.188 61.0324 174.16 61.1124 174.16H62.3124C62.4004 174.16 62.4724 174.188 62.5284 174.244C62.5844 174.3 62.6124 174.372 62.6124 174.46V176.524H65.0484V174.46C65.0484 174.372 65.0764 174.3 65.1324 174.244C65.1884 174.188 65.2604 174.16 65.3484 174.16H66.5484C66.6284 174.16 66.6964 174.188 66.7524 174.244C66.8084 174.3 66.8364 174.372 66.8364 174.46V180.1C66.8364 180.188 66.8084 180.26 66.7524 180.316C66.6964 180.372 66.6284 180.4 66.5484 180.4H65.3484C65.2604 180.4 65.1884 180.372 65.1324 180.316C65.0764 180.26 65.0484 180.188 65.0484 180.1V177.94H62.6124V180.1C62.6124 180.188 62.5844 180.26 62.5284 180.316C62.4724 180.372 62.4004 180.4 62.3124 180.4H61.1124ZM68.659 180.4C68.587 180.4 68.523 180.372 68.467 180.316C68.411 180.26 68.383 180.192 68.383 180.112V174.46C68.383 174.372 68.411 174.3 68.467 174.244C68.523 174.188 68.591 174.16 68.671 174.16H69.871C69.959 174.16 70.031 174.188 70.087 174.244C70.143 174.3 70.171 174.372 70.171 174.46V179.02L69.691 178.744L72.823 174.352C72.863 174.296 72.907 174.252 72.955 174.22C73.011 174.18 73.079 174.16 73.159 174.16H74.239C74.319 174.16 74.387 174.188 74.443 174.244C74.499 174.3 74.527 174.364 74.527 174.436V180.1C74.527 180.188 74.499 180.26 74.443 180.316C74.387 180.372 74.315 180.4 74.227 180.4H73.027C72.947 180.4 72.879 180.372 72.823 180.316C72.767 180.26 72.739 180.188 72.739 180.1V175.72L73.231 175.804L70.075 180.208C70.043 180.264 69.999 180.312 69.943 180.352C69.887 180.384 69.823 180.4 69.751 180.4H68.659ZM78.842 180.4C78.77 180.4 78.71 180.376 78.662 180.328C78.614 180.28 78.59 180.22 78.59 180.148V174.4C78.59 174.336 78.614 174.28 78.662 174.232C78.71 174.184 78.766 174.16 78.83 174.16H80.006C80.15 174.16 80.262 174.232 80.342 174.376L82.094 177.508L83.834 174.376C83.914 174.232 84.026 174.16 84.17 174.16H85.358C85.422 174.16 85.478 174.184 85.526 174.232C85.574 174.28 85.598 174.336 85.598 174.4V180.148C85.598 180.22 85.574 180.28 85.526 180.328C85.478 180.376 85.418 180.4 85.346 180.4H84.086C84.006 180.4 83.942 180.376 83.894 180.328C83.854 180.28 83.834 180.22 83.834 180.148V176.008L84.374 176.116L82.67 179.176C82.63 179.248 82.582 179.312 82.526 179.368C82.478 179.424 82.406 179.452 82.31 179.452H81.866C81.778 179.452 81.706 179.428 81.65 179.38C81.594 179.324 81.542 179.256 81.494 179.176L79.838 176.224L80.342 176.116V180.148C80.342 180.22 80.318 180.28 80.27 180.328C80.222 180.376 80.162 180.4 80.09 180.4H78.842ZM87.6607 182.692C87.5727 182.692 87.5007 182.66 87.4447 182.596C87.3887 182.54 87.3607 182.472 87.3607 182.392V181.564C87.3607 181.484 87.3887 181.416 87.4447 181.36C87.5007 181.304 87.5727 181.276 87.6607 181.276H88.0567C88.2087 181.276 88.3327 181.244 88.4287 181.18C88.5327 181.124 88.6247 181.028 88.7047 180.892C88.7847 180.756 88.8767 180.568 88.9807 180.328L91.4287 174.4C91.4527 174.336 91.4887 174.28 91.5367 174.232C91.5927 174.184 91.6687 174.16 91.7647 174.16H92.8687C92.9327 174.16 92.9887 174.188 93.0367 174.244C93.0927 174.292 93.1207 174.348 93.1207 174.412C93.1207 174.428 93.1167 174.452 93.1087 174.484C93.1087 174.508 93.1007 174.54 93.0847 174.58L90.8047 180.052C90.6527 180.42 90.4927 180.764 90.3247 181.084C90.1647 181.404 89.9887 181.684 89.7967 181.924C89.6047 182.164 89.3767 182.352 89.1127 182.488C88.8567 182.624 88.5607 182.692 88.2247 182.692H87.6607ZM89.1367 180.256L86.7007 174.58C86.6687 174.516 86.6527 174.464 86.6527 174.424C86.6607 174.352 86.6887 174.292 86.7367 174.244C86.7927 174.188 86.8567 174.16 86.9287 174.16H88.0807C88.1767 174.16 88.2487 174.188 88.2967 174.244C88.3447 174.292 88.3807 174.344 88.4047 174.4L90.2047 178.888L89.1367 180.256ZM99.5378 180.52C98.9538 180.52 98.4378 180.412 97.9898 180.196C97.5498 179.98 97.2018 179.668 96.9458 179.26C96.6898 178.844 96.5498 178.348 96.5258 177.772C96.5178 177.644 96.5138 177.484 96.5138 177.292C96.5138 177.092 96.5178 176.928 96.5258 176.8C96.5498 176.216 96.6858 175.72 96.9338 175.312C97.1898 174.896 97.5418 174.58 97.9898 174.364C98.4378 174.148 98.9538 174.04 99.5378 174.04C100.074 174.04 100.53 174.116 100.906 174.268C101.282 174.412 101.59 174.596 101.83 174.82C102.07 175.044 102.246 175.28 102.358 175.528C102.478 175.768 102.542 175.98 102.55 176.164C102.558 176.244 102.53 176.316 102.466 176.38C102.41 176.436 102.342 176.464 102.262 176.464H100.978C100.898 176.464 100.834 176.444 100.786 176.404C100.746 176.356 100.706 176.292 100.666 176.212C100.554 175.932 100.41 175.732 100.234 175.612C100.058 175.492 99.8378 175.432 99.5738 175.432C99.2138 175.432 98.9298 175.548 98.7218 175.78C98.5138 176.012 98.4018 176.372 98.3858 176.86C98.3778 177.172 98.3778 177.456 98.3858 177.712C98.4098 178.208 98.5218 178.568 98.7218 178.792C98.9298 179.016 99.2138 179.128 99.5738 179.128C99.8538 179.128 100.078 179.068 100.246 178.948C100.414 178.828 100.554 178.628 100.666 178.348C100.698 178.268 100.738 178.208 100.786 178.168C100.834 178.12 100.898 178.096 100.978 178.096H102.262C102.342 178.096 102.41 178.128 102.466 178.192C102.53 178.248 102.558 178.316 102.55 178.396C102.542 178.532 102.502 178.692 102.43 178.876C102.366 179.06 102.258 179.248 102.106 179.44C101.962 179.632 101.774 179.812 101.542 179.98C101.31 180.14 101.026 180.272 100.69 180.376C100.362 180.472 99.9778 180.52 99.5378 180.52ZM106.511 180.52C105.591 180.52 104.859 180.264 104.315 179.752C103.779 179.24 103.495 178.496 103.463 177.52C103.463 177.456 103.463 177.372 103.463 177.268C103.463 177.156 103.463 177.068 103.463 177.004C103.495 176.388 103.635 175.86 103.883 175.42C104.131 174.972 104.479 174.632 104.927 174.4C105.375 174.16 105.899 174.04 106.499 174.04C107.171 174.04 107.731 174.18 108.179 174.46C108.635 174.732 108.975 175.108 109.199 175.588C109.431 176.06 109.547 176.604 109.547 177.22V177.496C109.547 177.576 109.515 177.644 109.451 177.7C109.395 177.756 109.327 177.784 109.247 177.784H105.323C105.323 177.792 105.323 177.808 105.323 177.832C105.323 177.848 105.323 177.864 105.323 177.88C105.331 178.136 105.379 178.372 105.467 178.588C105.563 178.796 105.695 178.964 105.863 179.092C106.039 179.22 106.247 179.284 106.487 179.284C106.687 179.284 106.851 179.256 106.979 179.2C107.107 179.144 107.211 179.076 107.291 178.996C107.379 178.916 107.443 178.848 107.483 178.792C107.555 178.712 107.611 178.664 107.651 178.648C107.699 178.624 107.771 178.612 107.867 178.612H109.115C109.195 178.612 109.259 178.636 109.307 178.684C109.363 178.724 109.387 178.784 109.379 178.864C109.371 178.992 109.303 179.152 109.175 179.344C109.055 179.528 108.875 179.712 108.635 179.896C108.395 180.072 108.095 180.22 107.735 180.34C107.383 180.46 106.975 180.52 106.511 180.52ZM105.323 176.692H107.675V176.668C107.675 176.38 107.627 176.132 107.531 175.924C107.443 175.708 107.311 175.54 107.135 175.42C106.959 175.3 106.747 175.24 106.499 175.24C106.251 175.24 106.039 175.3 105.863 175.42C105.687 175.54 105.551 175.708 105.455 175.924C105.367 176.132 105.323 176.38 105.323 176.668V176.692ZM113.683 180.4C113.603 180.4 113.535 180.372 113.479 180.316C113.423 180.26 113.395 180.188 113.395 180.1V174.46C113.395 174.372 113.423 174.3 113.479 174.244C113.535 174.188 113.603 174.16 113.683 174.16H114.883C114.971 174.16 115.043 174.188 115.099 174.244C115.155 174.3 115.183 174.372 115.183 174.46V176.524H117.619V174.46C117.619 174.372 117.647 174.3 117.703 174.244C117.759 174.188 117.831 174.16 117.919 174.16H119.119C119.199 174.16 119.267 174.188 119.323 174.244C119.379 174.3 119.407 174.372 119.407 174.46V180.1C119.407 180.188 119.379 180.26 119.323 180.316C119.267 180.372 119.199 180.4 119.119 180.4H117.919C117.831 180.4 117.759 180.372 117.703 180.316C117.647 180.26 117.619 180.188 117.619 180.1V177.94H115.183V180.1C115.183 180.188 115.155 180.26 115.099 180.316C115.043 180.372 114.971 180.4 114.883 180.4H113.683ZM122.789 180.52C122.365 180.52 121.985 180.44 121.649 180.28C121.313 180.112 121.045 179.888 120.845 179.608C120.645 179.328 120.545 179.016 120.545 178.672C120.545 178.104 120.773 177.656 121.229 177.328C121.693 177 122.301 176.776 123.053 176.656L124.625 176.428V176.212C124.625 175.9 124.553 175.66 124.409 175.492C124.265 175.324 124.013 175.24 123.653 175.24C123.389 175.24 123.177 175.292 123.017 175.396C122.857 175.5 122.733 175.636 122.645 175.804C122.581 175.908 122.489 175.96 122.369 175.96H121.229C121.141 175.96 121.073 175.936 121.025 175.888C120.977 175.832 120.957 175.768 120.965 175.696C120.965 175.56 121.017 175.4 121.121 175.216C121.225 175.032 121.385 174.852 121.601 174.676C121.817 174.492 122.093 174.34 122.429 174.22C122.765 174.1 123.177 174.04 123.665 174.04C124.169 174.04 124.601 174.1 124.961 174.22C125.321 174.34 125.609 174.508 125.825 174.724C126.041 174.94 126.201 175.192 126.305 175.48C126.409 175.76 126.461 176.064 126.461 176.392V180.1C126.461 180.188 126.433 180.26 126.377 180.316C126.321 180.372 126.249 180.4 126.161 180.4H124.985C124.905 180.4 124.837 180.372 124.781 180.316C124.725 180.26 124.697 180.188 124.697 180.1V179.656C124.593 179.808 124.453 179.952 124.277 180.088C124.101 180.216 123.889 180.32 123.641 180.4C123.401 180.48 123.117 180.52 122.789 180.52ZM123.269 179.272C123.533 179.272 123.769 179.216 123.977 179.104C124.185 178.992 124.349 178.82 124.469 178.588C124.589 178.356 124.649 178.064 124.649 177.712V177.508L123.533 177.688C123.101 177.76 122.785 177.868 122.585 178.012C122.385 178.156 122.285 178.332 122.285 178.54C122.285 178.692 122.329 178.824 122.417 178.936C122.513 179.048 122.637 179.132 122.789 179.188C122.941 179.244 123.101 179.272 123.269 179.272ZM42.2808 196.72C42.2008 196.72 42.1328 196.692 42.0768 196.636C42.0208 196.58 41.9928 196.508 41.9928 196.42V194.284C41.9928 194.196 42.0208 194.124 42.0768 194.068C42.1328 194.012 42.2008 193.984 42.2808 193.984H42.3888C42.5968 193.984 42.7608 193.876 42.8808 193.66C43.0088 193.444 43.1008 193.124 43.1568 192.7C43.2128 192.276 43.2408 191.744 43.2408 191.104V189.46C43.2408 189.372 43.2688 189.3 43.3248 189.244C43.3808 189.188 43.4488 189.16 43.5288 189.16H48.0168C48.1048 189.16 48.1768 189.188 48.2328 189.244C48.2888 189.3 48.3168 189.372 48.3168 189.46V193.972H48.8448C48.9248 193.972 48.9928 194 49.0488 194.056C49.1048 194.112 49.1328 194.184 49.1328 194.272V196.42C49.1328 196.508 49.1048 196.58 49.0488 196.636C48.9928 196.692 48.9248 196.72 48.8448 196.72H47.6448C47.5568 196.72 47.4848 196.692 47.4288 196.636C47.3728 196.58 47.3448 196.508 47.3448 196.42V195.4H43.7808V196.42C43.7808 196.508 43.7528 196.58 43.6968 196.636C43.6408 196.692 43.5688 196.72 43.4808 196.72H42.2808ZM44.4528 193.984L46.5288 193.972V190.576H44.9448V191.308C44.9448 191.964 44.9008 192.512 44.8128 192.952C44.7328 193.392 44.6128 193.736 44.4528 193.984ZM50.472 197.68C50.384 197.68 50.312 197.652 50.256 197.596C50.2 197.54 50.172 197.468 50.172 197.38V189.46C50.172 189.372 50.2 189.3 50.256 189.244C50.312 189.188 50.384 189.16 50.472 189.16H51.612C51.7 189.16 51.772 189.188 51.828 189.244C51.884 189.3 51.912 189.372 51.912 189.46V189.916C52.104 189.66 52.352 189.452 52.656 189.292C52.96 189.124 53.34 189.04 53.796 189.04C54.212 189.04 54.572 189.108 54.876 189.244C55.188 189.372 55.448 189.56 55.656 189.808C55.872 190.048 56.036 190.34 56.148 190.684C56.268 191.028 56.336 191.416 56.352 191.848C56.36 192 56.364 192.144 56.364 192.28C56.364 192.416 56.36 192.564 56.352 192.724C56.344 193.132 56.28 193.508 56.16 193.852C56.048 194.196 55.884 194.492 55.668 194.74C55.452 194.988 55.188 195.18 54.876 195.316C54.572 195.452 54.212 195.52 53.796 195.52C53.388 195.52 53.032 195.448 52.728 195.304C52.432 195.152 52.188 194.948 51.996 194.692V197.38C51.996 197.468 51.968 197.54 51.912 197.596C51.856 197.652 51.788 197.68 51.708 197.68H50.472ZM53.256 194.08C53.56 194.08 53.8 194.016 53.976 193.888C54.152 193.752 54.276 193.576 54.348 193.36C54.428 193.144 54.476 192.908 54.492 192.652C54.508 192.404 54.508 192.156 54.492 191.908C54.476 191.652 54.428 191.416 54.348 191.2C54.276 190.984 54.152 190.812 53.976 190.684C53.8 190.548 53.56 190.48 53.256 190.48C52.96 190.48 52.72 190.548 52.536 190.684C52.352 190.82 52.22 190.992 52.14 191.2C52.06 191.408 52.012 191.632 51.996 191.872C51.988 192.016 51.984 192.164 51.984 192.316C51.984 192.468 51.988 192.62 51.996 192.772C52.004 192.996 52.052 193.208 52.14 193.408C52.236 193.6 52.372 193.76 52.548 193.888C52.732 194.016 52.968 194.08 53.256 194.08ZM58.1529 197.692C58.0649 197.692 57.9929 197.66 57.9369 197.596C57.8809 197.54 57.8529 197.472 57.8529 197.392V196.564C57.8529 196.484 57.8809 196.416 57.9369 196.36C57.9929 196.304 58.0649 196.276 58.1529 196.276H58.5489C58.7009 196.276 58.8249 196.244 58.9209 196.18C59.0249 196.124 59.1169 196.028 59.1969 195.892C59.2769 195.756 59.3689 195.568 59.4729 195.328L61.9209 189.4C61.9449 189.336 61.9809 189.28 62.0289 189.232C62.0849 189.184 62.1609 189.16 62.2569 189.16H63.3609C63.4249 189.16 63.4809 189.188 63.5289 189.244C63.5849 189.292 63.6129 189.348 63.6129 189.412C63.6129 189.428 63.6089 189.452 63.6009 189.484C63.6009 189.508 63.5929 189.54 63.5769 189.58L61.2969 195.052C61.1449 195.42 60.9849 195.764 60.8169 196.084C60.6569 196.404 60.4809 196.684 60.2889 196.924C60.0969 197.164 59.8689 197.352 59.6049 197.488C59.3489 197.624 59.0529 197.692 58.7169 197.692H58.1529ZM59.6289 195.256L57.1929 189.58C57.1609 189.516 57.1449 189.464 57.1449 189.424C57.1529 189.352 57.1809 189.292 57.2289 189.244C57.2849 189.188 57.3489 189.16 57.4209 189.16H58.5729C58.6689 189.16 58.7409 189.188 58.7889 189.244C58.8369 189.292 58.8729 189.344 58.8969 189.4L60.6969 193.888L59.6289 195.256ZM64.8975 195.4C64.8175 195.4 64.7495 195.372 64.6935 195.316C64.6375 195.26 64.6095 195.188 64.6095 195.1V189.46C64.6095 189.372 64.6375 189.3 64.6935 189.244C64.7495 189.188 64.8175 189.16 64.8975 189.16H68.7975C68.8855 189.16 68.9575 189.188 69.0135 189.244C69.0695 189.3 69.0975 189.372 69.0975 189.46V190.276C69.0975 190.364 69.0695 190.436 69.0135 190.492C68.9575 190.548 68.8855 190.576 68.7975 190.576H66.3975V195.1C66.3975 195.188 66.3695 195.26 66.3135 195.316C66.2575 195.372 66.1855 195.4 66.0975 195.4H64.8975ZM72.9597 195.4C72.8877 195.4 72.8237 195.372 72.7677 195.316C72.7117 195.26 72.6837 195.192 72.6837 195.112V189.46C72.6837 189.372 72.7117 189.3 72.7677 189.244C72.8237 189.188 72.8917 189.16 72.9717 189.16H74.1717C74.2597 189.16 74.3317 189.188 74.3877 189.244C74.4437 189.3 74.4717 189.372 74.4717 189.46V194.02L73.9917 193.744L77.1237 189.352C77.1637 189.296 77.2077 189.252 77.2557 189.22C77.3117 189.18 77.3797 189.16 77.4597 189.16H78.5397C78.6197 189.16 78.6877 189.188 78.7437 189.244C78.7997 189.3 78.8277 189.364 78.8277 189.436V195.1C78.8277 195.188 78.7997 195.26 78.7437 195.316C78.6877 195.372 78.6157 195.4 78.5277 195.4H77.3277C77.2477 195.4 77.1797 195.372 77.1237 195.316C77.0677 195.26 77.0397 195.188 77.0397 195.1V190.72L77.5317 190.804L74.3757 195.208C74.3437 195.264 74.2997 195.312 74.2437 195.352C74.1877 195.384 74.1237 195.4 74.0517 195.4H72.9597ZM80.5303 195.4C80.4503 195.4 80.3823 195.372 80.3263 195.316C80.2703 195.26 80.2423 195.188 80.2423 195.1V189.46C80.2423 189.372 80.2703 189.3 80.3263 189.244C80.3823 189.188 80.4503 189.16 80.5303 189.16H84.4303C84.5183 189.16 84.5903 189.188 84.6463 189.244C84.7023 189.3 84.7303 189.372 84.7303 189.46V190.276C84.7303 190.364 84.7023 190.436 84.6463 190.492C84.5903 190.548 84.5183 190.576 84.4303 190.576H82.0303V195.1C82.0303 195.188 82.0023 195.26 81.9463 195.316C81.8903 195.372 81.8183 195.4 81.7303 195.4H80.5303ZM85.9681 197.68C85.8801 197.68 85.8081 197.652 85.7521 197.596C85.6961 197.54 85.6681 197.468 85.6681 197.38V189.46C85.6681 189.372 85.6961 189.3 85.7521 189.244C85.8081 189.188 85.8801 189.16 85.9681 189.16H87.1081C87.1961 189.16 87.2681 189.188 87.3241 189.244C87.3801 189.3 87.4081 189.372 87.4081 189.46V189.916C87.6001 189.66 87.8481 189.452 88.1521 189.292C88.4561 189.124 88.8361 189.04 89.2921 189.04C89.7081 189.04 90.0681 189.108 90.3721 189.244C90.6841 189.372 90.9441 189.56 91.1521 189.808C91.3681 190.048 91.5321 190.34 91.6441 190.684C91.7641 191.028 91.8321 191.416 91.8481 191.848C91.8561 192 91.8601 192.144 91.8601 192.28C91.8601 192.416 91.8561 192.564 91.8481 192.724C91.8401 193.132 91.7761 193.508 91.6561 193.852C91.5441 194.196 91.3801 194.492 91.1641 194.74C90.9481 194.988 90.6841 195.18 90.3721 195.316C90.0681 195.452 89.7081 195.52 89.2921 195.52C88.8841 195.52 88.5281 195.448 88.2241 195.304C87.9281 195.152 87.6841 194.948 87.4921 194.692V197.38C87.4921 197.468 87.4641 197.54 87.4081 197.596C87.3521 197.652 87.2841 197.68 87.2041 197.68H85.9681ZM88.7521 194.08C89.0561 194.08 89.2961 194.016 89.4721 193.888C89.6481 193.752 89.7721 193.576 89.8441 193.36C89.9241 193.144 89.9721 192.908 89.9881 192.652C90.0041 192.404 90.0041 192.156 89.9881 191.908C89.9721 191.652 89.9241 191.416 89.8441 191.2C89.7721 190.984 89.6481 190.812 89.4721 190.684C89.2961 190.548 89.0561 190.48 88.7521 190.48C88.4561 190.48 88.2161 190.548 88.0321 190.684C87.8481 190.82 87.7161 190.992 87.6361 191.2C87.5561 191.408 87.5081 191.632 87.4921 191.872C87.4841 192.016 87.4801 192.164 87.4801 192.316C87.4801 192.468 87.4841 192.62 87.4921 192.772C87.5001 192.996 87.5481 193.208 87.6361 193.408C87.7321 193.6 87.8681 193.76 88.0441 193.888C88.2281 194.016 88.4641 194.08 88.7521 194.08ZM94.969 195.52C94.545 195.52 94.165 195.44 93.829 195.28C93.493 195.112 93.225 194.888 93.025 194.608C92.825 194.328 92.725 194.016 92.725 193.672C92.725 193.104 92.953 192.656 93.409 192.328C93.873 192 94.481 191.776 95.233 191.656L96.805 191.428V191.212C96.805 190.9 96.733 190.66 96.589 190.492C96.445 190.324 96.193 190.24 95.833 190.24C95.569 190.24 95.357 190.292 95.197 190.396C95.037 190.5 94.913 190.636 94.825 190.804C94.761 190.908 94.669 190.96 94.549 190.96H93.409C93.321 190.96 93.253 190.936 93.205 190.888C93.157 190.832 93.137 190.768 93.145 190.696C93.145 190.56 93.197 190.4 93.301 190.216C93.405 190.032 93.565 189.852 93.781 189.676C93.997 189.492 94.273 189.34 94.609 189.22C94.945 189.1 95.357 189.04 95.845 189.04C96.349 189.04 96.781 189.1 97.141 189.22C97.501 189.34 97.789 189.508 98.005 189.724C98.221 189.94 98.381 190.192 98.485 190.48C98.589 190.76 98.641 191.064 98.641 191.392V195.1C98.641 195.188 98.613 195.26 98.557 195.316C98.501 195.372 98.429 195.4 98.341 195.4H97.165C97.085 195.4 97.017 195.372 96.961 195.316C96.905 195.26 96.877 195.188 96.877 195.1V194.656C96.773 194.808 96.633 194.952 96.457 195.088C96.281 195.216 96.069 195.32 95.821 195.4C95.581 195.48 95.297 195.52 94.969 195.52ZM95.449 194.272C95.713 194.272 95.949 194.216 96.157 194.104C96.365 193.992 96.529 193.82 96.649 193.588C96.769 193.356 96.829 193.064 96.829 192.712V192.508L95.713 192.688C95.281 192.76 94.965 192.868 94.765 193.012C94.565 193.156 94.465 193.332 94.465 193.54C94.465 193.692 94.509 193.824 94.597 193.936C94.693 194.048 94.817 194.132 94.969 194.188C95.121 194.244 95.281 194.272 95.449 194.272ZM104.042 195.4C103.962 195.4 103.894 195.372 103.838 195.316C103.782 195.26 103.754 195.188 103.754 195.1V193.168C103.562 193.328 103.322 193.448 103.034 193.528C102.746 193.608 102.422 193.648 102.062 193.648C101.326 193.648 100.758 193.468 100.358 193.108C99.9579 192.74 99.7579 192.152 99.7579 191.344V189.46C99.7579 189.372 99.7859 189.3 99.8419 189.244C99.8979 189.188 99.9659 189.16 100.046 189.16H101.294C101.374 189.16 101.442 189.188 101.498 189.244C101.554 189.3 101.582 189.372 101.582 189.46V191.248C101.582 191.552 101.658 191.768 101.81 191.896C101.97 192.024 102.226 192.088 102.578 192.088C102.922 192.088 103.202 192.04 103.418 191.944C103.642 191.84 103.754 191.676 103.754 191.452V189.46C103.754 189.372 103.782 189.3 103.838 189.244C103.894 189.188 103.962 189.16 104.042 189.16H105.338C105.426 189.16 105.498 189.188 105.554 189.244C105.61 189.3 105.638 189.372 105.638 189.46V195.1C105.638 195.188 105.61 195.26 105.554 195.316C105.498 195.372 105.426 195.4 105.338 195.4H104.042ZM110.108 195.4C110.036 195.4 109.972 195.372 109.916 195.316C109.86 195.26 109.832 195.192 109.832 195.112V189.46C109.832 189.372 109.86 189.3 109.916 189.244C109.972 189.188 110.04 189.16 110.12 189.16H111.32C111.408 189.16 111.48 189.188 111.536 189.244C111.592 189.3 111.62 189.372 111.62 189.46V194.02L111.14 193.744L114.272 189.352C114.312 189.296 114.356 189.252 114.404 189.22C114.46 189.18 114.528 189.16 114.608 189.16H115.688C115.768 189.16 115.836 189.188 115.892 189.244C115.948 189.3 115.976 189.364 115.976 189.436V195.1C115.976 195.188 115.948 195.26 115.892 195.316C115.836 195.372 115.764 195.4 115.676 195.4H114.476C114.396 195.4 114.328 195.372 114.272 195.316C114.216 195.26 114.188 195.188 114.188 195.1V190.72L114.68 190.804L111.524 195.208C111.492 195.264 111.448 195.312 111.392 195.352C111.336 195.384 111.272 195.4 111.2 195.4H110.108ZM27.7779 212.692C27.6899 212.692 27.6179 212.66 27.5619 212.596C27.5059 212.54 27.4779 212.472 27.4779 212.392V211.564C27.4779 211.484 27.5059 211.416 27.5619 211.36C27.6179 211.304 27.6899 211.276 27.7779 211.276H28.1739C28.3259 211.276 28.4499 211.244 28.5459 211.18C28.6499 211.124 28.7419 211.028 28.8219 210.892C28.9019 210.756 28.9939 210.568 29.0979 210.328L31.5459 204.4C31.5699 204.336 31.6059 204.28 31.6539 204.232C31.7099 204.184 31.7859 204.16 31.8819 204.16H32.9859C33.0499 204.16 33.1059 204.188 33.1539 204.244C33.2099 204.292 33.2379 204.348 33.2379 204.412C33.2379 204.428 33.2339 204.452 33.2259 204.484C33.2259 204.508 33.2179 204.54 33.2019 204.58L30.9219 210.052C30.7699 210.42 30.6099 210.764 30.4419 211.084C30.2819 211.404 30.1059 211.684 29.9139 211.924C29.7219 212.164 29.4939 212.352 29.2299 212.488C28.9739 212.624 28.6779 212.692 28.3419 212.692H27.7779ZM29.2539 210.256L26.8179 204.58C26.7859 204.516 26.7699 204.464 26.7699 204.424C26.7779 204.352 26.8059 204.292 26.8539 204.244C26.9099 204.188 26.9739 204.16 27.0459 204.16H28.1979C28.2939 204.16 28.3659 204.188 28.4139 204.244C28.4619 204.292 28.4979 204.344 28.5219 204.4L30.3219 208.888L29.2539 210.256ZM34.5225 210.4C34.4425 210.4 34.3745 210.372 34.3185 210.316C34.2625 210.26 34.2345 210.188 34.2345 210.1V204.46C34.2345 204.372 34.2625 204.3 34.3185 204.244C34.3745 204.188 34.4425 204.16 34.5225 204.16H35.6985C35.7865 204.16 35.8585 204.188 35.9145 204.244C35.9705 204.3 35.9985 204.372 35.9985 204.46V206.524H36.7545L38.1465 204.352C38.1705 204.304 38.2065 204.26 38.2545 204.22C38.3105 204.18 38.3825 204.16 38.4705 204.16H39.7785C39.8505 204.16 39.9105 204.184 39.9585 204.232C40.0145 204.272 40.0425 204.324 40.0425 204.388C40.0425 204.412 40.0345 204.44 40.0185 204.472C40.0105 204.504 39.9985 204.532 39.9825 204.556L38.2905 207.172L40.2465 210.016C40.2785 210.064 40.2945 210.116 40.2945 210.172C40.2945 210.236 40.2705 210.292 40.2225 210.34C40.1745 210.38 40.1145 210.4 40.0425 210.4H38.5905C38.5105 210.4 38.4425 210.384 38.3865 210.352C38.3385 210.312 38.2945 210.264 38.2545 210.208L36.7425 207.952H35.9985V210.1C35.9985 210.188 35.9705 210.26 35.9145 210.316C35.8585 210.372 35.7865 210.4 35.6985 210.4H34.5225ZM41.5892 212.68C41.5012 212.68 41.4292 212.652 41.3732 212.596C41.3172 212.54 41.2892 212.468 41.2892 212.38V204.46C41.2892 204.372 41.3172 204.3 41.3732 204.244C41.4292 204.188 41.5012 204.16 41.5892 204.16H42.7292C42.8172 204.16 42.8892 204.188 42.9452 204.244C43.0012 204.3 43.0292 204.372 43.0292 204.46V204.916C43.2212 204.66 43.4692 204.452 43.7732 204.292C44.0772 204.124 44.4572 204.04 44.9132 204.04C45.3292 204.04 45.6892 204.108 45.9932 204.244C46.3052 204.372 46.5652 204.56 46.7732 204.808C46.9892 205.048 47.1532 205.34 47.2652 205.684C47.3852 206.028 47.4532 206.416 47.4692 206.848C47.4772 207 47.4812 207.144 47.4812 207.28C47.4812 207.416 47.4772 207.564 47.4692 207.724C47.4612 208.132 47.3972 208.508 47.2772 208.852C47.1652 209.196 47.0012 209.492 46.7852 209.74C46.5692 209.988 46.3052 210.18 45.9932 210.316C45.6892 210.452 45.3292 210.52 44.9132 210.52C44.5052 210.52 44.1492 210.448 43.8452 210.304C43.5492 210.152 43.3052 209.948 43.1132 209.692V212.38C43.1132 212.468 43.0852 212.54 43.0292 212.596C42.9732 212.652 42.9052 212.68 42.8252 212.68H41.5892ZM44.3732 209.08C44.6772 209.08 44.9172 209.016 45.0932 208.888C45.2692 208.752 45.3932 208.576 45.4652 208.36C45.5452 208.144 45.5932 207.908 45.6092 207.652C45.6252 207.404 45.6252 207.156 45.6092 206.908C45.5932 206.652 45.5452 206.416 45.4652 206.2C45.3932 205.984 45.2692 205.812 45.0932 205.684C44.9172 205.548 44.6772 205.48 44.3732 205.48C44.0772 205.48 43.8372 205.548 43.6532 205.684C43.4692 205.82 43.3372 205.992 43.2572 206.2C43.1772 206.408 43.1292 206.632 43.1132 206.872C43.1052 207.016 43.1012 207.164 43.1012 207.316C43.1012 207.468 43.1052 207.62 43.1132 207.772C43.1212 207.996 43.1692 208.208 43.2572 208.408C43.3532 208.6 43.4892 208.76 43.6652 208.888C43.8492 209.016 44.0852 209.08 44.3732 209.08ZM50.59 210.52C50.166 210.52 49.786 210.44 49.45 210.28C49.114 210.112 48.846 209.888 48.646 209.608C48.446 209.328 48.346 209.016 48.346 208.672C48.346 208.104 48.574 207.656 49.03 207.328C49.494 207 50.102 206.776 50.854 206.656L52.426 206.428V206.212C52.426 205.9 52.354 205.66 52.21 205.492C52.066 205.324 51.814 205.24 51.454 205.24C51.19 205.24 50.978 205.292 50.818 205.396C50.658 205.5 50.534 205.636 50.446 205.804C50.382 205.908 50.29 205.96 50.17 205.96H49.03C48.942 205.96 48.874 205.936 48.826 205.888C48.778 205.832 48.758 205.768 48.766 205.696C48.766 205.56 48.818 205.4 48.922 205.216C49.026 205.032 49.186 204.852 49.402 204.676C49.618 204.492 49.894 204.34 50.23 204.22C50.566 204.1 50.978 204.04 51.466 204.04C51.97 204.04 52.402 204.1 52.762 204.22C53.122 204.34 53.41 204.508 53.626 204.724C53.842 204.94 54.002 205.192 54.106 205.48C54.21 205.76 54.262 206.064 54.262 206.392V210.1C54.262 210.188 54.234 210.26 54.178 210.316C54.122 210.372 54.05 210.4 53.962 210.4H52.786C52.706 210.4 52.638 210.372 52.582 210.316C52.526 210.26 52.498 210.188 52.498 210.1V209.656C52.394 209.808 52.254 209.952 52.078 210.088C51.902 210.216 51.69 210.32 51.442 210.4C51.202 210.48 50.918 210.52 50.59 210.52ZM51.07 209.272C51.334 209.272 51.57 209.216 51.778 209.104C51.986 208.992 52.15 208.82 52.27 208.588C52.39 208.356 52.45 208.064 52.45 207.712V207.508L51.334 207.688C50.902 207.76 50.586 207.868 50.386 208.012C50.186 208.156 50.086 208.332 50.086 208.54C50.086 208.692 50.13 208.824 50.218 208.936C50.314 209.048 50.438 209.132 50.59 209.188C50.742 209.244 50.902 209.272 51.07 209.272ZM55.523 211.72C55.443 211.72 55.375 211.692 55.319 211.636C55.263 211.58 55.235 211.508 55.235 211.42V209.284C55.235 209.196 55.263 209.124 55.319 209.068C55.375 209.012 55.443 208.984 55.523 208.984H55.631C55.839 208.984 56.003 208.876 56.123 208.66C56.251 208.444 56.343 208.124 56.399 207.7C56.455 207.276 56.483 206.744 56.483 206.104V204.46C56.483 204.372 56.511 204.3 56.567 204.244C56.623 204.188 56.691 204.16 56.771 204.16H61.259C61.347 204.16 61.419 204.188 61.475 204.244C61.531 204.3 61.559 204.372 61.559 204.46V208.972H62.087C62.167 208.972 62.235 209 62.291 209.056C62.347 209.112 62.375 209.184 62.375 209.272V211.42C62.375 211.508 62.347 211.58 62.291 211.636C62.235 211.692 62.167 211.72 62.087 211.72H60.887C60.799 211.72 60.727 211.692 60.671 211.636C60.615 211.58 60.587 211.508 60.587 211.42V210.4H57.023V211.42C57.023 211.508 56.995 211.58 56.939 211.636C56.883 211.692 56.811 211.72 56.723 211.72H55.523ZM57.695 208.984L59.771 208.972V205.576H58.187V206.308C58.187 206.964 58.143 207.512 58.055 207.952C57.975 208.392 57.855 208.736 57.695 208.984ZM63.6902 210.4C63.6182 210.4 63.5542 210.372 63.4982 210.316C63.4422 210.26 63.4142 210.192 63.4142 210.112V204.46C63.4142 204.372 63.4422 204.3 63.4982 204.244C63.5542 204.188 63.6222 204.16 63.7022 204.16H64.9022C64.9902 204.16 65.0622 204.188 65.1182 204.244C65.1742 204.3 65.2022 204.372 65.2022 204.46V209.02L64.7222 208.744L67.8542 204.352C67.8942 204.296 67.9382 204.252 67.9862 204.22C68.0422 204.18 68.1102 204.16 68.1902 204.16H69.2702C69.3502 204.16 69.4182 204.188 69.4742 204.244C69.5302 204.3 69.5582 204.364 69.5582 204.436V210.1C69.5582 210.188 69.5302 210.26 69.4742 210.316C69.4182 210.372 69.3462 210.4 69.2582 210.4H68.0582C67.9782 210.4 67.9102 210.372 67.8542 210.316C67.7982 210.26 67.7702 210.188 67.7702 210.1V205.72L68.2622 205.804L65.1062 210.208C65.0742 210.264 65.0302 210.312 64.9742 210.352C64.9182 210.384 64.8542 210.4 64.7822 210.4H63.6902ZM73.8732 210.4C73.8012 210.4 73.7412 210.376 73.6932 210.328C73.6452 210.28 73.6212 210.22 73.6212 210.148V204.4C73.6212 204.336 73.6452 204.28 73.6932 204.232C73.7412 204.184 73.7972 204.16 73.8612 204.16H75.0372C75.1812 204.16 75.2932 204.232 75.3732 204.376L77.1252 207.508L78.8652 204.376C78.9452 204.232 79.0572 204.16 79.2012 204.16H80.3892C80.4532 204.16 80.5092 204.184 80.5572 204.232C80.6052 204.28 80.6292 204.336 80.6292 204.4V210.148C80.6292 210.22 80.6052 210.28 80.5572 210.328C80.5092 210.376 80.4492 210.4 80.3772 210.4H79.1172C79.0372 210.4 78.9732 210.376 78.9252 210.328C78.8852 210.28 78.8652 210.22 78.8652 210.148V206.008L79.4052 206.116L77.7012 209.176C77.6612 209.248 77.6132 209.312 77.5572 209.368C77.5092 209.424 77.4372 209.452 77.3412 209.452H76.8972C76.8092 209.452 76.7372 209.428 76.6812 209.38C76.6252 209.324 76.5732 209.256 76.5252 209.176L74.8692 206.224L75.3732 206.116V210.148C75.3732 210.22 75.3492 210.28 75.3012 210.328C75.2532 210.376 75.1932 210.4 75.1212 210.4H73.8732ZM82.6919 212.692C82.6039 212.692 82.5319 212.66 82.4759 212.596C82.4199 212.54 82.3919 212.472 82.3919 212.392V211.564C82.3919 211.484 82.4199 211.416 82.4759 211.36C82.5319 211.304 82.6039 211.276 82.6919 211.276H83.0879C83.2399 211.276 83.3639 211.244 83.4599 211.18C83.5639 211.124 83.6559 211.028 83.7359 210.892C83.8159 210.756 83.9079 210.568 84.0119 210.328L86.4599 204.4C86.4839 204.336 86.5199 204.28 86.5679 204.232C86.6239 204.184 86.6999 204.16 86.7959 204.16H87.8999C87.9639 204.16 88.0199 204.188 88.0679 204.244C88.1239 204.292 88.1519 204.348 88.1519 204.412C88.1519 204.428 88.1479 204.452 88.1399 204.484C88.1399 204.508 88.1319 204.54 88.1159 204.58L85.8359 210.052C85.6839 210.42 85.5239 210.764 85.3559 211.084C85.1959 211.404 85.0199 211.684 84.8279 211.924C84.6359 212.164 84.4079 212.352 84.1439 212.488C83.8879 212.624 83.5919 212.692 83.2559 212.692H82.6919ZM84.1679 210.256L81.7319 204.58C81.6999 204.516 81.6839 204.464 81.6839 204.424C81.6919 204.352 81.7199 204.292 81.7679 204.244C81.8239 204.188 81.8879 204.16 81.9599 204.16H83.1119C83.2079 204.16 83.2799 204.188 83.3279 204.244C83.3759 204.292 83.4119 204.344 83.4359 204.4L85.2359 208.888L84.1679 210.256ZM94.701 210.52C94.005 210.52 93.433 210.404 92.985 210.172C92.545 209.94 92.213 209.592 91.989 209.128C91.773 208.656 91.649 208.072 91.617 207.376C91.609 207.144 91.605 206.904 91.605 206.656C91.605 206.408 91.609 206.168 91.617 205.936C91.633 205.248 91.701 204.672 91.821 204.208C91.949 203.736 92.137 203.348 92.385 203.044C92.641 202.732 92.965 202.476 93.357 202.276C93.757 202.068 94.233 201.888 94.785 201.736C95.337 201.584 95.977 201.424 96.705 201.256C96.785 201.24 96.861 201.252 96.933 201.292C97.005 201.332 97.045 201.396 97.053 201.484L97.233 202.42C97.249 202.508 97.233 202.584 97.185 202.648C97.145 202.712 97.089 202.752 97.017 202.768C96.401 202.896 95.877 203.012 95.445 203.116C95.013 203.22 94.653 203.34 94.365 203.476C94.085 203.604 93.869 203.776 93.717 203.992C93.565 204.2 93.457 204.476 93.393 204.82C93.337 205.156 93.317 205.584 93.333 206.104L93.057 205.828C93.113 205.596 93.237 205.388 93.429 205.204C93.621 205.02 93.857 204.872 94.137 204.76C94.417 204.64 94.713 204.58 95.025 204.58C95.609 204.58 96.101 204.684 96.501 204.892C96.901 205.1 97.205 205.396 97.413 205.78C97.629 206.156 97.753 206.608 97.785 207.136C97.801 207.432 97.801 207.708 97.785 207.964C97.753 208.476 97.617 208.928 97.377 209.32C97.145 209.704 96.805 210 96.357 210.208C95.909 210.416 95.357 210.52 94.701 210.52ZM94.701 209.308C95.093 209.308 95.389 209.192 95.589 208.96C95.789 208.72 95.897 208.368 95.913 207.904C95.921 207.816 95.925 207.704 95.925 207.568C95.925 207.424 95.921 207.296 95.913 207.184C95.897 206.736 95.789 206.392 95.589 206.152C95.397 205.912 95.129 205.792 94.785 205.792C94.385 205.792 94.073 205.912 93.849 206.152C93.625 206.392 93.501 206.736 93.477 207.184C93.469 207.296 93.465 207.424 93.465 207.568C93.465 207.704 93.469 207.816 93.477 207.904C93.501 208.368 93.613 208.72 93.813 208.96C94.013 209.192 94.309 209.308 94.701 209.308ZM99.3386 210.4C99.2666 210.4 99.2026 210.372 99.1466 210.316C99.0906 210.26 99.0626 210.192 99.0626 210.112V204.46C99.0626 204.372 99.0906 204.3 99.1466 204.244C99.2026 204.188 99.2706 204.16 99.3506 204.16H100.551C100.639 204.16 100.711 204.188 100.767 204.244C100.823 204.3 100.851 204.372 100.851 204.46V209.02L100.371 208.744L103.503 204.352C103.543 204.296 103.587 204.252 103.635 204.22C103.691 204.18 103.759 204.16 103.839 204.16H104.919C104.999 204.16 105.067 204.188 105.123 204.244C105.179 204.3 105.207 204.364 105.207 204.436V210.1C105.207 210.188 105.179 210.26 105.123 210.316C105.067 210.372 104.995 210.4 104.907 210.4H103.707C103.627 210.4 103.559 210.372 103.503 210.316C103.447 210.26 103.419 210.188 103.419 210.1V205.72L103.911 205.804L100.755 210.208C100.723 210.264 100.679 210.312 100.623 210.352C100.567 210.384 100.503 210.4 100.431 210.4H99.3386ZM109.117 210.52C108.581 210.52 108.137 210.46 107.785 210.34C107.433 210.22 107.149 210.068 106.933 209.884C106.725 209.692 106.573 209.492 106.477 209.284C106.389 209.076 106.337 208.888 106.321 208.72C106.313 208.656 106.333 208.604 106.381 208.564C106.429 208.516 106.481 208.492 106.537 208.492H107.713C107.801 208.492 107.865 208.512 107.905 208.552C107.953 208.584 107.993 208.632 108.025 208.696C108.105 208.896 108.237 209.04 108.421 209.128C108.613 209.208 108.861 209.248 109.165 209.248C109.365 209.248 109.545 209.22 109.705 209.164C109.865 209.108 109.985 209.028 110.065 208.924C110.153 208.812 110.197 208.672 110.197 208.504C110.197 208.272 110.129 208.096 109.993 207.976C109.857 207.848 109.629 207.784 109.309 207.784H108.649C108.569 207.784 108.505 207.76 108.457 207.712C108.409 207.656 108.385 207.592 108.385 207.52V206.932C108.385 206.86 108.409 206.8 108.457 206.752C108.505 206.696 108.569 206.668 108.649 206.668H109.273C109.537 206.668 109.733 206.62 109.861 206.524C109.989 206.42 110.053 206.264 110.053 206.056C110.053 205.928 110.021 205.808 109.957 205.696C109.901 205.584 109.805 205.496 109.669 205.432C109.533 205.36 109.345 205.324 109.105 205.324C108.769 205.324 108.529 205.376 108.385 205.48C108.241 205.584 108.133 205.74 108.061 205.948C108.029 206.012 107.989 206.06 107.941 206.092C107.901 206.124 107.837 206.14 107.749 206.14H106.609C106.545 206.14 106.489 206.12 106.441 206.08C106.401 206.04 106.381 205.988 106.381 205.924C106.397 205.708 106.457 205.492 106.561 205.276C106.665 205.052 106.821 204.848 107.029 204.664C107.245 204.472 107.521 204.32 107.857 204.208C108.201 204.096 108.621 204.04 109.117 204.04C109.773 204.04 110.297 204.124 110.689 204.292C111.081 204.46 111.361 204.68 111.529 204.952C111.705 205.216 111.793 205.504 111.793 205.816C111.793 206.096 111.737 206.348 111.625 206.572C111.513 206.788 111.313 206.968 111.025 207.112C111.385 207.248 111.633 207.456 111.769 207.736C111.905 208.016 111.973 208.316 111.973 208.636C111.981 209.028 111.865 209.364 111.625 209.644C111.393 209.924 111.061 210.14 110.629 210.292C110.205 210.444 109.701 210.52 109.117 210.52ZM113.46 210.4C113.38 210.4 113.312 210.372 113.256 210.316C113.2 210.26 113.172 210.188 113.172 210.1V204.46C113.172 204.372 113.2 204.3 113.256 204.244C113.312 204.188 113.38 204.16 113.46 204.16H114.66C114.748 204.16 114.82 204.188 114.876 204.244C114.932 204.3 114.96 204.372 114.96 204.46V206.524H117.396V204.46C117.396 204.372 117.424 204.3 117.48 204.244C117.536 204.188 117.608 204.16 117.696 204.16H118.896C118.976 204.16 119.044 204.188 119.1 204.244C119.156 204.3 119.184 204.372 119.184 204.46V210.1C119.184 210.188 119.156 210.26 119.1 210.316C119.044 210.372 118.976 210.4 118.896 210.4H117.696C117.608 210.4 117.536 210.372 117.48 210.316C117.424 210.26 117.396 210.188 117.396 210.1V207.94H114.96V210.1C114.96 210.188 114.932 210.26 114.876 210.316C114.82 210.372 114.748 210.4 114.66 210.4H113.46ZM121.007 210.4C120.935 210.4 120.871 210.372 120.815 210.316C120.759 210.26 120.731 210.192 120.731 210.112V204.46C120.731 204.372 120.759 204.3 120.815 204.244C120.871 204.188 120.939 204.16 121.019 204.16H122.219C122.307 204.16 122.379 204.188 122.435 204.244C122.491 204.3 122.519 204.372 122.519 204.46V209.02L122.039 208.744L125.171 204.352C125.211 204.296 125.255 204.252 125.303 204.22C125.359 204.18 125.427 204.16 125.507 204.16H126.587C126.667 204.16 126.735 204.188 126.791 204.244C126.847 204.3 126.875 204.364 126.875 204.436V210.1C126.875 210.188 126.847 210.26 126.791 210.316C126.735 210.372 126.663 210.4 126.575 210.4H125.375C125.295 210.4 125.227 210.372 125.171 210.316C125.115 210.26 125.087 210.188 125.087 210.1V205.72L125.579 205.804L122.423 210.208C122.391 210.264 122.347 210.312 122.291 210.352C122.235 210.384 122.171 210.4 122.099 210.4H121.007ZM131.061 210.52C130.477 210.52 129.961 210.412 129.513 210.196C129.073 209.98 128.725 209.668 128.469 209.26C128.213 208.844 128.073 208.348 128.049 207.772C128.041 207.644 128.037 207.484 128.037 207.292C128.037 207.092 128.041 206.928 128.049 206.8C128.073 206.216 128.209 205.72 128.457 205.312C128.713 204.896 129.065 204.58 129.513 204.364C129.961 204.148 130.477 204.04 131.061 204.04C131.597 204.04 132.053 204.116 132.429 204.268C132.805 204.412 133.113 204.596 133.353 204.82C133.593 205.044 133.769 205.28 133.881 205.528C134.001 205.768 134.065 205.98 134.073 206.164C134.081 206.244 134.053 206.316 133.989 206.38C133.933 206.436 133.865 206.464 133.785 206.464H132.501C132.421 206.464 132.357 206.444 132.309 206.404C132.269 206.356 132.229 206.292 132.189 206.212C132.077 205.932 131.933 205.732 131.757 205.612C131.581 205.492 131.361 205.432 131.097 205.432C130.737 205.432 130.453 205.548 130.245 205.78C130.037 206.012 129.925 206.372 129.909 206.86C129.901 207.172 129.901 207.456 129.909 207.712C129.933 208.208 130.045 208.568 130.245 208.792C130.453 209.016 130.737 209.128 131.097 209.128C131.377 209.128 131.601 209.068 131.769 208.948C131.937 208.828 132.077 208.628 132.189 208.348C132.221 208.268 132.261 208.208 132.309 208.168C132.357 208.12 132.421 208.096 132.501 208.096H133.785C133.865 208.096 133.933 208.128 133.989 208.192C134.053 208.248 134.081 208.316 134.073 208.396C134.065 208.532 134.025 208.692 133.953 208.876C133.889 209.06 133.781 209.248 133.629 209.44C133.485 209.632 133.297 209.812 133.065 209.98C132.833 210.14 132.549 210.272 132.213 210.376C131.885 210.472 131.501 210.52 131.061 210.52ZM35.0989 227.308C34.5629 227.308 34.0869 227.2 33.6709 226.984C33.2549 226.776 32.9029 226.444 32.6149 225.988C32.3349 225.54 32.1229 224.96 31.9789 224.248C31.8349 223.536 31.7629 222.684 31.7629 221.692C31.7629 220.692 31.8349 219.84 31.9789 219.136C32.1229 218.424 32.3349 217.844 32.6149 217.396C32.9029 216.948 33.2549 216.62 33.6709 216.412C34.0869 216.196 34.5629 216.088 35.0989 216.088C35.1789 216.088 35.2469 216.12 35.3029 216.184C35.3669 216.24 35.3989 216.308 35.3989 216.388V217.24C35.3989 217.328 35.3709 217.4 35.3149 217.456C35.2589 217.512 35.1949 217.54 35.1229 217.54C34.7949 217.556 34.5189 217.652 34.2949 217.828C34.0709 218.004 33.8949 218.268 33.7669 218.62C33.6389 218.964 33.5469 219.392 33.4909 219.904C33.4349 220.408 33.4069 221.004 33.4069 221.692C33.4069 222.38 33.4349 222.98 33.4909 223.492C33.5469 224.004 33.6389 224.432 33.7669 224.776C33.8949 225.12 34.0709 225.38 34.2949 225.556C34.5189 225.74 34.7949 225.84 35.1229 225.856C35.1949 225.856 35.2589 225.884 35.3149 225.94C35.3709 225.996 35.3989 226.068 35.3989 226.156V227.008C35.3989 227.088 35.3669 227.156 35.3029 227.212C35.2469 227.276 35.1789 227.308 35.0989 227.308ZM39.2878 225.52C38.6238 225.52 38.0678 225.412 37.6198 225.196C37.1718 224.972 36.8278 224.656 36.5878 224.248C36.3558 223.84 36.2278 223.364 36.2038 222.82C36.1958 222.66 36.1918 222.48 36.1918 222.28C36.1918 222.072 36.1958 221.892 36.2038 221.74C36.2278 221.188 36.3638 220.712 36.6118 220.312C36.8598 219.904 37.2078 219.592 37.6558 219.376C38.1038 219.152 38.6478 219.04 39.2878 219.04C39.9198 219.04 40.4598 219.152 40.9078 219.376C41.3558 219.592 41.7038 219.904 41.9518 220.312C42.1998 220.712 42.3358 221.188 42.3598 221.74C42.3758 221.892 42.3838 222.072 42.3838 222.28C42.3838 222.48 42.3758 222.66 42.3598 222.82C42.3358 223.364 42.2038 223.84 41.9638 224.248C41.7318 224.656 41.3918 224.972 40.9438 225.196C40.4958 225.412 39.9438 225.52 39.2878 225.52ZM39.2878 224.2C39.6798 224.2 39.9758 224.08 40.1758 223.84C40.3758 223.592 40.4838 223.232 40.4998 222.76C40.5078 222.64 40.5118 222.48 40.5118 222.28C40.5118 222.08 40.5078 221.92 40.4998 221.8C40.4838 221.336 40.3758 220.98 40.1758 220.732C39.9758 220.484 39.6798 220.36 39.2878 220.36C38.8958 220.36 38.5958 220.484 38.3878 220.732C38.1878 220.98 38.0798 221.336 38.0638 221.8C38.0558 221.92 38.0518 222.08 38.0518 222.28C38.0518 222.48 38.0558 222.64 38.0638 222.76C38.0798 223.232 38.1878 223.592 38.3878 223.84C38.5958 224.08 38.8958 224.2 39.2878 224.2ZM46.4108 225.52C45.8268 225.52 45.3108 225.412 44.8628 225.196C44.4228 224.98 44.0748 224.668 43.8188 224.26C43.5628 223.844 43.4228 223.348 43.3988 222.772C43.3908 222.644 43.3868 222.484 43.3868 222.292C43.3868 222.092 43.3908 221.928 43.3988 221.8C43.4228 221.216 43.5588 220.72 43.8068 220.312C44.0628 219.896 44.4148 219.58 44.8628 219.364C45.3108 219.148 45.8268 219.04 46.4108 219.04C46.9468 219.04 47.4028 219.116 47.7788 219.268C48.1548 219.412 48.4628 219.596 48.7028 219.82C48.9428 220.044 49.1188 220.28 49.2308 220.528C49.3508 220.768 49.4148 220.98 49.4228 221.164C49.4308 221.244 49.4028 221.316 49.3388 221.38C49.2828 221.436 49.2148 221.464 49.1348 221.464H47.8508C47.7708 221.464 47.7068 221.444 47.6588 221.404C47.6188 221.356 47.5788 221.292 47.5388 221.212C47.4268 220.932 47.2828 220.732 47.1068 220.612C46.9308 220.492 46.7108 220.432 46.4468 220.432C46.0868 220.432 45.8028 220.548 45.5948 220.78C45.3868 221.012 45.2748 221.372 45.2588 221.86C45.2508 222.172 45.2508 222.456 45.2588 222.712C45.2828 223.208 45.3948 223.568 45.5948 223.792C45.8028 224.016 46.0868 224.128 46.4468 224.128C46.7268 224.128 46.9508 224.068 47.1188 223.948C47.2868 223.828 47.4268 223.628 47.5388 223.348C47.5708 223.268 47.6108 223.208 47.6588 223.168C47.7068 223.12 47.7708 223.096 47.8508 223.096H49.1348C49.2148 223.096 49.2828 223.128 49.3388 223.192C49.4028 223.248 49.4308 223.316 49.4228 223.396C49.4148 223.532 49.3748 223.692 49.3028 223.876C49.2388 224.06 49.1308 224.248 48.9788 224.44C48.8348 224.632 48.6468 224.812 48.4148 224.98C48.1828 225.14 47.8988 225.272 47.5628 225.376C47.2348 225.472 46.8508 225.52 46.4108 225.52ZM50.8878 225.4C50.8078 225.4 50.7398 225.372 50.6838 225.316C50.6278 225.26 50.5998 225.188 50.5998 225.1V219.46C50.5998 219.372 50.6278 219.3 50.6838 219.244C50.7398 219.188 50.8078 219.16 50.8878 219.16H53.6238C54.5198 219.16 55.1758 219.32 55.5918 219.64C56.0158 219.952 56.2278 220.376 56.2278 220.912C56.2278 221.232 56.1678 221.488 56.0478 221.68C55.9278 221.864 55.7598 222.024 55.5438 222.16C55.8158 222.288 56.0278 222.48 56.1797 222.736C56.3398 222.984 56.4198 223.264 56.4198 223.576C56.4198 224.144 56.1998 224.592 55.7598 224.92C55.3198 225.24 54.6598 225.4 53.7798 225.4H50.8878ZM52.3278 224.224H53.6718C53.9518 224.224 54.1758 224.172 54.3438 224.068C54.5198 223.956 54.6078 223.784 54.6078 223.552C54.6078 223.312 54.5278 223.14 54.3678 223.036C54.2078 222.932 53.9758 222.88 53.6718 222.88H52.3278V224.224ZM52.3278 221.656H53.6238C53.9118 221.656 54.1398 221.596 54.3078 221.476C54.4758 221.356 54.5598 221.184 54.5598 220.96C54.5598 220.728 54.4758 220.568 54.3078 220.48C54.1398 220.384 53.9118 220.336 53.6238 220.336H52.3278V221.656ZM60.5088 225.52C59.5888 225.52 58.8568 225.264 58.3128 224.752C57.7768 224.24 57.4928 223.496 57.4608 222.52C57.4608 222.456 57.4608 222.372 57.4608 222.268C57.4608 222.156 57.4608 222.068 57.4608 222.004C57.4928 221.388 57.6328 220.86 57.8808 220.42C58.1288 219.972 58.4768 219.632 58.9248 219.4C59.3728 219.16 59.8968 219.04 60.4967 219.04C61.1688 219.04 61.7288 219.18 62.1768 219.46C62.6328 219.732 62.9728 220.108 63.1968 220.588C63.4288 221.06 63.5448 221.604 63.5448 222.22V222.496C63.5448 222.576 63.5128 222.644 63.4488 222.7C63.3928 222.756 63.3248 222.784 63.2448 222.784H59.3208C59.3208 222.792 59.3208 222.808 59.3208 222.832C59.3208 222.848 59.3208 222.864 59.3208 222.88C59.3288 223.136 59.3768 223.372 59.4648 223.588C59.5608 223.796 59.6928 223.964 59.8608 224.092C60.0368 224.22 60.2448 224.284 60.4848 224.284C60.6848 224.284 60.8488 224.256 60.9768 224.2C61.1048 224.144 61.2088 224.076 61.2888 223.996C61.3768 223.916 61.4408 223.848 61.4808 223.792C61.5528 223.712 61.6088 223.664 61.6488 223.648C61.6968 223.624 61.7688 223.612 61.8648 223.612H63.1128C63.1928 223.612 63.2568 223.636 63.3047 223.684C63.3608 223.724 63.3848 223.784 63.3768 223.864C63.3688 223.992 63.3008 224.152 63.1728 224.344C63.0528 224.528 62.8728 224.712 62.6328 224.896C62.3928 225.072 62.0928 225.22 61.7328 225.34C61.3808 225.46 60.9728 225.52 60.5088 225.52ZM59.3208 221.692H61.6728V221.668C61.6728 221.38 61.6248 221.132 61.5288 220.924C61.4408 220.708 61.3088 220.54 61.1328 220.42C60.9568 220.3 60.7448 220.24 60.4967 220.24C60.2488 220.24 60.0368 220.3 59.8608 220.42C59.6848 220.54 59.5488 220.708 59.4528 220.924C59.3648 221.132 59.3208 221.38 59.3208 221.668V221.692ZM65.0323 225.4C64.9523 225.4 64.8843 225.372 64.8283 225.316C64.7723 225.26 64.7443 225.188 64.7443 225.1V219.46C64.7443 219.372 64.7723 219.3 64.8283 219.244C64.8843 219.188 64.9523 219.16 65.0323 219.16H66.2323C66.3203 219.16 66.3923 219.188 66.4483 219.244C66.5043 219.3 66.5323 219.372 66.5323 219.46V221.524H68.9683V219.46C68.9683 219.372 68.9963 219.3 69.0523 219.244C69.1083 219.188 69.1803 219.16 69.2683 219.16H70.4683C70.5483 219.16 70.6163 219.188 70.6723 219.244C70.7283 219.3 70.7563 219.372 70.7563 219.46V225.1C70.7563 225.188 70.7283 225.26 70.6723 225.316C70.6163 225.372 70.5483 225.4 70.4683 225.4H69.2683C69.1803 225.4 69.1083 225.372 69.0523 225.316C68.9963 225.26 68.9683 225.188 68.9683 225.1V222.94H66.5323V225.1C66.5323 225.188 66.5043 225.26 66.4483 225.316C66.3923 225.372 66.3203 225.4 66.2323 225.4H65.0323ZM75.2393 225.4C75.1593 225.4 75.0913 225.372 75.0353 225.316C74.9793 225.26 74.9513 225.188 74.9513 225.1V219.46C74.9513 219.372 74.9793 219.3 75.0353 219.244C75.0913 219.188 75.1593 219.16 75.2393 219.16H76.4153C76.5033 219.16 76.5753 219.188 76.6313 219.244C76.6873 219.3 76.7153 219.372 76.7153 219.46V221.524H77.4713L78.8633 219.352C78.8873 219.304 78.9233 219.26 78.9713 219.22C79.0273 219.18 79.0993 219.16 79.1873 219.16H80.4953C80.5673 219.16 80.6273 219.184 80.6753 219.232C80.7313 219.272 80.7593 219.324 80.7593 219.388C80.7593 219.412 80.7513 219.44 80.7353 219.472C80.7273 219.504 80.7153 219.532 80.6993 219.556L79.0073 222.172L80.9633 225.016C80.9953 225.064 81.0113 225.116 81.0113 225.172C81.0113 225.236 80.9873 225.292 80.9393 225.34C80.8913 225.38 80.8313 225.4 80.7593 225.4H79.3073C79.2273 225.4 79.1593 225.384 79.1033 225.352C79.0553 225.312 79.0113 225.264 78.9713 225.208L77.4593 222.952H76.7153V225.1C76.7153 225.188 76.6873 225.26 76.6313 225.316C76.5753 225.372 76.5033 225.4 76.4153 225.4H75.2393ZM84.862 225.52C84.198 225.52 83.642 225.412 83.194 225.196C82.746 224.972 82.402 224.656 82.162 224.248C81.93 223.84 81.802 223.364 81.778 222.82C81.77 222.66 81.766 222.48 81.766 222.28C81.766 222.072 81.77 221.892 81.778 221.74C81.802 221.188 81.938 220.712 82.186 220.312C82.434 219.904 82.782 219.592 83.23 219.376C83.678 219.152 84.222 219.04 84.862 219.04C85.494 219.04 86.034 219.152 86.482 219.376C86.93 219.592 87.278 219.904 87.526 220.312C87.774 220.712 87.91 221.188 87.934 221.74C87.95 221.892 87.958 222.072 87.958 222.28C87.958 222.48 87.95 222.66 87.934 222.82C87.91 223.364 87.778 223.84 87.538 224.248C87.306 224.656 86.966 224.972 86.518 225.196C86.07 225.412 85.518 225.52 84.862 225.52ZM84.862 224.2C85.254 224.2 85.55 224.08 85.75 223.84C85.95 223.592 86.058 223.232 86.074 222.76C86.082 222.64 86.086 222.48 86.086 222.28C86.086 222.08 86.082 221.92 86.074 221.8C86.058 221.336 85.95 220.98 85.75 220.732C85.55 220.484 85.254 220.36 84.862 220.36C84.47 220.36 84.17 220.484 83.962 220.732C83.762 220.98 83.654 221.336 83.638 221.8C83.63 221.92 83.626 222.08 83.626 222.28C83.626 222.48 83.63 222.64 83.638 222.76C83.654 223.232 83.762 223.592 83.962 223.84C84.17 224.08 84.47 224.2 84.862 224.2ZM89.465 225.4C89.393 225.4 89.333 225.376 89.285 225.328C89.237 225.28 89.213 225.22 89.213 225.148V219.4C89.213 219.336 89.237 219.28 89.285 219.232C89.333 219.184 89.389 219.16 89.453 219.16H90.629C90.773 219.16 90.885 219.232 90.965 219.376L92.717 222.508L94.457 219.376C94.537 219.232 94.649 219.16 94.793 219.16H95.981C96.045 219.16 96.101 219.184 96.149 219.232C96.197 219.28 96.221 219.336 96.221 219.4V225.148C96.221 225.22 96.197 225.28 96.149 225.328C96.101 225.376 96.041 225.4 95.969 225.4H94.709C94.629 225.4 94.565 225.376 94.517 225.328C94.477 225.28 94.457 225.22 94.457 225.148V221.008L94.997 221.116L93.293 224.176C93.253 224.248 93.205 224.312 93.149 224.368C93.101 224.424 93.029 224.452 92.933 224.452H92.489C92.401 224.452 92.329 224.428 92.273 224.38C92.217 224.324 92.165 224.256 92.117 224.176L90.461 221.224L90.965 221.116V225.148C90.965 225.22 90.941 225.28 90.893 225.328C90.845 225.376 90.785 225.4 90.713 225.4H89.465ZM98.0557 225.4C97.9757 225.4 97.9077 225.372 97.8517 225.316C97.7957 225.26 97.7677 225.188 97.7677 225.1V219.46C97.7677 219.372 97.7957 219.3 97.8517 219.244C97.9077 219.188 97.9757 219.16 98.0557 219.16H103.372C103.452 219.16 103.52 219.188 103.576 219.244C103.632 219.3 103.66 219.372 103.66 219.46V225.1C103.66 225.188 103.632 225.26 103.576 225.316C103.52 225.372 103.452 225.4 103.372 225.4H102.172C102.084 225.4 102.012 225.372 101.956 225.316C101.9 225.26 101.872 225.188 101.872 225.1V220.576H99.5557V225.1C99.5557 225.188 99.5277 225.26 99.4717 225.316C99.4157 225.372 99.3437 225.4 99.2557 225.4H98.0557ZM105.065 225.4C104.985 225.4 104.913 225.372 104.849 225.316C104.793 225.252 104.765 225.18 104.765 225.1V224.2C104.765 224.024 104.861 223.928 105.053 223.912C105.285 223.888 105.465 223.78 105.593 223.588C105.729 223.388 105.825 223.084 105.881 222.676C105.937 222.268 105.965 221.744 105.965 221.104V219.46C105.965 219.372 105.993 219.3 106.049 219.244C106.105 219.188 106.177 219.16 106.265 219.16H110.741C110.829 219.16 110.901 219.188 110.957 219.244C111.013 219.3 111.041 219.372 111.041 219.46V225.1C111.041 225.188 111.013 225.26 110.957 225.316C110.901 225.372 110.829 225.4 110.741 225.4H109.541C109.461 225.4 109.389 225.372 109.325 225.316C109.269 225.26 109.241 225.188 109.241 225.1V220.576H107.681V221.308C107.681 222.068 107.637 222.712 107.549 223.24C107.469 223.768 107.329 224.192 107.129 224.512C106.929 224.824 106.661 225.052 106.325 225.196C105.989 225.332 105.569 225.4 105.065 225.4ZM115.376 225.52C114.456 225.52 113.724 225.264 113.18 224.752C112.644 224.24 112.36 223.496 112.328 222.52C112.328 222.456 112.328 222.372 112.328 222.268C112.328 222.156 112.328 222.068 112.328 222.004C112.36 221.388 112.5 220.86 112.748 220.42C112.996 219.972 113.344 219.632 113.792 219.4C114.24 219.16 114.764 219.04 115.364 219.04C116.036 219.04 116.596 219.18 117.044 219.46C117.5 219.732 117.84 220.108 118.064 220.588C118.296 221.06 118.412 221.604 118.412 222.22V222.496C118.412 222.576 118.38 222.644 118.316 222.7C118.26 222.756 118.192 222.784 118.112 222.784H114.188C114.188 222.792 114.188 222.808 114.188 222.832C114.188 222.848 114.188 222.864 114.188 222.88C114.196 223.136 114.244 223.372 114.332 223.588C114.428 223.796 114.56 223.964 114.728 224.092C114.904 224.22 115.112 224.284 115.352 224.284C115.552 224.284 115.716 224.256 115.844 224.2C115.972 224.144 116.076 224.076 116.156 223.996C116.244 223.916 116.308 223.848 116.348 223.792C116.42 223.712 116.476 223.664 116.516 223.648C116.564 223.624 116.636 223.612 116.732 223.612H117.98C118.06 223.612 118.124 223.636 118.172 223.684C118.228 223.724 118.252 223.784 118.244 223.864C118.236 223.992 118.168 224.152 118.04 224.344C117.92 224.528 117.74 224.712 117.5 224.896C117.26 225.072 116.96 225.22 116.6 225.34C116.248 225.46 115.84 225.52 115.376 225.52ZM114.188 221.692H116.54V221.668C116.54 221.38 116.492 221.132 116.396 220.924C116.308 220.708 116.176 220.54 116 220.42C115.824 220.3 115.612 220.24 115.364 220.24C115.116 220.24 114.904 220.3 114.728 220.42C114.552 220.54 114.416 220.708 114.32 220.924C114.232 221.132 114.188 221.38 114.188 221.668V221.692ZM121.507 225.4C121.419 225.4 121.347 225.372 121.291 225.316C121.235 225.26 121.207 225.188 121.207 225.1V220.576H119.323C119.235 220.576 119.163 220.548 119.107 220.492C119.051 220.436 119.023 220.364 119.023 220.276V219.46C119.023 219.372 119.051 219.3 119.107 219.244C119.163 219.188 119.235 219.16 119.323 219.16H124.855C124.943 219.16 125.015 219.188 125.071 219.244C125.127 219.3 125.155 219.372 125.155 219.46V220.276C125.155 220.364 125.127 220.436 125.071 220.492C125.015 220.548 124.943 220.576 124.855 220.576H122.971V225.1C122.971 225.188 122.943 225.26 122.887 225.316C122.831 225.372 122.763 225.4 122.683 225.4H121.507ZM125.9 227.308C125.82 227.308 125.748 227.276 125.684 227.212C125.628 227.156 125.6 227.088 125.6 227.008V226.156C125.6 226.068 125.628 225.996 125.684 225.94C125.748 225.884 125.816 225.856 125.888 225.856C126.216 225.84 126.488 225.74 126.704 225.556C126.928 225.38 127.104 225.12 127.232 224.776C127.36 224.432 127.452 224.004 127.508 223.492C127.564 222.98 127.592 222.38 127.592 221.692C127.592 221.004 127.564 220.408 127.508 219.904C127.452 219.392 127.36 218.964 127.232 218.62C127.104 218.268 126.928 218.004 126.704 217.828C126.488 217.652 126.216 217.556 125.888 217.54C125.816 217.54 125.748 217.512 125.684 217.456C125.628 217.4 125.6 217.328 125.6 217.24V216.388C125.6 216.308 125.628 216.24 125.684 216.184C125.748 216.12 125.82 216.088 125.9 216.088C126.444 216.088 126.924 216.196 127.34 216.412C127.756 216.62 128.104 216.948 128.384 217.396C128.664 217.844 128.876 218.424 129.02 219.136C129.164 219.84 129.236 220.692 129.236 221.692C129.236 222.684 129.164 223.536 129.02 224.248C128.876 224.96 128.664 225.54 128.384 225.988C128.104 226.444 127.756 226.776 127.34 226.984C126.924 227.2 126.444 227.308 125.9 227.308Z" fill="black"/>
<path d="M125.832 40.3199H120V35.9165H125.479V32.1746H120V23.4403L122.767 25.9356L125.534 23.4403L125.479 30.0146M131.786 29.8414V27.9905M131.786 27.9905V23H137.32V27.9905H131.786ZM131.786 27.9905L137.32 31.9535L131.786 35.7697M131.786 35.7697H137.32V40.3199H131.786V35.7697ZM131.786 35.7697V33.775V32.2133" stroke="white" stroke-miterlimit="16" stroke-linecap="square"/>
<path d="M126.66 33.4858L130.659 29.4868" stroke="white" stroke-miterlimit="16"/>
<path d="M126.7 29.5269L130.619 33.4459" stroke="white" stroke-miterlimit="16"/>
<path d="M82.6374 102.546C82.1893 102.703 82.0683 102.766 81.7187 103.03C81.2437 103.384 80.8807 103.94 80.688 104.599C80.5939 104.917 80.6163 105.786 80.7284 106.154C80.8314 106.508 81.1317 107.01 81.414 107.296C81.6381 107.529 82.0145 107.816 82.0952 107.816C82.1131 107.816 82.1489 107.839 82.1803 107.87C82.3237 108.013 83.0049 108.179 83.4799 108.179C84.1521 108.184 84.7839 107.96 85.3037 107.543C85.7071 107.216 85.8818 106.978 86.1776 106.378C86.2448 106.243 86.3613 105.728 86.3882 105.463C86.4106 105.221 86.3882 105.065 86.2717 104.5C86.2179 104.258 86.0028 103.832 85.7922 103.554C85.4203 103.066 84.9273 102.725 84.3223 102.537C83.8742 102.398 83.0541 102.403 82.6374 102.546Z" fill="white"/>
<path d="M75.0192 106.974C74.5084 107.059 74.0961 107.153 73.9527 107.216C73.872 107.252 73.7779 107.278 73.7421 107.278C73.7062 107.278 73.6121 107.305 73.5315 107.341C73.4508 107.377 73.2088 107.48 72.9892 107.57C72.6576 107.704 72.196 107.933 71.7479 108.179C71.4387 108.349 70.7889 108.807 70.4483 109.089C69.1353 110.182 68.4452 111.195 68.0688 112.589C67.9388 113.068 68.0016 114.224 68.1853 114.717C68.4407 115.394 68.6782 115.9 68.9292 116.277C69.0009 116.384 69.0591 116.478 69.0591 116.487C69.0591 116.555 69.5431 117.128 69.8703 117.455C70.8158 118.392 71.8555 118.84 73.0699 118.84C73.6614 118.84 74.1364 118.746 74.6473 118.531C75.2747 118.262 75.6108 118.033 76.1216 117.514C76.3502 117.281 76.5518 117.092 76.5653 117.092C76.6101 117.092 76.5877 117.272 76.5205 117.415C76.4846 117.496 76.3905 117.774 76.3098 118.033C76.1754 118.468 76.162 118.549 76.162 119.131C76.162 119.75 76.162 119.763 76.3098 120.059C76.4712 120.386 76.4936 120.409 77.6408 121.197C77.7887 121.296 78.0531 121.48 78.2234 121.596C78.3981 121.717 78.7477 121.959 79.0076 122.134C79.2675 122.313 79.6125 122.551 79.7784 122.667C79.9442 122.779 80.2175 122.967 80.3833 123.084C80.5536 123.2 80.8315 123.393 81.0017 123.514C81.4947 123.855 81.9204 124.146 82.0011 124.195C82.0459 124.218 82.0862 124.249 82.0997 124.262C82.1221 124.285 82.3685 124.455 83.1752 124.997C83.6098 125.293 83.8518 125.54 84.1745 126.01C84.3179 126.221 84.5644 126.57 84.7212 126.794C84.878 127.014 85.12 127.359 85.259 127.556C85.3979 127.753 85.6399 128.094 85.7967 128.318C85.9536 128.538 86.1731 128.851 86.2852 129.013C87.876 131.316 88.1359 131.625 88.6244 131.858C89.1353 132.1 89.561 132.033 89.9374 131.652C90.4528 131.137 90.3542 130.451 89.5923 129.259C89.5655 129.21 89.5206 129.129 89.4982 129.075C89.4624 128.99 89.1577 128.475 89.0456 128.296C89.0187 128.26 88.9829 128.188 88.9605 128.139C88.9246 128.054 88.4855 127.301 88.3734 127.13C88.3466 127.095 88.3152 127.032 88.2973 126.996C88.2793 126.96 88.1494 126.732 88.006 126.49C87.8626 126.243 87.7461 126.037 87.7461 126.028C87.7461 126.01 87.2442 125.145 87.1635 125.024C87.1366 124.988 87.1052 124.926 87.0873 124.89C87.0694 124.854 86.9753 124.679 86.8722 124.509C86.7736 124.334 86.675 124.164 86.6571 124.128C86.6392 124.092 86.5854 123.998 86.5406 123.926C86.4913 123.85 86.3972 123.684 86.33 123.554C86.1731 123.25 85.9132 123.017 84.999 122.358C84.1207 121.722 82.9511 120.87 82.2475 120.355C81.9697 120.153 81.7412 119.96 81.7412 119.934C81.7412 119.902 81.7815 119.781 81.8308 119.665C81.8801 119.548 81.9428 119.382 81.9607 119.293C81.9831 119.203 82.0235 119.069 82.0504 118.997C82.0728 118.921 82.1893 118.558 82.3058 118.19C82.4178 117.818 82.5388 117.437 82.5702 117.339C82.6374 117.142 82.969 116.066 83.1796 115.39C83.5202 114.287 83.5247 114.269 83.6233 114.269C83.6681 114.269 83.7129 114.287 83.7219 114.31C83.7308 114.332 83.8384 114.462 83.9594 114.592C84.0849 114.722 84.4254 115.089 84.7212 115.412C85.0125 115.73 85.3755 116.124 85.5278 116.286C85.6802 116.447 85.976 116.761 86.1821 116.989C86.6347 117.482 86.7243 117.554 87.0246 117.675C87.3338 117.796 87.6251 117.787 87.997 117.648C88.1673 117.585 88.369 117.514 88.4407 117.487C88.5168 117.46 88.593 117.42 88.6154 117.402C88.6423 117.379 88.6871 117.361 88.723 117.361C88.7588 117.361 88.8485 117.334 88.9246 117.299C89.0636 117.24 89.2563 117.164 89.6192 117.03C90.2152 116.801 90.3273 116.756 90.3676 116.725C90.39 116.707 90.4348 116.689 90.4707 116.689C90.5065 116.689 90.5962 116.662 90.6723 116.626C90.8068 116.573 90.9009 116.532 91.3535 116.362C92.7382 115.838 92.8726 115.753 93.034 115.286C93.1415 114.977 93.146 114.932 93.0474 114.655C92.9354 114.341 92.6575 114.072 92.3483 113.973C92.0705 113.888 92.066 113.888 91.1518 114.121C90.9188 114.184 90.6544 114.247 90.5693 114.269C90.3855 114.31 90.0539 114.39 89.7402 114.475C89.4445 114.552 88.6289 114.758 88.3734 114.816C87.9253 114.923 87.9612 114.946 87.3831 114.189C87.0963 113.808 86.8229 113.458 86.7736 113.404C86.7288 113.351 86.3838 112.902 86.0073 112.409C85.6309 111.917 85.2141 111.37 85.0797 111.2C84.9453 111.025 84.7795 110.774 84.7122 110.639C84.6405 110.509 84.4792 110.281 84.3448 110.133C84.0759 109.846 83.8115 109.703 83.1707 109.501C82.9601 109.434 82.6329 109.286 82.4447 109.17C81.9294 108.851 80.8763 108.219 80.8001 108.179C80.5267 108.036 80.0338 107.794 79.9038 107.736C79.8187 107.7 79.6932 107.641 79.626 107.606C79.5633 107.574 79.4691 107.547 79.4243 107.547C79.3795 107.547 79.3213 107.529 79.2989 107.507C79.2496 107.467 78.7835 107.323 78.3578 107.216C77.4033 106.983 75.7049 106.857 75.0192 106.974ZM76.1709 109.662C76.2516 109.743 76.3188 109.828 76.3188 109.86C76.3188 109.887 76.2157 110.003 76.0858 110.12L75.8528 110.326L75.9693 110.563C76.2247 111.065 76.2292 111.338 75.9917 111.854C75.8662 112.127 75.799 112.132 75.4987 111.881C75.1492 111.594 75.1089 111.536 75.1761 111.424C75.2612 111.294 75.2971 111.074 75.2478 111.002C75.2119 110.949 75.1133 111.02 74.7728 111.334C74.5308 111.554 74.3291 111.76 74.3157 111.791C74.3022 111.822 74.3202 111.894 74.356 111.952C74.5129 112.199 74.589 112.504 74.5935 112.88C74.5935 113.243 74.5846 113.274 74.4322 113.512C74.244 113.803 73.9572 114.059 73.6749 114.189C73.5135 114.265 73.3881 114.287 73.0475 114.287C72.6397 114.287 72.6083 114.278 72.3215 114.121C72.1602 114.032 72.0033 113.956 71.9765 113.956C71.9496 113.956 71.8375 114.036 71.73 114.135C71.6224 114.233 71.5238 114.314 71.5059 114.314C71.4477 114.314 71.2102 114.023 71.2102 113.951C71.2102 113.911 71.2908 113.812 71.3894 113.727C71.488 113.642 71.5687 113.552 71.5687 113.521C71.5687 113.489 71.5149 113.368 71.4477 113.252C71.3401 113.059 71.3267 112.988 71.3267 112.584C71.3222 112.15 71.3311 112.118 71.479 111.827C71.6807 111.437 71.7569 111.397 71.9451 111.571C72.0213 111.643 72.1602 111.769 72.2543 111.849C72.438 112.011 72.4515 112.073 72.3529 112.221C72.2767 112.342 72.214 112.813 72.2722 112.849C72.2946 112.862 72.3932 112.799 72.4918 112.71C72.5904 112.62 72.7876 112.432 72.9354 112.297C73.0833 112.163 73.2178 112.02 73.2357 111.979C73.2491 111.939 73.2222 111.818 73.173 111.71C73.0968 111.554 73.0788 111.419 73.0744 111.065C73.0699 110.527 73.1461 110.348 73.5404 109.967C73.9796 109.537 74.5442 109.438 75.0909 109.703C75.2478 109.774 75.3777 109.855 75.3777 109.882C75.3777 109.976 75.5167 109.913 75.7228 109.721C75.8393 109.613 75.9558 109.524 75.9827 109.519C76.0051 109.519 76.0903 109.582 76.1709 109.662Z" fill="white"/>
<path d="M74.3919 110.465C74.3291 110.492 74.2261 110.563 74.1588 110.626C74.0558 110.725 74.0334 110.783 74.0334 110.958C74.0334 111.294 74.0334 111.294 74.5935 110.783C74.8041 110.586 74.84 110.537 74.7952 110.483C74.7324 110.407 74.5577 110.398 74.3919 110.465Z" fill="white"/>
<path d="M73.0519 112.92C72.55 113.391 72.5366 113.462 72.9623 113.462C73.2581 113.462 73.397 113.391 73.5494 113.158C73.6704 112.974 73.6524 112.517 73.5225 112.521C73.4956 112.526 73.285 112.701 73.0519 112.92Z" fill="white"/>
<path d="M85.3083 110.303C85.2142 110.334 85.1156 110.384 85.0932 110.406C85.0483 110.451 86.3658 112.252 86.442 112.252C86.5854 112.252 86.8229 111.558 86.7826 111.258C86.7288 110.877 86.4017 110.482 86.0073 110.33C85.734 110.222 85.5547 110.213 85.3083 110.303Z" fill="white"/>
<path d="M77.1344 122.663C77.0268 122.837 76.8431 123.138 76.7221 123.321C76.5966 123.505 76.4756 123.698 76.4532 123.747C76.4263 123.796 76.3726 123.89 76.3278 123.953C76.2605 124.056 75.9558 124.545 75.8124 124.778C75.781 124.823 75.7183 124.899 75.669 124.939C75.5928 125.006 75.5615 125.006 75.4674 124.957C75.3643 124.903 75.194 124.827 74.9296 124.72C74.8669 124.693 74.4232 124.504 73.9437 124.307C73.4642 124.106 73.0027 123.913 72.9265 123.877C72.7472 123.796 72.5142 123.698 72.3215 123.617C71.8106 123.402 71.5238 123.281 71.358 123.205C71.2818 123.169 71.2057 123.142 71.1922 123.142C71.1788 123.142 71.0623 123.093 70.9323 123.035C70.0764 122.636 69.6372 122.56 69.1488 122.721C68.9292 122.793 68.5214 123.102 68.5214 123.2C68.5214 123.227 68.4945 123.281 68.4631 123.317C68.3825 123.411 68.2525 123.837 68.2525 123.998C68.2525 124.383 68.5886 124.921 68.9919 125.181C69.0681 125.226 70.5872 126.001 72.3753 126.902L75.6242 128.533L76.0947 128.538C76.5473 128.542 76.5742 128.538 76.8476 128.39C77.1209 128.242 77.2554 128.116 77.5736 127.713C77.6587 127.605 77.8424 127.381 77.9769 127.216C78.2189 126.924 78.5012 126.57 78.8507 126.127C78.9986 125.934 79.4064 125.437 79.8142 124.953C80.1189 124.585 80.3519 124.262 80.3519 124.204C80.3519 124.164 80.213 124.047 80.0338 123.94C79.859 123.832 79.6663 123.711 79.5991 123.671C79.5319 123.626 79.4467 123.577 79.4109 123.559C79.375 123.541 79.2227 123.447 79.0748 123.348C78.9224 123.245 78.7611 123.138 78.7118 123.111C78.4564 122.945 77.7797 122.528 77.7035 122.488C77.6542 122.456 77.587 122.412 77.5601 122.385C77.4391 122.264 77.3271 122.335 77.1344 122.663Z" fill="white"/>
</svg>
