<svg width="162" height="247" viewBox="0 0 162 247" fill="none" xmlns="http://www.w3.org/2000/svg">
<rect width="161" height="247" fill="#AADAC2"/>
<rect x="10" y="10" width="141" height="227" rx="10" fill="#DFF1EB"/>
<path d="M51.7841 81.8999C51.6228 81.8999 51.4981 81.8486 51.4101 81.7459C51.3221 81.6432 51.2928 81.5112 51.3221 81.3499L54.3581 67.0499C54.3875 66.8886 54.4681 66.7566 54.6001 66.6539C54.7321 66.5512 54.8788 66.4999 55.0401 66.4999H57.0861C57.3061 66.4999 57.4601 66.5586 57.5481 66.6759C57.6361 66.7932 57.6948 66.8812 57.7241 66.9399L60.2101 74.3979L65.8641 66.9399C65.9081 66.8812 65.9961 66.7932 66.1281 66.6759C66.2601 66.5586 66.4361 66.4999 66.6561 66.4999H68.7021C68.8635 66.4999 68.9808 66.5512 69.0541 66.6539C69.1421 66.7566 69.1715 66.8886 69.1421 67.0499L66.1061 81.3499C66.0768 81.5112 65.9961 81.6432 65.8641 81.7459C65.7468 81.8486 65.6075 81.8999 65.4461 81.8999H63.2021C63.0555 81.8999 62.9381 81.8486 62.8501 81.7459C62.7621 81.6432 62.7328 81.5112 62.7621 81.3499L64.6321 72.6379L60.8261 77.6979C60.7235 77.8299 60.5988 77.9472 60.4521 78.0499C60.3201 78.1526 60.1588 78.2039 59.9681 78.2039H58.9561C58.7508 78.2039 58.6041 78.1526 58.5161 78.0499C58.4281 77.9472 58.3621 77.8299 58.3181 77.6979L56.5581 72.3519L54.6661 81.3499C54.6368 81.5112 54.5561 81.6432 54.4241 81.7459C54.3068 81.8486 54.1748 81.8999 54.0281 81.8999H51.7841ZM73.791 82.1199C73.0577 82.1199 72.4197 82.0026 71.877 81.7679C71.349 81.5186 70.931 81.1666 70.623 80.7119C70.315 80.2426 70.1097 79.6926 70.007 79.0619C69.919 78.4166 69.941 77.7052 70.073 76.9279C70.117 76.6492 70.161 76.3999 70.205 76.1799C70.2637 75.9452 70.3223 75.6959 70.381 75.4319C70.5717 74.6692 70.8283 73.9726 71.151 73.3419C71.4737 72.7112 71.8697 72.1686 72.339 71.7139C72.8083 71.2446 73.351 70.8852 73.967 70.6359C74.5977 70.3719 75.3017 70.2399 76.079 70.2399C76.9883 70.2399 77.6777 70.3792 78.147 70.6579C78.6163 70.9219 78.983 71.2519 79.247 71.6479L79.379 71.0099C79.4083 70.8486 79.4817 70.7166 79.599 70.6139C79.731 70.5112 79.8703 70.4599 80.017 70.4599H82.107C82.2683 70.4599 82.3857 70.5112 82.459 70.6139C82.547 70.7166 82.5763 70.8486 82.547 71.0099L80.347 81.3499C80.3177 81.5112 80.2443 81.6432 80.127 81.7459C80.0097 81.8486 79.8703 81.8999 79.709 81.8999H77.619C77.4577 81.8999 77.333 81.8486 77.245 81.7459C77.1717 81.6432 77.1497 81.5112 77.179 81.3499L77.333 80.6019C76.893 81.0419 76.409 81.4086 75.881 81.7019C75.353 81.9806 74.6563 82.1199 73.791 82.1199ZM75.045 79.4799C75.6023 79.4799 76.0717 79.3552 76.453 79.1059C76.849 78.8566 77.1643 78.5412 77.399 78.1599C77.6483 77.7786 77.8317 77.3679 77.949 76.9279C78.0223 76.6492 78.0883 76.3706 78.147 76.0919C78.2057 75.8132 78.257 75.5419 78.301 75.2779C78.3743 74.8672 78.3743 74.4859 78.301 74.1339C78.2277 73.7672 78.0517 73.4666 77.773 73.2319C77.509 72.9972 77.113 72.8799 76.585 72.8799C76.0717 72.8799 75.6317 73.0046 75.265 73.2539C74.8983 73.4886 74.5977 73.8039 74.363 74.1999C74.1283 74.5959 73.945 75.0286 73.813 75.4979C73.7543 75.7179 73.6957 75.9452 73.637 76.1799C73.5783 76.4146 73.5343 76.6419 73.505 76.8619C73.4463 77.3312 73.4317 77.7639 73.461 78.1599C73.505 78.5559 73.6517 78.8786 73.901 79.1279C74.1503 79.3626 74.5317 79.4799 75.045 79.4799ZM84.1576 81.8999C84.011 81.8999 83.8936 81.8486 83.8056 81.7459C83.7176 81.6432 83.6883 81.5112 83.7176 81.3499L85.9396 71.0099C85.969 70.8486 86.0423 70.7166 86.1596 70.6139C86.2916 70.5112 86.431 70.4599 86.5776 70.4599H88.7776C88.939 70.4599 89.0563 70.5112 89.1296 70.6139C89.2176 70.7166 89.247 70.8486 89.2176 71.0099L88.4036 74.7939H92.8696L93.7056 71.0099C93.735 70.8486 93.8083 70.7166 93.9256 70.6139C94.043 70.5112 94.1823 70.4599 94.3436 70.4599H96.5436C96.6903 70.4599 96.8076 70.5112 96.8956 70.6139C96.9836 70.7166 97.013 70.8486 96.9836 71.0099L94.7616 81.3499C94.7323 81.5112 94.6516 81.6432 94.5196 81.7459C94.4023 81.8486 94.2703 81.8999 94.1236 81.8999H91.9236C91.7623 81.8999 91.6376 81.8486 91.5496 81.7459C91.4763 81.6432 91.4543 81.5112 91.4836 81.3499L92.3196 77.3899H87.8536L86.9956 81.3499C86.9663 81.5112 86.893 81.6432 86.7756 81.7459C86.6583 81.8486 86.519 81.8999 86.3576 81.8999H84.1576ZM102.129 82.1199C101.22 82.1199 100.464 81.9292 99.8631 81.5479C99.2617 81.1519 98.8511 80.5872 98.6311 79.8539C98.4111 79.1059 98.4184 78.2039 98.6531 77.1479L99.9511 71.0099C99.9804 70.8486 100.054 70.7166 100.171 70.6139C100.303 70.5112 100.45 70.4599 100.611 70.4599H102.943C103.09 70.4599 103.2 70.5112 103.273 70.6139C103.361 70.7166 103.39 70.8486 103.361 71.0099L102.085 77.0159C101.968 77.5586 101.931 78.0132 101.975 78.3799C102.019 78.7466 102.173 79.0252 102.437 79.2159C102.701 79.3919 103.09 79.4799 103.603 79.4799C104.307 79.4799 104.923 79.2672 105.451 78.8419C105.979 78.4019 106.324 77.7932 106.485 77.0159L107.761 71.0099C107.79 70.8486 107.871 70.7166 108.003 70.6139C108.135 70.5112 108.274 70.4599 108.421 70.4599H110.753C110.914 70.4599 111.032 70.5112 111.105 70.6139C111.178 70.7166 111.2 70.8486 111.171 71.0099L108.971 81.3499C108.942 81.5112 108.868 81.6432 108.751 81.7459C108.634 81.8486 108.494 81.8999 108.333 81.8999H106.177C106.016 81.8999 105.891 81.8486 105.803 81.7459C105.73 81.6432 105.708 81.5112 105.737 81.3499L105.913 80.4919C105.59 80.8292 105.253 81.1226 104.901 81.3719C104.564 81.6212 104.175 81.8046 103.735 81.9219C103.31 82.0539 102.774 82.1199 102.129 82.1199ZM48.0434 101.9C47.8967 101.9 47.7794 101.849 47.6914 101.746C47.6034 101.643 47.574 101.511 47.6034 101.35L50.1334 89.5579H46.1294C45.9827 89.5579 45.8654 89.5066 45.7774 89.4039C45.6894 89.3012 45.66 89.1766 45.6894 89.0299L46.1074 87.0499C46.1367 86.8886 46.21 86.7566 46.3274 86.6539C46.4594 86.5512 46.606 86.4999 46.7674 86.4999H58.2954C58.4567 86.4999 58.574 86.5512 58.6474 86.6539C58.7354 86.7566 58.7647 86.8886 58.7354 87.0499L58.2954 89.0299C58.266 89.1766 58.1927 89.3012 58.0754 89.4039C57.958 89.5066 57.8187 89.5579 57.6574 89.5579H53.6754L51.1454 101.35C51.116 101.511 51.0354 101.643 50.9034 101.746C50.786 101.849 50.6467 101.9 50.4854 101.9H48.0434ZM57.883 106.102C57.7364 106.102 57.6264 106.043 57.553 105.926C57.465 105.823 57.4357 105.699 57.465 105.552L57.795 104.034C57.8244 103.887 57.8977 103.763 58.015 103.66C58.147 103.557 58.2937 103.506 58.455 103.506H59.159C59.4524 103.506 59.7017 103.447 59.907 103.33C60.1124 103.227 60.3104 103.051 60.501 102.802C60.7064 102.553 60.9484 102.208 61.227 101.768L68.025 90.8999C68.113 90.7679 68.2084 90.6652 68.311 90.5919C68.4137 90.5039 68.5604 90.4599 68.751 90.4599H70.819C70.951 90.4599 71.0464 90.5039 71.105 90.5919C71.1784 90.6652 71.2077 90.7606 71.193 90.8779C71.193 90.9806 71.149 91.0979 71.061 91.2299L64.681 101.262C64.241 101.937 63.8084 102.567 63.383 103.154C62.9724 103.741 62.5397 104.254 62.085 104.694C61.6304 105.134 61.1464 105.479 60.633 105.728C60.1197 105.977 59.5477 106.102 58.917 106.102H57.883ZM61.557 101.636L59.291 91.2299C59.247 91.0246 59.2617 90.8706 59.335 90.7679C59.379 90.6799 59.445 90.6066 59.533 90.5479C59.6357 90.4892 59.7457 90.4599 59.863 90.4599H61.865C62.041 90.4599 62.1657 90.5112 62.239 90.6139C62.3124 90.7019 62.3564 90.7972 62.371 90.8999L63.999 99.1279L61.557 101.636ZM71.1042 101.9C70.9575 101.9 70.8548 101.863 70.7962 101.79C70.7228 101.702 70.6935 101.599 70.7082 101.482C70.7228 101.423 70.7448 101.372 70.7742 101.328C70.7888 101.284 70.8182 101.24 70.8622 101.196L75.7022 95.8059L73.7002 91.1859C73.6708 91.1419 73.6488 91.0906 73.6342 91.0319C73.6342 90.9732 73.6415 90.9219 73.6562 90.8779C73.6855 90.7606 73.7515 90.6652 73.8542 90.5919C73.9568 90.5039 74.0742 90.4599 74.2062 90.4599H76.3622C76.5382 90.4599 76.6628 90.4966 76.7362 90.5699C76.8095 90.6432 76.8682 90.7239 76.9122 90.8119L78.6062 94.7939H79.7942L80.6302 91.0099C80.6595 90.8486 80.7328 90.7166 80.8502 90.6139C80.9675 90.5112 81.1068 90.4599 81.2682 90.4599H83.4242C83.5708 90.4599 83.6882 90.5112 83.7762 90.6139C83.8642 90.7166 83.8935 90.8486 83.8642 91.0099L83.0502 94.7939H84.1722L87.5162 90.8119C87.5895 90.7239 87.6775 90.6432 87.7802 90.5699C87.8828 90.4966 88.0222 90.4599 88.1982 90.4599H90.6622C90.8088 90.4599 90.9188 90.5039 90.9922 90.5919C91.0655 90.6652 91.0875 90.7606 91.0582 90.8779C91.0582 90.9806 91.0068 91.0832 90.9042 91.1859L86.6142 96.1579L89.0122 101.196C89.0415 101.24 89.0562 101.284 89.0562 101.328C89.0708 101.372 89.0708 101.423 89.0562 101.482C89.0415 101.599 88.9755 101.702 88.8582 101.79C88.7555 101.863 88.6382 101.9 88.5062 101.9H86.1742C85.9982 101.9 85.8662 101.863 85.7782 101.79C85.7048 101.702 85.6462 101.621 85.6022 101.548L83.7322 97.3899H82.5002L81.6422 101.35C81.6128 101.511 81.5322 101.643 81.4002 101.746C81.2828 101.849 81.1508 101.9 81.0042 101.9H78.8482C78.6868 101.9 78.5622 101.849 78.4742 101.746C78.4008 101.643 78.3788 101.511 78.4082 101.35L79.2662 97.3899H78.1442L74.4922 101.548C74.4482 101.621 74.3675 101.702 74.2502 101.79C74.1328 101.863 73.9788 101.9 73.7882 101.9H71.1042ZM96.6359 102.12C95.3599 102.12 94.3552 101.907 93.6219 101.482C92.9032 101.057 92.4339 100.419 92.2139 99.5679C91.9939 98.7026 91.9939 97.6319 92.2139 96.3559C92.2872 95.9306 92.3752 95.4906 92.4779 95.0359C92.5805 94.5812 92.6759 94.1412 92.7639 93.7159C93.0572 92.4839 93.4092 91.4426 93.8199 90.5919C94.2452 89.7412 94.7585 89.0226 95.3599 88.4359C95.9612 87.8492 96.6652 87.3579 97.4719 86.9619C98.2932 86.5659 99.2319 86.2286 100.288 85.9499C101.359 85.6712 102.576 85.3999 103.94 85.1359C104.087 85.1066 104.211 85.1286 104.314 85.2019C104.431 85.2752 104.483 85.3926 104.468 85.5539L104.424 87.2699C104.424 87.4312 104.373 87.5706 104.27 87.6879C104.182 87.8052 104.057 87.8786 103.896 87.9079C102.796 88.1132 101.835 88.3186 101.014 88.5239C100.193 88.7146 99.4885 88.9492 98.9019 89.2279C98.3299 89.4919 97.8459 89.8292 97.4499 90.2399C97.0685 90.6359 96.7459 91.1419 96.4819 91.7579C96.2325 92.3739 96.0199 93.1292 95.8439 94.0239L95.4259 93.5179C95.6312 93.0779 95.9392 92.6892 96.3499 92.3519C96.7752 91.9999 97.2592 91.7286 97.8019 91.5379C98.3592 91.3326 98.9459 91.2299 99.5619 91.2299C100.589 91.2299 101.425 91.4132 102.07 91.7799C102.73 92.1466 103.192 92.6819 103.456 93.3859C103.72 94.0899 103.771 94.9332 103.61 95.9159C103.581 96.1652 103.529 96.4292 103.456 96.7079C103.397 96.9719 103.339 97.2139 103.28 97.4339C103.031 98.3726 102.613 99.2012 102.026 99.9199C101.439 100.624 100.691 101.167 99.7819 101.548C98.8872 101.929 97.8385 102.12 96.6359 102.12ZM97.0979 99.8979C97.8165 99.8979 98.4032 99.6852 98.8579 99.2599C99.3272 98.8199 99.6719 98.1746 99.8919 97.3239C99.9359 97.1626 99.9872 96.9572 100.046 96.7079C100.105 96.4439 100.149 96.2092 100.178 96.0039C100.325 95.1826 100.281 94.5519 100.046 94.1119C99.8112 93.6719 99.3785 93.4519 98.7479 93.4519C97.9559 93.4519 97.3032 93.6719 96.7899 94.1119C96.2765 94.5519 95.9172 95.1826 95.7119 96.0039C95.6532 96.2092 95.5945 96.4439 95.5359 96.7079C95.4919 96.9572 95.4552 97.1626 95.4259 97.3239C95.2792 98.1746 95.3452 98.8199 95.6239 99.2599C95.9025 99.6852 96.3939 99.8979 97.0979 99.8979ZM109.47 102.12C108.737 102.12 108.099 102.003 107.556 101.768C107.028 101.519 106.61 101.167 106.302 100.712C105.994 100.243 105.789 99.6926 105.686 99.0619C105.598 98.4166 105.62 97.7052 105.752 96.9279C105.796 96.6492 105.84 96.3999 105.884 96.1799C105.943 95.9452 106.001 95.6959 106.06 95.4319C106.251 94.6692 106.507 93.9726 106.83 93.3419C107.153 92.7112 107.549 92.1686 108.018 91.7139C108.487 91.2446 109.03 90.8852 109.646 90.6359C110.277 90.3719 110.981 90.2399 111.758 90.2399C112.667 90.2399 113.357 90.3792 113.826 90.6579C114.295 90.9219 114.662 91.2519 114.926 91.6479L115.058 91.0099C115.087 90.8486 115.161 90.7166 115.278 90.6139C115.41 90.5112 115.549 90.4599 115.696 90.4599H117.786C117.947 90.4599 118.065 90.5112 118.138 90.6139C118.226 90.7166 118.255 90.8486 118.226 91.0099L116.026 101.35C115.997 101.511 115.923 101.643 115.806 101.746C115.689 101.849 115.549 101.9 115.388 101.9H113.298C113.137 101.9 113.012 101.849 112.924 101.746C112.851 101.643 112.829 101.511 112.858 101.35L113.012 100.602C112.572 101.042 112.088 101.409 111.56 101.702C111.032 101.981 110.335 102.12 109.47 102.12ZM110.724 99.4799C111.281 99.4799 111.751 99.3552 112.132 99.1059C112.528 98.8566 112.843 98.5412 113.078 98.1599C113.327 97.7786 113.511 97.3679 113.628 96.9279C113.701 96.6492 113.767 96.3706 113.826 96.0919C113.885 95.8132 113.936 95.5419 113.98 95.2779C114.053 94.8672 114.053 94.4859 113.98 94.1339C113.907 93.7672 113.731 93.4666 113.452 93.2319C113.188 92.9972 112.792 92.8799 112.264 92.8799C111.751 92.8799 111.311 93.0046 110.944 93.2539C110.577 93.4886 110.277 93.8039 110.042 94.1999C109.807 94.5959 109.624 95.0286 109.492 95.4979C109.433 95.7179 109.375 95.9452 109.316 96.1799C109.257 96.4146 109.213 96.6419 109.184 96.8619C109.125 97.3312 109.111 97.7639 109.14 98.1599C109.184 98.5559 109.331 98.8786 109.58 99.1279C109.829 99.3626 110.211 99.4799 110.724 99.4799Z" fill="black"/>
<path d="M40.7727 31.2729C40.6967 31.2729 40.6333 31.2476 40.5826 31.1969C40.532 31.1462 40.5066 31.0829 40.5066 31.0069V24.9377C40.5066 24.8701 40.532 24.811 40.5826 24.7603C40.6333 24.7096 40.6924 24.6843 40.76 24.6843H42.0017C42.1538 24.6843 42.272 24.7603 42.3565 24.9123L44.2064 28.2193L46.0437 24.9123C46.1281 24.7603 46.2464 24.6843 46.3984 24.6843H47.6528C47.7204 24.6843 47.7795 24.7096 47.8302 24.7603C47.8809 24.811 47.9062 24.8701 47.9062 24.9377V31.0069C47.9062 31.0829 47.8809 31.1462 47.8302 31.1969C47.7795 31.2476 47.7162 31.2729 47.6401 31.2729H46.3097C46.2253 31.2729 46.1577 31.2476 46.107 31.1969C46.0648 31.1462 46.0437 31.0829 46.0437 31.0069V26.6355L46.6138 26.7496L44.8146 29.9806C44.7724 30.0566 44.7217 30.1242 44.6626 30.1833C44.6119 30.2424 44.5359 30.272 44.4345 30.272H43.9657C43.8728 30.272 43.7967 30.2466 43.7376 30.196C43.6785 30.1368 43.6236 30.065 43.5729 29.9806L41.8244 26.8636L42.3565 26.7496V31.0069C42.3565 31.0829 42.3312 31.1462 42.2805 31.1969C42.2298 31.2476 42.1665 31.2729 42.0904 31.2729H40.7727Z" fill="black"/>
<path d="M25.624 38.8999C25.4646 38.8999 25.3342 38.8492 25.2328 38.7478C25.1314 38.6463 25.0807 38.5159 25.0807 38.3566V37.0526C25.0807 36.9367 25.1096 36.7845 25.1676 36.5962C25.24 36.3933 25.3922 36.1977 25.624 36.0094L28.4928 33.1623C29.5505 32.3509 30.4053 31.6627 31.0574 31.0976C31.7238 30.5325 32.2165 30.0182 32.5352 29.5545C32.854 29.0909 33.0134 28.6417 33.0134 28.2071C33.0134 27.642 32.854 27.1784 32.5352 26.8161C32.231 26.4394 31.7311 26.2511 31.0356 26.2511C30.572 26.2511 30.1808 26.3525 29.862 26.5553C29.5577 26.7437 29.3187 26.9972 29.1448 27.316C28.9709 27.6348 28.855 27.9825 28.7971 28.3592C28.7536 28.5476 28.6594 28.678 28.5145 28.7504C28.3841 28.8228 28.2465 28.8591 28.1016 28.8591H25.7979C25.653 28.8591 25.5371 28.8156 25.4501 28.7287C25.3632 28.6272 25.3197 28.5186 25.3197 28.4027C25.3342 27.7362 25.4719 27.1059 25.7327 26.5119C26.008 25.9178 26.3919 25.389 26.8845 24.9253C27.3772 24.4617 27.9712 24.0995 28.6667 23.8387C29.3621 23.5634 30.1518 23.4257 31.0356 23.4257C32.2527 23.4257 33.2742 23.6286 34.1 24.0343C34.9259 24.4255 35.5489 24.9688 35.9691 25.6643C36.3893 26.3597 36.5994 27.1639 36.5994 28.0767C36.5994 28.7721 36.4545 29.4169 36.1647 30.0109C35.8894 30.605 35.4837 31.1773 34.9476 31.7279C34.4115 32.264 33.774 32.8218 33.0351 33.4014L30.4705 35.9659H36.382C36.5414 35.9659 36.6718 36.0166 36.7732 36.118C36.8747 36.2194 36.9254 36.3498 36.9254 36.5092V38.3566C36.9254 38.5159 36.8747 38.6463 36.7732 38.7478C36.6718 38.8492 36.5414 38.8999 36.382 38.8999H25.624Z" fill="black"/>
<path d="M65.4888 34.9799C65.2008 34.9799 64.9421 34.9266 64.7128 34.8199C64.4888 34.7079 64.3101 34.5586 64.1768 34.3719C64.0435 34.1852 63.9768 33.9746 63.9768 33.7399C63.9768 33.3612 64.1315 33.0626 64.4408 32.8439C64.7501 32.6199 65.1608 32.4679 65.6728 32.3879L66.6728 32.2359V32.1239C66.6728 31.9319 66.6328 31.7852 66.5528 31.6839C66.4728 31.5826 66.3261 31.5319 66.1128 31.5319C65.9635 31.5319 65.8408 31.5612 65.7448 31.6199C65.6541 31.6786 65.5821 31.7586 65.5288 31.8599C65.4808 31.9292 65.4141 31.9639 65.3288 31.9639H64.4328C64.3741 31.9639 64.3288 31.9479 64.2968 31.9159C64.2648 31.8786 64.2515 31.8359 64.2568 31.7879C64.2568 31.6919 64.2915 31.5826 64.3608 31.4599C64.4355 31.3319 64.5475 31.2066 64.6968 31.0839C64.8461 30.9612 65.0381 30.8599 65.2728 30.7799C65.5075 30.6999 65.7901 30.6599 66.1208 30.6599C66.4675 30.6599 66.7635 30.6999 67.0088 30.7799C67.2541 30.8599 67.4515 30.9719 67.6008 31.1159C67.7555 31.2599 67.8701 31.4306 67.9448 31.6279C68.0195 31.8199 68.0568 32.0332 68.0568 32.2679V34.6999C68.0568 34.7586 68.0355 34.8066 67.9928 34.8439C67.9555 34.8812 67.9101 34.8999 67.8568 34.8999H66.9288C66.8701 34.8999 66.8221 34.8812 66.7848 34.8439C66.7475 34.8066 66.7288 34.7586 66.7288 34.6999V34.4199C66.6595 34.5212 66.5661 34.6146 66.4488 34.6999C66.3315 34.7852 66.1928 34.8519 66.0328 34.8999C65.8781 34.9532 65.6968 34.9799 65.4888 34.9799ZM65.8648 34.0679C66.0195 34.0679 66.1581 34.0359 66.2808 33.9719C66.4088 33.9026 66.5075 33.7986 66.5768 33.6599C66.6515 33.5159 66.6888 33.3372 66.6888 33.1239V33.0119L66.0088 33.1319C65.7581 33.1746 65.5741 33.2412 65.4568 33.3319C65.3448 33.4172 65.2888 33.5186 65.2888 33.6359C65.2888 33.7266 65.3155 33.8039 65.3688 33.8679C65.4221 33.9319 65.4915 33.9826 65.5768 34.0199C65.6621 34.0519 65.7581 34.0679 65.8648 34.0679ZM70.7595 34.8999C70.7009 34.8999 70.6529 34.8812 70.6155 34.8439C70.5782 34.8066 70.5595 34.7586 70.5595 34.6999V30.9399C70.5595 30.8812 70.5782 30.8332 70.6155 30.7959C70.6529 30.7586 70.7009 30.7399 70.7595 30.7399H71.6795C71.7382 30.7399 71.7862 30.7586 71.8235 30.7959C71.8609 30.8332 71.8795 30.8812 71.8795 30.9399V32.2679H72.3115L73.1835 30.8679C73.1995 30.8412 73.2262 30.8146 73.2635 30.7879C73.3009 30.7559 73.3489 30.7399 73.4075 30.7399H74.4315C74.4795 30.7399 74.5195 30.7559 74.5515 30.7879C74.5889 30.8146 74.6075 30.8519 74.6075 30.8999C74.6075 30.9159 74.6022 30.9346 74.5915 30.9559C74.5862 30.9772 74.5782 30.9959 74.5675 31.0119L73.4715 32.7559L74.7515 34.6359C74.7729 34.6679 74.7835 34.7026 74.7835 34.7399C74.7835 34.7879 74.7675 34.8279 74.7355 34.8599C74.7035 34.8866 74.6609 34.8999 74.6075 34.8999H73.4795C73.4209 34.8999 73.3729 34.8892 73.3355 34.8679C73.3035 34.8412 73.2742 34.8092 73.2475 34.7719L72.2955 33.3159H71.8795V34.6999C71.8795 34.7586 71.8609 34.8066 71.8235 34.8439C71.7862 34.8812 71.7382 34.8999 71.6795 34.8999H70.7595ZM80.4751 35.8439C80.4164 35.8439 80.3684 35.8226 80.3311 35.7799C80.2938 35.7426 80.2751 35.6946 80.2751 35.6359V34.8999H77.2111C77.1524 34.8999 77.1044 34.8812 77.0671 34.8439C77.0298 34.8066 77.0111 34.7586 77.0111 34.6999V30.9399C77.0111 30.8812 77.0298 30.8332 77.0671 30.7959C77.1044 30.7586 77.1524 30.7399 77.2111 30.7399H78.1551C78.2084 30.7399 78.2538 30.7586 78.2911 30.7959C78.3338 30.8332 78.3551 30.8812 78.3551 30.9399V33.8519H79.7311V30.9399C79.7311 30.8812 79.7498 30.8332 79.7871 30.7959C79.8298 30.7586 79.8778 30.7399 79.9311 30.7399H80.8751C80.9338 30.7399 80.9818 30.7586 81.0191 30.7959C81.0564 30.8332 81.0751 30.8812 81.0751 30.9399V33.8519H81.4191C81.4778 33.8519 81.5258 33.8706 81.5631 33.9079C81.6004 33.9452 81.6191 33.9932 81.6191 34.0519V35.6359C81.6191 35.6946 81.6004 35.7426 81.5631 35.7799C81.5258 35.8226 81.4778 35.8439 81.4191 35.8439H80.4751ZM84.0531 34.8999C83.9998 34.8999 83.9544 34.8812 83.9171 34.8439C83.8798 34.8066 83.8611 34.7612 83.8611 34.7079V30.9399C83.8611 30.8812 83.8798 30.8332 83.9171 30.7959C83.9544 30.7586 84.0024 30.7399 84.0611 30.7399H85.0051C85.0584 30.7399 85.1038 30.7586 85.1411 30.7959C85.1838 30.8332 85.2051 30.8812 85.2051 30.9399V33.8599L84.8451 33.6839L86.8211 30.8679C86.8478 30.8306 86.8798 30.8012 86.9171 30.7799C86.9544 30.7532 86.9971 30.7399 87.0451 30.7399H87.9011C87.9544 30.7399 87.9998 30.7586 88.0371 30.7959C88.0744 30.8332 88.0931 30.8786 88.0931 30.9319V34.6999C88.0931 34.7586 88.0744 34.8066 88.0371 34.8439C87.9998 34.8812 87.9518 34.8999 87.8931 34.8999H86.9491C86.8904 34.8999 86.8424 34.8812 86.8051 34.8439C86.7678 34.8066 86.7491 34.7586 86.7491 34.6999V31.8679L87.1171 31.9399L85.1251 34.7719C85.1038 34.8092 85.0744 34.8412 85.0371 34.8679C84.9998 34.8892 84.9544 34.8999 84.9011 34.8999H84.0531ZM89.8667 36.4199C89.808 36.4199 89.76 36.4012 89.7227 36.3639C89.6853 36.3266 89.6667 36.2786 89.6667 36.2199V35.5719C89.6667 35.5132 89.6853 35.4652 89.7227 35.4279C89.76 35.3906 89.808 35.3719 89.8667 35.3719H90.1627C90.296 35.3719 90.3973 35.3452 90.4667 35.2919C90.536 35.2439 90.584 35.1746 90.6107 35.0839C90.6373 34.9986 90.6507 34.8999 90.6507 34.7879V30.9399C90.6507 30.8812 90.6693 30.8332 90.7067 30.7959C90.7493 30.7586 90.7973 30.7399 90.8507 30.7399H91.8427C91.9013 30.7399 91.9493 30.7586 91.9867 30.7959C92.024 30.8332 92.0427 30.8812 92.0427 30.9399V34.8199C92.0427 35.1666 91.9733 35.4572 91.8347 35.6919C91.7013 35.9319 91.5067 36.1132 91.2507 36.2359C90.9947 36.3586 90.6827 36.4199 90.3147 36.4199H89.8667ZM90.8427 30.1399C90.7893 30.1399 90.7413 30.1212 90.6987 30.0839C90.6613 30.0466 90.6427 29.9986 90.6427 29.9399V29.2279C90.6427 29.1692 90.6613 29.1212 90.6987 29.0839C90.7413 29.0412 90.7893 29.0199 90.8427 29.0199H91.8507C91.904 29.0199 91.9493 29.0412 91.9867 29.0839C92.0293 29.1212 92.0507 29.1692 92.0507 29.2279V29.9399C92.0507 29.9986 92.0293 30.0466 91.9867 30.0839C91.9493 30.1212 91.904 30.1399 91.8507 30.1399H90.8427ZM95.8325 34.9799C95.5445 34.9799 95.2859 34.9266 95.0565 34.8199C94.8325 34.7079 94.6539 34.5586 94.5205 34.3719C94.3872 34.1852 94.3205 33.9746 94.3205 33.7399C94.3205 33.3612 94.4752 33.0626 94.7845 32.8439C95.0939 32.6199 95.5045 32.4679 96.0165 32.3879L97.0165 32.2359V32.1239C97.0165 31.9319 96.9765 31.7852 96.8965 31.6839C96.8165 31.5826 96.6699 31.5319 96.4565 31.5319C96.3072 31.5319 96.1845 31.5612 96.0885 31.6199C95.9979 31.6786 95.9259 31.7586 95.8725 31.8599C95.8245 31.9292 95.7579 31.9639 95.6725 31.9639H94.7765C94.7179 31.9639 94.6725 31.9479 94.6405 31.9159C94.6085 31.8786 94.5952 31.8359 94.6005 31.7879C94.6005 31.6919 94.6352 31.5826 94.7045 31.4599C94.7792 31.3319 94.8912 31.2066 95.0405 31.0839C95.1899 30.9612 95.3819 30.8599 95.6165 30.7799C95.8512 30.6999 96.1339 30.6599 96.4645 30.6599C96.8112 30.6599 97.1072 30.6999 97.3525 30.7799C97.5979 30.8599 97.7952 30.9719 97.9445 31.1159C98.0992 31.2599 98.2139 31.4306 98.2885 31.6279C98.3632 31.8199 98.4005 32.0332 98.4005 32.2679V34.6999C98.4005 34.7586 98.3792 34.8066 98.3365 34.8439C98.2992 34.8812 98.2539 34.8999 98.2005 34.8999H97.2725C97.2139 34.8999 97.1659 34.8812 97.1285 34.8439C97.0912 34.8066 97.0725 34.7586 97.0725 34.6999V34.4199C97.0032 34.5212 96.9099 34.6146 96.7925 34.6999C96.6752 34.7852 96.5365 34.8519 96.3765 34.8999C96.2219 34.9532 96.0405 34.9799 95.8325 34.9799ZM96.2085 34.0679C96.3632 34.0679 96.5019 34.0359 96.6245 33.9719C96.7525 33.9026 96.8512 33.7986 96.9205 33.6599C96.9952 33.5159 97.0325 33.3372 97.0325 33.1239V33.0119L96.3525 33.1319C96.1019 33.1746 95.9179 33.2412 95.8005 33.3319C95.6885 33.4172 95.6325 33.5186 95.6325 33.6359C95.6325 33.7266 95.6592 33.8039 95.7125 33.8679C95.7659 33.9319 95.8352 33.9826 95.9205 34.0199C96.0059 34.0519 96.1019 34.0679 96.2085 34.0679Z" fill="black"/>
<path d="M145.1 237H16.5C12.9 237 10 234.1 10 230.5V167.9C10 164.3 12.9 161.4 16.5 161.4H145.1C148.7 161.4 151.6 164.3 151.6 167.9V230.5C151.7 234.1 148.7 237 145.1 237Z" fill="white"/>
<path d="M33.2176 195C33.1296 195 33.0576 194.972 33.0016 194.916C32.9456 194.86 32.9176 194.788 32.9176 194.7V188.268H30.7336C30.6536 188.268 30.5856 188.24 30.5296 188.184C30.4736 188.128 30.4456 188.06 30.4456 187.98V186.9C30.4456 186.812 30.4736 186.74 30.5296 186.684C30.5856 186.628 30.6536 186.6 30.7336 186.6H37.0216C37.1096 186.6 37.1816 186.628 37.2376 186.684C37.2936 186.74 37.3216 186.812 37.3216 186.9V187.98C37.3216 188.06 37.2936 188.128 37.2376 188.184C37.1816 188.24 37.1096 188.268 37.0216 188.268H34.8496V194.7C34.8496 194.788 34.8216 194.86 34.7656 194.916C34.7096 194.972 34.6376 195 34.5496 195H33.2176ZM38.8599 197.292C38.7719 197.292 38.6999 197.26 38.6439 197.196C38.5879 197.14 38.5599 197.072 38.5599 196.992V196.164C38.5599 196.084 38.5879 196.016 38.6439 195.96C38.6999 195.904 38.7719 195.876 38.8599 195.876H39.2559C39.4079 195.876 39.5319 195.844 39.6279 195.78C39.7319 195.724 39.8239 195.628 39.9039 195.492C39.9839 195.356 40.0759 195.168 40.1799 194.928L42.6279 189C42.6519 188.936 42.6879 188.88 42.7359 188.832C42.7919 188.784 42.8679 188.76 42.9639 188.76H44.0679C44.1319 188.76 44.1879 188.788 44.2359 188.844C44.2919 188.892 44.3199 188.948 44.3199 189.012C44.3199 189.028 44.3159 189.052 44.3079 189.084C44.3079 189.108 44.2999 189.14 44.2839 189.18L42.0039 194.652C41.8519 195.02 41.6919 195.364 41.5239 195.684C41.3639 196.004 41.1879 196.284 40.9959 196.524C40.8039 196.764 40.5759 196.952 40.3119 197.088C40.0559 197.224 39.7599 197.292 39.4239 197.292H38.8599ZM40.3359 194.856L37.8999 189.18C37.8679 189.116 37.8519 189.064 37.8519 189.024C37.8599 188.952 37.8879 188.892 37.9359 188.844C37.9919 188.788 38.0559 188.76 38.1279 188.76H39.2799C39.3759 188.76 39.4479 188.788 39.4959 188.844C39.5439 188.892 39.5799 188.944 39.6039 189L41.4039 193.488L40.3359 194.856ZM45.0525 195C44.9805 195 44.9205 194.98 44.8725 194.94C44.8245 194.892 44.8005 194.836 44.8005 194.772C44.8005 194.724 44.8165 194.672 44.8485 194.616L46.8165 191.772L45.1125 189.156C45.1045 189.132 45.0925 189.104 45.0765 189.072C45.0685 189.04 45.0645 189.012 45.0645 188.988C45.0645 188.924 45.0885 188.872 45.1365 188.832C45.1845 188.784 45.2445 188.76 45.3165 188.76H46.6245C46.7125 188.76 46.7805 188.78 46.8285 188.82C46.8845 188.86 46.9245 188.904 46.9485 188.952L48.3405 191.124H48.9885V189.06C48.9885 188.972 49.0165 188.9 49.0725 188.844C49.1285 188.788 49.2005 188.76 49.2885 188.76H50.4645C50.5445 188.76 50.6125 188.788 50.6685 188.844C50.7245 188.9 50.7525 188.972 50.7525 189.06V191.124H51.3765L52.7805 188.952C52.8125 188.904 52.8525 188.86 52.9005 188.82C52.9565 188.78 53.0285 188.76 53.1165 188.76H54.4125C54.4845 188.76 54.5445 188.784 54.5925 188.832C54.6485 188.872 54.6765 188.924 54.6765 188.988C54.6765 189.012 54.6685 189.04 54.6525 189.072C54.6445 189.104 54.6325 189.132 54.6165 189.156L52.9245 191.772L54.8805 194.616C54.9125 194.664 54.9285 194.716 54.9285 194.772C54.9285 194.836 54.9045 194.892 54.8565 194.94C54.8085 194.98 54.7485 195 54.6765 195H53.2365C53.1325 195 53.0525 194.98 52.9965 194.94C52.9485 194.892 52.9125 194.848 52.8885 194.808L51.3765 192.54H50.7525V194.7C50.7525 194.788 50.7245 194.86 50.6685 194.916C50.6125 194.972 50.5445 195 50.4645 195H49.2885C49.2005 195 49.1285 194.972 49.0725 194.916C49.0165 194.86 48.9885 194.788 48.9885 194.7V192.54H48.3645L46.8405 194.808C46.8245 194.848 46.7885 194.892 46.7325 194.94C46.6765 194.98 46.6005 195 46.5045 195H45.0525ZM56.198 195C56.126 195 56.062 194.972 56.006 194.916C55.95 194.86 55.922 194.792 55.922 194.712V189.06C55.922 188.972 55.95 188.9 56.006 188.844C56.062 188.788 56.13 188.76 56.21 188.76H57.41C57.498 188.76 57.57 188.788 57.626 188.844C57.682 188.9 57.71 188.972 57.71 189.06V193.62L57.23 193.344L60.362 188.952C60.402 188.896 60.446 188.852 60.494 188.82C60.55 188.78 60.618 188.76 60.698 188.76H61.778C61.858 188.76 61.926 188.788 61.982 188.844C62.038 188.9 62.066 188.964 62.066 189.036V194.7C62.066 194.788 62.038 194.86 61.982 194.916C61.926 194.972 61.854 195 61.766 195H60.566C60.486 195 60.418 194.972 60.362 194.916C60.306 194.86 60.278 194.788 60.278 194.7V190.32L60.77 190.404L57.614 194.808C57.582 194.864 57.538 194.912 57.482 194.952C57.426 194.984 57.362 195 57.29 195H56.198ZM68.913 195.12C67.993 195.12 67.261 194.864 66.717 194.352C66.181 193.84 65.897 193.096 65.865 192.12C65.865 192.056 65.865 191.972 65.865 191.868C65.865 191.756 65.865 191.668 65.865 191.604C65.897 190.988 66.037 190.46 66.285 190.02C66.533 189.572 66.881 189.232 67.329 189C67.777 188.76 68.301 188.64 68.901 188.64C69.573 188.64 70.133 188.78 70.581 189.06C71.037 189.332 71.377 189.708 71.601 190.188C71.833 190.66 71.949 191.204 71.949 191.82V192.096C71.949 192.176 71.917 192.244 71.853 192.3C71.797 192.356 71.729 192.384 71.649 192.384H67.725C67.725 192.392 67.725 192.408 67.725 192.432C67.725 192.448 67.725 192.464 67.725 192.48C67.733 192.736 67.781 192.972 67.869 193.188C67.965 193.396 68.097 193.564 68.265 193.692C68.441 193.82 68.649 193.884 68.889 193.884C69.089 193.884 69.253 193.856 69.381 193.8C69.509 193.744 69.613 193.676 69.693 193.596C69.781 193.516 69.845 193.448 69.885 193.392C69.957 193.312 70.013 193.264 70.053 193.248C70.101 193.224 70.173 193.212 70.269 193.212H71.517C71.597 193.212 71.661 193.236 71.709 193.284C71.765 193.324 71.789 193.384 71.781 193.464C71.773 193.592 71.705 193.752 71.577 193.944C71.457 194.128 71.277 194.312 71.037 194.496C70.797 194.672 70.497 194.82 70.137 194.94C69.785 195.06 69.377 195.12 68.913 195.12ZM67.725 191.292H70.077V191.268C70.077 190.98 70.029 190.732 69.933 190.524C69.845 190.308 69.713 190.14 69.537 190.02C69.361 189.9 69.149 189.84 68.901 189.84C68.653 189.84 68.441 189.9 68.265 190.02C68.089 190.14 67.953 190.308 67.857 190.524C67.769 190.732 67.725 190.98 67.725 191.268V191.292ZM72.9566 196.32C72.8766 196.32 72.8086 196.292 72.7526 196.236C72.6966 196.18 72.6686 196.108 72.6686 196.02V193.884C72.6686 193.796 72.6966 193.724 72.7526 193.668C72.8086 193.612 72.8766 193.584 72.9566 193.584H73.0646C73.2726 193.584 73.4366 193.476 73.5566 193.26C73.6846 193.044 73.7766 192.724 73.8326 192.3C73.8886 191.876 73.9166 191.344 73.9166 190.704V189.06C73.9166 188.972 73.9446 188.9 74.0006 188.844C74.0566 188.788 74.1246 188.76 74.2046 188.76H78.6926C78.7806 188.76 78.8526 188.788 78.9086 188.844C78.9646 188.9 78.9926 188.972 78.9926 189.06V193.572H79.5206C79.6006 193.572 79.6686 193.6 79.7246 193.656C79.7806 193.712 79.8086 193.784 79.8086 193.872V196.02C79.8086 196.108 79.7806 196.18 79.7246 196.236C79.6686 196.292 79.6006 196.32 79.5206 196.32H78.3206C78.2326 196.32 78.1606 196.292 78.1046 196.236C78.0486 196.18 78.0206 196.108 78.0206 196.02V195H74.4566V196.02C74.4566 196.108 74.4286 196.18 74.3726 196.236C74.3166 196.292 74.2446 196.32 74.1566 196.32H72.9566ZM75.1286 193.584L77.2046 193.572V190.176H75.6206V190.908C75.6206 191.564 75.5766 192.112 75.4886 192.552C75.4086 192.992 75.2886 193.336 75.1286 193.584ZM83.6318 195.12C82.7118 195.12 81.9798 194.864 81.4358 194.352C80.8998 193.84 80.6158 193.096 80.5838 192.12C80.5838 192.056 80.5838 191.972 80.5838 191.868C80.5838 191.756 80.5838 191.668 80.5838 191.604C80.6158 190.988 80.7558 190.46 81.0038 190.02C81.2518 189.572 81.5998 189.232 82.0478 189C82.4958 188.76 83.0198 188.64 83.6198 188.64C84.2918 188.64 84.8518 188.78 85.2998 189.06C85.7558 189.332 86.0958 189.708 86.3198 190.188C86.5518 190.66 86.6678 191.204 86.6678 191.82V192.096C86.6678 192.176 86.6358 192.244 86.5718 192.3C86.5158 192.356 86.4478 192.384 86.3678 192.384H82.4438C82.4438 192.392 82.4438 192.408 82.4438 192.432C82.4438 192.448 82.4438 192.464 82.4438 192.48C82.4518 192.736 82.4998 192.972 82.5878 193.188C82.6838 193.396 82.8158 193.564 82.9838 193.692C83.1598 193.82 83.3678 193.884 83.6078 193.884C83.8078 193.884 83.9718 193.856 84.0998 193.8C84.2278 193.744 84.3318 193.676 84.4118 193.596C84.4998 193.516 84.5638 193.448 84.6038 193.392C84.6758 193.312 84.7318 193.264 84.7718 193.248C84.8198 193.224 84.8918 193.212 84.9878 193.212H86.2358C86.3158 193.212 86.3798 193.236 86.4278 193.284C86.4838 193.324 86.5078 193.384 86.4998 193.464C86.4918 193.592 86.4238 193.752 86.2958 193.944C86.1758 194.128 85.9958 194.312 85.7558 194.496C85.5158 194.672 85.2158 194.82 84.8558 194.94C84.5038 195.06 84.0958 195.12 83.6318 195.12ZM82.4438 191.292H84.7958V191.268C84.7958 190.98 84.7478 190.732 84.6518 190.524C84.5638 190.308 84.4318 190.14 84.2558 190.02C84.0798 189.9 83.8678 189.84 83.6198 189.84C83.3718 189.84 83.1598 189.9 82.9838 190.02C82.8078 190.14 82.6718 190.308 82.5758 190.524C82.4878 190.732 82.4438 190.98 82.4438 191.268V191.292ZM88.1553 195C88.0753 195 88.0073 194.972 87.9513 194.916C87.8953 194.86 87.8673 194.788 87.8673 194.7V189.06C87.8673 188.972 87.8953 188.9 87.9513 188.844C88.0073 188.788 88.0753 188.76 88.1553 188.76H89.3553C89.4433 188.76 89.5153 188.788 89.5713 188.844C89.6273 188.9 89.6553 188.972 89.6553 189.06V191.124H92.0913V189.06C92.0913 188.972 92.1193 188.9 92.1753 188.844C92.2313 188.788 92.3033 188.76 92.3913 188.76H93.5913C93.6713 188.76 93.7393 188.788 93.7953 188.844C93.8513 188.9 93.8793 188.972 93.8793 189.06V194.7C93.8793 194.788 93.8513 194.86 93.7953 194.916C93.7393 194.972 93.6713 195 93.5913 195H92.3913C92.3033 195 92.2313 194.972 92.1753 194.916C92.1193 194.86 92.0913 194.788 92.0913 194.7V192.54H89.6553V194.7C89.6553 194.788 89.6273 194.86 89.5713 194.916C89.5153 194.972 89.4433 195 89.3553 195H88.1553ZM98.3504 195C98.2784 195 98.2144 194.972 98.1584 194.916C98.1024 194.86 98.0744 194.792 98.0744 194.712V189.06C98.0744 188.972 98.1024 188.9 98.1584 188.844C98.2144 188.788 98.2824 188.76 98.3624 188.76H99.5624C99.6504 188.76 99.7224 188.788 99.7784 188.844C99.8344 188.9 99.8624 188.972 99.8624 189.06V193.62L99.3824 193.344L102.514 188.952C102.554 188.896 102.598 188.852 102.646 188.82C102.702 188.78 102.77 188.76 102.85 188.76H103.93C104.01 188.76 104.078 188.788 104.134 188.844C104.19 188.9 104.218 188.964 104.218 189.036V194.7C104.218 194.788 104.19 194.86 104.134 194.916C104.078 194.972 104.006 195 103.918 195H102.718C102.638 195 102.57 194.972 102.514 194.916C102.458 194.86 102.43 194.788 102.43 194.7V190.32L102.922 190.404L99.7664 194.808C99.7344 194.864 99.6904 194.912 99.6344 194.952C99.5784 194.984 99.5144 195 99.4424 195H98.3504ZM105.921 195C105.841 195 105.773 194.972 105.717 194.916C105.661 194.86 105.633 194.788 105.633 194.7V189.06C105.633 188.972 105.661 188.9 105.717 188.844C105.773 188.788 105.841 188.76 105.921 188.76H109.821C109.909 188.76 109.981 188.788 110.037 188.844C110.093 188.9 110.121 188.972 110.121 189.06V189.876C110.121 189.964 110.093 190.036 110.037 190.092C109.981 190.148 109.909 190.176 109.821 190.176H107.421V194.7C107.421 194.788 107.393 194.86 107.337 194.916C107.281 194.972 107.209 195 107.121 195H105.921ZM111.359 197.28C111.271 197.28 111.199 197.252 111.143 197.196C111.087 197.14 111.059 197.068 111.059 196.98V189.06C111.059 188.972 111.087 188.9 111.143 188.844C111.199 188.788 111.271 188.76 111.359 188.76H112.499C112.587 188.76 112.659 188.788 112.715 188.844C112.771 188.9 112.799 188.972 112.799 189.06V189.516C112.991 189.26 113.239 189.052 113.543 188.892C113.847 188.724 114.227 188.64 114.683 188.64C115.099 188.64 115.459 188.708 115.763 188.844C116.075 188.972 116.335 189.16 116.543 189.408C116.759 189.648 116.923 189.94 117.035 190.284C117.155 190.628 117.223 191.016 117.239 191.448C117.247 191.6 117.251 191.744 117.251 191.88C117.251 192.016 117.247 192.164 117.239 192.324C117.231 192.732 117.167 193.108 117.047 193.452C116.935 193.796 116.771 194.092 116.555 194.34C116.339 194.588 116.075 194.78 115.763 194.916C115.459 195.052 115.099 195.12 114.683 195.12C114.275 195.12 113.919 195.048 113.615 194.904C113.319 194.752 113.075 194.548 112.883 194.292V196.98C112.883 197.068 112.855 197.14 112.799 197.196C112.743 197.252 112.675 197.28 112.595 197.28H111.359ZM114.143 193.68C114.447 193.68 114.687 193.616 114.863 193.488C115.039 193.352 115.163 193.176 115.235 192.96C115.315 192.744 115.363 192.508 115.379 192.252C115.395 192.004 115.395 191.756 115.379 191.508C115.363 191.252 115.315 191.016 115.235 190.8C115.163 190.584 115.039 190.412 114.863 190.284C114.687 190.148 114.447 190.08 114.143 190.08C113.847 190.08 113.607 190.148 113.423 190.284C113.239 190.42 113.107 190.592 113.027 190.8C112.947 191.008 112.899 191.232 112.883 191.472C112.875 191.616 112.871 191.764 112.871 191.916C112.871 192.068 112.875 192.22 112.883 192.372C112.891 192.596 112.939 192.808 113.027 193.008C113.123 193.2 113.259 193.36 113.435 193.488C113.619 193.616 113.855 193.68 114.143 193.68ZM120.36 195.12C119.936 195.12 119.556 195.04 119.22 194.88C118.884 194.712 118.616 194.488 118.416 194.208C118.216 193.928 118.116 193.616 118.116 193.272C118.116 192.704 118.344 192.256 118.8 191.928C119.264 191.6 119.872 191.376 120.624 191.256L122.196 191.028V190.812C122.196 190.5 122.124 190.26 121.98 190.092C121.836 189.924 121.584 189.84 121.224 189.84C120.96 189.84 120.748 189.892 120.588 189.996C120.428 190.1 120.304 190.236 120.216 190.404C120.152 190.508 120.06 190.56 119.94 190.56H118.8C118.712 190.56 118.644 190.536 118.596 190.488C118.548 190.432 118.528 190.368 118.536 190.296C118.536 190.16 118.588 190 118.692 189.816C118.796 189.632 118.956 189.452 119.172 189.276C119.388 189.092 119.664 188.94 120 188.82C120.336 188.7 120.748 188.64 121.236 188.64C121.74 188.64 122.172 188.7 122.532 188.82C122.892 188.94 123.18 189.108 123.396 189.324C123.612 189.54 123.772 189.792 123.876 190.08C123.98 190.36 124.032 190.664 124.032 190.992V194.7C124.032 194.788 124.004 194.86 123.948 194.916C123.892 194.972 123.82 195 123.732 195H122.556C122.476 195 122.408 194.972 122.352 194.916C122.296 194.86 122.268 194.788 122.268 194.7V194.256C122.164 194.408 122.024 194.552 121.848 194.688C121.672 194.816 121.46 194.92 121.212 195C120.972 195.08 120.688 195.12 120.36 195.12ZM120.84 193.872C121.104 193.872 121.34 193.816 121.548 193.704C121.756 193.592 121.92 193.42 122.04 193.188C122.16 192.956 122.22 192.664 122.22 192.312V192.108L121.104 192.288C120.672 192.36 120.356 192.468 120.156 192.612C119.956 192.756 119.856 192.932 119.856 193.14C119.856 193.292 119.9 193.424 119.988 193.536C120.084 193.648 120.208 193.732 120.36 193.788C120.512 193.844 120.672 193.872 120.84 193.872ZM129.433 195C129.353 195 129.285 194.972 129.229 194.916C129.173 194.86 129.145 194.788 129.145 194.7V192.768C128.953 192.928 128.713 193.048 128.425 193.128C128.137 193.208 127.813 193.248 127.453 193.248C126.717 193.248 126.149 193.068 125.749 192.708C125.349 192.34 125.149 191.752 125.149 190.944V189.06C125.149 188.972 125.177 188.9 125.233 188.844C125.289 188.788 125.357 188.76 125.437 188.76H126.685C126.765 188.76 126.833 188.788 126.889 188.844C126.945 188.9 126.973 188.972 126.973 189.06V190.848C126.973 191.152 127.049 191.368 127.201 191.496C127.361 191.624 127.617 191.688 127.969 191.688C128.313 191.688 128.593 191.64 128.809 191.544C129.033 191.44 129.145 191.276 129.145 191.052V189.06C129.145 188.972 129.173 188.9 129.229 188.844C129.285 188.788 129.353 188.76 129.433 188.76H130.729C130.817 188.76 130.889 188.788 130.945 188.844C131.001 188.9 131.029 188.972 131.029 189.06V194.7C131.029 194.788 131.001 194.86 130.945 194.916C130.889 194.972 130.817 195 130.729 195H129.433ZM43.6062 210C43.5342 210 43.4702 209.972 43.4142 209.916C43.3582 209.86 43.3302 209.792 43.3302 209.712V204.06C43.3302 203.972 43.3582 203.9 43.4142 203.844C43.4702 203.788 43.5382 203.76 43.6182 203.76H44.8182C44.9062 203.76 44.9782 203.788 45.0342 203.844C45.0902 203.9 45.1182 203.972 45.1182 204.06V208.62L44.6382 208.344L47.7702 203.952C47.8102 203.896 47.8542 203.852 47.9022 203.82C47.9582 203.78 48.0262 203.76 48.1062 203.76H49.1862C49.2662 203.76 49.3342 203.788 49.3902 203.844C49.4462 203.9 49.4742 203.964 49.4742 204.036V209.7C49.4742 209.788 49.4462 209.86 49.3902 209.916C49.3342 209.972 49.2622 210 49.1742 210H47.9742C47.8942 210 47.8262 209.972 47.7702 209.916C47.7142 209.86 47.6862 209.788 47.6862 209.7V205.32L48.1782 205.404L45.0222 209.808C44.9902 209.864 44.9462 209.912 44.8902 209.952C44.8342 209.984 44.7702 210 44.6982 210H43.6062ZM56.0333 210.12C55.4973 210.12 55.0533 210.06 54.7013 209.94C54.3493 209.82 54.0653 209.668 53.8493 209.484C53.6413 209.292 53.4893 209.092 53.3933 208.884C53.3053 208.676 53.2533 208.488 53.2373 208.32C53.2293 208.256 53.2493 208.204 53.2973 208.164C53.3453 208.116 53.3973 208.092 53.4533 208.092H54.6293C54.7173 208.092 54.7813 208.112 54.8213 208.152C54.8693 208.184 54.9093 208.232 54.9413 208.296C55.0213 208.496 55.1533 208.64 55.3373 208.728C55.5293 208.808 55.7773 208.848 56.0813 208.848C56.2813 208.848 56.4613 208.82 56.6213 208.764C56.7813 208.708 56.9013 208.628 56.9813 208.524C57.0693 208.412 57.1133 208.272 57.1133 208.104C57.1133 207.872 57.0453 207.696 56.9093 207.576C56.7733 207.448 56.5453 207.384 56.2253 207.384H55.5653C55.4853 207.384 55.4213 207.36 55.3733 207.312C55.3253 207.256 55.3013 207.192 55.3013 207.12V206.532C55.3013 206.46 55.3253 206.4 55.3733 206.352C55.4213 206.296 55.4853 206.268 55.5653 206.268H56.1893C56.4533 206.268 56.6493 206.22 56.7773 206.124C56.9053 206.02 56.9693 205.864 56.9693 205.656C56.9693 205.528 56.9373 205.408 56.8733 205.296C56.8173 205.184 56.7213 205.096 56.5853 205.032C56.4493 204.96 56.2613 204.924 56.0213 204.924C55.6853 204.924 55.4453 204.976 55.3013 205.08C55.1573 205.184 55.0493 205.34 54.9773 205.548C54.9453 205.612 54.9053 205.66 54.8573 205.692C54.8173 205.724 54.7533 205.74 54.6653 205.74H53.5253C53.4613 205.74 53.4053 205.72 53.3573 205.68C53.3173 205.64 53.2973 205.588 53.2973 205.524C53.3133 205.308 53.3733 205.092 53.4773 204.876C53.5813 204.652 53.7373 204.448 53.9453 204.264C54.1613 204.072 54.4373 203.92 54.7733 203.808C55.1173 203.696 55.5373 203.64 56.0333 203.64C56.6893 203.64 57.2133 203.724 57.6053 203.892C57.9973 204.06 58.2773 204.28 58.4453 204.552C58.6213 204.816 58.7093 205.104 58.7093 205.416C58.7093 205.696 58.6533 205.948 58.5413 206.172C58.4293 206.388 58.2293 206.568 57.9413 206.712C58.3013 206.848 58.5493 207.056 58.6853 207.336C58.8213 207.616 58.8893 207.916 58.8893 208.236C58.8973 208.628 58.7813 208.964 58.5413 209.244C58.3093 209.524 57.9773 209.74 57.5453 209.892C57.1213 210.044 56.6173 210.12 56.0333 210.12ZM62.872 210.12C61.952 210.12 61.22 209.864 60.676 209.352C60.14 208.84 59.856 208.096 59.824 207.12C59.824 207.056 59.824 206.972 59.824 206.868C59.824 206.756 59.824 206.668 59.824 206.604C59.856 205.988 59.996 205.46 60.244 205.02C60.492 204.572 60.84 204.232 61.288 204C61.736 203.76 62.26 203.64 62.86 203.64C63.532 203.64 64.092 203.78 64.54 204.06C64.996 204.332 65.336 204.708 65.56 205.188C65.792 205.66 65.908 206.204 65.908 206.82V207.096C65.908 207.176 65.876 207.244 65.812 207.3C65.756 207.356 65.688 207.384 65.608 207.384H61.684C61.684 207.392 61.684 207.408 61.684 207.432C61.684 207.448 61.684 207.464 61.684 207.48C61.692 207.736 61.74 207.972 61.828 208.188C61.924 208.396 62.056 208.564 62.224 208.692C62.4 208.82 62.608 208.884 62.848 208.884C63.048 208.884 63.212 208.856 63.34 208.8C63.468 208.744 63.572 208.676 63.652 208.596C63.74 208.516 63.804 208.448 63.844 208.392C63.916 208.312 63.972 208.264 64.012 208.248C64.06 208.224 64.132 208.212 64.228 208.212H65.476C65.556 208.212 65.62 208.236 65.668 208.284C65.724 208.324 65.748 208.384 65.74 208.464C65.732 208.592 65.664 208.752 65.536 208.944C65.416 209.128 65.236 209.312 64.996 209.496C64.756 209.672 64.456 209.82 64.096 209.94C63.744 210.06 63.336 210.12 62.872 210.12ZM61.684 206.292H64.036V206.268C64.036 205.98 63.988 205.732 63.892 205.524C63.804 205.308 63.672 205.14 63.496 205.02C63.32 204.9 63.108 204.84 62.86 204.84C62.612 204.84 62.4 204.9 62.224 205.02C62.048 205.14 61.912 205.308 61.816 205.524C61.728 205.732 61.684 205.98 61.684 206.268V206.292ZM67.3596 210C67.2876 210 67.2276 209.976 67.1796 209.928C67.1316 209.88 67.1076 209.82 67.1076 209.748V204C67.1076 203.936 67.1316 203.88 67.1796 203.832C67.2276 203.784 67.2836 203.76 67.3476 203.76H68.5236C68.6676 203.76 68.7796 203.832 68.8596 203.976L70.6116 207.108L72.3516 203.976C72.4316 203.832 72.5436 203.76 72.6876 203.76H73.8756C73.9396 203.76 73.9956 203.784 74.0436 203.832C74.0916 203.88 74.1156 203.936 74.1156 204V209.748C74.1156 209.82 74.0916 209.88 74.0436 209.928C73.9956 209.976 73.9356 210 73.8636 210H72.6036C72.5236 210 72.4596 209.976 72.4116 209.928C72.3716 209.88 72.3516 209.82 72.3516 209.748V205.608L72.8916 205.716L71.1876 208.776C71.1476 208.848 71.0996 208.912 71.0436 208.968C70.9956 209.024 70.9236 209.052 70.8276 209.052H70.3836C70.2956 209.052 70.2236 209.028 70.1676 208.98C70.1116 208.924 70.0596 208.856 70.0116 208.776L68.3556 205.824L68.8596 205.716V209.748C68.8596 209.82 68.8356 209.88 68.7876 209.928C68.7396 209.976 68.6796 210 68.6076 210H67.3596ZM75.9383 210C75.8663 210 75.8023 209.972 75.7463 209.916C75.6903 209.86 75.6623 209.792 75.6623 209.712V204.06C75.6623 203.972 75.6903 203.9 75.7463 203.844C75.8023 203.788 75.8703 203.76 75.9503 203.76H77.1503C77.2383 203.76 77.3103 203.788 77.3663 203.844C77.4223 203.9 77.4503 203.972 77.4503 204.06V208.62L76.9703 208.344L80.1023 203.952C80.1423 203.896 80.1863 203.852 80.2343 203.82C80.2903 203.78 80.3583 203.76 80.4383 203.76H81.5182C81.5983 203.76 81.6663 203.788 81.7223 203.844C81.7783 203.9 81.8063 203.964 81.8063 204.036V209.7C81.8063 209.788 81.7783 209.86 81.7223 209.916C81.6663 209.972 81.5943 210 81.5063 210H80.3063C80.2263 210 80.1583 209.972 80.1023 209.916C80.0463 209.86 80.0183 209.788 80.0183 209.7V205.32L80.5103 205.404L77.3543 209.808C77.3223 209.864 77.2783 209.912 77.2223 209.952C77.1663 209.984 77.1023 210 77.0303 210H75.9383ZM86.1213 210C86.0493 210 85.9893 209.976 85.9413 209.928C85.8933 209.88 85.8693 209.82 85.8693 209.748V204C85.8693 203.936 85.8933 203.88 85.9413 203.832C85.9893 203.784 86.0453 203.76 86.1093 203.76H87.2853C87.4293 203.76 87.5413 203.832 87.6213 203.976L89.3733 207.108L91.1133 203.976C91.1933 203.832 91.3053 203.76 91.4493 203.76H92.6373C92.7013 203.76 92.7573 203.784 92.8053 203.832C92.8533 203.88 92.8773 203.936 92.8773 204V209.748C92.8773 209.82 92.8533 209.88 92.8053 209.928C92.7573 209.976 92.6973 210 92.6253 210H91.3653C91.2853 210 91.2213 209.976 91.1733 209.928C91.1333 209.88 91.1133 209.82 91.1133 209.748V205.608L91.6533 205.716L89.9493 208.776C89.9093 208.848 89.8613 208.912 89.8053 208.968C89.7573 209.024 89.6853 209.052 89.5893 209.052H89.1453C89.0573 209.052 88.9853 209.028 88.9293 208.98C88.8733 208.924 88.8213 208.856 88.7733 208.776L87.1173 205.824L87.6213 205.716V209.748C87.6213 209.82 87.5973 209.88 87.5493 209.928C87.5013 209.976 87.4413 210 87.3693 210H86.1213ZM94.94 212.292C94.852 212.292 94.78 212.26 94.724 212.196C94.668 212.14 94.64 212.072 94.64 211.992V211.164C94.64 211.084 94.668 211.016 94.724 210.96C94.78 210.904 94.852 210.876 94.94 210.876H95.336C95.488 210.876 95.612 210.844 95.708 210.78C95.812 210.724 95.904 210.628 95.984 210.492C96.064 210.356 96.156 210.168 96.26 209.928L98.708 204C98.732 203.936 98.768 203.88 98.816 203.832C98.872 203.784 98.948 203.76 99.044 203.76H100.148C100.212 203.76 100.268 203.788 100.316 203.844C100.372 203.892 100.4 203.948 100.4 204.012C100.4 204.028 100.396 204.052 100.388 204.084C100.388 204.108 100.38 204.14 100.364 204.18L98.084 209.652C97.932 210.02 97.772 210.364 97.604 210.684C97.444 211.004 97.268 211.284 97.076 211.524C96.884 211.764 96.656 211.952 96.392 212.088C96.136 212.224 95.84 212.292 95.504 212.292H94.94ZM96.416 209.856L93.98 204.18C93.948 204.116 93.932 204.064 93.932 204.024C93.94 203.952 93.968 203.892 94.016 203.844C94.072 203.788 94.136 203.76 94.208 203.76H95.36C95.456 203.76 95.528 203.788 95.576 203.844C95.624 203.892 95.66 203.944 95.684 204L97.484 208.488L96.416 209.856ZM107.045 210.132C106.325 210.132 105.721 210.016 105.233 209.784C104.745 209.552 104.373 209.248 104.117 208.872C103.869 208.496 103.737 208.096 103.721 207.672C103.721 207.6 103.745 207.54 103.793 207.492C103.841 207.444 103.901 207.42 103.973 207.42H105.329C105.425 207.42 105.501 207.444 105.557 207.492C105.621 207.532 105.669 207.588 105.701 207.66C105.781 207.876 105.885 208.052 106.013 208.188C106.149 208.324 106.305 208.424 106.481 208.488C106.657 208.552 106.845 208.584 107.045 208.584C107.301 208.584 107.537 208.532 107.753 208.428C107.969 208.316 108.141 208.156 108.269 207.948C108.397 207.74 108.461 207.484 108.461 207.18C108.461 206.916 108.401 206.684 108.281 206.484C108.161 206.284 107.993 206.128 107.777 206.016C107.561 205.904 107.317 205.848 107.045 205.848C106.837 205.848 106.665 205.872 106.529 205.92C106.401 205.968 106.293 206.028 106.205 206.1C106.117 206.164 106.037 206.224 105.965 206.28C105.893 206.328 105.813 206.352 105.725 206.352H104.393C104.321 206.352 104.257 206.328 104.201 206.28C104.153 206.224 104.129 206.16 104.129 206.088L104.549 201.948C104.565 201.836 104.605 201.752 104.669 201.696C104.741 201.632 104.825 201.6 104.921 201.6H109.577C109.665 201.6 109.737 201.628 109.793 201.684C109.849 201.74 109.877 201.812 109.877 201.9V202.86C109.877 202.94 109.849 203.008 109.793 203.064C109.737 203.12 109.665 203.148 109.577 203.148H106.109L105.929 204.912C106.089 204.808 106.285 204.716 106.517 204.636C106.757 204.548 107.089 204.504 107.513 204.504C107.897 204.504 108.261 204.568 108.605 204.696C108.957 204.816 109.269 204.996 109.541 205.236C109.813 205.476 110.025 205.764 110.177 206.1C110.337 206.428 110.417 206.804 110.417 207.228C110.417 207.804 110.281 208.312 110.009 208.752C109.737 209.184 109.349 209.524 108.845 209.772C108.341 210.012 107.741 210.132 107.045 210.132ZM111.879 210C111.807 210 111.747 209.976 111.699 209.928C111.651 209.88 111.627 209.82 111.627 209.748V204C111.627 203.936 111.651 203.88 111.699 203.832C111.747 203.784 111.803 203.76 111.867 203.76H113.043C113.187 203.76 113.299 203.832 113.379 203.976L115.131 207.108L116.871 203.976C116.951 203.832 117.063 203.76 117.207 203.76H118.395C118.459 203.76 118.515 203.784 118.563 203.832C118.611 203.88 118.635 203.936 118.635 204V209.748C118.635 209.82 118.611 209.88 118.563 209.928C118.515 209.976 118.455 210 118.383 210H117.123C117.043 210 116.979 209.976 116.931 209.928C116.891 209.88 116.871 209.82 116.871 209.748V205.608L117.411 205.716L115.707 208.776C115.667 208.848 115.619 208.912 115.563 208.968C115.515 209.024 115.443 209.052 115.347 209.052H114.903C114.815 209.052 114.743 209.028 114.687 208.98C114.631 208.924 114.579 208.856 114.531 208.776L112.875 205.824L113.379 205.716V209.748C113.379 209.82 113.355 209.88 113.307 209.928C113.259 209.976 113.199 210 113.127 210H111.879Z" fill="black"/>
<path d="M126.132 40.2198H120.3V35.8164H125.779V32.0745H120.3V23.3402L123.067 25.8355L125.834 23.3402L125.779 29.9145M132.086 29.7413V27.8904M132.086 27.8904V22.8999H137.62V27.8904H132.086ZM132.086 27.8904L137.62 31.8534L132.086 35.6696M132.086 35.6696H137.62V40.2198H132.086V35.6696ZM132.086 35.6696V33.6749V32.1132" stroke="black" stroke-miterlimit="16" stroke-linecap="square"/>
<path d="M126.96 33.3857L130.959 29.3867" stroke="black" stroke-miterlimit="16"/>
<path d="M127 29.4268L130.919 33.3458" stroke="black" stroke-miterlimit="16"/>
<path d="M71.1223 114.961C70.1124 115.49 69.9734 116.78 70.8536 117.597L71.3076 118.024L69.3896 123.295C67.6477 128.074 67.4253 128.566 67.0269 128.613C65.9799 128.733 65.7297 128.873 65.4332 129.476C65.0904 130.209 65.3313 131.109 65.9613 131.452C67.2307 132.13 75.9961 135.137 76.4038 135.035C77.599 134.738 77.9789 133.216 77.0709 132.39L76.5427 131.898L77.1728 130.144C77.5156 129.179 77.8307 128.362 77.8585 128.334C77.8955 128.297 79.9988 129.16 82.5376 130.246C92.9986 134.71 97.196 136.297 98.6414 136.306C101.227 136.325 102.181 134.116 100.356 132.343C99.429 131.452 94.7961 129.773 85.0208 126.794C78.3681 124.761 78.9704 125.123 79.5541 123.536C80.4251 121.161 80.3787 121.253 80.9532 121.263C82.4635 121.309 83.2233 119.342 81.991 118.534C81.5647 118.256 72.8921 115.026 72.0489 114.831C71.7987 114.776 71.3818 114.831 71.1223 114.961Z" fill="black"/>
<path d="M63.7469 138.088C63.2929 138.636 62.7833 139.035 62.4682 139.1C62.181 139.155 61.5787 139.591 61.1247 140.055L60.3 140.9H71.178C77.1636 140.9 82.0559 140.863 82.0559 140.816C82.0559 140.547 80.2305 139.053 79.897 139.044C79.6468 139.044 79.202 138.691 78.7202 138.116L77.9419 137.188H71.2243H64.5067L63.7469 138.088Z" fill="black"/>
</svg>
