<svg width="162" height="247" viewBox="0 0 162 247" fill="none" xmlns="http://www.w3.org/2000/svg">
<rect width="161" height="247" fill="#EADAE9"/>
<rect x="9.69995" y="10.3999" width="141" height="227" rx="10" fill="#F4EDF4"/>
<path d="M40.4726 31.373C40.3966 31.373 40.3333 31.3477 40.2826 31.297C40.2319 31.2463 40.2066 31.183 40.2066 31.107V25.0378C40.2066 24.9702 40.2319 24.9111 40.2826 24.8604C40.3333 24.8097 40.3924 24.7843 40.46 24.7843H41.7017C41.8537 24.7843 41.972 24.8604 42.0565 25.0124L43.9064 28.3194L45.7436 25.0124C45.8281 24.8604 45.9463 24.7843 46.0984 24.7843H47.3528C47.4203 24.7843 47.4795 24.8097 47.5302 24.8604C47.5808 24.9111 47.6062 24.9702 47.6062 25.0378V31.107C47.6062 31.183 47.5808 31.2463 47.5302 31.297C47.4795 31.3477 47.4161 31.373 47.3401 31.373H46.0097C45.9252 31.373 45.8576 31.3477 45.807 31.297C45.7647 31.2463 45.7436 31.183 45.7436 31.107V26.7356L46.3138 26.8497L44.5146 30.0806C44.4723 30.1567 44.4216 30.2242 44.3625 30.2834C44.3118 30.3425 44.2358 30.3721 44.1344 30.3721H43.6656C43.5727 30.3721 43.4967 30.3467 43.4376 30.296C43.3784 30.2369 43.3235 30.1651 43.2728 30.0806L41.5243 26.9637L42.0565 26.8497V31.107C42.0565 31.183 42.0311 31.2463 41.9804 31.297C41.9298 31.3477 41.8664 31.373 41.7904 31.373H40.4726Z" fill="black"/>
<path d="M32.0535 39C31.9087 39 31.7783 38.9493 31.6623 38.8479C31.5609 38.7464 31.5102 38.616 31.5102 38.4567V27.6552L28.3806 30.0676C28.2502 30.169 28.1126 30.2052 27.9677 30.1762C27.8373 30.1473 27.7214 30.0676 27.6199 29.9372L26.5333 28.5245C26.4463 28.3941 26.4101 28.2565 26.4246 28.1116C26.4536 27.9667 26.5333 27.8508 26.6637 27.7638L31.6189 23.9388C31.7058 23.8808 31.7855 23.8446 31.8579 23.8301C31.9449 23.8011 32.0391 23.7866 32.1405 23.7866H34.4442C34.5891 23.7866 34.7123 23.8373 34.8137 23.9388C34.9151 24.0402 34.9658 24.1706 34.9658 24.33V38.4567C34.9658 38.616 34.9151 38.7464 34.8137 38.8479C34.7123 38.9493 34.5891 39 34.4442 39H32.0535Z" fill="black"/>
<path d="M65.1888 35.08C64.9008 35.08 64.6421 35.0267 64.4128 34.92C64.1888 34.808 64.0101 34.6587 63.8768 34.472C63.7434 34.2853 63.6768 34.0747 63.6768 33.84C63.6768 33.4613 63.8314 33.1627 64.1408 32.944C64.4501 32.72 64.8608 32.568 65.3728 32.488L66.3728 32.336V32.224C66.3728 32.032 66.3328 31.8853 66.2528 31.784C66.1728 31.6827 66.0261 31.632 65.8128 31.632C65.6634 31.632 65.5408 31.6613 65.4448 31.72C65.3541 31.7787 65.2821 31.8587 65.2288 31.96C65.1808 32.0293 65.1141 32.064 65.0288 32.064H64.1328C64.0741 32.064 64.0288 32.048 63.9967 32.016C63.9648 31.9787 63.9514 31.936 63.9568 31.888C63.9568 31.792 63.9914 31.6827 64.0608 31.56C64.1354 31.432 64.2474 31.3067 64.3968 31.184C64.5461 31.0613 64.7381 30.96 64.9728 30.88C65.2074 30.8 65.4901 30.76 65.8207 30.76C66.1674 30.76 66.4634 30.8 66.7088 30.88C66.9541 30.96 67.1514 31.072 67.3008 31.216C67.4554 31.36 67.5701 31.5307 67.6448 31.728C67.7194 31.92 67.7568 32.1333 67.7568 32.368V34.8C67.7568 34.8587 67.7354 34.9067 67.6927 34.944C67.6554 34.9813 67.6101 35 67.5568 35H66.6288C66.5701 35 66.5221 34.9813 66.4848 34.944C66.4474 34.9067 66.4288 34.8587 66.4288 34.8V34.52C66.3594 34.6213 66.2661 34.7147 66.1488 34.8C66.0314 34.8853 65.8928 34.952 65.7328 35C65.5781 35.0533 65.3968 35.08 65.1888 35.08ZM65.5648 34.168C65.7194 34.168 65.8581 34.136 65.9808 34.072C66.1088 34.0027 66.2074 33.8987 66.2768 33.76C66.3514 33.616 66.3888 33.4373 66.3888 33.224V33.112L65.7088 33.232C65.4581 33.2747 65.2741 33.3413 65.1568 33.432C65.0448 33.5173 64.9888 33.6187 64.9888 33.736C64.9888 33.8267 65.0154 33.904 65.0688 33.968C65.1221 34.032 65.1914 34.0827 65.2768 34.12C65.3621 34.152 65.4581 34.168 65.5648 34.168ZM70.4595 35C70.4008 35 70.3528 34.9813 70.3155 34.944C70.2782 34.9067 70.2595 34.8587 70.2595 34.8V31.04C70.2595 30.9813 70.2782 30.9333 70.3155 30.896C70.3528 30.8587 70.4008 30.84 70.4595 30.84H71.3795C71.4382 30.84 71.4862 30.8587 71.5235 30.896C71.5608 30.9333 71.5795 30.9813 71.5795 31.04V32.368H72.0115L72.8835 30.968C72.8995 30.9413 72.9262 30.9147 72.9635 30.888C73.0008 30.856 73.0488 30.84 73.1075 30.84H74.1315C74.1795 30.84 74.2195 30.856 74.2515 30.888C74.2888 30.9147 74.3075 30.952 74.3075 31C74.3075 31.016 74.3022 31.0347 74.2915 31.056C74.2862 31.0773 74.2782 31.096 74.2675 31.112L73.1715 32.856L74.4515 34.736C74.4728 34.768 74.4835 34.8027 74.4835 34.84C74.4835 34.888 74.4675 34.928 74.4355 34.96C74.4035 34.9867 74.3608 35 74.3075 35H73.1795C73.1208 35 73.0728 34.9893 73.0355 34.968C73.0035 34.9413 72.9742 34.9093 72.9475 34.872L71.9955 33.416H71.5795V34.8C71.5795 34.8587 71.5608 34.9067 71.5235 34.944C71.4862 34.9813 71.4382 35 71.3795 35H70.4595ZM80.1751 35.944C80.1164 35.944 80.0684 35.9227 80.0311 35.88C79.9937 35.8427 79.9751 35.7947 79.9751 35.736V35H76.9111C76.8524 35 76.8044 34.9813 76.7671 34.944C76.7297 34.9067 76.7111 34.8587 76.7111 34.8V31.04C76.7111 30.9813 76.7297 30.9333 76.7671 30.896C76.8044 30.8587 76.8524 30.84 76.9111 30.84H77.8551C77.9084 30.84 77.9537 30.8587 77.9911 30.896C78.0337 30.9333 78.0551 30.9813 78.0551 31.04V33.952H79.4311V31.04C79.4311 30.9813 79.4497 30.9333 79.4871 30.896C79.5297 30.8587 79.5777 30.84 79.6311 30.84H80.5751C80.6337 30.84 80.6817 30.8587 80.7191 30.896C80.7564 30.9333 80.7751 30.9813 80.7751 31.04V33.952H81.1191C81.1777 33.952 81.2257 33.9707 81.2631 34.008C81.3004 34.0453 81.3191 34.0933 81.3191 34.152V35.736C81.3191 35.7947 81.3004 35.8427 81.2631 35.88C81.2257 35.9227 81.1777 35.944 81.1191 35.944H80.1751ZM83.7531 35C83.6997 35 83.6544 34.9813 83.6171 34.944C83.5797 34.9067 83.5611 34.8613 83.5611 34.808V31.04C83.5611 30.9813 83.5797 30.9333 83.6171 30.896C83.6544 30.8587 83.7024 30.84 83.7611 30.84H84.7051C84.7584 30.84 84.8037 30.8587 84.8411 30.896C84.8837 30.9333 84.9051 30.9813 84.9051 31.04V33.96L84.5451 33.784L86.5211 30.968C86.5477 30.9307 86.5797 30.9013 86.6171 30.88C86.6544 30.8533 86.6971 30.84 86.7451 30.84H87.6011C87.6544 30.84 87.6997 30.8587 87.7371 30.896C87.7744 30.9333 87.7931 30.9787 87.7931 31.032V34.8C87.7931 34.8587 87.7744 34.9067 87.7371 34.944C87.6997 34.9813 87.6517 35 87.5931 35H86.6491C86.5904 35 86.5424 34.9813 86.5051 34.944C86.4677 34.9067 86.4491 34.8587 86.4491 34.8V31.968L86.8171 32.04L84.8251 34.872C84.8037 34.9093 84.7744 34.9413 84.7371 34.968C84.6997 34.9893 84.6544 35 84.6011 35H83.7531ZM89.5666 36.52C89.508 36.52 89.46 36.5013 89.4226 36.464C89.3853 36.4267 89.3666 36.3787 89.3666 36.32V35.672C89.3666 35.6133 89.3853 35.5653 89.4226 35.528C89.46 35.4907 89.508 35.472 89.5666 35.472H89.8626C89.996 35.472 90.0973 35.4453 90.1666 35.392C90.236 35.344 90.284 35.2747 90.3106 35.184C90.3373 35.0987 90.3506 35 90.3506 34.888V31.04C90.3506 30.9813 90.3693 30.9333 90.4066 30.896C90.4493 30.8587 90.4973 30.84 90.5506 30.84H91.5426C91.6013 30.84 91.6493 30.8587 91.6866 30.896C91.724 30.9333 91.7426 30.9813 91.7426 31.04V34.92C91.7426 35.2667 91.6733 35.5573 91.5346 35.792C91.4013 36.032 91.2066 36.2133 90.9506 36.336C90.6946 36.4587 90.3826 36.52 90.0146 36.52H89.5666ZM90.5426 30.24C90.4893 30.24 90.4413 30.2213 90.3986 30.184C90.3613 30.1467 90.3426 30.0987 90.3426 30.04V29.328C90.3426 29.2693 90.3613 29.2213 90.3986 29.184C90.4413 29.1413 90.4893 29.12 90.5426 29.12H91.5506C91.604 29.12 91.6493 29.1413 91.6866 29.184C91.7293 29.2213 91.7506 29.2693 91.7506 29.328V30.04C91.7506 30.0987 91.7293 30.1467 91.6866 30.184C91.6493 30.2213 91.604 30.24 91.5506 30.24H90.5426ZM95.5325 35.08C95.2445 35.08 94.9858 35.0267 94.7565 34.92C94.5325 34.808 94.3538 34.6587 94.2205 34.472C94.0872 34.2853 94.0205 34.0747 94.0205 33.84C94.0205 33.4613 94.1752 33.1627 94.4845 32.944C94.7938 32.72 95.2045 32.568 95.7165 32.488L96.7165 32.336V32.224C96.7165 32.032 96.6765 31.8853 96.5965 31.784C96.5165 31.6827 96.3698 31.632 96.1565 31.632C96.0072 31.632 95.8845 31.6613 95.7885 31.72C95.6978 31.7787 95.6258 31.8587 95.5725 31.96C95.5245 32.0293 95.4578 32.064 95.3725 32.064H94.4765C94.4178 32.064 94.3725 32.048 94.3405 32.016C94.3085 31.9787 94.2952 31.936 94.3005 31.888C94.3005 31.792 94.3352 31.6827 94.4045 31.56C94.4792 31.432 94.5912 31.3067 94.7405 31.184C94.8898 31.0613 95.0818 30.96 95.3165 30.88C95.5512 30.8 95.8338 30.76 96.1645 30.76C96.5112 30.76 96.8072 30.8 97.0525 30.88C97.2978 30.96 97.4952 31.072 97.6445 31.216C97.7992 31.36 97.9138 31.5307 97.9885 31.728C98.0632 31.92 98.1005 32.1333 98.1005 32.368V34.8C98.1005 34.8587 98.0792 34.9067 98.0365 34.944C97.9992 34.9813 97.9538 35 97.9005 35H96.9725C96.9138 35 96.8658 34.9813 96.8285 34.944C96.7912 34.9067 96.7725 34.8587 96.7725 34.8V34.52C96.7032 34.6213 96.6098 34.7147 96.4925 34.8C96.3752 34.8853 96.2365 34.952 96.0765 35C95.9218 35.0533 95.7405 35.08 95.5325 35.08ZM95.9085 34.168C96.0632 34.168 96.2018 34.136 96.3245 34.072C96.4525 34.0027 96.5512 33.8987 96.6205 33.76C96.6952 33.616 96.7325 33.4373 96.7325 33.224V33.112L96.0525 33.232C95.8018 33.2747 95.6178 33.3413 95.5005 33.432C95.3885 33.5173 95.3325 33.6187 95.3325 33.736C95.3325 33.8267 95.3592 33.904 95.4125 33.968C95.4658 34.032 95.5352 34.0827 95.6205 34.12C95.7058 34.152 95.8018 34.168 95.9085 34.168Z" fill="black"/>
<path d="M144.8 237.1H16.2C12.6 237.1 9.69995 234.2 9.69995 230.6V168C9.69995 164.4 12.6 161.5 16.2 161.5H144.8C148.4 161.5 151.3 164.4 151.3 168V230.6C151.4 234.2 148.5 237.1 144.8 237.1Z" fill="white"/>
<path d="M43.4732 195.4C43.3852 195.4 43.3132 195.372 43.2572 195.316C43.2012 195.252 43.1732 195.18 43.1732 195.1V187.3C43.1732 187.212 43.2012 187.14 43.2572 187.084C43.3212 187.028 43.3932 187 43.4732 187H44.7812C44.8692 187 44.9412 187.028 44.9972 187.084C45.0532 187.14 45.0812 187.212 45.0812 187.3V192.484L48.7652 187.216C48.8052 187.16 48.8532 187.112 48.9092 187.072C48.9732 187.024 49.0532 187 49.1492 187H50.3252C50.4132 187 50.4852 187.028 50.5412 187.084C50.5972 187.14 50.6252 187.212 50.6252 187.3V195.1C50.6252 195.188 50.5972 195.26 50.5412 195.316C50.4852 195.372 50.4132 195.4 50.3252 195.4H49.0172C48.9372 195.4 48.8652 195.372 48.8012 195.316C48.7452 195.26 48.7172 195.188 48.7172 195.1V190.072L45.0332 195.184C45.0092 195.232 44.9692 195.28 44.9132 195.328C44.8572 195.376 44.7732 195.4 44.6612 195.4H43.4732ZM54.7598 195.52C54.2238 195.52 53.7798 195.46 53.4278 195.34C53.0758 195.22 52.7918 195.068 52.5758 194.884C52.3678 194.692 52.2158 194.492 52.1198 194.284C52.0318 194.076 51.9798 193.888 51.9638 193.72C51.9558 193.656 51.9758 193.604 52.0238 193.564C52.0718 193.516 52.1238 193.492 52.1798 193.492H53.3558C53.4438 193.492 53.5078 193.512 53.5478 193.552C53.5958 193.584 53.6358 193.632 53.6678 193.696C53.7478 193.896 53.8798 194.04 54.0638 194.128C54.2558 194.208 54.5038 194.248 54.8078 194.248C55.0078 194.248 55.1878 194.22 55.3478 194.164C55.5078 194.108 55.6278 194.028 55.7078 193.924C55.7958 193.812 55.8398 193.672 55.8398 193.504C55.8398 193.272 55.7718 193.096 55.6358 192.976C55.4998 192.848 55.2718 192.784 54.9518 192.784H54.2918C54.2118 192.784 54.1478 192.76 54.0998 192.712C54.0518 192.656 54.0278 192.592 54.0278 192.52V191.932C54.0278 191.86 54.0518 191.8 54.0998 191.752C54.1478 191.696 54.2118 191.668 54.2918 191.668H54.9158C55.1798 191.668 55.3758 191.62 55.5038 191.524C55.6318 191.42 55.6958 191.264 55.6958 191.056C55.6958 190.928 55.6638 190.808 55.5998 190.696C55.5438 190.584 55.4478 190.496 55.3118 190.432C55.1758 190.36 54.9878 190.324 54.7478 190.324C54.4118 190.324 54.1718 190.376 54.0278 190.48C53.8838 190.584 53.7758 190.74 53.7038 190.948C53.6718 191.012 53.6318 191.06 53.5838 191.092C53.5438 191.124 53.4798 191.14 53.3918 191.14H52.2518C52.1878 191.14 52.1318 191.12 52.0838 191.08C52.0438 191.04 52.0238 190.988 52.0238 190.924C52.0398 190.708 52.0998 190.492 52.2038 190.276C52.3078 190.052 52.4638 189.848 52.6718 189.664C52.8878 189.472 53.1638 189.32 53.4998 189.208C53.8438 189.096 54.2638 189.04 54.7598 189.04C55.4158 189.04 55.9398 189.124 56.3318 189.292C56.7238 189.46 57.0038 189.68 57.1718 189.952C57.3478 190.216 57.4358 190.504 57.4358 190.816C57.4358 191.096 57.3798 191.348 57.2678 191.572C57.1558 191.788 56.9558 191.968 56.6678 192.112C57.0278 192.248 57.2758 192.456 57.4118 192.736C57.5478 193.016 57.6158 193.316 57.6158 193.636C57.6238 194.028 57.5078 194.364 57.2678 194.644C57.0358 194.924 56.7038 195.14 56.2718 195.292C55.8478 195.444 55.3438 195.52 54.7598 195.52ZM59.1026 195.4C59.0226 195.4 58.9546 195.372 58.8986 195.316C58.8426 195.26 58.8146 195.188 58.8146 195.1V189.46C58.8146 189.372 58.8426 189.3 58.8986 189.244C58.9546 189.188 59.0226 189.16 59.1026 189.16H61.8386C62.7346 189.16 63.3906 189.32 63.8066 189.64C64.2306 189.952 64.4426 190.376 64.4426 190.912C64.4426 191.232 64.3826 191.488 64.2626 191.68C64.1426 191.864 63.9746 192.024 63.7586 192.16C64.0306 192.288 64.2426 192.48 64.3946 192.736C64.5546 192.984 64.6346 193.264 64.6346 193.576C64.6346 194.144 64.4146 194.592 63.9746 194.92C63.5346 195.24 62.8746 195.4 61.9946 195.4H59.1026ZM60.5426 194.224H61.8866C62.1666 194.224 62.3906 194.172 62.5586 194.068C62.7346 193.956 62.8226 193.784 62.8226 193.552C62.8226 193.312 62.7426 193.14 62.5826 193.036C62.4226 192.932 62.1906 192.88 61.8866 192.88H60.5426V194.224ZM60.5426 191.656H61.8386C62.1266 191.656 62.3546 191.596 62.5226 191.476C62.6906 191.356 62.7746 191.184 62.7746 190.96C62.7746 190.728 62.6906 190.568 62.5226 190.48C62.3546 190.384 62.1266 190.336 61.8386 190.336H60.5426V191.656ZM65.7836 195.4C65.7036 195.4 65.6316 195.372 65.5676 195.316C65.5116 195.252 65.4836 195.18 65.4836 195.1V194.2C65.4836 194.024 65.5796 193.928 65.7716 193.912C66.0036 193.888 66.1836 193.78 66.3116 193.588C66.4476 193.388 66.5436 193.084 66.5996 192.676C66.6556 192.268 66.6836 191.744 66.6836 191.104V189.46C66.6836 189.372 66.7116 189.3 66.7676 189.244C66.8236 189.188 66.8956 189.16 66.9836 189.16H71.4596C71.5476 189.16 71.6196 189.188 71.6756 189.244C71.7316 189.3 71.7596 189.372 71.7596 189.46V195.1C71.7596 195.188 71.7316 195.26 71.6756 195.316C71.6196 195.372 71.5476 195.4 71.4596 195.4H70.2596C70.1796 195.4 70.1076 195.372 70.0436 195.316C69.9876 195.26 69.9596 195.188 69.9596 195.1V190.576H68.3996V191.308C68.3996 192.068 68.3556 192.712 68.2676 193.24C68.1876 193.768 68.0476 194.192 67.8476 194.512C67.6476 194.824 67.3796 195.052 67.0436 195.196C66.7076 195.332 66.2876 195.4 65.7836 195.4ZM76.0947 195.52C75.1747 195.52 74.4427 195.264 73.8987 194.752C73.3627 194.24 73.0787 193.496 73.0467 192.52C73.0467 192.456 73.0467 192.372 73.0467 192.268C73.0467 192.156 73.0467 192.068 73.0467 192.004C73.0787 191.388 73.2187 190.86 73.4667 190.42C73.7147 189.972 74.0627 189.632 74.5107 189.4C74.9587 189.16 75.4827 189.04 76.0827 189.04C76.7547 189.04 77.3147 189.18 77.7627 189.46C78.2187 189.732 78.5587 190.108 78.7827 190.588C79.0147 191.06 79.1307 191.604 79.1307 192.22V192.496C79.1307 192.576 79.0987 192.644 79.0347 192.7C78.9787 192.756 78.9107 192.784 78.8307 192.784H74.9067C74.9067 192.792 74.9067 192.808 74.9067 192.832C74.9067 192.848 74.9067 192.864 74.9067 192.88C74.9147 193.136 74.9627 193.372 75.0507 193.588C75.1467 193.796 75.2787 193.964 75.4467 194.092C75.6227 194.22 75.8307 194.284 76.0707 194.284C76.2707 194.284 76.4347 194.256 76.5627 194.2C76.6907 194.144 76.7947 194.076 76.8747 193.996C76.9627 193.916 77.0267 193.848 77.0667 193.792C77.1387 193.712 77.1947 193.664 77.2347 193.648C77.2827 193.624 77.3547 193.612 77.4507 193.612H78.6987C78.7787 193.612 78.8427 193.636 78.8907 193.684C78.9467 193.724 78.9707 193.784 78.9627 193.864C78.9547 193.992 78.8867 194.152 78.7587 194.344C78.6387 194.528 78.4587 194.712 78.2187 194.896C77.9787 195.072 77.6787 195.22 77.3187 195.34C76.9667 195.46 76.5587 195.52 76.0947 195.52ZM74.9067 191.692H77.2587V191.668C77.2587 191.38 77.2107 191.132 77.1147 190.924C77.0267 190.708 76.8947 190.54 76.7187 190.42C76.5427 190.3 76.3307 190.24 76.0827 190.24C75.8347 190.24 75.6227 190.3 75.4467 190.42C75.2707 190.54 75.1347 190.708 75.0387 190.924C74.9507 191.132 74.9067 191.38 74.9067 191.668V191.692ZM84.2782 195.4C84.1982 195.4 84.1302 195.372 84.0742 195.316C84.0182 195.26 83.9902 195.188 83.9902 195.1V193.168C83.7982 193.328 83.5582 193.448 83.2702 193.528C82.9822 193.608 82.6582 193.648 82.2982 193.648C81.5622 193.648 80.9942 193.468 80.5942 193.108C80.1942 192.74 79.9942 192.152 79.9942 191.344V189.46C79.9942 189.372 80.0222 189.3 80.0782 189.244C80.1342 189.188 80.2022 189.16 80.2822 189.16H81.5302C81.6102 189.16 81.6782 189.188 81.7342 189.244C81.7902 189.3 81.8182 189.372 81.8182 189.46V191.248C81.8182 191.552 81.8942 191.768 82.0462 191.896C82.2062 192.024 82.4622 192.088 82.8142 192.088C83.1582 192.088 83.4382 192.04 83.6542 191.944C83.8782 191.84 83.9902 191.676 83.9902 191.452V189.46C83.9902 189.372 84.0182 189.3 84.0742 189.244C84.1302 189.188 84.1982 189.16 84.2782 189.16H85.5742C85.6622 189.16 85.7342 189.188 85.7902 189.244C85.8462 189.3 85.8742 189.372 85.8742 189.46V195.1C85.8742 195.188 85.8462 195.26 85.7902 195.316C85.7342 195.372 85.6622 195.4 85.5742 195.4H84.2782ZM87.6961 195.4C87.6241 195.4 87.5601 195.372 87.5041 195.316C87.4481 195.26 87.4201 195.192 87.4201 195.112V189.46C87.4201 189.372 87.4481 189.3 87.5041 189.244C87.5601 189.188 87.6281 189.16 87.7081 189.16H88.9081C88.9961 189.16 89.0681 189.188 89.1241 189.244C89.1801 189.3 89.2081 189.372 89.2081 189.46V194.02L88.7281 193.744L91.8601 189.352C91.9001 189.296 91.9441 189.252 91.9921 189.22C92.0481 189.18 92.1161 189.16 92.1961 189.16H93.2761C93.3561 189.16 93.4241 189.188 93.4801 189.244C93.5361 189.3 93.5641 189.364 93.5641 189.436V195.1C93.5641 195.188 93.5361 195.26 93.4801 195.316C93.4241 195.372 93.3521 195.4 93.2641 195.4H92.0641C91.9841 195.4 91.9161 195.372 91.8601 195.316C91.8041 195.26 91.7761 195.188 91.7761 195.1V190.72L92.2681 190.804L89.1121 195.208C89.0801 195.264 89.0361 195.312 88.9801 195.352C88.9241 195.384 88.8601 195.4 88.7881 195.4H87.6961ZM97.4351 196.72C97.3551 196.72 97.2871 196.692 97.2311 196.636C97.1751 196.58 97.1471 196.508 97.1471 196.42V194.284C97.1471 194.196 97.1751 194.124 97.2311 194.068C97.2871 194.012 97.3551 193.984 97.4351 193.984H97.5431C97.7511 193.984 97.9151 193.876 98.0351 193.66C98.1631 193.444 98.2551 193.124 98.3111 192.7C98.3671 192.276 98.3951 191.744 98.3951 191.104V189.46C98.3951 189.372 98.4231 189.3 98.4791 189.244C98.5351 189.188 98.6031 189.16 98.6831 189.16H103.171C103.259 189.16 103.331 189.188 103.387 189.244C103.443 189.3 103.471 189.372 103.471 189.46V193.972H103.999C104.079 193.972 104.147 194 104.203 194.056C104.259 194.112 104.287 194.184 104.287 194.272V196.42C104.287 196.508 104.259 196.58 104.203 196.636C104.147 196.692 104.079 196.72 103.999 196.72H102.799C102.711 196.72 102.639 196.692 102.583 196.636C102.527 196.58 102.499 196.508 102.499 196.42V195.4H98.9351V196.42C98.9351 196.508 98.9071 196.58 98.8511 196.636C98.7951 196.692 98.7231 196.72 98.6351 196.72H97.4351ZM99.6071 193.984L101.683 193.972V190.576H100.099V191.308C100.099 191.964 100.055 192.512 99.9671 192.952C99.8871 193.392 99.7671 193.736 99.6071 193.984ZM105.614 195.4C105.534 195.4 105.466 195.372 105.41 195.316C105.354 195.26 105.326 195.188 105.326 195.1V189.46C105.326 189.372 105.354 189.3 105.41 189.244C105.466 189.188 105.534 189.16 105.614 189.16H108.35C109.246 189.16 109.902 189.32 110.318 189.64C110.742 189.952 110.954 190.376 110.954 190.912C110.954 191.232 110.894 191.488 110.774 191.68C110.654 191.864 110.486 192.024 110.27 192.16C110.542 192.288 110.754 192.48 110.906 192.736C111.066 192.984 111.146 193.264 111.146 193.576C111.146 194.144 110.926 194.592 110.486 194.92C110.046 195.24 109.386 195.4 108.506 195.4H105.614ZM107.054 194.224H108.398C108.678 194.224 108.902 194.172 109.07 194.068C109.246 193.956 109.334 193.784 109.334 193.552C109.334 193.312 109.254 193.14 109.094 193.036C108.934 192.932 108.702 192.88 108.398 192.88H107.054V194.224ZM107.054 191.656H108.35C108.638 191.656 108.866 191.596 109.034 191.476C109.202 191.356 109.286 191.184 109.286 190.96C109.286 190.728 109.202 190.568 109.034 190.48C108.866 190.384 108.638 190.336 108.35 190.336H107.054V191.656ZM115.235 195.52C114.315 195.52 113.583 195.264 113.039 194.752C112.503 194.24 112.219 193.496 112.187 192.52C112.187 192.456 112.187 192.372 112.187 192.268C112.187 192.156 112.187 192.068 112.187 192.004C112.219 191.388 112.359 190.86 112.607 190.42C112.855 189.972 113.203 189.632 113.651 189.4C114.099 189.16 114.623 189.04 115.223 189.04C115.895 189.04 116.455 189.18 116.903 189.46C117.359 189.732 117.699 190.108 117.923 190.588C118.155 191.06 118.271 191.604 118.271 192.22V192.496C118.271 192.576 118.239 192.644 118.175 192.7C118.119 192.756 118.051 192.784 117.971 192.784H114.047C114.047 192.792 114.047 192.808 114.047 192.832C114.047 192.848 114.047 192.864 114.047 192.88C114.055 193.136 114.103 193.372 114.191 193.588C114.287 193.796 114.419 193.964 114.587 194.092C114.763 194.22 114.971 194.284 115.211 194.284C115.411 194.284 115.575 194.256 115.703 194.2C115.831 194.144 115.935 194.076 116.015 193.996C116.103 193.916 116.167 193.848 116.207 193.792C116.279 193.712 116.335 193.664 116.375 193.648C116.423 193.624 116.495 193.612 116.591 193.612H117.839C117.919 193.612 117.983 193.636 118.031 193.684C118.087 193.724 118.111 193.784 118.103 193.864C118.095 193.992 118.027 194.152 117.899 194.344C117.779 194.528 117.599 194.712 117.359 194.896C117.119 195.072 116.819 195.22 116.459 195.34C116.107 195.46 115.699 195.52 115.235 195.52ZM114.047 191.692H116.399V191.668C116.399 191.38 116.351 191.132 116.255 190.924C116.167 190.708 116.035 190.54 115.859 190.42C115.683 190.3 115.471 190.24 115.223 190.24C114.975 190.24 114.763 190.3 114.587 190.42C114.411 190.54 114.275 190.708 114.179 190.924C114.091 191.132 114.047 191.38 114.047 191.668V191.692ZM41.501 210.4C41.421 210.4 41.353 210.372 41.297 210.316C41.241 210.26 41.213 210.188 41.213 210.1V204.46C41.213 204.372 41.241 204.3 41.297 204.244C41.353 204.188 41.421 204.16 41.501 204.16H42.677C42.765 204.16 42.837 204.188 42.893 204.244C42.949 204.3 42.977 204.372 42.977 204.46V206.524H43.733L45.125 204.352C45.149 204.304 45.185 204.26 45.233 204.22C45.289 204.18 45.361 204.16 45.449 204.16H46.757C46.829 204.16 46.889 204.184 46.937 204.232C46.993 204.272 47.021 204.324 47.021 204.388C47.021 204.412 47.013 204.44 46.997 204.472C46.989 204.504 46.977 204.532 46.961 204.556L45.269 207.172L47.225 210.016C47.257 210.064 47.273 210.116 47.273 210.172C47.273 210.236 47.249 210.292 47.201 210.34C47.153 210.38 47.093 210.4 47.021 210.4H45.569C45.489 210.4 45.421 210.384 45.365 210.352C45.317 210.312 45.273 210.264 45.233 210.208L43.721 207.952H42.977V210.1C42.977 210.188 42.949 210.26 42.893 210.316C42.837 210.372 42.765 210.4 42.677 210.4H41.501ZM50.1037 210.52C49.6797 210.52 49.2997 210.44 48.9637 210.28C48.6277 210.112 48.3597 209.888 48.1597 209.608C47.9597 209.328 47.8597 209.016 47.8597 208.672C47.8597 208.104 48.0877 207.656 48.5437 207.328C49.0077 207 49.6157 206.776 50.3677 206.656L51.9397 206.428V206.212C51.9397 205.9 51.8677 205.66 51.7237 205.492C51.5797 205.324 51.3277 205.24 50.9677 205.24C50.7037 205.24 50.4917 205.292 50.3317 205.396C50.1717 205.5 50.0477 205.636 49.9597 205.804C49.8957 205.908 49.8037 205.96 49.6837 205.96H48.5437C48.4557 205.96 48.3877 205.936 48.3397 205.888C48.2917 205.832 48.2717 205.768 48.2797 205.696C48.2797 205.56 48.3317 205.4 48.4357 205.216C48.5397 205.032 48.6997 204.852 48.9157 204.676C49.1317 204.492 49.4077 204.34 49.7437 204.22C50.0797 204.1 50.4917 204.04 50.9797 204.04C51.4837 204.04 51.9157 204.1 52.2757 204.22C52.6357 204.34 52.9237 204.508 53.1397 204.724C53.3557 204.94 53.5157 205.192 53.6197 205.48C53.7237 205.76 53.7757 206.064 53.7757 206.392V210.1C53.7757 210.188 53.7477 210.26 53.6917 210.316C53.6357 210.372 53.5637 210.4 53.4757 210.4H52.2997C52.2197 210.4 52.1517 210.372 52.0957 210.316C52.0397 210.26 52.0117 210.188 52.0117 210.1V209.656C51.9077 209.808 51.7677 209.952 51.5917 210.088C51.4157 210.216 51.2037 210.32 50.9557 210.4C50.7157 210.48 50.4317 210.52 50.1037 210.52ZM50.5837 209.272C50.8477 209.272 51.0837 209.216 51.2917 209.104C51.4997 208.992 51.6637 208.82 51.7837 208.588C51.9037 208.356 51.9637 208.064 51.9637 207.712V207.508L50.8477 207.688C50.4157 207.76 50.0997 207.868 49.8997 208.012C49.6997 208.156 49.5997 208.332 49.5997 208.54C49.5997 208.692 49.6437 208.824 49.7317 208.936C49.8277 209.048 49.9517 209.132 50.1037 209.188C50.2557 209.244 50.4157 209.272 50.5837 209.272ZM55.5287 212.68C55.4407 212.68 55.3687 212.652 55.3127 212.596C55.2567 212.54 55.2287 212.468 55.2287 212.38V204.46C55.2287 204.372 55.2567 204.3 55.3127 204.244C55.3687 204.188 55.4407 204.16 55.5287 204.16H56.6687C56.7567 204.16 56.8287 204.188 56.8847 204.244C56.9407 204.3 56.9687 204.372 56.9687 204.46V204.916C57.1607 204.66 57.4087 204.452 57.7127 204.292C58.0167 204.124 58.3967 204.04 58.8527 204.04C59.2687 204.04 59.6287 204.108 59.9327 204.244C60.2447 204.372 60.5047 204.56 60.7127 204.808C60.9287 205.048 61.0927 205.34 61.2047 205.684C61.3247 206.028 61.3927 206.416 61.4087 206.848C61.4167 207 61.4207 207.144 61.4207 207.28C61.4207 207.416 61.4167 207.564 61.4087 207.724C61.4007 208.132 61.3367 208.508 61.2167 208.852C61.1047 209.196 60.9407 209.492 60.7247 209.74C60.5087 209.988 60.2447 210.18 59.9327 210.316C59.6287 210.452 59.2687 210.52 58.8527 210.52C58.4447 210.52 58.0887 210.448 57.7847 210.304C57.4887 210.152 57.2447 209.948 57.0527 209.692V212.38C57.0527 212.468 57.0247 212.54 56.9687 212.596C56.9127 212.652 56.8447 212.68 56.7647 212.68H55.5287ZM58.3127 209.08C58.6167 209.08 58.8567 209.016 59.0327 208.888C59.2087 208.752 59.3327 208.576 59.4047 208.36C59.4847 208.144 59.5327 207.908 59.5487 207.652C59.5647 207.404 59.5647 207.156 59.5487 206.908C59.5327 206.652 59.4847 206.416 59.4047 206.2C59.3327 205.984 59.2087 205.812 59.0327 205.684C58.8567 205.548 58.6167 205.48 58.3127 205.48C58.0167 205.48 57.7767 205.548 57.5927 205.684C57.4087 205.82 57.2767 205.992 57.1967 206.2C57.1167 206.408 57.0687 206.632 57.0527 206.872C57.0447 207.016 57.0407 207.164 57.0407 207.316C57.0407 207.468 57.0447 207.62 57.0527 207.772C57.0607 207.996 57.1087 208.208 57.1967 208.408C57.2927 208.6 57.4287 208.76 57.6047 208.888C57.7887 209.016 58.0247 209.08 58.3127 209.08ZM64.5895 210.4C64.5015 210.4 64.4295 210.372 64.3735 210.316C64.3175 210.26 64.2895 210.188 64.2895 210.1V205.576H62.4055C62.3175 205.576 62.2455 205.548 62.1895 205.492C62.1335 205.436 62.1055 205.364 62.1055 205.276V204.46C62.1055 204.372 62.1335 204.3 62.1895 204.244C62.2455 204.188 62.3175 204.16 62.4055 204.16H67.9375C68.0255 204.16 68.0975 204.188 68.1535 204.244C68.2095 204.3 68.2375 204.372 68.2375 204.46V205.276C68.2375 205.364 68.2095 205.436 68.1535 205.492C68.0975 205.548 68.0255 205.576 67.9375 205.576H66.0535V210.1C66.0535 210.188 66.0255 210.26 65.9695 210.316C65.9135 210.372 65.8455 210.4 65.7655 210.4H64.5895ZM69.4383 210.4C69.3663 210.4 69.3023 210.372 69.2463 210.316C69.1903 210.26 69.1623 210.192 69.1623 210.112V204.46C69.1623 204.372 69.1903 204.3 69.2463 204.244C69.3023 204.188 69.3703 204.16 69.4503 204.16H70.6503C70.7383 204.16 70.8103 204.188 70.8663 204.244C70.9223 204.3 70.9503 204.372 70.9503 204.46V209.02L70.4703 208.744L73.6023 204.352C73.6423 204.296 73.6863 204.252 73.7343 204.22C73.7903 204.18 73.8583 204.16 73.9383 204.16H75.0182C75.0983 204.16 75.1663 204.188 75.2223 204.244C75.2783 204.3 75.3063 204.364 75.3063 204.436V210.1C75.3063 210.188 75.2783 210.26 75.2223 210.316C75.1663 210.372 75.0943 210.4 75.0063 210.4H73.8063C73.7263 210.4 73.6583 210.372 73.6023 210.316C73.5463 210.26 73.5183 210.188 73.5183 210.1V205.72L74.0103 205.804L70.8543 210.208C70.8223 210.264 70.7783 210.312 70.7223 210.352C70.6663 210.384 70.6023 210.4 70.5303 210.4H69.4383ZM82.1533 210.52C81.2333 210.52 80.5013 210.264 79.9573 209.752C79.4213 209.24 79.1373 208.496 79.1053 207.52C79.1053 207.456 79.1053 207.372 79.1053 207.268C79.1053 207.156 79.1053 207.068 79.1053 207.004C79.1373 206.388 79.2773 205.86 79.5253 205.42C79.7733 204.972 80.1213 204.632 80.5693 204.4C81.0173 204.16 81.5413 204.04 82.1413 204.04C82.8133 204.04 83.3733 204.18 83.8213 204.46C84.2773 204.732 84.6173 205.108 84.8413 205.588C85.0733 206.06 85.1893 206.604 85.1893 207.22V207.496C85.1893 207.576 85.1573 207.644 85.0933 207.7C85.0373 207.756 84.9693 207.784 84.8893 207.784H80.9653C80.9653 207.792 80.9653 207.808 80.9653 207.832C80.9653 207.848 80.9653 207.864 80.9653 207.88C80.9733 208.136 81.0213 208.372 81.1093 208.588C81.2053 208.796 81.3373 208.964 81.5053 209.092C81.6813 209.22 81.8893 209.284 82.1293 209.284C82.3293 209.284 82.4933 209.256 82.6213 209.2C82.7493 209.144 82.8533 209.076 82.9333 208.996C83.0213 208.916 83.0853 208.848 83.1253 208.792C83.1973 208.712 83.2533 208.664 83.2933 208.648C83.3413 208.624 83.4133 208.612 83.5093 208.612H84.7573C84.8373 208.612 84.9013 208.636 84.9493 208.684C85.0053 208.724 85.0293 208.784 85.0213 208.864C85.0133 208.992 84.9453 209.152 84.8173 209.344C84.6973 209.528 84.5173 209.712 84.2773 209.896C84.0373 210.072 83.7373 210.22 83.3773 210.34C83.0253 210.46 82.6173 210.52 82.1533 210.52ZM80.9653 206.692H83.3173V206.668C83.3173 206.38 83.2693 206.132 83.1733 205.924C83.0853 205.708 82.9533 205.54 82.7773 205.42C82.6013 205.3 82.3893 205.24 82.1413 205.24C81.8933 205.24 81.6813 205.3 81.5053 205.42C81.3293 205.54 81.1933 205.708 81.0973 205.924C81.0093 206.132 80.9653 206.38 80.9653 206.668V206.692ZM86.6768 210.4C86.5968 210.4 86.5288 210.372 86.4728 210.316C86.4168 210.26 86.3888 210.188 86.3888 210.1V204.46C86.3888 204.372 86.4168 204.3 86.4728 204.244C86.5288 204.188 86.5968 204.16 86.6768 204.16H87.8528C87.9408 204.16 88.0128 204.188 88.0688 204.244C88.1248 204.3 88.1528 204.372 88.1528 204.46V206.524H88.9088L90.3008 204.352C90.3248 204.304 90.3608 204.26 90.4088 204.22C90.4648 204.18 90.5368 204.16 90.6248 204.16H91.9328C92.0048 204.16 92.0648 204.184 92.1128 204.232C92.1688 204.272 92.1968 204.324 92.1968 204.388C92.1968 204.412 92.1888 204.44 92.1728 204.472C92.1648 204.504 92.1528 204.532 92.1368 204.556L90.4448 207.172L92.4008 210.016C92.4328 210.064 92.4488 210.116 92.4488 210.172C92.4488 210.236 92.4248 210.292 92.3768 210.34C92.3288 210.38 92.2688 210.4 92.1968 210.4H90.7448C90.6648 210.4 90.5968 210.384 90.5408 210.352C90.4928 210.312 90.4488 210.264 90.4088 210.208L88.8968 207.952H88.1528V210.1C88.1528 210.188 88.1248 210.26 88.0688 210.316C88.0128 210.372 87.9408 210.4 87.8528 210.4H86.6768ZM96.2155 210.52C95.6315 210.52 95.1155 210.412 94.6675 210.196C94.2275 209.98 93.8795 209.668 93.6235 209.26C93.3675 208.844 93.2275 208.348 93.2035 207.772C93.1955 207.644 93.1915 207.484 93.1915 207.292C93.1915 207.092 93.1955 206.928 93.2035 206.8C93.2275 206.216 93.3635 205.72 93.6115 205.312C93.8675 204.896 94.2195 204.58 94.6675 204.364C95.1155 204.148 95.6315 204.04 96.2155 204.04C96.7515 204.04 97.2075 204.116 97.5835 204.268C97.9595 204.412 98.2675 204.596 98.5075 204.82C98.7475 205.044 98.9235 205.28 99.0355 205.528C99.1555 205.768 99.2195 205.98 99.2275 206.164C99.2355 206.244 99.2075 206.316 99.1435 206.38C99.0875 206.436 99.0195 206.464 98.9395 206.464H97.6555C97.5755 206.464 97.5115 206.444 97.4635 206.404C97.4235 206.356 97.3835 206.292 97.3435 206.212C97.2315 205.932 97.0875 205.732 96.9115 205.612C96.7355 205.492 96.5155 205.432 96.2515 205.432C95.8915 205.432 95.6075 205.548 95.3995 205.78C95.1915 206.012 95.0795 206.372 95.0635 206.86C95.0555 207.172 95.0555 207.456 95.0635 207.712C95.0875 208.208 95.1995 208.568 95.3995 208.792C95.6075 209.016 95.8915 209.128 96.2515 209.128C96.5315 209.128 96.7555 209.068 96.9235 208.948C97.0915 208.828 97.2315 208.628 97.3435 208.348C97.3755 208.268 97.4155 208.208 97.4635 208.168C97.5115 208.12 97.5755 208.096 97.6555 208.096H98.9395C99.0195 208.096 99.0875 208.128 99.1435 208.192C99.2075 208.248 99.2355 208.316 99.2275 208.396C99.2195 208.532 99.1795 208.692 99.1075 208.876C99.0435 209.06 98.9355 209.248 98.7835 209.44C98.6395 209.632 98.4515 209.812 98.2195 209.98C97.9875 210.14 97.7035 210.272 97.3675 210.376C97.0395 210.472 96.6555 210.52 96.2155 210.52ZM102.3 210.4C102.212 210.4 102.14 210.372 102.084 210.316C102.028 210.26 102 210.188 102 210.1V205.576H100.116C100.028 205.576 99.9564 205.548 99.9004 205.492C99.8444 205.436 99.8164 205.364 99.8164 205.276V204.46C99.8164 204.372 99.8444 204.3 99.9004 204.244C99.9564 204.188 100.028 204.16 100.116 204.16H105.648C105.736 204.16 105.808 204.188 105.864 204.244C105.92 204.3 105.948 204.372 105.948 204.46V205.276C105.948 205.364 105.92 205.436 105.864 205.492C105.808 205.548 105.736 205.576 105.648 205.576H103.764V210.1C103.764 210.188 103.736 210.26 103.68 210.316C103.624 210.372 103.556 210.4 103.476 210.4H102.3ZM107.173 212.68C107.085 212.68 107.013 212.652 106.957 212.596C106.901 212.54 106.873 212.468 106.873 212.38V204.46C106.873 204.372 106.901 204.3 106.957 204.244C107.013 204.188 107.085 204.16 107.173 204.16H108.313C108.401 204.16 108.473 204.188 108.529 204.244C108.585 204.3 108.613 204.372 108.613 204.46V204.916C108.805 204.66 109.053 204.452 109.357 204.292C109.661 204.124 110.041 204.04 110.497 204.04C110.913 204.04 111.273 204.108 111.577 204.244C111.889 204.372 112.149 204.56 112.357 204.808C112.573 205.048 112.737 205.34 112.849 205.684C112.969 206.028 113.037 206.416 113.053 206.848C113.061 207 113.065 207.144 113.065 207.28C113.065 207.416 113.061 207.564 113.053 207.724C113.045 208.132 112.981 208.508 112.861 208.852C112.749 209.196 112.585 209.492 112.369 209.74C112.153 209.988 111.889 210.18 111.577 210.316C111.273 210.452 110.913 210.52 110.497 210.52C110.089 210.52 109.733 210.448 109.429 210.304C109.133 210.152 108.889 209.948 108.697 209.692V212.38C108.697 212.468 108.669 212.54 108.613 212.596C108.557 212.652 108.489 212.68 108.409 212.68H107.173ZM109.957 209.08C110.261 209.08 110.501 209.016 110.677 208.888C110.853 208.752 110.977 208.576 111.049 208.36C111.129 208.144 111.177 207.908 111.193 207.652C111.209 207.404 111.209 207.156 111.193 206.908C111.177 206.652 111.129 206.416 111.049 206.2C110.977 205.984 110.853 205.812 110.677 205.684C110.501 205.548 110.261 205.48 109.957 205.48C109.661 205.48 109.421 205.548 109.237 205.684C109.053 205.82 108.921 205.992 108.841 206.2C108.761 206.408 108.713 206.632 108.697 206.872C108.689 207.016 108.685 207.164 108.685 207.316C108.685 207.468 108.689 207.62 108.697 207.772C108.705 207.996 108.753 208.208 108.841 208.408C108.937 208.6 109.073 208.76 109.249 208.888C109.433 209.016 109.669 209.08 109.957 209.08ZM116.174 210.52C115.75 210.52 115.37 210.44 115.034 210.28C114.698 210.112 114.43 209.888 114.23 209.608C114.03 209.328 113.93 209.016 113.93 208.672C113.93 208.104 114.158 207.656 114.614 207.328C115.078 207 115.686 206.776 116.438 206.656L118.01 206.428V206.212C118.01 205.9 117.938 205.66 117.794 205.492C117.65 205.324 117.398 205.24 117.038 205.24C116.774 205.24 116.562 205.292 116.402 205.396C116.242 205.5 116.118 205.636 116.03 205.804C115.966 205.908 115.874 205.96 115.754 205.96H114.614C114.526 205.96 114.458 205.936 114.41 205.888C114.362 205.832 114.342 205.768 114.35 205.696C114.35 205.56 114.402 205.4 114.506 205.216C114.61 205.032 114.77 204.852 114.986 204.676C115.202 204.492 115.478 204.34 115.814 204.22C116.15 204.1 116.562 204.04 117.05 204.04C117.554 204.04 117.986 204.1 118.346 204.22C118.706 204.34 118.994 204.508 119.21 204.724C119.426 204.94 119.586 205.192 119.69 205.48C119.794 205.76 119.846 206.064 119.846 206.392V210.1C119.846 210.188 119.818 210.26 119.762 210.316C119.706 210.372 119.634 210.4 119.546 210.4H118.37C118.29 210.4 118.222 210.372 118.166 210.316C118.11 210.26 118.082 210.188 118.082 210.1V209.656C117.978 209.808 117.838 209.952 117.662 210.088C117.486 210.216 117.274 210.32 117.026 210.4C116.786 210.48 116.502 210.52 116.174 210.52ZM116.654 209.272C116.918 209.272 117.154 209.216 117.362 209.104C117.57 208.992 117.734 208.82 117.854 208.588C117.974 208.356 118.034 208.064 118.034 207.712V207.508L116.918 207.688C116.486 207.76 116.17 207.868 115.97 208.012C115.77 208.156 115.67 208.332 115.67 208.54C115.67 208.692 115.714 208.824 115.802 208.936C115.898 209.048 116.022 209.132 116.174 209.188C116.326 209.244 116.486 209.272 116.654 209.272Z" fill="black"/>
<path d="M46.4561 82C46.2948 82 46.1701 81.9487 46.0821 81.846C46.0088 81.7433 45.9868 81.6113 46.0161 81.45L49.0521 67.15C49.0815 66.9887 49.1548 66.8567 49.2721 66.754C49.4041 66.6513 49.5508 66.6 49.7121 66.6H61.5701C61.7315 66.6 61.8488 66.6513 61.9221 66.754C62.0101 66.8567 62.0395 66.9887 62.0101 67.15L58.9521 81.45C58.9228 81.6113 58.8495 81.7433 58.7321 81.846C58.6148 81.9487 58.4755 82 58.3141 82H55.9161C55.7548 82 55.6301 81.9487 55.5421 81.846C55.4688 81.7433 55.4468 81.6113 55.4761 81.45L57.9841 69.724H52.0001L49.4921 81.45C49.4628 81.6113 49.3895 81.7433 49.2721 81.846C49.1548 81.9487 49.0155 82 48.8541 82H46.4561ZM62.8088 86.18C62.6475 86.18 62.5302 86.1287 62.4568 86.026C62.3835 85.9233 62.3615 85.7913 62.3908 85.63L65.4928 71.11C65.5222 70.9487 65.5955 70.8167 65.7128 70.714C65.8302 70.6113 65.9695 70.56 66.1308 70.56H68.2208C68.3822 70.56 68.4995 70.6113 68.5728 70.714C68.6608 70.8167 68.6902 70.9487 68.6608 71.11L68.4848 71.946C68.9248 71.4767 69.4602 71.0953 70.0908 70.802C70.7215 70.494 71.4548 70.34 72.2908 70.34C73.0535 70.34 73.6915 70.4647 74.2048 70.714C74.7182 70.9487 75.1215 71.2933 75.4148 71.748C75.7082 72.188 75.8915 72.7233 75.9648 73.354C76.0382 73.9847 76.0088 74.696 75.8768 75.488C75.8328 75.7667 75.7815 76.0307 75.7228 76.28C75.6642 76.5293 75.6055 76.8007 75.5468 77.094C75.2975 78.0913 74.9088 78.9787 74.3808 79.756C73.8528 80.5187 73.2002 81.12 72.4228 81.56C71.6455 82 70.7582 82.22 69.7608 82.22C69.0128 82.22 68.3895 82.088 67.8908 81.824C67.3922 81.5453 67.0255 81.1713 66.7908 80.702L65.7348 85.63C65.7055 85.7913 65.6248 85.9233 65.4928 86.026C65.3608 86.1287 65.2215 86.18 65.0748 86.18H62.8088ZM69.3208 79.58C69.8928 79.58 70.3548 79.4627 70.7068 79.228C71.0735 78.9787 71.3742 78.656 71.6088 78.26C71.8435 77.864 72.0195 77.4313 72.1368 76.962C72.2102 76.742 72.2688 76.5147 72.3128 76.28C72.3715 76.0453 72.4155 75.818 72.4448 75.598C72.5035 75.1287 72.5035 74.696 72.4448 74.3C72.3862 73.904 72.2248 73.5887 71.9608 73.354C71.6968 73.1047 71.2862 72.98 70.7288 72.98C70.1862 72.98 69.7168 73.1047 69.3208 73.354C68.9395 73.6033 68.6315 73.9187 68.3968 74.3C68.1622 74.6813 67.9935 75.092 67.8908 75.532C67.8175 75.796 67.7442 76.0673 67.6708 76.346C67.6122 76.6247 67.5608 76.9033 67.5168 77.182C67.4582 77.5927 67.4655 77.9813 67.5388 78.348C67.6268 78.7 67.8175 78.9933 68.1108 79.228C68.4042 79.4627 68.8075 79.58 69.3208 79.58ZM82.0604 82.22C80.9457 82.22 80.0144 82.0147 79.2664 81.604C78.533 81.1787 78.027 80.5553 77.7484 79.734C77.4697 78.9127 77.433 77.908 77.6384 76.72C77.6677 76.6027 77.697 76.4487 77.7264 76.258C77.7704 76.0527 77.8144 75.8913 77.8584 75.774C78.1517 74.6447 78.6064 73.6767 79.2224 72.87C79.853 72.0487 80.623 71.4253 81.5324 71C82.4564 70.56 83.4684 70.34 84.5684 70.34C85.8004 70.34 86.7684 70.5967 87.4724 71.11C88.191 71.6087 88.6677 72.298 88.9024 73.178C89.137 74.0433 89.137 75.0407 88.9024 76.17L88.8144 76.676C88.785 76.8227 88.7044 76.9473 88.5724 77.05C88.4404 77.1527 88.2937 77.204 88.1324 77.204H80.9604C80.9604 77.2187 80.953 77.248 80.9384 77.292C80.9384 77.3213 80.931 77.3507 80.9164 77.38C80.843 77.8493 80.843 78.282 80.9164 78.678C80.9897 79.0593 81.1584 79.3673 81.4224 79.602C81.701 79.8367 82.0604 79.954 82.5004 79.954C82.8524 79.954 83.1604 79.9027 83.4244 79.8C83.6884 79.6973 83.9084 79.5727 84.0844 79.426C84.275 79.2793 84.4217 79.1547 84.5244 79.052C84.6857 78.9053 84.8104 78.8173 84.8984 78.788C84.9864 78.744 85.1184 78.722 85.2944 78.722H87.5824C87.729 78.722 87.839 78.766 87.9124 78.854C87.9857 78.9273 88.0004 79.0373 87.9564 79.184C87.8977 79.4187 87.7144 79.712 87.4064 80.064C87.113 80.4013 86.7097 80.7387 86.1964 81.076C85.683 81.3987 85.0744 81.67 84.3704 81.89C83.681 82.11 82.911 82.22 82.0604 82.22ZM81.4004 75.202H85.7124V75.158C85.8444 74.63 85.859 74.1753 85.7564 73.794C85.6684 73.398 85.485 73.09 85.2064 72.87C84.9277 72.65 84.561 72.54 84.1064 72.54C83.6517 72.54 83.241 72.65 82.8744 72.87C82.5077 73.09 82.1997 73.398 81.9504 73.794C81.7157 74.1753 81.5324 74.63 81.4004 75.158V75.202ZM90.6626 82C90.5159 82 90.3986 81.9487 90.3106 81.846C90.2226 81.7433 90.1932 81.6113 90.2226 81.45L92.4446 71.11C92.4739 70.9487 92.5472 70.8167 92.6646 70.714C92.7966 70.6113 92.9359 70.56 93.0826 70.56H95.2386C95.3999 70.56 95.5172 70.6113 95.5906 70.714C95.6786 70.8167 95.7079 70.9487 95.6786 71.11L94.8646 74.894H96.0966L99.4626 70.912C99.5359 70.824 99.6239 70.7433 99.7266 70.67C99.8292 70.5967 99.9612 70.56 100.123 70.56H102.609C102.741 70.56 102.843 70.604 102.917 70.692C102.99 70.7653 103.019 70.8607 103.005 70.978C102.99 71.066 102.931 71.1687 102.829 71.286L98.5606 76.258L100.959 81.296C100.988 81.34 101.003 81.384 101.003 81.428C101.017 81.472 101.017 81.5233 101.003 81.582C100.988 81.6993 100.922 81.802 100.805 81.89C100.702 81.9633 100.577 82 100.431 82H98.0986C97.9519 82 97.8346 81.9707 97.7466 81.912C97.6586 81.8387 97.5926 81.7507 97.5486 81.648L95.6786 77.512H94.3146L93.4566 81.45C93.4272 81.6113 93.3539 81.7433 93.2366 81.846C93.1192 81.9487 92.9799 82 92.8186 82H90.6626ZM103.247 86.202C103.1 86.202 102.99 86.1433 102.917 86.026C102.829 85.9233 102.799 85.7987 102.829 85.652L103.159 84.134C103.188 83.9873 103.261 83.8627 103.379 83.76C103.511 83.6573 103.657 83.606 103.819 83.606H104.523C104.816 83.606 105.065 83.5473 105.271 83.43C105.476 83.3273 105.674 83.1513 105.865 82.902C106.07 82.6527 106.312 82.308 106.591 81.868L113.389 71C113.477 70.868 113.572 70.7653 113.675 70.692C113.777 70.604 113.924 70.56 114.115 70.56H116.183C116.315 70.56 116.41 70.604 116.469 70.692C116.542 70.7653 116.571 70.8607 116.557 70.978C116.557 71.0807 116.513 71.198 116.425 71.33L110.045 81.362C109.605 82.0367 109.172 82.6673 108.747 83.254C108.336 83.8407 107.903 84.354 107.449 84.794C106.994 85.234 106.51 85.5787 105.997 85.828C105.483 86.0773 104.911 86.202 104.281 86.202H103.247ZM106.921 81.736L104.655 71.33C104.611 71.1247 104.625 70.9707 104.699 70.868C104.743 70.78 104.809 70.7067 104.897 70.648C104.999 70.5893 105.109 70.56 105.227 70.56H107.229C107.405 70.56 107.529 70.6113 107.603 70.714C107.676 70.802 107.72 70.8973 107.735 71L109.363 79.228L106.921 81.736ZM60.8323 106.18C60.6709 106.18 60.5536 106.129 60.4803 106.026C60.4069 105.923 60.3849 105.791 60.4143 105.63L63.5163 91.11C63.5456 90.9487 63.6189 90.8167 63.7363 90.714C63.8536 90.6113 63.9929 90.56 64.1543 90.56H66.2443C66.4056 90.56 66.5229 90.6113 66.5963 90.714C66.6843 90.8167 66.7136 90.9487 66.6843 91.11L66.5083 91.946C66.9483 91.4767 67.4836 91.0953 68.1143 90.802C68.7449 90.494 69.4783 90.34 70.3143 90.34C71.0769 90.34 71.7149 90.4647 72.2283 90.714C72.7416 90.9487 73.1449 91.2933 73.4383 91.748C73.7316 92.188 73.9149 92.7233 73.9883 93.354C74.0616 93.9847 74.0323 94.696 73.9003 95.488C73.8563 95.7667 73.8049 96.0307 73.7463 96.28C73.6876 96.5293 73.6289 96.8007 73.5703 97.094C73.3209 98.0913 72.9323 98.9787 72.4043 99.756C71.8763 100.519 71.2236 101.12 70.4463 101.56C69.6689 102 68.7816 102.22 67.7843 102.22C67.0363 102.22 66.4129 102.088 65.9143 101.824C65.4156 101.545 65.0489 101.171 64.8143 100.702L63.7583 105.63C63.7289 105.791 63.6483 105.923 63.5163 106.026C63.3843 106.129 63.2449 106.18 63.0983 106.18H60.8323ZM67.3443 99.58C67.9163 99.58 68.3783 99.4627 68.7303 99.228C69.0969 98.9787 69.3976 98.656 69.6323 98.26C69.8669 97.864 70.0429 97.4313 70.1603 96.962C70.2336 96.742 70.2923 96.5147 70.3363 96.28C70.3949 96.0453 70.4389 95.818 70.4683 95.598C70.5269 95.1287 70.5269 94.696 70.4683 94.3C70.4096 93.904 70.2483 93.5887 69.9843 93.354C69.7203 93.1047 69.3096 92.98 68.7523 92.98C68.2096 92.98 67.7403 93.1047 67.3443 93.354C66.9629 93.6033 66.6549 93.9187 66.4203 94.3C66.1856 94.6813 66.0169 95.092 65.9143 95.532C65.8409 95.796 65.7676 96.0673 65.6943 96.346C65.6356 96.6247 65.5843 96.9033 65.5403 97.182C65.4816 97.5927 65.4889 97.9813 65.5623 98.348C65.6503 98.7 65.8409 98.9933 66.1343 99.228C66.4276 99.4627 66.8309 99.58 67.3443 99.58ZM80.0838 102.22C78.9692 102.22 78.0378 102.015 77.2898 101.604C76.5565 101.179 76.0505 100.555 75.7718 99.734C75.4932 98.9127 75.4565 97.908 75.6618 96.72C75.6912 96.6027 75.7205 96.4487 75.7498 96.258C75.7938 96.0527 75.8378 95.8913 75.8818 95.774C76.1752 94.6447 76.6298 93.6767 77.2458 92.87C77.8765 92.0487 78.6465 91.4253 79.5558 91C80.4798 90.56 81.4918 90.34 82.5918 90.34C83.8238 90.34 84.7918 90.5967 85.4958 91.11C86.2145 91.6087 86.6912 92.298 86.9258 93.178C87.1605 94.0433 87.1605 95.0407 86.9258 96.17L86.8378 96.676C86.8085 96.8227 86.7278 96.9473 86.5958 97.05C86.4638 97.1527 86.3172 97.204 86.1558 97.204H78.9838C78.9838 97.2187 78.9765 97.248 78.9618 97.292C78.9618 97.3213 78.9545 97.3507 78.9398 97.38C78.8665 97.8493 78.8665 98.282 78.9398 98.678C79.0132 99.0593 79.1818 99.3673 79.4458 99.602C79.7245 99.8367 80.0838 99.954 80.5238 99.954C80.8758 99.954 81.1838 99.9027 81.4478 99.8C81.7118 99.6973 81.9318 99.5727 82.1078 99.426C82.2985 99.2793 82.4452 99.1547 82.5478 99.052C82.7092 98.9053 82.8338 98.8173 82.9218 98.788C83.0098 98.744 83.1418 98.722 83.3178 98.722H85.6058C85.7525 98.722 85.8625 98.766 85.9358 98.854C86.0092 98.9273 86.0238 99.0373 85.9798 99.184C85.9212 99.4187 85.7378 99.712 85.4298 100.064C85.1365 100.401 84.7332 100.739 84.2198 101.076C83.7065 101.399 83.0978 101.67 82.3938 101.89C81.7045 102.11 80.9345 102.22 80.0838 102.22ZM79.4238 95.202H83.7358V95.158C83.8678 94.63 83.8825 94.1753 83.7798 93.794C83.6918 93.398 83.5085 93.09 83.2298 92.87C82.9512 92.65 82.5845 92.54 82.1298 92.54C81.6752 92.54 81.2645 92.65 80.8978 92.87C80.5312 93.09 80.2232 93.398 79.9738 93.794C79.7392 94.1753 79.5558 94.63 79.4238 95.158V95.202ZM93.306 102.22C92.1473 102.22 91.1867 102.022 90.424 101.626C89.6613 101.215 89.1113 100.636 88.774 99.888C88.4513 99.14 88.3707 98.2673 88.532 97.27C88.5613 97.094 88.5833 96.9473 88.598 96.83C88.6273 96.698 88.6567 96.566 88.686 96.434C88.73 96.302 88.774 96.1407 88.818 95.95C89.082 94.9527 89.478 94.0947 90.006 93.376C90.5487 92.6427 91.238 92.078 92.074 91.682C92.91 91.286 93.9 91.088 95.044 91.088C95.6747 91.088 96.2467 91.198 96.76 91.418C97.2733 91.6233 97.7133 91.924 98.08 92.32C98.2413 91.352 98.212 90.5527 97.992 89.922C97.7867 89.2913 97.3687 88.8147 96.738 88.492C96.1073 88.1547 95.22 87.964 94.076 87.92C93.9147 87.92 93.7827 87.8687 93.68 87.766C93.5773 87.6633 93.526 87.5387 93.526 87.392V86.05C93.526 85.9033 93.5773 85.7787 93.68 85.676C93.7827 85.5587 93.9147 85.4927 94.076 85.478C95.9973 85.5073 97.4787 85.874 98.52 86.578C99.5613 87.2673 100.229 88.272 100.522 89.592C100.83 90.912 100.808 92.54 100.456 94.476C100.412 94.9013 100.331 95.3487 100.214 95.818C100.111 96.2727 99.9867 96.7567 99.84 97.27C99.576 98.2673 99.1653 99.14 98.608 99.888C98.0653 100.636 97.354 101.215 96.474 101.626C95.6087 102.022 94.5527 102.22 93.306 102.22ZM93.57 99.8C94.2887 99.8 94.89 99.58 95.374 99.14C95.858 98.6853 96.2173 98.0253 96.452 97.16C96.5107 96.9693 96.562 96.786 96.606 96.61C96.65 96.434 96.6867 96.2507 96.716 96.06C96.8187 95.5467 96.8187 95.0993 96.716 94.718C96.628 94.3367 96.4447 94.0433 96.166 93.838C95.902 93.618 95.55 93.508 95.11 93.508C94.3327 93.508 93.7167 93.728 93.262 94.168C92.8073 94.608 92.4553 95.2387 92.206 96.06C92.1473 96.2507 92.096 96.434 92.052 96.61C92.0227 96.786 91.9933 96.9693 91.964 97.16C91.832 98.0253 91.8833 98.6853 92.118 99.14C92.3527 99.58 92.8367 99.8 93.57 99.8Z" fill="black"/>
<path d="M89.3919 138.618L77.0805 138.602C76.5703 138.573 76.1338 138.216 76.0991 137.606L76.0506 119.079C76.0793 118.569 76.4359 118.133 77.0466 118.098L89.358 118.114C89.8683 118.143 90.3047 118.499 90.3394 119.11L90.3879 137.637C90.3592 138.147 89.9206 138.565 89.3919 138.618Z" fill="white" stroke="#636363" stroke-width="1.4173" stroke-miterlimit="10"/>
<path d="M66.7692 131.538C66.6759 131.538 66.6012 131.505 66.5452 131.44C66.4892 131.375 66.4706 131.291 66.4892 131.188L67.0492 128.542H64.4592C64.3659 128.542 64.2912 128.509 64.2352 128.444C64.1886 128.379 64.1746 128.299 64.1932 128.206L64.3752 127.324C64.3939 127.221 64.4406 127.137 64.5152 127.072C64.5992 127.007 64.6926 126.974 64.7952 126.974H67.3852L67.9312 124.412C67.9499 124.309 68.0012 124.225 68.0852 124.16C68.1692 124.095 68.2579 124.062 68.3512 124.062H69.3312C69.4339 124.062 69.5086 124.095 69.5552 124.16C69.6019 124.225 69.6159 124.309 69.5972 124.412L69.0512 126.974H71.6412C71.7346 126.974 71.8046 127.007 71.8512 127.072C71.9072 127.137 71.9259 127.221 71.9072 127.324L71.7252 128.206C71.7066 128.299 71.6552 128.379 71.5712 128.444C71.4966 128.509 71.4079 128.542 71.3052 128.542H68.7152L68.1552 131.188C68.1366 131.291 68.0899 131.375 68.0152 131.44C67.9406 131.505 67.8519 131.538 67.7492 131.538H66.7692Z" fill="black"/>
<path d="M92.4196 137.776L80.1533 136.767C79.6492 136.683 79.2291 136.263 79.2291 135.759L80.7414 117.276C80.8254 116.772 81.2455 116.352 81.7496 116.352L94.0159 117.36C94.52 117.444 94.9401 117.864 94.9401 118.368L93.4278 136.851C93.4278 137.44 92.9237 137.86 92.4196 137.776Z" fill="white" stroke="#636363" stroke-width="1.4173" stroke-miterlimit="10"/>
<path d="M83.2696 131.377C83.1783 131.38 83.107 131.353 83.0556 131.296C83.0125 131.239 82.998 131.165 83.012 131.073L83.1739 130.184C83.1889 130.126 83.2238 130.038 83.2786 129.92C83.3332 129.794 83.4419 129.675 83.6048 129.562L85.1247 128.249C85.882 127.722 86.5046 127.277 86.9926 126.915C87.4886 126.544 87.8655 126.218 88.1233 125.937C88.3894 125.655 88.544 125.393 88.587 125.152C88.6372 124.868 88.6058 124.636 88.4929 124.457C88.3797 124.269 88.1448 124.18 87.7881 124.19C87.5392 124.197 87.325 124.257 87.1456 124.37C86.9741 124.474 86.8285 124.611 86.7088 124.781C86.5973 124.95 86.5066 125.123 86.4368 125.299C86.3901 125.408 86.3217 125.485 86.2316 125.529C86.1498 125.573 86.0633 125.596 85.972 125.598L84.4167 125.642C84.3337 125.644 84.2708 125.621 84.2279 125.572C84.1934 125.523 84.1833 125.462 84.1978 125.386C84.2779 124.986 84.4293 124.608 84.6518 124.253C84.8826 123.898 85.1685 123.583 85.5095 123.307C85.8502 123.024 86.2425 122.801 86.6862 122.639C87.13 122.478 87.6049 122.39 88.1109 122.375C88.8243 122.356 89.4039 122.451 89.8498 122.663C90.304 122.875 90.6198 123.181 90.7971 123.583C90.9824 123.976 91.0245 124.444 90.9235 124.987C90.8519 125.395 90.6925 125.782 90.4453 126.146C90.2062 126.501 89.8921 126.846 89.503 127.181C89.1219 127.507 88.6749 127.847 88.1618 128.202L86.8006 129.398L90.0108 129.308C90.102 129.306 90.1692 129.333 90.2123 129.39C90.2554 129.447 90.27 129.521 90.2559 129.613L90.0298 130.877C90.0157 130.968 89.9722 131.044 89.8992 131.105C89.8261 131.165 89.744 131.196 89.6527 131.199L83.2696 131.377Z" fill="black"/>
<path d="M125.832 40.3199H120V35.9165H125.479V32.1746H120V23.4403L122.767 25.9356L125.534 23.4403L125.479 30.0146M131.786 29.8414V27.9905M131.786 27.9905V23H137.32V27.9905H131.786ZM131.786 27.9905L137.32 31.9535L131.786 35.7697M131.786 35.7697H137.32V40.3199H131.786V35.7697ZM131.786 35.7697V33.775V32.2133" stroke="black" stroke-miterlimit="16" stroke-linecap="square"/>
<path d="M126.66 33.4858L130.659 29.4868" stroke="black" stroke-miterlimit="16"/>
<path d="M126.7 29.5269L130.619 33.4459" stroke="black" stroke-miterlimit="16"/>
</svg>
