<svg width="161" height="247" viewBox="0 0 161 247" fill="none" xmlns="http://www.w3.org/2000/svg">
<rect width="161" height="247" fill="white"/>
<rect x="0.5" y="0.5" width="160" height="246" stroke="black" stroke-opacity="0.1"/>
<rect x="3" y="3" width="155" height="241" rx="13" fill="white"/>
<path d="M8 18C8 12.4772 12.4772 8 18 8H143C148.523 8 153 12.4772 153 18V45C153 46.1046 152.105 47 151 47H10C8.89543 47 8 46.1046 8 45V18Z" fill="#2388FF"/>
<path d="M8.5 18C8.5 12.7533 12.7533 8.5 18 8.5H143C148.247 8.5 152.5 12.7533 152.5 18V45C152.5 45.8284 151.828 46.5 151 46.5H10C9.17157 46.5 8.5 45.8284 8.5 45V18Z" stroke="black" stroke-opacity="0.3"/>
<path d="M59.286 32C59.2053 32 59.1393 31.9743 59.088 31.923C59.044 31.8643 59.0293 31.7947 59.044 31.714L60.562 24.586C60.5767 24.5053 60.617 24.4393 60.683 24.388C60.7563 24.3293 60.8333 24.3 60.914 24.3H63.928C64.3827 24.3 64.8007 24.355 65.182 24.465C65.5633 24.5677 65.886 24.729 66.15 24.949C66.414 25.169 66.5973 25.444 66.7 25.774C66.81 26.0967 66.821 26.478 66.733 26.918C66.5423 27.798 66.1573 28.4433 65.578 28.854C65.006 29.2573 64.2177 29.459 63.213 29.459H61.981L61.497 31.714C61.4823 31.7947 61.442 31.8643 61.376 31.923C61.31 31.9743 61.2367 32 61.156 32H59.286ZM62.311 27.688H63.334C63.5393 27.688 63.7337 27.6257 63.917 27.501C64.1003 27.369 64.2213 27.1673 64.28 26.896C64.3167 26.7567 64.324 26.6247 64.302 26.5C64.2873 26.3753 64.2323 26.2763 64.137 26.203C64.049 26.1223 63.9023 26.082 63.697 26.082H62.663L62.311 27.688ZM66.8915 32C66.8108 32 66.7448 31.9743 66.6935 31.923C66.6495 31.8643 66.6348 31.7947 66.6495 31.714L68.1675 24.586C68.1821 24.5053 68.2225 24.4393 68.2885 24.388C68.3618 24.3293 68.4388 24.3 68.5195 24.3H73.9095C73.9901 24.3 74.0525 24.3293 74.0965 24.388C74.1405 24.4393 74.1551 24.5053 74.1405 24.586L73.8655 25.884C73.8508 25.9573 73.8068 26.0233 73.7335 26.082C73.6675 26.1407 73.5941 26.17 73.5135 26.17H70.1145L69.8725 27.259H73.0295C73.1101 27.259 73.1725 27.2883 73.2165 27.347C73.2678 27.3983 73.2861 27.4643 73.2715 27.545L73.0075 28.733C72.9928 28.8137 72.9488 28.8833 72.8755 28.942C72.8095 28.9933 72.7361 29.019 72.6555 29.019H69.4985L69.2675 30.13H72.7545C72.8351 30.13 72.8975 30.1593 72.9415 30.218C72.9855 30.2767 73.0001 30.3463 72.9855 30.427L72.7105 31.714C72.6958 31.7947 72.6555 31.8643 72.5895 31.923C72.5235 31.9743 72.4501 32 72.3695 32H66.8915ZM82.1083 24.3C82.1743 24.3 82.2256 24.3257 82.2623 24.377C82.2989 24.421 82.3099 24.476 82.2953 24.542C82.2879 24.586 82.2659 24.6263 82.2293 24.663L79.5123 27.996L80.9533 31.637C80.9679 31.6737 80.9679 31.714 80.9533 31.758C80.9386 31.824 80.9019 31.8827 80.8433 31.934C80.7846 31.978 80.7223 32 80.6562 32H78.6873C78.5553 32 78.4636 31.9707 78.4123 31.912C78.3609 31.846 78.3279 31.7983 78.3133 31.769L77.3343 29.162H76.7403L76.1903 31.714C76.1756 31.7947 76.1353 31.8643 76.0693 31.923C76.0033 31.9743 75.9299 32 75.8493 32H74.0563C73.9829 32 73.9206 31.9743 73.8693 31.923C73.8253 31.8717 73.8106 31.802 73.8253 31.714L75.3433 24.586C75.3579 24.5053 75.3983 24.4393 75.4643 24.388C75.5376 24.3293 75.6109 24.3 75.6843 24.3H77.4773C77.5579 24.3 77.6203 24.3293 77.6643 24.388C77.7083 24.4393 77.7229 24.5053 77.7083 24.586L77.1803 27.072H77.5983L79.6223 24.531C79.6663 24.4723 79.7249 24.421 79.7983 24.377C79.8789 24.3257 79.9743 24.3 80.0843 24.3H82.1083ZM84.28 32C84.2066 32 84.148 31.9743 84.104 31.923C84.0526 31.8643 84.0343 31.7947 84.049 31.714L85.567 24.586C85.5816 24.5053 85.622 24.4393 85.688 24.388C85.7613 24.3293 85.8346 24.3 85.908 24.3H91.397C91.4776 24.3 91.54 24.3293 91.584 24.388C91.6353 24.4393 91.6536 24.5053 91.639 24.586L91.342 25.972C91.32 26.0527 91.276 26.1223 91.21 26.181C91.144 26.2323 91.0706 26.258 90.99 26.258H87.58L87.382 27.182H88.647C89.2703 27.182 89.7836 27.281 90.187 27.479C90.5976 27.6697 90.8836 27.941 91.045 28.293C91.2063 28.645 91.2356 29.0667 91.133 29.558C91.0596 29.9173 90.924 30.2473 90.726 30.548C90.528 30.8487 90.2786 31.109 89.978 31.329C89.6773 31.5417 89.329 31.7067 88.933 31.824C88.5443 31.9413 88.108 32 87.624 32H84.28ZM86.711 30.339H87.778C87.9393 30.339 88.0786 30.3023 88.196 30.229C88.3206 30.1483 88.4233 30.0493 88.504 29.932C88.592 29.8147 88.6506 29.69 88.68 29.558C88.724 29.3527 88.6983 29.173 88.603 29.019C88.5076 28.865 88.3426 28.788 88.108 28.788H87.041L86.711 30.339ZM93.4874 32.11C93.0841 32.11 92.7284 32.0183 92.4204 31.835C92.1197 31.6517 91.9034 31.3767 91.7714 31.01C91.6467 30.6433 91.6467 30.1813 91.7714 29.624L92.4094 26.566C92.4241 26.4853 92.4644 26.4193 92.5304 26.368C92.6037 26.3093 92.6807 26.28 92.7614 26.28H94.4994C94.5801 26.28 94.6424 26.3093 94.6864 26.368C94.7304 26.4193 94.7451 26.4853 94.7304 26.566L94.0924 29.547C94.0557 29.7303 94.0484 29.8843 94.0704 30.009C94.0924 30.1337 94.1511 30.229 94.2464 30.295C94.3417 30.361 94.4737 30.394 94.6424 30.394C94.8917 30.394 95.1007 30.3207 95.2694 30.174C95.4454 30.0273 95.5627 29.8183 95.6214 29.547L96.2484 26.566C96.2631 26.4853 96.3034 26.4193 96.3694 26.368C96.4427 26.3093 96.5197 26.28 96.6004 26.28H98.3384C98.4191 26.28 98.4777 26.3093 98.5144 26.368C98.5584 26.4193 98.5731 26.4853 98.5584 26.566L97.4694 31.714C97.4547 31.7947 97.4144 31.8643 97.3484 31.923C97.2824 31.9743 97.2091 32 97.1284 32H95.5224C95.4417 32 95.3794 31.9743 95.3354 31.923C95.2914 31.8643 95.2767 31.7947 95.2914 31.714L95.3794 31.318C95.2181 31.494 95.0494 31.6407 94.8734 31.758C94.6974 31.8753 94.4994 31.9633 94.2794 32.022C94.0594 32.0807 93.7954 32.11 93.4874 32.11ZM100.365 32C100.284 32 100.222 31.9743 100.178 31.923C100.134 31.8643 100.119 31.7947 100.134 31.714L100.937 27.963H99.3639C99.2906 27.963 99.2319 27.9373 99.1879 27.886C99.1439 27.8273 99.1292 27.7577 99.1439 27.677L99.3859 26.566C99.4006 26.4853 99.4409 26.4193 99.5069 26.368C99.5729 26.3093 99.6462 26.28 99.7269 26.28H105.029C105.11 26.28 105.172 26.3093 105.216 26.368C105.26 26.4193 105.275 26.4853 105.26 26.566L105.029 27.677C105.014 27.7577 104.97 27.8273 104.897 27.886C104.824 27.9373 104.75 27.963 104.677 27.963H103.104L102.301 31.714C102.294 31.7947 102.253 31.8643 102.18 31.923C102.114 31.9743 102.044 32 101.971 32H100.365ZM107.696 32.11C107.087 32.11 106.574 32.0147 106.156 31.824C105.738 31.6333 105.434 31.3547 105.243 30.988C105.052 30.614 104.997 30.1667 105.078 29.646C105.1 29.492 105.129 29.3233 105.166 29.14C105.203 28.9567 105.243 28.788 105.287 28.634C105.441 28.106 105.665 27.6587 105.958 27.292C106.251 26.9253 106.629 26.6467 107.091 26.456C107.56 26.2653 108.118 26.17 108.763 26.17C109.35 26.17 109.852 26.2653 110.27 26.456C110.688 26.6467 111 26.9253 111.205 27.292C111.41 27.6587 111.473 28.106 111.392 28.634C111.363 28.788 111.33 28.9567 111.293 29.14C111.256 29.3233 111.216 29.492 111.172 29.646C111.033 30.1667 110.82 30.614 110.534 30.988C110.248 31.3547 109.874 31.6333 109.412 31.824C108.95 32.0147 108.378 32.11 107.696 32.11ZM107.916 30.559C108.187 30.559 108.393 30.4783 108.532 30.317C108.671 30.1557 108.785 29.9137 108.873 29.591C108.902 29.481 108.935 29.3307 108.972 29.14C109.016 28.9493 109.045 28.799 109.06 28.689C109.111 28.3737 109.104 28.1353 109.038 27.974C108.979 27.8053 108.814 27.721 108.543 27.721C108.279 27.721 108.074 27.8053 107.927 27.974C107.788 28.1353 107.678 28.3737 107.597 28.689C107.568 28.799 107.531 28.9493 107.487 29.14C107.443 29.3307 107.414 29.481 107.399 29.591C107.355 29.9137 107.362 30.1557 107.421 30.317C107.48 30.4783 107.645 30.559 107.916 30.559ZM111.755 32C111.682 32 111.623 31.9743 111.579 31.923C111.528 31.8643 111.509 31.7947 111.524 31.714L111.777 30.504C111.821 30.3427 111.938 30.2473 112.129 30.218C112.334 30.1887 112.499 30.097 112.624 29.943C112.756 29.7817 112.866 29.5543 112.954 29.261C113.049 28.9603 113.137 28.601 113.218 28.183L113.57 26.566C113.585 26.4853 113.625 26.4193 113.691 26.368C113.757 26.3093 113.83 26.28 113.911 26.28H118.575C118.656 26.28 118.718 26.3093 118.762 26.368C118.813 26.4193 118.832 26.4853 118.817 26.566L117.706 31.714C117.691 31.7947 117.651 31.8643 117.585 31.923C117.519 31.9743 117.446 32 117.365 32H115.737C115.656 32 115.594 31.9743 115.55 31.923C115.506 31.8643 115.488 31.7947 115.495 31.714L116.298 27.963H115.363L115.264 28.414C115.117 29.1107 114.956 29.6937 114.78 30.163C114.604 30.625 114.388 30.9917 114.131 31.263C113.882 31.527 113.563 31.7177 113.174 31.835C112.793 31.945 112.32 32 111.755 32ZM121.01 32.11C120.673 32.11 120.369 32.0587 120.097 31.956C119.833 31.8533 119.613 31.6957 119.437 31.483C119.269 31.2703 119.155 31.0027 119.096 30.68C119.038 30.3573 119.045 29.9797 119.118 29.547C119.148 29.3857 119.173 29.2463 119.195 29.129C119.225 29.0117 119.258 28.876 119.294 28.722C119.397 28.3113 119.536 27.9483 119.712 27.633C119.888 27.3103 120.097 27.0427 120.339 26.83C120.581 26.6173 120.853 26.456 121.153 26.346C121.461 26.2287 121.795 26.17 122.154 26.17C122.587 26.17 122.917 26.2287 123.144 26.346C123.379 26.456 123.562 26.599 123.694 26.775L123.749 26.566C123.764 26.4853 123.804 26.4193 123.87 26.368C123.936 26.3093 124.006 26.28 124.079 26.28H125.63C125.711 26.28 125.773 26.3093 125.817 26.368C125.861 26.4193 125.876 26.4853 125.861 26.566L124.772 31.714C124.758 31.7947 124.717 31.8643 124.651 31.923C124.585 31.9743 124.512 32 124.431 32H122.88C122.8 32 122.734 31.9743 122.682 31.923C122.638 31.8643 122.624 31.7947 122.638 31.714L122.704 31.406C122.484 31.6187 122.246 31.791 121.989 31.923C121.733 32.0477 121.406 32.11 121.01 32.11ZM122 30.394C122.191 30.394 122.349 30.3537 122.473 30.273C122.605 30.1923 122.712 30.086 122.792 29.954C122.873 29.822 122.935 29.6753 122.979 29.514C123.023 29.3527 123.056 29.2133 123.078 29.096C123.108 28.9787 123.133 28.843 123.155 28.689C123.177 28.535 123.174 28.3993 123.144 28.282C123.122 28.1647 123.064 28.0693 122.968 27.996C122.873 27.9227 122.737 27.886 122.561 27.886C122.378 27.886 122.224 27.9263 122.099 28.007C121.975 28.0803 121.872 28.1867 121.791 28.326C121.718 28.458 121.656 28.612 121.604 28.788C121.575 28.898 121.546 29.0153 121.516 29.14C121.487 29.2647 121.465 29.382 121.45 29.492C121.428 29.668 121.425 29.8257 121.439 29.965C121.454 30.097 121.505 30.2033 121.593 30.284C121.681 30.3573 121.817 30.394 122 30.394Z" fill="#FBFBFB"/>
<path d="M50 107.4H35.4C34.8 107.4 34.2 106.9 34.2 106.2V84.0999C34.2 83.4999 34.7 82.8999 35.4 82.8999H50C50.6 82.8999 51.2 83.3999 51.2 84.0999V106.2C51.2 106.8 50.6 107.4 50 107.4Z" fill="white" stroke="url(#paint0_linear_12_2854)" stroke-width="1.4173" stroke-miterlimit="10"/>
<path d="M48.5 143.2L34.2 146.4C33.6 146.5 33 146.2 32.8 145.5L27.9 124C27.8 123.4 28.1 122.8 28.8 122.6L43.1 119.4C43.7 119.3 44.3 119.6 44.5 120.3L49.4 141.8C49.5 142.4 49.1 143 48.5 143.2Z" fill="white" stroke="url(#paint1_linear_12_2854)" stroke-width="1.4173" stroke-miterlimit="10"/>
<path d="M49.6 145.3L35 144.1C34.4 144 33.9 143.5 33.9 142.9L35.7 120.9C35.8 120.3 36.3 119.8 36.9 119.8L51.5 121C52.1 121.1 52.6 121.6 52.6 122.2L50.8 144.2C50.8 144.9 50.2 145.4 49.6 145.3Z" fill="white" stroke="url(#paint2_linear_12_2854)" stroke-width="1.4173" stroke-miterlimit="10"/>
<path d="M42.1627 99.641C42.0798 99.6433 42.0126 99.6161 41.9612 99.5595C41.9098 99.5028 41.8911 99.4286 41.9052 99.3369L42.9755 93.529L41.1066 94.8265C41.017 94.8871 40.9346 94.9102 40.8595 94.8957C40.7843 94.8812 40.725 94.8372 40.6814 94.7637L40.0674 93.7348C40.0404 93.6609 40.0382 93.5821 40.0608 93.4984C40.0914 93.4062 40.1516 93.334 40.2415 93.2817L43.5142 90.9736C43.5714 90.9388 43.6164 90.9168 43.6494 90.9075C43.6904 90.8898 43.7441 90.88 43.8104 90.8781L45.3782 90.8343C45.4695 90.8317 45.5408 90.8588 45.5922 90.9155C45.6436 90.9721 45.6623 91.0463 45.6482 91.138L44.1449 99.2742C44.1308 99.366 44.0873 99.4419 44.0143 99.502C43.9495 99.562 43.8716 99.5932 43.7803 99.5958L42.1627 99.641Z" fill="black"/>
<path d="M39.793 136.593C39.7017 136.596 39.6304 136.569 39.579 136.512C39.5359 136.455 39.5214 136.381 39.5354 136.289L39.6974 135.401C39.7123 135.342 39.7472 135.254 39.802 135.136C39.8566 135.01 39.9654 134.891 40.1282 134.778L41.6481 133.466C42.4054 132.938 43.028 132.493 43.516 132.131C44.012 131.76 44.3889 131.434 44.6467 131.153C44.9128 130.871 45.0674 130.61 45.1104 130.368C45.1606 130.084 45.1292 129.853 45.0163 129.673C44.9031 129.485 44.6682 129.396 44.3115 129.406C44.0626 129.413 43.8484 129.473 43.669 129.586C43.4976 129.691 43.352 129.828 43.2322 129.997C43.1207 130.166 43.03 130.339 42.9602 130.515C42.9135 130.624 42.8451 130.701 42.755 130.745C42.6732 130.789 42.5867 130.812 42.4954 130.815L40.9401 130.858C40.8571 130.86 40.7942 130.837 40.7513 130.789C40.7168 130.74 40.7067 130.678 40.7212 130.603C40.8013 130.202 40.9527 129.824 41.1752 129.469C41.406 129.114 41.6919 128.799 42.0329 128.524C42.3736 128.24 42.7659 128.018 43.2096 127.856C43.6534 127.694 44.1283 127.606 44.6343 127.592C45.3477 127.572 45.9273 127.668 46.3732 127.879C46.8274 128.091 47.1432 128.397 47.3205 128.799C47.5058 129.193 47.5479 129.66 47.4469 130.203C47.3753 130.612 47.2159 130.998 46.9688 131.362C46.7296 131.717 46.4155 132.062 46.0264 132.397C45.6453 132.723 45.1983 133.063 44.6852 133.418L43.324 134.614L46.5342 134.525C46.6255 134.522 46.6926 134.549 46.7357 134.606C46.7788 134.663 46.7934 134.737 46.7793 134.829L46.5532 136.093C46.5391 136.185 46.4956 136.261 46.4226 136.321C46.3495 136.381 46.2674 136.412 46.1761 136.415L39.793 136.593Z" fill="black"/>
<path d="M70.203 135C70.1517 135 70.112 134.984 70.084 134.951C70.056 134.918 70.0467 134.876 70.056 134.825L70.763 131.535C70.7723 131.484 70.7957 131.442 70.833 131.409C70.875 131.376 70.9217 131.36 70.973 131.36H71.778C71.8293 131.36 71.869 131.376 71.897 131.409C71.925 131.442 71.9343 131.484 71.925 131.535L71.673 132.697H72.016L73.024 131.472C73.0473 131.449 73.0753 131.425 73.108 131.402C73.1407 131.374 73.185 131.36 73.241 131.36H74.158C74.2 131.36 74.2327 131.374 74.256 131.402C74.2793 131.425 74.2887 131.458 74.284 131.5C74.2793 131.528 74.2607 131.561 74.228 131.598L72.884 133.194L73.626 134.769C73.6353 134.783 73.64 134.797 73.64 134.811C73.6447 134.825 73.6447 134.841 73.64 134.86C73.6353 134.902 73.6143 134.937 73.577 134.965C73.5397 134.988 73.5 135 73.458 135H72.576C72.5293 135 72.492 134.991 72.464 134.972C72.436 134.949 72.4127 134.921 72.394 134.888L71.841 133.614H71.477L71.218 134.825C71.2087 134.876 71.183 134.918 71.141 134.951C71.1037 134.984 71.0593 135 71.008 135H70.203ZM76.6399 135.07C76.2666 135.07 75.9539 135.007 75.7019 134.881C75.4499 134.755 75.2679 134.575 75.1559 134.342C75.0486 134.104 75.0206 133.822 75.0719 133.495C75.0813 133.402 75.0976 133.297 75.1209 133.18C75.1489 133.059 75.1769 132.954 75.2049 132.865C75.2936 132.534 75.4289 132.251 75.6109 132.018C75.7929 131.785 76.0263 131.605 76.3109 131.479C76.5956 131.353 76.9339 131.29 77.3259 131.29C77.6946 131.29 78.0049 131.353 78.2569 131.479C78.5089 131.605 78.6933 131.785 78.8099 132.018C78.9266 132.251 78.9593 132.534 78.9079 132.865C78.8893 132.954 78.8683 133.059 78.8449 133.18C78.8216 133.297 78.7983 133.402 78.7749 133.495C78.6863 133.822 78.5533 134.104 78.3759 134.342C78.1986 134.575 77.9676 134.755 77.6829 134.881C77.3983 135.007 77.0506 135.07 76.6399 135.07ZM76.7449 134.216C76.9549 134.216 77.1253 134.153 77.2559 134.027C77.3866 133.901 77.4846 133.712 77.5499 133.46C77.5686 133.39 77.5896 133.297 77.6129 133.18C77.6409 133.063 77.6596 132.97 77.6689 132.9C77.7109 132.653 77.6993 132.466 77.6339 132.34C77.5686 132.209 77.4309 132.144 77.2209 132.144C77.0203 132.144 76.8523 132.209 76.7169 132.34C76.5863 132.466 76.4906 132.653 76.4299 132.9C76.4113 132.97 76.3879 133.063 76.3599 133.18C76.3366 133.297 76.3203 133.39 76.3109 133.46C76.2689 133.712 76.2783 133.901 76.3389 134.027C76.4043 134.153 76.5396 134.216 76.7449 134.216ZM80.0446 135C80.0072 135 79.9769 134.986 79.9536 134.958C79.9349 134.93 79.9279 134.895 79.9326 134.853L80.6466 131.5C80.6559 131.463 80.6769 131.43 80.7096 131.402C80.7422 131.374 80.7772 131.36 80.8146 131.36H81.5776C81.6616 131.36 81.7199 131.402 81.7526 131.486L82.5786 133.733L82.0746 133.642L83.6776 131.486C83.7429 131.402 83.8199 131.36 83.9086 131.36H84.7416C84.7836 131.36 84.8162 131.374 84.8396 131.402C84.8629 131.43 84.8699 131.463 84.8606 131.5L84.1466 134.853C84.1419 134.895 84.1209 134.93 84.0836 134.958C84.0509 134.986 84.0136 135 83.9716 135H83.1036C83.0616 135 83.0289 134.986 83.0056 134.958C82.9869 134.93 82.9799 134.895 82.9846 134.853L83.4746 132.571L83.7966 132.557L82.5016 134.3C82.4689 134.342 82.4339 134.379 82.3966 134.412C82.3592 134.44 82.3149 134.454 82.2636 134.454H82.0466C81.9952 134.454 81.9556 134.44 81.9276 134.412C81.9042 134.384 81.8832 134.347 81.8646 134.3L81.2906 132.606L81.5636 132.62L81.0876 134.853C81.0829 134.895 81.0619 134.93 81.0246 134.958C80.9919 134.986 80.9546 135 80.9126 135H80.0446ZM85.845 135C85.7937 135 85.754 134.984 85.726 134.951C85.7027 134.918 85.6933 134.876 85.698 134.825L86.405 131.535C86.4143 131.484 86.4377 131.442 86.475 131.409C86.517 131.376 86.5637 131.36 86.615 131.36H89.821C89.8723 131.36 89.912 131.376 89.94 131.409C89.968 131.442 89.9773 131.484 89.968 131.535L89.261 134.825C89.2517 134.876 89.226 134.918 89.184 134.951C89.1467 134.984 89.1023 135 89.051 135H88.225C88.1783 135 88.141 134.984 88.113 134.951C88.085 134.918 88.0757 134.876 88.085 134.825L88.624 132.277H87.42L86.881 134.825C86.8717 134.876 86.846 134.918 86.804 134.951C86.762 134.984 86.7177 135 86.671 135H85.845ZM90.7442 135C90.6928 135 90.6532 134.984 90.6252 134.951C90.5972 134.914 90.5878 134.872 90.5972 134.825L90.7302 134.209C90.7535 134.106 90.8212 134.048 90.9332 134.034C91.0732 134.02 91.1898 133.957 91.2832 133.845C91.3765 133.733 91.4605 133.567 91.5352 133.348C91.6098 133.129 91.6822 132.853 91.7522 132.522L91.9692 131.535C91.9785 131.484 92.0018 131.442 92.0392 131.409C92.0812 131.376 92.1255 131.36 92.1722 131.36H94.9162C94.9675 131.36 95.0072 131.376 95.0352 131.409C95.0632 131.442 95.0725 131.484 95.0632 131.535L94.3562 134.825C94.3515 134.876 94.3282 134.918 94.2862 134.951C94.2442 134.984 94.1975 135 94.1462 135H93.3202C93.2735 135 93.2362 134.984 93.2082 134.951C93.1802 134.918 93.1708 134.876 93.1802 134.825L93.7262 132.277H92.9282L92.8512 132.648C92.7532 133.096 92.6458 133.472 92.5292 133.775C92.4172 134.078 92.2818 134.319 92.1232 134.496C91.9692 134.673 91.7802 134.802 91.5562 134.881C91.3322 134.96 91.0615 135 90.7442 135ZM97.5827 135.07C97.2187 135.07 96.913 135.005 96.6657 134.874C96.423 134.739 96.255 134.538 96.1617 134.272C96.073 134.006 96.0637 133.679 96.1337 133.292C96.143 133.259 96.1523 133.217 96.1617 133.166C96.171 133.115 96.1803 133.075 96.1897 133.047C96.283 132.678 96.4323 132.363 96.6377 132.102C96.843 131.836 97.095 131.635 97.3937 131.5C97.6923 131.36 98.0213 131.29 98.3807 131.29C98.7913 131.29 99.111 131.372 99.3397 131.535C99.573 131.698 99.727 131.92 99.8017 132.2C99.881 132.48 99.8833 132.8 99.8087 133.159L99.7807 133.327C99.7713 133.378 99.7433 133.42 99.6967 133.453C99.6547 133.486 99.608 133.502 99.5567 133.502H97.3237C97.3237 133.507 97.3213 133.514 97.3167 133.523C97.3167 133.532 97.3143 133.542 97.3097 133.551C97.2863 133.686 97.284 133.81 97.3027 133.922C97.3213 134.034 97.368 134.123 97.4427 134.188C97.5173 134.253 97.6177 134.286 97.7437 134.286C97.8323 134.286 97.9117 134.272 97.9817 134.244C98.0517 134.211 98.1123 134.176 98.1637 134.139C98.215 134.097 98.257 134.062 98.2897 134.034C98.341 133.987 98.3807 133.959 98.4087 133.95C98.4367 133.936 98.4787 133.929 98.5347 133.929H99.4027C99.4493 133.929 99.4843 133.943 99.5077 133.971C99.531 133.994 99.5357 134.029 99.5217 134.076C99.4983 134.155 99.4377 134.251 99.3397 134.363C99.2463 134.475 99.1157 134.587 98.9477 134.699C98.7797 134.806 98.5813 134.895 98.3527 134.965C98.124 135.035 97.8673 135.07 97.5827 135.07ZM97.4707 132.809H98.6537L98.6607 132.795C98.698 132.646 98.7027 132.515 98.6747 132.403C98.6513 132.291 98.6 132.205 98.5207 132.144C98.446 132.083 98.3457 132.053 98.2197 132.053C98.0937 132.053 97.9793 132.083 97.8767 132.144C97.7787 132.205 97.6947 132.291 97.6247 132.403C97.5593 132.515 97.508 132.646 97.4707 132.795V132.809ZM101.816 135C101.77 135 101.732 134.984 101.704 134.951C101.676 134.918 101.667 134.876 101.676 134.825L102.222 132.277H101.158C101.107 132.277 101.067 132.261 101.039 132.228C101.016 132.195 101.009 132.153 101.018 132.102L101.144 131.535C101.154 131.484 101.177 131.442 101.214 131.409C101.256 131.376 101.301 131.36 101.347 131.36H104.637C104.684 131.36 104.721 131.376 104.749 131.409C104.777 131.442 104.787 131.484 104.777 131.535L104.658 132.102C104.649 132.153 104.623 132.195 104.581 132.228C104.539 132.261 104.493 132.277 104.441 132.277H103.377L102.838 134.825C102.829 134.876 102.803 134.918 102.761 134.951C102.724 134.984 102.68 135 102.628 135H101.816Z" fill="black"/>
<path d="M23.736 67.07C23.372 67.07 23.0663 67.0047 22.819 66.874C22.5763 66.7387 22.4083 66.538 22.315 66.272C22.2263 66.006 22.217 65.6793 22.287 65.292C22.2963 65.2593 22.3057 65.2173 22.315 65.166C22.3243 65.1147 22.3337 65.075 22.343 65.047C22.4363 64.6783 22.5857 64.3633 22.791 64.102C22.9963 63.836 23.2483 63.6353 23.547 63.5C23.8457 63.36 24.1747 63.29 24.534 63.29C24.9447 63.29 25.2643 63.3717 25.493 63.535C25.7263 63.6983 25.8803 63.92 25.955 64.2C26.0343 64.48 26.0367 64.7997 25.962 65.159L25.934 65.327C25.9247 65.3783 25.8967 65.4203 25.85 65.453C25.808 65.4857 25.7613 65.502 25.71 65.502H23.477C23.477 65.5067 23.4747 65.5137 23.47 65.523C23.47 65.5323 23.4677 65.5417 23.463 65.551C23.4397 65.6863 23.4373 65.81 23.456 65.922C23.4747 66.034 23.5213 66.1227 23.596 66.188C23.6707 66.2533 23.771 66.286 23.897 66.286C23.9857 66.286 24.065 66.272 24.135 66.244C24.205 66.2113 24.2657 66.1763 24.317 66.139C24.3683 66.097 24.4103 66.062 24.443 66.034C24.4943 65.9873 24.534 65.9593 24.562 65.95C24.59 65.936 24.632 65.929 24.688 65.929H25.556C25.6027 65.929 25.6377 65.943 25.661 65.971C25.6843 65.9943 25.689 66.0293 25.675 66.076C25.6517 66.1553 25.591 66.251 25.493 66.363C25.3997 66.475 25.269 66.587 25.101 66.699C24.933 66.8063 24.7347 66.895 24.506 66.965C24.2773 67.035 24.0207 67.07 23.736 67.07ZM23.624 64.809H24.807L24.814 64.795C24.8513 64.6457 24.856 64.515 24.828 64.403C24.8047 64.291 24.7533 64.2047 24.674 64.144C24.5993 64.0833 24.499 64.053 24.373 64.053C24.247 64.053 24.1327 64.0833 24.03 64.144C23.932 64.2047 23.848 64.291 23.778 64.403C23.7127 64.515 23.6613 64.6457 23.624 64.795V64.809ZM27.0456 67C26.9942 67 26.9546 66.9837 26.9266 66.951C26.8986 66.9183 26.8892 66.8763 26.8986 66.825L27.6056 63.535C27.6149 63.4837 27.6382 63.4417 27.6756 63.409C27.7176 63.3763 27.7642 63.36 27.8156 63.36H28.6416C28.6882 63.36 28.7256 63.3763 28.7536 63.409C28.7816 63.4417 28.7909 63.4837 28.7816 63.535L28.5296 64.697H29.7896L30.0416 63.535C30.0509 63.4837 30.0742 63.4417 30.1116 63.409C30.1536 63.3763 30.2002 63.36 30.2516 63.36H31.0776C31.1242 63.36 31.1616 63.3763 31.1896 63.409C31.2176 63.4417 31.2269 63.4837 31.2176 63.535L30.5176 66.825C30.5082 66.8763 30.4826 66.9183 30.4406 66.951C30.3986 66.9837 30.3542 67 30.3076 67H29.4816C29.4302 67 29.3906 66.9837 29.3626 66.951C29.3346 66.9183 29.3252 66.8763 29.3346 66.825L29.5936 65.614H28.3406L28.0816 66.825C28.0722 66.8763 28.0466 66.9183 28.0046 66.951C27.9626 66.9837 27.9182 67 27.8716 67H27.0456ZM33.7424 67.07C33.3784 67.07 33.0728 67.0047 32.8254 66.874C32.5828 66.7387 32.4148 66.538 32.3214 66.272C32.2328 66.006 32.2234 65.6793 32.2934 65.292C32.3028 65.2593 32.3121 65.2173 32.3214 65.166C32.3308 65.1147 32.3401 65.075 32.3494 65.047C32.4428 64.6783 32.5921 64.3633 32.7974 64.102C33.0028 63.836 33.2548 63.6353 33.5534 63.5C33.8521 63.36 34.1811 63.29 34.5404 63.29C34.9511 63.29 35.2708 63.3717 35.4994 63.535C35.7328 63.6983 35.8868 63.92 35.9614 64.2C36.0408 64.48 36.0431 64.7997 35.9684 65.159L35.9404 65.327C35.9311 65.3783 35.9031 65.4203 35.8564 65.453C35.8144 65.4857 35.7678 65.502 35.7164 65.502H33.4834C33.4834 65.5067 33.4811 65.5137 33.4764 65.523C33.4764 65.5323 33.4741 65.5417 33.4694 65.551C33.4461 65.6863 33.4438 65.81 33.4624 65.922C33.4811 66.034 33.5278 66.1227 33.6024 66.188C33.6771 66.2533 33.7774 66.286 33.9034 66.286C33.9921 66.286 34.0714 66.272 34.1414 66.244C34.2114 66.2113 34.2721 66.1763 34.3234 66.139C34.3748 66.097 34.4168 66.062 34.4494 66.034C34.5008 65.9873 34.5404 65.9593 34.5684 65.95C34.5964 65.936 34.6384 65.929 34.6944 65.929H35.5624C35.6091 65.929 35.6441 65.943 35.6674 65.971C35.6908 65.9943 35.6954 66.0293 35.6814 66.076C35.6581 66.1553 35.5974 66.251 35.4994 66.363C35.4061 66.475 35.2754 66.587 35.1074 66.699C34.9394 66.8063 34.7411 66.895 34.5124 66.965C34.2838 67.035 34.0271 67.07 33.7424 67.07ZM33.6304 64.809H34.8134L34.8204 64.795C34.8578 64.6457 34.8624 64.515 34.8344 64.403C34.8111 64.291 34.7598 64.2047 34.6804 64.144C34.6058 64.0833 34.5054 64.053 34.3794 64.053C34.2534 64.053 34.1391 64.0833 34.0364 64.144C33.9384 64.2047 33.8544 64.291 33.7844 64.403C33.7191 64.515 33.6678 64.6457 33.6304 64.795V64.809ZM36.898 68.33C36.8467 68.33 36.8094 68.3137 36.786 68.281C36.7627 68.2483 36.7557 68.2063 36.765 68.155L37.745 63.535C37.7544 63.4837 37.7777 63.4417 37.815 63.409C37.857 63.3763 37.9037 63.36 37.955 63.36H38.746C38.7927 63.36 38.83 63.3763 38.858 63.409C38.886 63.4417 38.8954 63.4837 38.886 63.535L38.83 63.794C38.97 63.6493 39.138 63.5303 39.334 63.437C39.5347 63.339 39.7657 63.29 40.027 63.29C40.2604 63.29 40.4587 63.3273 40.622 63.402C40.7854 63.472 40.9137 63.577 41.007 63.717C41.105 63.857 41.1657 64.0273 41.189 64.228C41.217 64.4287 41.21 64.6597 41.168 64.921C41.1494 65.0143 41.1307 65.1007 41.112 65.18C41.098 65.2593 41.0794 65.3457 41.056 65.439C40.9767 65.7703 40.8507 66.0573 40.678 66.3C40.5054 66.5427 40.2954 66.7317 40.048 66.867C39.8054 67.0023 39.53 67.07 39.222 67.07C38.9934 67.07 38.7997 67.0303 38.641 66.951C38.487 66.867 38.3727 66.7503 38.298 66.601L37.969 68.155C37.9597 68.2063 37.934 68.2483 37.892 68.281C37.85 68.3137 37.8034 68.33 37.752 68.33H36.898ZM39.04 66.132C39.1987 66.132 39.3294 66.0993 39.432 66.034C39.5347 65.9687 39.6164 65.88 39.677 65.768C39.7424 65.656 39.7937 65.5323 39.831 65.397C39.8544 65.327 39.873 65.2547 39.887 65.18C39.9057 65.1053 39.9197 65.033 39.929 64.963C39.9477 64.8277 39.9477 64.704 39.929 64.592C39.915 64.48 39.8707 64.3913 39.796 64.326C39.7214 64.2607 39.6047 64.228 39.446 64.228C39.292 64.228 39.1614 64.263 39.054 64.333C38.9467 64.3983 38.8604 64.4847 38.795 64.592C38.7297 64.6993 38.6807 64.816 38.648 64.942C38.6247 65.0307 38.6037 65.117 38.585 65.201C38.5664 65.285 38.55 65.3737 38.536 65.467C38.5174 65.5837 38.5197 65.6933 38.543 65.796C38.5664 65.894 38.6177 65.9757 38.697 66.041C38.781 66.1017 38.8954 66.132 39.04 66.132ZM42.168 67C42.1167 67 42.077 66.9837 42.049 66.951C42.021 66.9183 42.0117 66.8763 42.021 66.825L42.728 63.535C42.7374 63.4837 42.7607 63.4417 42.798 63.409C42.84 63.3763 42.8867 63.36 42.938 63.36H45.276C45.3227 63.36 45.36 63.3763 45.388 63.409C45.416 63.4417 45.4254 63.4837 45.416 63.535L45.297 64.102C45.2877 64.1533 45.262 64.1953 45.22 64.228C45.178 64.2607 45.1314 64.277 45.08 64.277H43.743L43.204 66.825C43.1947 66.8763 43.169 66.9183 43.127 66.951C43.085 66.9837 43.0407 67 42.994 67H42.168ZM47.2429 67.07C46.9629 67.07 46.7249 67.0093 46.5289 66.888C46.3376 66.7667 46.2046 66.5893 46.1299 66.356C46.0599 66.118 46.0623 65.8287 46.1369 65.488L46.5429 63.535C46.5523 63.4837 46.5779 63.4417 46.6199 63.409C46.6619 63.3763 46.7086 63.36 46.7599 63.36H47.6419C47.6886 63.36 47.7236 63.3763 47.7469 63.409C47.7749 63.4417 47.7843 63.4837 47.7749 63.535L47.3689 65.446C47.3363 65.5953 47.3269 65.7213 47.3409 65.824C47.3596 65.9267 47.4039 66.0037 47.4739 66.055C47.5486 66.1063 47.6583 66.132 47.8029 66.132C48.0036 66.132 48.1763 66.0737 48.3209 65.957C48.4703 65.8357 48.5683 65.6653 48.6149 65.446L49.0209 63.535C49.0303 63.4837 49.0559 63.4417 49.0979 63.409C49.1399 63.3763 49.1843 63.36 49.2309 63.36H50.1059C50.1573 63.36 50.1946 63.3763 50.2179 63.409C50.2459 63.4417 50.2553 63.4837 50.2459 63.535L49.5459 66.825C49.5366 66.8763 49.5109 66.9183 49.4689 66.951C49.4316 66.9837 49.3873 67 49.3359 67H48.5309C48.4796 67 48.4399 66.9837 48.4119 66.951C48.3839 66.9183 48.3746 66.8763 48.3839 66.825L48.4399 66.559C48.3419 66.6663 48.2369 66.7597 48.1249 66.839C48.0129 66.9137 47.8869 66.9697 47.7469 67.007C47.6069 67.049 47.4389 67.07 47.2429 67.07ZM50.1385 68.33C50.0871 68.33 50.0498 68.3137 50.0265 68.281C50.0031 68.2483 49.9961 68.2063 50.0055 68.155L50.1245 67.588C50.1338 67.5367 50.1595 67.4947 50.2015 67.462C50.2388 67.4293 50.2831 67.413 50.3345 67.413H50.6075C50.7568 67.413 50.8735 67.364 50.9575 67.266C51.0368 67.1727 51.0928 67.0513 51.1255 66.902L51.8395 63.535C51.8488 63.4837 51.8745 63.4417 51.9165 63.409C51.9585 63.3763 52.0051 63.36 52.0565 63.36H52.9175C52.9688 63.36 53.0061 63.3763 53.0295 63.409C53.0575 63.4417 53.0668 63.4837 53.0575 63.535L52.3365 66.93C52.2758 67.2333 52.1708 67.4877 52.0215 67.693C51.8721 67.903 51.6785 68.0617 51.4405 68.169C51.2071 68.2763 50.9225 68.33 50.5865 68.33H50.1385ZM52.1615 62.835C52.1101 62.835 52.0705 62.8187 52.0425 62.786C52.0191 62.7533 52.0098 62.7113 52.0145 62.66L52.1545 62.037C52.1638 61.9857 52.1895 61.9437 52.2315 61.911C52.2735 61.8737 52.3178 61.855 52.3645 61.855H53.2465C53.2931 61.855 53.3305 61.8737 53.3585 61.911C53.3865 61.9437 53.3958 61.9857 53.3865 62.037L53.2465 62.66C53.2418 62.7113 53.2185 62.7533 53.1765 62.786C53.1345 62.8187 53.0878 62.835 53.0365 62.835H52.1615ZM55.2396 67.07C55.0156 67.07 54.8173 67.035 54.6446 66.965C54.4766 66.8903 54.3413 66.783 54.2386 66.643C54.1359 66.4983 54.0683 66.3257 54.0356 66.125C54.0029 65.9197 54.0076 65.6863 54.0496 65.425C54.0683 65.3317 54.0846 65.25 54.0986 65.18C54.1126 65.1053 54.1313 65.0237 54.1546 64.935C54.2153 64.683 54.2993 64.4567 54.4066 64.256C54.5139 64.0553 54.6423 63.8827 54.7916 63.738C54.9409 63.5933 55.1136 63.4837 55.3096 63.409C55.5103 63.3297 55.7296 63.29 55.9676 63.29C56.2523 63.29 56.4669 63.332 56.6116 63.416C56.7609 63.4953 56.8799 63.5957 56.9686 63.717L57.0036 63.535C57.0129 63.4837 57.0363 63.4417 57.0736 63.409C57.1156 63.3763 57.1623 63.36 57.2136 63.36H57.9976C58.0443 63.36 58.0816 63.3763 58.1096 63.409C58.1376 63.4417 58.1469 63.4837 58.1376 63.535L57.4446 66.825C57.4353 66.8763 57.4096 66.9183 57.3676 66.951C57.3256 66.9837 57.2813 67 57.2346 67H56.4436C56.3969 67 56.3596 66.9837 56.3316 66.951C56.3036 66.9183 56.2943 66.8763 56.3036 66.825L56.3526 66.601C56.2079 66.7363 56.0516 66.8483 55.8836 66.937C55.7203 67.0257 55.5056 67.07 55.2396 67.07ZM55.7226 66.132C55.8813 66.132 56.0143 66.0993 56.1216 66.034C56.2289 65.964 56.3176 65.8753 56.3876 65.768C56.4576 65.6607 56.5066 65.544 56.5346 65.418C56.5626 65.3247 56.5836 65.236 56.5976 65.152C56.6163 65.068 56.6326 64.9817 56.6466 64.893C56.6699 64.7763 56.6699 64.669 56.6466 64.571C56.6279 64.4683 56.5789 64.3867 56.4996 64.326C56.4249 64.2607 56.3129 64.228 56.1636 64.228C56.0189 64.228 55.8953 64.2607 55.7926 64.326C55.6899 64.3913 55.6059 64.48 55.5406 64.592C55.4799 64.704 55.4286 64.8277 55.3866 64.963C55.3679 65.033 55.3493 65.1053 55.3306 65.18C55.3119 65.2547 55.2979 65.327 55.2886 65.397C55.2699 65.5323 55.2653 65.656 55.2746 65.768C55.2886 65.88 55.3306 65.9687 55.4006 66.034C55.4706 66.0993 55.5779 66.132 55.7226 66.132Z" fill="black"/>
<path d="M123.973 99C123.907 99 123.853 98.9751 123.811 98.9253C123.778 98.8755 123.766 98.8174 123.774 98.751L125.044 92.7761C125.06 92.7097 125.097 92.6516 125.156 92.6018C125.214 92.552 125.276 92.5271 125.342 92.5271H127.023C127.18 92.5271 127.288 92.606 127.346 92.7637L128.815 96.5229L127.757 96.3362L130.458 92.7637C130.574 92.606 130.716 92.5271 130.882 92.5271H132.711C132.786 92.5271 132.844 92.552 132.886 92.6018C132.927 92.6516 132.94 92.7097 132.923 92.7761L131.653 98.751C131.645 98.8174 131.608 98.8755 131.541 98.9253C131.483 98.9751 131.413 99 131.33 99H129.388C129.313 99 129.259 98.9751 129.226 98.9253C129.193 98.8755 129.18 98.8174 129.189 98.751L129.973 95.0789L130.608 95.0416L128.541 97.805C128.483 97.8797 128.421 97.9419 128.355 97.9917C128.297 98.0415 128.222 98.0664 128.131 98.0664H127.682C127.608 98.0664 127.546 98.0457 127.496 98.0042C127.446 97.9544 127.404 97.888 127.371 97.805L126.425 95.0789L126.985 95.1163L126.214 98.751C126.205 98.8174 126.168 98.8755 126.102 98.9253C126.043 98.9751 125.981 99 125.915 99H123.973Z" fill="black"/>
<path d="M118.038 99.1245C117.35 99.1245 116.777 99.0415 116.321 98.8755C115.872 98.7096 115.524 98.5021 115.275 98.2531C115.034 97.9959 114.872 97.722 114.79 97.4316C114.707 97.1411 114.686 96.8714 114.727 96.6225C114.744 96.5478 114.785 96.4855 114.852 96.4358C114.918 96.3777 114.989 96.3486 115.063 96.3486H117.13C117.229 96.3486 117.304 96.3694 117.354 96.4109C117.404 96.4441 117.449 96.498 117.491 96.5727C117.524 96.6723 117.582 96.7594 117.665 96.8341C117.748 96.9005 117.856 96.9503 117.989 96.9835C118.13 97.0084 118.3 97.0208 118.499 97.0208C118.856 97.0208 119.142 96.942 119.358 96.7843C119.574 96.6183 119.711 96.4026 119.769 96.137C119.827 95.8715 119.777 95.6806 119.619 95.5644C119.47 95.4399 119.221 95.3777 118.872 95.3777H117.404C117.312 95.3777 117.242 95.3445 117.192 95.2781C117.142 95.2117 117.13 95.137 117.155 95.054L117.329 94.1951C117.354 94.079 117.395 93.9835 117.453 93.9088C117.52 93.8259 117.586 93.7678 117.653 93.7346L119.831 92.4027H116.458C116.375 92.4027 116.304 92.3695 116.246 92.3031C116.196 92.2367 116.18 92.162 116.196 92.079L116.507 90.6102C116.524 90.5189 116.57 90.4442 116.644 90.3861C116.727 90.3197 116.814 90.2865 116.906 90.2865H122.955C123.047 90.2865 123.117 90.3197 123.167 90.3861C123.217 90.4442 123.233 90.5189 123.217 90.6102L122.93 91.9296C122.905 92.0375 122.86 92.133 122.793 92.2159C122.735 92.2906 122.677 92.3446 122.619 92.3778L120.652 93.747L120.69 93.7719C121.121 93.8549 121.491 93.996 121.798 94.1951C122.113 94.386 122.337 94.6557 122.47 95.0043C122.611 95.3528 122.623 95.7926 122.507 96.3237C122.383 96.888 122.109 97.3818 121.686 97.805C121.262 98.2199 120.735 98.5436 120.105 98.7759C119.482 99.0083 118.794 99.1245 118.038 99.1245Z" fill="black"/>
<path d="M75.3816 98C75.2986 98 75.2322 97.9751 75.1824 97.9253C75.141 97.8672 75.1285 97.7967 75.1451 97.7137L75.3318 96.8175C75.3484 96.7345 75.3899 96.6681 75.4563 96.6183C75.5227 96.5602 75.5974 96.5312 75.6804 96.5312H76.5766C76.6596 96.5312 76.7218 96.5602 76.7633 96.6183C76.8048 96.6681 76.8173 96.7345 76.8007 96.8175L76.6139 97.7137C76.5973 97.7967 76.5559 97.8672 76.4895 97.9253C76.4314 97.9751 76.3567 98 76.2654 98H75.3816ZM79.714 98C79.631 98 79.5647 97.9751 79.5149 97.9253C79.4734 97.8672 79.4609 97.7967 79.4775 97.7137L79.6642 96.8175C79.6808 96.7345 79.7223 96.6681 79.7887 96.6183C79.8551 96.5602 79.9298 96.5312 80.0128 96.5312H80.909C80.992 96.5312 81.0542 96.5602 81.0957 96.6183C81.1372 96.6681 81.1497 96.7345 81.1331 96.8175L80.9464 97.7137C80.9298 97.7967 80.8883 97.8672 80.8219 97.9253C80.7638 97.9751 80.6891 98 80.5978 98H79.714ZM84.0464 98C83.9635 98 83.8971 97.9751 83.8473 97.9253C83.8058 97.8672 83.7933 97.7967 83.8099 97.7137L83.9967 96.8175C84.0133 96.7345 84.0547 96.6681 84.1211 96.6183C84.1875 96.5602 84.2622 96.5312 84.3452 96.5312H85.2414C85.3244 96.5312 85.3867 96.5602 85.4282 96.6183C85.4696 96.6681 85.4821 96.7345 85.4655 96.8175L85.2788 97.7137C85.2622 97.7967 85.2207 97.8672 85.1543 97.9253C85.0962 97.9751 85.0215 98 84.9302 98H84.0464ZM88.3789 98C88.2959 98 88.2295 97.9751 88.1797 97.9253C88.1382 97.8672 88.1258 97.7967 88.1424 97.7137L88.3291 96.8175C88.3457 96.7345 88.3872 96.6681 88.4536 96.6183C88.5199 96.5602 88.5946 96.5312 88.6776 96.5312H89.5739C89.6568 96.5312 89.7191 96.5602 89.7606 96.6183C89.8021 96.6681 89.8145 96.7345 89.7979 96.8175L89.6112 97.7137C89.5946 97.7967 89.5531 97.8672 89.4867 97.9253C89.4286 97.9751 89.3539 98 89.2627 98H88.3789ZM92.7113 98C92.6283 98 92.5619 97.9751 92.5121 97.9253C92.4706 97.8672 92.4582 97.7967 92.4748 97.7137L92.6615 96.8175C92.6781 96.7345 92.7196 96.6681 92.786 96.6183C92.8524 96.5602 92.927 96.5312 93.01 96.5312H93.9063C93.9893 96.5312 94.0515 96.5602 94.093 96.6183C94.1345 96.6681 94.1469 96.7345 94.1303 96.8175L93.9436 97.7137C93.927 97.7967 93.8855 97.8672 93.8191 97.9253C93.761 97.9751 93.6864 98 93.5951 98H92.7113ZM97.0437 98C96.9607 98 96.8943 97.9751 96.8445 97.9253C96.803 97.8672 96.7906 97.7967 96.8072 97.7137L96.9939 96.8175C97.0105 96.7345 97.052 96.6681 97.1184 96.6183C97.1848 96.5602 97.2595 96.5312 97.3424 96.5312H98.2387C98.3217 96.5312 98.3839 96.5602 98.4254 96.6183C98.4669 96.6681 98.4793 96.7345 98.4628 96.8175L98.276 97.7137C98.2594 97.7967 98.2179 97.8672 98.1516 97.9253C98.0935 97.9751 98.0188 98 97.9275 98H97.0437ZM101.376 98C101.293 98 101.227 97.9751 101.177 97.9253C101.135 97.8672 101.123 97.7967 101.14 97.7137L101.326 96.8175C101.343 96.7345 101.384 96.6681 101.451 96.6183C101.517 96.5602 101.592 96.5312 101.675 96.5312H102.571C102.654 96.5312 102.716 96.5602 102.758 96.6183C102.799 96.6681 102.812 96.7345 102.795 96.8175L102.608 97.7137C102.592 97.7967 102.55 97.8672 102.484 97.9253C102.426 97.9751 102.351 98 102.26 98H101.376Z" fill="#262626"/>
<path d="M123.973 136C123.907 136 123.853 135.975 123.811 135.925C123.778 135.876 123.766 135.817 123.774 135.751L125.044 129.776C125.06 129.71 125.097 129.652 125.156 129.602C125.214 129.552 125.276 129.527 125.342 129.527H127.023C127.18 129.527 127.288 129.606 127.346 129.764L128.815 133.523L127.757 133.336L130.458 129.764C130.574 129.606 130.716 129.527 130.882 129.527H132.711C132.786 129.527 132.844 129.552 132.886 129.602C132.927 129.652 132.94 129.71 132.923 129.776L131.653 135.751C131.645 135.817 131.608 135.876 131.541 135.925C131.483 135.975 131.413 136 131.33 136H129.388C129.313 136 129.259 135.975 129.226 135.925C129.193 135.876 129.18 135.817 129.189 135.751L129.973 132.079L130.608 132.042L128.541 134.805C128.483 134.88 128.421 134.942 128.355 134.992C128.297 135.042 128.222 135.066 128.131 135.066H127.682C127.608 135.066 127.546 135.046 127.496 135.004C127.446 134.954 127.404 134.888 127.371 134.805L126.425 132.079L126.985 132.116L126.214 135.751C126.205 135.817 126.168 135.876 126.102 135.925C126.043 135.975 125.981 136 125.915 136H123.973Z" fill="black"/>
<path d="M118.091 136.124C117.253 136.124 116.56 135.988 116.012 135.714C115.473 135.44 115.087 135.087 114.854 134.656C114.63 134.216 114.568 133.755 114.668 133.274C114.759 132.834 114.95 132.452 115.24 132.129C115.539 131.805 115.867 131.556 116.224 131.382C116.033 131.191 115.888 130.946 115.788 130.647C115.688 130.349 115.676 130.017 115.751 129.652C115.842 129.204 116.041 128.793 116.348 128.419C116.663 128.038 117.087 127.735 117.618 127.511C118.149 127.278 118.796 127.162 119.56 127.162C120.323 127.162 120.95 127.287 121.439 127.535C121.937 127.784 122.294 128.112 122.51 128.519C122.726 128.917 122.784 129.34 122.684 129.789C122.609 130.145 122.481 130.452 122.298 130.71C122.116 130.967 121.862 131.191 121.539 131.382C121.854 131.614 122.074 131.913 122.199 132.278C122.331 132.635 122.352 133.025 122.261 133.448C122.161 133.93 121.945 134.373 121.614 134.78C121.29 135.187 120.838 135.515 120.257 135.763C119.684 136.004 118.962 136.124 118.091 136.124ZM118.253 134.282C118.468 134.282 118.672 134.245 118.863 134.17C119.053 134.095 119.211 133.988 119.336 133.847C119.468 133.697 119.555 133.531 119.597 133.349C119.655 133.05 119.597 132.818 119.423 132.652C119.248 132.486 118.999 132.403 118.676 132.403C118.46 132.403 118.257 132.44 118.066 132.515C117.875 132.589 117.713 132.697 117.58 132.838C117.448 132.979 117.365 133.149 117.331 133.349C117.265 133.639 117.319 133.867 117.493 134.033C117.676 134.199 117.929 134.282 118.253 134.282ZM119.024 130.685C119.224 130.676 119.406 130.639 119.572 130.573C119.746 130.498 119.892 130.398 120.008 130.274C120.124 130.15 120.199 130.008 120.232 129.851C120.282 129.602 120.232 129.403 120.082 129.253C119.933 129.096 119.705 129.017 119.398 129.017C119.19 129.017 118.999 129.054 118.825 129.129C118.659 129.195 118.518 129.291 118.402 129.415C118.294 129.54 118.224 129.685 118.19 129.851C118.141 130.083 118.186 130.282 118.327 130.448C118.468 130.606 118.701 130.685 119.024 130.685Z" fill="black"/>
<path d="M30.8039 35.4134C29.4999 35.4134 28.406 35.2033 27.5222 34.7831C26.6383 34.3629 25.9646 33.8124 25.501 33.1314C25.0518 32.4504 24.8127 31.726 24.7838 30.958C24.7838 30.8276 24.8272 30.719 24.9142 30.632C25.0011 30.5451 25.1098 30.5016 25.2402 30.5016H27.696C27.8699 30.5016 28.0076 30.5451 28.109 30.632C28.2249 30.7045 28.3118 30.8059 28.3698 30.9363C28.5147 31.3275 28.703 31.6463 28.9348 31.8926C29.1812 32.1389 29.4637 32.32 29.7824 32.4359C30.1012 32.5518 30.4417 32.6098 30.8039 32.6098C31.2676 32.6098 31.695 32.5156 32.0862 32.3272C32.4774 32.1244 32.7889 31.8346 33.0207 31.4579C33.2525 31.0812 33.3685 30.6175 33.3685 30.067C33.3685 29.5888 33.2598 29.1687 33.0425 28.8064C32.8251 28.4442 32.5209 28.1617 32.1297 27.9588C31.7385 27.756 31.2965 27.6546 30.8039 27.6546C30.4272 27.6546 30.1157 27.698 29.8694 27.785C29.6376 27.8719 29.442 27.9806 29.2826 28.111C29.1232 28.2269 28.9783 28.3355 28.8479 28.437C28.7175 28.5239 28.5726 28.5674 28.4132 28.5674H26.0008C25.8704 28.5674 25.7545 28.5239 25.6531 28.437C25.5662 28.3355 25.5227 28.2196 25.5227 28.0892L26.2834 20.5912C26.3123 20.3884 26.3848 20.2362 26.5007 20.1348C26.6311 20.0189 26.7832 19.9609 26.9571 19.9609H35.3897C35.549 19.9609 35.6794 20.0116 35.7809 20.1131C35.8823 20.2145 35.933 20.3449 35.933 20.5043V22.2429C35.933 22.3878 35.8823 22.511 35.7809 22.6124C35.6794 22.7138 35.549 22.7645 35.3897 22.7645H29.1087L28.7827 25.9594C29.0725 25.771 29.4275 25.6044 29.8476 25.4595C30.2823 25.3001 30.8836 25.2204 31.6515 25.2204C32.347 25.2204 33.0062 25.3363 33.6293 25.5682C34.2668 25.7855 34.8318 26.1115 35.3245 26.5462C35.8171 26.9808 36.201 27.5024 36.4763 28.111C36.7661 28.705 36.911 29.386 36.911 30.1539C36.911 31.1971 36.6647 32.1172 36.1721 32.914C35.6794 33.6964 34.9767 34.3122 34.0639 34.7614C33.1511 35.196 32.0645 35.4134 30.8039 35.4134Z" fill="#FBFBFB"/>
<path d="M39.989 27C39.913 27 39.8497 26.9747 39.799 26.924C39.7483 26.8733 39.723 26.8099 39.723 26.7339V20.6647C39.723 20.5971 39.7483 20.538 39.799 20.4873C39.8497 20.4366 39.9088 20.4113 39.9764 20.4113H41.2181C41.3701 20.4113 41.4884 20.4873 41.5729 20.6394L43.4228 23.9464L45.26 20.6394C45.3445 20.4873 45.4627 20.4113 45.6148 20.4113H46.8692C46.9367 20.4113 46.9959 20.4366 47.0466 20.4873C47.0972 20.538 47.1226 20.5971 47.1226 20.6647V26.7339C47.1226 26.8099 47.0972 26.8733 47.0466 26.924C46.9959 26.9747 46.9325 27 46.8565 27H45.5261C45.4416 27 45.374 26.9747 45.3234 26.924C45.2811 26.8733 45.26 26.8099 45.26 26.7339V22.3626L45.8302 22.4766L44.031 25.7076C43.9887 25.7836 43.938 25.8512 43.8789 25.9103C43.8282 25.9695 43.7522 25.999 43.6508 25.999H43.182C43.0891 25.999 43.0131 25.9737 42.954 25.923C42.8948 25.8639 42.8399 25.7921 42.7892 25.7076L41.0407 22.5906L41.5729 22.4766V26.7339C41.5729 26.8099 41.5475 26.8733 41.4968 26.924C41.4462 26.9747 41.3828 27 41.3068 27H39.989Z" fill="#FBFBFB"/>
<defs>
<linearGradient id="paint0_linear_12_2854" x1="42.7" y1="82.8999" x2="42.7" y2="107.4" gradientUnits="userSpaceOnUse">
<stop stop-color="#236EFF"/>
<stop offset="1" stop-color="#04A3FD"/>
</linearGradient>
<linearGradient id="paint1_linear_12_2854" x1="38.6483" y1="119.381" x2="38.6483" y2="146.419" gradientUnits="userSpaceOnUse">
<stop stop-color="#236EFF"/>
<stop offset="1" stop-color="#04A3FD"/>
</linearGradient>
<linearGradient id="paint2_linear_12_2854" x1="43.25" y1="119.8" x2="43.25" y2="145.313" gradientUnits="userSpaceOnUse">
<stop stop-color="#236EFF"/>
<stop offset="1" stop-color="#04A3FD"/>
</linearGradient>
</defs>
</svg>
