<svg width="161" height="247" viewBox="0 0 161 247" fill="none" xmlns="http://www.w3.org/2000/svg">
<rect width="161" height="247" fill="white"/>
<rect x="0.5" y="0.5" width="160" height="246" stroke="black" stroke-opacity="0.1"/>
<rect x="3" y="3" width="155" height="241" rx="13" fill="white"/>
<path d="M8 18C8 12.4772 12.4772 8 18 8H143C148.523 8 153 12.4772 153 18V123H8V18Z" fill="#2D2D2D"/>
<path d="M8.5 18C8.5 12.7533 12.7533 8.5 18 8.5H143C148.247 8.5 152.5 12.7533 152.5 18V122.5H8.5V18Z" stroke="black" stroke-opacity="0.3"/>
<mask id="path-6-inside-1_37_1209" fill="white">
<path d="M153 228C153 233.523 148.523 238 143 238L18 238C12.4771 238 7.99999 233.523 7.99999 228L7.99999 123L153 123L153 228Z"/>
</mask>
<path d="M153 228C153 233.523 148.523 238 143 238L18 238C12.4771 238 7.99999 233.523 7.99999 228L7.99999 123L153 123L153 228Z" fill="#E80B0B"/>
<path d="M154 228C154 234.075 149.075 239 143 239L18 239C11.9249 239 6.99999 234.075 6.99999 228L8.99999 228C8.99999 232.971 13.0294 237 18 237L143 237C147.971 237 152 232.971 152 228L154 228ZM7.99999 123L153 123L7.99999 123ZM154 123L154 228C154 234.075 149.075 239 143 239L143 237C147.971 237 152 232.971 152 228L152 123L154 123ZM18 239C11.9249 239 6.99999 234.075 6.99999 228L6.99999 123L8.99999 123L8.99999 228C8.99999 232.971 13.0294 237 18 237L18 239Z" fill="black" fill-opacity="0.3" mask="url(#path-6-inside-1_37_1209)"/>
<path d="M44.9641 76C44.8174 76 44.7041 75.9533 44.6241 75.86C44.5574 75.7667 44.5374 75.6533 44.5641 75.52L47.3441 62.5C47.3707 62.3533 47.4374 62.2333 47.5441 62.14C47.6507 62.0467 47.7774 62 47.9241 62H53.0441C53.8307 62 54.5307 62.0933 55.1441 62.28C55.7707 62.4667 56.2841 62.7467 56.6841 63.12C57.0841 63.4933 57.3574 63.96 57.5041 64.52C57.6641 65.0667 57.6641 65.7067 57.5041 66.44C57.1841 67.92 56.5307 69.0267 55.5441 69.76C54.5574 70.48 53.2507 70.84 51.6241 70.84H48.4241L47.4241 75.52C47.3974 75.6533 47.3307 75.7667 47.2241 75.86C47.1174 75.9533 46.9907 76 46.8441 76H44.9641ZM48.8641 68.62H51.6841C52.4174 68.62 53.0507 68.44 53.5841 68.08C54.1307 67.7067 54.4841 67.16 54.6441 66.44C54.7374 65.9867 54.7574 65.6 54.7041 65.28C54.6507 64.9467 54.4707 64.6867 54.1641 64.5C53.8707 64.3133 53.4041 64.22 52.7641 64.22H49.8041L48.8641 68.62ZM60.1672 76C60.0205 76 59.9072 75.9533 59.8272 75.86C59.7605 75.7667 59.7405 75.6533 59.7672 75.52L62.5472 62.5C62.5739 62.3533 62.6405 62.2333 62.7472 62.14C62.8539 62.0467 62.9805 62 63.1272 62H71.9272C72.0739 62 72.1805 62.0467 72.2472 62.14C72.3139 62.2333 72.3339 62.3533 72.3072 62.5L72.0272 63.82C72.0005 63.9533 71.9339 64.0667 71.8272 64.16C71.7205 64.2533 71.5939 64.3 71.4472 64.3H64.8672L64.1072 67.84H70.2472C70.3939 67.84 70.5005 67.8867 70.5672 67.98C70.6339 68.06 70.6539 68.1733 70.6272 68.32L70.3672 69.56C70.3405 69.7067 70.2739 69.8267 70.1672 69.92C70.0605 70 69.9339 70.04 69.7872 70.04H63.6472L62.8472 73.7H69.6072C69.7539 73.7 69.8605 73.7467 69.9272 73.84C69.9939 73.9333 70.0139 74.0533 69.9872 74.2L69.7072 75.52C69.6805 75.6533 69.6139 75.7667 69.5072 75.86C69.4005 75.9533 69.2739 76 69.1272 76H60.1672ZM87.5291 62C87.6624 62 87.7557 62.04 87.8091 62.12C87.8757 62.2 87.8957 62.3 87.8691 62.42C87.8424 62.4867 87.7957 62.5667 87.7291 62.66L82.6491 68.76L85.4091 75.32C85.4357 75.3867 85.4357 75.46 85.4091 75.54C85.3957 75.66 85.3357 75.7667 85.2291 75.86C85.1224 75.9533 85.0024 76 84.8691 76H82.9491C82.7757 76 82.6491 75.96 82.5691 75.88C82.4891 75.8 82.4357 75.7267 82.4091 75.66L80.0891 70.16H78.1091L76.9691 75.52C76.9424 75.6533 76.8757 75.7667 76.7691 75.86C76.6624 75.9533 76.5357 76 76.3891 76H74.5691C74.4357 76 74.3291 75.96 74.2491 75.88C74.1824 75.7867 74.1624 75.6667 74.1891 75.52L76.9691 62.5C76.9957 62.3533 77.0624 62.2333 77.1691 62.14C77.2757 62.0467 77.3957 62 77.5291 62H79.3491C79.4957 62 79.6024 62.0467 79.6691 62.14C79.7491 62.2333 79.7757 62.3533 79.7491 62.5L78.6291 67.66H80.3491L84.6891 62.36C84.7691 62.2533 84.8691 62.1667 84.9891 62.1C85.1224 62.0333 85.2824 62 85.4691 62H87.5291ZM90.2023 76C90.0557 76 89.9423 75.9533 89.8623 75.86C89.7957 75.7667 89.7757 75.6533 89.8023 75.52L92.5823 62.5C92.609 62.3533 92.6757 62.2333 92.7823 62.14C92.889 62.0467 93.0157 62 93.1623 62H101.962C102.109 62 102.216 62.0467 102.282 62.14C102.349 62.2333 102.369 62.3533 102.342 62.5L102.062 63.82C102.036 63.9533 101.969 64.0667 101.862 64.16C101.756 64.2533 101.629 64.3 101.482 64.3H94.9023L94.1423 67.84H100.282C100.429 67.84 100.536 67.8867 100.602 67.98C100.669 68.06 100.689 68.1733 100.662 68.32L100.402 69.56C100.376 69.7067 100.309 69.8267 100.202 69.92C100.096 70 99.969 70.04 99.8223 70.04H93.6823L92.8823 73.7H99.6423C99.789 73.7 99.8957 73.7467 99.9623 73.84C100.029 73.9333 100.049 74.0533 100.022 74.2L99.7423 75.52C99.7157 75.6533 99.649 75.7667 99.5423 75.86C99.4357 75.9533 99.309 76 99.1623 76H90.2023ZM107.644 76C107.511 76 107.404 75.9533 107.324 75.86C107.258 75.7667 107.238 75.6533 107.264 75.52L109.624 64.46H105.924C105.778 64.46 105.664 64.4133 105.584 64.32C105.518 64.2267 105.498 64.1133 105.524 63.98L105.844 62.5C105.871 62.3533 105.938 62.2333 106.044 62.14C106.164 62.0467 106.291 62 106.424 62H116.624C116.771 62 116.878 62.0467 116.944 62.14C117.024 62.2333 117.051 62.3533 117.024 62.5L116.704 63.98C116.678 64.1133 116.611 64.2267 116.504 64.32C116.398 64.4133 116.271 64.46 116.124 64.46H112.424L110.064 75.52C110.038 75.6533 109.971 75.7667 109.864 75.86C109.758 75.9533 109.631 76 109.484 76H107.644Z" fill="white"/>
<path d="M115.036 170C115.183 170 115.296 170.047 115.376 170.14C115.443 170.233 115.463 170.347 115.436 170.48L112.656 183.5C112.629 183.647 112.563 183.767 112.456 183.86C112.349 183.953 112.223 184 112.076 184L106.956 184C106.169 184 105.469 183.907 104.856 183.72C104.229 183.533 103.716 183.253 103.316 182.88C102.916 182.507 102.643 182.04 102.496 181.48C102.336 180.933 102.336 180.293 102.496 179.56C102.816 178.08 103.469 176.973 104.456 176.24C105.443 175.52 106.749 175.16 108.376 175.16L111.576 175.16L112.576 170.48C112.603 170.347 112.669 170.233 112.776 170.14C112.883 170.047 113.009 170 113.156 170L115.036 170ZM111.136 177.38L108.316 177.38C107.583 177.38 106.949 177.56 106.416 177.92C105.869 178.293 105.516 178.84 105.356 179.56C105.263 180.013 105.243 180.4 105.296 180.72C105.349 181.053 105.529 181.313 105.836 181.5C106.129 181.687 106.596 181.78 107.236 181.78L110.196 181.78L111.136 177.38ZM99.8328 170C99.9795 170 100.093 170.047 100.173 170.14C100.239 170.233 100.259 170.347 100.233 170.48L97.4528 183.5C97.4261 183.647 97.3595 183.767 97.2528 183.86C97.1461 183.953 97.0195 184 96.8728 184L88.0728 184C87.9261 184 87.8195 183.953 87.7528 183.86C87.6861 183.767 87.6661 183.647 87.6928 183.5L87.9728 182.18C87.9995 182.047 88.0661 181.933 88.1728 181.84C88.2795 181.747 88.4061 181.7 88.5528 181.7L95.1328 181.7L95.8928 178.16L89.7528 178.16C89.6061 178.16 89.4995 178.113 89.4328 178.02C89.3661 177.94 89.3461 177.827 89.3728 177.68L89.6328 176.44C89.6595 176.293 89.7261 176.173 89.8328 176.08C89.9395 176 90.0661 175.96 90.2128 175.96L96.3528 175.96L97.1528 172.3L90.3928 172.3C90.2461 172.3 90.1395 172.253 90.0728 172.16C90.0061 172.067 89.9861 171.947 90.0128 171.8L90.2928 170.48C90.3195 170.347 90.3861 170.233 90.4928 170.14C90.5995 170.047 90.7261 170 90.8728 170L99.8328 170ZM72.4709 184C72.3376 184 72.2443 183.96 72.1909 183.88C72.1243 183.8 72.1043 183.7 72.1309 183.58C72.1576 183.513 72.2043 183.433 72.2709 183.34L77.3509 177.24L74.5909 170.68C74.5643 170.613 74.5643 170.54 74.5909 170.46C74.6043 170.34 74.6643 170.233 74.7709 170.14C74.8776 170.047 74.9976 170 75.1309 170L77.0509 170C77.2243 170 77.3509 170.04 77.4309 170.12C77.5109 170.2 77.5643 170.273 77.5909 170.34L79.9109 175.84L81.8909 175.84L83.0309 170.48C83.0576 170.347 83.1243 170.233 83.2309 170.14C83.3376 170.047 83.4643 170 83.6109 170L85.4309 170C85.5643 170 85.6709 170.04 85.7509 170.12C85.8176 170.213 85.8376 170.333 85.8109 170.48L83.0309 183.5C83.0043 183.647 82.9376 183.767 82.8309 183.86C82.7243 183.953 82.6043 184 82.4709 184L80.6509 184C80.5043 184 80.3976 183.953 80.3309 183.86C80.2509 183.767 80.2243 183.647 80.2509 183.5L81.3709 178.34L79.6509 178.34L75.3109 183.64C75.2309 183.747 75.1309 183.833 75.0109 183.9C74.8776 183.967 74.7176 184 74.5309 184L72.4709 184ZM69.7977 170C69.9443 170 70.0577 170.047 70.1377 170.14C70.2043 170.233 70.2243 170.347 70.1977 170.48L67.4177 183.5C67.391 183.647 67.3243 183.767 67.2177 183.86C67.111 183.953 66.9843 184 66.8377 184L58.0377 184C57.891 184 57.7843 183.953 57.7177 183.86C57.651 183.767 57.631 183.647 57.6577 183.5L57.9377 182.18C57.9643 182.047 58.031 181.933 58.1377 181.84C58.2443 181.747 58.371 181.7 58.5177 181.7L65.0977 181.7L65.8577 178.16L59.7177 178.16C59.571 178.16 59.4643 178.113 59.3977 178.02C59.331 177.94 59.311 177.827 59.3377 177.68L59.5977 176.44C59.6243 176.293 59.691 176.173 59.7977 176.08C59.9043 176 60.031 175.96 60.1777 175.96L66.3177 175.96L67.1177 172.3L60.3577 172.3C60.211 172.3 60.1043 172.253 60.0377 172.16C59.971 172.067 59.951 171.947 59.9777 171.8L60.2577 170.48C60.2843 170.347 60.351 170.233 60.4577 170.14C60.5643 170.047 60.691 170 60.8377 170L69.7977 170ZM52.3558 170C52.4891 170 52.5958 170.047 52.6758 170.14C52.7424 170.233 52.7624 170.347 52.7358 170.48L50.3758 181.54L54.0758 181.54C54.2224 181.54 54.3358 181.587 54.4158 181.68C54.4824 181.773 54.5024 181.887 54.4758 182.02L54.1558 183.5C54.1291 183.647 54.0624 183.767 53.9558 183.86C53.8358 183.953 53.7091 184 53.5758 184L43.3758 184C43.2291 184 43.1224 183.953 43.0558 183.86C42.9758 183.767 42.9491 183.647 42.9758 183.5L43.2958 182.02C43.3224 181.887 43.3891 181.773 43.4958 181.68C43.6024 181.587 43.7291 181.54 43.8758 181.54L47.5758 181.54L49.9358 170.48C49.9624 170.347 50.0291 170.233 50.1358 170.14C50.2424 170.047 50.3691 170 50.5158 170L52.3558 170Z" fill="white"/>
</svg>
