<svg width="161" height="247" viewBox="0 0 161 247" fill="none" xmlns="http://www.w3.org/2000/svg">
<rect width="161" height="247" fill="white"/>
<rect x="0.5" y="0.5" width="160" height="246" stroke="black" stroke-opacity="0.1"/>
<rect x="3" y="3" width="155" height="241" rx="13" fill="white"/>
<path d="M8 18C8 12.4772 12.4772 8 18 8H143C148.523 8 153 12.4772 153 18V31H8V18Z" fill="#848484"/>
<path d="M8.5 18C8.5 12.7533 12.7533 8.5 18 8.5H143C148.247 8.5 152.5 12.7533 152.5 18V30.5H8.5V18Z" stroke="black" stroke-opacity="0.3"/>
<path d="M8 30H153V55H8V30Z" fill="#E80B0B"/>
<path d="M8.5 30.5H152.5V54.5H8.5V30.5Z" stroke="black" stroke-opacity="0.3"/>
<path d="M8 54H153V77H8V54Z" fill="#0DC564"/>
<path d="M8.5 54.5H152.5V76.5H8.5V54.5Z" stroke="black" stroke-opacity="0.3"/>
<path d="M8 76H153V100H8V76Z" fill="#FF83B7"/>
<path d="M8.5 76.5H152.5V99.5H8.5V76.5Z" stroke="black" stroke-opacity="0.3"/>
<path d="M8 99H153V123H8V99Z" fill="#61C5CC"/>
<path d="M8.5 99.5H152.5V122.5H8.5V99.5Z" stroke="black" stroke-opacity="0.3"/>
<path d="M8 122H153V145H8V122Z" fill="#EDD500"/>
<path d="M8.5 122.5H152.5V144.5H8.5V122.5Z" stroke="black" stroke-opacity="0.3"/>
<path d="M8 144H153V167H8V144Z" fill="#2388FF"/>
<path d="M8.5 144.5H152.5V166.5H8.5V144.5Z" stroke="black" stroke-opacity="0.3"/>
<path d="M8 166H153V190H8V166Z" fill="#FB8D2A"/>
<path d="M8.5 166.5H152.5V189.5H8.5V166.5Z" stroke="black" stroke-opacity="0.3"/>
<rect x="153" y="213" width="145" height="24" transform="rotate(-180 153 213)" fill="#A337FF"/>
<rect x="152.5" y="212.5" width="144" height="23" transform="rotate(-180 152.5 212.5)" stroke="black" stroke-opacity="0.3"/>
<mask id="path-22-inside-1_37_3606" fill="white">
<path d="M153 228C153 233.523 148.523 238 143 238L18 238C12.4771 238 8 233.523 8 228L8 213L153 213L153 228Z"/>
</mask>
<path d="M153 228C153 233.523 148.523 238 143 238L18 238C12.4771 238 8 233.523 8 228L8 213L153 213L153 228Z" fill="#2D2D2D"/>
<path d="M154 228C154 234.075 149.075 239 143 239L18 239C11.9249 239 7 234.075 7 228L9 228C9 232.971 13.0294 237 18 237L143 237C147.971 237 152 232.971 152 228L154 228ZM8 213L153 213L8 213ZM154 213L154 228C154 234.075 149.075 239 143 239L143 237C147.971 237 152 232.971 152 228L152 213L154 213ZM18 239C11.9249 239 7 234.075 7 228L7 213L9 213L9 228C9 232.971 13.0294 237 18 237L18 239Z" fill="black" fill-opacity="0.3" mask="url(#path-22-inside-1_37_3606)"/>
<path d="M44.9641 119C44.8174 119 44.7041 118.953 44.6241 118.86C44.5574 118.767 44.5374 118.653 44.5641 118.52L47.3441 105.5C47.3707 105.353 47.4374 105.233 47.5441 105.14C47.6507 105.047 47.7774 105 47.9241 105H53.0441C53.8307 105 54.5307 105.093 55.1441 105.28C55.7707 105.467 56.2841 105.747 56.6841 106.12C57.0841 106.493 57.3574 106.96 57.5041 107.52C57.6641 108.067 57.6641 108.707 57.5041 109.44C57.1841 110.92 56.5307 112.027 55.5441 112.76C54.5574 113.48 53.2507 113.84 51.6241 113.84H48.4241L47.4241 118.52C47.3974 118.653 47.3307 118.767 47.2241 118.86C47.1174 118.953 46.9907 119 46.8441 119H44.9641ZM48.8641 111.62H51.6841C52.4174 111.62 53.0507 111.44 53.5841 111.08C54.1307 110.707 54.4841 110.16 54.6441 109.44C54.7374 108.987 54.7574 108.6 54.7041 108.28C54.6507 107.947 54.4707 107.687 54.1641 107.5C53.8707 107.313 53.4041 107.22 52.7641 107.22H49.8041L48.8641 111.62ZM60.1672 119C60.0205 119 59.9072 118.953 59.8272 118.86C59.7605 118.767 59.7405 118.653 59.7672 118.52L62.5472 105.5C62.5739 105.353 62.6405 105.233 62.7472 105.14C62.8539 105.047 62.9805 105 63.1272 105H71.9272C72.0739 105 72.1805 105.047 72.2472 105.14C72.3139 105.233 72.3339 105.353 72.3072 105.5L72.0272 106.82C72.0005 106.953 71.9339 107.067 71.8272 107.16C71.7205 107.253 71.5939 107.3 71.4472 107.3H64.8672L64.1072 110.84H70.2472C70.3939 110.84 70.5005 110.887 70.5672 110.98C70.6339 111.06 70.6539 111.173 70.6272 111.32L70.3672 112.56C70.3405 112.707 70.2739 112.827 70.1672 112.92C70.0605 113 69.9339 113.04 69.7872 113.04H63.6472L62.8472 116.7H69.6072C69.7539 116.7 69.8605 116.747 69.9272 116.84C69.9939 116.933 70.0139 117.053 69.9872 117.2L69.7072 118.52C69.6805 118.653 69.6139 118.767 69.5072 118.86C69.4005 118.953 69.2739 119 69.1272 119H60.1672ZM87.5291 105C87.6624 105 87.7557 105.04 87.8091 105.12C87.8757 105.2 87.8957 105.3 87.8691 105.42C87.8424 105.487 87.7957 105.567 87.7291 105.66L82.6491 111.76L85.4091 118.32C85.4357 118.387 85.4357 118.46 85.4091 118.54C85.3957 118.66 85.3357 118.767 85.2291 118.86C85.1224 118.953 85.0024 119 84.8691 119H82.9491C82.7757 119 82.6491 118.96 82.5691 118.88C82.4891 118.8 82.4357 118.727 82.4091 118.66L80.0891 113.16H78.1091L76.9691 118.52C76.9424 118.653 76.8757 118.767 76.7691 118.86C76.6624 118.953 76.5357 119 76.3891 119H74.5691C74.4357 119 74.3291 118.96 74.2491 118.88C74.1824 118.787 74.1624 118.667 74.1891 118.52L76.9691 105.5C76.9957 105.353 77.0624 105.233 77.1691 105.14C77.2757 105.047 77.3957 105 77.5291 105H79.3491C79.4957 105 79.6024 105.047 79.6691 105.14C79.7491 105.233 79.7757 105.353 79.7491 105.5L78.6291 110.66H80.3491L84.6891 105.36C84.7691 105.253 84.8691 105.167 84.9891 105.1C85.1224 105.033 85.2824 105 85.4691 105H87.5291ZM90.2023 119C90.0557 119 89.9423 118.953 89.8623 118.86C89.7957 118.767 89.7757 118.653 89.8023 118.52L92.5823 105.5C92.609 105.353 92.6757 105.233 92.7823 105.14C92.889 105.047 93.0157 105 93.1623 105H101.962C102.109 105 102.216 105.047 102.282 105.14C102.349 105.233 102.369 105.353 102.342 105.5L102.062 106.82C102.036 106.953 101.969 107.067 101.862 107.16C101.756 107.253 101.629 107.3 101.482 107.3H94.9023L94.1423 110.84H100.282C100.429 110.84 100.536 110.887 100.602 110.98C100.669 111.06 100.689 111.173 100.662 111.32L100.402 112.56C100.376 112.707 100.309 112.827 100.202 112.92C100.096 113 99.969 113.04 99.8223 113.04H93.6823L92.8823 116.7H99.6423C99.789 116.7 99.8957 116.747 99.9623 116.84C100.029 116.933 100.049 117.053 100.022 117.2L99.7423 118.52C99.7157 118.653 99.649 118.767 99.5423 118.86C99.4357 118.953 99.309 119 99.1623 119H90.2023ZM107.644 119C107.511 119 107.404 118.953 107.324 118.86C107.258 118.767 107.238 118.653 107.264 118.52L109.624 107.46H105.924C105.778 107.46 105.664 107.413 105.584 107.32C105.518 107.227 105.498 107.113 105.524 106.98L105.844 105.5C105.871 105.353 105.938 105.233 106.044 105.14C106.164 105.047 106.291 105 106.424 105H116.624C116.771 105 116.878 105.047 116.944 105.14C117.024 105.233 117.051 105.353 117.024 105.5L116.704 106.98C116.678 107.113 116.611 107.227 116.504 107.32C116.398 107.413 116.271 107.46 116.124 107.46H112.424L110.064 118.52C110.038 118.653 109.971 118.767 109.864 118.86C109.758 118.953 109.631 119 109.484 119H107.644Z" fill="black"/>
<path d="M115.036 126.412C115.183 126.412 115.296 126.458 115.376 126.552C115.443 126.645 115.463 126.758 115.436 126.892L112.656 139.912C112.629 140.058 112.563 140.178 112.456 140.272C112.349 140.365 112.223 140.412 112.076 140.412L106.956 140.412C106.169 140.412 105.469 140.318 104.856 140.132C104.229 139.945 103.716 139.665 103.316 139.292C102.916 138.918 102.643 138.452 102.496 137.892C102.336 137.345 102.336 136.705 102.496 135.972C102.816 134.492 103.469 133.385 104.456 132.652C105.443 131.932 106.749 131.572 108.376 131.572L111.576 131.572L112.576 126.892C112.603 126.758 112.669 126.645 112.776 126.552C112.883 126.458 113.009 126.412 113.156 126.412L115.036 126.412ZM111.136 133.792L108.316 133.792C107.583 133.792 106.949 133.972 106.416 134.332C105.869 134.705 105.516 135.252 105.356 135.972C105.263 136.425 105.243 136.812 105.296 137.132C105.349 137.465 105.529 137.725 105.836 137.912C106.129 138.098 106.596 138.192 107.236 138.192L110.196 138.192L111.136 133.792ZM99.8328 126.412C99.9795 126.412 100.093 126.458 100.173 126.552C100.239 126.645 100.259 126.758 100.233 126.892L97.4528 139.912C97.4261 140.058 97.3595 140.178 97.2528 140.272C97.1461 140.365 97.0195 140.412 96.8728 140.412L88.0728 140.412C87.9261 140.412 87.8195 140.365 87.7528 140.272C87.6861 140.178 87.6661 140.058 87.6928 139.912L87.9728 138.592C87.9995 138.458 88.0661 138.345 88.1728 138.252C88.2795 138.158 88.4061 138.112 88.5528 138.112L95.1328 138.112L95.8928 134.572L89.7528 134.572C89.6061 134.572 89.4995 134.525 89.4328 134.432C89.3661 134.352 89.3461 134.238 89.3728 134.092L89.6328 132.852C89.6595 132.705 89.7261 132.585 89.8328 132.492C89.9395 132.412 90.0661 132.372 90.2128 132.372L96.3528 132.372L97.1528 128.712L90.3928 128.712C90.2461 128.712 90.1395 128.665 90.0728 128.572C90.0061 128.478 89.9861 128.358 90.0128 128.212L90.2928 126.892C90.3195 126.758 90.3861 126.645 90.4928 126.552C90.5995 126.458 90.7261 126.412 90.8728 126.412L99.8328 126.412ZM72.4709 140.412C72.3376 140.412 72.2443 140.372 72.1909 140.292C72.1243 140.212 72.1043 140.112 72.1309 139.992C72.1576 139.925 72.2043 139.845 72.2709 139.752L77.3509 133.652L74.5909 127.092C74.5643 127.025 74.5643 126.952 74.5909 126.872C74.6043 126.752 74.6643 126.645 74.7709 126.552C74.8776 126.458 74.9976 126.412 75.1309 126.412L77.0509 126.412C77.2243 126.412 77.3509 126.452 77.4309 126.532C77.5109 126.612 77.5643 126.685 77.5909 126.752L79.9109 132.252L81.8909 132.252L83.0309 126.892C83.0576 126.758 83.1243 126.645 83.2309 126.552C83.3376 126.458 83.4643 126.412 83.6109 126.412L85.4309 126.412C85.5643 126.412 85.6709 126.452 85.7509 126.532C85.8176 126.625 85.8376 126.745 85.8109 126.892L83.0309 139.912C83.0043 140.058 82.9376 140.178 82.8309 140.272C82.7243 140.365 82.6043 140.412 82.4709 140.412L80.6509 140.412C80.5043 140.412 80.3976 140.365 80.3309 140.272C80.2509 140.178 80.2243 140.058 80.2509 139.912L81.3709 134.752L79.6509 134.752L75.3109 140.052C75.2309 140.158 75.1309 140.245 75.0109 140.312C74.8776 140.378 74.7176 140.412 74.5309 140.412L72.4709 140.412ZM69.7977 126.412C69.9443 126.412 70.0577 126.458 70.1377 126.552C70.2043 126.645 70.2243 126.758 70.1977 126.892L67.4177 139.912C67.391 140.058 67.3243 140.178 67.2177 140.272C67.111 140.365 66.9843 140.412 66.8377 140.412L58.0377 140.412C57.891 140.412 57.7843 140.365 57.7177 140.272C57.651 140.178 57.631 140.058 57.6577 139.912L57.9377 138.592C57.9643 138.458 58.031 138.345 58.1377 138.252C58.2443 138.158 58.371 138.112 58.5177 138.112L65.0977 138.112L65.8577 134.572L59.7177 134.572C59.571 134.572 59.4643 134.525 59.3977 134.432C59.331 134.352 59.311 134.238 59.3377 134.092L59.5977 132.852C59.6243 132.705 59.691 132.585 59.7977 132.492C59.9043 132.412 60.031 132.372 60.1777 132.372L66.3177 132.372L67.1177 128.712L60.3577 128.712C60.211 128.712 60.1043 128.665 60.0377 128.572C59.971 128.478 59.951 128.358 59.9777 128.212L60.2577 126.892C60.2843 126.758 60.351 126.645 60.4577 126.552C60.5643 126.458 60.691 126.412 60.8377 126.412L69.7977 126.412ZM52.3558 126.412C52.4891 126.412 52.5958 126.458 52.6758 126.552C52.7424 126.645 52.7624 126.758 52.7358 126.892L50.3758 137.952L54.0758 137.952C54.2224 137.952 54.3358 137.998 54.4158 138.092C54.4824 138.185 54.5024 138.298 54.4758 138.432L54.1558 139.912C54.1291 140.058 54.0624 140.178 53.9558 140.272C53.8358 140.365 53.7091 140.412 53.5758 140.412L43.3758 140.412C43.2291 140.412 43.1224 140.365 43.0558 140.272C42.9758 140.178 42.9491 140.058 42.9758 139.912L43.2958 138.432C43.3224 138.298 43.3891 138.185 43.4958 138.092C43.6024 137.998 43.7291 137.952 43.8758 137.952L47.5758 137.952L49.9358 126.892C49.9624 126.758 50.0291 126.645 50.1358 126.552C50.2424 126.458 50.3691 126.412 50.5158 126.412L52.3558 126.412Z" fill="black"/>
</svg>
