<svg width="161" height="247" viewBox="0 0 161 247" fill="none" xmlns="http://www.w3.org/2000/svg">
<rect width="161" height="247" fill="white"/>
<rect x="0.5" y="0.5" width="160" height="246" stroke="black" stroke-opacity="0.1"/>
<rect x="3" y="3" width="155" height="241" rx="13" fill="white"/>
<path d="M8 18C8 12.4772 12.4772 8 18 8H143C148.523 8 153 12.4772 153 18V45C153 46.1046 152.105 47 151 47H10C8.89543 47 8 46.1046 8 45V18Z" fill="#FB8D2A"/>
<path d="M8.5 18C8.5 12.7533 12.7533 8.5 18 8.5H143C148.247 8.5 152.5 12.7533 152.5 18V45C152.5 45.8284 151.828 46.5 151 46.5H10C9.17157 46.5 8.5 45.8284 8.5 45V18Z" stroke="black" stroke-opacity="0.3"/>
<path d="M60.969 32C60.8957 32 60.8333 31.9743 60.782 31.923C60.738 31.8643 60.7233 31.7947 60.738 31.714L61.893 26.346H60.001C59.9203 26.346 59.8543 26.3203 59.803 26.269C59.759 26.2103 59.7443 26.1407 59.759 26.06L60.078 24.586C60.0927 24.5053 60.133 24.4393 60.199 24.388C60.2723 24.3293 60.3457 24.3 60.419 24.3H66.601C66.6817 24.3 66.744 24.3293 66.788 24.388C66.8393 24.4393 66.8577 24.5053 66.843 24.586L66.524 26.06C66.5093 26.1407 66.469 26.2103 66.403 26.269C66.337 26.3203 66.2637 26.346 66.183 26.346H64.291L63.136 31.714C63.1213 31.7947 63.081 31.8643 63.015 31.923C62.949 31.9743 62.8757 32 62.795 32H60.969ZM65.7583 32C65.6776 32 65.619 31.967 65.5823 31.901C65.5456 31.8277 65.5493 31.7543 65.5933 31.681L69.5973 24.641C69.6413 24.5603 69.7073 24.4833 69.7953 24.41C69.8833 24.3367 69.997 24.3 70.1363 24.3H72.2043C72.3436 24.3 72.4426 24.3367 72.5013 24.41C72.56 24.4833 72.593 24.5603 72.6003 24.641L73.6233 31.681C73.638 31.7763 73.6123 31.8533 73.5463 31.912C73.4876 31.9707 73.418 32 73.3373 32H71.6873C71.5626 32 71.4746 31.9707 71.4233 31.912C71.3793 31.8533 71.35 31.7947 71.3353 31.736L71.1813 30.823H68.5413L67.9913 31.747C67.962 31.8057 67.9106 31.8643 67.8373 31.923C67.7713 31.9743 67.676 32 67.5513 32H65.7583ZM69.4323 28.964H71.0713L70.7853 26.489L69.4323 28.964ZM76.2766 32C76.2033 32 76.141 31.9743 76.0896 31.923C76.0456 31.8643 76.031 31.7947 76.0456 31.714L77.2006 26.346H75.3086C75.228 26.346 75.162 26.3203 75.1106 26.269C75.0666 26.2103 75.052 26.1407 75.0666 26.06L75.3856 24.586C75.4003 24.5053 75.4406 24.4393 75.5066 24.388C75.58 24.3293 75.6533 24.3 75.7266 24.3H81.9086C81.9893 24.3 82.0516 24.3293 82.0956 24.388C82.147 24.4393 82.1653 24.5053 82.1506 24.586L81.8316 26.06C81.817 26.1407 81.7766 26.2103 81.7106 26.269C81.6446 26.3203 81.5713 26.346 81.4906 26.346H79.5986L78.4436 31.714C78.429 31.7947 78.3886 31.8643 78.3226 31.923C78.2566 31.9743 78.1833 32 78.1026 32H76.2766Z" fill="#FBFBFB"/>
<path d="M23.631 68.33C23.5843 68.33 23.547 68.3137 23.519 68.281C23.4957 68.2483 23.4887 68.2063 23.498 68.155L23.743 67C23.3417 67 23.015 66.937 22.763 66.811C22.5157 66.685 22.343 66.5077 22.245 66.279C22.1517 66.0457 22.126 65.775 22.168 65.467C22.182 65.3737 22.1983 65.278 22.217 65.18C22.2357 65.082 22.259 64.9863 22.287 64.893C22.3757 64.5757 22.518 64.3027 22.714 64.074C22.91 63.8453 23.1597 63.6703 23.463 63.549C23.7663 63.423 24.1163 63.36 24.513 63.36L24.765 62.205C24.7743 62.1537 24.8 62.1117 24.842 62.079C24.884 62.0463 24.9283 62.03 24.975 62.03H25.808C25.8547 62.03 25.8897 62.0463 25.913 62.079C25.941 62.1117 25.9503 62.1537 25.941 62.205L25.696 63.36C26.0833 63.36 26.4007 63.423 26.648 63.549C26.9 63.675 27.0773 63.8523 27.18 64.081C27.2873 64.3097 27.32 64.5803 27.278 64.893C27.2593 64.9863 27.2407 65.082 27.222 65.18C27.2033 65.278 27.18 65.3737 27.152 65.467C27.068 65.7843 26.9303 66.0573 26.739 66.286C26.5477 66.5147 26.3003 66.692 25.997 66.818C25.6983 66.9393 25.3413 67 24.926 67L24.674 68.155C24.6647 68.2063 24.639 68.2483 24.597 68.281C24.555 68.3137 24.5107 68.33 24.464 68.33H23.631ZM23.932 66.146L24.345 64.214C24.0743 64.214 23.8643 64.277 23.715 64.403C23.5703 64.5243 23.4653 64.7133 23.4 64.97C23.3813 65.0353 23.3627 65.1077 23.344 65.187C23.33 65.2663 23.3183 65.334 23.309 65.39C23.2717 65.656 23.2997 65.8497 23.393 65.971C23.491 66.0877 23.6707 66.146 23.932 66.146ZM25.094 66.146C25.3693 66.146 25.577 66.0853 25.717 65.964C25.8617 65.8427 25.969 65.6513 26.039 65.39C26.0577 65.334 26.074 65.2663 26.088 65.187C26.1067 65.1077 26.1207 65.0353 26.13 64.97C26.1767 64.7087 26.1487 64.5173 26.046 64.396C25.948 64.2747 25.7683 64.214 25.507 64.214L25.094 66.146ZM29.6226 67.07C29.3426 67.07 29.1046 67.0093 28.9086 66.888C28.7173 66.7667 28.5843 66.5893 28.5096 66.356C28.4396 66.118 28.442 65.8287 28.5166 65.488L28.9226 63.535C28.932 63.4837 28.9576 63.4417 28.9996 63.409C29.0416 63.3763 29.0883 63.36 29.1396 63.36H30.0216C30.0683 63.36 30.1033 63.3763 30.1266 63.409C30.1546 63.4417 30.164 63.4837 30.1546 63.535L29.7486 65.446C29.716 65.5953 29.7066 65.7213 29.7206 65.824C29.7393 65.9267 29.7836 66.0037 29.8536 66.055C29.9283 66.1063 30.038 66.132 30.1826 66.132C30.3833 66.132 30.556 66.0737 30.7006 65.957C30.85 65.8357 30.948 65.6653 30.9946 65.446L31.4006 63.535C31.41 63.4837 31.4356 63.4417 31.4776 63.409C31.5196 63.3763 31.564 63.36 31.6106 63.36H32.4856C32.537 63.36 32.5743 63.3763 32.5976 63.409C32.6256 63.4417 32.635 63.4837 32.6256 63.535L31.9256 66.825C31.9163 66.8763 31.8906 66.9183 31.8486 66.951C31.8113 66.9837 31.767 67 31.7156 67H30.9106C30.8593 67 30.8196 66.9837 30.7916 66.951C30.7636 66.9183 30.7543 66.8763 30.7636 66.825L30.8196 66.559C30.7216 66.6663 30.6166 66.7597 30.5046 66.839C30.3926 66.9137 30.2666 66.9697 30.1266 67.007C29.9866 67.049 29.8186 67.07 29.6226 67.07ZM33.6382 67C33.5868 67 33.5472 66.9837 33.5192 66.951C33.4912 66.9183 33.4818 66.8763 33.4912 66.825L34.1982 63.535C34.2075 63.4837 34.2308 63.4417 34.2682 63.409C34.3102 63.3763 34.3568 63.36 34.4082 63.36H35.2342C35.2808 63.36 35.3182 63.3763 35.3462 63.409C35.3742 63.4417 35.3835 63.4837 35.3742 63.535L35.1222 64.697H36.3822L36.6342 63.535C36.6435 63.4837 36.6668 63.4417 36.7042 63.409C36.7462 63.3763 36.7928 63.36 36.8442 63.36H37.6702C37.7168 63.36 37.7542 63.3763 37.7822 63.409C37.8102 63.4417 37.8195 63.4837 37.8102 63.535L37.1102 66.825C37.1008 66.8763 37.0752 66.9183 37.0332 66.951C36.9912 66.9837 36.9468 67 36.9002 67H36.0742C36.0228 67 35.9832 66.9837 35.9552 66.951C35.9272 66.9183 35.9178 66.8763 35.9272 66.825L36.1862 65.614H34.9332L34.6742 66.825C34.6648 66.8763 34.6392 66.9183 34.5972 66.951C34.5552 66.9837 34.5108 67 34.4642 67H33.6382ZM39.964 67.07C39.74 67.07 39.5417 67.035 39.369 66.965C39.201 66.8903 39.0657 66.783 38.963 66.643C38.8604 66.4983 38.7927 66.3257 38.76 66.125C38.7274 65.9197 38.732 65.6863 38.774 65.425C38.7927 65.3317 38.809 65.25 38.823 65.18C38.837 65.1053 38.8557 65.0237 38.879 64.935C38.9397 64.683 39.0237 64.4567 39.131 64.256C39.2384 64.0553 39.3667 63.8827 39.516 63.738C39.6654 63.5933 39.838 63.4837 40.034 63.409C40.2347 63.3297 40.454 63.29 40.692 63.29C40.9767 63.29 41.1914 63.332 41.336 63.416C41.4854 63.4953 41.6044 63.5957 41.693 63.717L41.728 63.535C41.7374 63.4837 41.7607 63.4417 41.798 63.409C41.84 63.3763 41.8867 63.36 41.938 63.36H42.722C42.7687 63.36 42.806 63.3763 42.834 63.409C42.862 63.4417 42.8714 63.4837 42.862 63.535L42.169 66.825C42.1597 66.8763 42.134 66.9183 42.092 66.951C42.05 66.9837 42.0057 67 41.959 67H41.168C41.1214 67 41.084 66.9837 41.056 66.951C41.028 66.9183 41.0187 66.8763 41.028 66.825L41.077 66.601C40.9324 66.7363 40.776 66.8483 40.608 66.937C40.4447 67.0257 40.23 67.07 39.964 67.07ZM40.447 66.132C40.6057 66.132 40.7387 66.0993 40.846 66.034C40.9534 65.964 41.042 65.8753 41.112 65.768C41.182 65.6607 41.231 65.544 41.259 65.418C41.287 65.3247 41.308 65.236 41.322 65.152C41.3407 65.068 41.357 64.9817 41.371 64.893C41.3944 64.7763 41.3944 64.669 41.371 64.571C41.3524 64.4683 41.3034 64.3867 41.224 64.326C41.1494 64.2607 41.0374 64.228 40.888 64.228C40.7434 64.228 40.6197 64.2607 40.517 64.326C40.4144 64.3913 40.3304 64.48 40.265 64.592C40.2044 64.704 40.153 64.8277 40.111 64.963C40.0924 65.033 40.0737 65.1053 40.055 65.18C40.0364 65.2547 40.0224 65.327 40.013 65.397C39.9944 65.5323 39.9897 65.656 39.999 65.768C40.013 65.88 40.055 65.9687 40.125 66.034C40.195 66.0993 40.3024 66.132 40.447 66.132ZM43.8839 67C43.8325 67 43.7929 66.9837 43.7649 66.951C43.7369 66.9183 43.7275 66.8763 43.7369 66.825L44.4439 63.535C44.4532 63.4837 44.4765 63.4417 44.5139 63.409C44.5559 63.3763 44.6025 63.36 44.6539 63.36H45.4799C45.5265 63.36 45.5639 63.3763 45.5919 63.409C45.6199 63.4417 45.6292 63.4837 45.6199 63.535L45.3679 64.697H46.6279L46.8799 63.535C46.8892 63.4837 46.9125 63.4417 46.9499 63.409C46.9919 63.3763 47.0385 63.36 47.0899 63.36H47.9159C47.9625 63.36 47.9999 63.3763 48.0279 63.409C48.0559 63.4417 48.0652 63.4837 48.0559 63.535L47.3559 66.825C47.3465 66.8763 47.3209 66.9183 47.2789 66.951C47.2369 66.9837 47.1925 67 47.1459 67H46.3199C46.2685 67 46.2289 66.9837 46.2009 66.951C46.1729 66.9183 46.1635 66.8763 46.1729 66.825L46.4319 65.614H45.1789L44.9199 66.825C44.9105 66.8763 44.8849 66.9183 44.8429 66.951C44.8009 66.9837 44.7565 67 44.7099 67H43.8839ZM50.5247 67.07C50.2027 67.07 49.9157 67.007 49.6637 66.881C49.4117 66.755 49.2251 66.573 49.1037 66.335C48.9824 66.0923 48.9497 65.803 49.0057 65.467C49.0197 65.3923 49.0384 65.299 49.0617 65.187C49.0851 65.0703 49.1061 64.9747 49.1247 64.9C49.2507 64.3913 49.4934 63.997 49.8527 63.717C50.2167 63.4323 50.6694 63.29 51.2107 63.29C51.5234 63.29 51.7871 63.3367 52.0017 63.43C52.2164 63.5187 52.3867 63.633 52.5127 63.773C52.6387 63.913 52.7251 64.0553 52.7717 64.2C52.8231 64.34 52.8417 64.4637 52.8277 64.571C52.8231 64.6177 52.7997 64.6597 52.7577 64.697C52.7157 64.7297 52.6714 64.746 52.6247 64.746H51.7217C51.6751 64.746 51.6377 64.7343 51.6097 64.711C51.5864 64.6877 51.5701 64.6503 51.5607 64.599C51.5514 64.459 51.5094 64.3563 51.4347 64.291C51.3647 64.2257 51.2597 64.193 51.1197 64.193C50.9331 64.193 50.7721 64.2537 50.6367 64.375C50.5061 64.4963 50.4081 64.683 50.3427 64.935C50.3241 65.0237 50.3054 65.1123 50.2867 65.201C50.2681 65.285 50.2517 65.362 50.2377 65.432C50.1957 65.6887 50.2097 65.8753 50.2797 65.992C50.3497 66.1087 50.4781 66.167 50.6647 66.167C50.8094 66.167 50.9331 66.1367 51.0357 66.076C51.1431 66.0153 51.2341 65.9127 51.3087 65.768C51.3414 65.7213 51.3741 65.6863 51.4067 65.663C51.4394 65.6397 51.4791 65.628 51.5257 65.628H52.4287C52.4754 65.628 52.5127 65.6467 52.5407 65.684C52.5687 65.7167 52.5757 65.7563 52.5617 65.803C52.5337 65.8963 52.4754 66.0153 52.3867 66.16C52.3027 66.3 52.1791 66.44 52.0157 66.58C51.8571 66.72 51.6541 66.8367 51.4067 66.93C51.1641 67.0233 50.8701 67.07 50.5247 67.07ZM55.0318 67.07C54.7518 67.07 54.5138 67.0093 54.3178 66.888C54.1265 66.7667 53.9935 66.5893 53.9188 66.356C53.8488 66.118 53.8511 65.8287 53.9258 65.488L54.3318 63.535C54.3411 63.4837 54.3668 63.4417 54.4088 63.409C54.4508 63.3763 54.4975 63.36 54.5488 63.36H55.4308C55.4775 63.36 55.5125 63.3763 55.5358 63.409C55.5638 63.4417 55.5731 63.4837 55.5638 63.535L55.1578 65.446C55.1251 65.5953 55.1158 65.7213 55.1298 65.824C55.1485 65.9267 55.1928 66.0037 55.2628 66.055C55.3375 66.1063 55.4471 66.132 55.5918 66.132C55.7925 66.132 55.9651 66.0737 56.1098 65.957C56.2591 65.8357 56.3571 65.6653 56.4038 65.446L56.8098 63.535C56.8191 63.4837 56.8448 63.4417 56.8868 63.409C56.9288 63.3763 56.9731 63.36 57.0198 63.36H57.8948C57.9461 63.36 57.9835 63.3763 58.0068 63.409C58.0348 63.4417 58.0441 63.4837 58.0348 63.535L57.3348 66.825C57.3255 66.8763 57.2998 66.9183 57.2578 66.951C57.2205 66.9837 57.1761 67 57.1248 67H56.3198C56.2685 67 56.2288 66.9837 56.2008 66.951C56.1728 66.9183 56.1635 66.8763 56.1728 66.825L56.2288 66.559C56.1308 66.6663 56.0258 66.7597 55.9138 66.839C55.8018 66.9137 55.6758 66.9697 55.5358 67.007C55.3958 67.049 55.2278 67.07 55.0318 67.07ZM60.2093 67.07C59.9293 67.07 59.6913 67.0093 59.4953 66.888C59.304 66.7667 59.171 66.5893 59.0963 66.356C59.0263 66.118 59.0287 65.8287 59.1033 65.488L59.5093 63.535C59.5187 63.4837 59.5443 63.4417 59.5863 63.409C59.6283 63.3763 59.675 63.36 59.7263 63.36H60.6083C60.655 63.36 60.69 63.3763 60.7133 63.409C60.7413 63.4417 60.7507 63.4837 60.7413 63.535L60.3353 65.446C60.3027 65.5953 60.2933 65.7213 60.3073 65.824C60.326 65.9267 60.3703 66.0037 60.4403 66.055C60.515 66.1063 60.6247 66.132 60.7693 66.132C60.97 66.132 61.1427 66.0737 61.2873 65.957C61.4367 65.8357 61.5347 65.6653 61.5813 65.446L61.9873 63.535C61.9967 63.4837 62.0223 63.4417 62.0643 63.409C62.1063 63.3763 62.1507 63.36 62.1973 63.36H63.0723C63.1237 63.36 63.161 63.3763 63.1843 63.409C63.2123 63.4417 63.2217 63.4837 63.2123 63.535L62.5123 66.825C62.503 66.8763 62.4773 66.9183 62.4353 66.951C62.398 66.9837 62.3537 67 62.3023 67H61.4973C61.446 67 61.4063 66.9837 61.3783 66.951C61.3503 66.9183 61.341 66.8763 61.3503 66.825L61.4063 66.559C61.3083 66.6663 61.2033 66.7597 61.0913 66.839C60.9793 66.9137 60.8533 66.9697 60.7133 67.007C60.5733 67.049 60.4053 67.07 60.2093 67.07Z" fill="black"/>
<path d="M22.5219 103.085C22.4219 103.085 22.3469 103.05 22.2969 102.98C22.2369 102.92 22.2169 102.835 22.2369 102.725L22.9269 99.485C22.9469 99.385 23.0019 99.3 23.0919 99.23C23.1719 99.16 23.2619 99.125 23.3619 99.125H23.6619C23.9019 99.125 24.1319 99.015 24.3519 98.795C24.5719 98.565 24.7819 98.235 24.9819 97.805C25.1819 97.365 25.3769 96.825 25.5669 96.185C25.7569 95.545 25.9419 94.815 26.1219 93.995L26.7669 90.86C26.7869 90.76 26.8369 90.675 26.9169 90.605C27.0069 90.535 27.1069 90.5 27.2169 90.5H33.6519C33.7619 90.5 33.8419 90.535 33.8919 90.605C33.9519 90.675 33.9719 90.765 33.9519 90.875L32.1969 99.125H32.9169C33.0269 99.125 33.1069 99.16 33.1569 99.23C33.2169 99.3 33.2369 99.385 33.2169 99.485L32.5269 102.725C32.5069 102.835 32.4519 102.92 32.3619 102.98C32.2819 103.05 32.1869 103.085 32.0769 103.085H30.7269C30.6169 103.085 30.5369 103.05 30.4869 102.98C30.4369 102.92 30.4219 102.835 30.4419 102.725L30.8019 101H24.6819L24.3219 102.725C24.3019 102.835 24.2469 102.92 24.1569 102.98C24.0769 103.05 23.9819 103.085 23.8719 103.085H22.5219ZM26.2119 99.125H30.1119L31.5519 92.375H28.4769L28.0719 94.265C27.8119 95.505 27.5269 96.52 27.2169 97.31C26.9169 98.09 26.5819 98.695 26.2119 99.125ZM36.4276 101C36.3176 101 36.2326 100.965 36.1726 100.895C36.1226 100.825 36.1076 100.735 36.1276 100.625L38.2126 90.875C38.2326 90.765 38.2826 90.675 38.3626 90.605C38.4526 90.535 38.5476 90.5 38.6476 90.5H40.0126C40.1126 90.5 40.1876 90.535 40.2376 90.605C40.2976 90.675 40.3176 90.765 40.2976 90.875L38.8276 97.805L45.2626 90.74C45.3126 90.69 45.3726 90.64 45.4426 90.59C45.5226 90.53 45.6226 90.5 45.7426 90.5H46.9876C47.0876 90.5 47.1626 90.535 47.2126 90.605C47.2726 90.675 47.2926 90.765 47.2726 90.875L45.1876 100.64C45.1676 100.74 45.1176 100.825 45.0376 100.895C44.9576 100.965 44.8676 101 44.7676 101H43.4026C43.3026 101 43.2226 100.965 43.1626 100.895C43.1026 100.825 43.0826 100.74 43.1026 100.64L44.5576 93.86L38.1526 100.76C38.1226 100.8 38.0676 100.85 37.9876 100.91C37.9076 100.97 37.8026 101 37.6726 101H36.4276ZM49.3241 101C49.2141 101 49.1291 100.965 49.0691 100.895C49.0191 100.825 49.0041 100.74 49.0241 100.64L51.1091 90.875C51.1291 90.765 51.1791 90.675 51.2591 90.605C51.3391 90.535 51.4341 90.5 51.5441 90.5H55.7741C56.5141 90.5 57.1241 90.625 57.6041 90.875C58.0941 91.115 58.4391 91.45 58.6391 91.88C58.8391 92.31 58.8791 92.81 58.7591 93.38C58.6691 93.79 58.5241 94.135 58.3241 94.415C58.1341 94.695 57.9241 94.925 57.6941 95.105C57.4641 95.275 57.2441 95.405 57.0341 95.495C57.3841 95.695 57.6641 96 57.8741 96.41C58.0941 96.82 58.1441 97.315 58.0241 97.895C57.8941 98.495 57.6641 99.03 57.3341 99.5C57.0041 99.97 56.5591 100.34 55.9991 100.61C55.4391 100.87 54.7491 101 53.9291 101H49.3241ZM51.3641 99.41H53.8691C54.3891 99.41 54.8291 99.265 55.1891 98.975C55.5491 98.675 55.7741 98.315 55.8641 97.895C55.9541 97.455 55.9041 97.09 55.7141 96.8C55.5241 96.51 55.1291 96.365 54.5291 96.365H52.0241L51.3641 99.41ZM52.3541 94.805H54.6641C55.1741 94.805 55.5991 94.68 55.9391 94.43C56.2791 94.17 56.4991 93.835 56.5991 93.425C56.6891 93.005 56.6391 92.68 56.4491 92.45C56.2591 92.21 55.9041 92.09 55.3841 92.09H52.9391L52.3541 94.805ZM64.9613 101.15C64.3513 101.15 63.7913 101.07 63.2813 100.91C62.7713 100.74 62.3463 100.485 62.0063 100.145C61.6663 99.805 61.4263 99.38 61.2863 98.87C61.1563 98.35 61.1513 97.74 61.2713 97.04C61.3413 96.61 61.4213 96.185 61.5113 95.765C61.6113 95.345 61.7113 94.915 61.8113 94.475C62.1413 93.115 62.7313 92.09 63.5813 91.4C64.4313 90.7 65.5363 90.35 66.8963 90.35C67.5163 90.35 68.0763 90.44 68.5763 90.62C69.0863 90.79 69.5113 91.05 69.8513 91.4C70.1913 91.74 70.4263 92.17 70.5563 92.69C70.6963 93.2 70.7063 93.795 70.5863 94.475C70.5163 94.915 70.4313 95.345 70.3313 95.765C70.2413 96.185 70.1463 96.61 70.0463 97.04C69.7063 98.43 69.1113 99.465 68.2613 100.145C67.4113 100.815 66.3113 101.15 64.9613 101.15ZM65.0963 99.425C65.7563 99.425 66.3363 99.235 66.8363 98.855C67.3463 98.465 67.7063 97.835 67.9163 96.965C68.0263 96.525 68.1213 96.12 68.2013 95.75C68.2813 95.37 68.3563 94.965 68.4263 94.535C68.5863 93.665 68.5163 93.04 68.2163 92.66C67.9263 92.27 67.4413 92.075 66.7613 92.075C66.0913 92.075 65.5063 92.27 65.0063 92.66C64.5163 93.04 64.1663 93.665 63.9563 94.535C63.8463 94.965 63.7513 95.37 63.6713 95.75C63.5913 96.12 63.5113 96.525 63.4313 96.965C63.2813 97.835 63.3463 98.465 63.6263 98.855C63.9163 99.235 64.4063 99.425 65.0963 99.425ZM72.901 101C72.801 101 72.721 100.965 72.661 100.895C72.611 100.825 72.596 100.74 72.616 100.64L74.701 90.875C74.721 90.765 74.771 90.675 74.851 90.605C74.931 90.535 75.021 90.5 75.121 90.5H81.241C81.351 90.5 81.436 90.535 81.496 90.605C81.556 90.675 81.576 90.765 81.556 90.875L81.316 91.925C81.296 92.025 81.246 92.11 81.166 92.18C81.086 92.25 80.991 92.285 80.881 92.285H76.486L74.701 100.64C74.681 100.74 74.631 100.825 74.551 100.895C74.471 100.965 74.376 101 74.266 101H72.901ZM82.7255 101C82.6155 101 82.5305 100.965 82.4705 100.895C82.4205 100.825 82.4055 100.74 82.4255 100.64L84.5105 90.875C84.5305 90.765 84.5805 90.675 84.6605 90.605C84.7405 90.535 84.8355 90.5 84.9455 90.5H88.7855C89.3755 90.5 89.9005 90.57 90.3605 90.71C90.8305 90.85 91.2155 91.06 91.5155 91.34C91.8155 91.62 92.0205 91.97 92.1305 92.39C92.2505 92.8 92.2505 93.28 92.1305 93.83C91.8905 94.94 91.4005 95.77 90.6605 96.32C89.9205 96.86 88.9405 97.13 87.7205 97.13H85.3205L84.5705 100.64C84.5505 100.74 84.5005 100.825 84.4205 100.895C84.3405 100.965 84.2455 101 84.1355 101H82.7255ZM85.6505 95.465H87.7655C88.3155 95.465 88.7905 95.33 89.1905 95.06C89.6005 94.78 89.8655 94.37 89.9855 93.83C90.0555 93.49 90.0705 93.2 90.0305 92.96C89.9905 92.71 89.8555 92.515 89.6255 92.375C89.4055 92.235 89.0555 92.165 88.5755 92.165H86.3555L85.6505 95.465ZM93.1378 101C93.0078 101 92.9228 100.95 92.8828 100.85C92.8328 100.75 92.8378 100.65 92.8978 100.55L98.5678 90.875C98.6278 90.775 98.7028 90.69 98.7928 90.62C98.8928 90.54 99.0178 90.5 99.1678 90.5H100.908C101.058 90.5 101.168 90.54 101.238 90.62C101.308 90.69 101.348 90.775 101.358 90.875L102.918 100.55C102.938 100.69 102.913 100.8 102.843 100.88C102.783 100.96 102.698 101 102.588 101H101.313C101.173 101 101.073 100.97 101.013 100.91C100.953 100.84 100.913 100.755 100.893 100.655L100.563 98.885H96.1078L95.0128 100.715C94.9628 100.785 94.8978 100.85 94.8178 100.91C94.7378 100.97 94.6378 101 94.5178 101H93.1378ZM96.9928 97.16H100.413L99.6928 92.525L96.9928 97.16ZM104.902 103.085C104.802 103.085 104.727 103.05 104.677 102.98C104.617 102.92 104.597 102.835 104.617 102.725L105.307 99.485C105.327 99.385 105.382 99.3 105.472 99.23C105.552 99.16 105.642 99.125 105.742 99.125H106.042C106.282 99.125 106.512 99.015 106.732 98.795C106.952 98.565 107.162 98.235 107.362 97.805C107.562 97.365 107.757 96.825 107.947 96.185C108.137 95.545 108.322 94.815 108.502 93.995L109.147 90.86C109.167 90.76 109.217 90.675 109.297 90.605C109.387 90.535 109.487 90.5 109.597 90.5H116.032C116.142 90.5 116.222 90.535 116.272 90.605C116.332 90.675 116.352 90.765 116.332 90.875L114.577 99.125H115.297C115.407 99.125 115.487 99.16 115.537 99.23C115.597 99.3 115.617 99.385 115.597 99.485L114.907 102.725C114.887 102.835 114.832 102.92 114.742 102.98C114.662 103.05 114.567 103.085 114.457 103.085H113.107C112.997 103.085 112.917 103.05 112.867 102.98C112.817 102.92 112.802 102.835 112.822 102.725L113.182 101H107.062L106.702 102.725C106.682 102.835 106.627 102.92 106.537 102.98C106.457 103.05 106.362 103.085 106.252 103.085H104.902ZM108.592 99.125H112.492L113.932 92.375H110.857L110.452 94.265C110.192 95.505 109.907 96.52 109.597 97.31C109.297 98.09 108.962 98.695 108.592 99.125ZM118.628 101C118.528 101 118.448 100.965 118.388 100.895C118.338 100.825 118.323 100.74 118.343 100.64L120.428 90.875C120.448 90.765 120.498 90.675 120.578 90.605C120.658 90.535 120.748 90.5 120.848 90.5H127.718C127.828 90.5 127.908 90.535 127.958 90.605C128.018 90.675 128.038 90.765 128.018 90.875L127.778 91.925C127.768 92.025 127.718 92.11 127.628 92.18C127.548 92.25 127.453 92.285 127.343 92.285H122.213L121.688 94.73H124.223C125.003 94.73 125.633 94.86 126.113 95.12C126.603 95.38 126.933 95.74 127.103 96.2C127.283 96.66 127.308 97.195 127.178 97.805C127.088 98.215 126.923 98.615 126.683 99.005C126.453 99.385 126.158 99.725 125.798 100.025C125.438 100.325 125.013 100.565 124.523 100.745C124.033 100.915 123.488 101 122.888 101H118.628ZM120.683 99.41H123.008C123.368 99.41 123.688 99.335 123.968 99.185C124.248 99.035 124.483 98.835 124.673 98.585C124.863 98.335 124.988 98.065 125.048 97.775C125.138 97.335 125.073 96.97 124.853 96.68C124.633 96.39 124.243 96.245 123.683 96.245H121.358L120.683 99.41ZM129.044 101C128.914 101 128.829 100.95 128.789 100.85C128.739 100.75 128.744 100.65 128.804 100.55L134.474 90.875C134.534 90.775 134.609 90.69 134.699 90.62C134.799 90.54 134.924 90.5 135.074 90.5H136.814C136.964 90.5 137.074 90.54 137.144 90.62C137.214 90.69 137.254 90.775 137.264 90.875L138.824 100.55C138.844 100.69 138.819 100.8 138.749 100.88C138.689 100.96 138.604 101 138.494 101H137.219C137.079 101 136.979 100.97 136.919 100.91C136.859 100.84 136.819 100.755 136.799 100.655L136.469 98.885H132.014L130.919 100.715C130.869 100.785 130.804 100.85 130.724 100.91C130.644 100.97 130.544 101 130.424 101H129.044ZM132.899 97.16H136.319L135.599 92.525L132.899 97.16Z" fill="black"/>
<path d="M139.478 144.915C139.578 144.915 139.653 144.95 139.703 145.02C139.763 145.08 139.783 145.165 139.763 145.275L139.073 148.515C139.053 148.615 138.998 148.7 138.908 148.77C138.828 148.84 138.738 148.875 138.638 148.875L138.338 148.875C138.098 148.875 137.868 148.985 137.648 149.205C137.428 149.435 137.218 149.765 137.018 150.195C136.818 150.635 136.623 151.175 136.433 151.815C136.243 152.455 136.058 153.185 135.878 154.005L135.233 157.14C135.213 157.24 135.163 157.325 135.083 157.395C134.993 157.465 134.893 157.5 134.783 157.5L128.348 157.5C128.238 157.5 128.158 157.465 128.108 157.395C128.048 157.325 128.028 157.235 128.048 157.125L129.803 148.875L129.083 148.875C128.973 148.875 128.893 148.84 128.843 148.77C128.783 148.7 128.763 148.615 128.783 148.515L129.473 145.275C129.493 145.165 129.548 145.08 129.638 145.02C129.718 144.95 129.813 144.915 129.923 144.915L131.273 144.915C131.383 144.915 131.463 144.95 131.513 145.02C131.563 145.08 131.578 145.165 131.558 145.275L131.198 147L137.318 147L137.678 145.275C137.698 145.165 137.753 145.08 137.843 145.02C137.923 144.95 138.018 144.915 138.128 144.915L139.478 144.915ZM135.788 148.875L131.888 148.875L130.448 155.625L133.523 155.625L133.928 153.735C134.188 152.495 134.473 151.48 134.783 150.69C135.083 149.91 135.418 149.305 135.788 148.875ZM125.572 147C125.682 147 125.767 147.035 125.827 147.105C125.877 147.175 125.892 147.265 125.872 147.375L123.787 157.125C123.767 157.235 123.717 157.325 123.637 157.395C123.547 157.465 123.452 157.5 123.352 157.5L121.987 157.5C121.887 157.5 121.812 157.465 121.762 157.395C121.702 157.325 121.682 157.235 121.702 157.125L123.172 150.195L116.737 157.26C116.687 157.31 116.627 157.36 116.557 157.41C116.477 157.47 116.377 157.5 116.257 157.5L115.012 157.5C114.912 157.5 114.837 157.465 114.787 157.395C114.727 157.325 114.707 157.235 114.727 157.125L116.812 147.36C116.832 147.26 116.882 147.175 116.962 147.105C117.042 147.035 117.132 147 117.232 147L118.597 147C118.697 147 118.777 147.035 118.837 147.105C118.897 147.175 118.917 147.26 118.897 147.36L117.442 154.14L123.847 147.24C123.877 147.2 123.932 147.15 124.012 147.09C124.092 147.03 124.197 147 124.327 147L125.572 147ZM112.676 147C112.786 147 112.871 147.035 112.931 147.105C112.981 147.175 112.996 147.26 112.976 147.36L110.891 157.125C110.871 157.235 110.821 157.325 110.741 157.395C110.661 157.465 110.566 157.5 110.456 157.5L106.226 157.5C105.486 157.5 104.876 157.375 104.396 157.125C103.906 156.885 103.561 156.55 103.361 156.12C103.161 155.69 103.121 155.19 103.241 154.62C103.331 154.21 103.476 153.865 103.676 153.585C103.866 153.305 104.076 153.075 104.306 152.895C104.536 152.725 104.756 152.595 104.966 152.505C104.616 152.305 104.336 152 104.126 151.59C103.906 151.18 103.856 150.685 103.976 150.105C104.106 149.505 104.336 148.97 104.666 148.5C104.996 148.03 105.441 147.66 106.001 147.39C106.561 147.13 107.251 147 108.071 147L112.676 147ZM110.636 148.59L108.131 148.59C107.611 148.59 107.171 148.735 106.811 149.025C106.451 149.325 106.226 149.685 106.136 150.105C106.046 150.545 106.096 150.91 106.286 151.2C106.476 151.49 106.871 151.635 107.471 151.635L109.976 151.635L110.636 148.59ZM109.646 153.195L107.336 153.195C106.826 153.195 106.401 153.32 106.061 153.57C105.721 153.83 105.501 154.165 105.401 154.575C105.311 154.995 105.361 155.32 105.551 155.55C105.741 155.79 106.096 155.91 106.616 155.91L109.061 155.91L109.646 153.195ZM97.0387 146.85C97.6487 146.85 98.2087 146.93 98.7187 147.09C99.2287 147.26 99.6537 147.515 99.9937 147.855C100.334 148.195 100.574 148.62 100.714 149.13C100.844 149.65 100.849 150.26 100.729 150.96C100.659 151.39 100.579 151.815 100.489 152.235C100.389 152.655 100.289 153.085 100.189 153.525C99.8587 154.885 99.2687 155.91 98.4187 156.6C97.5687 157.3 96.4637 157.65 95.1037 157.65C94.4837 157.65 93.9237 157.56 93.4237 157.38C92.9137 157.21 92.4887 156.95 92.1487 156.6C91.8087 156.26 91.5737 155.83 91.4437 155.31C91.3037 154.8 91.2937 154.205 91.4137 153.525C91.4837 153.085 91.5687 152.655 91.6687 152.235C91.7587 151.815 91.8537 151.39 91.9537 150.96C92.2937 149.57 92.8887 148.535 93.7387 147.855C94.5887 147.185 95.6887 146.85 97.0387 146.85ZM96.9037 148.575C96.2437 148.575 95.6637 148.765 95.1637 149.145C94.6537 149.535 94.2937 150.165 94.0837 151.035C93.9737 151.475 93.8787 151.88 93.7987 152.25C93.7187 152.63 93.6437 153.035 93.5737 153.465C93.4137 154.335 93.4837 154.96 93.7837 155.34C94.0737 155.73 94.5587 155.925 95.2387 155.925C95.9087 155.925 96.4937 155.73 96.9937 155.34C97.4837 154.96 97.8337 154.335 98.0437 153.465C98.1537 153.035 98.2487 152.63 98.3287 152.25C98.4087 151.88 98.4887 151.475 98.5687 151.035C98.7187 150.165 98.6537 149.535 98.3737 149.145C98.0837 148.765 97.5937 148.575 96.9037 148.575ZM89.099 147C89.199 147 89.279 147.035 89.339 147.105C89.389 147.175 89.404 147.26 89.384 147.36L87.299 157.125C87.279 157.235 87.229 157.325 87.149 157.395C87.069 157.465 86.979 157.5 86.879 157.5L80.759 157.5C80.649 157.5 80.564 157.465 80.504 157.395C80.444 157.325 80.424 157.235 80.444 157.125L80.684 156.075C80.704 155.975 80.754 155.89 80.834 155.82C80.914 155.75 81.009 155.715 81.119 155.715L85.514 155.715L87.299 147.36C87.319 147.26 87.369 147.175 87.449 147.105C87.529 147.035 87.624 147 87.734 147L89.099 147ZM79.2745 147C79.3845 147 79.4695 147.035 79.5295 147.105C79.5795 147.175 79.5945 147.26 79.5745 147.36L77.4895 157.125C77.4695 157.235 77.4195 157.325 77.3395 157.395C77.2595 157.465 77.1645 157.5 77.0545 157.5L73.2145 157.5C72.6245 157.5 72.0995 157.43 71.6395 157.29C71.1695 157.15 70.7845 156.94 70.4845 156.66C70.1845 156.38 69.9795 156.03 69.8695 155.61C69.7495 155.2 69.7495 154.72 69.8695 154.17C70.1095 153.06 70.5995 152.23 71.3395 151.68C72.0795 151.14 73.0595 150.87 74.2795 150.87L76.6795 150.87L77.4295 147.36C77.4495 147.26 77.4995 147.175 77.5795 147.105C77.6595 147.035 77.7545 147 77.8645 147L79.2745 147ZM76.3495 152.535L74.2345 152.535C73.6845 152.535 73.2095 152.67 72.8095 152.94C72.3995 153.22 72.1345 153.63 72.0145 154.17C71.9445 154.51 71.9295 154.8 71.9695 155.04C72.0095 155.29 72.1445 155.485 72.3745 155.625C72.5945 155.765 72.9445 155.835 73.4245 155.835L75.6445 155.835L76.3495 152.535ZM68.8622 147C68.9922 147 69.0772 147.05 69.1172 147.15C69.1672 147.25 69.1622 147.35 69.1022 147.45L63.4322 157.125C63.3722 157.225 63.2972 157.31 63.2072 157.38C63.1072 157.46 62.9822 157.5 62.8322 157.5L61.0922 157.5C60.9422 157.5 60.8322 157.46 60.7622 157.38C60.6922 157.31 60.6522 157.225 60.6422 157.125L59.0822 147.45C59.0622 147.31 59.0872 147.2 59.1572 147.12C59.2172 147.04 59.3022 147 59.4122 147L60.6872 147C60.8272 147 60.9272 147.03 60.9872 147.09C61.0472 147.16 61.0872 147.245 61.1072 147.345L61.4372 149.115L65.8922 149.115L66.9872 147.285C67.0372 147.215 67.1022 147.15 67.1822 147.09C67.2622 147.03 67.3622 147 67.4822 147L68.8622 147ZM65.0072 150.84L61.5872 150.84L62.3072 155.475L65.0072 150.84ZM57.0982 144.915C57.1982 144.915 57.2732 144.95 57.3232 145.02C57.3832 145.08 57.4032 145.165 57.3832 145.275L56.6932 148.515C56.6732 148.615 56.6182 148.7 56.5282 148.77C56.4482 148.84 56.3582 148.875 56.2582 148.875L55.9582 148.875C55.7182 148.875 55.4882 148.985 55.2682 149.205C55.0482 149.435 54.8382 149.765 54.6382 150.195C54.4382 150.635 54.2432 151.175 54.0532 151.815C53.8632 152.455 53.6782 153.185 53.4982 154.005L52.8532 157.14C52.8332 157.24 52.7832 157.325 52.7032 157.395C52.6132 157.465 52.5132 157.5 52.4032 157.5L45.9682 157.5C45.8582 157.5 45.7782 157.465 45.7282 157.395C45.6682 157.325 45.6482 157.235 45.6682 157.125L47.4232 148.875L46.7032 148.875C46.5932 148.875 46.5132 148.84 46.4632 148.77C46.4032 148.7 46.3832 148.615 46.4032 148.515L47.0932 145.275C47.1132 145.165 47.1682 145.08 47.2582 145.02C47.3382 144.95 47.4332 144.915 47.5432 144.915L48.8932 144.915C49.0032 144.915 49.0832 144.95 49.1332 145.02C49.1832 145.08 49.1982 145.165 49.1782 145.275L48.8182 147L54.9382 147L55.2982 145.275C55.3182 145.165 55.3732 145.08 55.4632 145.02C55.5432 144.95 55.6382 144.915 55.7482 144.915L57.0982 144.915ZM53.4082 148.875L49.5082 148.875L48.0682 155.625L51.1432 155.625L51.5482 153.735C51.8082 152.495 52.0932 151.48 52.4032 150.69C52.7032 149.91 53.0382 149.305 53.4082 148.875ZM43.3725 147C43.4725 147 43.5525 147.035 43.6125 147.105C43.6625 147.175 43.6775 147.26 43.6575 147.36L41.5725 157.125C41.5525 157.235 41.5025 157.325 41.4225 157.395C41.3425 157.465 41.2525 157.5 41.1525 157.5L34.2825 157.5C34.1725 157.5 34.0925 157.465 34.0425 157.395C33.9825 157.325 33.9625 157.235 33.9825 157.125L34.2225 156.075C34.2325 155.975 34.2825 155.89 34.3725 155.82C34.4525 155.75 34.5475 155.715 34.6575 155.715L39.7875 155.715L40.3125 153.27L37.7775 153.27C36.9975 153.27 36.3675 153.14 35.8875 152.88C35.3975 152.62 35.0675 152.26 34.8975 151.8C34.7175 151.34 34.6925 150.805 34.8225 150.195C34.9125 149.785 35.0775 149.385 35.3175 148.995C35.5475 148.615 35.8425 148.275 36.2025 147.975C36.5625 147.675 36.9875 147.435 37.4775 147.255C37.9675 147.085 38.5125 147 39.1125 147L43.3725 147ZM41.3175 148.59L38.9925 148.59C38.6325 148.59 38.3125 148.665 38.0325 148.815C37.7525 148.965 37.5175 149.165 37.3275 149.415C37.1375 149.665 37.0125 149.935 36.9525 150.225C36.8625 150.665 36.9275 151.03 37.1475 151.32C37.3675 151.61 37.7575 151.755 38.3175 151.755L40.6425 151.755L41.3175 148.59ZM32.9559 147C33.0859 147 33.1709 147.05 33.2109 147.15C33.2609 147.25 33.2559 147.35 33.1959 147.45L27.5259 157.125C27.4659 157.225 27.3909 157.31 27.3009 157.38C27.2009 157.46 27.0759 157.5 26.9259 157.5L25.1859 157.5C25.0359 157.5 24.9259 157.46 24.8559 157.38C24.7859 157.31 24.7459 157.225 24.7359 157.125L23.1759 147.45C23.1559 147.31 23.1809 147.2 23.2509 147.12C23.3109 147.04 23.3959 147 23.5059 147L24.7809 147C24.9209 147 25.0209 147.03 25.0809 147.09C25.1409 147.16 25.1809 147.245 25.2009 147.345L25.5309 149.115L29.9859 149.115L31.0809 147.285C31.1309 147.215 31.1959 147.15 31.2759 147.09C31.3559 147.03 31.4559 147 31.5759 147L32.9559 147ZM29.1009 150.84L25.6809 150.84L26.4009 155.475L29.1009 150.84Z" fill="black"/>
<path d="M30.6579 35.3917C29.5857 35.3917 28.6656 35.2613 27.8977 35.0004C27.1298 34.7396 26.4995 34.4064 26.0069 34.0007C25.5143 33.595 25.1448 33.1531 24.8985 32.675C24.6522 32.1824 24.5218 31.7115 24.5073 31.2623C24.5073 31.1319 24.5508 31.0232 24.6377 30.9363C24.7246 30.8494 24.8333 30.8059 24.9637 30.8059H27.3544C27.5138 30.8059 27.6442 30.8421 27.7456 30.9146C27.847 30.9725 27.9412 31.0812 28.0281 31.2406C28.144 31.5738 28.3324 31.8419 28.5932 32.0447C28.854 32.2476 29.1583 32.3924 29.506 32.4794C29.8682 32.5518 30.2522 32.588 30.6579 32.588C31.4692 32.588 32.1068 32.3997 32.5704 32.023C33.0341 31.6463 33.2659 31.1174 33.2659 30.4364C33.2659 29.741 33.0485 29.2411 32.6139 28.9368C32.1792 28.6326 31.5634 28.4804 30.7665 28.4804H28.4411C28.2962 28.4804 28.173 28.4297 28.0716 28.3283C27.9702 28.2269 27.9195 28.1037 27.9195 27.9588V26.8939C27.9195 26.72 27.9484 26.5751 28.0064 26.4592C28.0788 26.3433 28.1513 26.2564 28.2237 26.1984L31.9619 22.7645H25.8331C25.6737 22.7645 25.5433 22.7138 25.4419 22.6124C25.3404 22.511 25.2897 22.3878 25.2897 22.2429V20.5043C25.2897 20.3449 25.3404 20.2145 25.4419 20.1131C25.5433 20.0116 25.6737 19.9609 25.8331 19.9609H35.4827C35.6421 19.9609 35.7725 20.0116 35.8739 20.1131C35.9753 20.2145 36.026 20.3449 36.026 20.5043V22.0691C36.026 22.2285 35.997 22.3661 35.9391 22.482C35.8811 22.5834 35.8087 22.6631 35.7217 22.7211L32.1792 26.2202L32.3965 26.2419C33.2514 26.3288 34.0121 26.5389 34.6785 26.8722C35.345 27.2054 35.8666 27.6835 36.2434 28.3066C36.6346 28.9151 36.8302 29.6903 36.8302 30.632C36.8302 31.6173 36.5621 32.4649 36.026 33.1748C35.4899 33.8848 34.7582 34.4354 33.8309 34.8266C32.9037 35.2033 31.846 35.3917 30.6579 35.3917Z" fill="#FBFBFB"/>
<path d="M39.989 27C39.913 27 39.8496 26.9747 39.799 26.924C39.7483 26.8733 39.7229 26.8099 39.7229 26.7339V20.6647C39.7229 20.5971 39.7483 20.538 39.799 20.4873C39.8496 20.4366 39.9088 20.4113 39.9763 20.4113H41.2181C41.3701 20.4113 41.4884 20.4873 41.5728 20.6394L43.4227 23.9464L45.26 20.6394C45.3444 20.4873 45.4627 20.4113 45.6147 20.4113H46.8691C46.9367 20.4113 46.9958 20.4366 47.0465 20.4873C47.0972 20.538 47.1225 20.5971 47.1225 20.6647V26.7339C47.1225 26.8099 47.0972 26.8733 47.0465 26.924C46.9958 26.9747 46.9325 27 46.8565 27H45.5261C45.4416 27 45.374 26.9747 45.3233 26.924C45.2811 26.8733 45.26 26.8099 45.26 26.7339V22.3626L45.8301 22.4766L44.0309 25.7076C43.9887 25.7836 43.938 25.8512 43.8789 25.9103C43.8282 25.9695 43.7522 25.999 43.6508 25.999H43.182C43.0891 25.999 43.0131 25.9737 42.9539 25.923C42.8948 25.8639 42.8399 25.7921 42.7892 25.7076L41.0407 22.5906L41.5728 22.4766V26.7339C41.5728 26.8099 41.5475 26.8733 41.4968 26.924C41.4461 26.9747 41.3828 27 41.3068 27H39.989Z" fill="#FBFBFB"/>
<path d="M153 228C153 233.523 148.523 238 143 238L18 238C12.4771 238 8 233.523 8 228L8 201C8 199.895 8.89543 199 10 199L151 199C152.105 199 153 199.895 153 201L153 228Z" fill="#848484"/>
<path d="M152.5 228C152.5 233.247 148.247 237.5 143 237.5L18 237.5C12.7533 237.5 8.5 233.247 8.5 228L8.5 201C8.5 200.172 9.17157 199.5 10 199.5L151 199.5C151.828 199.5 152.5 200.172 152.5 201L152.5 228Z" stroke="black" stroke-opacity="0.3"/>
<path d="M99.745 217.46C99.8257 217.46 99.888 217.489 99.932 217.548C99.976 217.599 99.9943 217.665 99.987 217.746L99.712 219L101.736 219C101.809 219 101.868 219.026 101.912 219.077C101.956 219.136 101.971 219.205 101.956 219.286L100.438 226.414C100.423 226.502 100.383 226.572 100.317 226.623C100.244 226.674 100.17 226.7 100.097 226.7L98.304 226.7C98.2233 226.7 98.161 226.671 98.117 226.612C98.073 226.561 98.0583 226.495 98.073 226.414L99.206 221.09L96.962 221.09L95.829 226.414C95.8143 226.495 95.774 226.561 95.708 226.612C95.642 226.671 95.5687 226.7 95.488 226.7L93.695 226.7C93.6143 226.7 93.552 226.671 93.508 226.612C93.464 226.561 93.4493 226.495 93.464 226.414L94.982 219.286C94.9967 219.205 95.0407 219.136 95.114 219.077C95.18 219.026 95.2533 219 95.334 219L97.347 219L97.622 217.746C97.6293 217.665 97.6697 217.599 97.743 217.548C97.809 217.489 97.8823 217.46 97.963 217.46L99.745 217.46ZM90.8481 218.89C91.4567 218.89 91.9664 218.993 92.3771 219.198C92.7804 219.411 93.0591 219.73 93.2131 220.155C93.3671 220.58 93.3781 221.119 93.2461 221.772C93.2387 221.801 93.2314 221.838 93.2241 221.882C93.2167 221.933 93.2094 221.97 93.2021 221.992C93.0554 222.601 92.8134 223.114 92.4761 223.532C92.1387 223.957 91.7244 224.28 91.2331 224.5C90.7417 224.72 90.1954 224.83 89.5941 224.83C88.9194 224.83 88.3914 224.694 88.0101 224.423C87.6214 224.159 87.3684 223.803 87.2511 223.356C87.1264 222.916 87.1191 222.421 87.2291 221.871L87.2841 221.563C87.2987 221.49 87.3427 221.424 87.4161 221.365C87.4821 221.306 87.5554 221.277 87.6361 221.277L91.0351 221.277C91.0351 221.277 91.0387 221.27 91.0461 221.255C91.0461 221.24 91.0461 221.226 91.0461 221.211C91.0827 221.035 91.0937 220.877 91.0791 220.738C91.0571 220.606 91.0057 220.5 90.9251 220.419C90.8371 220.346 90.7197 220.309 90.5731 220.309C90.4777 220.309 90.3934 220.324 90.3201 220.353C90.2467 220.382 90.1807 220.419 90.1221 220.463C90.0634 220.514 90.0084 220.562 89.9571 220.606C89.8764 220.672 89.8141 220.712 89.7701 220.727C89.7187 220.749 89.6527 220.76 89.5721 220.76L87.8451 220.76C87.7717 220.76 87.7167 220.738 87.6801 220.694C87.6434 220.65 87.6361 220.595 87.6581 220.529C87.6947 220.397 87.7901 220.236 87.9441 220.045C88.0981 219.862 88.3144 219.682 88.5931 219.506C88.8644 219.33 89.1907 219.183 89.5721 219.066C89.9534 218.949 90.3787 218.89 90.8481 218.89ZM90.7711 222.509L89.3961 222.509L89.3961 222.531C89.3521 222.729 89.3447 222.898 89.3741 223.037C89.3961 223.176 89.4511 223.279 89.5391 223.345C89.6271 223.418 89.7444 223.455 89.8911 223.455C90.0377 223.455 90.1697 223.418 90.2871 223.345C90.4044 223.279 90.5034 223.176 90.5841 223.037C90.6574 222.898 90.7197 222.729 90.7711 222.531L90.7711 222.509ZM86.7294 219C86.8101 219 86.8724 219.026 86.9164 219.077C86.9604 219.136 86.9751 219.205 86.9604 219.286L85.8604 224.434C85.8458 224.515 85.8054 224.581 85.7394 224.632C85.6734 224.691 85.6001 224.72 85.5194 224.72L82.8134 224.72C81.8748 224.72 81.2294 224.57 80.8774 224.269C80.5181 223.968 80.3934 223.561 80.5034 223.048C80.5621 222.791 80.6611 222.571 80.8004 222.388C80.9398 222.212 81.1048 222.062 81.2954 221.937C81.1488 221.856 81.0314 221.757 80.9434 221.64C80.8554 221.523 80.7968 221.387 80.7674 221.233C80.7308 221.086 80.7344 220.914 80.7784 220.716C80.8884 220.195 81.1891 219.777 81.6804 219.462C82.1718 219.154 82.8904 219 83.8364 219L86.7294 219ZM84.6064 220.342L83.4844 220.342C83.3084 220.342 83.1618 220.371 83.0444 220.43C82.9271 220.496 82.8538 220.602 82.8244 220.749C82.7951 220.903 82.8208 221.009 82.9014 221.068C82.9821 221.127 83.1178 221.156 83.3084 221.156L84.4304 221.156L84.6064 220.342ZM84.1334 222.564L83.2094 222.564C83.0261 222.564 82.8831 222.597 82.7804 222.663C82.6704 222.729 82.5971 222.835 82.5604 222.982C82.5311 223.129 82.5604 223.231 82.6484 223.29C82.7364 223.349 82.8648 223.378 83.0334 223.378L83.9684 223.378L84.1334 222.564ZM77.9954 218.89C78.3328 218.89 78.6371 218.941 78.9084 219.044C79.1724 219.147 79.3924 219.304 79.5684 219.517C79.7371 219.73 79.8508 219.997 79.9094 220.32C79.9681 220.643 79.9608 221.02 79.8874 221.453C79.8581 221.614 79.8324 221.754 79.8104 221.871C79.7811 221.988 79.7481 222.124 79.7114 222.278C79.6088 222.689 79.4694 223.052 79.2934 223.367C79.1174 223.69 78.9084 223.957 78.6664 224.17C78.4244 224.383 78.1531 224.544 77.8524 224.654C77.5444 224.771 77.2108 224.83 76.8514 224.83C76.4188 224.83 76.0888 224.771 75.8614 224.654C75.6268 224.544 75.4434 224.401 75.3114 224.225L75.2564 224.434C75.2418 224.515 75.2014 224.581 75.1354 224.632C75.0694 224.691 74.9998 224.72 74.9264 224.72L73.3754 224.72C73.2948 224.72 73.2324 224.691 73.1884 224.632C73.1444 224.581 73.1298 224.515 73.1444 224.434L74.2334 219.286C74.2481 219.205 74.2884 219.136 74.3544 219.077C74.4204 219.026 74.4938 219 74.5744 219L76.1254 219C76.2061 219 76.2721 219.026 76.3234 219.077C76.3674 219.136 76.3821 219.205 76.3674 219.286L76.3014 219.594C76.5214 219.381 76.7598 219.209 77.0164 219.077C77.2731 218.952 77.5994 218.89 77.9954 218.89ZM77.0054 220.606C76.8148 220.606 76.6571 220.646 76.5324 220.727C76.4004 220.808 76.2941 220.914 76.2134 221.046C76.1328 221.178 76.0704 221.325 76.0264 221.486C75.9824 221.647 75.9494 221.787 75.9274 221.904C75.8981 222.021 75.8724 222.157 75.8504 222.311C75.8284 222.465 75.8321 222.601 75.8614 222.718C75.8834 222.835 75.9421 222.931 76.0374 223.004C76.1328 223.077 76.2684 223.114 76.4444 223.114C76.6278 223.114 76.7818 223.074 76.9064 222.993C77.0311 222.92 77.1338 222.813 77.2144 222.674C77.2878 222.542 77.3501 222.388 77.4014 222.212C77.4308 222.102 77.4601 221.985 77.4894 221.86C77.5188 221.735 77.5408 221.618 77.5554 221.508C77.5774 221.332 77.5811 221.174 77.5664 221.035C77.5518 220.903 77.5004 220.797 77.4124 220.716C77.3244 220.643 77.1888 220.606 77.0054 220.606ZM73.3801 219C73.4901 219 73.5561 219.048 73.5781 219.143C73.6001 219.238 73.5817 219.323 73.5231 219.396L71.1251 222.003L72.2471 224.324C72.2764 224.412 72.2617 224.5 72.2031 224.588C72.1371 224.676 72.0564 224.72 71.9611 224.72L70.3331 224.72C70.2304 224.72 70.1607 224.694 70.1241 224.643C70.0801 224.599 70.0507 224.559 70.0361 224.522L69.4641 223.378L68.3971 224.522C68.3677 224.559 68.3237 224.599 68.2651 224.643C68.2064 224.694 68.1221 224.72 68.0121 224.72L66.2631 224.72C66.1457 224.72 66.0761 224.669 66.0541 224.566C66.0321 224.471 66.0541 224.386 66.1201 224.313L68.3531 221.86L67.1871 219.396C67.1431 219.301 67.1467 219.209 67.1981 219.121C67.2421 219.04 67.3264 219 67.4511 219L69.1231 219C69.2111 219 69.2771 219.022 69.3211 219.066C69.3577 219.11 69.3871 219.15 69.4091 219.187L70.0361 220.452L71.2131 219.187C71.2424 219.158 71.2864 219.117 71.3451 219.066C71.3964 219.022 71.4734 219 71.5761 219L73.3801 219ZM64.2792 218.89C64.6825 218.89 65.0382 218.982 65.3462 219.165C65.6469 219.348 65.8632 219.623 65.9952 219.99C66.1199 220.357 66.1199 220.819 65.9952 221.376L65.3572 224.434C65.3425 224.515 65.3022 224.581 65.2362 224.632C65.1629 224.691 65.0859 224.72 65.0052 224.72L63.2672 224.72C63.1865 224.72 63.1242 224.691 63.0802 224.632C63.0362 224.581 63.0215 224.515 63.0362 224.434L63.6742 221.453C63.7109 221.27 63.7182 221.116 63.6962 220.991C63.6742 220.866 63.6155 220.771 63.5202 220.705C63.4249 220.639 63.2929 220.606 63.1242 220.606C62.8749 220.606 62.6659 220.679 62.4972 220.826C62.3212 220.973 62.2039 221.182 62.1452 221.453L61.5182 224.434C61.5035 224.515 61.4632 224.581 61.3972 224.632C61.3239 224.691 61.2469 224.72 61.1662 224.72L59.4282 224.72C59.3475 224.72 59.2889 224.691 59.2522 224.632C59.2082 224.581 59.1935 224.515 59.2082 224.434L60.2972 219.286C60.3119 219.205 60.3522 219.136 60.4182 219.077C60.4842 219.026 60.5575 219 60.6382 219L62.2442 219C62.3249 219 62.3872 219.026 62.4312 219.077C62.4752 219.136 62.4899 219.205 62.4752 219.286L62.3872 219.682C62.5485 219.506 62.7172 219.359 62.8932 219.242C63.0692 219.125 63.2672 219.037 63.4872 218.978C63.7072 218.919 63.9712 218.89 64.2792 218.89ZM59.0847 216.91C59.1654 216.91 59.224 216.939 59.2607 216.998C59.3047 217.049 59.3194 217.115 59.3047 217.196L57.7647 224.434C57.75 224.515 57.7097 224.581 57.6437 224.632C57.5777 224.691 57.5044 224.72 57.4237 224.72L55.8727 224.72C55.792 224.72 55.7297 224.691 55.6857 224.632C55.6344 224.581 55.616 224.515 55.6307 224.434L55.7187 224.071C55.4987 224.291 55.2384 224.471 54.9377 224.61C54.6297 224.757 54.2777 224.83 53.8817 224.83C53.537 224.83 53.24 224.779 52.9907 224.676C52.734 224.573 52.5287 224.416 52.3747 224.203C52.2134 223.998 52.107 223.734 52.0557 223.411C52.0044 223.088 52.019 222.711 52.0997 222.278C52.1217 222.124 52.1474 221.985 52.1767 221.86C52.1987 221.735 52.228 221.592 52.2647 221.431C52.404 220.888 52.6167 220.426 52.9027 220.045C53.1814 219.671 53.5114 219.385 53.8927 219.187C54.274 218.989 54.692 218.89 55.1467 218.89C55.484 218.89 55.77 218.945 56.0047 219.055C56.2394 219.172 56.4154 219.352 56.5327 219.594L57.0497 217.196C57.0644 217.115 57.1084 217.049 57.1817 216.998C57.2477 216.939 57.3174 216.91 57.3907 216.91L59.0847 216.91ZM55.5317 220.606C55.341 220.606 55.187 220.643 55.0697 220.716C54.945 220.797 54.846 220.903 54.7727 221.035C54.692 221.174 54.626 221.332 54.5747 221.508C54.538 221.618 54.505 221.735 54.4757 221.86C54.4464 221.985 54.428 222.102 54.4207 222.212C54.3987 222.388 54.3987 222.542 54.4207 222.674C54.4427 222.813 54.4977 222.92 54.5857 222.993C54.6737 223.074 54.8167 223.114 55.0147 223.114C55.198 223.114 55.3557 223.074 55.4877 222.993C55.6124 222.912 55.715 222.806 55.7957 222.674C55.869 222.542 55.9277 222.395 55.9717 222.234C56.0157 222.08 56.0524 221.941 56.0817 221.816C56.1037 221.699 56.1257 221.563 56.1477 221.409C56.1697 221.255 56.166 221.119 56.1367 221.002C56.1074 220.885 56.045 220.789 55.9497 220.716C55.847 220.643 55.7077 220.606 55.5317 220.606ZM102.374 206C102.462 206 102.521 206.04 102.55 206.121C102.587 206.209 102.572 206.29 102.506 206.363L99.228 209.971L100.9 213.337C100.944 213.418 100.94 213.498 100.889 213.579C100.83 213.66 100.746 213.7 100.636 213.7L98.843 213.7C98.7037 213.7 98.6083 213.667 98.557 213.601C98.5057 213.535 98.4727 213.484 98.458 213.447L97.578 211.687L96.06 213.447C96.0233 213.484 95.9683 213.535 95.895 213.601C95.8143 213.667 95.708 213.7 95.576 213.7L93.596 213.7C93.4933 213.7 93.431 213.656 93.409 213.568C93.3797 213.48 93.3943 213.403 93.453 213.337L96.577 209.674L94.916 206.352C94.8793 206.271 94.8867 206.191 94.938 206.11C94.982 206.037 95.0627 206 95.18 206L96.973 206C97.105 206 97.2003 206.033 97.259 206.099C97.3103 206.165 97.3433 206.213 97.358 206.242L98.205 207.914L99.734 206.242C99.756 206.213 99.8073 206.165 99.888 206.099C99.9613 206.033 100.068 206 100.207 206L102.374 206ZM91.3315 205.89C91.9401 205.89 92.4535 205.985 92.8715 206.176C93.2895 206.367 93.5938 206.645 93.7845 207.012C93.9751 207.386 94.0301 207.833 93.9495 208.354C93.9275 208.508 93.8981 208.677 93.8615 208.86C93.8248 209.043 93.7845 209.212 93.7405 209.366C93.5865 209.894 93.3628 210.341 93.0695 210.708C92.7761 211.075 92.3985 211.353 91.9365 211.544C91.4671 211.735 90.9098 211.83 90.2645 211.83C89.6778 211.83 89.1755 211.735 88.7575 211.544C88.3395 211.353 88.0278 211.075 87.8225 210.708C87.6171 210.341 87.5548 209.894 87.6355 209.366C87.6648 209.212 87.6978 209.043 87.7345 208.86C87.7711 208.677 87.8115 208.508 87.8555 208.354C87.9948 207.833 88.2075 207.386 88.4935 207.012C88.7795 206.645 89.1535 206.367 89.6155 206.176C90.0775 205.985 90.6495 205.89 91.3315 205.89ZM91.1115 207.441C90.8401 207.441 90.6348 207.522 90.4955 207.683C90.3561 207.844 90.2425 208.086 90.1545 208.409C90.1251 208.519 90.0921 208.669 90.0555 208.86C90.0115 209.051 89.9821 209.201 89.9675 209.311C89.9161 209.626 89.9235 209.865 89.9895 210.026C90.0481 210.195 90.2131 210.279 90.4845 210.279C90.7485 210.279 90.9538 210.195 91.1005 210.026C91.2398 209.865 91.3498 209.626 91.4305 209.311C91.4598 209.201 91.4965 209.051 91.5405 208.86C91.5845 208.669 91.6138 208.519 91.6285 208.409C91.6725 208.086 91.6651 207.844 91.6065 207.683C91.5478 207.522 91.3828 207.441 91.1115 207.441ZM87.2725 206C87.3458 206 87.4045 206.026 87.4485 206.077C87.4998 206.136 87.5181 206.205 87.5035 206.286L87.2505 207.496C87.2065 207.657 87.0891 207.753 86.8985 207.782C86.6931 207.811 86.5281 207.903 86.4035 208.057C86.2715 208.218 86.1615 208.446 86.0735 208.739C85.9781 209.04 85.8901 209.399 85.8095 209.817L85.4575 211.434C85.4428 211.515 85.4025 211.581 85.3365 211.632C85.2705 211.691 85.1971 211.72 85.1165 211.72L80.4525 211.72C80.3718 211.72 80.3095 211.691 80.2655 211.632C80.2141 211.581 80.1958 211.515 80.2105 211.434L81.3215 206.286C81.3361 206.205 81.3765 206.136 81.4425 206.077C81.5085 206.026 81.5818 206 81.6625 206L83.2905 206C83.3711 206 83.4335 206.026 83.4775 206.077C83.5215 206.136 83.5398 206.205 83.5325 206.286L82.7295 210.037L83.6645 210.037L83.7635 209.586C83.9101 208.889 84.0715 208.306 84.2475 207.837C84.4235 207.375 84.6398 207.008 84.8965 206.737C85.1458 206.473 85.4648 206.282 85.8535 206.165C86.2348 206.055 86.7078 206 87.2725 206ZM77.3129 205.89C77.9289 205.89 78.4459 205.985 78.8639 206.176C79.2819 206.367 79.5862 206.645 79.7769 207.012C79.9602 207.386 80.0116 207.833 79.9309 208.354C79.9162 208.457 79.9052 208.534 79.8979 208.585C79.8906 208.636 79.8796 208.688 79.8649 208.739C79.8502 208.798 79.8319 208.878 79.8099 208.981C79.6706 209.509 79.4652 209.953 79.1939 210.312C78.9152 210.679 78.5632 210.954 78.1379 211.137C77.7052 211.328 77.1919 211.423 76.5979 211.423C76.3192 211.423 76.0589 211.386 75.8169 211.313C75.5676 211.247 75.3402 211.141 75.1349 210.994C75.0909 211.368 75.1349 211.676 75.2669 211.918C75.3989 212.167 75.6262 212.354 75.9489 212.479C76.2642 212.611 76.6896 212.684 77.2249 212.699C77.3129 212.699 77.3826 212.728 77.4339 212.787C77.4852 212.846 77.5109 212.912 77.5109 212.985L77.5109 213.964C77.5109 214.045 77.4852 214.111 77.4339 214.162C77.3752 214.221 77.3019 214.254 77.2139 214.261C76.2532 214.261 75.4796 214.103 74.8929 213.788C74.3062 213.48 73.8956 213.022 73.6609 212.413C73.4189 211.804 73.3529 211.049 73.4629 210.147C73.4849 209.861 73.5289 209.579 73.5949 209.3C73.6536 209.021 73.7342 208.706 73.8369 208.354C73.9762 207.833 74.1889 207.386 74.4749 207.012C74.7609 206.645 75.1349 206.367 75.5969 206.176C76.0589 205.985 76.6309 205.89 77.3129 205.89ZM77.0929 207.441C76.8289 207.441 76.6272 207.522 76.4879 207.683C76.3412 207.844 76.2239 208.086 76.1359 208.409C76.1066 208.512 76.0846 208.596 76.0699 208.662C76.0552 208.735 76.0406 208.823 76.0259 208.926C75.9892 209.124 75.9819 209.293 76.0039 209.432C76.0186 209.579 76.0699 209.689 76.1579 209.762C76.2459 209.843 76.3742 209.883 76.5429 209.883C76.8216 209.883 77.0306 209.799 77.1699 209.63C77.3019 209.469 77.4119 209.234 77.4999 208.926C77.5292 208.823 77.5512 208.735 77.5659 208.662C77.5806 208.596 77.5952 208.512 77.6099 208.409C77.6612 208.086 77.6576 207.844 77.5989 207.683C77.5329 207.522 77.3642 207.441 77.0929 207.441ZM71.1435 205.89C71.5468 205.89 71.9025 205.982 72.2105 206.165C72.5111 206.348 72.7275 206.623 72.8595 206.99C72.9841 207.357 72.9841 207.819 72.8595 208.376L72.2215 211.434C72.2068 211.515 72.1665 211.581 72.1005 211.632C72.0271 211.691 71.9501 211.72 71.8695 211.72L70.1315 211.72C70.0508 211.72 69.9885 211.691 69.9445 211.632C69.9005 211.581 69.8858 211.515 69.9005 211.434L70.5385 208.453C70.5751 208.27 70.5825 208.116 70.5605 207.991C70.5385 207.866 70.4798 207.771 70.3845 207.705C70.2891 207.639 70.1571 207.606 69.9885 207.606C69.7391 207.606 69.5301 207.679 69.3615 207.826C69.1855 207.973 69.0681 208.182 69.0095 208.453L68.3825 211.434C68.3678 211.515 68.3275 211.581 68.2615 211.632C68.1881 211.691 68.1111 211.72 68.0305 211.72L66.2925 211.72C66.2118 211.72 66.1531 211.691 66.1165 211.632C66.0725 211.581 66.0578 211.515 66.0725 211.434L67.1615 206.286C67.1761 206.205 67.2165 206.136 67.2825 206.077C67.3485 206.026 67.4218 206 67.5025 206L69.1085 206C69.1891 206 69.2515 206.026 69.2955 206.077C69.3395 206.136 69.3541 206.205 69.3395 206.286L69.2515 206.682C69.4128 206.506 69.5815 206.359 69.7575 206.242C69.9335 206.125 70.1315 206.037 70.3515 205.978C70.5715 205.919 70.8355 205.89 71.1435 205.89ZM65.707 206C65.7876 206 65.85 206.026 65.894 206.077C65.938 206.136 65.9526 206.205 65.938 206.286L64.838 211.434C64.8233 211.515 64.783 211.581 64.717 211.632C64.651 211.691 64.5776 211.72 64.497 211.72L62.869 211.72C62.7883 211.72 62.726 211.691 62.682 211.632C62.6306 211.581 62.6123 211.515 62.627 211.434L63.001 209.74L61.461 209.74L61.098 211.434C61.0833 211.515 61.043 211.581 60.977 211.632C60.911 211.691 60.8376 211.72 60.757 211.72L59.118 211.72C59.0373 211.72 58.975 211.691 58.931 211.632C58.887 211.581 58.8723 211.515 58.887 211.434L59.987 206.286C60.0016 206.205 60.042 206.136 60.108 206.077C60.174 206.026 60.2473 206 60.328 206L61.967 206C62.0476 206 62.11 206.026 62.154 206.077C62.198 206.136 62.2126 206.205 62.198 206.286L61.813 208.057L63.353 208.057L63.738 206.286C63.7526 206.205 63.793 206.136 63.859 206.077C63.925 206.026 63.9983 206 64.079 206L65.707 206ZM58.5527 206C58.6333 206 58.6957 206.026 58.7397 206.077C58.7837 206.136 58.7983 206.205 58.7837 206.286L57.6837 211.434C57.669 211.515 57.6287 211.581 57.5627 211.632C57.4967 211.691 57.4233 211.72 57.3427 211.72L53.5037 211.72C53.423 211.72 53.3607 211.691 53.3167 211.632C53.2653 211.581 53.247 211.515 53.2617 211.434L53.5037 210.323C53.5183 210.242 53.5623 210.173 53.6357 210.114C53.7017 210.063 53.775 210.037 53.8557 210.037L55.7807 210.037L56.5837 206.286C56.5983 206.205 56.6387 206.136 56.7047 206.077C56.7707 206.026 56.844 206 56.9247 206L58.5527 206Z" fill="#FBFBFB"/>
<path d="M138.797 178C138.848 178 138.888 178.016 138.916 178.049C138.944 178.082 138.953 178.124 138.944 178.175L138.237 181.465C138.228 181.516 138.204 181.558 138.167 181.591C138.125 181.624 138.078 181.64 138.027 181.64L135.689 181.64C135.642 181.64 135.605 181.624 135.577 181.591C135.549 181.558 135.54 181.516 135.549 181.465L135.668 180.898C135.677 180.847 135.703 180.805 135.745 180.772C135.787 180.739 135.834 180.723 135.885 180.723L137.222 180.723L137.761 178.175C137.77 178.124 137.796 178.082 137.838 178.049C137.88 178.016 137.924 178 137.971 178L138.797 178ZM135.038 176.67C135.089 176.67 135.127 176.686 135.15 176.719C135.173 176.752 135.18 176.794 135.171 176.845L134.191 181.465C134.182 181.516 134.158 181.558 134.121 181.591C134.079 181.624 134.032 181.64 133.981 181.64L133.19 181.64C133.143 181.64 133.106 181.624 133.078 181.591C133.05 181.558 133.041 181.516 133.05 181.465L133.106 181.206C132.966 181.351 132.798 181.47 132.602 181.563C132.401 181.661 132.17 181.71 131.909 181.71C131.676 181.71 131.477 181.673 131.314 181.598C131.151 181.528 131.022 181.423 130.929 181.283C130.831 181.143 130.77 180.973 130.747 180.772C130.719 180.571 130.726 180.34 130.768 180.079C130.787 179.986 130.805 179.899 130.824 179.82C130.838 179.741 130.857 179.654 130.88 179.561C130.959 179.23 131.085 178.943 131.258 178.7C131.431 178.457 131.641 178.268 131.888 178.133C132.131 177.998 132.406 177.93 132.714 177.93C132.943 177.93 133.136 177.97 133.295 178.049C133.449 178.133 133.563 178.25 133.638 178.399L133.967 176.845C133.976 176.794 134.002 176.752 134.044 176.719C134.086 176.686 134.133 176.67 134.184 176.67L135.038 176.67ZM132.896 178.868C132.737 178.868 132.607 178.901 132.504 178.966C132.401 179.031 132.32 179.12 132.259 179.232C132.194 179.344 132.142 179.468 132.105 179.603C132.082 179.673 132.063 179.745 132.049 179.82C132.03 179.895 132.016 179.967 132.007 180.037C131.988 180.172 131.988 180.296 132.007 180.408C132.021 180.52 132.065 180.609 132.14 180.674C132.215 180.739 132.331 180.772 132.49 180.772C132.644 180.772 132.775 180.737 132.882 180.667C132.989 180.602 133.076 180.515 133.141 180.408C133.206 180.301 133.255 180.184 133.288 180.058C133.311 179.969 133.332 179.883 133.351 179.799C133.37 179.715 133.386 179.626 133.4 179.533C133.419 179.416 133.416 179.307 133.393 179.204C133.37 179.106 133.318 179.024 133.239 178.959C133.155 178.898 133.041 178.868 132.896 178.868ZM128.606 177.93C128.83 177.93 129.028 177.965 129.201 178.035C129.369 178.11 129.504 178.217 129.607 178.357C129.71 178.502 129.777 178.674 129.81 178.875C129.843 179.08 129.838 179.314 129.796 179.575C129.777 179.668 129.761 179.75 129.747 179.82C129.733 179.895 129.714 179.976 129.691 180.065C129.63 180.317 129.546 180.543 129.439 180.744C129.332 180.945 129.203 181.117 129.054 181.262C128.905 181.407 128.732 181.516 128.536 181.591C128.335 181.67 128.116 181.71 127.878 181.71C127.593 181.71 127.379 181.668 127.234 181.584C127.085 181.505 126.966 181.404 126.877 181.283L126.842 181.465C126.833 181.516 126.809 181.558 126.772 181.591C126.73 181.624 126.683 181.64 126.632 181.64L125.848 181.64C125.801 181.64 125.764 181.624 125.736 181.591C125.708 181.558 125.699 181.516 125.708 181.465L126.401 178.175C126.41 178.124 126.436 178.082 126.478 178.049C126.52 178.016 126.564 178 126.611 178L127.402 178C127.449 178 127.486 178.016 127.514 178.049C127.542 178.082 127.551 178.124 127.542 178.175L127.493 178.399C127.638 178.264 127.794 178.152 127.962 178.063C128.125 177.974 128.34 177.93 128.606 177.93ZM128.123 178.868C127.964 178.868 127.831 178.901 127.724 178.966C127.617 179.036 127.528 179.125 127.458 179.232C127.388 179.339 127.339 179.456 127.311 179.582C127.283 179.675 127.262 179.764 127.248 179.848C127.229 179.932 127.213 180.018 127.199 180.107C127.176 180.224 127.176 180.331 127.199 180.429C127.218 180.532 127.267 180.613 127.346 180.674C127.421 180.739 127.533 180.772 127.682 180.772C127.827 180.772 127.95 180.739 128.053 180.674C128.156 180.609 128.24 180.52 128.305 180.408C128.366 180.296 128.417 180.172 128.459 180.037C128.478 179.967 128.496 179.895 128.515 179.82C128.534 179.745 128.548 179.673 128.557 179.603C128.576 179.468 128.58 179.344 128.571 179.232C128.557 179.12 128.515 179.031 128.445 178.966C128.375 178.901 128.268 178.868 128.123 178.868ZM123.16 177.93C123.534 177.93 123.846 177.993 124.098 178.119C124.35 178.245 124.532 178.425 124.644 178.658C124.752 178.896 124.782 179.178 124.735 179.505C124.726 179.561 124.719 179.608 124.714 179.645C124.705 179.682 124.696 179.72 124.686 179.757C124.677 179.799 124.663 179.853 124.644 179.918C124.56 180.24 124.432 180.515 124.259 180.744C124.087 180.977 123.867 181.155 123.601 181.276C123.331 181.402 123.011 181.465 122.642 181.465C122.451 181.465 122.276 181.435 122.117 181.374C121.954 181.313 121.812 181.227 121.69 181.115C121.648 181.4 121.665 181.633 121.739 181.815C121.809 182.002 121.947 182.142 122.152 182.235C122.353 182.333 122.631 182.387 122.985 182.396C123.037 182.396 123.079 182.412 123.111 182.445C123.144 182.482 123.16 182.524 123.16 182.571L123.16 183.075C123.16 183.122 123.144 183.161 123.111 183.194C123.074 183.231 123.03 183.252 122.978 183.257C122.372 183.252 121.896 183.143 121.55 182.928C121.2 182.718 120.967 182.408 120.85 181.997C120.734 181.586 120.722 181.082 120.815 180.485C120.834 180.331 120.862 180.175 120.899 180.016C120.932 179.857 120.976 179.687 121.032 179.505C121.116 179.178 121.247 178.896 121.424 178.658C121.602 178.425 121.833 178.245 122.117 178.119C122.402 177.993 122.75 177.93 123.16 177.93ZM123.055 178.784C122.845 178.784 122.677 178.847 122.551 178.973C122.421 179.099 122.323 179.288 122.257 179.54C122.239 179.601 122.222 179.657 122.208 179.708C122.194 179.759 122.183 179.818 122.173 179.883C122.145 180.032 122.143 180.161 122.166 180.268C122.19 180.38 122.239 180.464 122.313 180.52C122.388 180.581 122.491 180.611 122.621 180.611C122.836 180.611 123.006 180.548 123.132 180.422C123.254 180.301 123.349 180.121 123.419 179.883C123.438 179.818 123.454 179.759 123.468 179.708C123.478 179.657 123.487 179.601 123.496 179.54C123.534 179.288 123.522 179.099 123.461 178.973C123.401 178.847 123.265 178.784 123.055 178.784ZM118.119 177.93C118.539 177.93 118.868 177.998 119.106 178.133C119.344 178.268 119.498 178.476 119.568 178.756C119.638 179.036 119.638 179.388 119.568 179.813C119.545 179.953 119.517 180.095 119.484 180.24C119.451 180.385 119.421 180.525 119.393 180.66C119.3 181.043 119.188 181.367 119.057 181.633C118.922 181.904 118.758 182.13 118.567 182.312C118.376 182.499 118.149 182.655 117.888 182.781C117.622 182.907 117.316 183.014 116.971 183.103C116.621 183.196 116.222 183.287 115.774 183.376C115.723 183.385 115.681 183.376 115.648 183.348C115.611 183.325 115.594 183.287 115.599 183.236L115.613 182.592C115.618 182.541 115.636 182.496 115.669 182.459C115.697 182.422 115.737 182.398 115.788 182.389C116.147 182.324 116.455 182.261 116.712 182.2C116.969 182.144 117.188 182.074 117.37 181.99C117.547 181.911 117.694 181.808 117.811 181.682C117.928 181.556 118.023 181.4 118.098 181.213C118.173 181.026 118.236 180.795 118.287 180.52L118.42 180.716C118.355 180.842 118.259 180.954 118.133 181.052C118.007 181.155 117.862 181.234 117.699 181.29C117.531 181.346 117.354 181.374 117.167 181.374C116.831 181.374 116.558 181.316 116.348 181.199C116.133 181.087 115.984 180.921 115.9 180.702C115.816 180.483 115.797 180.217 115.844 179.904C115.858 179.825 115.874 179.738 115.893 179.645C115.912 179.556 115.933 179.475 115.956 179.4C116.035 179.097 116.171 178.835 116.362 178.616C116.553 178.397 116.796 178.226 117.09 178.105C117.379 177.988 117.722 177.93 118.119 177.93ZM117.958 178.7C117.748 178.7 117.582 178.761 117.461 178.882C117.335 179.008 117.242 179.19 117.181 179.428C117.162 179.484 117.144 179.556 117.125 179.645C117.106 179.734 117.092 179.811 117.083 179.876C117.046 180.109 117.057 180.287 117.118 180.408C117.174 180.534 117.295 180.597 117.482 180.597C117.706 180.597 117.888 180.534 118.028 180.408C118.168 180.287 118.266 180.109 118.322 179.876C118.341 179.811 118.359 179.734 118.378 179.645C118.397 179.556 118.411 179.484 118.42 179.428C118.462 179.19 118.446 179.008 118.371 178.882C118.296 178.761 118.159 178.7 117.958 178.7ZM113.463 177.93C113.687 177.93 113.885 177.965 114.058 178.035C114.226 178.11 114.361 178.217 114.464 178.357C114.567 178.502 114.634 178.674 114.667 178.875C114.7 179.08 114.695 179.314 114.653 179.575C114.634 179.668 114.618 179.75 114.604 179.82C114.59 179.895 114.571 179.976 114.548 180.065C114.487 180.317 114.403 180.543 114.296 180.744C114.189 180.945 114.06 181.117 113.911 181.262C113.762 181.407 113.589 181.516 113.393 181.591C113.192 181.67 112.973 181.71 112.735 181.71C112.45 181.71 112.236 181.668 112.091 181.584C111.942 181.505 111.823 181.404 111.734 181.283L111.699 181.465C111.69 181.516 111.666 181.558 111.629 181.591C111.587 181.624 111.54 181.64 111.489 181.64L110.705 181.64C110.658 181.64 110.621 181.624 110.593 181.591C110.565 181.558 110.556 181.516 110.565 181.465L111.258 178.175C111.267 178.124 111.293 178.082 111.335 178.049C111.377 178.016 111.421 178 111.468 178L112.259 178C112.306 178 112.343 178.016 112.371 178.049C112.399 178.082 112.408 178.124 112.399 178.175L112.35 178.399C112.495 178.264 112.651 178.152 112.819 178.063C112.982 177.974 113.197 177.93 113.463 177.93ZM112.98 178.868C112.821 178.868 112.688 178.901 112.581 178.966C112.474 179.036 112.385 179.125 112.315 179.232C112.245 179.339 112.196 179.456 112.168 179.582C112.14 179.675 112.119 179.764 112.105 179.848C112.086 179.932 112.07 180.018 112.056 180.107C112.033 180.224 112.033 180.331 112.056 180.429C112.075 180.532 112.124 180.613 112.203 180.674C112.278 180.739 112.39 180.772 112.539 180.772C112.684 180.772 112.807 180.739 112.91 180.674C113.013 180.609 113.097 180.52 113.162 180.408C113.223 180.296 113.274 180.172 113.316 180.037C113.335 179.967 113.353 179.895 113.372 179.82C113.391 179.745 113.405 179.673 113.414 179.603C113.433 179.468 113.437 179.344 113.428 179.232C113.414 179.12 113.372 179.031 113.302 178.966C113.232 178.901 113.125 178.868 112.98 178.868Z" fill="black"/>
<path d="M130.342 209.608C131.414 209.608 132.334 209.739 133.102 210C133.87 210.26 134.5 210.594 134.993 210.999C135.486 211.405 135.855 211.847 136.101 212.325C136.348 212.818 136.478 213.289 136.493 213.738C136.493 213.868 136.449 213.977 136.362 214.064C136.275 214.151 136.167 214.194 136.036 214.194L133.646 214.194C133.486 214.194 133.356 214.158 133.254 214.085C133.153 214.027 133.059 213.919 132.972 213.759C132.856 213.426 132.668 213.158 132.407 212.955C132.146 212.752 131.842 212.608 131.494 212.521C131.132 212.448 130.748 212.412 130.342 212.412C129.531 212.412 128.893 212.6 128.43 212.977C127.966 213.354 127.734 213.883 127.734 214.564C127.734 215.259 127.951 215.759 128.386 216.063C128.821 216.367 129.437 216.52 130.233 216.52L132.559 216.52C132.704 216.52 132.827 216.57 132.928 216.672C133.03 216.773 133.081 216.896 133.081 217.041L133.081 218.106C133.081 218.28 133.052 218.425 132.994 218.541C132.921 218.657 132.849 218.744 132.776 218.802L129.038 222.235L135.167 222.235C135.326 222.235 135.457 222.286 135.558 222.388C135.66 222.489 135.71 222.612 135.71 222.757L135.71 224.496C135.71 224.655 135.66 224.786 135.558 224.887C135.457 224.988 135.326 225.039 135.167 225.039L125.517 225.039C125.358 225.039 125.228 224.988 125.126 224.887C125.025 224.786 124.974 224.655 124.974 224.496L124.974 222.931C124.974 222.772 125.003 222.634 125.061 222.518C125.119 222.417 125.191 222.337 125.278 222.279L128.821 218.78L128.603 218.758C127.749 218.671 126.988 218.461 126.321 218.128C125.655 217.795 125.133 217.316 124.757 216.693C124.365 216.085 124.17 215.31 124.17 214.368C124.17 213.383 124.438 212.535 124.974 211.825C125.51 211.115 126.242 210.565 127.169 210.173C128.096 209.797 129.154 209.608 130.342 209.608Z" fill="#FBFBFB"/>
<path d="M121.011 218C121.087 218 121.15 218.025 121.201 218.076C121.252 218.127 121.277 218.19 121.277 218.266L121.277 224.335C121.277 224.403 121.252 224.462 121.201 224.513C121.15 224.563 121.091 224.589 121.024 224.589L119.782 224.589C119.63 224.589 119.512 224.513 119.427 224.361L117.577 221.054L115.74 224.361C115.656 224.513 115.537 224.589 115.385 224.589L114.131 224.589C114.063 224.589 114.004 224.563 113.953 224.513C113.903 224.462 113.877 224.403 113.877 224.335L113.877 218.266C113.877 218.19 113.903 218.127 113.953 218.076C114.004 218.025 114.068 218 114.144 218L115.474 218C115.558 218 115.626 218.025 115.677 218.076C115.719 218.127 115.74 218.19 115.74 218.266L115.74 222.637L115.17 222.523L116.969 219.292C117.011 219.216 117.062 219.149 117.121 219.09C117.172 219.031 117.248 219.001 117.349 219.001L117.818 219.001C117.911 219.001 117.987 219.026 118.046 219.077C118.105 219.136 118.16 219.208 118.211 219.292L119.959 222.409L119.427 222.523L119.427 218.266C119.427 218.19 119.453 218.127 119.503 218.076C119.554 218.025 119.617 218 119.693 218L121.011 218Z" fill="#FBFBFB"/>
<line x1="40" y1="122.5" x2="120" y2="122.5" stroke="#494949" stroke-dasharray="2 2"/>
</svg>
