<svg width="162" height="248" viewBox="0 0 162 248" fill="none" xmlns="http://www.w3.org/2000/svg">
<rect x="0.699951" y="0.399902" width="161" height="247" fill="#EFC8C7"/>
<rect x="10.7" y="10.3999" width="141" height="227" rx="10" fill="#FDE0E0"/>
<path d="M40.4726 31.373C40.3966 31.373 40.3333 31.3477 40.2826 31.297C40.2319 31.2463 40.2066 31.183 40.2066 31.107V25.0378C40.2066 24.9702 40.2319 24.9111 40.2826 24.8604C40.3333 24.8097 40.3924 24.7843 40.46 24.7843H41.7017C41.8537 24.7843 41.972 24.8604 42.0565 25.0124L43.9064 28.3194L45.7436 25.0124C45.8281 24.8604 45.9463 24.7843 46.0984 24.7843H47.3528C47.4203 24.7843 47.4795 24.8097 47.5302 24.8604C47.5808 24.9111 47.6062 24.9702 47.6062 25.0378V31.107C47.6062 31.183 47.5808 31.2463 47.5302 31.297C47.4795 31.3477 47.4161 31.373 47.3401 31.373H46.0097C45.9252 31.373 45.8576 31.3477 45.807 31.297C45.7647 31.2463 45.7436 31.183 45.7436 31.107V26.7356L46.3138 26.8497L44.5146 30.0806C44.4723 30.1567 44.4216 30.2242 44.3625 30.2834C44.3118 30.3425 44.2358 30.3721 44.1344 30.3721H43.6656C43.5727 30.3721 43.4967 30.3467 43.4376 30.296C43.3784 30.2369 43.3235 30.1651 43.2728 30.0806L41.5243 26.9637L42.0565 26.8497V31.107C42.0565 31.183 42.0311 31.2463 41.9804 31.297C41.9298 31.3477 41.8664 31.373 41.7904 31.373H40.4726Z" fill="black"/>
<path d="M25.324 39C25.1646 39 25.0342 38.9493 24.9328 38.8479C24.8313 38.7464 24.7806 38.616 24.7806 38.4567V37.1527C24.7806 37.0367 24.8096 36.8846 24.8676 36.6963C24.94 36.4934 25.0921 36.2978 25.324 36.1095L28.1928 33.2624C29.2505 32.451 30.1053 31.7628 30.7573 31.1977C31.4238 30.6326 31.9164 30.1183 32.2352 29.6546C32.5539 29.191 32.7133 28.7418 32.7133 28.3072C32.7133 27.7421 32.5539 27.2785 32.2352 26.9162C31.9309 26.5395 31.431 26.3512 30.7356 26.3512C30.2719 26.3512 29.8807 26.4526 29.562 26.6554C29.2577 26.8438 29.0186 27.0973 28.8448 27.4161C28.6709 27.7349 28.555 28.0826 28.497 28.4593C28.4536 28.6477 28.3594 28.7781 28.2145 28.8505C28.0841 28.9229 27.9464 28.9592 27.8016 28.9592H25.4978C25.3529 28.9592 25.237 28.9157 25.1501 28.8288C25.0632 28.7273 25.0197 28.6187 25.0197 28.5028C25.0342 27.8363 25.1718 27.206 25.4326 26.612C25.7079 26.0179 26.0919 25.4891 26.5845 25.0254C27.0771 24.5618 27.6712 24.1996 28.3666 23.9388C29.0621 23.6635 29.8517 23.5258 30.7356 23.5258C31.9526 23.5258 32.9741 23.7287 33.8 24.1344C34.6258 24.5256 35.2489 25.0689 35.6691 25.7644C36.0892 26.4598 36.2993 27.264 36.2993 28.1768C36.2993 28.8722 36.1544 29.517 35.8647 30.111C35.5894 30.7051 35.1837 31.2774 34.6476 31.828C34.1115 32.3641 33.474 32.9219 32.735 33.5014L30.1705 36.066H36.082C36.2414 36.066 36.3718 36.1167 36.4732 36.2181C36.5746 36.3195 36.6253 36.4499 36.6253 36.6093V38.4567C36.6253 38.616 36.5746 38.7464 36.4732 38.8479C36.3718 38.9493 36.2414 39 36.082 39H25.324Z" fill="black"/>
<path d="M65.1887 35.08C64.9007 35.08 64.6421 35.0267 64.4127 34.92C64.1887 34.808 64.0101 34.6587 63.8767 34.472C63.7434 34.2853 63.6767 34.0747 63.6767 33.84C63.6767 33.4613 63.8314 33.1627 64.1407 32.944C64.4501 32.72 64.8607 32.568 65.3727 32.488L66.3727 32.336V32.224C66.3727 32.032 66.3327 31.8853 66.2527 31.784C66.1727 31.6827 66.0261 31.632 65.8127 31.632C65.6634 31.632 65.5407 31.6613 65.4447 31.72C65.3541 31.7787 65.2821 31.8587 65.2287 31.96C65.1807 32.0293 65.1141 32.064 65.0287 32.064H64.1327C64.0741 32.064 64.0287 32.048 63.9967 32.016C63.9647 31.9787 63.9514 31.936 63.9567 31.888C63.9567 31.792 63.9914 31.6827 64.0607 31.56C64.1354 31.432 64.2474 31.3067 64.3967 31.184C64.5461 31.0613 64.7381 30.96 64.9727 30.88C65.2074 30.8 65.4901 30.76 65.8207 30.76C66.1674 30.76 66.4634 30.8 66.7087 30.88C66.9541 30.96 67.1514 31.072 67.3007 31.216C67.4554 31.36 67.5701 31.5307 67.6447 31.728C67.7194 31.92 67.7567 32.1333 67.7567 32.368V34.8C67.7567 34.8587 67.7354 34.9067 67.6927 34.944C67.6554 34.9813 67.6101 35 67.5567 35H66.6287C66.5701 35 66.5221 34.9813 66.4847 34.944C66.4474 34.9067 66.4287 34.8587 66.4287 34.8V34.52C66.3594 34.6213 66.2661 34.7147 66.1487 34.8C66.0314 34.8853 65.8927 34.952 65.7327 35C65.5781 35.0533 65.3967 35.08 65.1887 35.08ZM65.5647 34.168C65.7194 34.168 65.8581 34.136 65.9807 34.072C66.1087 34.0027 66.2074 33.8987 66.2767 33.76C66.3514 33.616 66.3887 33.4373 66.3887 33.224V33.112L65.7087 33.232C65.4581 33.2747 65.2741 33.3413 65.1567 33.432C65.0447 33.5173 64.9887 33.6187 64.9887 33.736C64.9887 33.8267 65.0154 33.904 65.0687 33.968C65.1221 34.032 65.1914 34.0827 65.2767 34.12C65.3621 34.152 65.4581 34.168 65.5647 34.168ZM70.4595 35C70.4008 35 70.3528 34.9813 70.3155 34.944C70.2781 34.9067 70.2595 34.8587 70.2595 34.8V31.04C70.2595 30.9813 70.2781 30.9333 70.3155 30.896C70.3528 30.8587 70.4008 30.84 70.4595 30.84H71.3795C71.4381 30.84 71.4861 30.8587 71.5235 30.896C71.5608 30.9333 71.5795 30.9813 71.5795 31.04V32.368H72.0115L72.8835 30.968C72.8995 30.9413 72.9261 30.9147 72.9635 30.888C73.0008 30.856 73.0488 30.84 73.1075 30.84H74.1315C74.1795 30.84 74.2195 30.856 74.2515 30.888C74.2888 30.9147 74.3075 30.952 74.3075 31C74.3075 31.016 74.3021 31.0347 74.2915 31.056C74.2861 31.0773 74.2781 31.096 74.2675 31.112L73.1715 32.856L74.4515 34.736C74.4728 34.768 74.4835 34.8027 74.4835 34.84C74.4835 34.888 74.4675 34.928 74.4355 34.96C74.4035 34.9867 74.3608 35 74.3075 35H73.1795C73.1208 35 73.0728 34.9893 73.0355 34.968C73.0035 34.9413 72.9741 34.9093 72.9475 34.872L71.9955 33.416H71.5795V34.8C71.5795 34.8587 71.5608 34.9067 71.5235 34.944C71.4861 34.9813 71.4381 35 71.3795 35H70.4595ZM80.175 35.944C80.1164 35.944 80.0684 35.9227 80.031 35.88C79.9937 35.8427 79.975 35.7947 79.975 35.736V35H76.911C76.8524 35 76.8044 34.9813 76.767 34.944C76.7297 34.9067 76.711 34.8587 76.711 34.8V31.04C76.711 30.9813 76.7297 30.9333 76.767 30.896C76.8044 30.8587 76.8524 30.84 76.911 30.84H77.855C77.9084 30.84 77.9537 30.8587 77.991 30.896C78.0337 30.9333 78.055 30.9813 78.055 31.04V33.952H79.431V31.04C79.431 30.9813 79.4497 30.9333 79.487 30.896C79.5297 30.8587 79.5777 30.84 79.631 30.84H80.575C80.6337 30.84 80.6817 30.8587 80.719 30.896C80.7564 30.9333 80.775 30.9813 80.775 31.04V33.952H81.119C81.1777 33.952 81.2257 33.9707 81.263 34.008C81.3004 34.0453 81.319 34.0933 81.319 34.152V35.736C81.319 35.7947 81.3004 35.8427 81.263 35.88C81.2257 35.9227 81.1777 35.944 81.119 35.944H80.175ZM83.753 35C83.6997 35 83.6544 34.9813 83.617 34.944C83.5797 34.9067 83.561 34.8613 83.561 34.808V31.04C83.561 30.9813 83.5797 30.9333 83.617 30.896C83.6544 30.8587 83.7024 30.84 83.761 30.84H84.705C84.7584 30.84 84.8037 30.8587 84.841 30.896C84.8837 30.9333 84.905 30.9813 84.905 31.04V33.96L84.545 33.784L86.521 30.968C86.5477 30.9307 86.5797 30.9013 86.617 30.88C86.6544 30.8533 86.697 30.84 86.745 30.84H87.601C87.6544 30.84 87.6997 30.8587 87.737 30.896C87.7744 30.9333 87.793 30.9787 87.793 31.032V34.8C87.793 34.8587 87.7744 34.9067 87.737 34.944C87.6997 34.9813 87.6517 35 87.593 35H86.649C86.5904 35 86.5424 34.9813 86.505 34.944C86.4677 34.9067 86.449 34.8587 86.449 34.8V31.968L86.817 32.04L84.825 34.872C84.8037 34.9093 84.7744 34.9413 84.737 34.968C84.6997 34.9893 84.6544 35 84.601 35H83.753ZM89.5666 36.52C89.5079 36.52 89.4599 36.5013 89.4226 36.464C89.3853 36.4267 89.3666 36.3787 89.3666 36.32V35.672C89.3666 35.6133 89.3853 35.5653 89.4226 35.528C89.4599 35.4907 89.5079 35.472 89.5666 35.472H89.8626C89.9959 35.472 90.0973 35.4453 90.1666 35.392C90.2359 35.344 90.2839 35.2747 90.3106 35.184C90.3373 35.0987 90.3506 35 90.3506 34.888V31.04C90.3506 30.9813 90.3693 30.9333 90.4066 30.896C90.4493 30.8587 90.4973 30.84 90.5506 30.84H91.5426C91.6013 30.84 91.6493 30.8587 91.6866 30.896C91.7239 30.9333 91.7426 30.9813 91.7426 31.04V34.92C91.7426 35.2667 91.6733 35.5573 91.5346 35.792C91.4013 36.032 91.2066 36.2133 90.9506 36.336C90.6946 36.4587 90.3826 36.52 90.0146 36.52H89.5666ZM90.5426 30.24C90.4893 30.24 90.4413 30.2213 90.3986 30.184C90.3613 30.1467 90.3426 30.0987 90.3426 30.04V29.328C90.3426 29.2693 90.3613 29.2213 90.3986 29.184C90.4413 29.1413 90.4893 29.12 90.5426 29.12H91.5506C91.6039 29.12 91.6493 29.1413 91.6866 29.184C91.7293 29.2213 91.7506 29.2693 91.7506 29.328V30.04C91.7506 30.0987 91.7293 30.1467 91.6866 30.184C91.6493 30.2213 91.6039 30.24 91.5506 30.24H90.5426ZM95.5325 35.08C95.2445 35.08 94.9858 35.0267 94.7565 34.92C94.5325 34.808 94.3538 34.6587 94.2205 34.472C94.0871 34.2853 94.0205 34.0747 94.0205 33.84C94.0205 33.4613 94.1751 33.1627 94.4845 32.944C94.7938 32.72 95.2045 32.568 95.7165 32.488L96.7165 32.336V32.224C96.7165 32.032 96.6765 31.8853 96.5965 31.784C96.5165 31.6827 96.3698 31.632 96.1565 31.632C96.0071 31.632 95.8845 31.6613 95.7885 31.72C95.6978 31.7787 95.6258 31.8587 95.5725 31.96C95.5245 32.0293 95.4578 32.064 95.3725 32.064H94.4765C94.4178 32.064 94.3725 32.048 94.3405 32.016C94.3085 31.9787 94.2951 31.936 94.3005 31.888C94.3005 31.792 94.3351 31.6827 94.4045 31.56C94.4791 31.432 94.5911 31.3067 94.7405 31.184C94.8898 31.0613 95.0818 30.96 95.3165 30.88C95.5511 30.8 95.8338 30.76 96.1645 30.76C96.5111 30.76 96.8071 30.8 97.0525 30.88C97.2978 30.96 97.4951 31.072 97.6445 31.216C97.7991 31.36 97.9138 31.5307 97.9885 31.728C98.0631 31.92 98.1005 32.1333 98.1005 32.368V34.8C98.1005 34.8587 98.0791 34.9067 98.0365 34.944C97.9991 34.9813 97.9538 35 97.9005 35H96.9725C96.9138 35 96.8658 34.9813 96.8285 34.944C96.7911 34.9067 96.7725 34.8587 96.7725 34.8V34.52C96.7031 34.6213 96.6098 34.7147 96.4925 34.8C96.3751 34.8853 96.2365 34.952 96.0765 35C95.9218 35.0533 95.7405 35.08 95.5325 35.08ZM95.9085 34.168C96.0631 34.168 96.2018 34.136 96.3245 34.072C96.4525 34.0027 96.5511 33.8987 96.6205 33.76C96.6951 33.616 96.7325 33.4373 96.7325 33.224V33.112L96.0525 33.232C95.8018 33.2747 95.6178 33.3413 95.5005 33.432C95.3885 33.5173 95.3325 33.6187 95.3325 33.736C95.3325 33.8267 95.3591 33.904 95.4125 33.968C95.4658 34.032 95.5351 34.0827 95.6205 34.12C95.7058 34.152 95.8018 34.168 95.9085 34.168Z" fill="black"/>
<path d="M145.8 238H17.2C13.6 238 10.7 235.1 10.7 231.5V168.9C10.7 165.3 13.6 162.4 17.2 162.4H145.8C149.4 162.4 152.3 165.3 152.3 168.9V231.5C152.4 235 149.4 238 145.8 238Z" fill="white"/>
<path d="M25.4509 191.08C25.3709 191.08 25.3029 191.052 25.2469 190.996C25.1909 190.94 25.1629 190.868 25.1629 190.78V187.996C25.1629 187.908 25.1909 187.836 25.2469 187.78C25.3029 187.724 25.3709 187.696 25.4509 187.696H25.6789C25.8709 187.696 26.0349 187.604 26.1709 187.42C26.3069 187.236 26.4149 186.976 26.4949 186.64C26.5749 186.296 26.6349 185.884 26.6749 185.404C26.7149 184.916 26.7349 184.372 26.7349 183.772V181.3C26.7349 181.212 26.7629 181.14 26.8189 181.084C26.8749 181.028 26.9429 181 27.0229 181H32.4229C32.5109 181 32.5829 181.028 32.6389 181.084C32.6949 181.14 32.7229 181.212 32.7229 181.3V187.696H33.2869C33.3749 187.696 33.4469 187.724 33.5029 187.78C33.5589 187.836 33.5869 187.908 33.5869 187.996V190.78C33.5869 190.86 33.5589 190.928 33.5029 190.984C33.4469 191.048 33.3749 191.08 33.2869 191.08H31.9789C31.8909 191.08 31.8189 191.048 31.7629 190.984C31.7069 190.928 31.6789 190.86 31.6789 190.78V189.4H27.0709V190.78C27.0709 190.86 27.0389 190.928 26.9749 190.984C26.9189 191.048 26.8469 191.08 26.7589 191.08H25.4509ZM27.9709 187.696H30.8149V182.704H28.5829V184.012C28.5829 184.932 28.5309 185.692 28.4269 186.292C28.3229 186.892 28.1709 187.36 27.9709 187.696ZM37.5912 189.52C36.9272 189.52 36.3712 189.412 35.9232 189.196C35.4752 188.972 35.1312 188.656 34.8912 188.248C34.6592 187.84 34.5312 187.364 34.5072 186.82C34.4992 186.66 34.4952 186.48 34.4952 186.28C34.4952 186.072 34.4992 185.892 34.5072 185.74C34.5312 185.188 34.6672 184.712 34.9152 184.312C35.1632 183.904 35.5112 183.592 35.9592 183.376C36.4072 183.152 36.9512 183.04 37.5912 183.04C38.2232 183.04 38.7632 183.152 39.2112 183.376C39.6592 183.592 40.0072 183.904 40.2552 184.312C40.5032 184.712 40.6392 185.188 40.6632 185.74C40.6792 185.892 40.6872 186.072 40.6872 186.28C40.6872 186.48 40.6792 186.66 40.6632 186.82C40.6392 187.364 40.5072 187.84 40.2672 188.248C40.0352 188.656 39.6952 188.972 39.2472 189.196C38.7992 189.412 38.2472 189.52 37.5912 189.52ZM37.5912 188.2C37.9832 188.2 38.2792 188.08 38.4792 187.84C38.6792 187.592 38.7872 187.232 38.8032 186.76C38.8112 186.64 38.8152 186.48 38.8152 186.28C38.8152 186.08 38.8112 185.92 38.8032 185.8C38.7872 185.336 38.6792 184.98 38.4792 184.732C38.2792 184.484 37.9832 184.36 37.5912 184.36C37.1992 184.36 36.8992 184.484 36.6912 184.732C36.4912 184.98 36.3832 185.336 36.3672 185.8C36.3592 185.92 36.3552 186.08 36.3552 186.28C36.3552 186.48 36.3592 186.64 36.3672 186.76C36.3832 187.232 36.4912 187.592 36.6912 187.84C36.8992 188.08 37.1992 188.2 37.5912 188.2ZM41.7503 190.72C41.6703 190.72 41.6023 190.692 41.5463 190.636C41.4903 190.58 41.4623 190.508 41.4623 190.42V188.284C41.4623 188.196 41.4903 188.124 41.5463 188.068C41.6023 188.012 41.6703 187.984 41.7503 187.984H41.8583C42.0663 187.984 42.2303 187.876 42.3503 187.66C42.4783 187.444 42.5703 187.124 42.6263 186.7C42.6823 186.276 42.7103 185.744 42.7103 185.104V183.46C42.7103 183.372 42.7383 183.3 42.7943 183.244C42.8503 183.188 42.9183 183.16 42.9983 183.16H47.4863C47.5743 183.16 47.6463 183.188 47.7023 183.244C47.7583 183.3 47.7863 183.372 47.7863 183.46V187.972H48.3143C48.3943 187.972 48.4623 188 48.5183 188.056C48.5743 188.112 48.6023 188.184 48.6023 188.272V190.42C48.6023 190.508 48.5743 190.58 48.5183 190.636C48.4623 190.692 48.3943 190.72 48.3143 190.72H47.1143C47.0263 190.72 46.9543 190.692 46.8983 190.636C46.8423 190.58 46.8143 190.508 46.8143 190.42V189.4H43.2503V190.42C43.2503 190.508 43.2223 190.58 43.1663 190.636C43.1103 190.692 43.0383 190.72 42.9503 190.72H41.7503ZM43.9223 187.984L45.9983 187.972V184.576H44.4143V185.308C44.4143 185.964 44.3703 186.512 44.2823 186.952C44.2023 187.392 44.0823 187.736 43.9223 187.984ZM51.4775 189.52C51.0535 189.52 50.6735 189.44 50.3375 189.28C50.0015 189.112 49.7335 188.888 49.5335 188.608C49.3335 188.328 49.2335 188.016 49.2335 187.672C49.2335 187.104 49.4615 186.656 49.9175 186.328C50.3815 186 50.9895 185.776 51.7415 185.656L53.3135 185.428V185.212C53.3135 184.9 53.2415 184.66 53.0975 184.492C52.9535 184.324 52.7015 184.24 52.3415 184.24C52.0775 184.24 51.8655 184.292 51.7055 184.396C51.5455 184.5 51.4215 184.636 51.3335 184.804C51.2695 184.908 51.1775 184.96 51.0575 184.96H49.9175C49.8295 184.96 49.7615 184.936 49.7135 184.888C49.6655 184.832 49.6455 184.768 49.6535 184.696C49.6535 184.56 49.7055 184.4 49.8095 184.216C49.9135 184.032 50.0735 183.852 50.2895 183.676C50.5055 183.492 50.7815 183.34 51.1175 183.22C51.4535 183.1 51.8655 183.04 52.3535 183.04C52.8575 183.04 53.2895 183.1 53.6495 183.22C54.0095 183.34 54.2975 183.508 54.5135 183.724C54.7295 183.94 54.8895 184.192 54.9935 184.48C55.0975 184.76 55.1495 185.064 55.1495 185.392V189.1C55.1495 189.188 55.1215 189.26 55.0655 189.316C55.0095 189.372 54.9375 189.4 54.8495 189.4H53.6735C53.5935 189.4 53.5255 189.372 53.4695 189.316C53.4135 189.26 53.3855 189.188 53.3855 189.1V188.656C53.2815 188.808 53.1415 188.952 52.9655 189.088C52.7895 189.216 52.5775 189.32 52.3295 189.4C52.0895 189.48 51.8055 189.52 51.4775 189.52ZM51.9575 188.272C52.2215 188.272 52.4575 188.216 52.6655 188.104C52.8735 187.992 53.0375 187.82 53.1575 187.588C53.2775 187.356 53.3375 187.064 53.3375 186.712V186.508L52.2215 186.688C51.7895 186.76 51.4735 186.868 51.2735 187.012C51.0735 187.156 50.9735 187.332 50.9735 187.54C50.9735 187.692 51.0175 187.824 51.1055 187.936C51.2015 188.048 51.3255 188.132 51.4775 188.188C51.6295 188.244 51.7895 188.272 51.9575 188.272ZM55.5584 191.68C55.4704 191.68 55.3984 191.652 55.3424 191.596C55.2864 191.54 55.2584 191.468 55.2584 191.38V190.564C55.2584 190.476 55.2864 190.404 55.3424 190.348C55.3984 190.292 55.4704 190.264 55.5584 190.264H55.9424C56.1584 190.264 56.3224 190.22 56.4344 190.132C56.5544 190.052 56.6344 189.94 56.6744 189.796C56.7144 189.652 56.7344 189.492 56.7344 189.316V183.46C56.7344 183.372 56.7624 183.3 56.8184 183.244C56.8744 183.188 56.9424 183.16 57.0224 183.16H58.2824C58.3624 183.16 58.4304 183.188 58.4864 183.244C58.5424 183.3 58.5704 183.372 58.5704 183.46V189.352C58.5704 189.84 58.4784 190.256 58.2944 190.6C58.1104 190.952 57.8344 191.22 57.4664 191.404C57.1064 191.588 56.6584 191.68 56.1224 191.68H55.5584ZM56.9864 182.2C56.9064 182.2 56.8384 182.172 56.7824 182.116C56.7264 182.06 56.6984 181.988 56.6984 181.9V180.94C56.6984 180.852 56.7264 180.78 56.7824 180.724C56.8384 180.66 56.9064 180.628 56.9864 180.628H58.3064C58.3944 180.628 58.4664 180.66 58.5224 180.724C58.5784 180.78 58.6064 180.852 58.6064 180.94V181.9C58.6064 181.988 58.5784 182.06 58.5224 182.116C58.4664 182.172 58.3944 182.2 58.3064 182.2H56.9864ZM61.6873 191.68C61.5993 191.68 61.5273 191.652 61.4713 191.596C61.4153 191.54 61.3873 191.468 61.3873 191.38V190.564C61.3873 190.476 61.4153 190.404 61.4713 190.348C61.5273 190.292 61.5993 190.264 61.6873 190.264H62.0713C62.2873 190.264 62.4513 190.22 62.5633 190.132C62.6833 190.052 62.7633 189.94 62.8033 189.796C62.8433 189.652 62.8633 189.492 62.8633 189.316V183.46C62.8633 183.372 62.8913 183.3 62.9473 183.244C63.0033 183.188 63.0713 183.16 63.1513 183.16H64.4113C64.4913 183.16 64.5593 183.188 64.6153 183.244C64.6713 183.3 64.6993 183.372 64.6993 183.46V189.352C64.6993 189.84 64.6073 190.256 64.4233 190.6C64.2393 190.952 63.9633 191.22 63.5953 191.404C63.2353 191.588 62.7873 191.68 62.2513 191.68H61.6873ZM63.1153 182.2C63.0353 182.2 62.9673 182.172 62.9113 182.116C62.8553 182.06 62.8273 181.988 62.8273 181.9V180.94C62.8273 180.852 62.8553 180.78 62.9113 180.724C62.9673 180.66 63.0353 180.628 63.1153 180.628H64.4353C64.5233 180.628 64.5953 180.66 64.6513 180.724C64.7073 180.78 64.7353 180.852 64.7353 180.94V181.9C64.7353 181.988 64.7073 182.06 64.6513 182.116C64.5953 182.172 64.5233 182.2 64.4353 182.2H63.1153ZM68.0478 189.52C67.6238 189.52 67.2438 189.44 66.9078 189.28C66.5718 189.112 66.3038 188.888 66.1038 188.608C65.9038 188.328 65.8038 188.016 65.8038 187.672C65.8038 187.104 66.0318 186.656 66.4878 186.328C66.9518 186 67.5598 185.776 68.3118 185.656L69.8838 185.428V185.212C69.8838 184.9 69.8118 184.66 69.6678 184.492C69.5238 184.324 69.2718 184.24 68.9118 184.24C68.6478 184.24 68.4358 184.292 68.2758 184.396C68.1158 184.5 67.9918 184.636 67.9038 184.804C67.8398 184.908 67.7478 184.96 67.6278 184.96H66.4878C66.3998 184.96 66.3318 184.936 66.2838 184.888C66.2358 184.832 66.2158 184.768 66.2238 184.696C66.2238 184.56 66.2758 184.4 66.3798 184.216C66.4838 184.032 66.6438 183.852 66.8598 183.676C67.0758 183.492 67.3518 183.34 67.6878 183.22C68.0238 183.1 68.4358 183.04 68.9238 183.04C69.4278 183.04 69.8598 183.1 70.2198 183.22C70.5798 183.34 70.8678 183.508 71.0838 183.724C71.2998 183.94 71.4598 184.192 71.5638 184.48C71.6678 184.76 71.7198 185.064 71.7198 185.392V189.1C71.7198 189.188 71.6918 189.26 71.6358 189.316C71.5798 189.372 71.5078 189.4 71.4198 189.4H70.2438C70.1638 189.4 70.0958 189.372 70.0398 189.316C69.9838 189.26 69.9558 189.188 69.9558 189.1V188.656C69.8518 188.808 69.7118 188.952 69.5358 189.088C69.3598 189.216 69.1478 189.32 68.8998 189.4C68.6598 189.48 68.3758 189.52 68.0478 189.52ZM68.5278 188.272C68.7918 188.272 69.0278 188.216 69.2358 188.104C69.4438 187.992 69.6078 187.82 69.7278 187.588C69.8478 187.356 69.9078 187.064 69.9078 186.712V186.508L68.7918 186.688C68.3598 186.76 68.0438 186.868 67.8438 187.012C67.6438 187.156 67.5438 187.332 67.5438 187.54C67.5438 187.692 67.5878 187.824 67.6758 187.936C67.7718 188.048 67.8958 188.132 68.0478 188.188C68.1998 188.244 68.3598 188.272 68.5278 188.272ZM76.1092 189.4C76.0292 189.4 75.9612 189.372 75.9052 189.316C75.8492 189.26 75.8212 189.188 75.8212 189.1V183.46C75.8212 183.372 75.8492 183.3 75.9052 183.244C75.9612 183.188 76.0292 183.16 76.1092 183.16H77.2852C77.3732 183.16 77.4452 183.188 77.5012 183.244C77.5572 183.3 77.5852 183.372 77.5852 183.46V185.524H78.3412L79.7332 183.352C79.7572 183.304 79.7932 183.26 79.8412 183.22C79.8972 183.18 79.9692 183.16 80.0572 183.16H81.3652C81.4372 183.16 81.4972 183.184 81.5452 183.232C81.6012 183.272 81.6292 183.324 81.6292 183.388C81.6292 183.412 81.6212 183.44 81.6052 183.472C81.5972 183.504 81.5852 183.532 81.5692 183.556L79.8772 186.172L81.8332 189.016C81.8652 189.064 81.8812 189.116 81.8812 189.172C81.8812 189.236 81.8572 189.292 81.8092 189.34C81.7612 189.38 81.7012 189.4 81.6292 189.4H80.1772C80.0972 189.4 80.0292 189.384 79.9732 189.352C79.9252 189.312 79.8812 189.264 79.8412 189.208L78.3292 186.952H77.5852V189.1C77.5852 189.188 77.5572 189.26 77.5012 189.316C77.4452 189.372 77.3732 189.4 77.2852 189.4H76.1092ZM84.7119 189.52C84.2879 189.52 83.9079 189.44 83.5719 189.28C83.2359 189.112 82.9679 188.888 82.7679 188.608C82.5679 188.328 82.4679 188.016 82.4679 187.672C82.4679 187.104 82.6959 186.656 83.1519 186.328C83.6159 186 84.2239 185.776 84.9759 185.656L86.5479 185.428V185.212C86.5479 184.9 86.4759 184.66 86.3319 184.492C86.1879 184.324 85.9359 184.24 85.5759 184.24C85.3119 184.24 85.0999 184.292 84.9399 184.396C84.7799 184.5 84.6559 184.636 84.5679 184.804C84.5039 184.908 84.4119 184.96 84.2919 184.96H83.1519C83.0639 184.96 82.9959 184.936 82.9479 184.888C82.8999 184.832 82.8799 184.768 82.8879 184.696C82.8879 184.56 82.9399 184.4 83.0439 184.216C83.1479 184.032 83.3079 183.852 83.5239 183.676C83.7399 183.492 84.0159 183.34 84.3519 183.22C84.6879 183.1 85.0999 183.04 85.5879 183.04C86.0919 183.04 86.5239 183.1 86.8839 183.22C87.2439 183.34 87.5319 183.508 87.7479 183.724C87.9639 183.94 88.1239 184.192 88.2279 184.48C88.3319 184.76 88.3839 185.064 88.3839 185.392V189.1C88.3839 189.188 88.3559 189.26 88.2999 189.316C88.2439 189.372 88.1719 189.4 88.0839 189.4H86.9079C86.8279 189.4 86.7599 189.372 86.7039 189.316C86.6479 189.26 86.6199 189.188 86.6199 189.1V188.656C86.5159 188.808 86.3759 188.952 86.1999 189.088C86.0239 189.216 85.8119 189.32 85.5639 189.4C85.3239 189.48 85.0399 189.52 84.7119 189.52ZM85.1919 188.272C85.4559 188.272 85.6919 188.216 85.8999 188.104C86.1079 187.992 86.2719 187.82 86.3919 187.588C86.5119 187.356 86.5719 187.064 86.5719 186.712V186.508L85.4559 186.688C85.0239 186.76 84.7079 186.868 84.5079 187.012C84.3079 187.156 84.2079 187.332 84.2079 187.54C84.2079 187.692 84.2519 187.824 84.3399 187.936C84.4359 188.048 84.5599 188.132 84.7119 188.188C84.8639 188.244 85.0239 188.272 85.1919 188.272ZM90.1368 191.68C90.0488 191.68 89.9768 191.652 89.9208 191.596C89.8648 191.54 89.8368 191.468 89.8368 191.38V183.46C89.8368 183.372 89.8648 183.3 89.9208 183.244C89.9768 183.188 90.0488 183.16 90.1368 183.16H91.2768C91.3648 183.16 91.4368 183.188 91.4928 183.244C91.5488 183.3 91.5768 183.372 91.5768 183.46V183.916C91.7688 183.66 92.0168 183.452 92.3208 183.292C92.6248 183.124 93.0048 183.04 93.4608 183.04C93.8768 183.04 94.2368 183.108 94.5408 183.244C94.8528 183.372 95.1128 183.56 95.3208 183.808C95.5368 184.048 95.7008 184.34 95.8128 184.684C95.9328 185.028 96.0008 185.416 96.0168 185.848C96.0248 186 96.0288 186.144 96.0288 186.28C96.0288 186.416 96.0248 186.564 96.0168 186.724C96.0088 187.132 95.9448 187.508 95.8248 187.852C95.7128 188.196 95.5488 188.492 95.3328 188.74C95.1168 188.988 94.8528 189.18 94.5408 189.316C94.2368 189.452 93.8768 189.52 93.4608 189.52C93.0528 189.52 92.6968 189.448 92.3928 189.304C92.0968 189.152 91.8528 188.948 91.6608 188.692V191.38C91.6608 191.468 91.6328 191.54 91.5768 191.596C91.5208 191.652 91.4528 191.68 91.3728 191.68H90.1368ZM92.9208 188.08C93.2248 188.08 93.4648 188.016 93.6408 187.888C93.8168 187.752 93.9408 187.576 94.0128 187.36C94.0928 187.144 94.1408 186.908 94.1568 186.652C94.1728 186.404 94.1728 186.156 94.1568 185.908C94.1408 185.652 94.0928 185.416 94.0128 185.2C93.9408 184.984 93.8168 184.812 93.6408 184.684C93.4648 184.548 93.2248 184.48 92.9208 184.48C92.6248 184.48 92.3848 184.548 92.2008 184.684C92.0168 184.82 91.8848 184.992 91.8048 185.2C91.7248 185.408 91.6768 185.632 91.6608 185.872C91.6528 186.016 91.6488 186.164 91.6488 186.316C91.6488 186.468 91.6528 186.62 91.6608 186.772C91.6688 186.996 91.7168 187.208 91.8048 187.408C91.9008 187.6 92.0368 187.76 92.2128 187.888C92.3968 188.016 92.6328 188.08 92.9208 188.08ZM99.1977 189.4C99.1097 189.4 99.0377 189.372 98.9817 189.316C98.9257 189.26 98.8977 189.188 98.8977 189.1V184.576H97.0137C96.9257 184.576 96.8537 184.548 96.7977 184.492C96.7417 184.436 96.7137 184.364 96.7137 184.276V183.46C96.7137 183.372 96.7417 183.3 96.7977 183.244C96.8537 183.188 96.9257 183.16 97.0137 183.16H102.546C102.634 183.16 102.706 183.188 102.762 183.244C102.818 183.3 102.846 183.372 102.846 183.46V184.276C102.846 184.364 102.818 184.436 102.762 184.492C102.706 184.548 102.634 184.576 102.546 184.576H100.662V189.1C100.662 189.188 100.634 189.26 100.578 189.316C100.522 189.372 100.454 189.4 100.374 189.4H99.1977ZM105.606 189.52C105.182 189.52 104.802 189.44 104.466 189.28C104.13 189.112 103.862 188.888 103.662 188.608C103.462 188.328 103.362 188.016 103.362 187.672C103.362 187.104 103.59 186.656 104.046 186.328C104.51 186 105.118 185.776 105.87 185.656L107.442 185.428V185.212C107.442 184.9 107.37 184.66 107.226 184.492C107.082 184.324 106.83 184.24 106.47 184.24C106.206 184.24 105.994 184.292 105.834 184.396C105.674 184.5 105.55 184.636 105.462 184.804C105.398 184.908 105.306 184.96 105.186 184.96H104.046C103.958 184.96 103.89 184.936 103.842 184.888C103.794 184.832 103.774 184.768 103.782 184.696C103.782 184.56 103.834 184.4 103.938 184.216C104.042 184.032 104.202 183.852 104.418 183.676C104.634 183.492 104.91 183.34 105.246 183.22C105.582 183.1 105.994 183.04 106.482 183.04C106.986 183.04 107.418 183.1 107.778 183.22C108.138 183.34 108.426 183.508 108.642 183.724C108.858 183.94 109.018 184.192 109.122 184.48C109.226 184.76 109.278 185.064 109.278 185.392V189.1C109.278 189.188 109.25 189.26 109.194 189.316C109.138 189.372 109.066 189.4 108.978 189.4H107.802C107.722 189.4 107.654 189.372 107.598 189.316C107.542 189.26 107.514 189.188 107.514 189.1V188.656C107.41 188.808 107.27 188.952 107.094 189.088C106.918 189.216 106.706 189.32 106.458 189.4C106.218 189.48 105.934 189.52 105.606 189.52ZM106.086 188.272C106.35 188.272 106.586 188.216 106.794 188.104C107.002 187.992 107.166 187.82 107.286 187.588C107.406 187.356 107.466 187.064 107.466 186.712V186.508L106.35 186.688C105.918 186.76 105.602 186.868 105.402 187.012C105.202 187.156 105.102 187.332 105.102 187.54C105.102 187.692 105.146 187.824 105.234 187.936C105.33 188.048 105.454 188.132 105.606 188.188C105.758 188.244 105.918 188.272 106.086 188.272ZM112.627 189.4C112.539 189.4 112.467 189.372 112.411 189.316C112.355 189.26 112.327 189.188 112.327 189.1V184.576H110.443C110.355 184.576 110.283 184.548 110.227 184.492C110.171 184.436 110.143 184.364 110.143 184.276V183.46C110.143 183.372 110.171 183.3 110.227 183.244C110.283 183.188 110.355 183.16 110.443 183.16H115.975C116.063 183.16 116.135 183.188 116.191 183.244C116.247 183.3 116.275 183.372 116.275 183.46V184.276C116.275 184.364 116.247 184.436 116.191 184.492C116.135 184.548 116.063 184.576 115.975 184.576H114.091V189.1C114.091 189.188 114.063 189.26 114.007 189.316C113.951 189.372 113.883 189.4 113.803 189.4H112.627ZM119.036 189.52C118.612 189.52 118.232 189.44 117.896 189.28C117.56 189.112 117.292 188.888 117.092 188.608C116.892 188.328 116.792 188.016 116.792 187.672C116.792 187.104 117.02 186.656 117.476 186.328C117.94 186 118.548 185.776 119.3 185.656L120.872 185.428V185.212C120.872 184.9 120.8 184.66 120.656 184.492C120.512 184.324 120.26 184.24 119.9 184.24C119.636 184.24 119.424 184.292 119.264 184.396C119.104 184.5 118.98 184.636 118.892 184.804C118.828 184.908 118.736 184.96 118.616 184.96H117.476C117.388 184.96 117.32 184.936 117.272 184.888C117.224 184.832 117.204 184.768 117.212 184.696C117.212 184.56 117.264 184.4 117.368 184.216C117.472 184.032 117.632 183.852 117.848 183.676C118.064 183.492 118.34 183.34 118.676 183.22C119.012 183.1 119.424 183.04 119.912 183.04C120.416 183.04 120.848 183.1 121.208 183.22C121.568 183.34 121.856 183.508 122.072 183.724C122.288 183.94 122.448 184.192 122.552 184.48C122.656 184.76 122.708 185.064 122.708 185.392V189.1C122.708 189.188 122.68 189.26 122.624 189.316C122.568 189.372 122.496 189.4 122.408 189.4H121.232C121.152 189.4 121.084 189.372 121.028 189.316C120.972 189.26 120.944 189.188 120.944 189.1V188.656C120.84 188.808 120.7 188.952 120.524 189.088C120.348 189.216 120.136 189.32 119.888 189.4C119.648 189.48 119.364 189.52 119.036 189.52ZM119.516 188.272C119.78 188.272 120.016 188.216 120.224 188.104C120.432 187.992 120.596 187.82 120.716 187.588C120.836 187.356 120.896 187.064 120.896 186.712V186.508L119.78 186.688C119.348 186.76 119.032 186.868 118.832 187.012C118.632 187.156 118.532 187.332 118.532 187.54C118.532 187.692 118.576 187.824 118.664 187.936C118.76 188.048 118.884 188.132 119.036 188.188C119.188 188.244 119.348 188.272 119.516 188.272ZM127.097 189.4C127.017 189.4 126.949 189.372 126.893 189.316C126.837 189.26 126.809 189.188 126.809 189.1V183.46C126.809 183.372 126.837 183.3 126.893 183.244C126.949 183.188 127.017 183.16 127.097 183.16H128.297C128.385 183.16 128.457 183.188 128.513 183.244C128.569 183.3 128.597 183.372 128.597 183.46V185.524H131.033V183.46C131.033 183.372 131.061 183.3 131.117 183.244C131.173 183.188 131.245 183.16 131.333 183.16H132.533C132.613 183.16 132.681 183.188 132.737 183.244C132.793 183.3 132.821 183.372 132.821 183.46V189.1C132.821 189.188 132.793 189.26 132.737 189.316C132.681 189.372 132.613 189.4 132.533 189.4H131.333C131.245 189.4 131.173 189.372 131.117 189.316C131.061 189.26 131.033 189.188 131.033 189.1V186.94H128.597V189.1C128.597 189.188 128.569 189.26 128.513 189.316C128.457 189.372 128.385 189.4 128.297 189.4H127.097ZM136.204 189.52C135.78 189.52 135.4 189.44 135.064 189.28C134.728 189.112 134.46 188.888 134.26 188.608C134.06 188.328 133.96 188.016 133.96 187.672C133.96 187.104 134.188 186.656 134.644 186.328C135.108 186 135.716 185.776 136.468 185.656L138.04 185.428V185.212C138.04 184.9 137.968 184.66 137.824 184.492C137.68 184.324 137.428 184.24 137.068 184.24C136.804 184.24 136.592 184.292 136.432 184.396C136.272 184.5 136.148 184.636 136.06 184.804C135.996 184.908 135.904 184.96 135.784 184.96H134.644C134.556 184.96 134.488 184.936 134.44 184.888C134.392 184.832 134.372 184.768 134.38 184.696C134.38 184.56 134.432 184.4 134.536 184.216C134.64 184.032 134.8 183.852 135.016 183.676C135.232 183.492 135.508 183.34 135.844 183.22C136.18 183.1 136.592 183.04 137.08 183.04C137.584 183.04 138.016 183.1 138.376 183.22C138.736 183.34 139.024 183.508 139.24 183.724C139.456 183.94 139.616 184.192 139.72 184.48C139.824 184.76 139.876 185.064 139.876 185.392V189.1C139.876 189.188 139.848 189.26 139.792 189.316C139.736 189.372 139.664 189.4 139.576 189.4H138.4C138.32 189.4 138.252 189.372 138.196 189.316C138.14 189.26 138.112 189.188 138.112 189.1V188.656C138.008 188.808 137.868 188.952 137.692 189.088C137.516 189.216 137.304 189.32 137.056 189.4C136.816 189.48 136.532 189.52 136.204 189.52ZM136.684 188.272C136.948 188.272 137.184 188.216 137.392 188.104C137.6 187.992 137.764 187.82 137.884 187.588C138.004 187.356 138.064 187.064 138.064 186.712V186.508L136.948 186.688C136.516 186.76 136.2 186.868 136 187.012C135.8 187.156 135.7 187.332 135.7 187.54C135.7 187.692 135.744 187.824 135.832 187.936C135.928 188.048 136.052 188.132 136.204 188.188C136.356 188.244 136.516 188.272 136.684 188.272ZM41.7467 204.52C41.0507 204.52 40.4787 204.404 40.0307 204.172C39.5907 203.94 39.2587 203.592 39.0347 203.128C38.8187 202.656 38.6947 202.072 38.6627 201.376C38.6547 201.144 38.6507 200.904 38.6507 200.656C38.6507 200.408 38.6547 200.168 38.6627 199.936C38.6787 199.248 38.7467 198.672 38.8667 198.208C38.9947 197.736 39.1827 197.348 39.4307 197.044C39.6867 196.732 40.0107 196.476 40.4027 196.276C40.8027 196.068 41.2787 195.888 41.8307 195.736C42.3827 195.584 43.0227 195.424 43.7507 195.256C43.8307 195.24 43.9067 195.252 43.9787 195.292C44.0507 195.332 44.0907 195.396 44.0987 195.484L44.2787 196.42C44.2947 196.508 44.2787 196.584 44.2307 196.648C44.1907 196.712 44.1347 196.752 44.0627 196.768C43.4467 196.896 42.9227 197.012 42.4907 197.116C42.0587 197.22 41.6987 197.34 41.4107 197.476C41.1307 197.604 40.9147 197.776 40.7627 197.992C40.6107 198.2 40.5027 198.476 40.4387 198.82C40.3827 199.156 40.3627 199.584 40.3787 200.104L40.1027 199.828C40.1587 199.596 40.2827 199.388 40.4747 199.204C40.6667 199.02 40.9027 198.872 41.1827 198.76C41.4627 198.64 41.7587 198.58 42.0707 198.58C42.6547 198.58 43.1467 198.684 43.5467 198.892C43.9467 199.1 44.2507 199.396 44.4587 199.78C44.6747 200.156 44.7987 200.608 44.8307 201.136C44.8467 201.432 44.8467 201.708 44.8307 201.964C44.7987 202.476 44.6627 202.928 44.4227 203.32C44.1907 203.704 43.8507 204 43.4027 204.208C42.9547 204.416 42.4027 204.52 41.7467 204.52ZM41.7467 203.308C42.1387 203.308 42.4347 203.192 42.6347 202.96C42.8347 202.72 42.9427 202.368 42.9587 201.904C42.9667 201.816 42.9707 201.704 42.9707 201.568C42.9707 201.424 42.9667 201.296 42.9587 201.184C42.9427 200.736 42.8347 200.392 42.6347 200.152C42.4427 199.912 42.1747 199.792 41.8307 199.792C41.4307 199.792 41.1187 199.912 40.8947 200.152C40.6707 200.392 40.5467 200.736 40.5227 201.184C40.5147 201.296 40.5107 201.424 40.5107 201.568C40.5107 201.704 40.5147 201.816 40.5227 201.904C40.5467 202.368 40.6587 202.72 40.8587 202.96C41.0587 203.192 41.3547 203.308 41.7467 203.308ZM46.3843 204.4C46.3123 204.4 46.2483 204.372 46.1923 204.316C46.1363 204.26 46.1083 204.192 46.1083 204.112V198.46C46.1083 198.372 46.1363 198.3 46.1923 198.244C46.2483 198.188 46.3163 198.16 46.3963 198.16H47.5963C47.6843 198.16 47.7563 198.188 47.8123 198.244C47.8683 198.3 47.8963 198.372 47.8963 198.46V203.02L47.4163 202.744L50.5483 198.352C50.5883 198.296 50.6323 198.252 50.6803 198.22C50.7363 198.18 50.8043 198.16 50.8843 198.16H51.9643C52.0443 198.16 52.1123 198.188 52.1683 198.244C52.2243 198.3 52.2523 198.364 52.2523 198.436V204.1C52.2523 204.188 52.2243 204.26 52.1683 204.316C52.1123 204.372 52.0403 204.4 51.9523 204.4H50.7523C50.6723 204.4 50.6043 204.372 50.5483 204.316C50.4923 204.26 50.4643 204.188 50.4643 204.1V199.72L50.9563 199.804L47.8003 204.208C47.7683 204.264 47.7243 204.312 47.6683 204.352C47.6123 204.384 47.5483 204.4 47.4763 204.4H46.3843ZM56.1629 204.52C55.6269 204.52 55.1829 204.46 54.8309 204.34C54.4789 204.22 54.1949 204.068 53.9789 203.884C53.7709 203.692 53.6189 203.492 53.5229 203.284C53.4349 203.076 53.3829 202.888 53.3669 202.72C53.3589 202.656 53.3789 202.604 53.4269 202.564C53.4749 202.516 53.5269 202.492 53.5829 202.492H54.7589C54.8469 202.492 54.9109 202.512 54.9509 202.552C54.9989 202.584 55.0389 202.632 55.0709 202.696C55.1509 202.896 55.2829 203.04 55.4669 203.128C55.6589 203.208 55.9069 203.248 56.2109 203.248C56.4109 203.248 56.5909 203.22 56.7509 203.164C56.9109 203.108 57.0309 203.028 57.1109 202.924C57.1989 202.812 57.2429 202.672 57.2429 202.504C57.2429 202.272 57.1749 202.096 57.0389 201.976C56.9029 201.848 56.6749 201.784 56.3549 201.784H55.6949C55.6149 201.784 55.5509 201.76 55.5029 201.712C55.4549 201.656 55.4309 201.592 55.4309 201.52V200.932C55.4309 200.86 55.4549 200.8 55.5029 200.752C55.5509 200.696 55.6149 200.668 55.6949 200.668H56.3189C56.5829 200.668 56.7789 200.62 56.9069 200.524C57.0349 200.42 57.0989 200.264 57.0989 200.056C57.0989 199.928 57.0669 199.808 57.0029 199.696C56.9469 199.584 56.8509 199.496 56.7149 199.432C56.5789 199.36 56.3909 199.324 56.1509 199.324C55.8149 199.324 55.5749 199.376 55.4309 199.48C55.2869 199.584 55.1789 199.74 55.1069 199.948C55.0749 200.012 55.0349 200.06 54.9869 200.092C54.9469 200.124 54.8829 200.14 54.7949 200.14H53.6549C53.5909 200.14 53.5349 200.12 53.4869 200.08C53.4469 200.04 53.4269 199.988 53.4269 199.924C53.4429 199.708 53.5029 199.492 53.6069 199.276C53.7109 199.052 53.8669 198.848 54.0749 198.664C54.2909 198.472 54.5669 198.32 54.9029 198.208C55.2469 198.096 55.6669 198.04 56.1629 198.04C56.8189 198.04 57.3429 198.124 57.7349 198.292C58.1269 198.46 58.4069 198.68 58.5749 198.952C58.7509 199.216 58.8389 199.504 58.8389 199.816C58.8389 200.096 58.7829 200.348 58.6709 200.572C58.5589 200.788 58.3589 200.968 58.0709 201.112C58.4309 201.248 58.6789 201.456 58.8149 201.736C58.9509 202.016 59.0189 202.316 59.0189 202.636C59.0269 203.028 58.9109 203.364 58.6709 203.644C58.4389 203.924 58.1069 204.14 57.6749 204.292C57.2509 204.444 56.7469 204.52 56.1629 204.52ZM60.5057 204.4C60.4257 204.4 60.3577 204.372 60.3017 204.316C60.2457 204.26 60.2177 204.188 60.2177 204.1V198.46C60.2177 198.372 60.2457 198.3 60.3017 198.244C60.3577 198.188 60.4257 198.16 60.5057 198.16H61.7057C61.7937 198.16 61.8657 198.188 61.9217 198.244C61.9777 198.3 62.0057 198.372 62.0057 198.46V200.524H64.4417V198.46C64.4417 198.372 64.4697 198.3 64.5257 198.244C64.5817 198.188 64.6537 198.16 64.7417 198.16H65.9417C66.0217 198.16 66.0897 198.188 66.1457 198.244C66.2017 198.3 66.2297 198.372 66.2297 198.46V204.1C66.2297 204.188 66.2017 204.26 66.1457 204.316C66.0897 204.372 66.0217 204.4 65.9417 204.4H64.7417C64.6537 204.4 64.5817 204.372 64.5257 204.316C64.4697 204.26 64.4417 204.188 64.4417 204.1V201.94H62.0057V204.1C62.0057 204.188 61.9777 204.26 61.9217 204.316C61.8657 204.372 61.7937 204.4 61.7057 204.4H60.5057ZM68.0523 204.4C67.9803 204.4 67.9163 204.372 67.8603 204.316C67.8043 204.26 67.7763 204.192 67.7763 204.112V198.46C67.7763 198.372 67.8043 198.3 67.8603 198.244C67.9163 198.188 67.9843 198.16 68.0643 198.16H69.2643C69.3523 198.16 69.4243 198.188 69.4803 198.244C69.5363 198.3 69.5643 198.372 69.5643 198.46V203.02L69.0843 202.744L72.2163 198.352C72.2563 198.296 72.3003 198.252 72.3483 198.22C72.4043 198.18 72.4723 198.16 72.5523 198.16H73.6323C73.7123 198.16 73.7803 198.188 73.8363 198.244C73.8923 198.3 73.9203 198.364 73.9203 198.436V204.1C73.9203 204.188 73.8923 204.26 73.8363 204.316C73.7803 204.372 73.7083 204.4 73.6203 204.4H72.4203C72.3403 204.4 72.2723 204.372 72.2163 204.316C72.1603 204.26 72.1323 204.188 72.1323 204.1V199.72L72.6243 199.804L69.4683 204.208C69.4363 204.264 69.3923 204.312 69.3363 204.352C69.2803 204.384 69.2163 204.4 69.1443 204.4H68.0523ZM78.1069 204.52C77.5229 204.52 77.0069 204.412 76.5589 204.196C76.1189 203.98 75.7709 203.668 75.5149 203.26C75.2589 202.844 75.1189 202.348 75.0949 201.772C75.0869 201.644 75.0829 201.484 75.0829 201.292C75.0829 201.092 75.0869 200.928 75.0949 200.8C75.1189 200.216 75.2549 199.72 75.5029 199.312C75.7589 198.896 76.1109 198.58 76.5589 198.364C77.0069 198.148 77.5229 198.04 78.1069 198.04C78.6429 198.04 79.0989 198.116 79.4749 198.268C79.8509 198.412 80.1589 198.596 80.3989 198.82C80.6389 199.044 80.8149 199.28 80.9269 199.528C81.0469 199.768 81.1109 199.98 81.1189 200.164C81.1269 200.244 81.0989 200.316 81.0349 200.38C80.9789 200.436 80.9109 200.464 80.8309 200.464H79.5469C79.4669 200.464 79.4029 200.444 79.3549 200.404C79.3149 200.356 79.2749 200.292 79.2349 200.212C79.1229 199.932 78.9789 199.732 78.8029 199.612C78.6269 199.492 78.4069 199.432 78.1429 199.432C77.7829 199.432 77.4989 199.548 77.2909 199.78C77.0829 200.012 76.9709 200.372 76.9549 200.86C76.9469 201.172 76.9469 201.456 76.9549 201.712C76.9789 202.208 77.0909 202.568 77.2909 202.792C77.4989 203.016 77.7829 203.128 78.1429 203.128C78.4229 203.128 78.6469 203.068 78.8149 202.948C78.9829 202.828 79.1229 202.628 79.2349 202.348C79.2669 202.268 79.3069 202.208 79.3549 202.168C79.4029 202.12 79.4669 202.096 79.5469 202.096H80.8309C80.9109 202.096 80.9789 202.128 81.0349 202.192C81.0989 202.248 81.1269 202.316 81.1189 202.396C81.1109 202.532 81.0709 202.692 80.9989 202.876C80.9349 203.06 80.8269 203.248 80.6749 203.44C80.5309 203.632 80.3429 203.812 80.1109 203.98C79.8789 204.14 79.5949 204.272 79.2589 204.376C78.9309 204.472 78.5469 204.52 78.1069 204.52ZM82.5718 204.4C82.4998 204.4 82.4358 204.372 82.3798 204.316C82.3238 204.26 82.2958 204.192 82.2958 204.112V198.46C82.2958 198.372 82.3238 198.3 82.3798 198.244C82.4358 198.188 82.5038 198.16 82.5838 198.16H83.7838C83.8718 198.16 83.9438 198.188 83.9998 198.244C84.0558 198.3 84.0838 198.372 84.0838 198.46V203.02L83.6038 202.744L86.7358 198.352C86.7758 198.296 86.8198 198.252 86.8678 198.22C86.9238 198.18 86.9918 198.16 87.0718 198.16H88.1518C88.2318 198.16 88.2998 198.188 88.3558 198.244C88.4118 198.3 88.4398 198.364 88.4398 198.436V204.1C88.4398 204.188 88.4118 204.26 88.3558 204.316C88.2998 204.372 88.2278 204.4 88.1398 204.4H86.9398C86.8598 204.4 86.7918 204.372 86.7358 204.316C86.6798 204.26 86.6518 204.188 86.6518 204.1V199.72L87.1438 199.804L83.9878 204.208C83.9558 204.264 83.9118 204.312 83.8558 204.352C83.7998 204.384 83.7358 204.4 83.6638 204.4H82.5718ZM92.7788 204.4C92.7068 204.4 92.6428 204.372 92.5868 204.316C92.5308 204.26 92.5028 204.192 92.5028 204.112V198.46C92.5028 198.372 92.5308 198.3 92.5868 198.244C92.6428 198.188 92.7108 198.16 92.7908 198.16H93.9908C94.0788 198.16 94.1508 198.188 94.2068 198.244C94.2628 198.3 94.2908 198.372 94.2908 198.46V203.02L93.8108 202.744L96.9428 198.352C96.9828 198.296 97.0268 198.252 97.0748 198.22C97.1308 198.18 97.1988 198.16 97.2788 198.16H98.3588C98.4388 198.16 98.5068 198.188 98.5628 198.244C98.6188 198.3 98.6468 198.364 98.6468 198.436V204.1C98.6468 204.188 98.6188 204.26 98.5628 204.316C98.5068 204.372 98.4348 204.4 98.3468 204.4H97.1468C97.0668 204.4 96.9988 204.372 96.9428 204.316C96.8868 204.26 96.8588 204.188 96.8588 204.1V199.72L97.3508 199.804L94.1948 204.208C94.1628 204.264 94.1188 204.312 94.0628 204.352C94.0068 204.384 93.9428 204.4 93.8708 204.4H92.7788ZM102.998 204.4C102.918 204.4 102.85 204.372 102.794 204.316C102.738 204.26 102.71 204.188 102.71 204.1V198.46C102.71 198.372 102.738 198.3 102.794 198.244C102.85 198.188 102.918 198.16 102.998 198.16H108.314C108.394 198.16 108.462 198.188 108.518 198.244C108.574 198.3 108.602 198.372 108.602 198.46V204.1C108.602 204.188 108.574 204.26 108.518 204.316C108.462 204.372 108.394 204.4 108.314 204.4H107.114C107.026 204.4 106.954 204.372 106.898 204.316C106.842 204.26 106.814 204.188 106.814 204.1V199.576H104.498V204.1C104.498 204.188 104.47 204.26 104.414 204.316C104.358 204.372 104.286 204.4 104.198 204.4H102.998ZM110.463 206.68C110.375 206.68 110.303 206.652 110.247 206.596C110.191 206.54 110.163 206.468 110.163 206.38V198.46C110.163 198.372 110.191 198.3 110.247 198.244C110.303 198.188 110.375 198.16 110.463 198.16H111.603C111.691 198.16 111.763 198.188 111.819 198.244C111.875 198.3 111.903 198.372 111.903 198.46V198.916C112.095 198.66 112.343 198.452 112.647 198.292C112.951 198.124 113.331 198.04 113.787 198.04C114.203 198.04 114.563 198.108 114.867 198.244C115.179 198.372 115.439 198.56 115.647 198.808C115.863 199.048 116.027 199.34 116.139 199.684C116.259 200.028 116.327 200.416 116.343 200.848C116.351 201 116.355 201.144 116.355 201.28C116.355 201.416 116.351 201.564 116.343 201.724C116.335 202.132 116.271 202.508 116.151 202.852C116.039 203.196 115.875 203.492 115.659 203.74C115.443 203.988 115.179 204.18 114.867 204.316C114.563 204.452 114.203 204.52 113.787 204.52C113.379 204.52 113.023 204.448 112.719 204.304C112.423 204.152 112.179 203.948 111.987 203.692V206.38C111.987 206.468 111.959 206.54 111.903 206.596C111.847 206.652 111.779 206.68 111.699 206.68H110.463ZM113.247 203.08C113.551 203.08 113.791 203.016 113.967 202.888C114.143 202.752 114.267 202.576 114.339 202.36C114.419 202.144 114.467 201.908 114.483 201.652C114.499 201.404 114.499 201.156 114.483 200.908C114.467 200.652 114.419 200.416 114.339 200.2C114.267 199.984 114.143 199.812 113.967 199.684C113.791 199.548 113.551 199.48 113.247 199.48C112.951 199.48 112.711 199.548 112.527 199.684C112.343 199.82 112.211 199.992 112.131 200.2C112.051 200.408 112.003 200.632 111.987 200.872C111.979 201.016 111.975 201.164 111.975 201.316C111.975 201.468 111.979 201.62 111.987 201.772C111.995 201.996 112.043 202.208 112.131 202.408C112.227 202.6 112.363 202.76 112.539 202.888C112.723 203.016 112.959 203.08 113.247 203.08ZM119.464 204.52C119.04 204.52 118.66 204.44 118.324 204.28C117.988 204.112 117.72 203.888 117.52 203.608C117.32 203.328 117.22 203.016 117.22 202.672C117.22 202.104 117.448 201.656 117.904 201.328C118.368 201 118.976 200.776 119.728 200.656L121.3 200.428V200.212C121.3 199.9 121.228 199.66 121.084 199.492C120.94 199.324 120.688 199.24 120.328 199.24C120.064 199.24 119.852 199.292 119.692 199.396C119.532 199.5 119.408 199.636 119.32 199.804C119.256 199.908 119.164 199.96 119.044 199.96H117.904C117.816 199.96 117.748 199.936 117.7 199.888C117.652 199.832 117.632 199.768 117.64 199.696C117.64 199.56 117.692 199.4 117.796 199.216C117.9 199.032 118.06 198.852 118.276 198.676C118.492 198.492 118.768 198.34 119.104 198.22C119.44 198.1 119.852 198.04 120.34 198.04C120.844 198.04 121.276 198.1 121.636 198.22C121.996 198.34 122.284 198.508 122.5 198.724C122.716 198.94 122.876 199.192 122.98 199.48C123.084 199.76 123.136 200.064 123.136 200.392V204.1C123.136 204.188 123.108 204.26 123.052 204.316C122.996 204.372 122.924 204.4 122.836 204.4H121.66C121.58 204.4 121.512 204.372 121.456 204.316C121.4 204.26 121.372 204.188 121.372 204.1V203.656C121.268 203.808 121.128 203.952 120.952 204.088C120.776 204.216 120.564 204.32 120.316 204.4C120.076 204.48 119.792 204.52 119.464 204.52ZM119.944 203.272C120.208 203.272 120.444 203.216 120.652 203.104C120.86 202.992 121.024 202.82 121.144 202.588C121.264 202.356 121.324 202.064 121.324 201.712V201.508L120.208 201.688C119.776 201.76 119.46 201.868 119.26 202.012C119.06 202.156 118.96 202.332 118.96 202.54C118.96 202.692 119.004 202.824 119.092 202.936C119.188 203.048 119.312 203.132 119.464 203.188C119.616 203.244 119.776 203.272 119.944 203.272ZM123.545 206.68C123.457 206.68 123.385 206.652 123.329 206.596C123.273 206.54 123.245 206.468 123.245 206.38V205.564C123.245 205.476 123.273 205.404 123.329 205.348C123.385 205.292 123.457 205.264 123.545 205.264H123.929C124.145 205.264 124.309 205.22 124.421 205.132C124.541 205.052 124.621 204.94 124.661 204.796C124.701 204.652 124.721 204.492 124.721 204.316V198.46C124.721 198.372 124.749 198.3 124.805 198.244C124.861 198.188 124.929 198.16 125.009 198.16H126.269C126.349 198.16 126.417 198.188 126.473 198.244C126.529 198.3 126.557 198.372 126.557 198.46V204.352C126.557 204.84 126.465 205.256 126.281 205.6C126.097 205.952 125.821 206.22 125.453 206.404C125.093 206.588 124.645 206.68 124.109 206.68H123.545ZM124.973 197.2C124.893 197.2 124.825 197.172 124.769 197.116C124.713 197.06 124.685 196.988 124.685 196.9V195.94C124.685 195.852 124.713 195.78 124.769 195.724C124.825 195.66 124.893 195.628 124.973 195.628H126.293C126.381 195.628 126.453 195.66 126.509 195.724C126.565 195.78 126.593 195.852 126.593 195.94V196.9C126.593 196.988 126.565 197.06 126.509 197.116C126.453 197.172 126.381 197.2 126.293 197.2H124.973ZM28.2556 219.52C27.3356 219.52 26.6036 219.264 26.0596 218.752C25.5236 218.24 25.2396 217.496 25.2076 216.52C25.2076 216.456 25.2076 216.372 25.2076 216.268C25.2076 216.156 25.2076 216.068 25.2076 216.004C25.2396 215.388 25.3796 214.86 25.6276 214.42C25.8756 213.972 26.2236 213.632 26.6716 213.4C27.1196 213.16 27.6436 213.04 28.2436 213.04C28.9156 213.04 29.4756 213.18 29.9236 213.46C30.3796 213.732 30.7196 214.108 30.9436 214.588C31.1756 215.06 31.2916 215.604 31.2916 216.22V216.496C31.2916 216.576 31.2596 216.644 31.1956 216.7C31.1396 216.756 31.0716 216.784 30.9916 216.784H27.0676C27.0676 216.792 27.0676 216.808 27.0676 216.832C27.0676 216.848 27.0676 216.864 27.0676 216.88C27.0756 217.136 27.1236 217.372 27.2116 217.588C27.3076 217.796 27.4396 217.964 27.6076 218.092C27.7836 218.22 27.9916 218.284 28.2316 218.284C28.4316 218.284 28.5956 218.256 28.7236 218.2C28.8516 218.144 28.9556 218.076 29.0356 217.996C29.1236 217.916 29.1876 217.848 29.2276 217.792C29.2996 217.712 29.3556 217.664 29.3956 217.648C29.4436 217.624 29.5156 217.612 29.6116 217.612H30.8596C30.9396 217.612 31.0036 217.636 31.0516 217.684C31.1076 217.724 31.1316 217.784 31.1236 217.864C31.1156 217.992 31.0476 218.152 30.9196 218.344C30.7996 218.528 30.6196 218.712 30.3796 218.896C30.1396 219.072 29.8396 219.22 29.4796 219.34C29.1276 219.46 28.7196 219.52 28.2556 219.52ZM27.0676 215.692H29.4196V215.668C29.4196 215.38 29.3716 215.132 29.2756 214.924C29.1876 214.708 29.0556 214.54 28.8796 214.42C28.7036 214.3 28.4916 214.24 28.2436 214.24C27.9956 214.24 27.7836 214.3 27.6076 214.42C27.4316 214.54 27.2956 214.708 27.1996 214.924C27.1116 215.132 27.0676 215.38 27.0676 215.668V215.692ZM32.7791 219.4C32.6991 219.4 32.6311 219.372 32.5751 219.316C32.5191 219.26 32.4911 219.188 32.4911 219.1V213.46C32.4911 213.372 32.5191 213.3 32.5751 213.244C32.6311 213.188 32.6991 213.16 32.7791 213.16H33.9551C34.0431 213.16 34.1151 213.188 34.1711 213.244C34.2271 213.3 34.2551 213.372 34.2551 213.46V215.524H35.0111L36.4031 213.352C36.4271 213.304 36.4631 213.26 36.5111 213.22C36.5671 213.18 36.6391 213.16 36.7271 213.16H38.0351C38.1071 213.16 38.1671 213.184 38.2151 213.232C38.2711 213.272 38.2991 213.324 38.2991 213.388C38.2991 213.412 38.2911 213.44 38.2751 213.472C38.2671 213.504 38.2551 213.532 38.2391 213.556L36.5471 216.172L38.5031 219.016C38.5351 219.064 38.5511 219.116 38.5511 219.172C38.5511 219.236 38.5271 219.292 38.4791 219.34C38.4311 219.38 38.3711 219.4 38.2991 219.4H36.8471C36.7671 219.4 36.6991 219.384 36.6431 219.352C36.5951 219.312 36.5511 219.264 36.5111 219.208L34.9991 216.952H34.2551V219.1C34.2551 219.188 34.2271 219.26 34.1711 219.316C34.1151 219.372 34.0431 219.4 33.9551 219.4H32.7791ZM42.3178 219.52C41.7338 219.52 41.2178 219.412 40.7698 219.196C40.3298 218.98 39.9818 218.668 39.7258 218.26C39.4698 217.844 39.3298 217.348 39.3058 216.772C39.2978 216.644 39.2938 216.484 39.2938 216.292C39.2938 216.092 39.2978 215.928 39.3058 215.8C39.3298 215.216 39.4658 214.72 39.7138 214.312C39.9698 213.896 40.3218 213.58 40.7698 213.364C41.2178 213.148 41.7338 213.04 42.3178 213.04C42.8538 213.04 43.3098 213.116 43.6858 213.268C44.0618 213.412 44.3698 213.596 44.6098 213.82C44.8498 214.044 45.0258 214.28 45.1378 214.528C45.2578 214.768 45.3218 214.98 45.3298 215.164C45.3378 215.244 45.3098 215.316 45.2458 215.38C45.1898 215.436 45.1218 215.464 45.0418 215.464H43.7578C43.6778 215.464 43.6138 215.444 43.5658 215.404C43.5258 215.356 43.4858 215.292 43.4458 215.212C43.3338 214.932 43.1898 214.732 43.0138 214.612C42.8378 214.492 42.6178 214.432 42.3538 214.432C41.9938 214.432 41.7098 214.548 41.5018 214.78C41.2938 215.012 41.1818 215.372 41.1658 215.86C41.1578 216.172 41.1578 216.456 41.1658 216.712C41.1898 217.208 41.3018 217.568 41.5018 217.792C41.7098 218.016 41.9938 218.128 42.3538 218.128C42.6338 218.128 42.8578 218.068 43.0258 217.948C43.1938 217.828 43.3338 217.628 43.4458 217.348C43.4778 217.268 43.5178 217.208 43.5658 217.168C43.6138 217.12 43.6778 217.096 43.7578 217.096H45.0418C45.1218 217.096 45.1898 217.128 45.2458 217.192C45.3098 217.248 45.3378 217.316 45.3298 217.396C45.3218 217.532 45.2818 217.692 45.2098 217.876C45.1458 218.06 45.0378 218.248 44.8858 218.44C44.7418 218.632 44.5538 218.812 44.3218 218.98C44.0898 219.14 43.8058 219.272 43.4698 219.376C43.1418 219.472 42.7578 219.52 42.3178 219.52ZM48.4027 219.4C48.3147 219.4 48.2427 219.372 48.1867 219.316C48.1307 219.26 48.1027 219.188 48.1027 219.1V214.576H46.2187C46.1307 214.576 46.0587 214.548 46.0027 214.492C45.9467 214.436 45.9187 214.364 45.9187 214.276V213.46C45.9187 213.372 45.9467 213.3 46.0027 213.244C46.0587 213.188 46.1307 213.16 46.2187 213.16H51.7507C51.8387 213.16 51.9107 213.188 51.9667 213.244C52.0227 213.3 52.0507 213.372 52.0507 213.46V214.276C52.0507 214.364 52.0227 214.436 51.9667 214.492C51.9107 214.548 51.8387 214.576 51.7507 214.576H49.8667V219.1C49.8667 219.188 49.8387 219.26 49.7827 219.316C49.7267 219.372 49.6587 219.4 49.5787 219.4H48.4027ZM53.2755 221.68C53.1875 221.68 53.1155 221.652 53.0595 221.596C53.0035 221.54 52.9755 221.468 52.9755 221.38V213.46C52.9755 213.372 53.0035 213.3 53.0595 213.244C53.1155 213.188 53.1875 213.16 53.2755 213.16H54.4155C54.5035 213.16 54.5755 213.188 54.6315 213.244C54.6875 213.3 54.7155 213.372 54.7155 213.46V213.916C54.9075 213.66 55.1555 213.452 55.4595 213.292C55.7635 213.124 56.1435 213.04 56.5995 213.04C57.0155 213.04 57.3755 213.108 57.6795 213.244C57.9915 213.372 58.2515 213.56 58.4595 213.808C58.6755 214.048 58.8395 214.34 58.9515 214.684C59.0715 215.028 59.1395 215.416 59.1555 215.848C59.1635 216 59.1675 216.144 59.1675 216.28C59.1675 216.416 59.1635 216.564 59.1555 216.724C59.1475 217.132 59.0835 217.508 58.9635 217.852C58.8515 218.196 58.6875 218.492 58.4715 218.74C58.2555 218.988 57.9915 219.18 57.6795 219.316C57.3755 219.452 57.0155 219.52 56.5995 219.52C56.1915 219.52 55.8355 219.448 55.5315 219.304C55.2355 219.152 54.9915 218.948 54.7995 218.692V221.38C54.7995 221.468 54.7715 221.54 54.7155 221.596C54.6595 221.652 54.5915 221.68 54.5115 221.68H53.2755ZM56.0595 218.08C56.3635 218.08 56.6035 218.016 56.7795 217.888C56.9555 217.752 57.0795 217.576 57.1515 217.36C57.2315 217.144 57.2795 216.908 57.2955 216.652C57.3115 216.404 57.3115 216.156 57.2955 215.908C57.2795 215.652 57.2315 215.416 57.1515 215.2C57.0795 214.984 56.9555 214.812 56.7795 214.684C56.6035 214.548 56.3635 214.48 56.0595 214.48C55.7635 214.48 55.5235 214.548 55.3395 214.684C55.1555 214.82 55.0235 214.992 54.9435 215.2C54.8635 215.408 54.8155 215.632 54.7995 215.872C54.7915 216.016 54.7875 216.164 54.7875 216.316C54.7875 216.468 54.7915 216.62 54.7995 216.772C54.8075 216.996 54.8555 217.208 54.9435 217.408C55.0395 217.6 55.1755 217.76 55.3515 217.888C55.5355 218.016 55.7715 218.08 56.0595 218.08ZM62.2763 219.52C61.8523 219.52 61.4723 219.44 61.1363 219.28C60.8003 219.112 60.5323 218.888 60.3323 218.608C60.1323 218.328 60.0323 218.016 60.0323 217.672C60.0323 217.104 60.2603 216.656 60.7163 216.328C61.1803 216 61.7883 215.776 62.5403 215.656L64.1123 215.428V215.212C64.1123 214.9 64.0403 214.66 63.8963 214.492C63.7523 214.324 63.5003 214.24 63.1403 214.24C62.8763 214.24 62.6643 214.292 62.5043 214.396C62.3443 214.5 62.2203 214.636 62.1323 214.804C62.0683 214.908 61.9763 214.96 61.8563 214.96H60.7163C60.6283 214.96 60.5603 214.936 60.5123 214.888C60.4643 214.832 60.4443 214.768 60.4523 214.696C60.4523 214.56 60.5043 214.4 60.6083 214.216C60.7123 214.032 60.8723 213.852 61.0883 213.676C61.3043 213.492 61.5803 213.34 61.9163 213.22C62.2523 213.1 62.6643 213.04 63.1523 213.04C63.6563 213.04 64.0883 213.1 64.4483 213.22C64.8083 213.34 65.0963 213.508 65.3123 213.724C65.5283 213.94 65.6883 214.192 65.7923 214.48C65.8963 214.76 65.9483 215.064 65.9483 215.392V219.1C65.9483 219.188 65.9203 219.26 65.8643 219.316C65.8083 219.372 65.7363 219.4 65.6483 219.4H64.4723C64.3923 219.4 64.3243 219.372 64.2683 219.316C64.2123 219.26 64.1843 219.188 64.1843 219.1V218.656C64.0803 218.808 63.9403 218.952 63.7643 219.088C63.5883 219.216 63.3763 219.32 63.1283 219.4C62.8883 219.48 62.6043 219.52 62.2763 219.52ZM62.7563 218.272C63.0203 218.272 63.2563 218.216 63.4643 218.104C63.6723 217.992 63.8363 217.82 63.9563 217.588C64.0763 217.356 64.1363 217.064 64.1363 216.712V216.508L63.0203 216.688C62.5883 216.76 62.2723 216.868 62.0723 217.012C61.8723 217.156 61.7723 217.332 61.7723 217.54C61.7723 217.692 61.8163 217.824 61.9043 217.936C62.0003 218.048 62.1243 218.132 62.2763 218.188C62.4283 218.244 62.5883 218.272 62.7563 218.272ZM70.1097 219.4C70.0217 219.4 69.9497 219.372 69.8937 219.316C69.8377 219.26 69.8097 219.188 69.8097 219.1V218.38C69.8097 218.316 69.8257 218.232 69.8577 218.128C69.8977 218.016 69.9817 217.908 70.1097 217.804L71.6937 216.232C72.2777 215.784 72.7497 215.404 73.1097 215.092C73.4777 214.78 73.7497 214.496 73.9257 214.24C74.1017 213.984 74.1897 213.736 74.1897 213.496C74.1897 213.184 74.1017 212.928 73.9257 212.728C73.7577 212.52 73.4817 212.416 73.0977 212.416C72.8417 212.416 72.6257 212.472 72.4497 212.584C72.2817 212.688 72.1497 212.828 72.0537 213.004C71.9577 213.18 71.8937 213.372 71.8617 213.58C71.8377 213.684 71.7857 213.756 71.7057 213.796C71.6337 213.836 71.5577 213.856 71.4777 213.856H70.2057C70.1257 213.856 70.0617 213.832 70.0137 213.784C69.9657 213.728 69.9417 213.668 69.9417 213.604C69.9497 213.236 70.0257 212.888 70.1697 212.56C70.3217 212.232 70.5337 211.94 70.8057 211.684C71.0777 211.428 71.4057 211.228 71.7897 211.084C72.1737 210.932 72.6097 210.856 73.0977 210.856C73.7697 210.856 74.3337 210.968 74.7897 211.192C75.2457 211.408 75.5897 211.708 75.8217 212.092C76.0537 212.476 76.1697 212.92 76.1697 213.424C76.1697 213.808 76.0897 214.164 75.9297 214.492C75.7777 214.82 75.5537 215.136 75.2577 215.44C74.9617 215.736 74.6097 216.044 74.2017 216.364L72.7857 217.78H76.0497C76.1377 217.78 76.2097 217.808 76.2657 217.864C76.3217 217.92 76.3497 217.992 76.3497 218.08V219.1C76.3497 219.188 76.3217 219.26 76.2657 219.316C76.2097 219.372 76.1377 219.4 76.0497 219.4H70.1097ZM77.9072 219.4C77.8352 219.4 77.7752 219.376 77.7272 219.328C77.6792 219.28 77.6552 219.22 77.6552 219.148V213.4C77.6552 213.336 77.6792 213.28 77.7272 213.232C77.7752 213.184 77.8312 213.16 77.8952 213.16H79.0712C79.2152 213.16 79.3272 213.232 79.4072 213.376L81.1592 216.508L82.8992 213.376C82.9792 213.232 83.0912 213.16 83.2352 213.16H84.4232C84.4872 213.16 84.5432 213.184 84.5912 213.232C84.6392 213.28 84.6632 213.336 84.6632 213.4V219.148C84.6632 219.22 84.6392 219.28 84.5912 219.328C84.5432 219.376 84.4832 219.4 84.4112 219.4H83.1512C83.0712 219.4 83.0072 219.376 82.9592 219.328C82.9192 219.28 82.8992 219.22 82.8992 219.148V215.008L83.4392 215.116L81.7352 218.176C81.6952 218.248 81.6472 218.312 81.5912 218.368C81.5432 218.424 81.4712 218.452 81.3752 218.452H80.9312C80.8432 218.452 80.7712 218.428 80.7152 218.38C80.6592 218.324 80.6072 218.256 80.5592 218.176L78.9032 215.224L79.4072 215.116V219.148C79.4072 219.22 79.3832 219.28 79.3352 219.328C79.2872 219.376 79.2272 219.4 79.1552 219.4H77.9072ZM91.7143 219.52C91.0503 219.52 90.4943 219.412 90.0463 219.196C89.5983 218.972 89.2543 218.656 89.0143 218.248C88.7823 217.84 88.6543 217.364 88.6303 216.82C88.6223 216.66 88.6183 216.48 88.6183 216.28C88.6183 216.072 88.6223 215.892 88.6303 215.74C88.6543 215.188 88.7903 214.712 89.0383 214.312C89.2863 213.904 89.6343 213.592 90.0823 213.376C90.5303 213.152 91.0743 213.04 91.7143 213.04C92.3463 213.04 92.8863 213.152 93.3343 213.376C93.7823 213.592 94.1303 213.904 94.3783 214.312C94.6263 214.712 94.7623 215.188 94.7863 215.74C94.8023 215.892 94.8103 216.072 94.8103 216.28C94.8103 216.48 94.8023 216.66 94.7863 216.82C94.7623 217.364 94.6303 217.84 94.3903 218.248C94.1583 218.656 93.8183 218.972 93.3703 219.196C92.9223 219.412 92.3703 219.52 91.7143 219.52ZM91.7143 218.2C92.1063 218.2 92.4023 218.08 92.6023 217.84C92.8023 217.592 92.9103 217.232 92.9263 216.76C92.9343 216.64 92.9383 216.48 92.9383 216.28C92.9383 216.08 92.9343 215.92 92.9263 215.8C92.9103 215.336 92.8023 214.98 92.6023 214.732C92.4023 214.484 92.1063 214.36 91.7143 214.36C91.3223 214.36 91.0223 214.484 90.8143 214.732C90.6143 214.98 90.5063 215.336 90.4903 215.8C90.4823 215.92 90.4783 216.08 90.4783 216.28C90.4783 216.48 90.4823 216.64 90.4903 216.76C90.5063 217.232 90.6143 217.592 90.8143 217.84C91.0223 218.08 91.3223 218.2 91.7143 218.2ZM95.8733 220.72C95.7933 220.72 95.7253 220.692 95.6693 220.636C95.6133 220.58 95.5853 220.508 95.5853 220.42V218.284C95.5853 218.196 95.6133 218.124 95.6693 218.068C95.7253 218.012 95.7933 217.984 95.8733 217.984H95.9813C96.1893 217.984 96.3533 217.876 96.4733 217.66C96.6013 217.444 96.6933 217.124 96.7493 216.7C96.8053 216.276 96.8333 215.744 96.8333 215.104V213.46C96.8333 213.372 96.8613 213.3 96.9173 213.244C96.9733 213.188 97.0413 213.16 97.1213 213.16H101.609C101.697 213.16 101.769 213.188 101.825 213.244C101.881 213.3 101.909 213.372 101.909 213.46V217.972H102.437C102.517 217.972 102.585 218 102.641 218.056C102.697 218.112 102.725 218.184 102.725 218.272V220.42C102.725 220.508 102.697 220.58 102.641 220.636C102.585 220.692 102.517 220.72 102.437 220.72H101.237C101.149 220.72 101.077 220.692 101.021 220.636C100.965 220.58 100.937 220.508 100.937 220.42V219.4H97.3733V220.42C97.3733 220.508 97.3453 220.58 97.2893 220.636C97.2333 220.692 97.1613 220.72 97.0733 220.72H95.8733ZM98.0453 217.984L100.121 217.972V214.576H98.5373V215.308C98.5373 215.964 98.4933 216.512 98.4053 216.952C98.3253 217.392 98.2053 217.736 98.0453 217.984ZM106.713 221.68C106.625 221.68 106.553 221.652 106.497 221.596C106.441 221.54 106.413 221.468 106.413 221.38V213.46C106.413 213.372 106.441 213.3 106.497 213.244C106.553 213.188 106.625 213.16 106.713 213.16H107.853C107.941 213.16 108.013 213.188 108.069 213.244C108.125 213.3 108.153 213.372 108.153 213.46V213.916C108.345 213.66 108.593 213.452 108.897 213.292C109.201 213.124 109.581 213.04 110.037 213.04C110.453 213.04 110.813 213.108 111.117 213.244C111.429 213.372 111.689 213.56 111.897 213.808C112.113 214.048 112.277 214.34 112.389 214.684C112.509 215.028 112.577 215.416 112.593 215.848C112.601 216 112.605 216.144 112.605 216.28C112.605 216.416 112.601 216.564 112.593 216.724C112.585 217.132 112.521 217.508 112.401 217.852C112.289 218.196 112.125 218.492 111.909 218.74C111.693 218.988 111.429 219.18 111.117 219.316C110.813 219.452 110.453 219.52 110.037 219.52C109.629 219.52 109.273 219.448 108.969 219.304C108.673 219.152 108.429 218.948 108.237 218.692V221.38C108.237 221.468 108.209 221.54 108.153 221.596C108.097 221.652 108.029 221.68 107.949 221.68H106.713ZM109.497 218.08C109.801 218.08 110.041 218.016 110.217 217.888C110.393 217.752 110.517 217.576 110.589 217.36C110.669 217.144 110.717 216.908 110.733 216.652C110.749 216.404 110.749 216.156 110.733 215.908C110.717 215.652 110.669 215.416 110.589 215.2C110.517 214.984 110.393 214.812 110.217 214.684C110.041 214.548 109.801 214.48 109.497 214.48C109.201 214.48 108.961 214.548 108.777 214.684C108.593 214.82 108.461 214.992 108.381 215.2C108.301 215.408 108.253 215.632 108.237 215.872C108.229 216.016 108.225 216.164 108.225 216.316C108.225 216.468 108.229 216.62 108.237 216.772C108.245 216.996 108.293 217.208 108.381 217.408C108.477 217.6 108.613 217.76 108.789 217.888C108.973 218.016 109.209 218.08 109.497 218.08ZM116.662 219.52C115.742 219.52 115.01 219.264 114.466 218.752C113.93 218.24 113.646 217.496 113.614 216.52C113.614 216.456 113.614 216.372 113.614 216.268C113.614 216.156 113.614 216.068 113.614 216.004C113.646 215.388 113.786 214.86 114.034 214.42C114.282 213.972 114.63 213.632 115.078 213.4C115.526 213.16 116.05 213.04 116.65 213.04C117.322 213.04 117.882 213.18 118.33 213.46C118.786 213.732 119.126 214.108 119.35 214.588C119.582 215.06 119.698 215.604 119.698 216.22V216.496C119.698 216.576 119.666 216.644 119.602 216.7C119.546 216.756 119.478 216.784 119.398 216.784H115.474C115.474 216.792 115.474 216.808 115.474 216.832C115.474 216.848 115.474 216.864 115.474 216.88C115.482 217.136 115.53 217.372 115.618 217.588C115.714 217.796 115.846 217.964 116.014 218.092C116.19 218.22 116.398 218.284 116.638 218.284C116.838 218.284 117.002 218.256 117.13 218.2C117.258 218.144 117.362 218.076 117.442 217.996C117.53 217.916 117.594 217.848 117.634 217.792C117.706 217.712 117.762 217.664 117.802 217.648C117.85 217.624 117.922 217.612 118.018 217.612H119.266C119.346 217.612 119.41 217.636 119.458 217.684C119.514 217.724 119.538 217.784 119.53 217.864C119.522 217.992 119.454 218.152 119.326 218.344C119.206 218.528 119.026 218.712 118.786 218.896C118.546 219.072 118.246 219.22 117.886 219.34C117.534 219.46 117.126 219.52 116.662 219.52ZM115.474 215.692H117.826V215.668C117.826 215.38 117.778 215.132 117.682 214.924C117.594 214.708 117.462 214.54 117.286 214.42C117.11 214.3 116.898 214.24 116.65 214.24C116.402 214.24 116.19 214.3 116.014 214.42C115.838 214.54 115.702 214.708 115.606 214.924C115.518 215.132 115.474 215.38 115.474 215.668V215.692ZM121.185 219.4C121.105 219.4 121.037 219.372 120.981 219.316C120.925 219.26 120.897 219.188 120.897 219.1V213.46C120.897 213.372 120.925 213.3 120.981 213.244C121.037 213.188 121.105 213.16 121.185 213.16H122.361C122.449 213.16 122.521 213.188 122.577 213.244C122.633 213.3 122.661 213.372 122.661 213.46V215.524H123.417L124.809 213.352C124.833 213.304 124.869 213.26 124.917 213.22C124.973 213.18 125.045 213.16 125.133 213.16H126.441C126.513 213.16 126.573 213.184 126.621 213.232C126.677 213.272 126.705 213.324 126.705 213.388C126.705 213.412 126.697 213.44 126.681 213.472C126.673 213.504 126.661 213.532 126.645 213.556L124.953 216.172L126.909 219.016C126.941 219.064 126.957 219.116 126.957 219.172C126.957 219.236 126.933 219.292 126.885 219.34C126.837 219.38 126.777 219.4 126.705 219.4H125.253C125.173 219.4 125.105 219.384 125.049 219.352C125.001 219.312 124.957 219.264 124.917 219.208L123.405 216.952H122.661V219.1C122.661 219.188 122.633 219.26 122.577 219.316C122.521 219.372 122.449 219.4 122.361 219.4H121.185ZM130.736 219.52C129.816 219.52 129.084 219.264 128.54 218.752C128.004 218.24 127.72 217.496 127.688 216.52C127.688 216.456 127.688 216.372 127.688 216.268C127.688 216.156 127.688 216.068 127.688 216.004C127.72 215.388 127.86 214.86 128.108 214.42C128.356 213.972 128.704 213.632 129.152 213.4C129.6 213.16 130.124 213.04 130.724 213.04C131.396 213.04 131.956 213.18 132.404 213.46C132.86 213.732 133.2 214.108 133.424 214.588C133.656 215.06 133.772 215.604 133.772 216.22V216.496C133.772 216.576 133.74 216.644 133.676 216.7C133.62 216.756 133.552 216.784 133.472 216.784H129.548C129.548 216.792 129.548 216.808 129.548 216.832C129.548 216.848 129.548 216.864 129.548 216.88C129.556 217.136 129.604 217.372 129.692 217.588C129.788 217.796 129.92 217.964 130.088 218.092C130.264 218.22 130.472 218.284 130.712 218.284C130.912 218.284 131.076 218.256 131.204 218.2C131.332 218.144 131.436 218.076 131.516 217.996C131.604 217.916 131.668 217.848 131.708 217.792C131.78 217.712 131.836 217.664 131.876 217.648C131.924 217.624 131.996 217.612 132.092 217.612H133.34C133.42 217.612 133.484 217.636 133.532 217.684C133.588 217.724 133.612 217.784 133.604 217.864C133.596 217.992 133.528 218.152 133.4 218.344C133.28 218.528 133.1 218.712 132.86 218.896C132.62 219.072 132.32 219.22 131.96 219.34C131.608 219.46 131.2 219.52 130.736 219.52ZM129.548 215.692H131.9V215.668C131.9 215.38 131.852 215.132 131.756 214.924C131.668 214.708 131.536 214.54 131.36 214.42C131.184 214.3 130.972 214.24 130.724 214.24C130.476 214.24 130.264 214.3 130.088 214.42C129.912 214.54 129.776 214.708 129.68 214.924C129.592 215.132 129.548 215.38 129.548 215.668V215.692ZM136.868 219.4C136.78 219.4 136.708 219.372 136.652 219.316C136.596 219.26 136.568 219.188 136.568 219.1V214.576H134.684C134.596 214.576 134.524 214.548 134.468 214.492C134.412 214.436 134.384 214.364 134.384 214.276V213.46C134.384 213.372 134.412 213.3 134.468 213.244C134.524 213.188 134.596 213.16 134.684 213.16H140.216C140.304 213.16 140.376 213.188 140.432 213.244C140.488 213.3 140.516 213.372 140.516 213.46V214.276C140.516 214.364 140.488 214.436 140.432 214.492C140.376 214.548 140.304 214.576 140.216 214.576H138.332V219.1C138.332 219.188 138.304 219.26 138.248 219.316C138.192 219.372 138.124 219.4 138.044 219.4H136.868Z" fill="black"/>
<path d="M44.1676 88C44.0209 88 43.9036 87.9487 43.8156 87.846C43.7276 87.7433 43.6983 87.6113 43.7276 87.45L46.2576 75.658H42.2536C42.1069 75.658 41.9896 75.6067 41.9016 75.504C41.8136 75.4013 41.7843 75.2767 41.8136 75.13L42.2316 73.15C42.2609 72.9887 42.3343 72.8567 42.4516 72.754C42.5836 72.6513 42.7303 72.6 42.8916 72.6H54.4196C54.5809 72.6 54.6983 72.6513 54.7716 72.754C54.8596 72.8567 54.8889 72.9887 54.8596 73.15L54.4196 75.13C54.3903 75.2767 54.3169 75.4013 54.1996 75.504C54.0823 75.6067 53.9429 75.658 53.7816 75.658H49.7996L47.2696 87.45C47.2403 87.6113 47.1596 87.7433 47.0276 87.846C46.9103 87.9487 46.7709 88 46.6096 88H44.1676ZM59.3533 88.22C58.2386 88.22 57.3073 88.0147 56.5593 87.604C55.8259 87.1787 55.3199 86.5553 55.0413 85.734C54.7626 84.9127 54.7259 83.908 54.9313 82.72C54.9606 82.6027 54.9899 82.4487 55.0193 82.258C55.0633 82.0527 55.1073 81.8913 55.1513 81.774C55.4446 80.6447 55.8993 79.6767 56.5153 78.87C57.1459 78.0487 57.9159 77.4253 58.8253 77C59.7493 76.56 60.7613 76.34 61.8613 76.34C63.0933 76.34 64.0613 76.5967 64.7653 77.11C65.4839 77.6087 65.9606 78.298 66.1953 79.178C66.4299 80.0433 66.4299 81.0407 66.1953 82.17L66.1073 82.676C66.0779 82.8227 65.9973 82.9473 65.8653 83.05C65.7333 83.1527 65.5866 83.204 65.4253 83.204H58.2533C58.2533 83.2187 58.2459 83.248 58.2313 83.292C58.2313 83.3213 58.2239 83.3507 58.2093 83.38C58.1359 83.8493 58.1359 84.282 58.2093 84.678C58.2826 85.0593 58.4513 85.3673 58.7153 85.602C58.9939 85.8367 59.3533 85.954 59.7933 85.954C60.1453 85.954 60.4533 85.9027 60.7173 85.8C60.9813 85.6973 61.2013 85.5727 61.3773 85.426C61.5679 85.2793 61.7146 85.1547 61.8173 85.052C61.9786 84.9053 62.1033 84.8173 62.1913 84.788C62.2793 84.744 62.4113 84.722 62.5873 84.722H64.8753C65.0219 84.722 65.1319 84.766 65.2053 84.854C65.2786 84.9273 65.2933 85.0373 65.2493 85.184C65.1906 85.4187 65.0073 85.712 64.6993 86.064C64.4059 86.4013 64.0026 86.7387 63.4893 87.076C62.9759 87.3987 62.3673 87.67 61.6633 87.89C60.9739 88.11 60.2039 88.22 59.3533 88.22ZM58.6933 81.202H63.0053V81.158C63.1373 80.63 63.1519 80.1753 63.0493 79.794C62.9613 79.398 62.7779 79.09 62.4993 78.87C62.2206 78.65 61.8539 78.54 61.3993 78.54C60.9446 78.54 60.5339 78.65 60.1673 78.87C59.8006 79.09 59.4926 79.398 59.2433 79.794C59.0086 80.1753 58.8253 80.63 58.6933 81.158V81.202ZM67.9554 88C67.8088 88 67.6914 87.9487 67.6034 87.846C67.5154 87.7433 67.4861 87.6113 67.5154 87.45L69.7374 77.11C69.7668 76.9487 69.8401 76.8167 69.9574 76.714C70.0894 76.6113 70.2288 76.56 70.3754 76.56H72.5754C72.7368 76.56 72.8541 76.6113 72.9274 76.714C73.0154 76.8167 73.0448 76.9487 73.0154 77.11L72.2014 80.894H76.6674L77.5034 77.11C77.5328 76.9487 77.6061 76.8167 77.7234 76.714C77.8408 76.6113 77.9801 76.56 78.1414 76.56H80.3414C80.4881 76.56 80.6054 76.6113 80.6934 76.714C80.7814 76.8167 80.8108 76.9487 80.7814 77.11L78.5594 87.45C78.5301 87.6113 78.4494 87.7433 78.3174 87.846C78.2001 87.9487 78.0681 88 77.9214 88H75.7214C75.5601 88 75.4354 87.9487 75.3474 87.846C75.2741 87.7433 75.2521 87.6113 75.2814 87.45L76.1174 83.49H71.6514L70.7934 87.45C70.7641 87.6113 70.6908 87.7433 70.5734 87.846C70.4561 87.9487 70.3168 88 70.1554 88H67.9554ZM86.8729 88.22C85.7142 88.22 84.7535 88.022 83.9909 87.626C83.2282 87.2153 82.6782 86.636 82.3409 85.888C82.0182 85.14 81.9375 84.2673 82.0989 83.27C82.1282 83.094 82.1502 82.9473 82.1649 82.83C82.1942 82.698 82.2235 82.566 82.2529 82.434C82.2969 82.302 82.3409 82.1407 82.3849 81.95C82.6489 80.9527 83.0449 80.0947 83.5729 79.376C84.1155 78.6427 84.8049 78.078 85.6409 77.682C86.4769 77.286 87.4669 77.088 88.6109 77.088C89.2415 77.088 89.8135 77.198 90.3269 77.418C90.8402 77.6233 91.2802 77.924 91.6469 78.32C91.8082 77.352 91.7789 76.5527 91.5589 75.922C91.3535 75.2913 90.9355 74.8147 90.3049 74.492C89.6742 74.1547 88.7869 73.964 87.6429 73.92C87.4815 73.92 87.3495 73.8687 87.2469 73.766C87.1442 73.6633 87.0929 73.5387 87.0929 73.392V72.05C87.0929 71.9033 87.1442 71.7787 87.2469 71.676C87.3495 71.5587 87.4815 71.4927 87.6429 71.478C89.5642 71.5073 91.0455 71.874 92.0869 72.578C93.1282 73.2673 93.7955 74.272 94.0889 75.592C94.3969 76.912 94.3749 78.54 94.0229 80.476C93.9789 80.9013 93.8982 81.3487 93.7809 81.818C93.6782 82.2727 93.5535 82.7567 93.4069 83.27C93.1429 84.2673 92.7322 85.14 92.1749 85.888C91.6322 86.636 90.9209 87.2153 90.0409 87.626C89.1755 88.022 88.1195 88.22 86.8729 88.22ZM87.1369 85.8C87.8555 85.8 88.4569 85.58 88.9409 85.14C89.4249 84.6853 89.7842 84.0253 90.0189 83.16C90.0775 82.9693 90.1289 82.786 90.1729 82.61C90.2169 82.434 90.2535 82.2507 90.2829 82.06C90.3855 81.5467 90.3855 81.0993 90.2829 80.718C90.1949 80.3367 90.0115 80.0433 89.7329 79.838C89.4689 79.618 89.1169 79.508 88.6769 79.508C87.8995 79.508 87.2835 79.728 86.8289 80.168C86.3742 80.608 86.0222 81.2387 85.7729 82.06C85.7142 82.2507 85.6629 82.434 85.6189 82.61C85.5895 82.786 85.5602 82.9693 85.5309 83.16C85.3989 84.0253 85.4502 84.6853 85.6849 85.14C85.9195 85.58 86.4035 85.8 87.1369 85.8ZM100.785 88.22C99.6699 88.22 98.7386 88.0147 97.9906 87.604C97.2573 87.1787 96.7513 86.5553 96.4726 85.734C96.1939 84.9127 96.1573 83.908 96.3626 82.72C96.3919 82.6027 96.4213 82.4487 96.4506 82.258C96.4946 82.0527 96.5386 81.8913 96.5826 81.774C96.8759 80.6447 97.3306 79.6767 97.9466 78.87C98.5773 78.0487 99.3473 77.4253 100.257 77C101.181 76.56 102.193 76.34 103.293 76.34C104.525 76.34 105.493 76.5967 106.197 77.11C106.915 77.6087 107.392 78.298 107.627 79.178C107.861 80.0433 107.861 81.0407 107.627 82.17L107.539 82.676C107.509 82.8227 107.429 82.9473 107.297 83.05C107.165 83.1527 107.018 83.204 106.857 83.204H99.6846C99.6846 83.2187 99.6773 83.248 99.6626 83.292C99.6626 83.3213 99.6553 83.3507 99.6406 83.38C99.5673 83.8493 99.5673 84.282 99.6406 84.678C99.7139 85.0593 99.8826 85.3673 100.147 85.602C100.425 85.8367 100.785 85.954 101.225 85.954C101.577 85.954 101.885 85.9027 102.149 85.8C102.413 85.6973 102.633 85.5727 102.809 85.426C102.999 85.2793 103.146 85.1547 103.249 85.052C103.41 84.9053 103.535 84.8173 103.623 84.788C103.711 84.744 103.843 84.722 104.019 84.722H106.307C106.453 84.722 106.563 84.766 106.637 84.854C106.71 84.9273 106.725 85.0373 106.681 85.184C106.622 85.4187 106.439 85.712 106.131 86.064C105.837 86.4013 105.434 86.7387 104.921 87.076C104.407 87.3987 103.799 87.67 103.095 87.89C102.405 88.11 101.635 88.22 100.785 88.22ZM100.125 81.202H104.437V81.158C104.569 80.63 104.583 80.1753 104.481 79.794C104.393 79.398 104.209 79.09 103.931 78.87C103.652 78.65 103.285 78.54 102.831 78.54C102.376 78.54 101.965 78.65 101.599 78.87C101.232 79.09 100.924 79.398 100.675 79.794C100.44 80.1753 100.257 80.63 100.125 81.158V81.202ZM108.925 92.18C108.763 92.18 108.646 92.1287 108.573 92.026C108.499 91.9233 108.477 91.7913 108.507 91.63L111.609 77.11C111.638 76.9487 111.711 76.8167 111.829 76.714C111.946 76.6113 112.085 76.56 112.247 76.56H114.337C114.498 76.56 114.615 76.6113 114.689 76.714C114.777 76.8167 114.806 76.9487 114.777 77.11L114.601 77.946C115.041 77.4767 115.576 77.0953 116.207 76.802C116.837 76.494 117.571 76.34 118.407 76.34C119.169 76.34 119.807 76.4647 120.321 76.714C120.834 76.9487 121.237 77.2933 121.531 77.748C121.824 78.188 122.007 78.7233 122.081 79.354C122.154 79.9847 122.125 80.696 121.993 81.488C121.949 81.7667 121.897 82.0307 121.839 82.28C121.78 82.5293 121.721 82.8007 121.663 83.094C121.413 84.0913 121.025 84.9787 120.497 85.756C119.969 86.5187 119.316 87.12 118.539 87.56C117.761 88 116.874 88.22 115.877 88.22C115.129 88.22 114.505 88.088 114.007 87.824C113.508 87.5453 113.141 87.1713 112.907 86.702L111.851 91.63C111.821 91.7913 111.741 91.9233 111.609 92.026C111.477 92.1287 111.337 92.18 111.191 92.18H108.925ZM115.437 85.58C116.009 85.58 116.471 85.4627 116.823 85.228C117.189 84.9787 117.49 84.656 117.725 84.26C117.959 83.864 118.135 83.4313 118.253 82.962C118.326 82.742 118.385 82.5147 118.429 82.28C118.487 82.0453 118.531 81.818 118.561 81.598C118.619 81.1287 118.619 80.696 118.561 80.3C118.502 79.904 118.341 79.5887 118.077 79.354C117.813 79.1047 117.402 78.98 116.845 78.98C116.302 78.98 115.833 79.1047 115.437 79.354C115.055 79.6033 114.747 79.9187 114.513 80.3C114.278 80.6813 114.109 81.092 114.007 81.532C113.933 81.796 113.86 82.0673 113.787 82.346C113.728 82.6247 113.677 82.9033 113.633 83.182C113.574 83.5927 113.581 83.9813 113.655 84.348C113.743 84.7 113.933 84.9933 114.227 85.228C114.52 85.4627 114.923 85.58 115.437 85.58Z" fill="black"/>
<path d="M125.832 40.3199H120V35.9165H125.479V32.1746H120V23.4403L122.767 25.9356L125.534 23.4403L125.479 30.0146M131.786 29.8414V27.9905M131.786 27.9905V23H137.32V27.9905H131.786ZM131.786 27.9905L137.32 31.9535L131.786 35.7697M131.786 35.7697H137.32V40.3199H131.786V35.7697ZM131.786 35.7697V33.775V32.2133" stroke="black" stroke-miterlimit="16" stroke-linecap="square"/>
<path d="M126.66 33.4858L130.659 29.4868" stroke="black" stroke-miterlimit="16"/>
<path d="M126.7 29.5269L130.619 33.4459" stroke="black" stroke-miterlimit="16"/>
<rect x="70.75" y="107.75" width="20.5" height="25.5" rx="1.25" fill="white" stroke="black" stroke-width="1.5"/>
<path d="M74 112.996C74 113.548 74.4517 113.994 75.0042 113.987L78 113.948L81.0736 113.915C81.5869 113.909 82 113.492 82 112.978C82 112.466 81.5862 112.049 81.0736 112.046L78 112.026L74.9956 112.006C74.4468 112.003 74 112.447 74 112.996Z" fill="black"/>
<path d="M74.3815 116.025C74.1645 116.03 74.0314 116.149 74.0185 116.365C74.0074 116.552 74 116.8 74 117.065C74 117.581 74.4194 117.998 74.9348 117.994L81.4928 117.956L88.0508 117.917C88.5692 117.914 88.9888 117.495 88.9928 116.977C88.9968 116.466 88.5851 116.049 88.074 116.046L81.5574 116.007C78.1976 115.992 75.3219 116.002 74.3815 116.025Z" fill="black"/>
<path d="M74.3815 121.025C74.1645 121.03 74.0314 121.149 74.0185 121.365C74.0074 121.552 74 121.8 74 122.065C74 122.581 74.4194 122.998 74.9348 122.994L81.4928 122.956L88.0508 122.917C88.5692 122.914 88.9888 122.495 88.9928 121.977C88.9968 121.466 88.5851 121.049 88.074 121.046L81.5574 121.007C78.1976 120.992 75.3219 121.002 74.3815 121.025Z" fill="black"/>
<path d="M78.9871 127.002C78.2321 127.484 77.0803 129.04 77.1659 129.468C77.2904 130.121 78.0609 129.997 78.4034 129.273C78.5824 128.892 78.9637 128.371 79.2595 128.114C80.4658 127.056 81.8823 128.005 81.104 129.359C80.3568 130.666 82.645 130.012 84.0148 128.519C84.8864 127.57 85.2756 127.624 85.3534 128.713C85.4157 129.491 85.6803 129.553 86.5364 128.97C87.2446 128.488 87.3302 128.488 87.9062 128.97C88.9568 129.857 89.6184 129.234 88.6533 128.27C87.9451 127.562 87.4236 127.383 86.8088 127.64C86.4041 127.803 86.3263 127.78 85.8126 127.266C84.902 126.356 84.2093 126.543 83.1353 127.997C82.6372 128.666 82.2714 128.752 82.2714 128.215C82.2714 126.854 80.3413 126.146 78.9871 127.002Z" fill="black"/>
</svg>
