<svg width="162" height="247" viewBox="0 0 162 247" fill="none" xmlns="http://www.w3.org/2000/svg">
<rect width="161" height="247" fill="#71D2F5"/>
<rect x="10" y="10.3999" width="141" height="227" rx="10" fill="#A7E0F5"/>
<path d="M40.4726 31.373C40.3966 31.373 40.3333 31.3477 40.2826 31.297C40.2319 31.2463 40.2066 31.183 40.2066 31.107V25.0378C40.2066 24.9702 40.2319 24.9111 40.2826 24.8604C40.3333 24.8097 40.3924 24.7843 40.46 24.7843H41.7017C41.8537 24.7843 41.972 24.8604 42.0565 25.0124L43.9064 28.3194L45.7436 25.0124C45.8281 24.8604 45.9463 24.7843 46.0984 24.7843H47.3528C47.4203 24.7843 47.4795 24.8097 47.5302 24.8604C47.5808 24.9111 47.6062 24.9702 47.6062 25.0378V31.107C47.6062 31.183 47.5808 31.2463 47.5302 31.297C47.4795 31.3477 47.4161 31.373 47.3401 31.373H46.0097C45.9252 31.373 45.8576 31.3477 45.807 31.297C45.7647 31.2463 45.7436 31.183 45.7436 31.107V26.7356L46.3138 26.8497L44.5146 30.0806C44.4723 30.1567 44.4216 30.2242 44.3625 30.2834C44.3118 30.3425 44.2358 30.3721 44.1344 30.3721H43.6656C43.5727 30.3721 43.4967 30.3467 43.4376 30.296C43.3784 30.2369 43.3235 30.1651 43.2728 30.0806L41.5243 26.9637L42.0565 26.8497V31.107C42.0565 31.183 42.0311 31.2463 41.9804 31.297C41.9298 31.3477 41.8664 31.373 41.7904 31.373H40.4726Z" fill="black"/>
<path d="M25.324 39C25.1646 39 25.0342 38.9493 24.9328 38.8479C24.8313 38.7464 24.7806 38.616 24.7806 38.4567V37.1527C24.7806 37.0367 24.8096 36.8846 24.8676 36.6963C24.94 36.4934 25.0921 36.2978 25.324 36.1095L28.1928 33.2624C29.2505 32.451 30.1053 31.7628 30.7573 31.1977C31.4238 30.6326 31.9164 30.1183 32.2352 29.6546C32.5539 29.191 32.7133 28.7418 32.7133 28.3072C32.7133 27.7421 32.5539 27.2785 32.2352 26.9162C31.9309 26.5395 31.431 26.3512 30.7356 26.3512C30.2719 26.3512 29.8807 26.4526 29.562 26.6554C29.2577 26.8438 29.0186 27.0973 28.8448 27.4161C28.6709 27.7349 28.555 28.0826 28.497 28.4593C28.4536 28.6477 28.3594 28.7781 28.2145 28.8505C28.0841 28.9229 27.9464 28.9592 27.8016 28.9592H25.4978C25.3529 28.9592 25.237 28.9157 25.1501 28.8288C25.0632 28.7273 25.0197 28.6187 25.0197 28.5028C25.0342 27.8363 25.1718 27.206 25.4326 26.612C25.7079 26.0179 26.0919 25.4891 26.5845 25.0254C27.0771 24.5618 27.6712 24.1996 28.3666 23.9388C29.0621 23.6635 29.8517 23.5258 30.7356 23.5258C31.9526 23.5258 32.9741 23.7287 33.8 24.1344C34.6258 24.5256 35.2489 25.0689 35.6691 25.7644C36.0892 26.4598 36.2993 27.264 36.2993 28.1768C36.2993 28.8722 36.1544 29.517 35.8647 30.111C35.5894 30.7051 35.1837 31.2774 34.6476 31.828C34.1115 32.3641 33.474 32.9219 32.735 33.5014L30.1705 36.066H36.082C36.2414 36.066 36.3718 36.1167 36.4732 36.2181C36.5746 36.3195 36.6253 36.4499 36.6253 36.6093V38.4567C36.6253 38.616 36.5746 38.7464 36.4732 38.8479C36.3718 38.9493 36.2414 39 36.082 39H25.324Z" fill="black"/>
<path d="M65.1888 35.08C64.9008 35.08 64.6421 35.0267 64.4128 34.92C64.1888 34.808 64.0101 34.6587 63.8768 34.472C63.7434 34.2853 63.6768 34.0747 63.6768 33.84C63.6768 33.4613 63.8314 33.1627 64.1408 32.944C64.4501 32.72 64.8608 32.568 65.3728 32.488L66.3728 32.336V32.224C66.3728 32.032 66.3328 31.8853 66.2528 31.784C66.1728 31.6827 66.0261 31.632 65.8128 31.632C65.6634 31.632 65.5408 31.6613 65.4448 31.72C65.3541 31.7787 65.2821 31.8587 65.2288 31.96C65.1808 32.0293 65.1141 32.064 65.0288 32.064H64.1328C64.0741 32.064 64.0288 32.048 63.9967 32.016C63.9648 31.9787 63.9514 31.936 63.9568 31.888C63.9568 31.792 63.9914 31.6827 64.0608 31.56C64.1354 31.432 64.2474 31.3067 64.3968 31.184C64.5461 31.0613 64.7381 30.96 64.9728 30.88C65.2074 30.8 65.4901 30.76 65.8207 30.76C66.1674 30.76 66.4634 30.8 66.7088 30.88C66.9541 30.96 67.1514 31.072 67.3008 31.216C67.4554 31.36 67.5701 31.5307 67.6448 31.728C67.7194 31.92 67.7568 32.1333 67.7568 32.368V34.8C67.7568 34.8587 67.7354 34.9067 67.6927 34.944C67.6554 34.9813 67.6101 35 67.5568 35H66.6288C66.5701 35 66.5221 34.9813 66.4848 34.944C66.4474 34.9067 66.4288 34.8587 66.4288 34.8V34.52C66.3594 34.6213 66.2661 34.7147 66.1488 34.8C66.0314 34.8853 65.8928 34.952 65.7328 35C65.5781 35.0533 65.3968 35.08 65.1888 35.08ZM65.5648 34.168C65.7194 34.168 65.8581 34.136 65.9808 34.072C66.1088 34.0027 66.2074 33.8987 66.2768 33.76C66.3514 33.616 66.3888 33.4373 66.3888 33.224V33.112L65.7088 33.232C65.4581 33.2747 65.2741 33.3413 65.1568 33.432C65.0448 33.5173 64.9888 33.6187 64.9888 33.736C64.9888 33.8267 65.0154 33.904 65.0688 33.968C65.1221 34.032 65.1914 34.0827 65.2768 34.12C65.3621 34.152 65.4581 34.168 65.5648 34.168ZM70.4595 35C70.4008 35 70.3528 34.9813 70.3155 34.944C70.2782 34.9067 70.2595 34.8587 70.2595 34.8V31.04C70.2595 30.9813 70.2782 30.9333 70.3155 30.896C70.3528 30.8587 70.4008 30.84 70.4595 30.84H71.3795C71.4382 30.84 71.4862 30.8587 71.5235 30.896C71.5608 30.9333 71.5795 30.9813 71.5795 31.04V32.368H72.0115L72.8835 30.968C72.8995 30.9413 72.9262 30.9147 72.9635 30.888C73.0008 30.856 73.0488 30.84 73.1075 30.84H74.1315C74.1795 30.84 74.2195 30.856 74.2515 30.888C74.2888 30.9147 74.3075 30.952 74.3075 31C74.3075 31.016 74.3022 31.0347 74.2915 31.056C74.2862 31.0773 74.2782 31.096 74.2675 31.112L73.1715 32.856L74.4515 34.736C74.4728 34.768 74.4835 34.8027 74.4835 34.84C74.4835 34.888 74.4675 34.928 74.4355 34.96C74.4035 34.9867 74.3608 35 74.3075 35H73.1795C73.1208 35 73.0728 34.9893 73.0355 34.968C73.0035 34.9413 72.9742 34.9093 72.9475 34.872L71.9955 33.416H71.5795V34.8C71.5795 34.8587 71.5608 34.9067 71.5235 34.944C71.4862 34.9813 71.4382 35 71.3795 35H70.4595ZM80.1751 35.944C80.1164 35.944 80.0684 35.9227 80.0311 35.88C79.9937 35.8427 79.9751 35.7947 79.9751 35.736V35H76.9111C76.8524 35 76.8044 34.9813 76.7671 34.944C76.7297 34.9067 76.7111 34.8587 76.7111 34.8V31.04C76.7111 30.9813 76.7297 30.9333 76.7671 30.896C76.8044 30.8587 76.8524 30.84 76.9111 30.84H77.8551C77.9084 30.84 77.9537 30.8587 77.9911 30.896C78.0337 30.9333 78.0551 30.9813 78.0551 31.04V33.952H79.4311V31.04C79.4311 30.9813 79.4497 30.9333 79.4871 30.896C79.5297 30.8587 79.5777 30.84 79.6311 30.84H80.5751C80.6337 30.84 80.6817 30.8587 80.7191 30.896C80.7564 30.9333 80.7751 30.9813 80.7751 31.04V33.952H81.1191C81.1777 33.952 81.2257 33.9707 81.2631 34.008C81.3004 34.0453 81.3191 34.0933 81.3191 34.152V35.736C81.3191 35.7947 81.3004 35.8427 81.2631 35.88C81.2257 35.9227 81.1777 35.944 81.1191 35.944H80.1751ZM83.7531 35C83.6997 35 83.6544 34.9813 83.6171 34.944C83.5797 34.9067 83.5611 34.8613 83.5611 34.808V31.04C83.5611 30.9813 83.5797 30.9333 83.6171 30.896C83.6544 30.8587 83.7024 30.84 83.7611 30.84H84.7051C84.7584 30.84 84.8037 30.8587 84.8411 30.896C84.8837 30.9333 84.9051 30.9813 84.9051 31.04V33.96L84.5451 33.784L86.5211 30.968C86.5477 30.9307 86.5797 30.9013 86.6171 30.88C86.6544 30.8533 86.6971 30.84 86.7451 30.84H87.6011C87.6544 30.84 87.6997 30.8587 87.7371 30.896C87.7744 30.9333 87.7931 30.9787 87.7931 31.032V34.8C87.7931 34.8587 87.7744 34.9067 87.7371 34.944C87.6997 34.9813 87.6517 35 87.5931 35H86.6491C86.5904 35 86.5424 34.9813 86.5051 34.944C86.4677 34.9067 86.4491 34.8587 86.4491 34.8V31.968L86.8171 32.04L84.8251 34.872C84.8037 34.9093 84.7744 34.9413 84.7371 34.968C84.6997 34.9893 84.6544 35 84.6011 35H83.7531ZM89.5666 36.52C89.508 36.52 89.46 36.5013 89.4226 36.464C89.3853 36.4267 89.3666 36.3787 89.3666 36.32V35.672C89.3666 35.6133 89.3853 35.5653 89.4226 35.528C89.46 35.4907 89.508 35.472 89.5666 35.472H89.8626C89.996 35.472 90.0973 35.4453 90.1666 35.392C90.236 35.344 90.284 35.2747 90.3106 35.184C90.3373 35.0987 90.3506 35 90.3506 34.888V31.04C90.3506 30.9813 90.3693 30.9333 90.4066 30.896C90.4493 30.8587 90.4973 30.84 90.5506 30.84H91.5426C91.6013 30.84 91.6493 30.8587 91.6866 30.896C91.724 30.9333 91.7426 30.9813 91.7426 31.04V34.92C91.7426 35.2667 91.6733 35.5573 91.5346 35.792C91.4013 36.032 91.2066 36.2133 90.9506 36.336C90.6946 36.4587 90.3826 36.52 90.0146 36.52H89.5666ZM90.5426 30.24C90.4893 30.24 90.4413 30.2213 90.3986 30.184C90.3613 30.1467 90.3426 30.0987 90.3426 30.04V29.328C90.3426 29.2693 90.3613 29.2213 90.3986 29.184C90.4413 29.1413 90.4893 29.12 90.5426 29.12H91.5506C91.604 29.12 91.6493 29.1413 91.6866 29.184C91.7293 29.2213 91.7506 29.2693 91.7506 29.328V30.04C91.7506 30.0987 91.7293 30.1467 91.6866 30.184C91.6493 30.2213 91.604 30.24 91.5506 30.24H90.5426ZM95.5325 35.08C95.2445 35.08 94.9858 35.0267 94.7565 34.92C94.5325 34.808 94.3538 34.6587 94.2205 34.472C94.0872 34.2853 94.0205 34.0747 94.0205 33.84C94.0205 33.4613 94.1752 33.1627 94.4845 32.944C94.7938 32.72 95.2045 32.568 95.7165 32.488L96.7165 32.336V32.224C96.7165 32.032 96.6765 31.8853 96.5965 31.784C96.5165 31.6827 96.3698 31.632 96.1565 31.632C96.0072 31.632 95.8845 31.6613 95.7885 31.72C95.6978 31.7787 95.6258 31.8587 95.5725 31.96C95.5245 32.0293 95.4578 32.064 95.3725 32.064H94.4765C94.4178 32.064 94.3725 32.048 94.3405 32.016C94.3085 31.9787 94.2952 31.936 94.3005 31.888C94.3005 31.792 94.3352 31.6827 94.4045 31.56C94.4792 31.432 94.5912 31.3067 94.7405 31.184C94.8898 31.0613 95.0818 30.96 95.3165 30.88C95.5512 30.8 95.8338 30.76 96.1645 30.76C96.5112 30.76 96.8072 30.8 97.0525 30.88C97.2978 30.96 97.4952 31.072 97.6445 31.216C97.7992 31.36 97.9138 31.5307 97.9885 31.728C98.0632 31.92 98.1005 32.1333 98.1005 32.368V34.8C98.1005 34.8587 98.0792 34.9067 98.0365 34.944C97.9992 34.9813 97.9538 35 97.9005 35H96.9725C96.9138 35 96.8658 34.9813 96.8285 34.944C96.7912 34.9067 96.7725 34.8587 96.7725 34.8V34.52C96.7032 34.6213 96.6098 34.7147 96.4925 34.8C96.3752 34.8853 96.2365 34.952 96.0765 35C95.9218 35.0533 95.7405 35.08 95.5325 35.08ZM95.9085 34.168C96.0632 34.168 96.2018 34.136 96.3245 34.072C96.4525 34.0027 96.5512 33.8987 96.6205 33.76C96.6952 33.616 96.7325 33.4373 96.7325 33.224V33.112L96.0525 33.232C95.8018 33.2747 95.6178 33.3413 95.5005 33.432C95.3885 33.5173 95.3325 33.6187 95.3325 33.736C95.3325 33.8267 95.3592 33.904 95.4125 33.968C95.4658 34.032 95.5352 34.0827 95.6205 34.12C95.7058 34.152 95.8018 34.168 95.9085 34.168Z" fill="black"/>
<path d="M81.6257 128.812L69.4806 130.806C68.9712 130.847 68.4618 130.541 68.3397 130.052L65.3284 111.753C65.2877 111.243 65.5935 110.734 66.0826 110.612L78.2277 108.618C78.7371 108.577 79.2465 108.883 79.3686 109.372L82.38 127.671C82.5225 128.242 82.1352 128.772 81.6257 128.812Z" fill="white" stroke="#636363" stroke-width="1.4173" stroke-miterlimit="10"/>
<path d="M99.693 129.159L87.3926 128.734C86.8851 128.674 86.4456 128.275 86.4216 127.771L87.0545 109.237C87.1145 108.729 87.5141 108.289 88.0176 108.266L100.318 108.69C100.826 108.75 101.265 109.15 101.289 109.653L100.656 128.188C100.684 128.775 100.201 129.219 99.693 129.159Z" fill="white" stroke="#636363" stroke-width="1.4173" stroke-miterlimit="10"/>
<path d="M84.6708 104.923C84.5906 104.918 84.5103 104.913 84.4296 104.909C81.5902 104.778 78.4712 105.633 75.2434 107.893L74.7832 108.215L74.3976 107.807C73.547 106.906 73.0811 105.709 72.778 104.521C71.9372 107.139 71.2965 110.31 71.5118 112.727C72.8091 112.887 74.7961 112.808 76.8647 112.55C78.1705 112.387 79.5055 112.154 80.7579 111.886C79.806 111.606 78.9275 111.255 78.0721 110.815L76.9484 110.239L78.0706 109.659C81.5615 107.856 84.1196 107.151 86.9231 107.727C89.2864 108.213 91.8125 109.595 95.2568 111.759C93.6185 109.008 91.1102 106.766 88.1124 105.66C87.0256 105.259 85.8741 105.003 84.6708 104.923ZM94.4621 123.553C93.1964 123.479 91.5028 123.569 89.7534 123.788C88.4476 123.951 87.1125 124.184 85.8602 124.452C86.8121 124.732 87.6906 125.083 88.546 125.523L89.6697 126.099L88.5475 126.679C85.0566 128.482 82.4986 129.187 79.695 128.611C77.3317 128.125 74.8056 126.743 71.3613 124.579C72.9996 127.33 75.5079 129.572 78.5057 130.678C82.2153 132.047 86.6798 131.732 91.3747 128.445L91.8349 128.123L92.2205 128.531C93.0711 129.432 93.537 130.629 93.8402 131.817C94.681 129.198 95.3216 126.028 95.1063 123.611C94.9061 123.586 94.6932 123.566 94.4621 123.553Z" fill="black"/>
<path d="M41.2059 88C41.0593 88 40.9419 87.9487 40.8539 87.846C40.7659 87.7433 40.7366 87.6113 40.7659 87.45L43.2959 75.658H39.2919C39.1453 75.658 39.0279 75.6067 38.9399 75.504C38.8519 75.4013 38.8226 75.2767 38.8519 75.13L39.2699 73.15C39.2993 72.9887 39.3726 72.8567 39.4899 72.754C39.6219 72.6513 39.7686 72.6 39.9299 72.6H51.4579C51.6193 72.6 51.7366 72.6513 51.8099 72.754C51.8979 72.8567 51.9273 72.9887 51.8979 73.15L51.4579 75.13C51.4286 75.2767 51.3553 75.4013 51.2379 75.504C51.1206 75.6067 50.9813 75.658 50.8199 75.658H46.8379L44.3079 87.45C44.2786 87.6113 44.1979 87.7433 44.0659 87.846C43.9486 87.9487 43.8093 88 43.6479 88H41.2059ZM51.2656 92.18C51.1043 92.18 50.9869 92.1287 50.9136 92.026C50.8403 91.9233 50.8183 91.7913 50.8476 91.63L53.9496 77.11C53.9789 76.9487 54.0523 76.8167 54.1696 76.714C54.2869 76.6113 54.4263 76.56 54.5876 76.56H56.6776C56.8389 76.56 56.9563 76.6113 57.0296 76.714C57.1176 76.8167 57.1469 76.9487 57.1176 77.11L56.9416 77.946C57.3816 77.4767 57.9169 77.0953 58.5476 76.802C59.1783 76.494 59.9116 76.34 60.7476 76.34C61.5103 76.34 62.1483 76.4647 62.6616 76.714C63.1749 76.9487 63.5783 77.2933 63.8716 77.748C64.1649 78.188 64.3483 78.7233 64.4216 79.354C64.4949 79.9847 64.4656 80.696 64.3336 81.488C64.2896 81.7667 64.2383 82.0307 64.1796 82.28C64.1209 82.5293 64.0623 82.8007 64.0036 83.094C63.7543 84.0913 63.3656 84.9787 62.8376 85.756C62.3096 86.5187 61.6569 87.12 60.8796 87.56C60.1023 88 59.2149 88.22 58.2176 88.22C57.4696 88.22 56.8463 88.088 56.3476 87.824C55.8489 87.5453 55.4823 87.1713 55.2476 86.702L54.1916 91.63C54.1623 91.7913 54.0816 91.9233 53.9496 92.026C53.8176 92.1287 53.6783 92.18 53.5316 92.18H51.2656ZM57.7776 85.58C58.3496 85.58 58.8116 85.4627 59.1636 85.228C59.5303 84.9787 59.8309 84.656 60.0656 84.26C60.3003 83.864 60.4763 83.4313 60.5936 82.962C60.6669 82.742 60.7256 82.5147 60.7696 82.28C60.8283 82.0453 60.8723 81.818 60.9016 81.598C60.9603 81.1287 60.9603 80.696 60.9016 80.3C60.8429 79.904 60.6816 79.5887 60.4176 79.354C60.1536 79.1047 59.7429 78.98 59.1856 78.98C58.6429 78.98 58.1736 79.1047 57.7776 79.354C57.3963 79.6033 57.0883 79.9187 56.8536 80.3C56.6189 80.6813 56.4503 81.092 56.3476 81.532C56.2743 81.796 56.2009 82.0673 56.1276 82.346C56.0689 82.6247 56.0176 82.9033 55.9736 83.182C55.9149 83.5927 55.9223 83.9813 55.9956 84.348C56.0836 84.7 56.2743 84.9933 56.5676 85.228C56.8609 85.4627 57.2643 85.58 57.7776 85.58ZM69.4831 88.22C68.7498 88.22 68.1118 88.1027 67.5691 87.868C67.0411 87.6187 66.6231 87.2667 66.3151 86.812C66.0071 86.3427 65.8018 85.7927 65.6991 85.162C65.6111 84.5167 65.6331 83.8053 65.7651 83.028C65.8091 82.7493 65.8531 82.5 65.8971 82.28C65.9558 82.0453 66.0145 81.796 66.0731 81.532C66.2638 80.7693 66.5205 80.0727 66.8431 79.442C67.1658 78.8113 67.5618 78.2687 68.0311 77.814C68.5005 77.3447 69.0431 76.9853 69.6591 76.736C70.2898 76.472 70.9938 76.34 71.7711 76.34C72.6805 76.34 73.3698 76.4793 73.8391 76.758C74.3085 77.022 74.6751 77.352 74.9391 77.748L75.0711 77.11C75.1005 76.9487 75.1738 76.8167 75.2911 76.714C75.4231 76.6113 75.5625 76.56 75.7091 76.56H77.7991C77.9605 76.56 78.0778 76.6113 78.1511 76.714C78.2391 76.8167 78.2685 76.9487 78.2391 77.11L76.0391 87.45C76.0098 87.6113 75.9365 87.7433 75.8191 87.846C75.7018 87.9487 75.5625 88 75.4011 88H73.3111C73.1498 88 73.0251 87.9487 72.9371 87.846C72.8638 87.7433 72.8418 87.6113 72.8711 87.45L73.0251 86.702C72.5851 87.142 72.1011 87.5087 71.5731 87.802C71.0451 88.0807 70.3485 88.22 69.4831 88.22ZM70.7371 85.58C71.2945 85.58 71.7638 85.4553 72.1451 85.206C72.5411 84.9567 72.8565 84.6413 73.0911 84.26C73.3405 83.8787 73.5238 83.468 73.6411 83.028C73.7145 82.7493 73.7805 82.4707 73.8391 82.192C73.8978 81.9133 73.9491 81.642 73.9931 81.378C74.0665 80.9673 74.0665 80.586 73.9931 80.234C73.9198 79.8673 73.7438 79.5667 73.4651 79.332C73.2011 79.0973 72.8051 78.98 72.2771 78.98C71.7638 78.98 71.3238 79.1047 70.9571 79.354C70.5905 79.5887 70.2898 79.904 70.0551 80.3C69.8205 80.696 69.6371 81.1287 69.5051 81.598C69.4465 81.818 69.3878 82.0453 69.3291 82.28C69.2705 82.5147 69.2265 82.742 69.1971 82.962C69.1385 83.4313 69.1238 83.864 69.1531 84.26C69.1971 84.656 69.3438 84.9787 69.5931 85.228C69.8425 85.4627 70.2238 85.58 70.7371 85.58ZM79.7838 88C79.6518 88 79.5491 87.956 79.4758 87.868C79.4171 87.78 79.3951 87.67 79.4098 87.538L81.6538 77C81.6831 76.8827 81.7491 76.78 81.8518 76.692C81.9544 76.604 82.0644 76.56 82.1818 76.56H84.2278C84.4918 76.56 84.6678 76.692 84.7558 76.956L87.3738 84.238L85.9658 84.018L91.1798 76.956C91.3704 76.692 91.5978 76.56 91.8618 76.56H94.1498C94.2671 76.56 94.3625 76.604 94.4358 76.692C94.5091 76.78 94.5311 76.8827 94.5018 77L92.2578 87.538C92.2431 87.67 92.1771 87.78 92.0598 87.868C91.9571 87.956 91.8398 88 91.7078 88H89.3978C89.2511 88 89.1484 87.956 89.0898 87.868C89.0311 87.78 89.0091 87.67 89.0238 87.538L90.6518 79.948L91.5758 79.926L87.2858 85.756C87.1831 85.888 87.0731 86.0053 86.9558 86.108C86.8384 86.2107 86.6844 86.262 86.4938 86.262H85.8998C85.7238 86.262 85.5918 86.218 85.5038 86.13C85.4304 86.0273 85.3718 85.9027 85.3278 85.756L83.4358 80.102L84.2058 80.146L82.6218 87.538C82.6071 87.67 82.5411 87.78 82.4238 87.868C82.3211 87.956 82.2038 88 82.0718 88H79.7838ZM95.9734 88C95.8267 88 95.7094 87.9487 95.6214 87.846C95.548 87.7433 95.5187 87.6113 95.5334 87.45L97.7554 77.11C97.7847 76.9487 97.858 76.8167 97.9754 76.714C98.1074 76.6113 98.2467 76.56 98.3934 76.56H108.139C108.286 76.56 108.403 76.6113 108.491 76.714C108.579 76.8167 108.609 76.9487 108.579 77.11L106.357 87.45C106.328 87.6113 106.247 87.7433 106.115 87.846C105.998 87.9487 105.866 88 105.719 88H103.519C103.358 88 103.233 87.9487 103.145 87.846C103.072 87.7433 103.05 87.6113 103.079 87.45L104.839 79.156H100.593L98.8114 87.45C98.7967 87.6113 98.7234 87.7433 98.5914 87.846C98.474 87.9487 98.3347 88 98.1734 88H95.9734ZM113.707 88.22C112.974 88.22 112.336 88.1027 111.793 87.868C111.265 87.6187 110.847 87.2667 110.539 86.812C110.231 86.3427 110.026 85.7927 109.923 85.162C109.835 84.5167 109.857 83.8053 109.989 83.028C110.033 82.7493 110.077 82.5 110.121 82.28C110.18 82.0453 110.239 81.796 110.297 81.532C110.488 80.7693 110.745 80.0727 111.067 79.442C111.39 78.8113 111.786 78.2687 112.255 77.814C112.725 77.3447 113.267 76.9853 113.883 76.736C114.514 76.472 115.218 76.34 115.995 76.34C116.905 76.34 117.594 76.4793 118.063 76.758C118.533 77.022 118.899 77.352 119.163 77.748L119.295 77.11C119.325 76.9487 119.398 76.8167 119.515 76.714C119.647 76.6113 119.787 76.56 119.933 76.56H122.023C122.185 76.56 122.302 76.6113 122.375 76.714C122.463 76.8167 122.493 76.9487 122.463 77.11L120.263 87.45C120.234 87.6113 120.161 87.7433 120.043 87.846C119.926 87.9487 119.787 88 119.625 88H117.535C117.374 88 117.249 87.9487 117.161 87.846C117.088 87.7433 117.066 87.6113 117.095 87.45L117.249 86.702C116.809 87.142 116.325 87.5087 115.797 87.802C115.269 88.0807 114.573 88.22 113.707 88.22ZM114.961 85.58C115.519 85.58 115.988 85.4553 116.369 85.206C116.765 84.9567 117.081 84.6413 117.315 84.26C117.565 83.8787 117.748 83.468 117.865 83.028C117.939 82.7493 118.005 82.4707 118.063 82.192C118.122 81.9133 118.173 81.642 118.217 81.378C118.291 80.9673 118.291 80.586 118.217 80.234C118.144 79.8673 117.968 79.5667 117.689 79.332C117.425 79.0973 117.029 78.98 116.501 78.98C115.988 78.98 115.548 79.1047 115.181 79.354C114.815 79.5887 114.514 79.904 114.279 80.3C114.045 80.696 113.861 81.1287 113.729 81.598C113.671 81.818 113.612 82.0453 113.553 82.28C113.495 82.5147 113.451 82.742 113.421 82.962C113.363 83.4313 113.348 83.864 113.377 84.26C113.421 84.656 113.568 84.9787 113.817 85.228C114.067 85.4627 114.448 85.58 114.961 85.58Z" fill="black"/>
<path d="M145.2 237.1H16.5C12.9 237.1 10 234.2 10 230.6V168C10 164.4 12.9 161.5 16.5 161.5H145.2C148.8 161.5 151.7 164.4 151.7 168V230.6C151.7 234.1 148.8 237.1 145.2 237.1Z" fill="white"/>
<path d="M38.7075 188C38.6195 188 38.5475 187.972 38.4915 187.916C38.4355 187.86 38.4075 187.788 38.4075 187.7V179.9C38.4075 179.812 38.4355 179.74 38.4915 179.684C38.5475 179.628 38.6195 179.6 38.7075 179.6H40.0155C40.1035 179.6 40.1755 179.628 40.2315 179.684C40.2875 179.74 40.3155 179.812 40.3155 179.9V182.9H43.5675V179.9C43.5675 179.812 43.5955 179.74 43.6515 179.684C43.7075 179.628 43.7795 179.6 43.8675 179.6H45.1755C45.2635 179.6 45.3355 179.628 45.3915 179.684C45.4475 179.74 45.4755 179.812 45.4755 179.9V187.7C45.4755 187.788 45.4475 187.86 45.3915 187.916C45.3355 187.972 45.2635 188 45.1755 188H43.8675C43.7795 188 43.7075 187.972 43.6515 187.916C43.5955 187.86 43.5675 187.788 43.5675 187.7V184.604H40.3155V187.7C40.3155 187.788 40.2875 187.86 40.2315 187.916C40.1755 187.972 40.1035 188 40.0155 188H38.7075ZM48.9592 188.12C48.5352 188.12 48.1552 188.04 47.8192 187.88C47.4832 187.712 47.2152 187.488 47.0152 187.208C46.8152 186.928 46.7152 186.616 46.7152 186.272C46.7152 185.704 46.9432 185.256 47.3992 184.928C47.8632 184.6 48.4712 184.376 49.2232 184.256L50.7952 184.028V183.812C50.7952 183.5 50.7232 183.26 50.5792 183.092C50.4352 182.924 50.1832 182.84 49.8232 182.84C49.5592 182.84 49.3472 182.892 49.1872 182.996C49.0272 183.1 48.9032 183.236 48.8152 183.404C48.7512 183.508 48.6592 183.56 48.5392 183.56H47.3992C47.3112 183.56 47.2432 183.536 47.1952 183.488C47.1472 183.432 47.1272 183.368 47.1352 183.296C47.1352 183.16 47.1872 183 47.2912 182.816C47.3952 182.632 47.5552 182.452 47.7712 182.276C47.9872 182.092 48.2632 181.94 48.5992 181.82C48.9352 181.7 49.3472 181.64 49.8352 181.64C50.3392 181.64 50.7712 181.7 51.1312 181.82C51.4912 181.94 51.7792 182.108 51.9952 182.324C52.2112 182.54 52.3712 182.792 52.4752 183.08C52.5792 183.36 52.6312 183.664 52.6312 183.992V187.7C52.6312 187.788 52.6032 187.86 52.5472 187.916C52.4912 187.972 52.4192 188 52.3312 188H51.1552C51.0752 188 51.0072 187.972 50.9512 187.916C50.8952 187.86 50.8672 187.788 50.8672 187.7V187.256C50.7632 187.408 50.6232 187.552 50.4472 187.688C50.2712 187.816 50.0592 187.92 49.8112 188C49.5712 188.08 49.2872 188.12 48.9592 188.12ZM49.4392 186.872C49.7032 186.872 49.9392 186.816 50.1472 186.704C50.3552 186.592 50.5192 186.42 50.6392 186.188C50.7592 185.956 50.8192 185.664 50.8192 185.312V185.108L49.7032 185.288C49.2712 185.36 48.9552 185.468 48.7552 185.612C48.5552 185.756 48.4552 185.932 48.4552 186.14C48.4552 186.292 48.4992 186.424 48.5872 186.536C48.6832 186.648 48.8072 186.732 48.9592 186.788C49.1112 186.844 49.2712 186.872 49.4392 186.872ZM56.8561 188.12C56.2721 188.12 55.7561 188.012 55.3081 187.796C54.8681 187.58 54.5201 187.268 54.2641 186.86C54.0081 186.444 53.8681 185.948 53.8441 185.372C53.8361 185.244 53.8321 185.084 53.8321 184.892C53.8321 184.692 53.8361 184.528 53.8441 184.4C53.8681 183.816 54.0041 183.32 54.2521 182.912C54.5081 182.496 54.8601 182.18 55.3081 181.964C55.7561 181.748 56.2721 181.64 56.8561 181.64C57.3921 181.64 57.8481 181.716 58.2241 181.868C58.6001 182.012 58.9081 182.196 59.1481 182.42C59.3881 182.644 59.5641 182.88 59.6761 183.128C59.7961 183.368 59.8601 183.58 59.8681 183.764C59.8761 183.844 59.8481 183.916 59.7841 183.98C59.7281 184.036 59.6601 184.064 59.5801 184.064H58.2961C58.2161 184.064 58.1521 184.044 58.1041 184.004C58.0641 183.956 58.0241 183.892 57.9841 183.812C57.8721 183.532 57.7281 183.332 57.5521 183.212C57.3761 183.092 57.1561 183.032 56.8921 183.032C56.5321 183.032 56.2481 183.148 56.0401 183.38C55.8321 183.612 55.7201 183.972 55.7041 184.46C55.6961 184.772 55.6961 185.056 55.7041 185.312C55.7281 185.808 55.8401 186.168 56.0401 186.392C56.2481 186.616 56.5321 186.728 56.8921 186.728C57.1721 186.728 57.3961 186.668 57.5641 186.548C57.7321 186.428 57.8721 186.228 57.9841 185.948C58.0161 185.868 58.0561 185.808 58.1041 185.768C58.1521 185.72 58.2161 185.696 58.2961 185.696H59.5801C59.6601 185.696 59.7281 185.728 59.7841 185.792C59.8481 185.848 59.8761 185.916 59.8681 185.996C59.8601 186.132 59.8201 186.292 59.7481 186.476C59.6841 186.66 59.5761 186.848 59.4241 187.04C59.2801 187.232 59.0921 187.412 58.8601 187.58C58.6281 187.74 58.3441 187.872 58.0081 187.976C57.6801 188.072 57.2961 188.12 56.8561 188.12ZM61.3211 188C61.2491 188 61.1851 187.972 61.1291 187.916C61.0731 187.86 61.0451 187.792 61.0451 187.712V182.06C61.0451 181.972 61.0731 181.9 61.1291 181.844C61.1851 181.788 61.2531 181.76 61.3331 181.76H62.5331C62.6211 181.76 62.6931 181.788 62.7491 181.844C62.8051 181.9 62.8331 181.972 62.8331 182.06V186.62L62.3531 186.344L65.4851 181.952C65.5251 181.896 65.5691 181.852 65.6171 181.82C65.6731 181.78 65.7411 181.76 65.8211 181.76H66.9011C66.9811 181.76 67.0491 181.788 67.1051 181.844C67.1611 181.9 67.1891 181.964 67.1891 182.036V187.7C67.1891 187.788 67.1611 187.86 67.1051 187.916C67.0491 187.972 66.9771 188 66.8891 188H65.6891C65.6091 188 65.5411 187.972 65.4851 187.916C65.4291 187.86 65.4011 187.788 65.4011 187.7V183.32L65.8931 183.404L62.7371 187.808C62.7051 187.864 62.6611 187.912 62.6051 187.952C62.5491 187.984 62.4851 188 62.4131 188H61.3211ZM68.4477 188C68.3677 188 68.2957 187.972 68.2317 187.916C68.1757 187.852 68.1477 187.78 68.1477 187.7V186.8C68.1477 186.624 68.2437 186.528 68.4357 186.512C68.6677 186.488 68.8477 186.38 68.9757 186.188C69.1117 185.988 69.2077 185.684 69.2637 185.276C69.3197 184.868 69.3477 184.344 69.3477 183.704V182.06C69.3477 181.972 69.3757 181.9 69.4317 181.844C69.4877 181.788 69.5597 181.76 69.6477 181.76H74.1237C74.2117 181.76 74.2837 181.788 74.3397 181.844C74.3957 181.9 74.4237 181.972 74.4237 182.06V187.7C74.4237 187.788 74.3957 187.86 74.3397 187.916C74.2837 187.972 74.2117 188 74.1237 188H72.9237C72.8437 188 72.7717 187.972 72.7077 187.916C72.6517 187.86 72.6237 187.788 72.6237 187.7V183.176H71.0637V183.908C71.0637 184.668 71.0197 185.312 70.9317 185.84C70.8517 186.368 70.7117 186.792 70.5117 187.112C70.3117 187.424 70.0437 187.652 69.7077 187.796C69.3717 187.932 68.9517 188 68.4477 188ZM77.8108 188.12C77.3868 188.12 77.0068 188.04 76.6708 187.88C76.3348 187.712 76.0668 187.488 75.8668 187.208C75.6668 186.928 75.5668 186.616 75.5668 186.272C75.5668 185.704 75.7948 185.256 76.2508 184.928C76.7148 184.6 77.3228 184.376 78.0748 184.256L79.6468 184.028V183.812C79.6468 183.5 79.5748 183.26 79.4308 183.092C79.2868 182.924 79.0348 182.84 78.6748 182.84C78.4108 182.84 78.1988 182.892 78.0388 182.996C77.8788 183.1 77.7548 183.236 77.6668 183.404C77.6028 183.508 77.5108 183.56 77.3908 183.56H76.2508C76.1628 183.56 76.0948 183.536 76.0468 183.488C75.9988 183.432 75.9788 183.368 75.9868 183.296C75.9868 183.16 76.0388 183 76.1428 182.816C76.2468 182.632 76.4068 182.452 76.6228 182.276C76.8388 182.092 77.1148 181.94 77.4508 181.82C77.7868 181.7 78.1988 181.64 78.6868 181.64C79.1908 181.64 79.6228 181.7 79.9828 181.82C80.3428 181.94 80.6308 182.108 80.8468 182.324C81.0628 182.54 81.2228 182.792 81.3268 183.08C81.4308 183.36 81.4828 183.664 81.4828 183.992V187.7C81.4828 187.788 81.4548 187.86 81.3988 187.916C81.3428 187.972 81.2708 188 81.1828 188H80.0068C79.9268 188 79.8588 187.972 79.8028 187.916C79.7468 187.86 79.7188 187.788 79.7188 187.7V187.256C79.6148 187.408 79.4748 187.552 79.2988 187.688C79.1228 187.816 78.9108 187.92 78.6628 188C78.4227 188.08 78.1388 188.12 77.8108 188.12ZM78.2908 186.872C78.5548 186.872 78.7908 186.816 78.9988 186.704C79.2068 186.592 79.3708 186.42 79.4908 186.188C79.6108 185.956 79.6708 185.664 79.6708 185.312V185.108L78.5548 185.288C78.1228 185.36 77.8068 185.468 77.6068 185.612C77.4068 185.756 77.3068 185.932 77.3068 186.14C77.3068 186.292 77.3508 186.424 77.4388 186.536C77.5348 186.648 77.6588 186.732 77.8108 186.788C77.9628 186.844 78.1228 186.872 78.2908 186.872ZM88.3561 188.12C87.7721 188.12 87.2561 188.012 86.8081 187.796C86.3681 187.58 86.0201 187.268 85.7641 186.86C85.5081 186.444 85.3681 185.948 85.3441 185.372C85.3361 185.244 85.3321 185.084 85.3321 184.892C85.3321 184.692 85.3361 184.528 85.3441 184.4C85.3681 183.816 85.5041 183.32 85.7521 182.912C86.0081 182.496 86.3601 182.18 86.8081 181.964C87.2561 181.748 87.7721 181.64 88.3561 181.64C88.8921 181.64 89.3481 181.716 89.7241 181.868C90.1001 182.012 90.4081 182.196 90.6481 182.42C90.8881 182.644 91.0641 182.88 91.1761 183.128C91.2961 183.368 91.3601 183.58 91.3681 183.764C91.3761 183.844 91.3481 183.916 91.2841 183.98C91.2281 184.036 91.1601 184.064 91.0801 184.064H89.7961C89.7161 184.064 89.6521 184.044 89.6041 184.004C89.5641 183.956 89.5241 183.892 89.4841 183.812C89.3721 183.532 89.2281 183.332 89.0521 183.212C88.8761 183.092 88.6561 183.032 88.3921 183.032C88.0321 183.032 87.7481 183.148 87.5401 183.38C87.3321 183.612 87.2201 183.972 87.2041 184.46C87.1961 184.772 87.1961 185.056 87.2041 185.312C87.2281 185.808 87.3401 186.168 87.5401 186.392C87.7481 186.616 88.0321 186.728 88.3921 186.728C88.6721 186.728 88.8961 186.668 89.0641 186.548C89.2321 186.428 89.3721 186.228 89.4841 185.948C89.5161 185.868 89.5561 185.808 89.6041 185.768C89.6521 185.72 89.7161 185.696 89.7961 185.696H91.0801C91.1601 185.696 91.2281 185.728 91.2841 185.792C91.3481 185.848 91.3761 185.916 91.3681 185.996C91.3601 186.132 91.3201 186.292 91.2481 186.476C91.1841 186.66 91.0761 186.848 90.9241 187.04C90.7801 187.232 90.5921 187.412 90.3601 187.58C90.1281 187.74 89.8441 187.872 89.5081 187.976C89.1801 188.072 88.7961 188.12 88.3561 188.12ZM92.7971 188C92.7251 188 92.6651 187.976 92.6171 187.928C92.5691 187.88 92.5451 187.82 92.5451 187.748V182C92.5451 181.936 92.5691 181.88 92.6171 181.832C92.6651 181.784 92.7211 181.76 92.7851 181.76H93.9611C94.1051 181.76 94.2171 181.832 94.2971 181.976L96.0491 185.108L97.7891 181.976C97.8691 181.832 97.9811 181.76 98.1251 181.76H99.3131C99.3771 181.76 99.4331 181.784 99.4811 181.832C99.5291 181.88 99.5531 181.936 99.5531 182V187.748C99.5531 187.82 99.5291 187.88 99.4811 187.928C99.4331 187.976 99.3731 188 99.3011 188H98.0411C97.9611 188 97.8971 187.976 97.8491 187.928C97.8091 187.88 97.7891 187.82 97.7891 187.748V183.608L98.3291 183.716L96.6251 186.776C96.5851 186.848 96.5371 186.912 96.4811 186.968C96.4331 187.024 96.3611 187.052 96.2651 187.052H95.8211C95.7331 187.052 95.6611 187.028 95.6051 186.98C95.5491 186.924 95.4971 186.856 95.4491 186.776L93.7931 183.824L94.2971 183.716V187.748C94.2971 187.82 94.2731 187.88 94.2251 187.928C94.1771 187.976 94.1171 188 94.0451 188H92.7971ZM103.884 188.12C102.964 188.12 102.232 187.864 101.688 187.352C101.152 186.84 100.868 186.096 100.836 185.12C100.836 185.056 100.836 184.972 100.836 184.868C100.836 184.756 100.836 184.668 100.836 184.604C100.868 183.988 101.008 183.46 101.256 183.02C101.504 182.572 101.852 182.232 102.3 182C102.748 181.76 103.272 181.64 103.872 181.64C104.544 181.64 105.104 181.78 105.552 182.06C106.008 182.332 106.348 182.708 106.572 183.188C106.804 183.66 106.92 184.204 106.92 184.82V185.096C106.92 185.176 106.888 185.244 106.824 185.3C106.768 185.356 106.7 185.384 106.62 185.384H102.696C102.696 185.392 102.696 185.408 102.696 185.432C102.696 185.448 102.696 185.464 102.696 185.48C102.704 185.736 102.752 185.972 102.84 186.188C102.936 186.396 103.068 186.564 103.236 186.692C103.412 186.82 103.62 186.884 103.86 186.884C104.06 186.884 104.224 186.856 104.352 186.8C104.48 186.744 104.584 186.676 104.664 186.596C104.752 186.516 104.816 186.448 104.856 186.392C104.928 186.312 104.984 186.264 105.024 186.248C105.072 186.224 105.144 186.212 105.24 186.212H106.488C106.568 186.212 106.632 186.236 106.68 186.284C106.736 186.324 106.76 186.384 106.752 186.464C106.744 186.592 106.676 186.752 106.548 186.944C106.428 187.128 106.248 187.312 106.008 187.496C105.768 187.672 105.468 187.82 105.108 187.94C104.756 188.06 104.348 188.12 103.884 188.12ZM102.696 184.292H105.048V184.268C105.048 183.98 105 183.732 104.904 183.524C104.816 183.308 104.684 183.14 104.508 183.02C104.332 182.9 104.12 182.84 103.872 182.84C103.624 182.84 103.412 182.9 103.236 183.02C103.06 183.14 102.924 183.308 102.828 183.524C102.74 183.732 102.696 183.98 102.696 184.268V184.292ZM108.407 188C108.327 188 108.259 187.972 108.203 187.916C108.147 187.86 108.119 187.788 108.119 187.7V182.06C108.119 181.972 108.147 181.9 108.203 181.844C108.259 181.788 108.327 181.76 108.407 181.76H109.607C109.695 181.76 109.767 181.788 109.823 181.844C109.879 181.9 109.907 181.972 109.907 182.06V184.124H112.343V182.06C112.343 181.972 112.371 181.9 112.427 181.844C112.483 181.788 112.555 181.76 112.643 181.76H113.843C113.923 181.76 113.991 181.788 114.047 181.844C114.103 181.9 114.131 181.972 114.131 182.06V187.7C114.131 187.788 114.103 187.86 114.047 187.916C113.991 187.972 113.923 188 113.843 188H112.643C112.555 188 112.483 187.972 112.427 187.916C112.371 187.86 112.343 187.788 112.343 187.7V185.54H109.907V187.7C109.907 187.788 109.879 187.86 109.823 187.916C109.767 187.972 109.695 188 109.607 188H108.407ZM115.954 188C115.882 188 115.818 187.972 115.762 187.916C115.706 187.86 115.678 187.792 115.678 187.712V182.06C115.678 181.972 115.706 181.9 115.762 181.844C115.818 181.788 115.886 181.76 115.966 181.76H117.166C117.254 181.76 117.326 181.788 117.382 181.844C117.438 181.9 117.466 181.972 117.466 182.06V186.62L116.986 186.344L120.118 181.952C120.158 181.896 120.202 181.852 120.25 181.82C120.306 181.78 120.374 181.76 120.454 181.76H121.534C121.614 181.76 121.682 181.788 121.738 181.844C121.794 181.9 121.822 181.964 121.822 182.036V187.7C121.822 187.788 121.794 187.86 121.738 187.916C121.682 187.972 121.61 188 121.522 188H120.322C120.242 188 120.174 187.972 120.118 187.916C120.062 187.86 120.034 187.788 120.034 187.7V183.32L120.526 183.404L117.37 187.808C117.338 187.864 117.294 187.912 117.238 187.952C117.182 187.984 117.118 188 117.046 188H115.954ZM19.8455 203.12C19.1495 203.12 18.5775 203.004 18.1295 202.772C17.6895 202.54 17.3575 202.192 17.1335 201.728C16.9175 201.256 16.7935 200.672 16.7615 199.976C16.7535 199.744 16.7495 199.504 16.7495 199.256C16.7495 199.008 16.7535 198.768 16.7615 198.536C16.7775 197.848 16.8455 197.272 16.9655 196.808C17.0935 196.336 17.2815 195.948 17.5295 195.644C17.7855 195.332 18.1095 195.076 18.5015 194.876C18.9015 194.668 19.3775 194.488 19.9295 194.336C20.4815 194.184 21.1215 194.024 21.8495 193.856C21.9295 193.84 22.0055 193.852 22.0775 193.892C22.1495 193.932 22.1895 193.996 22.1975 194.084L22.3775 195.02C22.3935 195.108 22.3775 195.184 22.3295 195.248C22.2895 195.312 22.2335 195.352 22.1615 195.368C21.5455 195.496 21.0215 195.612 20.5895 195.716C20.1575 195.82 19.7975 195.94 19.5095 196.076C19.2295 196.204 19.0135 196.376 18.8615 196.592C18.7095 196.8 18.6015 197.076 18.5375 197.42C18.4815 197.756 18.4615 198.184 18.4775 198.704L18.2015 198.428C18.2575 198.196 18.3815 197.988 18.5735 197.804C18.7655 197.62 19.0015 197.472 19.2815 197.36C19.5615 197.24 19.8575 197.18 20.1695 197.18C20.7535 197.18 21.2455 197.284 21.6455 197.492C22.0455 197.7 22.3495 197.996 22.5575 198.38C22.7735 198.756 22.8975 199.208 22.9295 199.736C22.9455 200.032 22.9455 200.308 22.9295 200.564C22.8975 201.076 22.7615 201.528 22.5215 201.92C22.2895 202.304 21.9495 202.6 21.5015 202.808C21.0535 203.016 20.5015 203.12 19.8455 203.12ZM19.8455 201.908C20.2375 201.908 20.5335 201.792 20.7335 201.56C20.9335 201.32 21.0415 200.968 21.0575 200.504C21.0655 200.416 21.0695 200.304 21.0695 200.168C21.0695 200.024 21.0655 199.896 21.0575 199.784C21.0415 199.336 20.9335 198.992 20.7335 198.752C20.5415 198.512 20.2735 198.392 19.9295 198.392C19.5295 198.392 19.2175 198.512 18.9935 198.752C18.7695 198.992 18.6455 199.336 18.6215 199.784C18.6135 199.896 18.6095 200.024 18.6095 200.168C18.6095 200.304 18.6135 200.416 18.6215 200.504C18.6455 200.968 18.7575 201.32 18.9575 201.56C19.1575 201.792 19.4535 201.908 19.8455 201.908ZM24.4832 203C24.4112 203 24.3472 202.972 24.2912 202.916C24.2352 202.86 24.2072 202.792 24.2072 202.712V197.06C24.2072 196.972 24.2352 196.9 24.2912 196.844C24.3472 196.788 24.4152 196.76 24.4952 196.76H25.6952C25.7832 196.76 25.8552 196.788 25.9112 196.844C25.9672 196.9 25.9952 196.972 25.9952 197.06V201.62L25.5152 201.344L28.6472 196.952C28.6872 196.896 28.7312 196.852 28.7792 196.82C28.8352 196.78 28.9032 196.76 28.9832 196.76H30.0632C30.1432 196.76 30.2112 196.788 30.2672 196.844C30.3232 196.9 30.3512 196.964 30.3512 197.036V202.7C30.3512 202.788 30.3232 202.86 30.2672 202.916C30.2112 202.972 30.1392 203 30.0512 203H28.8512C28.7712 203 28.7032 202.972 28.6472 202.916C28.5912 202.86 28.5632 202.788 28.5632 202.7V198.32L29.0552 198.404L25.8992 202.808C25.8672 202.864 25.8232 202.912 25.7672 202.952C25.7112 202.984 25.6472 203 25.5752 203H24.4832ZM34.2618 203.12C33.7258 203.12 33.2818 203.06 32.9298 202.94C32.5778 202.82 32.2938 202.668 32.0778 202.484C31.8698 202.292 31.7178 202.092 31.6218 201.884C31.5338 201.676 31.4818 201.488 31.4658 201.32C31.4578 201.256 31.4778 201.204 31.5258 201.164C31.5738 201.116 31.6258 201.092 31.6818 201.092H32.8578C32.9458 201.092 33.0098 201.112 33.0498 201.152C33.0978 201.184 33.1378 201.232 33.1698 201.296C33.2498 201.496 33.3818 201.64 33.5658 201.728C33.7578 201.808 34.0058 201.848 34.3098 201.848C34.5098 201.848 34.6898 201.82 34.8498 201.764C35.0098 201.708 35.1298 201.628 35.2098 201.524C35.2978 201.412 35.3418 201.272 35.3418 201.104C35.3418 200.872 35.2738 200.696 35.1378 200.576C35.0018 200.448 34.7738 200.384 34.4538 200.384H33.7938C33.7138 200.384 33.6498 200.36 33.6018 200.312C33.5538 200.256 33.5298 200.192 33.5298 200.12V199.532C33.5298 199.46 33.5538 199.4 33.6018 199.352C33.6498 199.296 33.7138 199.268 33.7938 199.268H34.4178C34.6818 199.268 34.8778 199.22 35.0058 199.124C35.1338 199.02 35.1978 198.864 35.1978 198.656C35.1978 198.528 35.1658 198.408 35.1018 198.296C35.0458 198.184 34.9498 198.096 34.8138 198.032C34.6778 197.96 34.4898 197.924 34.2498 197.924C33.9138 197.924 33.6738 197.976 33.5298 198.08C33.3858 198.184 33.2778 198.34 33.2058 198.548C33.1738 198.612 33.1338 198.66 33.0858 198.692C33.0458 198.724 32.9818 198.74 32.8938 198.74H31.7538C31.6898 198.74 31.6338 198.72 31.5858 198.68C31.5458 198.64 31.5258 198.588 31.5258 198.524C31.5418 198.308 31.6018 198.092 31.7058 197.876C31.8098 197.652 31.9658 197.448 32.1738 197.264C32.3898 197.072 32.6658 196.92 33.0018 196.808C33.3458 196.696 33.7658 196.64 34.2618 196.64C34.9178 196.64 35.4418 196.724 35.8338 196.892C36.2258 197.06 36.5058 197.28 36.6738 197.552C36.8498 197.816 36.9378 198.104 36.9378 198.416C36.9378 198.696 36.8818 198.948 36.7698 199.172C36.6578 199.388 36.4578 199.568 36.1698 199.712C36.5298 199.848 36.7778 200.056 36.9138 200.336C37.0498 200.616 37.1178 200.916 37.1178 201.236C37.1258 201.628 37.0098 201.964 36.7698 202.244C36.5378 202.524 36.2058 202.74 35.7738 202.892C35.3498 203.044 34.8458 203.12 34.2618 203.12ZM38.6045 203C38.5245 203 38.4565 202.972 38.4005 202.916C38.3445 202.86 38.3165 202.788 38.3165 202.7V197.06C38.3165 196.972 38.3445 196.9 38.4005 196.844C38.4565 196.788 38.5245 196.76 38.6045 196.76H39.8045C39.8925 196.76 39.9645 196.788 40.0205 196.844C40.0765 196.9 40.1045 196.972 40.1045 197.06V199.124H42.5405V197.06C42.5405 196.972 42.5685 196.9 42.6245 196.844C42.6805 196.788 42.7525 196.76 42.8405 196.76H44.0405C44.1205 196.76 44.1885 196.788 44.2445 196.844C44.3005 196.9 44.3285 196.972 44.3285 197.06V202.7C44.3285 202.788 44.3005 202.86 44.2445 202.916C44.1885 202.972 44.1205 203 44.0405 203H42.8405C42.7525 203 42.6805 202.972 42.6245 202.916C42.5685 202.86 42.5405 202.788 42.5405 202.7V200.54H40.1045V202.7C40.1045 202.788 40.0765 202.86 40.0205 202.916C39.9645 202.972 39.8925 203 39.8045 203H38.6045ZM46.1511 203C46.0791 203 46.0151 202.972 45.9591 202.916C45.9031 202.86 45.8751 202.792 45.8751 202.712V197.06C45.8751 196.972 45.9031 196.9 45.9591 196.844C46.0151 196.788 46.0831 196.76 46.1631 196.76H47.3631C47.4511 196.76 47.5231 196.788 47.5791 196.844C47.6351 196.9 47.6631 196.972 47.6631 197.06V201.62L47.1831 201.344L50.3151 196.952C50.3551 196.896 50.3991 196.852 50.4471 196.82C50.5031 196.78 50.5711 196.76 50.6511 196.76H51.7311C51.8111 196.76 51.8791 196.788 51.9351 196.844C51.9911 196.9 52.0191 196.964 52.0191 197.036V202.7C52.0191 202.788 51.9911 202.86 51.9351 202.916C51.8791 202.972 51.8071 203 51.7191 203H50.5191C50.4391 203 50.3711 202.972 50.3151 202.916C50.2591 202.86 50.2311 202.788 50.2311 202.7V198.32L50.7231 198.404L47.5671 202.808C47.5351 202.864 47.4911 202.912 47.4351 202.952C47.3791 202.984 47.3151 203 47.2431 203H46.1511ZM56.2057 203.12C55.6217 203.12 55.1057 203.012 54.6577 202.796C54.2177 202.58 53.8697 202.268 53.6137 201.86C53.3577 201.444 53.2177 200.948 53.1937 200.372C53.1857 200.244 53.1817 200.084 53.1817 199.892C53.1817 199.692 53.1857 199.528 53.1937 199.4C53.2177 198.816 53.3537 198.32 53.6017 197.912C53.8577 197.496 54.2097 197.18 54.6577 196.964C55.1057 196.748 55.6217 196.64 56.2057 196.64C56.7417 196.64 57.1977 196.716 57.5737 196.868C57.9497 197.012 58.2577 197.196 58.4977 197.42C58.7377 197.644 58.9137 197.88 59.0257 198.128C59.1457 198.368 59.2097 198.58 59.2177 198.764C59.2257 198.844 59.1977 198.916 59.1337 198.98C59.0777 199.036 59.0097 199.064 58.9297 199.064H57.6457C57.5657 199.064 57.5017 199.044 57.4537 199.004C57.4137 198.956 57.3737 198.892 57.3337 198.812C57.2217 198.532 57.0777 198.332 56.9017 198.212C56.7257 198.092 56.5057 198.032 56.2417 198.032C55.8817 198.032 55.5977 198.148 55.3897 198.38C55.1817 198.612 55.0697 198.972 55.0537 199.46C55.0457 199.772 55.0457 200.056 55.0537 200.312C55.0777 200.808 55.1897 201.168 55.3897 201.392C55.5977 201.616 55.8817 201.728 56.2417 201.728C56.5217 201.728 56.7457 201.668 56.9137 201.548C57.0817 201.428 57.2217 201.228 57.3337 200.948C57.3657 200.868 57.4057 200.808 57.4537 200.768C57.5017 200.72 57.5657 200.696 57.6457 200.696H58.9297C59.0097 200.696 59.0777 200.728 59.1337 200.792C59.1977 200.848 59.2257 200.916 59.2177 200.996C59.2097 201.132 59.1697 201.292 59.0977 201.476C59.0337 201.66 58.9257 201.848 58.7737 202.04C58.6297 202.232 58.4417 202.412 58.2097 202.58C57.9777 202.74 57.6937 202.872 57.3577 202.976C57.0297 203.072 56.6457 203.12 56.2057 203.12ZM65.8151 203.12C65.2311 203.12 64.7151 203.012 64.2671 202.796C63.8271 202.58 63.4791 202.268 63.2231 201.86C62.9671 201.444 62.8271 200.948 62.8031 200.372C62.7951 200.244 62.7911 200.084 62.7911 199.892C62.7911 199.692 62.7951 199.528 62.8031 199.4C62.8271 198.816 62.9631 198.32 63.2111 197.912C63.4671 197.496 63.8191 197.18 64.2671 196.964C64.7151 196.748 65.2311 196.64 65.8151 196.64C66.3511 196.64 66.8071 196.716 67.1831 196.868C67.5591 197.012 67.8671 197.196 68.1071 197.42C68.3471 197.644 68.5231 197.88 68.6351 198.128C68.7551 198.368 68.8191 198.58 68.8271 198.764C68.8351 198.844 68.8071 198.916 68.7431 198.98C68.6871 199.036 68.6191 199.064 68.5391 199.064H67.2551C67.1751 199.064 67.1111 199.044 67.0631 199.004C67.0231 198.956 66.9831 198.892 66.9431 198.812C66.8311 198.532 66.6871 198.332 66.5111 198.212C66.3351 198.092 66.1151 198.032 65.8511 198.032C65.4911 198.032 65.2071 198.148 64.9991 198.38C64.7911 198.612 64.6791 198.972 64.6631 199.46C64.6551 199.772 64.6551 200.056 64.6631 200.312C64.6871 200.808 64.7991 201.168 64.9991 201.392C65.2071 201.616 65.4911 201.728 65.8511 201.728C66.1311 201.728 66.3551 201.668 66.5231 201.548C66.6911 201.428 66.8311 201.228 66.9431 200.948C66.9751 200.868 67.0151 200.808 67.0631 200.768C67.1111 200.72 67.1751 200.696 67.2551 200.696H68.5391C68.6191 200.696 68.6871 200.728 68.7431 200.792C68.8071 200.848 68.8351 200.916 68.8271 200.996C68.8191 201.132 68.7791 201.292 68.7071 201.476C68.6431 201.66 68.5351 201.848 68.3831 202.04C68.2391 202.232 68.0511 202.412 67.8191 202.58C67.5871 202.74 67.3031 202.872 66.9671 202.976C66.6391 203.072 66.2551 203.12 65.8151 203.12ZM72.86 203.12C72.196 203.12 71.64 203.012 71.192 202.796C70.744 202.572 70.4 202.256 70.16 201.848C69.928 201.44 69.8 200.964 69.776 200.42C69.768 200.26 69.764 200.08 69.764 199.88C69.764 199.672 69.768 199.492 69.776 199.34C69.8 198.788 69.936 198.312 70.184 197.912C70.432 197.504 70.78 197.192 71.228 196.976C71.676 196.752 72.22 196.64 72.86 196.64C73.492 196.64 74.032 196.752 74.48 196.976C74.928 197.192 75.276 197.504 75.524 197.912C75.772 198.312 75.908 198.788 75.932 199.34C75.948 199.492 75.956 199.672 75.956 199.88C75.956 200.08 75.948 200.26 75.932 200.42C75.908 200.964 75.776 201.44 75.536 201.848C75.304 202.256 74.964 202.572 74.516 202.796C74.068 203.012 73.516 203.12 72.86 203.12ZM72.86 201.8C73.252 201.8 73.548 201.68 73.748 201.44C73.948 201.192 74.056 200.832 74.072 200.36C74.08 200.24 74.084 200.08 74.084 199.88C74.084 199.68 74.08 199.52 74.072 199.4C74.056 198.936 73.948 198.58 73.748 198.332C73.548 198.084 73.252 197.96 72.86 197.96C72.468 197.96 72.168 198.084 71.96 198.332C71.76 198.58 71.652 198.936 71.636 199.4C71.628 199.52 71.624 199.68 71.624 199.88C71.624 200.08 71.628 200.24 71.636 200.36C71.652 200.832 71.76 201.192 71.96 201.44C72.168 201.68 72.468 201.8 72.86 201.8ZM79.6675 204.32C79.5875 204.32 79.5195 204.292 79.4635 204.236C79.4075 204.18 79.3795 204.108 79.3795 204.02V201.884C79.3795 201.796 79.4075 201.724 79.4635 201.668C79.5195 201.612 79.5875 201.584 79.6675 201.584H79.7755C79.9835 201.584 80.1475 201.476 80.2675 201.26C80.3955 201.044 80.4875 200.724 80.5435 200.3C80.5995 199.876 80.6275 199.344 80.6275 198.704V197.06C80.6275 196.972 80.6555 196.9 80.7115 196.844C80.7675 196.788 80.8355 196.76 80.9155 196.76H85.4035C85.4915 196.76 85.5635 196.788 85.6195 196.844C85.6755 196.9 85.7035 196.972 85.7035 197.06V201.572H86.2315C86.3115 201.572 86.3795 201.6 86.4355 201.656C86.4915 201.712 86.5195 201.784 86.5195 201.872V204.02C86.5195 204.108 86.4915 204.18 86.4355 204.236C86.3795 204.292 86.3115 204.32 86.2315 204.32H85.0315C84.9435 204.32 84.8715 204.292 84.8155 204.236C84.7595 204.18 84.7315 204.108 84.7315 204.02V203H81.1675V204.02C81.1675 204.108 81.1395 204.18 81.0835 204.236C81.0275 204.292 80.9555 204.32 80.8675 204.32H79.6675ZM81.8395 201.584L83.9155 201.572V198.176H82.3315V198.908C82.3315 199.564 82.2875 200.112 82.1995 200.552C82.1195 200.992 81.9995 201.336 81.8395 201.584ZM87.8587 205.28C87.7707 205.28 87.6987 205.252 87.6427 205.196C87.5867 205.14 87.5587 205.068 87.5587 204.98V197.06C87.5587 196.972 87.5867 196.9 87.6427 196.844C87.6987 196.788 87.7707 196.76 87.8587 196.76H88.9987C89.0867 196.76 89.1587 196.788 89.2147 196.844C89.2707 196.9 89.2987 196.972 89.2987 197.06V197.516C89.4907 197.26 89.7387 197.052 90.0427 196.892C90.3467 196.724 90.7267 196.64 91.1827 196.64C91.5987 196.64 91.9587 196.708 92.2627 196.844C92.5747 196.972 92.8347 197.16 93.0427 197.408C93.2587 197.648 93.4227 197.94 93.5347 198.284C93.6547 198.628 93.7227 199.016 93.7387 199.448C93.7467 199.6 93.7507 199.744 93.7507 199.88C93.7507 200.016 93.7467 200.164 93.7387 200.324C93.7307 200.732 93.6667 201.108 93.5467 201.452C93.4347 201.796 93.2707 202.092 93.0547 202.34C92.8387 202.588 92.5747 202.78 92.2627 202.916C91.9587 203.052 91.5987 203.12 91.1827 203.12C90.7747 203.12 90.4187 203.048 90.1147 202.904C89.8187 202.752 89.5747 202.548 89.3827 202.292V204.98C89.3827 205.068 89.3547 205.14 89.2987 205.196C89.2427 205.252 89.1747 205.28 89.0947 205.28H87.8587ZM90.6427 201.68C90.9467 201.68 91.1867 201.616 91.3627 201.488C91.5387 201.352 91.6627 201.176 91.7347 200.96C91.8147 200.744 91.8627 200.508 91.8787 200.252C91.8947 200.004 91.8947 199.756 91.8787 199.508C91.8627 199.252 91.8147 199.016 91.7347 198.8C91.6627 198.584 91.5387 198.412 91.3627 198.284C91.1867 198.148 90.9467 198.08 90.6427 198.08C90.3467 198.08 90.1067 198.148 89.9227 198.284C89.7387 198.42 89.6067 198.592 89.5267 198.8C89.4467 199.008 89.3987 199.232 89.3827 199.472C89.3747 199.616 89.3707 199.764 89.3707 199.916C89.3707 200.068 89.3747 200.22 89.3827 200.372C89.3907 200.596 89.4387 200.808 89.5267 201.008C89.6227 201.2 89.7587 201.36 89.9347 201.488C90.1187 201.616 90.3547 201.68 90.6427 201.68ZM95.5396 205.292C95.4516 205.292 95.3796 205.26 95.3236 205.196C95.2676 205.14 95.2396 205.072 95.2396 204.992V204.164C95.2396 204.084 95.2676 204.016 95.3236 203.96C95.3796 203.904 95.4516 203.876 95.5396 203.876H95.9356C96.0876 203.876 96.2116 203.844 96.3076 203.78C96.4116 203.724 96.5036 203.628 96.5836 203.492C96.6636 203.356 96.7556 203.168 96.8596 202.928L99.3076 197C99.3316 196.936 99.3676 196.88 99.4156 196.832C99.4716 196.784 99.5476 196.76 99.6436 196.76H100.748C100.812 196.76 100.868 196.788 100.916 196.844C100.972 196.892 101 196.948 101 197.012C101 197.028 100.996 197.052 100.988 197.084C100.988 197.108 100.98 197.14 100.964 197.18L98.6836 202.652C98.5316 203.02 98.3716 203.364 98.2036 203.684C98.0436 204.004 97.8676 204.284 97.6756 204.524C97.4836 204.764 97.2556 204.952 96.9916 205.088C96.7356 205.224 96.4396 205.292 96.1036 205.292H95.5396ZM97.0156 202.856L94.5796 197.18C94.5476 197.116 94.5316 197.064 94.5316 197.024C94.5396 196.952 94.5676 196.892 94.6156 196.844C94.6716 196.788 94.7356 196.76 94.8076 196.76H95.9596C96.0556 196.76 96.1276 196.788 96.1756 196.844C96.2236 196.892 96.2596 196.944 96.2836 197L98.0836 201.488L97.0156 202.856ZM102.284 203C102.204 203 102.136 202.972 102.08 202.916C102.024 202.86 101.996 202.788 101.996 202.7V197.06C101.996 196.972 102.024 196.9 102.08 196.844C102.136 196.788 102.204 196.76 102.284 196.76H106.184C106.272 196.76 106.344 196.788 106.4 196.844C106.456 196.9 106.484 196.972 106.484 197.06V197.876C106.484 197.964 106.456 198.036 106.4 198.092C106.344 198.148 106.272 198.176 106.184 198.176H103.784V202.7C103.784 202.788 103.756 202.86 103.7 202.916C103.644 202.972 103.572 203 103.484 203H102.284ZM110.346 203C110.274 203 110.21 202.972 110.154 202.916C110.098 202.86 110.07 202.792 110.07 202.712V197.06C110.07 196.972 110.098 196.9 110.154 196.844C110.21 196.788 110.278 196.76 110.358 196.76H111.558C111.646 196.76 111.718 196.788 111.774 196.844C111.83 196.9 111.858 196.972 111.858 197.06V201.62L111.378 201.344L114.51 196.952C114.55 196.896 114.594 196.852 114.642 196.82C114.698 196.78 114.766 196.76 114.846 196.76H115.926C116.006 196.76 116.074 196.788 116.13 196.844C116.186 196.9 116.214 196.964 116.214 197.036V202.7C116.214 202.788 116.186 202.86 116.13 202.916C116.074 202.972 116.002 203 115.914 203H114.714C114.634 203 114.566 202.972 114.51 202.916C114.454 202.86 114.426 202.788 114.426 202.7V198.32L114.918 198.404L111.762 202.808C111.73 202.864 111.686 202.912 111.63 202.952C111.574 202.984 111.51 203 111.438 203H110.346ZM117.917 203C117.837 203 117.769 202.972 117.713 202.916C117.657 202.86 117.629 202.788 117.629 202.7V197.06C117.629 196.972 117.657 196.9 117.713 196.844C117.769 196.788 117.837 196.76 117.917 196.76H121.817C121.905 196.76 121.977 196.788 122.033 196.844C122.089 196.9 122.117 196.972 122.117 197.06V197.876C122.117 197.964 122.089 198.036 122.033 198.092C121.977 198.148 121.905 198.176 121.817 198.176H119.417V202.7C119.417 202.788 119.389 202.86 119.333 202.916C119.277 202.972 119.205 203 119.117 203H117.917ZM123.355 205.28C123.267 205.28 123.195 205.252 123.139 205.196C123.083 205.14 123.055 205.068 123.055 204.98V197.06C123.055 196.972 123.083 196.9 123.139 196.844C123.195 196.788 123.267 196.76 123.355 196.76H124.495C124.583 196.76 124.655 196.788 124.711 196.844C124.767 196.9 124.795 196.972 124.795 197.06V197.516C124.987 197.26 125.235 197.052 125.539 196.892C125.843 196.724 126.223 196.64 126.679 196.64C127.095 196.64 127.455 196.708 127.759 196.844C128.071 196.972 128.331 197.16 128.539 197.408C128.755 197.648 128.919 197.94 129.031 198.284C129.151 198.628 129.219 199.016 129.235 199.448C129.243 199.6 129.247 199.744 129.247 199.88C129.247 200.016 129.243 200.164 129.235 200.324C129.227 200.732 129.163 201.108 129.043 201.452C128.931 201.796 128.767 202.092 128.551 202.34C128.335 202.588 128.071 202.78 127.759 202.916C127.455 203.052 127.095 203.12 126.679 203.12C126.271 203.12 125.915 203.048 125.611 202.904C125.315 202.752 125.071 202.548 124.879 202.292V204.98C124.879 205.068 124.851 205.14 124.795 205.196C124.739 205.252 124.671 205.28 124.591 205.28H123.355ZM126.139 201.68C126.443 201.68 126.683 201.616 126.859 201.488C127.035 201.352 127.159 201.176 127.231 200.96C127.311 200.744 127.359 200.508 127.375 200.252C127.391 200.004 127.391 199.756 127.375 199.508C127.359 199.252 127.311 199.016 127.231 198.8C127.159 198.584 127.035 198.412 126.859 198.284C126.683 198.148 126.443 198.08 126.139 198.08C125.843 198.08 125.603 198.148 125.419 198.284C125.235 198.42 125.103 198.592 125.023 198.8C124.943 199.008 124.895 199.232 124.879 199.472C124.871 199.616 124.867 199.764 124.867 199.916C124.867 200.068 124.871 200.22 124.879 200.372C124.887 200.596 124.935 200.808 125.023 201.008C125.119 201.2 125.255 201.36 125.431 201.488C125.615 201.616 125.851 201.68 126.139 201.68ZM132.356 203.12C131.932 203.12 131.552 203.04 131.216 202.88C130.88 202.712 130.612 202.488 130.412 202.208C130.212 201.928 130.112 201.616 130.112 201.272C130.112 200.704 130.34 200.256 130.796 199.928C131.26 199.6 131.868 199.376 132.62 199.256L134.192 199.028V198.812C134.192 198.5 134.12 198.26 133.976 198.092C133.832 197.924 133.58 197.84 133.22 197.84C132.956 197.84 132.744 197.892 132.584 197.996C132.424 198.1 132.3 198.236 132.212 198.404C132.148 198.508 132.056 198.56 131.936 198.56H130.796C130.708 198.56 130.64 198.536 130.592 198.488C130.544 198.432 130.524 198.368 130.532 198.296C130.532 198.16 130.584 198 130.688 197.816C130.792 197.632 130.952 197.452 131.168 197.276C131.384 197.092 131.66 196.94 131.996 196.82C132.332 196.7 132.744 196.64 133.232 196.64C133.736 196.64 134.168 196.7 134.528 196.82C134.888 196.94 135.176 197.108 135.392 197.324C135.608 197.54 135.768 197.792 135.872 198.08C135.976 198.36 136.028 198.664 136.028 198.992V202.7C136.028 202.788 136 202.86 135.944 202.916C135.888 202.972 135.816 203 135.728 203H134.552C134.472 203 134.404 202.972 134.348 202.916C134.292 202.86 134.264 202.788 134.264 202.7V202.256C134.16 202.408 134.02 202.552 133.844 202.688C133.668 202.816 133.456 202.92 133.208 203C132.968 203.08 132.684 203.12 132.356 203.12ZM132.836 201.872C133.1 201.872 133.336 201.816 133.544 201.704C133.752 201.592 133.916 201.42 134.036 201.188C134.156 200.956 134.216 200.664 134.216 200.312V200.108L133.1 200.288C132.668 200.36 132.352 200.468 132.152 200.612C131.952 200.756 131.852 200.932 131.852 201.14C131.852 201.292 131.896 201.424 131.984 201.536C132.08 201.648 132.204 201.732 132.356 201.788C132.508 201.844 132.668 201.872 132.836 201.872ZM141.429 203C141.349 203 141.281 202.972 141.225 202.916C141.169 202.86 141.141 202.788 141.141 202.7V200.768C140.949 200.928 140.709 201.048 140.421 201.128C140.133 201.208 139.809 201.248 139.449 201.248C138.713 201.248 138.145 201.068 137.745 200.708C137.345 200.34 137.145 199.752 137.145 198.944V197.06C137.145 196.972 137.173 196.9 137.229 196.844C137.285 196.788 137.353 196.76 137.433 196.76H138.681C138.761 196.76 138.829 196.788 138.885 196.844C138.941 196.9 138.969 196.972 138.969 197.06V198.848C138.969 199.152 139.045 199.368 139.197 199.496C139.357 199.624 139.613 199.688 139.965 199.688C140.309 199.688 140.589 199.64 140.805 199.544C141.029 199.44 141.141 199.276 141.141 199.052V197.06C141.141 196.972 141.169 196.9 141.225 196.844C141.281 196.788 141.349 196.76 141.429 196.76H142.725C142.813 196.76 142.885 196.788 142.941 196.844C142.997 196.9 143.025 196.972 143.025 197.06V202.7C143.025 202.788 142.997 202.86 142.941 202.916C142.885 202.972 142.813 203 142.725 203H141.429ZM34.5989 219.908C34.0629 219.908 33.5869 219.8 33.1709 219.584C32.7549 219.376 32.4029 219.044 32.1149 218.588C31.8349 218.14 31.6229 217.56 31.4789 216.848C31.3349 216.136 31.2629 215.284 31.2629 214.292C31.2629 213.292 31.3349 212.44 31.4789 211.736C31.6229 211.024 31.8349 210.444 32.1149 209.996C32.4029 209.548 32.7549 209.22 33.1709 209.012C33.5869 208.796 34.0629 208.688 34.5989 208.688C34.6789 208.688 34.7469 208.72 34.8029 208.784C34.8669 208.84 34.8989 208.908 34.8989 208.988V209.84C34.8989 209.928 34.8709 210 34.8149 210.056C34.7589 210.112 34.6949 210.14 34.6229 210.14C34.2949 210.156 34.0189 210.252 33.7949 210.428C33.5709 210.604 33.3949 210.868 33.2669 211.22C33.1389 211.564 33.0469 211.992 32.9909 212.504C32.9349 213.008 32.9069 213.604 32.9069 214.292C32.9069 214.98 32.9349 215.58 32.9909 216.092C33.0469 216.604 33.1389 217.032 33.2669 217.376C33.3949 217.72 33.5709 217.98 33.7949 218.156C34.0189 218.34 34.2949 218.44 34.6229 218.456C34.6949 218.456 34.7589 218.484 34.8149 218.54C34.8709 218.596 34.8989 218.668 34.8989 218.756V219.608C34.8989 219.688 34.8669 219.756 34.8029 219.812C34.7469 219.876 34.6789 219.908 34.5989 219.908ZM38.7878 218.12C38.1238 218.12 37.5678 218.012 37.1198 217.796C36.6718 217.572 36.3278 217.256 36.0878 216.848C35.8558 216.44 35.7278 215.964 35.7038 215.42C35.6958 215.26 35.6918 215.08 35.6918 214.88C35.6918 214.672 35.6958 214.492 35.7038 214.34C35.7278 213.788 35.8638 213.312 36.1118 212.912C36.3598 212.504 36.7078 212.192 37.1558 211.976C37.6038 211.752 38.1478 211.64 38.7878 211.64C39.4198 211.64 39.9598 211.752 40.4078 211.976C40.8558 212.192 41.2038 212.504 41.4518 212.912C41.6998 213.312 41.8358 213.788 41.8598 214.34C41.8758 214.492 41.8838 214.672 41.8838 214.88C41.8838 215.08 41.8758 215.26 41.8598 215.42C41.8358 215.964 41.7038 216.44 41.4638 216.848C41.2318 217.256 40.8918 217.572 40.4438 217.796C39.9958 218.012 39.4438 218.12 38.7878 218.12ZM38.7878 216.8C39.1798 216.8 39.4758 216.68 39.6758 216.44C39.8758 216.192 39.9838 215.832 39.9998 215.36C40.0078 215.24 40.0118 215.08 40.0118 214.88C40.0118 214.68 40.0078 214.52 39.9998 214.4C39.9838 213.936 39.8758 213.58 39.6758 213.332C39.4758 213.084 39.1798 212.96 38.7878 212.96C38.3958 212.96 38.0958 213.084 37.8878 213.332C37.6878 213.58 37.5798 213.936 37.5638 214.4C37.5558 214.52 37.5518 214.68 37.5518 214.88C37.5518 215.08 37.5558 215.24 37.5638 215.36C37.5798 215.832 37.6878 216.192 37.8878 216.44C38.0958 216.68 38.3958 216.8 38.7878 216.8ZM45.9108 218.12C45.3268 218.12 44.8108 218.012 44.3628 217.796C43.9228 217.58 43.5748 217.268 43.3188 216.86C43.0628 216.444 42.9228 215.948 42.8988 215.372C42.8908 215.244 42.8868 215.084 42.8868 214.892C42.8868 214.692 42.8908 214.528 42.8988 214.4C42.9228 213.816 43.0588 213.32 43.3068 212.912C43.5628 212.496 43.9148 212.18 44.3628 211.964C44.8108 211.748 45.3268 211.64 45.9108 211.64C46.4468 211.64 46.9028 211.716 47.2788 211.868C47.6548 212.012 47.9628 212.196 48.2028 212.42C48.4428 212.644 48.6188 212.88 48.7308 213.128C48.8508 213.368 48.9148 213.58 48.9228 213.764C48.9308 213.844 48.9028 213.916 48.8388 213.98C48.7828 214.036 48.7148 214.064 48.6348 214.064H47.3508C47.2708 214.064 47.2068 214.044 47.1588 214.004C47.1188 213.956 47.0788 213.892 47.0388 213.812C46.9268 213.532 46.7828 213.332 46.6068 213.212C46.4308 213.092 46.2108 213.032 45.9468 213.032C45.5868 213.032 45.3028 213.148 45.0948 213.38C44.8868 213.612 44.7748 213.972 44.7588 214.46C44.7508 214.772 44.7508 215.056 44.7588 215.312C44.7828 215.808 44.8948 216.168 45.0948 216.392C45.3028 216.616 45.5868 216.728 45.9468 216.728C46.2268 216.728 46.4508 216.668 46.6188 216.548C46.7868 216.428 46.9268 216.228 47.0388 215.948C47.0708 215.868 47.1108 215.808 47.1588 215.768C47.2068 215.72 47.2708 215.696 47.3508 215.696H48.6348C48.7148 215.696 48.7828 215.728 48.8388 215.792C48.9028 215.848 48.9308 215.916 48.9228 215.996C48.9148 216.132 48.8748 216.292 48.8028 216.476C48.7388 216.66 48.6308 216.848 48.4788 217.04C48.3348 217.232 48.1468 217.412 47.9148 217.58C47.6828 217.74 47.3988 217.872 47.0628 217.976C46.7348 218.072 46.3508 218.12 45.9108 218.12ZM50.3878 218C50.3078 218 50.2398 217.972 50.1838 217.916C50.1278 217.86 50.0998 217.788 50.0998 217.7V212.06C50.0998 211.972 50.1278 211.9 50.1838 211.844C50.2398 211.788 50.3078 211.76 50.3878 211.76H53.1238C54.0198 211.76 54.6758 211.92 55.0918 212.24C55.5158 212.552 55.7278 212.976 55.7278 213.512C55.7278 213.832 55.6678 214.088 55.5478 214.28C55.4278 214.464 55.2598 214.624 55.0438 214.76C55.3158 214.888 55.5278 215.08 55.6797 215.336C55.8398 215.584 55.9198 215.864 55.9198 216.176C55.9198 216.744 55.6998 217.192 55.2598 217.52C54.8198 217.84 54.1598 218 53.2798 218H50.3878ZM51.8278 216.824H53.1718C53.4518 216.824 53.6758 216.772 53.8438 216.668C54.0198 216.556 54.1078 216.384 54.1078 216.152C54.1078 215.912 54.0278 215.74 53.8678 215.636C53.7078 215.532 53.4758 215.48 53.1718 215.48H51.8278V216.824ZM51.8278 214.256H53.1238C53.4118 214.256 53.6398 214.196 53.8078 214.076C53.9758 213.956 54.0598 213.784 54.0598 213.56C54.0598 213.328 53.9758 213.168 53.8078 213.08C53.6398 212.984 53.4118 212.936 53.1238 212.936H51.8278V214.256ZM60.0088 218.12C59.0888 218.12 58.3568 217.864 57.8128 217.352C57.2768 216.84 56.9928 216.096 56.9608 215.12C56.9608 215.056 56.9608 214.972 56.9608 214.868C56.9608 214.756 56.9608 214.668 56.9608 214.604C56.9928 213.988 57.1328 213.46 57.3808 213.02C57.6288 212.572 57.9768 212.232 58.4248 212C58.8728 211.76 59.3968 211.64 59.9967 211.64C60.6688 211.64 61.2288 211.78 61.6768 212.06C62.1328 212.332 62.4728 212.708 62.6968 213.188C62.9288 213.66 63.0448 214.204 63.0448 214.82V215.096C63.0448 215.176 63.0128 215.244 62.9488 215.3C62.8928 215.356 62.8248 215.384 62.7448 215.384H58.8208C58.8208 215.392 58.8208 215.408 58.8208 215.432C58.8208 215.448 58.8208 215.464 58.8208 215.48C58.8288 215.736 58.8768 215.972 58.9648 216.188C59.0608 216.396 59.1928 216.564 59.3608 216.692C59.5368 216.82 59.7448 216.884 59.9848 216.884C60.1848 216.884 60.3488 216.856 60.4768 216.8C60.6048 216.744 60.7088 216.676 60.7888 216.596C60.8768 216.516 60.9408 216.448 60.9808 216.392C61.0528 216.312 61.1088 216.264 61.1488 216.248C61.1968 216.224 61.2688 216.212 61.3648 216.212H62.6128C62.6928 216.212 62.7568 216.236 62.8047 216.284C62.8608 216.324 62.8848 216.384 62.8768 216.464C62.8688 216.592 62.8008 216.752 62.6728 216.944C62.5528 217.128 62.3728 217.312 62.1328 217.496C61.8928 217.672 61.5928 217.82 61.2328 217.94C60.8808 218.06 60.4728 218.12 60.0088 218.12ZM58.8208 214.292H61.1728V214.268C61.1728 213.98 61.1248 213.732 61.0288 213.524C60.9408 213.308 60.8088 213.14 60.6328 213.02C60.4568 212.9 60.2448 212.84 59.9967 212.84C59.7488 212.84 59.5368 212.9 59.3608 213.02C59.1848 213.14 59.0488 213.308 58.9528 213.524C58.8648 213.732 58.8208 213.98 58.8208 214.268V214.292ZM64.5323 218C64.4523 218 64.3843 217.972 64.3283 217.916C64.2723 217.86 64.2443 217.788 64.2443 217.7V212.06C64.2443 211.972 64.2723 211.9 64.3283 211.844C64.3843 211.788 64.4523 211.76 64.5323 211.76H65.7323C65.8203 211.76 65.8923 211.788 65.9483 211.844C66.0043 211.9 66.0323 211.972 66.0323 212.06V214.124H68.4683V212.06C68.4683 211.972 68.4963 211.9 68.5523 211.844C68.6083 211.788 68.6803 211.76 68.7683 211.76H69.9683C70.0483 211.76 70.1163 211.788 70.1723 211.844C70.2283 211.9 70.2563 211.972 70.2563 212.06V217.7C70.2563 217.788 70.2283 217.86 70.1723 217.916C70.1163 217.972 70.0483 218 69.9683 218H68.7683C68.6803 218 68.6083 217.972 68.5523 217.916C68.4963 217.86 68.4683 217.788 68.4683 217.7V215.54H66.0323V217.7C66.0323 217.788 66.0043 217.86 65.9483 217.916C65.8923 217.972 65.8203 218 65.7323 218H64.5323ZM74.7393 218C74.6593 218 74.5913 217.972 74.5353 217.916C74.4793 217.86 74.4513 217.788 74.4513 217.7V212.06C74.4513 211.972 74.4793 211.9 74.5353 211.844C74.5913 211.788 74.6593 211.76 74.7393 211.76H75.9153C76.0033 211.76 76.0753 211.788 76.1313 211.844C76.1873 211.9 76.2153 211.972 76.2153 212.06V214.124H76.9713L78.3633 211.952C78.3873 211.904 78.4233 211.86 78.4713 211.82C78.5273 211.78 78.5993 211.76 78.6873 211.76H79.9953C80.0673 211.76 80.1273 211.784 80.1753 211.832C80.2313 211.872 80.2593 211.924 80.2593 211.988C80.2593 212.012 80.2513 212.04 80.2353 212.072C80.2273 212.104 80.2153 212.132 80.1993 212.156L78.5073 214.772L80.4633 217.616C80.4953 217.664 80.5113 217.716 80.5113 217.772C80.5113 217.836 80.4873 217.892 80.4393 217.94C80.3913 217.98 80.3313 218 80.2593 218H78.8073C78.7273 218 78.6593 217.984 78.6033 217.952C78.5553 217.912 78.5113 217.864 78.4713 217.808L76.9593 215.552H76.2153V217.7C76.2153 217.788 76.1873 217.86 76.1313 217.916C76.0753 217.972 76.0033 218 75.9153 218H74.7393ZM84.362 218.12C83.698 218.12 83.142 218.012 82.694 217.796C82.246 217.572 81.902 217.256 81.662 216.848C81.43 216.44 81.302 215.964 81.278 215.42C81.27 215.26 81.266 215.08 81.266 214.88C81.266 214.672 81.27 214.492 81.278 214.34C81.302 213.788 81.438 213.312 81.686 212.912C81.934 212.504 82.282 212.192 82.73 211.976C83.178 211.752 83.722 211.64 84.362 211.64C84.994 211.64 85.534 211.752 85.982 211.976C86.43 212.192 86.778 212.504 87.026 212.912C87.274 213.312 87.41 213.788 87.434 214.34C87.45 214.492 87.458 214.672 87.458 214.88C87.458 215.08 87.45 215.26 87.434 215.42C87.41 215.964 87.278 216.44 87.038 216.848C86.806 217.256 86.466 217.572 86.018 217.796C85.57 218.012 85.018 218.12 84.362 218.12ZM84.362 216.8C84.754 216.8 85.05 216.68 85.25 216.44C85.45 216.192 85.558 215.832 85.574 215.36C85.582 215.24 85.586 215.08 85.586 214.88C85.586 214.68 85.582 214.52 85.574 214.4C85.558 213.936 85.45 213.58 85.25 213.332C85.05 213.084 84.754 212.96 84.362 212.96C83.97 212.96 83.67 213.084 83.462 213.332C83.262 213.58 83.154 213.936 83.138 214.4C83.13 214.52 83.126 214.68 83.126 214.88C83.126 215.08 83.13 215.24 83.138 215.36C83.154 215.832 83.262 216.192 83.462 216.44C83.67 216.68 83.97 216.8 84.362 216.8ZM88.965 218C88.893 218 88.833 217.976 88.785 217.928C88.737 217.88 88.713 217.82 88.713 217.748V212C88.713 211.936 88.737 211.88 88.785 211.832C88.833 211.784 88.889 211.76 88.953 211.76H90.129C90.273 211.76 90.385 211.832 90.465 211.976L92.217 215.108L93.957 211.976C94.037 211.832 94.149 211.76 94.293 211.76H95.481C95.545 211.76 95.601 211.784 95.649 211.832C95.697 211.88 95.721 211.936 95.721 212V217.748C95.721 217.82 95.697 217.88 95.649 217.928C95.601 217.976 95.541 218 95.469 218H94.209C94.129 218 94.065 217.976 94.017 217.928C93.977 217.88 93.957 217.82 93.957 217.748V213.608L94.497 213.716L92.793 216.776C92.753 216.848 92.705 216.912 92.649 216.968C92.601 217.024 92.529 217.052 92.433 217.052H91.989C91.901 217.052 91.829 217.028 91.773 216.98C91.717 216.924 91.665 216.856 91.617 216.776L89.961 213.824L90.465 213.716V217.748C90.465 217.82 90.441 217.88 90.393 217.928C90.345 217.976 90.285 218 90.213 218H88.965ZM97.5557 218C97.4757 218 97.4077 217.972 97.3517 217.916C97.2957 217.86 97.2677 217.788 97.2677 217.7V212.06C97.2677 211.972 97.2957 211.9 97.3517 211.844C97.4077 211.788 97.4757 211.76 97.5557 211.76H102.872C102.952 211.76 103.02 211.788 103.076 211.844C103.132 211.9 103.16 211.972 103.16 212.06V217.7C103.16 217.788 103.132 217.86 103.076 217.916C103.02 217.972 102.952 218 102.872 218H101.672C101.584 218 101.512 217.972 101.456 217.916C101.4 217.86 101.372 217.788 101.372 217.7V213.176H99.0557V217.7C99.0557 217.788 99.0277 217.86 98.9717 217.916C98.9157 217.972 98.8437 218 98.7557 218H97.5557ZM104.565 218C104.485 218 104.413 217.972 104.349 217.916C104.293 217.852 104.265 217.78 104.265 217.7V216.8C104.265 216.624 104.361 216.528 104.553 216.512C104.785 216.488 104.965 216.38 105.093 216.188C105.229 215.988 105.325 215.684 105.381 215.276C105.437 214.868 105.465 214.344 105.465 213.704V212.06C105.465 211.972 105.493 211.9 105.549 211.844C105.605 211.788 105.677 211.76 105.765 211.76H110.241C110.329 211.76 110.401 211.788 110.457 211.844C110.513 211.9 110.541 211.972 110.541 212.06V217.7C110.541 217.788 110.513 217.86 110.457 217.916C110.401 217.972 110.329 218 110.241 218H109.041C108.961 218 108.889 217.972 108.825 217.916C108.769 217.86 108.741 217.788 108.741 217.7V213.176H107.181V213.908C107.181 214.668 107.137 215.312 107.049 215.84C106.969 216.368 106.829 216.792 106.629 217.112C106.429 217.424 106.161 217.652 105.825 217.796C105.489 217.932 105.069 218 104.565 218ZM114.876 218.12C113.956 218.12 113.224 217.864 112.68 217.352C112.144 216.84 111.86 216.096 111.828 215.12C111.828 215.056 111.828 214.972 111.828 214.868C111.828 214.756 111.828 214.668 111.828 214.604C111.86 213.988 112 213.46 112.248 213.02C112.496 212.572 112.844 212.232 113.292 212C113.74 211.76 114.264 211.64 114.864 211.64C115.536 211.64 116.096 211.78 116.544 212.06C117 212.332 117.34 212.708 117.564 213.188C117.796 213.66 117.912 214.204 117.912 214.82V215.096C117.912 215.176 117.88 215.244 117.816 215.3C117.76 215.356 117.692 215.384 117.612 215.384H113.688C113.688 215.392 113.688 215.408 113.688 215.432C113.688 215.448 113.688 215.464 113.688 215.48C113.696 215.736 113.744 215.972 113.832 216.188C113.928 216.396 114.06 216.564 114.228 216.692C114.404 216.82 114.612 216.884 114.852 216.884C115.052 216.884 115.216 216.856 115.344 216.8C115.472 216.744 115.576 216.676 115.656 216.596C115.744 216.516 115.808 216.448 115.848 216.392C115.92 216.312 115.976 216.264 116.016 216.248C116.064 216.224 116.136 216.212 116.232 216.212H117.48C117.56 216.212 117.624 216.236 117.672 216.284C117.728 216.324 117.752 216.384 117.744 216.464C117.736 216.592 117.668 216.752 117.54 216.944C117.42 217.128 117.24 217.312 117 217.496C116.76 217.672 116.46 217.82 116.1 217.94C115.748 218.06 115.34 218.12 114.876 218.12ZM113.688 214.292H116.04V214.268C116.04 213.98 115.992 213.732 115.896 213.524C115.808 213.308 115.676 213.14 115.5 213.02C115.324 212.9 115.112 212.84 114.864 212.84C114.616 212.84 114.404 212.9 114.228 213.02C114.052 213.14 113.916 213.308 113.82 213.524C113.732 213.732 113.688 213.98 113.688 214.268V214.292ZM121.007 218C120.919 218 120.847 217.972 120.791 217.916C120.735 217.86 120.707 217.788 120.707 217.7V213.176H118.823C118.735 213.176 118.663 213.148 118.607 213.092C118.551 213.036 118.523 212.964 118.523 212.876V212.06C118.523 211.972 118.551 211.9 118.607 211.844C118.663 211.788 118.735 211.76 118.823 211.76H124.355C124.443 211.76 124.515 211.788 124.571 211.844C124.627 211.9 124.655 211.972 124.655 212.06V212.876C124.655 212.964 124.627 213.036 124.571 213.092C124.515 213.148 124.443 213.176 124.355 213.176H122.471V217.7C122.471 217.788 122.443 217.86 122.387 217.916C122.331 217.972 122.263 218 122.183 218H121.007ZM125.4 219.908C125.32 219.908 125.248 219.876 125.184 219.812C125.128 219.756 125.1 219.688 125.1 219.608V218.756C125.1 218.668 125.128 218.596 125.184 218.54C125.248 218.484 125.316 218.456 125.388 218.456C125.716 218.44 125.988 218.34 126.204 218.156C126.428 217.98 126.604 217.72 126.732 217.376C126.86 217.032 126.952 216.604 127.008 216.092C127.064 215.58 127.092 214.98 127.092 214.292C127.092 213.604 127.064 213.008 127.008 212.504C126.952 211.992 126.86 211.564 126.732 211.22C126.604 210.868 126.428 210.604 126.204 210.428C125.988 210.252 125.716 210.156 125.388 210.14C125.316 210.14 125.248 210.112 125.184 210.056C125.128 210 125.1 209.928 125.1 209.84V208.988C125.1 208.908 125.128 208.84 125.184 208.784C125.248 208.72 125.32 208.688 125.4 208.688C125.944 208.688 126.424 208.796 126.84 209.012C127.256 209.22 127.604 209.548 127.884 209.996C128.164 210.444 128.376 211.024 128.52 211.736C128.664 212.44 128.736 213.292 128.736 214.292C128.736 215.284 128.664 216.136 128.52 216.848C128.376 217.56 128.164 218.14 127.884 218.588C127.604 219.044 127.256 219.376 126.84 219.584C126.424 219.8 125.944 219.908 125.4 219.908Z" fill="black"/>
<path d="M125.832 40.3199H120V35.9165H125.479V32.1746H120V23.4403L122.767 25.9356L125.534 23.4403L125.479 30.0146M131.786 29.8414V27.9905M131.786 27.9905V23H137.32V27.9905H131.786ZM131.786 27.9905L137.32 31.9535L131.786 35.7697M131.786 35.7697H137.32V40.3199H131.786V35.7697ZM131.786 35.7697V33.775V32.2133" stroke="black" stroke-miterlimit="16" stroke-linecap="square"/>
<path d="M126.66 33.4858L130.659 29.4868" stroke="black" stroke-miterlimit="16"/>
<path d="M126.7 29.5269L130.619 33.4459" stroke="black" stroke-miterlimit="16"/>
</svg>
