<svg width="161" height="247" viewBox="0 0 161 247" fill="none" xmlns="http://www.w3.org/2000/svg">
<rect width="161" height="247" fill="white"/>
<rect x="0.5" y="0.5" width="160" height="246" stroke="black" stroke-opacity="0.1"/>
<rect x="3" y="3" width="155" height="241" rx="13" fill="white"/>
<path d="M8 18C8 12.4772 12.4772 8 18 8H143C148.523 8 153 12.4772 153 18V45C153 46.1046 152.105 47 151 47H10C8.89543 47 8 46.1046 8 45V18Z" fill="#61C5CC"/>
<path d="M8.5 18C8.5 12.7533 12.7533 8.5 18 8.5H143C148.247 8.5 152.5 12.7533 152.5 18V45C152.5 45.8284 151.828 46.5 151 46.5H10C9.17157 46.5 8.5 45.8284 8.5 45V18Z" stroke="black" stroke-opacity="0.3"/>
<path d="M60.969 32C60.8957 32 60.8333 31.9743 60.782 31.923C60.738 31.8643 60.7233 31.7947 60.738 31.714L61.893 26.346H60.001C59.9203 26.346 59.8543 26.3203 59.803 26.269C59.759 26.2103 59.7443 26.1407 59.759 26.06L60.078 24.586C60.0927 24.5053 60.133 24.4393 60.199 24.388C60.2723 24.3293 60.3457 24.3 60.419 24.3H66.601C66.6817 24.3 66.744 24.3293 66.788 24.388C66.8393 24.4393 66.8577 24.5053 66.843 24.586L66.524 26.06C66.5093 26.1407 66.469 26.2103 66.403 26.269C66.337 26.3203 66.2637 26.346 66.183 26.346H64.291L63.136 31.714C63.1213 31.7947 63.081 31.8643 63.015 31.923C62.949 31.9743 62.8757 32 62.795 32H60.969ZM66.1653 34.09C66.0846 34.09 66.026 34.0607 65.9893 34.002C65.9453 33.9507 65.9306 33.8847 65.9453 33.804L67.4853 26.566C67.5 26.4853 67.5403 26.4193 67.6063 26.368C67.6723 26.3093 67.7456 26.28 67.8263 26.28H69.3773C69.458 26.28 69.5203 26.3093 69.5643 26.368C69.6156 26.4193 69.634 26.4853 69.6193 26.566L69.5313 26.929C69.7513 26.709 70.0116 26.5293 70.3123 26.39C70.6203 26.2433 70.9723 26.17 71.3683 26.17C71.713 26.17 72.01 26.2213 72.2593 26.324C72.516 26.4267 72.7213 26.5843 72.8753 26.797C73.0366 27.0023 73.143 27.2663 73.1943 27.589C73.2456 27.9117 73.231 28.2893 73.1503 28.722C73.1283 28.876 73.1026 29.0153 73.0733 29.14C73.0513 29.2647 73.022 29.4077 72.9853 29.569C72.846 30.1117 72.6333 30.5737 72.3473 30.955C72.0686 31.329 71.7386 31.615 71.3573 31.813C70.976 32.011 70.558 32.11 70.1033 32.11C69.766 32.11 69.48 32.055 69.2453 31.945C69.0106 31.8277 68.8346 31.648 68.7173 31.406L68.2003 33.804C68.1856 33.8847 68.1416 33.9507 68.0683 34.002C68.0023 34.0607 67.9326 34.09 67.8593 34.09H66.1653ZM69.7183 30.394C69.909 30.394 70.063 30.3573 70.1803 30.284C70.305 30.2033 70.404 30.097 70.4773 29.965C70.558 29.8257 70.624 29.668 70.6753 29.492C70.712 29.382 70.745 29.2647 70.7743 29.14C70.8036 29.0153 70.822 28.898 70.8293 28.788C70.8513 28.612 70.8513 28.458 70.8293 28.326C70.8073 28.1867 70.7523 28.0803 70.6643 28.007C70.5763 27.9263 70.4333 27.886 70.2353 27.886C70.052 27.886 69.8943 27.9263 69.7623 28.007C69.6376 28.0877 69.535 28.194 69.4543 28.326C69.381 28.458 69.3223 28.6047 69.2783 28.766C69.2343 28.92 69.1976 29.0593 69.1683 29.184C69.1463 29.3013 69.1243 29.437 69.1023 29.591C69.0803 29.745 69.084 29.8807 69.1133 29.998C69.1426 30.1153 69.205 30.2107 69.3003 30.284C69.403 30.3573 69.5423 30.394 69.7183 30.394ZM75.3776 32.11C75.0403 32.11 74.736 32.0587 74.4646 31.956C74.2006 31.8533 73.9806 31.6957 73.8046 31.483C73.636 31.2703 73.5223 31.0027 73.4636 30.68C73.405 30.3573 73.4123 29.9797 73.4856 29.547C73.515 29.3857 73.5406 29.2463 73.5626 29.129C73.592 29.0117 73.625 28.876 73.6616 28.722C73.7643 28.3113 73.9036 27.9483 74.0796 27.633C74.2556 27.3103 74.4646 27.0427 74.7066 26.83C74.9486 26.6173 75.22 26.456 75.5206 26.346C75.8286 26.2287 76.1623 26.17 76.5216 26.17C76.9543 26.17 77.2843 26.2287 77.5116 26.346C77.7463 26.456 77.9296 26.599 78.0616 26.775L78.1166 26.566C78.1313 26.4853 78.1716 26.4193 78.2376 26.368C78.3036 26.3093 78.3733 26.28 78.4466 26.28H79.9976C80.0783 26.28 80.1406 26.3093 80.1846 26.368C80.2286 26.4193 80.2433 26.4853 80.2286 26.566L79.1396 31.714C79.125 31.7947 79.0846 31.8643 79.0186 31.923C78.9526 31.9743 78.8793 32 78.7986 32H77.2476C77.167 32 77.101 31.9743 77.0496 31.923C77.0056 31.8643 76.991 31.7947 77.0056 31.714L77.0716 31.406C76.8516 31.6187 76.6133 31.791 76.3566 31.923C76.1 32.0477 75.7736 32.11 75.3776 32.11ZM76.3676 30.394C76.5583 30.394 76.716 30.3537 76.8406 30.273C76.9726 30.1923 77.079 30.086 77.1596 29.954C77.2403 29.822 77.3026 29.6753 77.3466 29.514C77.3906 29.3527 77.4236 29.2133 77.4456 29.096C77.475 28.9787 77.5006 28.843 77.5226 28.689C77.5446 28.535 77.541 28.3993 77.5116 28.282C77.4896 28.1647 77.431 28.0693 77.3356 27.996C77.2403 27.9227 77.1046 27.886 76.9286 27.886C76.7453 27.886 76.5913 27.9263 76.4666 28.007C76.342 28.0803 76.2393 28.1867 76.1586 28.326C76.0853 28.458 76.023 28.612 75.9716 28.788C75.9423 28.898 75.913 29.0153 75.8836 29.14C75.8543 29.2647 75.8323 29.382 75.8176 29.492C75.7956 29.668 75.792 29.8257 75.8066 29.965C75.8213 30.097 75.8726 30.2033 75.9606 30.284C76.0486 30.3573 76.1843 30.394 76.3676 30.394ZM80.587 32C80.5063 32 80.444 31.9743 80.4 31.923C80.356 31.8643 80.3413 31.7947 80.356 31.714L81.456 26.566C81.4707 26.4853 81.511 26.4193 81.577 26.368C81.643 26.3093 81.7163 26.28 81.797 26.28H83.425C83.5057 26.28 83.568 26.3093 83.612 26.368C83.6633 26.4193 83.6817 26.4853 83.667 26.566L83.293 28.26H84.833L85.196 26.566C85.2107 26.4853 85.251 26.4193 85.317 26.368C85.383 26.3093 85.4563 26.28 85.537 26.28H87.176C87.2567 26.28 87.319 26.3093 87.363 26.368C87.407 26.4193 87.4217 26.4853 87.407 26.566L86.307 31.714C86.2923 31.7947 86.252 31.8643 86.186 31.923C86.12 31.9743 86.0467 32 85.966 32H84.327C84.2463 32 84.184 31.9743 84.14 31.923C84.096 31.8643 84.0813 31.7947 84.096 31.714L84.481 29.943H82.941L82.556 31.714C82.5413 31.7947 82.501 31.8643 82.435 31.923C82.369 31.9743 82.2957 32 82.215 32H80.587ZM90.1943 32.11C89.6883 32.11 89.2263 32.0147 88.8083 31.824C88.3903 31.626 88.0749 31.34 87.8623 30.966C87.6569 30.5847 87.5946 30.1263 87.6753 29.591C87.6973 29.4737 87.7266 29.327 87.7633 29.151C87.7999 28.975 87.8329 28.8247 87.8623 28.7C88.0749 27.8933 88.4746 27.27 89.0613 26.83C89.6553 26.39 90.3886 26.17 91.2613 26.17C91.7819 26.17 92.2219 26.247 92.5813 26.401C92.9406 26.555 93.2229 26.7457 93.4283 26.973C93.6409 27.2003 93.7876 27.4313 93.8683 27.666C93.9563 27.8933 93.9893 28.084 93.9673 28.238C93.9599 28.3187 93.9196 28.3883 93.8463 28.447C93.7803 28.4983 93.7106 28.524 93.6373 28.524H91.8553C91.7746 28.524 91.7123 28.5057 91.6683 28.469C91.6316 28.4323 91.6059 28.3773 91.5913 28.304C91.5693 28.1427 91.5179 28.0217 91.4373 27.941C91.3639 27.8603 91.2429 27.82 91.0743 27.82C90.8396 27.82 90.6489 27.9007 90.5023 28.062C90.3629 28.216 90.2529 28.447 90.1723 28.755C90.1356 28.909 90.1026 29.052 90.0733 29.184C90.0439 29.316 90.0219 29.4333 90.0073 29.536C89.9559 29.8513 89.9633 30.086 90.0293 30.24C90.1026 30.3867 90.2529 30.46 90.4803 30.46C90.6636 30.46 90.8103 30.4233 90.9203 30.35C91.0303 30.2693 91.1329 30.1483 91.2283 29.987C91.2723 29.9137 91.3199 29.8587 91.3713 29.822C91.4299 29.778 91.4996 29.756 91.5803 29.756H93.3623C93.4429 29.756 93.5053 29.7853 93.5493 29.844C93.6006 29.9027 93.6153 29.9723 93.5933 30.053C93.5493 30.185 93.4576 30.3647 93.3183 30.592C93.1789 30.812 92.9773 31.0393 92.7133 31.274C92.4566 31.5087 92.1193 31.7067 91.7013 31.868C91.2906 32.0293 90.7883 32.11 90.1943 32.11ZM94.4014 32C94.3208 32 94.2584 31.9743 94.2144 31.923C94.1704 31.8643 94.1558 31.7947 94.1704 31.714L95.2704 26.566C95.2851 26.4853 95.3254 26.4193 95.3914 26.368C95.4574 26.3093 95.5308 26.28 95.6114 26.28H97.2064C97.2871 26.28 97.3494 26.3093 97.3934 26.368C97.4374 26.4193 97.4521 26.4853 97.4374 26.566L97.0744 28.26H97.4594L98.9114 26.467C98.9408 26.4303 98.9811 26.39 99.0324 26.346C99.0911 26.302 99.1681 26.28 99.2634 26.28H101.034C101.108 26.28 101.163 26.3057 101.199 26.357C101.236 26.401 101.251 26.456 101.243 26.522C101.236 26.5733 101.207 26.6283 101.155 26.687L99.0764 29.206L100.187 31.615C100.195 31.6297 100.202 31.648 100.209 31.67C100.217 31.692 100.217 31.7213 100.209 31.758C100.202 31.824 100.165 31.8827 100.099 31.934C100.041 31.978 99.9748 32 99.9014 32H98.1634C98.0828 32 98.0168 31.9853 97.9654 31.956C97.9214 31.9193 97.8884 31.8753 97.8664 31.824L97.0964 29.954H96.7224L96.3374 31.714C96.3228 31.7947 96.2824 31.8643 96.2164 31.923C96.1504 31.9743 96.0771 32 95.9964 32H94.4014ZM103.936 32.11C103.327 32.11 102.814 32.0147 102.396 31.824C101.978 31.6333 101.674 31.3547 101.483 30.988C101.292 30.614 101.237 30.1667 101.318 29.646C101.34 29.492 101.369 29.3233 101.406 29.14C101.443 28.9567 101.483 28.788 101.527 28.634C101.681 28.106 101.905 27.6587 102.198 27.292C102.491 26.9253 102.869 26.6467 103.331 26.456C103.8 26.2653 104.358 26.17 105.003 26.17C105.59 26.17 106.092 26.2653 106.51 26.456C106.928 26.6467 107.24 26.9253 107.445 27.292C107.65 27.6587 107.713 28.106 107.632 28.634C107.603 28.788 107.57 28.9567 107.533 29.14C107.496 29.3233 107.456 29.492 107.412 29.646C107.273 30.1667 107.06 30.614 106.774 30.988C106.488 31.3547 106.114 31.6333 105.652 31.824C105.19 32.0147 104.618 32.11 103.936 32.11ZM104.156 30.559C104.427 30.559 104.633 30.4783 104.772 30.317C104.911 30.1557 105.025 29.9137 105.113 29.591C105.142 29.481 105.175 29.3307 105.212 29.14C105.256 28.9493 105.285 28.799 105.3 28.689C105.351 28.3737 105.344 28.1353 105.278 27.974C105.219 27.8053 105.054 27.721 104.783 27.721C104.519 27.721 104.314 27.8053 104.167 27.974C104.028 28.1353 103.918 28.3737 103.837 28.689C103.808 28.799 103.771 28.9493 103.727 29.14C103.683 29.3307 103.654 29.481 103.639 29.591C103.595 29.9137 103.602 30.1557 103.661 30.317C103.72 30.4783 103.885 30.559 104.156 30.559ZM108.248 32C108.167 32 108.105 31.9743 108.061 31.923C108.017 31.8643 108.002 31.7947 108.017 31.714L109.117 26.566C109.132 26.4853 109.172 26.4193 109.238 26.368C109.304 26.3093 109.377 26.28 109.458 26.28H114.793C114.874 26.28 114.936 26.3093 114.98 26.368C115.024 26.4193 115.039 26.4853 115.024 26.566L113.924 31.714C113.909 31.7947 113.869 31.8643 113.803 31.923C113.737 31.9743 113.664 32 113.583 32H111.955C111.874 32 111.808 31.9743 111.757 31.923C111.713 31.8643 111.698 31.7947 111.713 31.714L112.516 27.963H111.02L110.217 31.714C110.21 31.7947 110.169 31.8643 110.096 31.923C110.03 31.9743 109.957 32 109.876 32H108.248Z" fill="#FBFBFB"/>
<path d="M23.127 67C23.0803 67 23.043 66.9837 23.015 66.951C22.987 66.9183 22.9777 66.8763 22.987 66.825L23.533 64.277H22.469C22.4177 64.277 22.378 64.2607 22.35 64.228C22.3267 64.1953 22.3197 64.1533 22.329 64.102L22.455 63.535C22.4643 63.4837 22.4877 63.4417 22.525 63.409C22.567 63.3763 22.6113 63.36 22.658 63.36H25.948C25.9947 63.36 26.032 63.3763 26.06 63.409C26.088 63.4417 26.0973 63.4837 26.088 63.535L25.969 64.102C25.9597 64.1533 25.934 64.1953 25.892 64.228C25.85 64.2607 25.8033 64.277 25.752 64.277H24.688L24.149 66.825C24.1397 66.8763 24.114 66.9183 24.072 66.951C24.0347 66.9837 23.9903 67 23.939 67H23.127ZM26.584 68.33C26.5326 68.33 26.4953 68.3137 26.472 68.281C26.4486 68.2483 26.4416 68.2063 26.451 68.155L27.431 63.535C27.4403 63.4837 27.4636 63.4417 27.501 63.409C27.543 63.3763 27.5896 63.36 27.641 63.36H28.432C28.4786 63.36 28.516 63.3763 28.544 63.409C28.572 63.4417 28.5813 63.4837 28.572 63.535L28.516 63.794C28.656 63.6493 28.824 63.5303 29.02 63.437C29.2206 63.339 29.4516 63.29 29.713 63.29C29.9463 63.29 30.1446 63.3273 30.308 63.402C30.4713 63.472 30.5996 63.577 30.693 63.717C30.791 63.857 30.8516 64.0273 30.875 64.228C30.903 64.4287 30.896 64.6597 30.854 64.921C30.8353 65.0143 30.8166 65.1007 30.798 65.18C30.784 65.2593 30.7653 65.3457 30.742 65.439C30.6626 65.7703 30.5366 66.0573 30.364 66.3C30.1913 66.5427 29.9813 66.7317 29.734 66.867C29.4913 67.0023 29.216 67.07 28.908 67.07C28.6793 67.07 28.4856 67.0303 28.327 66.951C28.173 66.867 28.0586 66.7503 27.984 66.601L27.655 68.155C27.6456 68.2063 27.62 68.2483 27.578 68.281C27.536 68.3137 27.4893 68.33 27.438 68.33H26.584ZM28.726 66.132C28.8846 66.132 29.0153 66.0993 29.118 66.034C29.2206 65.9687 29.3023 65.88 29.363 65.768C29.4283 65.656 29.4796 65.5323 29.517 65.397C29.5403 65.327 29.559 65.2547 29.573 65.18C29.5916 65.1053 29.6056 65.033 29.615 64.963C29.6336 64.8277 29.6336 64.704 29.615 64.592C29.601 64.48 29.5566 64.3913 29.482 64.326C29.4073 64.2607 29.2906 64.228 29.132 64.228C28.978 64.228 28.8473 64.263 28.74 64.333C28.6326 64.3983 28.5463 64.4847 28.481 64.592C28.4156 64.6993 28.3666 64.816 28.334 64.942C28.3106 65.0307 28.2896 65.117 28.271 65.201C28.2523 65.285 28.236 65.3737 28.222 65.467C28.2033 65.5837 28.2056 65.6933 28.229 65.796C28.2523 65.894 28.3036 65.9757 28.383 66.041C28.467 66.1017 28.5813 66.132 28.726 66.132ZM33.016 67.07C32.792 67.07 32.5936 67.035 32.421 66.965C32.253 66.8903 32.1176 66.783 32.015 66.643C31.9123 66.4983 31.8446 66.3257 31.812 66.125C31.7793 65.9197 31.784 65.6863 31.826 65.425C31.8446 65.3317 31.861 65.25 31.875 65.18C31.889 65.1053 31.9076 65.0237 31.931 64.935C31.9916 64.683 32.0756 64.4567 32.183 64.256C32.2903 64.0553 32.4186 63.8827 32.568 63.738C32.7173 63.5933 32.89 63.4837 33.086 63.409C33.2866 63.3297 33.506 63.29 33.744 63.29C34.0286 63.29 34.2433 63.332 34.388 63.416C34.5373 63.4953 34.6563 63.5957 34.745 63.717L34.78 63.535C34.7893 63.4837 34.8126 63.4417 34.85 63.409C34.892 63.3763 34.9386 63.36 34.99 63.36H35.774C35.8206 63.36 35.858 63.3763 35.886 63.409C35.914 63.4417 35.9233 63.4837 35.914 63.535L35.221 66.825C35.2116 66.8763 35.186 66.9183 35.144 66.951C35.102 66.9837 35.0576 67 35.011 67H34.22C34.1733 67 34.136 66.9837 34.108 66.951C34.08 66.9183 34.0706 66.8763 34.08 66.825L34.129 66.601C33.9843 66.7363 33.828 66.8483 33.66 66.937C33.4966 67.0257 33.282 67.07 33.016 67.07ZM33.499 66.132C33.6576 66.132 33.7906 66.0993 33.898 66.034C34.0053 65.964 34.094 65.8753 34.164 65.768C34.234 65.6607 34.283 65.544 34.311 65.418C34.339 65.3247 34.36 65.236 34.374 65.152C34.3926 65.068 34.409 64.9817 34.423 64.893C34.4463 64.7763 34.4463 64.669 34.423 64.571C34.4043 64.4683 34.3553 64.3867 34.276 64.326C34.2013 64.2607 34.0893 64.228 33.94 64.228C33.7953 64.228 33.6716 64.2607 33.569 64.326C33.4663 64.3913 33.3823 64.48 33.317 64.592C33.2563 64.704 33.205 64.8277 33.163 64.963C33.1443 65.033 33.1256 65.1053 33.107 65.18C33.0883 65.2547 33.0743 65.327 33.065 65.397C33.0463 65.5323 33.0416 65.656 33.051 65.768C33.065 65.88 33.107 65.9687 33.177 66.034C33.247 66.0993 33.3543 66.132 33.499 66.132ZM36.9358 67C36.8845 67 36.8448 66.9837 36.8168 66.951C36.7888 66.9183 36.7795 66.8763 36.7888 66.825L37.4958 63.535C37.5051 63.4837 37.5285 63.4417 37.5658 63.409C37.6078 63.3763 37.6545 63.36 37.7058 63.36H38.5318C38.5785 63.36 38.6158 63.3763 38.6438 63.409C38.6718 63.4417 38.6811 63.4837 38.6718 63.535L38.4198 64.697H39.6798L39.9318 63.535C39.9411 63.4837 39.9645 63.4417 40.0018 63.409C40.0438 63.3763 40.0905 63.36 40.1418 63.36H40.9678C41.0145 63.36 41.0518 63.3763 41.0798 63.409C41.1078 63.4417 41.1171 63.4837 41.1078 63.535L40.4078 66.825C40.3985 66.8763 40.3728 66.9183 40.3308 66.951C40.2888 66.9837 40.2445 67 40.1978 67H39.3718C39.3205 67 39.2808 66.9837 39.2528 66.951C39.2248 66.9183 39.2155 66.8763 39.2248 66.825L39.4838 65.614H38.2308L37.9718 66.825C37.9625 66.8763 37.9368 66.9183 37.8948 66.951C37.8528 66.9837 37.8085 67 37.7618 67H36.9358ZM43.5767 67.07C43.2547 67.07 42.9677 67.007 42.7157 66.881C42.4637 66.755 42.277 66.573 42.1557 66.335C42.0343 66.0923 42.0017 65.803 42.0577 65.467C42.0717 65.3923 42.0903 65.299 42.1137 65.187C42.137 65.0703 42.158 64.9747 42.1767 64.9C42.3027 64.3913 42.5453 63.997 42.9047 63.717C43.2687 63.4323 43.7213 63.29 44.2627 63.29C44.5753 63.29 44.839 63.3367 45.0537 63.43C45.2683 63.5187 45.4387 63.633 45.5647 63.773C45.6907 63.913 45.777 64.0553 45.8237 64.2C45.875 64.34 45.8937 64.4637 45.8797 64.571C45.875 64.6177 45.8517 64.6597 45.8097 64.697C45.7677 64.7297 45.7233 64.746 45.6767 64.746H44.7737C44.727 64.746 44.6897 64.7343 44.6617 64.711C44.6383 64.6877 44.622 64.6503 44.6127 64.599C44.6033 64.459 44.5613 64.3563 44.4867 64.291C44.4167 64.2257 44.3117 64.193 44.1717 64.193C43.985 64.193 43.824 64.2537 43.6887 64.375C43.558 64.4963 43.46 64.683 43.3947 64.935C43.376 65.0237 43.3573 65.1123 43.3387 65.201C43.32 65.285 43.3037 65.362 43.2897 65.432C43.2477 65.6887 43.2617 65.8753 43.3317 65.992C43.4017 66.1087 43.53 66.167 43.7167 66.167C43.8613 66.167 43.985 66.1367 44.0877 66.076C44.195 66.0153 44.286 65.9127 44.3607 65.768C44.3933 65.7213 44.426 65.6863 44.4587 65.663C44.4913 65.6397 44.531 65.628 44.5777 65.628H45.4807C45.5273 65.628 45.5647 65.6467 45.5927 65.684C45.6207 65.7167 45.6277 65.7563 45.6137 65.803C45.5857 65.8963 45.5273 66.0153 45.4387 66.16C45.3547 66.3 45.231 66.44 45.0677 66.58C44.909 66.72 44.706 66.8367 44.4587 66.93C44.216 67.0233 43.922 67.07 43.5767 67.07ZM46.9218 67C46.8704 67 46.8308 66.9837 46.8028 66.951C46.7794 66.9183 46.7701 66.8763 46.7748 66.825L47.4818 63.535C47.4911 63.4837 47.5144 63.4417 47.5518 63.409C47.5938 63.3763 47.6404 63.36 47.6918 63.36H50.8978C50.9491 63.36 50.9888 63.3763 51.0168 63.409C51.0448 63.4417 51.0541 63.4837 51.0448 63.535L50.3378 66.825C50.3284 66.8763 50.3028 66.9183 50.2608 66.951C50.2234 66.9837 50.1791 67 50.1278 67H49.3018C49.2551 67 49.2178 66.9837 49.1898 66.951C49.1618 66.9183 49.1524 66.8763 49.1618 66.825L49.7008 64.277H48.4968L47.9578 66.825C47.9484 66.8763 47.9228 66.9183 47.8808 66.951C47.8388 66.9837 47.7944 67 47.7477 67H46.9218ZM53.5569 67.07C53.1836 67.07 52.8709 67.007 52.6189 66.881C52.3669 66.755 52.1849 66.5753 52.0729 66.342C51.9656 66.104 51.9376 65.8217 51.9889 65.495C51.9983 65.4017 52.0146 65.2967 52.0379 65.18C52.0659 65.0587 52.0939 64.9537 52.1219 64.865C52.2106 64.5337 52.3459 64.2513 52.5279 64.018C52.7099 63.7847 52.9433 63.605 53.2279 63.479C53.5126 63.353 53.8509 63.29 54.2429 63.29C54.6116 63.29 54.9219 63.353 55.1739 63.479C55.4259 63.605 55.6103 63.7847 55.7269 64.018C55.8436 64.2513 55.8763 64.5337 55.8249 64.865C55.8063 64.9537 55.7853 65.0587 55.7619 65.18C55.7386 65.2967 55.7153 65.4017 55.6919 65.495C55.6033 65.8217 55.4703 66.104 55.2929 66.342C55.1156 66.5753 54.8846 66.755 54.5999 66.881C54.3153 67.007 53.9676 67.07 53.5569 67.07ZM53.6619 66.216C53.8719 66.216 54.0423 66.153 54.1729 66.027C54.3036 65.901 54.4016 65.712 54.4669 65.46C54.4856 65.39 54.5066 65.2967 54.5299 65.18C54.5579 65.0633 54.5766 64.97 54.5859 64.9C54.6279 64.6527 54.6163 64.466 54.5509 64.34C54.4856 64.2093 54.3479 64.144 54.1379 64.144C53.9373 64.144 53.7693 64.2093 53.6339 64.34C53.5033 64.466 53.4076 64.6527 53.3469 64.9C53.3283 64.97 53.3049 65.0633 53.2769 65.18C53.2536 65.2967 53.2373 65.39 53.2279 65.46C53.1859 65.712 53.1953 65.901 53.2559 66.027C53.3213 66.153 53.4566 66.216 53.6619 66.216ZM56.8426 68.33C56.7912 68.33 56.7539 68.3137 56.7306 68.281C56.7072 68.2483 56.7002 68.2063 56.7096 68.155L57.6896 63.535C57.6989 63.4837 57.7222 63.4417 57.7596 63.409C57.8016 63.3763 57.8482 63.36 57.8996 63.36H58.6906C58.7372 63.36 58.7746 63.3763 58.8026 63.409C58.8306 63.4417 58.8399 63.4837 58.8306 63.535L58.7746 63.794C58.9146 63.6493 59.0826 63.5303 59.2786 63.437C59.4792 63.339 59.7102 63.29 59.9716 63.29C60.2049 63.29 60.4032 63.3273 60.5666 63.402C60.7299 63.472 60.8582 63.577 60.9516 63.717C61.0496 63.857 61.1102 64.0273 61.1336 64.228C61.1616 64.4287 61.1546 64.6597 61.1126 64.921C61.0939 65.0143 61.0752 65.1007 61.0566 65.18C61.0426 65.2593 61.0239 65.3457 61.0006 65.439C60.9212 65.7703 60.7952 66.0573 60.6226 66.3C60.4499 66.5427 60.2399 66.7317 59.9926 66.867C59.7499 67.0023 59.4746 67.07 59.1666 67.07C58.9379 67.07 58.7442 67.0303 58.5856 66.951C58.4316 66.867 58.3172 66.7503 58.2426 66.601L57.9136 68.155C57.9042 68.2063 57.8786 68.2483 57.8366 68.281C57.7946 68.3137 57.7479 68.33 57.6966 68.33H56.8426ZM58.9846 66.132C59.1432 66.132 59.2739 66.0993 59.3766 66.034C59.4792 65.9687 59.5609 65.88 59.6216 65.768C59.6869 65.656 59.7382 65.5323 59.7756 65.397C59.7989 65.327 59.8176 65.2547 59.8316 65.18C59.8502 65.1053 59.8642 65.033 59.8736 64.963C59.8922 64.8277 59.8922 64.704 59.8736 64.592C59.8596 64.48 59.8152 64.3913 59.7406 64.326C59.6659 64.2607 59.5492 64.228 59.3906 64.228C59.2366 64.228 59.1059 64.263 58.9986 64.333C58.8912 64.3983 58.8049 64.4847 58.7396 64.592C58.6742 64.6993 58.6252 64.816 58.5926 64.942C58.5692 65.0307 58.5482 65.117 58.5296 65.201C58.5109 65.285 58.4946 65.3737 58.4806 65.467C58.4619 65.5837 58.4642 65.6933 58.4876 65.796C58.5109 65.894 58.5622 65.9757 58.6416 66.041C58.7256 66.1017 58.8399 66.132 58.9846 66.132ZM63.0366 67C62.9899 67 62.9526 66.9837 62.9246 66.951C62.8966 66.9183 62.8872 66.8763 62.8966 66.825L63.4426 64.277H62.3786C62.3272 64.277 62.2876 64.2607 62.2596 64.228C62.2362 64.1953 62.2292 64.1533 62.2386 64.102L62.3646 63.535C62.3739 63.4837 62.3972 63.4417 62.4346 63.409C62.4766 63.3763 62.5209 63.36 62.5676 63.36H65.8576C65.9042 63.36 65.9416 63.3763 65.9696 63.409C65.9976 63.4417 66.0069 63.4837 65.9976 63.535L65.8786 64.102C65.8692 64.1533 65.8436 64.1953 65.8016 64.228C65.7596 64.2607 65.7129 64.277 65.6616 64.277H64.5976L64.0586 66.825C64.0492 66.8763 64.0236 66.9183 63.9816 66.951C63.9442 66.9837 63.8999 67 63.8486 67H63.0366Z" fill="black"/>
<path d="M22.5219 103.085C22.4219 103.085 22.3469 103.05 22.2969 102.98C22.2369 102.92 22.2169 102.835 22.2369 102.725L22.9269 99.485C22.9469 99.385 23.0019 99.3 23.0919 99.23C23.1719 99.16 23.2619 99.125 23.3619 99.125H23.6619C23.9019 99.125 24.1319 99.015 24.3519 98.795C24.5719 98.565 24.7819 98.235 24.9819 97.805C25.1819 97.365 25.3769 96.825 25.5669 96.185C25.7569 95.545 25.9419 94.815 26.1219 93.995L26.7669 90.86C26.7869 90.76 26.8369 90.675 26.9169 90.605C27.0069 90.535 27.1069 90.5 27.2169 90.5H33.6519C33.7619 90.5 33.8419 90.535 33.8919 90.605C33.9519 90.675 33.9719 90.765 33.9519 90.875L32.1969 99.125H32.9169C33.0269 99.125 33.1069 99.16 33.1569 99.23C33.2169 99.3 33.2369 99.385 33.2169 99.485L32.5269 102.725C32.5069 102.835 32.4519 102.92 32.3619 102.98C32.2819 103.05 32.1869 103.085 32.0769 103.085H30.7269C30.6169 103.085 30.5369 103.05 30.4869 102.98C30.4369 102.92 30.4219 102.835 30.4419 102.725L30.8019 101H24.6819L24.3219 102.725C24.3019 102.835 24.2469 102.92 24.1569 102.98C24.0769 103.05 23.9819 103.085 23.8719 103.085H22.5219ZM26.2119 99.125H30.1119L31.5519 92.375H28.4769L28.0719 94.265C27.8119 95.505 27.5269 96.52 27.2169 97.31C26.9169 98.09 26.5819 98.695 26.2119 99.125ZM36.4276 101C36.3176 101 36.2326 100.965 36.1726 100.895C36.1226 100.825 36.1076 100.735 36.1276 100.625L38.2126 90.875C38.2326 90.765 38.2826 90.675 38.3626 90.605C38.4526 90.535 38.5476 90.5 38.6476 90.5H40.0126C40.1126 90.5 40.1876 90.535 40.2376 90.605C40.2976 90.675 40.3176 90.765 40.2976 90.875L38.8276 97.805L45.2626 90.74C45.3126 90.69 45.3726 90.64 45.4426 90.59C45.5226 90.53 45.6226 90.5 45.7426 90.5H46.9876C47.0876 90.5 47.1626 90.535 47.2126 90.605C47.2726 90.675 47.2926 90.765 47.2726 90.875L45.1876 100.64C45.1676 100.74 45.1176 100.825 45.0376 100.895C44.9576 100.965 44.8676 101 44.7676 101H43.4026C43.3026 101 43.2226 100.965 43.1626 100.895C43.1026 100.825 43.0826 100.74 43.1026 100.64L44.5576 93.86L38.1526 100.76C38.1226 100.8 38.0676 100.85 37.9876 100.91C37.9076 100.97 37.8026 101 37.6726 101H36.4276ZM49.3241 101C49.2141 101 49.1291 100.965 49.0691 100.895C49.0191 100.825 49.0041 100.74 49.0241 100.64L51.1091 90.875C51.1291 90.765 51.1791 90.675 51.2591 90.605C51.3391 90.535 51.4341 90.5 51.5441 90.5H55.7741C56.5141 90.5 57.1241 90.625 57.6041 90.875C58.0941 91.115 58.4391 91.45 58.6391 91.88C58.8391 92.31 58.8791 92.81 58.7591 93.38C58.6691 93.79 58.5241 94.135 58.3241 94.415C58.1341 94.695 57.9241 94.925 57.6941 95.105C57.4641 95.275 57.2441 95.405 57.0341 95.495C57.3841 95.695 57.6641 96 57.8741 96.41C58.0941 96.82 58.1441 97.315 58.0241 97.895C57.8941 98.495 57.6641 99.03 57.3341 99.5C57.0041 99.97 56.5591 100.34 55.9991 100.61C55.4391 100.87 54.7491 101 53.9291 101H49.3241ZM51.3641 99.41H53.8691C54.3891 99.41 54.8291 99.265 55.1891 98.975C55.5491 98.675 55.7741 98.315 55.8641 97.895C55.9541 97.455 55.9041 97.09 55.7141 96.8C55.5241 96.51 55.1291 96.365 54.5291 96.365H52.0241L51.3641 99.41ZM52.3541 94.805H54.6641C55.1741 94.805 55.5991 94.68 55.9391 94.43C56.2791 94.17 56.4991 93.835 56.5991 93.425C56.6891 93.005 56.6391 92.68 56.4491 92.45C56.2591 92.21 55.9041 92.09 55.3841 92.09H52.9391L52.3541 94.805ZM64.9613 101.15C64.3513 101.15 63.7913 101.07 63.2813 100.91C62.7713 100.74 62.3463 100.485 62.0063 100.145C61.6663 99.805 61.4263 99.38 61.2863 98.87C61.1563 98.35 61.1513 97.74 61.2713 97.04C61.3413 96.61 61.4213 96.185 61.5113 95.765C61.6113 95.345 61.7113 94.915 61.8113 94.475C62.1413 93.115 62.7313 92.09 63.5813 91.4C64.4313 90.7 65.5363 90.35 66.8963 90.35C67.5163 90.35 68.0763 90.44 68.5763 90.62C69.0863 90.79 69.5113 91.05 69.8513 91.4C70.1913 91.74 70.4263 92.17 70.5563 92.69C70.6963 93.2 70.7063 93.795 70.5863 94.475C70.5163 94.915 70.4313 95.345 70.3313 95.765C70.2413 96.185 70.1463 96.61 70.0463 97.04C69.7063 98.43 69.1113 99.465 68.2613 100.145C67.4113 100.815 66.3113 101.15 64.9613 101.15ZM65.0963 99.425C65.7563 99.425 66.3363 99.235 66.8363 98.855C67.3463 98.465 67.7063 97.835 67.9163 96.965C68.0263 96.525 68.1213 96.12 68.2013 95.75C68.2813 95.37 68.3563 94.965 68.4263 94.535C68.5863 93.665 68.5163 93.04 68.2163 92.66C67.9263 92.27 67.4413 92.075 66.7613 92.075C66.0913 92.075 65.5063 92.27 65.0063 92.66C64.5163 93.04 64.1663 93.665 63.9563 94.535C63.8463 94.965 63.7513 95.37 63.6713 95.75C63.5913 96.12 63.5113 96.525 63.4313 96.965C63.2813 97.835 63.3463 98.465 63.6263 98.855C63.9163 99.235 64.4063 99.425 65.0963 99.425ZM72.901 101C72.801 101 72.721 100.965 72.661 100.895C72.611 100.825 72.596 100.74 72.616 100.64L74.701 90.875C74.721 90.765 74.771 90.675 74.851 90.605C74.931 90.535 75.021 90.5 75.121 90.5H81.241C81.351 90.5 81.436 90.535 81.496 90.605C81.556 90.675 81.576 90.765 81.556 90.875L81.316 91.925C81.296 92.025 81.246 92.11 81.166 92.18C81.086 92.25 80.991 92.285 80.881 92.285H76.486L74.701 100.64C74.681 100.74 74.631 100.825 74.551 100.895C74.471 100.965 74.376 101 74.266 101H72.901ZM82.7255 101C82.6155 101 82.5305 100.965 82.4705 100.895C82.4205 100.825 82.4055 100.74 82.4255 100.64L84.5105 90.875C84.5305 90.765 84.5805 90.675 84.6605 90.605C84.7405 90.535 84.8355 90.5 84.9455 90.5H88.7855C89.3755 90.5 89.9005 90.57 90.3605 90.71C90.8305 90.85 91.2155 91.06 91.5155 91.34C91.8155 91.62 92.0205 91.97 92.1305 92.39C92.2505 92.8 92.2505 93.28 92.1305 93.83C91.8905 94.94 91.4005 95.77 90.6605 96.32C89.9205 96.86 88.9405 97.13 87.7205 97.13H85.3205L84.5705 100.64C84.5505 100.74 84.5005 100.825 84.4205 100.895C84.3405 100.965 84.2455 101 84.1355 101H82.7255ZM85.6505 95.465H87.7655C88.3155 95.465 88.7905 95.33 89.1905 95.06C89.6005 94.78 89.8655 94.37 89.9855 93.83C90.0555 93.49 90.0705 93.2 90.0305 92.96C89.9905 92.71 89.8555 92.515 89.6255 92.375C89.4055 92.235 89.0555 92.165 88.5755 92.165H86.3555L85.6505 95.465ZM93.1378 101C93.0078 101 92.9228 100.95 92.8828 100.85C92.8328 100.75 92.8378 100.65 92.8978 100.55L98.5678 90.875C98.6278 90.775 98.7028 90.69 98.7928 90.62C98.8928 90.54 99.0178 90.5 99.1678 90.5H100.908C101.058 90.5 101.168 90.54 101.238 90.62C101.308 90.69 101.348 90.775 101.358 90.875L102.918 100.55C102.938 100.69 102.913 100.8 102.843 100.88C102.783 100.96 102.698 101 102.588 101H101.313C101.173 101 101.073 100.97 101.013 100.91C100.953 100.84 100.913 100.755 100.893 100.655L100.563 98.885H96.1078L95.0128 100.715C94.9628 100.785 94.8978 100.85 94.8178 100.91C94.7378 100.97 94.6378 101 94.5178 101H93.1378ZM96.9928 97.16H100.413L99.6928 92.525L96.9928 97.16ZM104.902 103.085C104.802 103.085 104.727 103.05 104.677 102.98C104.617 102.92 104.597 102.835 104.617 102.725L105.307 99.485C105.327 99.385 105.382 99.3 105.472 99.23C105.552 99.16 105.642 99.125 105.742 99.125H106.042C106.282 99.125 106.512 99.015 106.732 98.795C106.952 98.565 107.162 98.235 107.362 97.805C107.562 97.365 107.757 96.825 107.947 96.185C108.137 95.545 108.322 94.815 108.502 93.995L109.147 90.86C109.167 90.76 109.217 90.675 109.297 90.605C109.387 90.535 109.487 90.5 109.597 90.5H116.032C116.142 90.5 116.222 90.535 116.272 90.605C116.332 90.675 116.352 90.765 116.332 90.875L114.577 99.125H115.297C115.407 99.125 115.487 99.16 115.537 99.23C115.597 99.3 115.617 99.385 115.597 99.485L114.907 102.725C114.887 102.835 114.832 102.92 114.742 102.98C114.662 103.05 114.567 103.085 114.457 103.085H113.107C112.997 103.085 112.917 103.05 112.867 102.98C112.817 102.92 112.802 102.835 112.822 102.725L113.182 101H107.062L106.702 102.725C106.682 102.835 106.627 102.92 106.537 102.98C106.457 103.05 106.362 103.085 106.252 103.085H104.902ZM108.592 99.125H112.492L113.932 92.375H110.857L110.452 94.265C110.192 95.505 109.907 96.52 109.597 97.31C109.297 98.09 108.962 98.695 108.592 99.125ZM118.628 101C118.528 101 118.448 100.965 118.388 100.895C118.338 100.825 118.323 100.74 118.343 100.64L120.428 90.875C120.448 90.765 120.498 90.675 120.578 90.605C120.658 90.535 120.748 90.5 120.848 90.5H127.718C127.828 90.5 127.908 90.535 127.958 90.605C128.018 90.675 128.038 90.765 128.018 90.875L127.778 91.925C127.768 92.025 127.718 92.11 127.628 92.18C127.548 92.25 127.453 92.285 127.343 92.285H122.213L121.688 94.73H124.223C125.003 94.73 125.633 94.86 126.113 95.12C126.603 95.38 126.933 95.74 127.103 96.2C127.283 96.66 127.308 97.195 127.178 97.805C127.088 98.215 126.923 98.615 126.683 99.005C126.453 99.385 126.158 99.725 125.798 100.025C125.438 100.325 125.013 100.565 124.523 100.745C124.033 100.915 123.488 101 122.888 101H118.628ZM120.683 99.41H123.008C123.368 99.41 123.688 99.335 123.968 99.185C124.248 99.035 124.483 98.835 124.673 98.585C124.863 98.335 124.988 98.065 125.048 97.775C125.138 97.335 125.073 96.97 124.853 96.68C124.633 96.39 124.243 96.245 123.683 96.245H121.358L120.683 99.41ZM129.044 101C128.914 101 128.829 100.95 128.789 100.85C128.739 100.75 128.744 100.65 128.804 100.55L134.474 90.875C134.534 90.775 134.609 90.69 134.699 90.62C134.799 90.54 134.924 90.5 135.074 90.5H136.814C136.964 90.5 137.074 90.54 137.144 90.62C137.214 90.69 137.254 90.775 137.264 90.875L138.824 100.55C138.844 100.69 138.819 100.8 138.749 100.88C138.689 100.96 138.604 101 138.494 101H137.219C137.079 101 136.979 100.97 136.919 100.91C136.859 100.84 136.819 100.755 136.799 100.655L136.469 98.885H132.014L130.919 100.715C130.869 100.785 130.804 100.85 130.724 100.91C130.644 100.97 130.544 101 130.424 101H129.044ZM132.899 97.16H136.319L135.599 92.525L132.899 97.16Z" fill="black"/>
<path d="M139.478 144.915C139.578 144.915 139.653 144.95 139.703 145.02C139.763 145.08 139.783 145.165 139.763 145.275L139.073 148.515C139.053 148.615 138.998 148.7 138.908 148.77C138.828 148.84 138.738 148.875 138.638 148.875L138.338 148.875C138.098 148.875 137.868 148.985 137.648 149.205C137.428 149.435 137.218 149.765 137.018 150.195C136.818 150.635 136.623 151.175 136.433 151.815C136.243 152.455 136.058 153.185 135.878 154.005L135.233 157.14C135.213 157.24 135.163 157.325 135.083 157.395C134.993 157.465 134.893 157.5 134.783 157.5L128.348 157.5C128.238 157.5 128.158 157.465 128.108 157.395C128.048 157.325 128.028 157.235 128.048 157.125L129.803 148.875L129.083 148.875C128.973 148.875 128.893 148.84 128.843 148.77C128.783 148.7 128.763 148.615 128.783 148.515L129.473 145.275C129.493 145.165 129.548 145.08 129.638 145.02C129.718 144.95 129.813 144.915 129.923 144.915L131.273 144.915C131.383 144.915 131.463 144.95 131.513 145.02C131.563 145.08 131.578 145.165 131.558 145.275L131.198 147L137.318 147L137.678 145.275C137.698 145.165 137.753 145.08 137.843 145.02C137.923 144.95 138.018 144.915 138.128 144.915L139.478 144.915ZM135.788 148.875L131.888 148.875L130.448 155.625L133.523 155.625L133.928 153.735C134.188 152.495 134.473 151.48 134.783 150.69C135.083 149.91 135.418 149.305 135.788 148.875ZM125.572 147C125.682 147 125.767 147.035 125.827 147.105C125.877 147.175 125.892 147.265 125.872 147.375L123.787 157.125C123.767 157.235 123.717 157.325 123.637 157.395C123.547 157.465 123.452 157.5 123.352 157.5L121.987 157.5C121.887 157.5 121.812 157.465 121.762 157.395C121.702 157.325 121.682 157.235 121.702 157.125L123.172 150.195L116.737 157.26C116.687 157.31 116.627 157.36 116.557 157.41C116.477 157.47 116.377 157.5 116.257 157.5L115.012 157.5C114.912 157.5 114.837 157.465 114.787 157.395C114.727 157.325 114.707 157.235 114.727 157.125L116.812 147.36C116.832 147.26 116.882 147.175 116.962 147.105C117.042 147.035 117.132 147 117.232 147L118.597 147C118.697 147 118.777 147.035 118.837 147.105C118.897 147.175 118.917 147.26 118.897 147.36L117.442 154.14L123.847 147.24C123.877 147.2 123.932 147.15 124.012 147.09C124.092 147.03 124.197 147 124.327 147L125.572 147ZM112.676 147C112.786 147 112.871 147.035 112.931 147.105C112.981 147.175 112.996 147.26 112.976 147.36L110.891 157.125C110.871 157.235 110.821 157.325 110.741 157.395C110.661 157.465 110.566 157.5 110.456 157.5L106.226 157.5C105.486 157.5 104.876 157.375 104.396 157.125C103.906 156.885 103.561 156.55 103.361 156.12C103.161 155.69 103.121 155.19 103.241 154.62C103.331 154.21 103.476 153.865 103.676 153.585C103.866 153.305 104.076 153.075 104.306 152.895C104.536 152.725 104.756 152.595 104.966 152.505C104.616 152.305 104.336 152 104.126 151.59C103.906 151.18 103.856 150.685 103.976 150.105C104.106 149.505 104.336 148.97 104.666 148.5C104.996 148.03 105.441 147.66 106.001 147.39C106.561 147.13 107.251 147 108.071 147L112.676 147ZM110.636 148.59L108.131 148.59C107.611 148.59 107.171 148.735 106.811 149.025C106.451 149.325 106.226 149.685 106.136 150.105C106.046 150.545 106.096 150.91 106.286 151.2C106.476 151.49 106.871 151.635 107.471 151.635L109.976 151.635L110.636 148.59ZM109.646 153.195L107.336 153.195C106.826 153.195 106.401 153.32 106.061 153.57C105.721 153.83 105.501 154.165 105.401 154.575C105.311 154.995 105.361 155.32 105.551 155.55C105.741 155.79 106.096 155.91 106.616 155.91L109.061 155.91L109.646 153.195ZM97.0387 146.85C97.6487 146.85 98.2087 146.93 98.7187 147.09C99.2287 147.26 99.6537 147.515 99.9937 147.855C100.334 148.195 100.574 148.62 100.714 149.13C100.844 149.65 100.849 150.26 100.729 150.96C100.659 151.39 100.579 151.815 100.489 152.235C100.389 152.655 100.289 153.085 100.189 153.525C99.8587 154.885 99.2687 155.91 98.4187 156.6C97.5687 157.3 96.4637 157.65 95.1037 157.65C94.4837 157.65 93.9237 157.56 93.4237 157.38C92.9137 157.21 92.4887 156.95 92.1487 156.6C91.8087 156.26 91.5737 155.83 91.4437 155.31C91.3037 154.8 91.2937 154.205 91.4137 153.525C91.4837 153.085 91.5687 152.655 91.6687 152.235C91.7587 151.815 91.8537 151.39 91.9537 150.96C92.2937 149.57 92.8887 148.535 93.7387 147.855C94.5887 147.185 95.6887 146.85 97.0387 146.85ZM96.9037 148.575C96.2437 148.575 95.6637 148.765 95.1637 149.145C94.6537 149.535 94.2937 150.165 94.0837 151.035C93.9737 151.475 93.8787 151.88 93.7987 152.25C93.7187 152.63 93.6437 153.035 93.5737 153.465C93.4137 154.335 93.4837 154.96 93.7837 155.34C94.0737 155.73 94.5587 155.925 95.2387 155.925C95.9087 155.925 96.4937 155.73 96.9937 155.34C97.4837 154.96 97.8337 154.335 98.0437 153.465C98.1537 153.035 98.2487 152.63 98.3287 152.25C98.4087 151.88 98.4887 151.475 98.5687 151.035C98.7187 150.165 98.6537 149.535 98.3737 149.145C98.0837 148.765 97.5937 148.575 96.9037 148.575ZM89.099 147C89.199 147 89.279 147.035 89.339 147.105C89.389 147.175 89.404 147.26 89.384 147.36L87.299 157.125C87.279 157.235 87.229 157.325 87.149 157.395C87.069 157.465 86.979 157.5 86.879 157.5L80.759 157.5C80.649 157.5 80.564 157.465 80.504 157.395C80.444 157.325 80.424 157.235 80.444 157.125L80.684 156.075C80.704 155.975 80.754 155.89 80.834 155.82C80.914 155.75 81.009 155.715 81.119 155.715L85.514 155.715L87.299 147.36C87.319 147.26 87.369 147.175 87.449 147.105C87.529 147.035 87.624 147 87.734 147L89.099 147ZM79.2745 147C79.3845 147 79.4695 147.035 79.5295 147.105C79.5795 147.175 79.5945 147.26 79.5745 147.36L77.4895 157.125C77.4695 157.235 77.4195 157.325 77.3395 157.395C77.2595 157.465 77.1645 157.5 77.0545 157.5L73.2145 157.5C72.6245 157.5 72.0995 157.43 71.6395 157.29C71.1695 157.15 70.7845 156.94 70.4845 156.66C70.1845 156.38 69.9795 156.03 69.8695 155.61C69.7495 155.2 69.7495 154.72 69.8695 154.17C70.1095 153.06 70.5995 152.23 71.3395 151.68C72.0795 151.14 73.0595 150.87 74.2795 150.87L76.6795 150.87L77.4295 147.36C77.4495 147.26 77.4995 147.175 77.5795 147.105C77.6595 147.035 77.7545 147 77.8645 147L79.2745 147ZM76.3495 152.535L74.2345 152.535C73.6845 152.535 73.2095 152.67 72.8095 152.94C72.3995 153.22 72.1345 153.63 72.0145 154.17C71.9445 154.51 71.9295 154.8 71.9695 155.04C72.0095 155.29 72.1445 155.485 72.3745 155.625C72.5945 155.765 72.9445 155.835 73.4245 155.835L75.6445 155.835L76.3495 152.535ZM68.8622 147C68.9922 147 69.0772 147.05 69.1172 147.15C69.1672 147.25 69.1622 147.35 69.1022 147.45L63.4322 157.125C63.3722 157.225 63.2972 157.31 63.2072 157.38C63.1072 157.46 62.9822 157.5 62.8322 157.5L61.0922 157.5C60.9422 157.5 60.8322 157.46 60.7622 157.38C60.6922 157.31 60.6522 157.225 60.6422 157.125L59.0822 147.45C59.0622 147.31 59.0872 147.2 59.1572 147.12C59.2172 147.04 59.3022 147 59.4122 147L60.6872 147C60.8272 147 60.9272 147.03 60.9872 147.09C61.0472 147.16 61.0872 147.245 61.1072 147.345L61.4372 149.115L65.8922 149.115L66.9872 147.285C67.0372 147.215 67.1022 147.15 67.1822 147.09C67.2622 147.03 67.3622 147 67.4822 147L68.8622 147ZM65.0072 150.84L61.5872 150.84L62.3072 155.475L65.0072 150.84ZM57.0982 144.915C57.1982 144.915 57.2732 144.95 57.3232 145.02C57.3832 145.08 57.4032 145.165 57.3832 145.275L56.6932 148.515C56.6732 148.615 56.6182 148.7 56.5282 148.77C56.4482 148.84 56.3582 148.875 56.2582 148.875L55.9582 148.875C55.7182 148.875 55.4882 148.985 55.2682 149.205C55.0482 149.435 54.8382 149.765 54.6382 150.195C54.4382 150.635 54.2432 151.175 54.0532 151.815C53.8632 152.455 53.6782 153.185 53.4982 154.005L52.8532 157.14C52.8332 157.24 52.7832 157.325 52.7032 157.395C52.6132 157.465 52.5132 157.5 52.4032 157.5L45.9682 157.5C45.8582 157.5 45.7782 157.465 45.7282 157.395C45.6682 157.325 45.6482 157.235 45.6682 157.125L47.4232 148.875L46.7032 148.875C46.5932 148.875 46.5132 148.84 46.4632 148.77C46.4032 148.7 46.3832 148.615 46.4032 148.515L47.0932 145.275C47.1132 145.165 47.1682 145.08 47.2582 145.02C47.3382 144.95 47.4332 144.915 47.5432 144.915L48.8932 144.915C49.0032 144.915 49.0832 144.95 49.1332 145.02C49.1832 145.08 49.1982 145.165 49.1782 145.275L48.8182 147L54.9382 147L55.2982 145.275C55.3182 145.165 55.3732 145.08 55.4632 145.02C55.5432 144.95 55.6382 144.915 55.7482 144.915L57.0982 144.915ZM53.4082 148.875L49.5082 148.875L48.0682 155.625L51.1432 155.625L51.5482 153.735C51.8082 152.495 52.0932 151.48 52.4032 150.69C52.7032 149.91 53.0382 149.305 53.4082 148.875ZM43.3725 147C43.4725 147 43.5525 147.035 43.6125 147.105C43.6625 147.175 43.6775 147.26 43.6575 147.36L41.5725 157.125C41.5525 157.235 41.5025 157.325 41.4225 157.395C41.3425 157.465 41.2525 157.5 41.1525 157.5L34.2825 157.5C34.1725 157.5 34.0925 157.465 34.0425 157.395C33.9825 157.325 33.9625 157.235 33.9825 157.125L34.2225 156.075C34.2325 155.975 34.2825 155.89 34.3725 155.82C34.4525 155.75 34.5475 155.715 34.6575 155.715L39.7875 155.715L40.3125 153.27L37.7775 153.27C36.9975 153.27 36.3675 153.14 35.8875 152.88C35.3975 152.62 35.0675 152.26 34.8975 151.8C34.7175 151.34 34.6925 150.805 34.8225 150.195C34.9125 149.785 35.0775 149.385 35.3175 148.995C35.5475 148.615 35.8425 148.275 36.2025 147.975C36.5625 147.675 36.9875 147.435 37.4775 147.255C37.9675 147.085 38.5125 147 39.1125 147L43.3725 147ZM41.3175 148.59L38.9925 148.59C38.6325 148.59 38.3125 148.665 38.0325 148.815C37.7525 148.965 37.5175 149.165 37.3275 149.415C37.1375 149.665 37.0125 149.935 36.9525 150.225C36.8625 150.665 36.9275 151.03 37.1475 151.32C37.3675 151.61 37.7575 151.755 38.3175 151.755L40.6425 151.755L41.3175 148.59ZM32.9559 147C33.0859 147 33.1709 147.05 33.2109 147.15C33.2609 147.25 33.2559 147.35 33.1959 147.45L27.5259 157.125C27.4659 157.225 27.3909 157.31 27.3009 157.38C27.2009 157.46 27.0759 157.5 26.9259 157.5L25.1859 157.5C25.0359 157.5 24.9259 157.46 24.8559 157.38C24.7859 157.31 24.7459 157.225 24.7359 157.125L23.1759 147.45C23.1559 147.31 23.1809 147.2 23.2509 147.12C23.3109 147.04 23.3959 147 23.5059 147L24.7809 147C24.9209 147 25.0209 147.03 25.0809 147.09C25.1409 147.16 25.1809 147.245 25.2009 147.345L25.5309 149.115L29.9859 149.115L31.0809 147.285C31.1309 147.215 31.1959 147.15 31.2759 147.09C31.3559 147.03 31.4559 147 31.5759 147L32.9559 147ZM29.1009 150.84L25.6809 150.84L26.4009 155.475L29.1009 150.84Z" fill="black"/>
<path d="M25.4368 35.1743C25.2774 35.1743 25.147 35.1236 25.0456 35.0222C24.9442 34.9208 24.8935 34.7904 24.8935 34.631V33.327C24.8935 33.2111 24.9224 33.0589 24.9804 32.8706C25.0528 32.6677 25.205 32.4721 25.4368 32.2838L28.3056 29.4367C29.3633 28.6253 30.2181 27.9371 30.8701 27.372C31.5366 26.807 32.0293 26.2926 32.348 25.829C32.6668 25.3653 32.8261 24.9162 32.8261 24.4815C32.8261 23.9164 32.6668 23.4528 32.348 23.0905C32.0437 22.7138 31.5439 22.5255 30.8484 22.5255C30.3848 22.5255 29.9936 22.6269 29.6748 22.8297C29.3705 23.0181 29.1315 23.2717 28.9576 23.5904C28.7837 23.9092 28.6678 24.2569 28.6099 24.6336C28.5664 24.822 28.4722 24.9524 28.3273 25.0248C28.1969 25.0973 28.0593 25.1335 27.9144 25.1335H25.6107C25.4658 25.1335 25.3499 25.09 25.2629 25.0031C25.176 24.9017 25.1325 24.793 25.1325 24.6771C25.147 24.0106 25.2847 23.3803 25.5455 22.7863C25.8207 22.1922 26.2047 21.6634 26.6973 21.1997C27.1899 20.7361 27.784 20.3739 28.4795 20.1131C29.1749 19.8378 29.9646 19.7001 30.8484 19.7001C32.0655 19.7001 33.0869 19.903 33.9128 20.3087C34.7387 20.6999 35.3617 21.2432 35.7819 21.9387C36.2021 22.6341 36.4122 23.4383 36.4122 24.3511C36.4122 25.0466 36.2673 25.6913 35.9775 26.2854C35.7022 26.8794 35.2965 27.4517 34.7604 28.0023C34.2243 28.5384 33.5868 29.0962 32.8479 29.6758L30.2833 32.2403H36.1948C36.3542 32.2403 36.4846 32.291 36.586 32.3924C36.6874 32.4939 36.7382 32.6243 36.7382 32.7836V34.631C36.7382 34.7904 36.6874 34.9208 36.586 35.0222C36.4846 35.1236 36.3542 35.1743 36.1948 35.1743H25.4368Z" fill="#FBFBFB"/>
<path d="M39.989 27C39.913 27 39.8497 26.9747 39.799 26.924C39.7483 26.8733 39.723 26.8099 39.723 26.7339V20.6647C39.723 20.5971 39.7483 20.538 39.799 20.4873C39.8497 20.4366 39.9088 20.4113 39.9764 20.4113H41.2181C41.3701 20.4113 41.4884 20.4873 41.5729 20.6394L43.4228 23.9464L45.26 20.6394C45.3445 20.4873 45.4627 20.4113 45.6148 20.4113H46.8692C46.9367 20.4113 46.9959 20.4366 47.0466 20.4873C47.0972 20.538 47.1226 20.5971 47.1226 20.6647V26.7339C47.1226 26.8099 47.0972 26.8733 47.0466 26.924C46.9959 26.9747 46.9325 27 46.8565 27H45.5261C45.4416 27 45.374 26.9747 45.3234 26.924C45.2811 26.8733 45.26 26.8099 45.26 26.7339V22.3626L45.8302 22.4766L44.031 25.7076C43.9887 25.7836 43.938 25.8512 43.8789 25.9103C43.8282 25.9695 43.7522 25.999 43.6508 25.999H43.182C43.0891 25.999 43.0131 25.9737 42.954 25.923C42.8948 25.8639 42.8399 25.7921 42.7892 25.7076L41.0407 22.5906L41.5729 22.4766V26.7339C41.5729 26.8099 41.5475 26.8733 41.4968 26.924C41.4462 26.9747 41.3828 27 41.3068 27H39.989Z" fill="#FBFBFB"/>
<path d="M153 228C153 233.523 148.523 238 143 238L18 238C12.4771 238 8 233.523 8 228L8 201C8 199.895 8.89543 199 10 199L151 199C152.105 199 153 199.895 153 201L153 228Z" fill="#A337FF"/>
<path d="M152.5 228C152.5 233.247 148.247 237.5 143 237.5L18 237.5C12.7533 237.5 8.5 233.247 8.5 228L8.5 201C8.5 200.172 9.17157 199.5 10 199.5L151 199.5C151.828 199.5 152.5 200.172 152.5 201L152.5 228Z" stroke="black" stroke-opacity="0.3"/>
<path d="M101.714 219C101.795 219 101.861 219.026 101.912 219.077C101.956 219.136 101.971 219.205 101.956 219.286L100.438 226.414C100.423 226.495 100.383 226.561 100.317 226.612C100.244 226.671 100.167 226.7 100.086 226.7L96.764 226.7C96.1333 226.7 95.609 226.612 95.191 226.436C94.7657 226.26 94.465 226.007 94.289 225.677C94.1057 225.347 94.0653 224.94 94.168 224.456C94.2193 224.199 94.3183 223.972 94.465 223.774C94.6043 223.583 94.7583 223.426 94.927 223.301C95.0883 223.176 95.235 223.085 95.367 223.026C95.1103 222.894 94.9087 222.681 94.762 222.388C94.6153 222.095 94.5823 221.757 94.663 221.376C94.773 220.863 94.9637 220.43 95.235 220.078C95.499 219.726 95.8547 219.458 96.302 219.275C96.742 219.092 97.2847 219 97.93 219L101.714 219ZM99.294 220.661L98.018 220.661C97.7687 220.661 97.5707 220.734 97.424 220.881C97.27 221.035 97.1747 221.204 97.138 221.387C97.0867 221.578 97.105 221.743 97.193 221.882C97.281 222.029 97.4533 222.102 97.71 222.102L98.986 222.102L99.294 220.661ZM98.645 223.719L97.479 223.719C97.2517 223.719 97.0683 223.785 96.929 223.917C96.7823 224.049 96.687 224.203 96.643 224.379C96.6137 224.555 96.6357 224.709 96.709 224.841C96.7823 224.973 96.9327 225.039 97.16 225.039L98.359 225.039L98.645 223.719ZM88.9238 219C89.0044 219 89.0668 219.026 89.1108 219.077C89.1548 219.136 89.1694 219.205 89.1548 219.286L88.0218 224.61L89.7598 224.61L89.9138 223.939C90.0971 223.052 90.2988 222.296 90.5188 221.673C90.7314 221.05 90.9918 220.54 91.2998 220.144C91.6004 219.755 91.9818 219.469 92.4438 219.286C92.9058 219.103 93.4814 219.007 94.1708 219C94.2514 219 94.3138 219.029 94.3578 219.088C94.4091 219.147 94.4274 219.213 94.4128 219.286L94.1048 220.738C94.0754 220.899 93.9618 220.995 93.7638 221.024C93.5584 221.061 93.3751 221.167 93.2138 221.343C93.0524 221.526 92.9058 221.761 92.7738 222.047C92.6418 222.333 92.5244 222.663 92.4218 223.037C92.3118 223.418 92.2091 223.822 92.1138 224.247L91.6518 226.414C91.6371 226.495 91.5968 226.561 91.5308 226.612C91.4648 226.671 91.3914 226.7 91.3108 226.7L85.5028 226.7C85.4221 226.7 85.3597 226.671 85.3158 226.612C85.2718 226.561 85.2571 226.495 85.2717 226.414L86.7898 219.286C86.8044 219.205 86.8448 219.136 86.9108 219.077C86.9768 219.026 87.0501 219 87.1308 219L88.9238 219ZM83.4988 219C83.5721 219 83.6344 219.026 83.6858 219.077C83.7298 219.136 83.7444 219.205 83.7298 219.286L82.5748 224.654L84.4668 224.654C84.5474 224.654 84.6134 224.68 84.6648 224.731C84.7088 224.79 84.7234 224.859 84.7088 224.94L84.3898 226.414C84.3751 226.495 84.3348 226.561 84.2688 226.612C84.1954 226.671 84.1221 226.7 84.0488 226.7L77.8668 226.7C77.7861 226.7 77.7238 226.671 77.6798 226.612C77.6284 226.561 77.6101 226.495 77.6248 226.414L77.9438 224.94C77.9584 224.859 77.9988 224.79 78.0648 224.731C78.1308 224.68 78.2041 224.654 78.2848 224.654L80.1768 224.654L81.3318 219.286C81.3464 219.205 81.3868 219.136 81.4528 219.077C81.5188 219.026 81.5921 219 81.6728 219L83.4988 219ZM101.714 206C101.795 206 101.861 206.026 101.912 206.077C101.956 206.136 101.971 206.205 101.956 206.286L100.438 213.414C100.423 213.495 100.383 213.561 100.317 213.612C100.244 213.671 100.167 213.7 100.086 213.7L98.623 213.7C98.491 213.7 98.3993 213.663 98.348 213.59C98.2893 213.517 98.2563 213.465 98.249 213.436L97.127 210.378L94.718 213.436C94.6887 213.465 94.6337 213.517 94.553 213.59C94.4723 213.663 94.366 213.7 94.234 213.7L92.771 213.7C92.6903 213.7 92.628 213.671 92.584 213.612C92.54 213.561 92.5253 213.495 92.54 213.414L94.058 206.286C94.0727 206.205 94.113 206.136 94.179 206.077C94.245 206.026 94.3183 206 94.399 206L96.06 206C96.1407 206 96.203 206.026 96.247 206.077C96.291 206.136 96.3057 206.205 96.291 206.286L95.543 209.817L96.874 208.112C96.9253 208.053 96.9877 207.995 97.061 207.936C97.1343 207.877 97.2223 207.848 97.325 207.848L97.996 207.848C98.0987 207.848 98.1757 207.877 98.227 207.936C98.271 207.995 98.304 208.053 98.326 208.112L98.964 209.872L99.723 206.286C99.7377 206.205 99.778 206.136 99.844 206.077C99.91 206.026 99.9833 206 100.064 206L101.714 206ZM90.6282 205.89C90.9656 205.89 91.2699 205.941 91.5412 206.044C91.8052 206.147 92.0252 206.304 92.2012 206.517C92.3699 206.73 92.4836 206.997 92.5422 207.32C92.6009 207.643 92.5936 208.02 92.5202 208.453C92.4909 208.614 92.4652 208.754 92.4432 208.871C92.4139 208.988 92.3809 209.124 92.3442 209.278C92.2416 209.689 92.1022 210.052 91.9262 210.367C91.7502 210.69 91.5412 210.957 91.2992 211.17C91.0572 211.383 90.7859 211.544 90.4852 211.654C90.1772 211.771 89.8436 211.83 89.4842 211.83C89.0516 211.83 88.7216 211.771 88.4942 211.654C88.2596 211.544 88.0762 211.401 87.9442 211.225L87.8892 211.434C87.8746 211.515 87.8342 211.581 87.7682 211.632C87.7022 211.691 87.6326 211.72 87.5592 211.72L86.0082 211.72C85.9276 211.72 85.8652 211.691 85.8212 211.632C85.7772 211.581 85.7626 211.515 85.7772 211.434L86.8662 206.286C86.8809 206.205 86.9212 206.136 86.9872 206.077C87.0532 206.026 87.1266 206 87.2072 206L88.7582 206C88.8389 206 88.9049 206.026 88.9562 206.077C89.0002 206.136 89.0149 206.205 89.0002 206.286L88.9342 206.594C89.1542 206.381 89.3926 206.209 89.6492 206.077C89.9059 205.952 90.2322 205.89 90.6282 205.89ZM89.6382 207.606C89.4476 207.606 89.2899 207.646 89.1652 207.727C89.0332 207.808 88.9269 207.914 88.8462 208.046C88.7656 208.178 88.7032 208.325 88.6592 208.486C88.6152 208.647 88.5822 208.787 88.5602 208.904C88.5309 209.021 88.5052 209.157 88.4832 209.311C88.4612 209.465 88.4649 209.601 88.4942 209.718C88.5162 209.835 88.5749 209.931 88.6702 210.004C88.7656 210.077 88.9012 210.114 89.0772 210.114C89.2606 210.114 89.4146 210.074 89.5392 209.993C89.6639 209.92 89.7666 209.813 89.8472 209.674C89.9206 209.542 89.9829 209.388 90.0342 209.212C90.0636 209.102 90.0929 208.985 90.1222 208.86C90.1516 208.735 90.1736 208.618 90.1882 208.508C90.2102 208.332 90.2139 208.174 90.1992 208.035C90.1846 207.903 90.1332 207.797 90.0452 207.716C89.9572 207.643 89.8216 207.606 89.6382 207.606ZM85.4189 206C85.4995 206 85.5619 206.026 85.6059 206.077C85.6499 206.136 85.6645 206.205 85.6499 206.286L84.5499 211.434C84.5352 211.515 84.4949 211.581 84.4289 211.632C84.3629 211.691 84.2895 211.72 84.2089 211.72L82.6139 211.72C82.5332 211.72 82.4709 211.691 82.4269 211.632C82.3829 211.581 82.3682 211.515 82.3829 211.434L82.7459 209.74L82.3609 209.74L80.9089 211.533C80.8795 211.57 80.8392 211.61 80.7879 211.654C80.7292 211.698 80.6522 211.72 80.5569 211.72L78.7859 211.72C78.7125 211.72 78.6575 211.694 78.6209 211.643C78.5842 211.599 78.5695 211.544 78.5769 211.478C78.5842 211.427 78.6135 211.372 78.6649 211.313L80.7439 208.794L79.6329 206.385C79.6255 206.37 79.6182 206.352 79.6109 206.33C79.6035 206.308 79.6035 206.279 79.6109 206.242C79.6182 206.176 79.6549 206.117 79.7209 206.066C79.7795 206.022 79.8455 206 79.9189 206L81.6569 206C81.7375 206 81.8035 206.015 81.8549 206.044C81.8989 206.081 81.9319 206.125 81.9539 206.176L82.7239 208.046L83.0979 208.046L83.4829 206.286C83.4975 206.205 83.5379 206.136 83.6039 206.077C83.6699 206.026 83.7432 206 83.8239 206L85.4189 206ZM75.8842 205.89C76.4929 205.89 77.0025 205.993 77.4132 206.198C77.8165 206.411 78.0952 206.73 78.2492 207.155C78.4032 207.58 78.4142 208.119 78.2822 208.772C78.2749 208.801 78.2675 208.838 78.2602 208.882C78.2529 208.933 78.2455 208.97 78.2382 208.992C78.0915 209.601 77.8495 210.114 77.5122 210.532C77.1749 210.957 76.7605 211.28 76.2692 211.5C75.7779 211.72 75.2315 211.83 74.6302 211.83C73.9555 211.83 73.4275 211.694 73.0462 211.423C72.6575 211.159 72.4045 210.803 72.2872 210.356C72.1625 209.916 72.1552 209.421 72.2652 208.871L72.3202 208.563C72.3349 208.49 72.3789 208.424 72.4522 208.365C72.5182 208.306 72.5915 208.277 72.6722 208.277L76.0712 208.277C76.0712 208.277 76.0749 208.27 76.0822 208.255C76.0822 208.24 76.0822 208.226 76.0822 208.211C76.1189 208.035 76.1299 207.877 76.1152 207.738C76.0932 207.606 76.0419 207.5 75.9612 207.419C75.8732 207.346 75.7559 207.309 75.6092 207.309C75.5139 207.309 75.4295 207.324 75.3562 207.353C75.2829 207.382 75.2169 207.419 75.1582 207.463C75.0995 207.514 75.0445 207.562 74.9932 207.606C74.9125 207.672 74.8502 207.712 74.8062 207.727C74.7549 207.749 74.6889 207.76 74.6082 207.76L72.8812 207.76C72.8079 207.76 72.7529 207.738 72.7162 207.694C72.6795 207.65 72.6722 207.595 72.6942 207.529C72.7309 207.397 72.8262 207.236 72.9802 207.045C73.1342 206.862 73.3505 206.682 73.6292 206.506C73.9005 206.33 74.2269 206.183 74.6082 206.066C74.9895 205.949 75.4149 205.89 75.8842 205.89ZM75.8072 209.509L74.4322 209.509L74.4322 209.531C74.3882 209.729 74.3809 209.898 74.4102 210.037C74.4322 210.176 74.4872 210.279 74.5752 210.345C74.6632 210.418 74.7805 210.455 74.9272 210.455C75.0739 210.455 75.2059 210.418 75.3232 210.345C75.4405 210.279 75.5395 210.176 75.6202 210.037C75.6935 209.898 75.7559 209.729 75.8072 209.531L75.8072 209.509ZM69.2026 205.89C69.8186 205.89 70.3356 205.985 70.7536 206.176C71.1716 206.367 71.4759 206.645 71.6666 207.012C71.8499 207.386 71.9012 207.833 71.8206 208.354C71.8059 208.457 71.7949 208.534 71.7876 208.585C71.7802 208.636 71.7692 208.688 71.7546 208.739C71.7399 208.798 71.7216 208.878 71.6996 208.981C71.5602 209.509 71.3549 209.953 71.0836 210.312C70.8049 210.679 70.4529 210.954 70.0276 211.137C69.5949 211.328 69.0816 211.423 68.4876 211.423C68.2089 211.423 67.9486 211.386 67.7066 211.313C67.4572 211.247 67.2299 211.141 67.0246 210.994C66.9806 211.368 67.0246 211.676 67.1566 211.918C67.2886 212.167 67.5159 212.354 67.8386 212.479C68.1539 212.611 68.5792 212.684 69.1146 212.699C69.2026 212.699 69.2722 212.728 69.3236 212.787C69.3749 212.846 69.4006 212.912 69.4006 212.985L69.4006 213.964C69.4006 214.045 69.3749 214.111 69.3236 214.162C69.2649 214.221 69.1916 214.254 69.1036 214.261C68.1429 214.261 67.3692 214.103 66.7826 213.788C66.1959 213.48 65.7852 213.022 65.5506 212.413C65.3086 211.804 65.2426 211.049 65.3526 210.147C65.3746 209.861 65.4186 209.579 65.4846 209.3C65.5432 209.021 65.6239 208.706 65.7266 208.354C65.8659 207.833 66.0786 207.386 66.3646 207.012C66.6506 206.645 67.0246 206.367 67.4866 206.176C67.9486 205.985 68.5206 205.89 69.2026 205.89ZM68.9826 207.441C68.7186 207.441 68.5169 207.522 68.3776 207.683C68.2309 207.844 68.1136 208.086 68.0256 208.409C67.9962 208.512 67.9742 208.596 67.9596 208.662C67.9449 208.735 67.9302 208.823 67.9156 208.926C67.8789 209.124 67.8716 209.293 67.8936 209.432C67.9082 209.579 67.9596 209.689 68.0476 209.762C68.1356 209.843 68.2639 209.883 68.4326 209.883C68.7112 209.883 68.9202 209.799 69.0596 209.63C69.1916 209.469 69.3016 209.234 69.3896 208.926C69.4189 208.823 69.4409 208.735 69.4556 208.662C69.4702 208.596 69.4849 208.512 69.4996 208.409C69.5509 208.086 69.5472 207.844 69.4886 207.683C69.4226 207.522 69.2539 207.441 68.9826 207.441ZM62.2631 205.89C62.8718 205.89 63.3851 205.985 63.8031 206.176C64.2211 206.367 64.5254 206.645 64.7161 207.012C64.9068 207.386 64.9618 207.833 64.8811 208.354C64.8591 208.508 64.8298 208.677 64.7931 208.86C64.7564 209.043 64.7161 209.212 64.6721 209.366C64.5181 209.894 64.2944 210.341 64.0011 210.708C63.7078 211.075 63.3301 211.353 62.8681 211.544C62.3988 211.735 61.8414 211.83 61.1961 211.83C60.6094 211.83 60.1071 211.735 59.6891 211.544C59.2711 211.353 58.9594 211.075 58.7541 210.708C58.5488 210.341 58.4864 209.894 58.5671 209.366C58.5964 209.212 58.6294 209.043 58.6661 208.86C58.7028 208.677 58.7431 208.508 58.7871 208.354C58.9264 207.833 59.1391 207.386 59.4251 207.012C59.7111 206.645 60.0851 206.367 60.5471 206.176C61.0091 205.985 61.5811 205.89 62.2631 205.89ZM62.0431 207.441C61.7718 207.441 61.5664 207.522 61.4271 207.683C61.2878 207.844 61.1741 208.086 61.0861 208.409C61.0568 208.519 61.0238 208.669 60.9871 208.86C60.9431 209.051 60.9138 209.201 60.8991 209.311C60.8478 209.626 60.8551 209.865 60.9211 210.026C60.9798 210.195 61.1448 210.279 61.4161 210.279C61.6801 210.279 61.8854 210.195 62.0321 210.026C62.1714 209.865 62.2814 209.626 62.3621 209.311C62.3914 209.201 62.4281 209.051 62.4721 208.86C62.5161 208.669 62.5454 208.519 62.5601 208.409C62.6041 208.086 62.5968 207.844 62.5381 207.683C62.4794 207.522 62.3144 207.441 62.0431 207.441ZM57.9511 206C58.0318 206 58.0941 206.026 58.1381 206.077C58.1821 206.136 58.1968 206.205 58.1821 206.286L57.0821 211.434C57.0674 211.515 57.0271 211.581 56.9611 211.632C56.8951 211.691 56.8218 211.72 56.7411 211.72L55.1131 211.72C55.0324 211.72 54.9701 211.691 54.9261 211.632C54.8748 211.581 54.8564 211.515 54.8711 211.434L55.2451 209.74L53.7051 209.74L53.3421 211.434C53.3274 211.515 53.2871 211.581 53.2211 211.632C53.1551 211.691 53.0818 211.72 53.0011 211.72L51.3621 211.72C51.2814 211.72 51.2191 211.691 51.1751 211.632C51.1311 211.581 51.1164 211.515 51.1311 211.434L52.2311 206.286C52.2458 206.205 52.2861 206.136 52.3521 206.077C52.4181 206.026 52.4914 206 52.5721 206L54.2111 206C54.2918 206 54.3541 206.026 54.3981 206.077C54.4421 206.136 54.4568 206.205 54.4421 206.286L54.0571 208.057L55.5971 208.057L55.9821 206.286C55.9968 206.205 56.0371 206.136 56.1031 206.077C56.1691 206.026 56.2424 206 56.3231 206L57.9511 206ZM49.0038 205.89C49.4071 205.89 49.7628 205.982 50.0708 206.165C50.3715 206.348 50.5878 206.623 50.7198 206.99C50.8445 207.357 50.8445 207.819 50.7198 208.376L50.0818 211.434C50.0671 211.515 50.0268 211.581 49.9608 211.632C49.8875 211.691 49.8105 211.72 49.7298 211.72L47.9918 211.72C47.9111 211.72 47.8488 211.691 47.8048 211.632C47.7608 211.581 47.7461 211.515 47.7608 211.434L48.3988 208.453C48.4355 208.27 48.4428 208.116 48.4208 207.991C48.3988 207.866 48.3401 207.771 48.2448 207.705C48.1495 207.639 48.0175 207.606 47.8488 207.606C47.5995 207.606 47.3905 207.679 47.2218 207.826C47.0458 207.973 46.9285 208.182 46.8698 208.453L46.2428 211.434C46.2281 211.515 46.1878 211.581 46.1218 211.632C46.0485 211.691 45.9715 211.72 45.8908 211.72L44.1528 211.72C44.0721 211.72 44.0135 211.691 43.9768 211.632C43.9328 211.581 43.9181 211.515 43.9328 211.434L45.0218 206.286C45.0365 206.205 45.0768 206.136 45.1428 206.077C45.2088 206.026 45.2821 206 45.3628 206L46.9688 206C47.0495 206 47.1118 206.026 47.1558 206.077C47.1998 206.136 47.2145 206.205 47.1998 206.286L47.1118 206.682C47.2731 206.506 47.4418 206.359 47.6178 206.242C47.7938 206.125 47.9918 206.037 48.2118 205.978C48.4318 205.919 48.6958 205.89 49.0038 205.89ZM45.3493 203.91C45.4226 203.91 45.4813 203.939 45.5253 203.998C45.5693 204.049 45.584 204.115 45.5693 204.196L45.3273 205.307C45.3126 205.388 45.2723 205.457 45.2063 205.516C45.1403 205.567 45.067 205.593 44.9863 205.593L44.4583 205.593C44.253 205.593 44.0953 205.655 43.9853 205.78C43.8753 205.905 43.7983 206.066 43.7543 206.264L42.6653 211.434C42.6506 211.515 42.6103 211.581 42.5443 211.632C42.471 211.691 42.394 211.72 42.3133 211.72L40.5973 211.72C40.5166 211.72 40.458 211.691 40.4213 211.632C40.3773 211.581 40.3626 211.515 40.3773 211.434L41.4773 206.209C41.5873 205.703 41.7743 205.281 42.0383 204.944C42.295 204.599 42.625 204.343 43.0283 204.174C43.4316 203.998 43.9083 203.91 44.4583 203.91L45.3493 203.91ZM42.1373 212.435C42.218 212.435 42.2803 212.461 42.3243 212.512C42.3683 212.571 42.383 212.64 42.3683 212.721L42.1153 213.876C42.1006 213.957 42.0603 214.026 41.9943 214.085C41.921 214.144 41.844 214.173 41.7633 214.173L40.1023 214.173C40.0216 214.173 39.9593 214.144 39.9153 214.085C39.8713 214.026 39.8566 213.957 39.8713 213.876L40.1243 212.721C40.139 212.64 40.1793 212.571 40.2453 212.512C40.3113 212.461 40.3846 212.435 40.4653 212.435L42.1373 212.435ZM38.1419 205.89C38.4792 205.89 38.7836 205.941 39.0549 206.044C39.3189 206.147 39.5389 206.304 39.7149 206.517C39.8836 206.73 39.9972 206.997 40.0559 207.32C40.1146 207.643 40.1072 208.02 40.0339 208.453C40.0046 208.614 39.9789 208.754 39.9569 208.871C39.9276 208.988 39.8946 209.124 39.8579 209.278C39.7552 209.689 39.6159 210.052 39.4399 210.367C39.2639 210.69 39.0549 210.957 38.8129 211.17C38.5709 211.383 38.2996 211.544 37.9989 211.654C37.6909 211.771 37.3572 211.83 36.9979 211.83C36.5652 211.83 36.2352 211.771 36.0079 211.654C35.7732 211.544 35.5899 211.401 35.4579 211.225L35.4029 211.434C35.3882 211.515 35.3479 211.581 35.2819 211.632C35.2159 211.691 35.1462 211.72 35.0729 211.72L33.5219 211.72C33.4412 211.72 33.3789 211.691 33.3349 211.632C33.2909 211.581 33.2762 211.515 33.2909 211.434L34.3799 206.286C34.3946 206.205 34.4349 206.136 34.5009 206.077C34.5669 206.026 34.6402 206 34.7209 206L36.2719 206C36.3526 206 36.4186 206.026 36.4699 206.077C36.5139 206.136 36.5286 206.205 36.5139 206.286L36.4479 206.594C36.6679 206.381 36.9062 206.209 37.1629 206.077C37.4196 205.952 37.7459 205.89 38.1419 205.89ZM37.1519 207.606C36.9612 207.606 36.8036 207.646 36.6789 207.727C36.5469 207.808 36.4406 207.914 36.3599 208.046C36.2792 208.178 36.2169 208.325 36.1729 208.486C36.1289 208.647 36.0959 208.787 36.0739 208.904C36.0446 209.021 36.0189 209.157 35.9969 209.311C35.9749 209.465 35.9786 209.601 36.0079 209.718C36.0299 209.835 36.0886 209.931 36.1839 210.004C36.2792 210.077 36.4149 210.114 36.5909 210.114C36.7742 210.114 36.9282 210.074 37.0529 209.993C37.1776 209.92 37.2802 209.813 37.3609 209.674C37.4342 209.542 37.4966 209.388 37.5479 209.212C37.5772 209.102 37.6066 208.985 37.6359 208.86C37.6652 208.735 37.6872 208.618 37.7019 208.508C37.7239 208.332 37.7276 208.174 37.7129 208.035C37.6982 207.903 37.6469 207.797 37.5589 207.716C37.4709 207.643 37.3352 207.606 37.1519 207.606Z" fill="#FBFBFB"/>
<path d="M137.635 177.93C137.915 177.93 138.153 177.991 138.349 178.112C138.54 178.233 138.673 178.411 138.748 178.644C138.818 178.882 138.816 179.171 138.741 179.512L138.335 181.465C138.326 181.516 138.3 181.558 138.258 181.591C138.216 181.624 138.169 181.64 138.118 181.64L137.236 181.64C137.189 181.64 137.154 181.624 137.131 181.591C137.103 181.558 137.094 181.516 137.103 181.465L137.509 179.554C137.542 179.405 137.551 179.279 137.537 179.176C137.518 179.073 137.474 178.996 137.404 178.945C137.329 178.894 137.22 178.868 137.075 178.868C136.874 178.868 136.702 178.926 136.557 179.043C136.408 179.164 136.31 179.335 136.263 179.554L135.857 181.465C135.848 181.516 135.822 181.558 135.78 181.591C135.738 181.624 135.694 181.64 135.647 181.64L134.772 181.64C134.721 181.64 134.683 181.624 134.66 181.591C134.632 181.558 134.623 181.516 134.632 181.465L135.332 178.175C135.341 178.124 135.367 178.082 135.409 178.049C135.446 178.016 135.491 178 135.542 178L136.347 178C136.398 178 136.438 178.016 136.466 178.049C136.494 178.082 136.503 178.124 136.494 178.175L136.438 178.441C136.536 178.334 136.641 178.24 136.753 178.161C136.865 178.086 136.991 178.03 137.131 177.993C137.271 177.951 137.439 177.93 137.635 177.93ZM133.619 178C133.671 178 133.71 178.016 133.738 178.049C133.766 178.082 133.776 178.124 133.766 178.175L133.059 181.465C133.05 181.516 133.027 181.558 132.989 181.591C132.947 181.624 132.901 181.64 132.849 181.64L130.511 181.64C130.465 181.64 130.427 181.624 130.399 181.591C130.371 181.558 130.362 181.516 130.371 181.465L130.49 180.898C130.5 180.847 130.525 180.805 130.567 180.772C130.609 180.739 130.656 180.723 130.707 180.723L132.044 180.723L132.583 178.175C132.593 178.124 132.618 178.082 132.66 178.049C132.702 178.016 132.747 178 132.793 178L133.619 178ZM129.861 176.67C129.912 176.67 129.949 176.686 129.973 176.719C129.996 176.752 130.003 176.794 129.994 176.845L129.014 181.465C129.004 181.516 128.981 181.558 128.944 181.591C128.902 181.624 128.855 181.64 128.804 181.64L128.013 181.64C127.966 181.64 127.929 181.624 127.901 181.591C127.873 181.558 127.863 181.516 127.873 181.465L127.929 181.206C127.789 181.351 127.621 181.47 127.425 181.563C127.224 181.661 126.993 181.71 126.732 181.71C126.498 181.71 126.3 181.673 126.137 181.598C125.973 181.528 125.845 181.423 125.752 181.283C125.654 181.143 125.593 180.973 125.57 180.772C125.542 180.571 125.549 180.34 125.591 180.079C125.609 179.986 125.628 179.899 125.647 179.82C125.661 179.741 125.679 179.654 125.703 179.561C125.782 179.23 125.908 178.943 126.081 178.7C126.253 178.457 126.463 178.268 126.711 178.133C126.953 177.998 127.229 177.93 127.537 177.93C127.765 177.93 127.959 177.97 128.118 178.049C128.272 178.133 128.386 178.25 128.461 178.399L128.79 176.845C128.799 176.794 128.825 176.752 128.867 176.719C128.909 176.686 128.955 176.67 129.007 176.67L129.861 176.67ZM127.719 178.868C127.56 178.868 127.429 178.901 127.327 178.966C127.224 179.031 127.142 179.12 127.082 179.232C127.016 179.344 126.965 179.468 126.928 179.603C126.904 179.673 126.886 179.745 126.872 179.82C126.853 179.895 126.839 179.967 126.83 180.037C126.811 180.172 126.811 180.296 126.83 180.408C126.844 180.52 126.888 180.609 126.963 180.674C127.037 180.739 127.154 180.772 127.313 180.772C127.467 180.772 127.597 180.737 127.705 180.667C127.812 180.602 127.898 180.515 127.964 180.408C128.029 180.301 128.078 180.184 128.111 180.058C128.134 179.969 128.155 179.883 128.174 179.799C128.192 179.715 128.209 179.626 128.223 179.533C128.241 179.416 128.239 179.307 128.216 179.204C128.192 179.106 128.141 179.024 128.062 178.959C127.978 178.898 127.863 178.868 127.719 178.868ZM123.429 177.93C123.709 177.93 123.947 177.991 124.143 178.112C124.334 178.233 124.467 178.411 124.542 178.644C124.612 178.882 124.609 179.171 124.535 179.512L124.129 181.465C124.119 181.516 124.094 181.558 124.052 181.591C124.01 181.624 123.963 181.64 123.912 181.64L123.03 181.64C122.983 181.64 122.948 181.624 122.925 181.591C122.897 181.558 122.887 181.516 122.897 181.465L123.303 179.554C123.335 179.405 123.345 179.279 123.331 179.176C123.312 179.073 123.268 178.996 123.198 178.945C123.123 178.894 123.013 178.868 122.869 178.868C122.668 178.868 122.495 178.926 122.351 179.043C122.201 179.164 122.103 179.335 122.057 179.554L121.651 181.465C121.641 181.516 121.616 181.558 121.574 181.591C121.532 181.624 121.487 181.64 121.441 181.64L120.566 181.64C120.514 181.64 120.477 181.624 120.454 181.591C120.426 181.558 120.416 181.516 120.426 181.465L121.126 178.175C121.135 178.124 121.161 178.082 121.203 178.049C121.24 178.016 121.284 178 121.336 178L122.141 178C122.192 178 122.232 178.016 122.26 178.049C122.288 178.082 122.297 178.124 122.288 178.175L122.232 178.441C122.33 178.334 122.435 178.24 122.547 178.161C122.659 178.086 122.785 178.03 122.925 177.993C123.065 177.951 123.233 177.93 123.429 177.93ZM117.195 178C117.247 178 117.286 178.016 117.314 178.049C117.342 178.082 117.352 178.124 117.342 178.175L116.635 181.465C116.626 181.516 116.603 181.558 116.565 181.591C116.523 181.624 116.477 181.64 116.425 181.64L115.599 181.64C115.553 181.64 115.515 181.624 115.487 181.591C115.459 181.558 115.45 181.516 115.459 181.465L115.711 180.303L114.451 180.303L114.199 181.465C114.19 181.516 114.167 181.558 114.129 181.591C114.087 181.624 114.041 181.64 113.989 181.64L113.163 181.64C113.117 181.64 113.079 181.624 113.051 181.591C113.023 181.558 113.014 181.516 113.023 181.465L113.723 178.175C113.733 178.124 113.758 178.082 113.8 178.049C113.842 178.016 113.887 178 113.933 178L114.759 178C114.811 178 114.85 178.016 114.878 178.049C114.906 178.082 114.916 178.124 114.906 178.175L114.647 179.386L115.9 179.386L116.159 178.175C116.169 178.124 116.194 178.082 116.236 178.049C116.278 178.016 116.323 178 116.369 178L117.195 178ZM110.87 177.93C111.094 177.93 111.292 177.965 111.465 178.035C111.633 178.11 111.768 178.217 111.871 178.357C111.973 178.502 112.041 178.674 112.074 178.875C112.106 179.08 112.102 179.314 112.06 179.575C112.041 179.668 112.025 179.75 112.011 179.82C111.997 179.895 111.978 179.976 111.955 180.065C111.894 180.317 111.81 180.543 111.703 180.744C111.595 180.945 111.467 181.117 111.318 181.262C111.168 181.407 110.996 181.516 110.8 181.591C110.599 181.67 110.38 181.71 110.142 181.71C109.857 181.71 109.642 181.668 109.498 181.584C109.348 181.505 109.229 181.404 109.141 181.283L109.106 181.465C109.096 181.516 109.073 181.558 109.036 181.591C108.994 181.624 108.947 181.64 108.896 181.64L108.112 181.64C108.065 181.64 108.028 181.624 108 181.591C107.972 181.558 107.962 181.516 107.972 181.465L108.665 178.175C108.674 178.124 108.7 178.082 108.742 178.049C108.784 178.016 108.828 178 108.875 178L109.666 178C109.712 178 109.75 178.016 109.778 178.049C109.806 178.082 109.815 178.124 109.806 178.175L109.757 178.399C109.901 178.264 110.058 178.152 110.226 178.063C110.389 177.974 110.604 177.93 110.87 177.93ZM110.387 178.868C110.228 178.868 110.095 178.901 109.988 178.966C109.88 179.036 109.792 179.125 109.722 179.232C109.652 179.339 109.603 179.456 109.575 179.582C109.547 179.675 109.526 179.764 109.512 179.848C109.493 179.932 109.477 180.018 109.463 180.107C109.439 180.224 109.439 180.331 109.463 180.429C109.481 180.532 109.53 180.613 109.61 180.674C109.684 180.739 109.796 180.772 109.946 180.772C110.09 180.772 110.214 180.739 110.317 180.674C110.419 180.609 110.503 180.52 110.569 180.408C110.629 180.296 110.681 180.172 110.723 180.037C110.741 179.967 110.76 179.895 110.779 179.82C110.797 179.745 110.811 179.673 110.821 179.603C110.839 179.468 110.844 179.344 110.835 179.232C110.821 179.12 110.779 179.031 110.709 178.966C110.639 178.901 110.531 178.868 110.387 178.868ZM103.255 177.93C103.577 177.93 103.864 177.993 104.116 178.119C104.368 178.245 104.555 178.427 104.676 178.665C104.797 178.908 104.83 179.197 104.774 179.533C104.76 179.608 104.741 179.701 104.718 179.813C104.695 179.93 104.674 180.025 104.655 180.1C104.529 180.609 104.286 181.003 103.927 181.283C103.563 181.568 103.11 181.71 102.569 181.71C102.256 181.71 101.993 181.663 101.778 181.57C101.563 181.481 101.393 181.367 101.267 181.227C101.141 181.087 101.055 180.945 101.008 180.8C100.957 180.66 100.938 180.536 100.952 180.429C100.957 180.382 100.98 180.34 101.022 180.303C101.064 180.27 101.108 180.254 101.155 180.254L102.058 180.254C102.105 180.254 102.142 180.266 102.17 180.289C102.193 180.312 102.21 180.35 102.219 180.401C102.228 180.541 102.27 180.644 102.345 180.709C102.415 180.774 102.52 180.807 102.66 180.807C102.847 180.807 103.008 180.746 103.143 180.625C103.274 180.504 103.372 180.317 103.437 180.065C103.456 179.976 103.474 179.888 103.493 179.799C103.512 179.715 103.528 179.638 103.542 179.568C103.584 179.311 103.57 179.125 103.5 179.008C103.43 178.891 103.302 178.833 103.115 178.833C102.97 178.833 102.847 178.863 102.744 178.924C102.637 178.985 102.546 179.087 102.471 179.232C102.438 179.279 102.406 179.314 102.373 179.337C102.34 179.36 102.301 179.372 102.254 179.372L101.351 179.372C101.304 179.372 101.267 179.353 101.239 179.316C101.211 179.283 101.204 179.244 101.218 179.197C101.246 179.104 101.304 178.985 101.393 178.84C101.477 178.7 101.601 178.56 101.764 178.42C101.923 178.28 102.126 178.163 102.373 178.07C102.616 177.977 102.91 177.93 103.255 177.93ZM100.064 176.67C100.115 176.67 100.153 176.686 100.176 176.719C100.199 176.752 100.206 176.794 100.197 176.845L99.2171 181.465C99.2078 181.516 99.1844 181.558 99.1471 181.591C99.1051 181.624 99.0584 181.64 99.0071 181.64L98.2161 181.64C98.1694 181.64 98.1321 181.624 98.1041 181.591C98.0761 181.558 98.0668 181.516 98.0761 181.465L98.1321 181.206C97.9921 181.351 97.8241 181.47 97.6281 181.563C97.4274 181.661 97.1964 181.71 96.9351 181.71C96.7018 181.71 96.5034 181.673 96.3401 181.598C96.1768 181.528 96.0484 181.423 95.9551 181.283C95.8571 181.143 95.7964 180.973 95.7731 180.772C95.7451 180.571 95.7521 180.34 95.7941 180.079C95.8128 179.986 95.8314 179.899 95.8501 179.82C95.8641 179.741 95.8828 179.654 95.9061 179.561C95.9854 179.23 96.1114 178.943 96.2841 178.7C96.4568 178.457 96.6668 178.268 96.9141 178.133C97.1568 177.998 97.4321 177.93 97.7401 177.93C97.9688 177.93 98.1624 177.97 98.3211 178.049C98.4751 178.133 98.5894 178.25 98.6641 178.399L98.9931 176.845C99.0024 176.794 99.0281 176.752 99.0701 176.719C99.1121 176.686 99.1588 176.67 99.2101 176.67L100.064 176.67ZM97.9221 178.868C97.7634 178.868 97.6328 178.901 97.5301 178.966C97.4274 179.031 97.3458 179.12 97.2851 179.232C97.2198 179.344 97.1684 179.468 97.1311 179.603C97.1078 179.673 97.0891 179.745 97.0751 179.82C97.0564 179.895 97.0424 179.967 97.0331 180.037C97.0144 180.172 97.0144 180.296 97.0331 180.408C97.0471 180.52 97.0914 180.609 97.1661 180.674C97.2408 180.739 97.3574 180.772 97.5161 180.772C97.6701 180.772 97.8008 180.737 97.9081 180.667C98.0154 180.602 98.1018 180.515 98.1671 180.408C98.2324 180.301 98.2814 180.184 98.3141 180.058C98.3374 179.969 98.3584 179.883 98.3771 179.799C98.3958 179.715 98.4121 179.626 98.4261 179.533C98.4448 179.416 98.4424 179.307 98.4191 179.204C98.3958 179.106 98.3444 179.024 98.2651 178.959C98.1811 178.898 98.0668 178.868 97.9221 178.868ZM93.2611 177.93C93.6251 177.93 93.9307 177.995 94.1781 178.126C94.4207 178.261 94.5887 178.462 94.6821 178.728C94.7707 178.994 94.7801 179.321 94.7101 179.708C94.7007 179.741 94.6914 179.783 94.6821 179.834C94.6727 179.885 94.6634 179.925 94.6541 179.953C94.5607 180.322 94.4114 180.637 94.2061 180.898C94.0007 181.164 93.7487 181.365 93.4501 181.5C93.1514 181.64 92.8224 181.71 92.4631 181.71C92.0524 181.71 91.7327 181.628 91.5041 181.465C91.2707 181.302 91.1167 181.08 91.0421 180.8C90.9627 180.52 90.9604 180.2 91.0351 179.841L91.0631 179.673C91.0724 179.622 91.1004 179.58 91.1471 179.547C91.1891 179.514 91.2357 179.498 91.2871 179.498L93.5201 179.498C93.5201 179.493 93.5224 179.486 93.5271 179.477C93.5271 179.468 93.5294 179.458 93.5341 179.449C93.5574 179.314 93.5597 179.19 93.5411 179.078C93.5224 178.966 93.4757 178.877 93.4011 178.812C93.3264 178.747 93.2261 178.714 93.1001 178.714C93.0114 178.714 92.9321 178.728 92.8621 178.756C92.7921 178.789 92.7314 178.824 92.6801 178.861C92.6287 178.903 92.5867 178.938 92.5541 178.966C92.5027 179.013 92.4631 179.041 92.4351 179.05C92.4071 179.064 92.3651 179.071 92.3091 179.071L91.4411 179.071C91.3944 179.071 91.3594 179.057 91.3361 179.029C91.3127 179.006 91.3081 178.971 91.3221 178.924C91.3454 178.845 91.4061 178.749 91.5041 178.637C91.5974 178.525 91.7281 178.413 91.8961 178.301C92.0641 178.194 92.2624 178.105 92.4911 178.035C92.7197 177.965 92.9764 177.93 93.2611 177.93ZM93.3731 180.191L92.1901 180.191L92.1831 180.205C92.1457 180.354 92.1411 180.485 92.1691 180.597C92.1924 180.709 92.2437 180.795 92.3231 180.856C92.3977 180.917 92.4981 180.947 92.6241 180.947C92.7501 180.947 92.8644 180.917 92.9671 180.856C93.0651 180.795 93.1491 180.709 93.2191 180.597C93.2844 180.485 93.3357 180.354 93.3731 180.205L93.3731 180.191ZM89.9515 178C90.0028 178 90.0425 178.016 90.0705 178.049C90.0985 178.082 90.1078 178.124 90.0985 178.175L89.3915 181.465C89.3822 181.516 89.3588 181.558 89.3215 181.591C89.2795 181.624 89.2328 181.64 89.1815 181.64L88.3765 181.64C88.3252 181.64 88.2855 181.624 88.2575 181.591C88.2295 181.558 88.2202 181.516 88.2295 181.465L88.4815 180.303L88.1385 180.303L87.1305 181.528C87.1072 181.551 87.0792 181.575 87.0465 181.598C87.0138 181.626 86.9695 181.64 86.9135 181.64L85.9965 181.64C85.9545 181.64 85.9218 181.626 85.8985 181.598C85.8752 181.575 85.8658 181.542 85.8705 181.5C85.8752 181.472 85.8938 181.439 85.9265 181.402L87.2705 179.806L86.5285 178.231C86.5192 178.217 86.5145 178.203 86.5145 178.189C86.5098 178.175 86.5098 178.159 86.5145 178.14C86.5192 178.098 86.5402 178.063 86.5775 178.035C86.6148 178.012 86.6545 178 86.6965 178L87.5785 178C87.6252 178 87.6625 178.009 87.6905 178.028C87.7185 178.051 87.7418 178.079 87.7605 178.112L88.3135 179.386L88.6775 179.386L88.9365 178.175C88.9458 178.124 88.9715 178.082 89.0135 178.049C89.0508 178.016 89.0952 178 89.1465 178L89.9515 178ZM87.9495 182.165C88.0242 182.165 88.0545 182.202 88.0405 182.277C88.0312 182.314 88.0125 182.345 87.9845 182.368L87.2075 183.117C87.1468 183.173 87.0978 183.208 87.0605 183.222C87.0232 183.241 86.9765 183.25 86.9205 183.25L85.9965 183.25C85.9172 183.25 85.8822 183.208 85.8915 183.124C85.8962 183.082 85.9148 183.049 85.9475 183.026L87.0395 182.263C87.0862 182.23 87.1305 182.205 87.1725 182.186C87.2098 182.172 87.2612 182.165 87.3265 182.165L87.9495 182.165ZM83.8786 177.93C84.1026 177.93 84.3009 177.965 84.4736 178.035C84.6416 178.11 84.7769 178.217 84.8796 178.357C84.9822 178.502 85.0499 178.674 85.0826 178.875C85.1152 179.08 85.1106 179.314 85.0686 179.575C85.0499 179.668 85.0336 179.75 85.0196 179.82C85.0056 179.895 84.9869 179.976 84.9636 180.065C84.9029 180.317 84.8189 180.543 84.7116 180.744C84.6042 180.945 84.4759 181.117 84.3266 181.262C84.1772 181.407 84.0046 181.516 83.8086 181.591C83.6079 181.67 83.3886 181.71 83.1506 181.71C82.8659 181.71 82.6512 181.668 82.5066 181.584C82.3572 181.505 82.2382 181.404 82.1496 181.283L82.1146 181.465C82.1052 181.516 82.0819 181.558 82.0446 181.591C82.0026 181.624 81.9559 181.64 81.9046 181.64L81.1206 181.64C81.0739 181.64 81.0366 181.624 81.0086 181.591C80.9806 181.558 80.9712 181.516 80.9806 181.465L81.6736 178.175C81.6829 178.124 81.7086 178.082 81.7506 178.049C81.7926 178.016 81.8369 178 81.8836 178L82.6746 178C82.7212 178 82.7586 178.016 82.7866 178.049C82.8146 178.082 82.8239 178.124 82.8146 178.175L82.7656 178.399C82.9102 178.264 83.0666 178.152 83.2346 178.063C83.3979 177.974 83.6126 177.93 83.8786 177.93ZM83.3956 178.868C83.2369 178.868 83.1039 178.901 82.9966 178.966C82.8892 179.036 82.8006 179.125 82.7306 179.232C82.6606 179.339 82.6116 179.456 82.5836 179.582C82.5556 179.675 82.5346 179.764 82.5206 179.848C82.5019 179.932 82.4856 180.018 82.4716 180.107C82.4482 180.224 82.4482 180.331 82.4716 180.429C82.4902 180.532 82.5392 180.613 82.6186 180.674C82.6932 180.739 82.8052 180.772 82.9546 180.772C83.0992 180.772 83.2229 180.739 83.3256 180.674C83.4282 180.609 83.5122 180.52 83.5776 180.408C83.6382 180.296 83.6896 180.172 83.7316 180.037C83.7502 179.967 83.7689 179.895 83.7876 179.82C83.8062 179.745 83.8202 179.673 83.8296 179.603C83.8482 179.468 83.8529 179.344 83.8436 179.232C83.8296 179.12 83.7876 179.031 83.7176 178.966C83.6476 178.901 83.5402 178.868 83.3956 178.868Z" fill="black"/>
<path d="M135.563 209.826C135.723 209.826 135.853 209.876 135.954 209.978C136.056 210.079 136.107 210.21 136.107 210.369L136.107 211.673C136.107 211.789 136.078 211.941 136.02 212.129C135.947 212.332 135.795 212.528 135.563 212.716L132.694 215.563C131.637 216.375 130.782 217.063 130.13 217.628C129.463 218.193 128.971 218.707 128.652 219.171C128.333 219.635 128.174 220.084 128.174 220.519C128.174 221.084 128.333 221.547 128.652 221.909C128.956 222.286 129.456 222.475 130.152 222.475C130.615 222.475 131.006 222.373 131.325 222.17C131.629 221.982 131.869 221.728 132.042 221.41C132.216 221.091 132.332 220.743 132.39 220.366C132.434 220.178 132.528 220.048 132.673 219.975C132.803 219.903 132.941 219.867 133.086 219.867L135.389 219.867C135.534 219.867 135.65 219.91 135.737 219.997C135.824 220.098 135.868 220.207 135.868 220.323C135.853 220.989 135.715 221.62 135.455 222.214C135.179 222.808 134.795 223.337 134.303 223.8C133.81 224.264 133.216 224.626 132.521 224.887C131.825 225.162 131.035 225.3 130.152 225.3C128.935 225.3 127.913 225.097 127.087 224.691C126.261 224.3 125.638 223.757 125.218 223.061C124.798 222.366 124.588 221.562 124.588 220.649C124.588 219.953 124.733 219.309 125.023 218.715C125.298 218.121 125.704 217.548 126.24 216.998C126.776 216.462 127.413 215.904 128.152 215.324L130.717 212.76L124.805 212.76C124.646 212.76 124.515 212.709 124.414 212.608C124.313 212.506 124.262 212.376 124.262 212.216L124.262 210.369C124.262 210.21 124.313 210.079 124.414 209.978C124.515 209.876 124.646 209.826 124.805 209.826L135.563 209.826Z" fill="#FBFBFB"/>
<path d="M121.011 218C121.087 218 121.15 218.025 121.201 218.076C121.252 218.127 121.277 218.19 121.277 218.266L121.277 224.335C121.277 224.403 121.252 224.462 121.201 224.513C121.15 224.563 121.091 224.589 121.024 224.589L119.782 224.589C119.63 224.589 119.512 224.513 119.427 224.361L117.577 221.054L115.74 224.361C115.656 224.513 115.537 224.589 115.385 224.589L114.131 224.589C114.063 224.589 114.004 224.563 113.953 224.513C113.903 224.462 113.877 224.403 113.877 224.335L113.877 218.266C113.877 218.19 113.903 218.127 113.953 218.076C114.004 218.025 114.068 218 114.144 218L115.474 218C115.558 218 115.626 218.025 115.677 218.076C115.719 218.127 115.74 218.19 115.74 218.266L115.74 222.637L115.17 222.523L116.969 219.292C117.011 219.216 117.062 219.149 117.121 219.09C117.172 219.031 117.248 219.001 117.349 219.001L117.818 219.001C117.911 219.001 117.987 219.026 118.046 219.077C118.105 219.136 118.16 219.208 118.211 219.292L119.959 222.409L119.427 222.523L119.427 218.266C119.427 218.19 119.453 218.127 119.503 218.076C119.554 218.025 119.617 218 119.693 218L121.011 218Z" fill="#FBFBFB"/>
<line x1="40" y1="122.5" x2="120" y2="122.5" stroke="#494949" stroke-dasharray="2 2"/>
</svg>
